<svg xmlns="http://www.w3.org/2000/svg" xmlns:xlink="http://www.w3.org/1999/xlink" width="113" height="113" viewBox="0 0 113 113">
  <defs>
    <filter id="Path_982547" x="0" y="0" width="113" height="113" filterUnits="userSpaceOnUse">
      <feOffset dy="3" input="SourceAlpha"/>
      <feGaussianBlur stdDeviation="3" result="blur"/>
      <feFlood flood-opacity="0.161"/>
      <feComposite operator="in" in2="blur"/>
      <feComposite in="SourceGraphic"/>
    </filter>
  </defs>
  <g id="Group_1203802" data-name="Group 1203802" transform="translate(-323.5 -2800)">
    <g id="Group_1203568" data-name="Group 1203568">
      <g id="Group_1202424" data-name="Group 1202424" transform="translate(0 1464)">
        <g id="Group_1178325" data-name="Group 1178325" transform="translate(0 424)">
          <g id="Group_1177679" data-name="Group 1177679" transform="translate(332.5 918)">
            <g id="Group_1172010" data-name="Group 1172010">
              <g id="Group_1171046" data-name="Group 1171046">
                <g id="Group_1148525" data-name="Group 1148525">
                  <g transform="matrix(1, 0, 0, 1, -9, -6)" filter="url(#Path_982547)">
                    <g id="Path_982547-2" data-name="Path 982547" transform="translate(9 6)" fill="#edf3fc">
                      <path d="M 47.5 93.5 C 41.28937149047852 93.5 35.26533508300781 92.28397369384766 29.59518623352051 89.88570404052734 C 24.11771965026855 87.56893157958984 19.19813346862793 84.25196075439453 14.97309303283691 80.02691650390625 C 10.74804019927979 75.80186462402344 7.431066513061523 70.88229370117188 5.114293098449707 65.40481567382812 C 2.716026782989502 59.73468017578125 1.5 53.71062850952148 1.5 47.5 C 1.5 41.28937149047852 2.716026782989502 35.26533508300781 5.114293098449707 29.59518623352051 C 7.431066513061523 24.11771965026855 10.74804019927979 19.19813346862793 14.97309303283691 14.97309303283691 C 19.19813346862793 10.74804019927979 24.11771965026855 7.431066513061523 29.59518623352051 5.114293098449707 C 35.26533508300781 2.716026782989502 41.28937149047852 1.5 47.5 1.5 C 53.71062850952148 1.5 59.73468017578125 2.716026782989502 65.40481567382812 5.114293098449707 C 70.88229370117188 7.431066513061523 75.80186462402344 10.74804019927979 80.02691650390625 14.97309303283691 C 84.25196075439453 19.19813346862793 87.56893157958984 24.11771965026855 89.88570404052734 29.59518623352051 C 92.28397369384766 35.26533508300781 93.5 41.28937149047852 93.5 47.5 C 93.5 53.71062850952148 92.28397369384766 59.73468017578125 89.88570404052734 65.40481567382812 C 87.56893157958984 70.88229370117188 84.25196075439453 75.80186462402344 80.02691650390625 80.02691650390625 C 75.80186462402344 84.25196075439453 70.88229370117188 87.56893157958984 65.40481567382812 89.88570404052734 C 59.73468017578125 92.28397369384766 53.71062850952148 93.5 47.5 93.5 Z" stroke="none"/>
                      <path d="M 47.5 3 C 41.49121475219727 3 35.66376876831055 4.176155090332031 30.17950439453125 6.495796203613281 C 24.88084411621094 8.736953735351562 20.12152099609375 11.94598388671875 16.03375244140625 16.03375244140625 C 11.94598388671875 20.12152099609375 8.736953735351562 24.88084411621094 6.495796203613281 30.17950439453125 C 4.176155090332031 35.66376876831055 3 41.49121475219727 3 47.5 C 3 53.50878524780273 4.176155090332031 59.33623123168945 6.495796203613281 64.82049560546875 C 8.736953735351562 70.11915588378906 11.94598388671875 74.87847900390625 16.03375244140625 78.96624755859375 C 20.12152099609375 83.05401611328125 24.88084411621094 86.26304626464844 30.17950439453125 88.50419616699219 C 35.66376876831055 90.82384490966797 41.49121475219727 92 47.5 92 C 53.50878524780273 92 59.33623123168945 90.82384490966797 64.82049560546875 88.50419616699219 C 70.11915588378906 86.26304626464844 74.87847900390625 83.05401611328125 78.96624755859375 78.96624755859375 C 83.05401611328125 74.87847900390625 86.26304626464844 70.11915588378906 88.50419616699219 64.82049560546875 C 90.82384490966797 59.33623123168945 92 53.50878524780273 92 47.5 C 92 41.49121475219727 90.82384490966797 35.66376876831055 88.50419616699219 30.17950439453125 C 86.26304626464844 24.88084411621094 83.05401611328125 20.12152099609375 78.96624755859375 16.03375244140625 C 74.87847900390625 11.94598388671875 70.11915588378906 8.736953735351562 64.82049560546875 6.495796203613281 C 59.33623123168945 4.176155090332031 53.50878524780273 3 47.5 3 M 47.5 0 C 73.7335205078125 0 95 21.2664794921875 95 47.5 C 95 73.7335205078125 73.7335205078125 95 47.5 95 C 21.2664794921875 95 0 73.7335205078125 0 47.5 C 0 21.2664794921875 21.2664794921875 0 47.5 0 Z" stroke="none" fill="#5692e8"/>
                    </g>
                  </g>
                </g>
              </g>
            </g>
          </g>
        </g>
      </g>
      <g id="madre" transform="translate(350.106 2825.013)">
        <g id="Group_1203566" data-name="Group 1203566" transform="translate(0.876 0.876)">
          <g id="Group_1203562" data-name="Group 1203562" transform="translate(35.85)">
            <circle id="Ellipse_12580" data-name="Ellipse 12580" cx="11.093" cy="11.093" r="11.093" fill="#ffe077"/>
            <path id="Path_1042377" data-name="Path 1042377" d="M334.585,43.941a11.094,11.094,0,1,1-16-15.1,11.094,11.094,0,0,0,16,15.1Z" transform="translate(-314.5 -26.348)" fill="#ffd05b"/>
          </g>
          <g id="Group_1203563" data-name="Group 1203563" transform="translate(35.85 35.849)">
            <circle id="Ellipse_12581" data-name="Ellipse 12581" cx="11.093" cy="11.093" r="11.093" fill="#d9f5f9"/>
            <path id="Path_1042378" data-name="Path 1042378" d="M334.585,350.941a11.094,11.094,0,1,1-16-15.1,11.094,11.094,0,0,0,16,15.1Z" transform="translate(-314.5 -333.348)" fill="#c6ebf4"/>
          </g>
          <g id="Group_1203564" data-name="Group 1203564" transform="translate(0 35.849)">
            <circle id="Ellipse_12582" data-name="Ellipse 12582" cx="11.093" cy="11.093" r="11.093" transform="translate(0)" fill="#6fbbc6"/>
            <path id="Path_1042379" data-name="Path 1042379" d="M27.584,350.941a11.094,11.094,0,1,1-16-15.1,11.094,11.094,0,0,0,16,15.1Z" transform="translate(-7.499 -333.348)" fill="#61aab8"/>
          </g>
          <g id="Group_1203565" data-name="Group 1203565" transform="translate(0)">
            <circle id="Ellipse_12583" data-name="Ellipse 12583" cx="11.093" cy="11.093" r="11.093" fill="#ccf49f"/>
            <path id="Path_1042380" data-name="Path 1042380" d="M27.585,43.941a11.094,11.094,0,1,1-16-15.1,11.094,11.094,0,0,0,16,15.1Z" transform="translate(-7.5 -26.348)" fill="#b3e59f"/>
          </g>
          <path id="Path_1042381" data-name="Path 1042381" d="M62.689,362a5.521,5.521,0,0,0-3.254,1.054s-.451.478-.7.74a5.319,5.319,0,0,0-1.314,3.753,5.116,5.116,0,0,0,5.263,5.313,5.231,5.231,0,0,0,3.737-1.379c.25-.236.756-.68.756-.68a5.547,5.547,0,0,0-4.492-8.8Zm0,7.4a1.849,1.849,0,1,1,1.849-1.849A1.85,1.85,0,0,1,62.689,369.4Z" transform="translate(-51.596 -320.604)" fill="#f9f8f9"/>
          <path id="Path_1042382" data-name="Path 1042382" d="M65.039,378.774a5.547,5.547,0,1,1-7.746-7.747,5.6,5.6,0,0,0,7.746,7.747Z" transform="translate(-49.453 -328.577)" fill="#e8e8e8"/>
          <circle id="Ellipse_12584" data-name="Ellipse 12584" cx="15.589" cy="15.589" r="15.589" transform="translate(13.429 13.429)" fill="#ff7892"/>
          <path id="Path_1042383" data-name="Path 1042383" d="M150.63,179.315a15.589,15.589,0,1,1-23.212-20.625,15.589,15.589,0,0,0,23.212,20.625Z" transform="translate(-109.071 -141.035)" fill="#ff5f7a"/>
          <circle id="Ellipse_12585" data-name="Ellipse 12585" cx="1.693" cy="1.693" r="1.693" transform="translate(45.25 3.124)" fill="#ff7892"/>
          <path id="Path_1042384" data-name="Path 1042384" d="M374.186,89.756H366.21l-.31-.239a1.249,1.249,0,0,1-1.249-1.249l.066-4.027a1.249,1.249,0,0,1,1.249-1.249l.244-.241h7.976A1.249,1.249,0,0,1,375.435,84v4.508A1.249,1.249,0,0,1,374.186,89.756Z" transform="translate(-322.945 -73.963)" fill="#6fbbc6"/>
          <path id="Path_1042385" data-name="Path 1042385" d="M363.868,82.75v7.006h-.619A1.249,1.249,0,0,1,362,88.507V84a1.249,1.249,0,0,1,1.25-1.249Z" transform="translate(-320.604 -73.963)" fill="#61aab8"/>
          <path id="Path_1042386" data-name="Path 1042386" d="M375.662,371.178h-5.255a2.35,2.35,0,0,1-.467-.047s-1.727-1.533-1.727-2.663l.072-6.219c0-1.129,1.651-2.7,1.651-2.7a2.349,2.349,0,0,1,.471-.047h5.255A2.335,2.335,0,0,1,378,361.836v7.006A2.336,2.336,0,0,1,375.662,371.178Z" transform="translate(-326.091 -318.397)" fill="#6fbbc6"/>
          <path id="Path_1042387" data-name="Path 1042387" d="M368.865,359.906l0,11.583A2.335,2.335,0,0,1,367,369.2v-7.006A2.331,2.331,0,0,1,368.865,359.906Z" transform="translate(-325.02 -318.754)" fill="#61aab8"/>
          <path id="Path_1042388" data-name="Path 1042388" d="M73.358,119.609a4.73,4.73,0,0,1-5.056,4.426,4.626,4.626,0,0,1-.5-.061s-.792-.387-1.206-.6a4.408,4.408,0,0,1-2.438-3.762l4.252-.481Z" transform="translate(-57.544 -106.093)" fill="#d9f5f9"/>
          <path id="Path_1042389" data-name="Path 1042389" d="M71.5,52.742c0,.1,0,.2-.009.292h-9.44c0-.016,0-.032,0-.048,0,0,1.4-3.517,3.008-4.332a.589.589,0,0,0,.328-.523l-.422-4.38h3.62V48a.591.591,0,0,0,.327.524A4.728,4.728,0,0,1,71.5,52.742Z" transform="translate(-55.68 -39.517)" fill="#f9f8f9"/>
          <path id="Path_1042390" data-name="Path 1042390" d="M65.967,124.876a4.753,4.753,0,0,1-3.887-4.365l.917-.362.842.362a4.668,4.668,0,0,0-.012.653c0,.016,0,.032,0,.048A4.742,4.742,0,0,0,65.967,124.876Z" transform="translate(-55.706 -106.995)" fill="#c6ebf4"/>
          <path id="Path_1042391" data-name="Path 1042391" d="M66.668,49.5V53.75a.589.589,0,0,1-.328.523,4.732,4.732,0,0,0-2.574,3.81h-1.76c0-.016,0-.032,0-.048a4.73,4.73,0,0,1,2.585-4.463.589.589,0,0,0,.328-.523V49.468Z" transform="translate(-55.633 -44.567)" fill="#e8e8e8"/>
        </g>
        <g id="Group_1203567" data-name="Group 1203567" transform="translate(0 0)">
          <path id="Path_1042392" data-name="Path 1042392" d="M47.819,35.849a11.991,11.991,0,0,0-2.691.3,16.351,16.351,0,0,0,1.1-4.208.876.876,0,1,0-1.738-.216,14.712,14.712,0,1,1-.022-3.841.876.876,0,0,0,1.736-.237,16.362,16.362,0,0,0-1.082-4.016A11.972,11.972,0,0,0,57.052,4.353.876.876,0,0,0,55.7,5.468,10.218,10.218,0,0,1,44.037,21.461a16.495,16.495,0,0,0-5.71-5.709,10.22,10.22,0,0,1,14.5-12.69.876.876,0,1,0,.86-1.526A11.978,11.978,0,0,0,36.154,14.665a16.462,16.462,0,0,0-12.52,0,12.053,12.053,0,0,0-.29-6.433.876.876,0,1,0-1.664.546,10.244,10.244,0,0,1-.222,6.98,16.59,16.59,0,0,0-5.7,5.7A10.217,10.217,0,1,1,19.877,5.5a.876.876,0,1,0,1.355-1.11,11.962,11.962,0,1,0-6.565,19.246,16.453,16.453,0,0,0,0,12.52,12,12,0,0,0-10.24,2.371.876.876,0,0,0,1.1,1.359A10.217,10.217,0,0,1,15.76,38.33a16.589,16.589,0,0,0,5.7,5.7A10.217,10.217,0,1,1,3.1,42.748a.876.876,0,1,0-1.52-.871,11.966,11.966,0,1,0,22.057,3.244,16.454,16.454,0,0,0,12.52,0,11.971,11.971,0,1,0,11.665-9.272Zm0,22.187A10.217,10.217,0,0,1,38.33,44.029a16.552,16.552,0,0,0,5.709-5.7,10.218,10.218,0,1,1,3.78,19.71Z" transform="translate(0 0)"/>
          <path id="Path_1042393" data-name="Path 1042393" d="M38.376,351.214a.876.876,0,1,0,0,1.752h.647a6.1,6.1,0,0,0,1.159,2.794l-.459.459a.876.876,0,1,0,1.239,1.238l.459-.459a6.1,6.1,0,0,0,2.794,1.159v.647a.876.876,0,1,0,1.752,0v-.647A6.1,6.1,0,0,0,48.76,357l.459.459a.876.876,0,0,0,1.239-1.238L50,355.76a6.1,6.1,0,0,0,1.159-2.794H51.8a.876.876,0,0,0,0-1.752h-.647A6.1,6.1,0,0,0,50,348.421l.459-.459a.876.876,0,0,0-1.239-1.239l-.459.459a6.1,6.1,0,0,0-2.794-1.159v-.648a.876.876,0,0,0-1.752,0v.647a6.1,6.1,0,0,0-2.794,1.159l-.459-.459a.876.876,0,0,0-1.239,1.238l.459.459a6.1,6.1,0,0,0-1.159,2.794h-.647Zm6.714-3.5a4.379,4.379,0,1,1-4.379,4.379A4.384,4.384,0,0,1,45.09,347.711Z" transform="translate(-33.121 -304.272)"/>
          <path id="Path_1042394" data-name="Path 1042394" d="M82.627,392.255A2.627,2.627,0,1,0,80,389.627,2.63,2.63,0,0,0,82.627,392.255Zm0-3.5a.876.876,0,1,1-.876.876A.877.877,0,0,1,82.627,388.752Z" transform="translate(-70.658 -341.809)"/>
          <path id="Path_1042395" data-name="Path 1042395" d="M304.274,223.5a1.049,1.049,0,0,0-1,.755l-.949,3.293-.985-3.3a1.044,1.044,0,0,0-2.028.11l-1.046,5.7a.876.876,0,1,0,1.723.316l.514-2.8.828,2.774a1.05,1.05,0,0,0,2.013-.009l.8-2.772.547,2.818a.933.933,0,0,0,1.027.693.876.876,0,0,0,.693-1.027l-1.108-5.7A1.046,1.046,0,0,0,304.274,223.5Z" transform="translate(-263.421 -197.401)"/>
          <path id="Path_1042396" data-name="Path 1042396" d="M255.578,225.252a.876.876,0,0,0,0-1.752h-2.452a.876.876,0,0,0-.876.876v5.839a.876.876,0,0,0,.876.876h2.452a.876.876,0,0,0,0-1.752H254v-1.187h1.4a.876.876,0,1,0,0-1.752H254v-1.149Z" transform="translate(-222.794 -197.401)"/>
          <path id="Path_1042397" data-name="Path 1042397" d="M146.507,229.345a1.581,1.581,0,0,1-1.21-.516.876.876,0,1,0-1.341,1.127,3.3,3.3,0,0,0,2.55,1.14,2.457,2.457,0,0,0,2.461-1.924,2.337,2.337,0,0,0-1.669-2.593,6.608,6.608,0,0,1-1.423-.618.4.4,0,0,1-.066-.3.43.43,0,0,1,.3-.36,1.43,1.43,0,0,1,1.234.371.876.876,0,0,0,1.216-1.261,3.107,3.107,0,0,0-2.99-.775,2.186,2.186,0,0,0-1.494,1.765,2.067,2.067,0,0,0,.824,2.024,18.166,18.166,0,0,0,1.749.783c.2.08.66.3.6.635A.728.728,0,0,1,146.507,229.345Z" transform="translate(-126.965 -197.408)"/>
          <path id="Path_1042398" data-name="Path 1042398" d="M199.37,231.09a.876.876,0,0,0,.876-.876v-4.963h.883a.876.876,0,0,0,0-1.752h-3.5a.876.876,0,1,0,0,1.752h.869v4.963A.876.876,0,0,0,199.37,231.09Z" transform="translate(-173.775 -197.401)"/>
          <path id="Path_1042399" data-name="Path 1042399" d="M349.764,30.647h-3.422v-1.4a2.335,2.335,0,1,0-1.752,0v1.4h-3.422a2.128,2.128,0,0,0-2.125,2.125V34.15h-1.168a.876.876,0,1,0,0,1.752h1.168V37.28a2.128,2.128,0,0,0,2.125,2.125h8.6a2.128,2.128,0,0,0,2.125-2.125V35.9h1.168a.876.876,0,0,0,0-1.752h-1.168V32.772A2.128,2.128,0,0,0,349.764,30.647Zm-4.3-4.145a.584.584,0,1,1-.584.584A.585.585,0,0,1,345.466,26.5Zm4.671,10.778a.374.374,0,0,1-.373.374h-8.6a.374.374,0,0,1-.373-.374V32.772a.374.374,0,0,1,.373-.374h8.6a.374.374,0,0,1,.373.374Z" transform="translate(-297.647 -21.86)"/>
          <path id="Path_1042400" data-name="Path 1042400" d="M387.058,105.25h0a.876.876,0,1,0,.877.876A.875.875,0,0,0,387.057,105.25Z" transform="translate(-341.086 -92.96)"/>
          <path id="Path_1042401" data-name="Path 1042401" d="M418.724,105.25h0a.876.876,0,1,0,.877.876A.875.875,0,0,0,418.723,105.25Z" transform="translate(-369.055 -92.96)"/>
          <path id="Path_1042402" data-name="Path 1042402" d="M367.966,352h-5.255a3.215,3.215,0,0,0-3.211,3.211v7.006a3.215,3.215,0,0,0,3.211,3.211h5.255a3.215,3.215,0,0,0,3.211-3.211v-7.006A3.215,3.215,0,0,0,367.966,352Zm1.46,10.218a1.461,1.461,0,0,1-1.46,1.46h-5.255a1.461,1.461,0,0,1-1.46-1.46v-7.006a1.461,1.461,0,0,1,1.46-1.46h5.255a1.461,1.461,0,0,1,1.46,1.46Z" transform="translate(-317.52 -310.896)"/>
          <path id="Path_1042403" data-name="Path 1042403" d="M391.379,377h-3.5a.876.876,0,1,0,0,1.752h3.5a.876.876,0,1,0,0-1.752Z" transform="translate(-341.809 -332.977)"/>
          <path id="Path_1042404" data-name="Path 1042404" d="M415.391,427h0a.876.876,0,1,0,.877.876A.875.875,0,0,0,415.39,427Z" transform="translate(-366.111 -377.138)"/>
          <path id="Path_1042405" data-name="Path 1042405" d="M390.391,427h0a.876.876,0,1,0,.877.876A.875.875,0,0,0,390.39,427Z" transform="translate(-344.03 -377.138)"/>
          <path id="Path_1042406" data-name="Path 1042406" d="M390.391,402h0a.876.876,0,1,0,.877.876A.875.875,0,0,0,390.39,402Z" transform="translate(-344.03 -355.057)"/>
          <path id="Path_1042407" data-name="Path 1042407" d="M415.391,402h0a.876.876,0,1,0,.877.876A.875.875,0,0,0,415.39,402Z" transform="translate(-366.111 -355.057)"/>
          <path id="Path_1042408" data-name="Path 1042408" d="M54.508,46.406a5.6,5.6,0,0,0,5.2,5.3,5.719,5.719,0,0,0,4.22-1.493A5.605,5.605,0,0,0,62.792,41.2V38h.584a.876.876,0,1,0,0-1.752H56.836a.876.876,0,1,0,0,1.752h.584v3.2a5.62,5.62,0,0,0-2.912,5.209Zm8.227,2.529a3.823,3.823,0,0,1-2.9,1.026,3.9,3.9,0,0,1-3.393-2.676h7.344A3.827,3.827,0,0,1,62.735,48.935ZM61.04,38v3.373a1.459,1.459,0,0,0,.806,1.3,3.836,3.836,0,0,1,2.068,2.854H56.3a3.864,3.864,0,0,1,2.065-2.854,1.459,1.459,0,0,0,.807-1.3V38Z" transform="translate(-48.137 -32.017)"/>
        </g>
      </g>
    </g>
  </g>
</svg>
