<svg xmlns="http://www.w3.org/2000/svg" xmlns:xlink="http://www.w3.org/1999/xlink" width="97.533" height="97.533" viewBox="0 0 97.533 97.533">
  <defs>
    <filter id="Path_982547" x="0" y="0" width="97.533" height="97.533" filterUnits="userSpaceOnUse">
      <feOffset dy="3" input="SourceAlpha"/>
      <feGaussianBlur stdDeviation="3" result="blur"/>
      <feFlood flood-opacity="0.161"/>
      <feComposite operator="in" in2="blur"/>
      <feComposite in="SourceGraphic"/>
    </filter>
  </defs>
  <g id="Group_1203847" data-name="Group 1203847" transform="translate(-190.967 -8149.672)">
    <g id="Group_1203675" data-name="Group 1203675" transform="translate(0 -74.53)">
      <g id="Group_1203349" data-name="Group 1203349" transform="translate(-0.5 1321.521)">
        <g id="Group_1202156" data-name="Group 1202156" transform="translate(-80.533 5497.679)">
          <g id="Group_1177900" data-name="Group 1177900" transform="translate(281 1411.003)">
            <g id="Group_1172010" data-name="Group 1172010" transform="translate(0)">
              <g id="Group_1171046" data-name="Group 1171046">
                <g id="Group_1148525" data-name="Group 1148525">
                  <g transform="matrix(1, 0, 0, 1, -9, -6)" filter="url(#Path_982547)">
                    <g id="Path_982547-2" data-name="Path 982547" transform="translate(9 6)" fill="#fdfbec">
                      <path d="M 39.7666015625 78.033203125 C 34.59997940063477 78.033203125 29.58870124816895 77.02164459228516 24.87196731567383 75.02663421630859 C 20.31538963317871 73.099365234375 16.22284507751465 70.34000396728516 12.70802402496338 66.82518005371094 C 9.193202018737793 63.31035614013672 6.433835029602051 59.21781158447266 4.506568431854248 54.66123580932617 C 2.511557102203369 49.94449996948242 1.500001549720764 44.93322372436523 1.500001549720764 39.7666015625 C 1.500001549720764 34.59997940063477 2.511557102203369 29.58870124816895 4.506568431854248 24.87196731567383 C 6.433835029602051 20.31538963317871 9.193202018737793 16.22284507751465 12.70802402496338 12.70802402496338 C 16.22284507751465 9.193202018737793 20.31538963317871 6.433835029602051 24.87196731567383 4.506568431854248 C 29.58870124816895 2.511557102203369 34.59997940063477 1.500001549720764 39.7666015625 1.500001549720764 C 44.93322372436523 1.500001549720764 49.94449996948242 2.511557102203369 54.66123580932617 4.506568431854248 C 59.21781158447266 6.433835029602051 63.31035614013672 9.193202018737793 66.82518005371094 12.70802402496338 C 70.34000396728516 16.22284507751465 73.099365234375 20.31538963317871 75.02663421630859 24.87196731567383 C 77.02164459228516 29.58870124816895 78.033203125 34.59997940063477 78.033203125 39.7666015625 C 78.033203125 44.93322372436523 77.02164459228516 49.94449996948242 75.02663421630859 54.66123580932617 C 73.099365234375 59.21781158447266 70.34000396728516 63.31035614013672 66.82518005371094 66.82518005371094 C 63.31035614013672 70.34000396728516 59.21781158447266 73.099365234375 54.66123580932617 75.02663421630859 C 49.94449996948242 77.02164459228516 44.93322372436523 78.033203125 39.7666015625 78.033203125 Z" stroke="none"/>
                      <path d="M 39.7666015625 3 C 34.80181503295898 3 29.98714065551758 3.971687316894531 25.45630264282227 5.888076782226562 C 21.07851409912109 7.739715576171875 17.146240234375 10.39113616943359 13.76869201660156 13.76869201660156 C 10.39113616943359 17.146240234375 7.739715576171875 21.07851409912109 5.888076782226562 25.45630264282227 C 3.971687316894531 29.98714065551758 3 34.80181503295898 3 39.7666015625 C 3 44.73138809204102 3.971687316894531 49.54606628417969 5.888076782226562 54.076904296875 C 7.739715576171875 58.45468902587891 10.39113616943359 62.386962890625 13.76869201660156 65.76451110839844 C 17.146240234375 69.14206695556641 21.07851409912109 71.79348754882812 25.45630264282227 73.64512634277344 C 29.98714065551758 75.56151580810547 34.80181503295898 76.533203125 39.7666015625 76.533203125 C 44.73138809204102 76.533203125 49.54606628417969 75.56151580810547 54.076904296875 73.64512634277344 C 58.45468902587891 71.79348754882812 62.386962890625 69.14206695556641 65.76451110839844 65.76451110839844 C 69.14206695556641 62.386962890625 71.79348754882812 58.45468902587891 73.64512634277344 54.076904296875 C 75.56151580810547 49.54606628417969 76.533203125 44.73138809204102 76.533203125 39.7666015625 C 76.533203125 34.80181503295898 75.56151580810547 29.98714065551758 73.64512634277344 25.45630264282227 C 71.79348754882812 21.07851409912109 69.14206695556641 17.146240234375 65.76451110839844 13.76869201660156 C 62.386962890625 10.39113616943359 58.45468902587891 7.739715576171875 54.076904296875 5.888076782226562 C 49.54606628417969 3.971687316894531 44.73138809204102 3 39.7666015625 3 M 39.7666015625 0 C 61.72908782958984 0 79.533203125 17.80411529541016 79.533203125 39.7666015625 C 79.533203125 61.72908782958984 61.72908782958984 79.533203125 39.7666015625 79.533203125 C 17.80411529541016 79.533203125 0 61.72908782958984 0 39.7666015625 C 0 17.80411529541016 17.80411529541016 0 39.7666015625 0 Z" stroke="none" fill="#83793c"/>
                    </g>
                  </g>
                </g>
              </g>
            </g>
          </g>
        </g>
      </g>
      <g id="leccion-en-linea_1_" data-name="leccion-en-linea (1)" transform="translate(212.249 8219.142)">
        <g id="Group_1203673" data-name="Group 1203673" transform="translate(1.076 30.028)">
          <path id="Path_1043701" data-name="Path 1043701" d="M59.609,38.976H13.246A3.227,3.227,0,0,0,10.019,42.2V72.237a3.227,3.227,0,0,0,3.227,3.227H59.609a3.227,3.227,0,0,0,3.227-3.227V42.2A3.227,3.227,0,0,0,59.609,38.976ZM57.931,68.992a1.372,1.372,0,0,1-1.373,1.373H16.3a1.372,1.372,0,0,1-1.373-1.373V45.447A1.372,1.372,0,0,1,16.3,44.075H56.558a1.372,1.372,0,0,1,1.373,1.373Z" transform="translate(-10.019 -38.976)" fill="#ccf5fc"/>
          <path id="Path_1043702" data-name="Path 1043702" d="M55.713,111.392V87.841a1.369,1.369,0,0,1,1.369-1.369H97.349a1.369,1.369,0,0,1,1.369,1.369v23.551a1.369,1.369,0,0,1-1.369,1.369H57.082a1.369,1.369,0,0,1-1.369-1.369Z" transform="translate(-50.807 -81.373)" fill="#fffbdf"/>
          <path id="Path_1043703" data-name="Path 1043703" d="M190,437.254H176.84a2.147,2.147,0,0,1-2.147-2.147V435.1a2.147,2.147,0,0,1,2.147-2.147H190a2.147,2.147,0,0,1,2.147,2.147v.008A2.147,2.147,0,0,1,190,437.254Z" transform="translate(-157.014 -390.654)" fill="#66e0f7"/>
          <path id="Path_1043704" data-name="Path 1043704" d="M199.779,378.84l-1.679,5.809h12.432l-1.679-5.809Z" transform="translate(-177.908 -342.352)" fill="#66e0f7"/>
          <path id="Path_1043705" data-name="Path 1043705" d="M111.386,131.309h-5.792a1.61,1.61,0,0,1-1.61-1.61v-3.574a1.61,1.61,0,0,1,1.61-1.61h5.792a1.61,1.61,0,0,1,1.61,1.61V129.7A1.61,1.61,0,0,1,111.386,131.309Z" transform="translate(-93.895 -115.331)" fill="#ff9eb1"/>
          <path id="Path_1043706" data-name="Path 1043706" d="M328.451,201.272l2.116,7.9,1.369-1.369,3.631,3.631,3.043-3.043-3.631-3.631,1.369-1.369Z" transform="translate(-294.264 -183.848)" fill="#ecf3f3"/>
          <circle id="Ellipse_12637" data-name="Ellipse 12637" cx="3.397" cy="3.397" r="3.397" transform="translate(11.197 19.752)" fill="#d1aee4"/>
        </g>
        <g id="Group_1203674" data-name="Group 1203674" transform="translate(0 28.952)">
          <circle id="Ellipse_12638" data-name="Ellipse 12638" cx="1.074" cy="1.074" r="1.074" transform="translate(26.411 31.585)"/>
          <path id="Path_1043707" data-name="Path 1043707" d="M50.666,28.952H4.3a4.308,4.308,0,0,0-4.3,4.3V63.289a4.308,4.308,0,0,0,4.3,4.3H21.571l-1.2,3.7a3.227,3.227,0,0,0,.54,6.408H34.062A3.227,3.227,0,0,0,34.6,71.3l-1.2-3.7H50.665a4.308,4.308,0,0,0,4.3-4.3V33.255A4.307,4.307,0,0,0,50.666,28.952ZM35.138,74.477a1.077,1.077,0,0,1-1.076,1.076H20.906a1.076,1.076,0,1,1,0-2.151H34.062A1.077,1.077,0,0,1,35.138,74.477ZM32.324,71.25h-9.68l1.189-3.657h7.3Zm20.493-7.96a2.154,2.154,0,0,1-2.151,2.151H4.3a2.154,2.154,0,0,1-2.151-2.151V33.255A2.154,2.154,0,0,1,4.3,31.1H50.665a2.154,2.154,0,0,1,2.151,2.151V63.289Z" transform="translate(0 -28.952)"/>
          <path id="Path_1043708" data-name="Path 1043708" d="M88.162,74.646H48.383a2.692,2.692,0,0,0-2.689,2.689v23.45a2.692,2.692,0,0,0,2.689,2.689H63.451a1.076,1.076,0,1,0,0-2.151H48.383a.539.539,0,0,1-.538-.538V77.335a.539.539,0,0,1,.538-.538H88.162a.539.539,0,0,1,.538.538v23.45a.539.539,0,0,1-.538.538H73.094a1.076,1.076,0,0,0,0,2.151H88.162a2.692,2.692,0,0,0,2.689-2.689V77.335a2.692,2.692,0,0,0-2.689-2.689Z" transform="translate(-40.788 -69.74)"/>
          <path id="Path_1043709" data-name="Path 1043709" d="M105.128,120.752v-3.567a2.692,2.692,0,0,0-2.689-2.689H96.653a2.692,2.692,0,0,0-2.689,2.689v3.567a2.692,2.692,0,0,0,2.689,2.689h5.786A2.692,2.692,0,0,0,105.128,120.752Zm-2.151,0a.539.539,0,0,1-.538.538H96.653a.539.539,0,0,1-.538-.538v-3.567a.539.539,0,0,1,.538-.538h5.786a.539.539,0,0,1,.538.538Z" transform="translate(-83.876 -105.311)"/>
          <path id="Path_1043710" data-name="Path 1043710" d="M328.443,194.165a1.076,1.076,0,0,0-.761-.761l-7.9-2.116a1.076,1.076,0,0,0-1.317,1.318l2.116,7.9a1.076,1.076,0,0,0,1.8.482l.609-.609,2.871,2.871a1.076,1.076,0,0,0,1.521,0l3.043-3.043a1.076,1.076,0,0,0,0-1.521l-2.871-2.871.609-.609A1.076,1.076,0,0,0,328.443,194.165Zm-.3,5.279-1.521,1.521-2.871-2.871a1.076,1.076,0,0,0-1.521,0l-.052.052-1.152-4.3,4.3,1.152-.052.052a1.076,1.076,0,0,0,0,1.521Z" transform="translate(-284.244 -173.827)"/>
          <path id="Path_1043711" data-name="Path 1043711" d="M213.182,128.249h6.635a1.076,1.076,0,0,0,0-2.151h-6.635a1.076,1.076,0,0,0,0,2.151Z" transform="translate(-189.334 -115.668)"/>
          <path id="Path_1043712" data-name="Path 1043712" d="M213.182,168.327h6.635a1.076,1.076,0,0,0,0-2.152h-6.635a1.076,1.076,0,0,0,0,2.152Z" transform="translate(-189.334 -151.444)"/>
          <path id="Path_1043713" data-name="Path 1043713" d="M213.182,225.705h6.635a1.076,1.076,0,0,0,0-2.151h-6.635a1.076,1.076,0,0,0,0,2.151Z" transform="translate(-189.334 -202.662)"/>
          <path id="Path_1043714" data-name="Path 1043714" d="M220.893,264.709a1.076,1.076,0,0,0-1.076-1.076h-6.635a1.076,1.076,0,0,0,0,2.152h6.635A1.076,1.076,0,0,0,220.893,264.709Z" transform="translate(-189.334 -238.438)"/>
          <path id="Path_1043715" data-name="Path 1043715" d="M104.3,217.411a4.473,4.473,0,1,0,4.473-4.473A4.478,4.478,0,0,0,104.3,217.411Zm6.794,0a2.322,2.322,0,1,1-2.322-2.322A2.324,2.324,0,0,1,111.09,217.411Z" transform="translate(-93.099 -193.185)"/>
        </g>
      </g>
    </g>
  </g>
</svg>
