<svg xmlns="http://www.w3.org/2000/svg" xmlns:xlink="http://www.w3.org/1999/xlink" width="113" height="113" viewBox="0 0 113 113">
  <defs>
    <filter id="Path_982547" x="0" y="0" width="113" height="113" filterUnits="userSpaceOnUse">
      <feOffset dy="3" input="SourceAlpha"/>
      <feGaussianBlur stdDeviation="3" result="blur"/>
      <feFlood flood-opacity="0.161"/>
      <feComposite operator="in" in2="blur"/>
      <feComposite in="SourceGraphic"/>
    </filter>
  </defs>
  <g id="Group_1203817" data-name="Group 1203817" transform="translate(-272 -5901)">
    <g id="Group_1203626" data-name="Group 1203626">
      <g id="Group_1202432" data-name="Group 1202432" transform="translate(0 1255.486)">
        <g id="Group_1202055" data-name="Group 1202055" transform="translate(0 3240.511)">
          <g id="Group_1177900" data-name="Group 1177900" transform="translate(281 1411.003)">
            <g id="Group_1172010" data-name="Group 1172010" transform="translate(0)">
              <g id="Group_1171046" data-name="Group 1171046">
                <g id="Group_1148525" data-name="Group 1148525">
                  <g transform="matrix(1, 0, 0, 1, -9, -6)" filter="url(#Path_982547)">
                    <g id="Path_982547-2" data-name="Path 982547" transform="translate(9 6)" fill="#edf3fc">
                      <path d="M 47.5 93.5 C 41.28937149047852 93.5 35.26533508300781 92.28397369384766 29.59518623352051 89.88570404052734 C 24.11771965026855 87.56893157958984 19.19813346862793 84.25196075439453 14.97309303283691 80.02691650390625 C 10.74804019927979 75.80186462402344 7.431066513061523 70.88229370117188 5.114293098449707 65.40481567382812 C 2.716026782989502 59.73468017578125 1.5 53.71062850952148 1.5 47.5 C 1.5 41.28937149047852 2.716026782989502 35.26533508300781 5.114293098449707 29.59518623352051 C 7.431066513061523 24.11771965026855 10.74804019927979 19.19813346862793 14.97309303283691 14.97309303283691 C 19.19813346862793 10.74804019927979 24.11771965026855 7.431066513061523 29.59518623352051 5.114293098449707 C 35.26533508300781 2.716026782989502 41.28937149047852 1.5 47.5 1.5 C 53.71062850952148 1.5 59.73468017578125 2.716026782989502 65.40481567382812 5.114293098449707 C 70.88229370117188 7.431066513061523 75.80186462402344 10.74804019927979 80.02691650390625 14.97309303283691 C 84.25196075439453 19.19813346862793 87.56893157958984 24.11771965026855 89.88570404052734 29.59518623352051 C 92.28397369384766 35.26533508300781 93.5 41.28937149047852 93.5 47.5 C 93.5 53.71062850952148 92.28397369384766 59.73468017578125 89.88570404052734 65.40481567382812 C 87.56893157958984 70.88229370117188 84.25196075439453 75.80186462402344 80.02691650390625 80.02691650390625 C 75.80186462402344 84.25196075439453 70.88229370117188 87.56893157958984 65.40481567382812 89.88570404052734 C 59.73468017578125 92.28397369384766 53.71062850952148 93.5 47.5 93.5 Z" stroke="none"/>
                      <path d="M 47.5 3 C 41.49121475219727 3 35.66376876831055 4.176155090332031 30.17950439453125 6.495796203613281 C 24.88084411621094 8.736953735351562 20.12152099609375 11.94598388671875 16.03375244140625 16.03375244140625 C 11.94598388671875 20.12152099609375 8.736953735351562 24.88084411621094 6.495796203613281 30.17950439453125 C 4.176155090332031 35.66376876831055 3 41.49121475219727 3 47.5 C 3 53.50878524780273 4.176155090332031 59.33623123168945 6.495796203613281 64.82049560546875 C 8.736953735351562 70.11915588378906 11.94598388671875 74.87847900390625 16.03375244140625 78.96624755859375 C 20.12152099609375 83.05401611328125 24.88084411621094 86.26304626464844 30.17950439453125 88.50419616699219 C 35.66376876831055 90.82384490966797 41.49121475219727 92 47.5 92 C 53.50878524780273 92 59.33623123168945 90.82384490966797 64.82049560546875 88.50419616699219 C 70.11915588378906 86.26304626464844 74.87847900390625 83.05401611328125 78.96624755859375 78.96624755859375 C 83.05401611328125 74.87847900390625 86.26304626464844 70.11915588378906 88.50419616699219 64.82049560546875 C 90.82384490966797 59.33623123168945 92 53.50878524780273 92 47.5 C 92 41.49121475219727 90.82384490966797 35.66376876831055 88.50419616699219 30.17950439453125 C 86.26304626464844 24.88084411621094 83.05401611328125 20.12152099609375 78.96624755859375 16.03375244140625 C 74.87847900390625 11.94598388671875 70.11915588378906 8.736953735351562 64.82049560546875 6.495796203613281 C 59.33623123168945 4.176155090332031 53.50878524780273 3 47.5 3 M 47.5 0 C 73.7335205078125 0 95 21.2664794921875 95 47.5 C 95 73.7335205078125 73.7335205078125 95 47.5 95 C 21.2664794921875 95 0 73.7335205078125 0 47.5 C 0 21.2664794921875 21.2664794921875 0 47.5 0 Z" stroke="none" fill="#5692e8"/>
                    </g>
                  </g>
                </g>
              </g>
            </g>
          </g>
        </g>
      </g>
      <g id="domino_1_" data-name="domino (1)" transform="translate(304 5925.309)">
        <path id="Path_1042568" data-name="Path 1042568" d="M111.554,46.716,93.389,31.474c-.836-.7-1.936.248-2.637,1.084L57.581,71.074a1.976,1.976,0,0,0,.244,2.784L75.989,89.1a1.976,1.976,0,0,0,2.784-.244L111.8,49.5A1.976,1.976,0,0,0,111.554,46.716Z" transform="translate(-50.079 -27.375)" fill="#eceaec"/>
        <path id="Path_1042569" data-name="Path 1042569" d="M73.008,85.047h3.683a4.946,4.946,0,0,0,4.94-4.94V47.27a4.948,4.948,0,0,1,1.156-3.175L94.146,30.558l-.757-.635a1.976,1.976,0,0,0-2.784.244L57.581,69.523a1.976,1.976,0,0,0,.244,2.784Z" transform="translate(-50.079 -25.824)" fill="#dad8db"/>
        <path id="Path_1042570" data-name="Path 1042570" d="M33.188,7.506H9.476A1.976,1.976,0,0,0,7.5,9.482V60.858a1.976,1.976,0,0,0,1.976,1.976H33.188a1.976,1.976,0,0,0,1.976-1.976V9.482a1.976,1.976,0,0,0-1.976-1.976Z" transform="translate(-6.576 -6.576)" fill="#ff8086"/>
        <g id="Group_1203625" data-name="Group 1203625" transform="translate(4.876 4.882)">
          <circle id="Ellipse_12599" data-name="Ellipse 12599" cx="1.976" cy="1.976" r="1.976" transform="translate(7.904 35.568)" fill="#fff"/>
          <circle id="Ellipse_12600" data-name="Ellipse 12600" cx="1.976" cy="1.976" r="1.976" transform="translate(0 43.472)" fill="#fff"/>
          <circle id="Ellipse_12601" data-name="Ellipse 12601" cx="1.976" cy="1.976" r="1.976" transform="translate(15.808 15.808)" fill="#fff"/>
          <circle id="Ellipse_12602" data-name="Ellipse 12602" cx="1.976" cy="1.976" r="1.976" transform="translate(15.808)" fill="#fff"/>
          <circle id="Ellipse_12603" data-name="Ellipse 12603" cx="1.976" cy="1.976" r="1.976" transform="translate(0 15.808)" fill="#fff"/>
          <circle id="Ellipse_12604" data-name="Ellipse 12604" cx="1.976" cy="1.976" r="1.976" fill="#fff"/>
          <circle id="Ellipse_12605" data-name="Ellipse 12605" cx="1.976" cy="1.976" r="1.976" transform="translate(15.808 27.664)" fill="#fff"/>
        </g>
        <circle id="Ellipse_12606" data-name="Ellipse 12606" cx="1.976" cy="1.976" r="1.976" transform="translate(36.445 26.394)" fill="#6f6571"/>
        <circle id="Ellipse_12607" data-name="Ellipse 12607" cx="1.976" cy="1.976" r="1.976" transform="translate(46.606 14.285)" fill="#6f6571"/>
        <circle id="Ellipse_12608" data-name="Ellipse 12608" cx="1.976" cy="1.976" r="1.976" transform="translate(34.879 40.557)" fill="#6f6571"/>
        <path id="Path_1042571" data-name="Path 1042571" d="M10.464,56.906V7.506H9.476A1.976,1.976,0,0,0,7.5,9.482V60.858a1.976,1.976,0,0,0,1.976,1.976H33.188a1.976,1.976,0,0,0,1.976-1.976V59.87H13.428a2.967,2.967,0,0,1-2.964-2.964Z" transform="translate(-6.576 -6.576)" fill="#e5646e"/>
        <path id="Path_1042572" data-name="Path 1042572" d="M52.749,224.458H32.988a.924.924,0,1,0,0,1.849h19.76a.924.924,0,1,0,0-1.849Z" transform="translate(-28.112 -196.788)"/>
        <path id="Path_1042573" data-name="Path 1042573" d="M96.193,323.551a2.9,2.9,0,1,0,2.9-2.9A2.9,2.9,0,0,0,96.193,323.551Zm3.952,0a1.052,1.052,0,1,1-1.052-1.052A1.053,1.053,0,0,1,100.145,323.551Z" transform="translate(-84.337 -281.125)"/>
        <path id="Path_1042574" data-name="Path 1042574" d="M32.064,387.681a2.9,2.9,0,1,0,2.9-2.9A2.9,2.9,0,0,0,32.064,387.681Zm3.952,0a1.052,1.052,0,1,1-1.052-1.052A1.053,1.053,0,0,1,36.016,387.681Z" transform="translate(-28.112 -337.351)"/>
        <path id="Path_1042575" data-name="Path 1042575" d="M163.223,160.329a2.9,2.9,0,1,0,2.9,2.9A2.9,2.9,0,0,0,163.223,160.329Zm0,3.952a1.052,1.052,0,1,1,1.052-1.052A1.053,1.053,0,0,1,163.223,164.281Z" transform="translate(-140.563 -140.563)"/>
        <path id="Path_1042576" data-name="Path 1042576" d="M163.223,32.071a2.9,2.9,0,1,0,2.9,2.9A2.9,2.9,0,0,0,163.223,32.071Zm0,3.952a1.052,1.052,0,1,1,1.052-1.052A1.053,1.053,0,0,1,163.223,36.023Z" transform="translate(-140.563 -28.113)"/>
        <path id="Path_1042577" data-name="Path 1042577" d="M34.965,166.13a2.9,2.9,0,1,0-2.9-2.9A2.9,2.9,0,0,0,34.965,166.13Zm0-3.952a1.052,1.052,0,1,1-1.052,1.052A1.053,1.053,0,0,1,34.965,162.178Z" transform="translate(-28.113 -140.563)"/>
        <path id="Path_1042578" data-name="Path 1042578" d="M34.964,37.872a2.9,2.9,0,1,0-2.9-2.9A2.9,2.9,0,0,0,34.964,37.872Zm0-3.952a1.052,1.052,0,1,1-1.052,1.052A1.053,1.053,0,0,1,34.964,33.92Z" transform="translate(-28.112 -28.113)"/>
        <path id="Path_1042579" data-name="Path 1042579" d="M163.223,256.522a2.9,2.9,0,1,0,2.9,2.9A2.9,2.9,0,0,0,163.223,256.522Zm0,3.952a1.052,1.052,0,1,1,1.052-1.052A1.053,1.053,0,0,1,163.223,260.474Z" transform="translate(-140.563 -224.9)"/>
        <path id="Path_1042580" data-name="Path 1042580" d="M63.094,20.6a2.881,2.881,0,0,0-1.025-1.969L43.9,3.391a2.9,2.9,0,0,0-4.086.357l-7.986,9.517a.924.924,0,1,0,1.416,1.188l7.986-9.517a1.052,1.052,0,0,1,1.481-.13L60.881,20.049a1.052,1.052,0,0,1,.13,1.481L27.986,60.887a1.053,1.053,0,0,1-1.482.13l-4.568-3.833h4.676a2.9,2.9,0,0,0,2.9-2.9V52.307a.924.924,0,1,0-1.849,0v1.976a1.053,1.053,0,0,1-1.052,1.052H2.9a1.053,1.053,0,0,1-1.052-1.052V2.906A1.053,1.053,0,0,1,2.9,1.855H26.613a1.053,1.053,0,0,1,1.052,1.052V48.354a.924.924,0,0,0,1.849,0V29.841L41.585,39.97a.924.924,0,1,0,1.188-1.416L29.513,27.428V2.906a2.9,2.9,0,0,0-2.9-2.9H2.9A2.9,2.9,0,0,0,0,2.906V54.283a2.9,2.9,0,0,0,2.9,2.9H19.06l6.256,5.249a2.9,2.9,0,0,0,4.086-.358L62.426,22.718a2.88,2.88,0,0,0,.668-2.117Z" transform="translate(0)"/>
        <path id="Path_1042581" data-name="Path 1042581" d="M291.1,212.415a2.9,2.9,0,1,0-1.862-.677A2.9,2.9,0,0,0,291.1,212.415Zm-.8-3.575a1.052,1.052,0,1,1,.13,1.482A1.053,1.053,0,0,1,290.3,208.839Z" transform="translate(-252.682 -181.145)"/>
        <path id="Path_1042582" data-name="Path 1042582" d="M373.543,114.164a2.9,2.9,0,1,0-1.862-.677A2.9,2.9,0,0,0,373.543,114.164Zm-.8-3.575a1.052,1.052,0,1,1,.13,1.482A1.053,1.053,0,0,1,372.74,110.589Z" transform="translate(-324.963 -95.004)"/>
        <path id="Path_1042583" data-name="Path 1042583" d="M280.25,322.193a2.9,2.9,0,1,0,1.025,1.969A2.883,2.883,0,0,0,280.25,322.193Zm-1.059,2.9a1.052,1.052,0,1,1-.9-1.724q.047,0,.093,0a1.052,1.052,0,0,1,.8,1.728Z" transform="translate(-241.531 -281.881)"/>
      </g>
    </g>
  </g>
</svg>
