<svg xmlns="http://www.w3.org/2000/svg" xmlns:xlink="http://www.w3.org/1999/xlink" width="97.533" height="97.533" viewBox="0 0 97.533 97.533">
  <defs>
    <filter id="Path_982547" x="0" y="0" width="97.533" height="97.533" filterUnits="userSpaceOnUse">
      <feOffset dy="3" input="SourceAlpha"/>
      <feGaussianBlur stdDeviation="3" result="blur"/>
      <feFlood flood-opacity="0.161"/>
      <feComposite operator="in" in2="blur"/>
      <feComposite in="SourceGraphic"/>
    </filter>
  </defs>
  <g id="Group_1203850" data-name="Group 1203850" transform="translate(-1132.967 -8149.672)">
    <g id="Group_1203700" data-name="Group 1203700" transform="translate(0 -74.53)">
      <g id="Group_1203350" data-name="Group 1203350" transform="translate(-0.5 1321.521)">
        <g id="Group_1202159" data-name="Group 1202159" transform="translate(861.467 5497.679)">
          <g id="Group_1177900" data-name="Group 1177900" transform="translate(281 1411.003)">
            <g id="Group_1172010" data-name="Group 1172010" transform="translate(0)">
              <g id="Group_1171046" data-name="Group 1171046">
                <g id="Group_1148525" data-name="Group 1148525">
                  <g transform="matrix(1, 0, 0, 1, -9, -6)" filter="url(#Path_982547)">
                    <g id="Path_982547-2" data-name="Path 982547" transform="translate(9 6)" fill="#fdfbec">
                      <path d="M 39.7666015625 78.033203125 C 34.59997940063477 78.033203125 29.58870124816895 77.02164459228516 24.87196731567383 75.02663421630859 C 20.31538963317871 73.099365234375 16.22284507751465 70.34000396728516 12.70802402496338 66.82518005371094 C 9.193202018737793 63.31035614013672 6.433835029602051 59.21781158447266 4.506568431854248 54.66123580932617 C 2.511557102203369 49.94449996948242 1.500001549720764 44.93322372436523 1.500001549720764 39.7666015625 C 1.500001549720764 34.59997940063477 2.511557102203369 29.58870124816895 4.506568431854248 24.87196731567383 C 6.433835029602051 20.31538963317871 9.193202018737793 16.22284507751465 12.70802402496338 12.70802402496338 C 16.22284507751465 9.193202018737793 20.31538963317871 6.433835029602051 24.87196731567383 4.506568431854248 C 29.58870124816895 2.511557102203369 34.59997940063477 1.500001549720764 39.7666015625 1.500001549720764 C 44.93322372436523 1.500001549720764 49.94449996948242 2.511557102203369 54.66123580932617 4.506568431854248 C 59.21781158447266 6.433835029602051 63.31035614013672 9.193202018737793 66.82518005371094 12.70802402496338 C 70.34000396728516 16.22284507751465 73.099365234375 20.31538963317871 75.02663421630859 24.87196731567383 C 77.02164459228516 29.58870124816895 78.033203125 34.59997940063477 78.033203125 39.7666015625 C 78.033203125 44.93322372436523 77.02164459228516 49.94449996948242 75.02663421630859 54.66123580932617 C 73.099365234375 59.21781158447266 70.34000396728516 63.31035614013672 66.82518005371094 66.82518005371094 C 63.31035614013672 70.34000396728516 59.21781158447266 73.099365234375 54.66123580932617 75.02663421630859 C 49.94449996948242 77.02164459228516 44.93322372436523 78.033203125 39.7666015625 78.033203125 Z" stroke="none"/>
                      <path d="M 39.7666015625 3 C 34.80181503295898 3 29.98714065551758 3.971687316894531 25.45630264282227 5.888076782226562 C 21.07851409912109 7.739715576171875 17.146240234375 10.39113616943359 13.76869201660156 13.76869201660156 C 10.39113616943359 17.146240234375 7.739715576171875 21.07851409912109 5.888076782226562 25.45630264282227 C 3.971687316894531 29.98714065551758 3 34.80181503295898 3 39.7666015625 C 3 44.73138809204102 3.971687316894531 49.54606628417969 5.888076782226562 54.076904296875 C 7.739715576171875 58.45468902587891 10.39113616943359 62.386962890625 13.76869201660156 65.76451110839844 C 17.146240234375 69.14206695556641 21.07851409912109 71.79348754882812 25.45630264282227 73.64512634277344 C 29.98714065551758 75.56151580810547 34.80181503295898 76.533203125 39.7666015625 76.533203125 C 44.73138809204102 76.533203125 49.54606628417969 75.56151580810547 54.076904296875 73.64512634277344 C 58.45468902587891 71.79348754882812 62.386962890625 69.14206695556641 65.76451110839844 65.76451110839844 C 69.14206695556641 62.386962890625 71.79348754882812 58.45468902587891 73.64512634277344 54.076904296875 C 75.56151580810547 49.54606628417969 76.533203125 44.73138809204102 76.533203125 39.7666015625 C 76.533203125 34.80181503295898 75.56151580810547 29.98714065551758 73.64512634277344 25.45630264282227 C 71.79348754882812 21.07851409912109 69.14206695556641 17.146240234375 65.76451110839844 13.76869201660156 C 62.386962890625 10.39113616943359 58.45468902587891 7.739715576171875 54.076904296875 5.888076782226562 C 49.54606628417969 3.971687316894531 44.73138809204102 3 39.7666015625 3 M 39.7666015625 0 C 61.72908782958984 0 79.533203125 17.80411529541016 79.533203125 39.7666015625 C 79.533203125 61.72908782958984 61.72908782958984 79.533203125 39.7666015625 79.533203125 C 17.80411529541016 79.533203125 0 61.72908782958984 0 39.7666015625 C 0 17.80411529541016 17.80411529541016 0 39.7666015625 0 Z" stroke="none" fill="#83793c"/>
                    </g>
                  </g>
                </g>
              </g>
            </g>
          </g>
        </g>
      </g>
      <g id="reproductor-de-video" transform="translate(1155.339 8243.575)">
        <path id="Path_1043753" data-name="Path 1043753" d="M47.055,6H6.1A4.1,4.1,0,0,0,2,10.1V32.214H51.151V10.1a4.1,4.1,0,0,0-4.1-4.1Z" transform="translate(-0.181 -0.904)" fill="#a1cdf9"/>
        <path id="Path_1043754" data-name="Path 1043754" d="M47.6,6H6.638A4.079,4.079,0,0,0,5,6.346V26.479a3.277,3.277,0,0,0,3.277,3.277H51.693V10.1A4.1,4.1,0,0,0,47.6,6Z" transform="translate(-0.723 -0.904)" fill="#c7e2fb"/>
        <rect id="Rectangle_419387" data-name="Rectangle 419387" width="29" height="26" rx="4" transform="translate(11.789 1.789)" fill="#e3e8f6"/>
        <path id="Path_1043755" data-name="Path 1043755" d="M21.277,25.756H44.1a3.258,3.258,0,0,0,.116-.819V5.277A3.277,3.277,0,0,0,40.937,2H18V22.479A3.277,3.277,0,0,0,21.277,25.756Z" transform="translate(-3.074 -0.181)" fill="#f8f7fe"/>
        <path id="Path_1043756" data-name="Path 1043756" d="M6.1,47.83H47.055a4.1,4.1,0,0,0,4.1-4.1V38H2v5.734A4.1,4.1,0,0,0,6.1,47.83Z" transform="translate(-0.181 -6.69)" fill="#2b2e3f"/>
        <path id="Path_1043757" data-name="Path 1043757" d="M5,42.1a3.277,3.277,0,0,0,3.277,3.277H51.347a4.079,4.079,0,0,0,.346-1.638V38H5Z" transform="translate(-0.723 -6.69)" fill="#474c68"/>
        <g id="Group_1203699" data-name="Group 1203699" transform="translate(16.564 34.586)">
          <path id="Path_1043758" data-name="Path 1043758" d="M39.66,61.277H20V59.638A1.638,1.638,0,0,1,21.638,58H38.022a1.638,1.638,0,0,1,1.638,1.638Z" transform="translate(-20 -44.893)" fill="#2b2e3f"/>
          <path id="Path_1043759" data-name="Path 1043759" d="M36.288,50H24.819L24,56.553H37.107Z" transform="translate(-20.723 -43.447)" fill="#2b2e3f"/>
          <circle id="Ellipse_12639" data-name="Ellipse 12639" cx="1.5" cy="1.5" r="1.5" transform="translate(8.225 0.203)" fill="#2b2e3f"/>
        </g>
        <path id="Path_1043760" data-name="Path 1043760" d="M36.83,50H27v1.638a3.277,3.277,0,0,0,3.277,3.277h7.168Z" transform="translate(-4.701 -8.86)" fill="#474c68"/>
        <path id="Path_1043761" data-name="Path 1043761" d="M38.417,58H22.184a2.449,2.449,0,0,0,2.307,1.638H40.055A1.638,1.638,0,0,0,38.417,58Z" transform="translate(-3.831 -10.307)" fill="#474c68"/>
        <path id="Path_1043762" data-name="Path 1043762" d="M29,14v8.192l6.553-4.1Z" transform="translate(-5.063 -2.351)" fill="#e4a350"/>
        <path id="Path_1043763" data-name="Path 1043763" d="M40.214,2H17.277A3.277,3.277,0,0,0,14,5.277V8.553H43.49V5.277A3.277,3.277,0,0,0,40.214,2Z" transform="translate(-2.351 -0.181)" fill="#e4a350"/>
        <path id="Path_1043764" data-name="Path 1043764" d="M40.756,2H17.819A3.258,3.258,0,0,0,17,2.116V4.458a2.458,2.458,0,0,0,2.458,2.458H44.033V5.277A3.277,3.277,0,0,0,40.756,2Z" transform="translate(-2.893 -0.181)" fill="#f5bb5c"/>
        <path id="Path_1043765" data-name="Path 1043765" d="M30,16.571a2.458,2.458,0,0,0,2.458,2.458h1.966l1.311-.819L30,14.625Z" transform="translate(-5.244 -2.464)" fill="#f5bb5c"/>
        <path id="Path_1043766" data-name="Path 1043766" d="M31.458,41a2.458,2.458,0,1,0,2.458,2.458A2.458,2.458,0,0,0,31.458,41Zm0,3.277a.819.819,0,1,1,.819-.819A.819.819,0,0,1,31.458,44.277Z" transform="translate(-5.063 -7.233)"/>
        <path id="Path_1043767" data-name="Path 1043767" d="M46.874,4.277h-5A4.1,4.1,0,0,0,37.863,1H14.926a4.1,4.1,0,0,0-4.014,3.277h-5A4.92,4.92,0,0,0,1,9.192V37.044a4.92,4.92,0,0,0,4.915,4.915H19.732l-.614,4.915H18.2a2.458,2.458,0,0,0-2.458,2.458V50.97a.819.819,0,0,0,.819.819h19.66a.819.819,0,0,0,.819-.819V49.332a2.458,2.458,0,0,0-2.458-2.458h-.915l-.614-4.915H46.874a4.92,4.92,0,0,0,4.915-4.915V9.192a4.92,4.92,0,0,0-4.915-4.915ZM12.468,9.192H40.321V24.756a2.458,2.458,0,0,1-2.458,2.458H14.926a2.458,2.458,0,0,1-2.458-2.458Zm2.458-6.553H37.863A2.458,2.458,0,0,1,40.321,5.1V7.553H12.468V5.1A2.458,2.458,0,0,1,14.926,2.638ZM5.915,5.915H10.83V24.756a4.1,4.1,0,0,0,4.1,4.1H37.863a4.1,4.1,0,0,0,4.1-4.1V5.915h4.915a3.277,3.277,0,0,1,3.277,3.277v21.3H2.638V9.192A3.277,3.277,0,0,1,5.915,5.915Zm29.49,43.416v.819H17.384v-.819a.819.819,0,0,1,.819-.819H34.586A.819.819,0,0,1,35.405,49.332ZM32.02,46.874H20.769l.614-4.915H31.405Zm14.854-6.553H5.915a3.277,3.277,0,0,1-3.277-3.277V32.129H50.151v4.915A3.277,3.277,0,0,1,46.874,40.321Z"/>
        <path id="Path_1043768" data-name="Path 1043768" d="M45,5h1.638V6.638H45Z" transform="translate(-7.956 -0.723)"/>
        <path id="Path_1043769" data-name="Path 1043769" d="M41,5h1.638V6.638H41Z" transform="translate(-7.233 -0.723)"/>
        <path id="Path_1043770" data-name="Path 1043770" d="M17,5h1.638V6.638H17Z" transform="translate(-2.893 -0.723)"/>
        <path id="Path_1043771" data-name="Path 1043771" d="M28.423,22.727a.819.819,0,0,0,.831-.022l6.553-4.1a.819.819,0,0,0,0-1.393l-6.553-4.1a.819.819,0,0,0-1.253.7V22.01a.819.819,0,0,0,.423.717Zm1.216-7.43,4.188,2.617-4.188,2.621Z" transform="translate(-4.882 -2.169)"/>
        <path id="Path_1043772" data-name="Path 1043772" d="M36.2,29.915h1.638V28.277h3.277V26.638H37.841V25H36.2v1.638H19v1.638H36.2Z" transform="translate(-3.255 -4.34)"/>
      </g>
    </g>
  </g>
</svg>
