<svg xmlns="http://www.w3.org/2000/svg" xmlns:xlink="http://www.w3.org/1999/xlink" width="106.16" height="106.16" viewBox="0 0 106.16 106.16">
  <defs>
    <filter id="Path_982547" x="0" y="0" width="106.16" height="106.16" filterUnits="userSpaceOnUse">
      <feOffset dy="3" input="SourceAlpha"/>
      <feGaussianBlur stdDeviation="3" result="blur"/>
      <feFlood flood-opacity="0.161"/>
      <feComposite operator="in" in2="blur"/>
      <feComposite in="SourceGraphic"/>
    </filter>
  </defs>
  <g id="Group_1203841" data-name="Group 1203841" transform="translate(-1031.42 -6505.348)">
    <g id="Group_1203662" data-name="Group 1203662" transform="translate(0 -74.53)">
      <g id="Group_1203346" data-name="Group 1203346" transform="translate(759.42 5174.875)">
        <g id="Group_1177900" data-name="Group 1177900" transform="translate(281 1411.003)">
          <g id="Group_1172010" data-name="Group 1172010" transform="translate(0)">
            <g id="Group_1171046" data-name="Group 1171046">
              <g id="Group_1148525" data-name="Group 1148525">
                <g transform="matrix(1, 0, 0, 1, -9, -6)" filter="url(#Path_982547)">
                  <g id="Path_982547-2" data-name="Path 982547" transform="translate(9 6)" fill="#fdfbec">
                    <path d="M 44.0802001953125 86.660400390625 C 38.33124923706055 86.660400390625 32.75506210327148 85.53479766845703 27.50652503967285 83.31484985351562 C 22.43628692626953 81.17032623291016 17.88242530822754 78.09992218017578 13.97144985198975 74.18894958496094 C 10.06047534942627 70.27797698974609 6.99007511138916 65.72411346435547 4.845550060272217 60.65387344360352 C 2.625600099563599 55.40533828735352 1.500000238418579 49.82915115356445 1.500000238418579 44.0802001953125 C 1.500000238418579 38.33124923706055 2.625600099563599 32.75506210327148 4.845550060272217 27.50652503967285 C 6.99007511138916 22.43628692626953 10.06047534942627 17.88242530822754 13.97144985198975 13.97144985198975 C 17.88242530822754 10.06047534942627 22.43628692626953 6.99007511138916 27.50652503967285 4.845550060272217 C 32.75506210327148 2.625600099563599 38.33124923706055 1.500000238418579 44.0802001953125 1.500000238418579 C 49.82915115356445 1.500000238418579 55.40533828735352 2.625600099563599 60.65387344360352 4.845550060272217 C 65.72411346435547 6.99007511138916 70.27797698974609 10.06047534942627 74.18894958496094 13.97144985198975 C 78.09992218017578 17.88242530822754 81.17032623291016 22.43628692626953 83.31484985351562 27.50652503967285 C 85.53479766845703 32.75506210327148 86.660400390625 38.33124923706055 86.660400390625 44.0802001953125 C 86.660400390625 49.82915115356445 85.53479766845703 55.40533828735352 83.31484985351562 60.65387344360352 C 81.17032623291016 65.72411346435547 78.09992218017578 70.27797698974609 74.18894958496094 74.18894958496094 C 70.27797698974609 78.09992218017578 65.72411346435547 81.17032623291016 60.65387344360352 83.31484985351562 C 55.40533828735352 85.53479766845703 49.82915115356445 86.660400390625 44.0802001953125 86.660400390625 Z" stroke="none"/>
                    <path d="M 44.0802001953125 3 C 38.53308486938477 3 33.15349960327148 4.085746765136719 28.09085845947266 6.227058410644531 C 23.19941711425781 8.29595947265625 18.80581665039062 11.25841522216797 15.03211212158203 15.03211212158203 C 11.25841522216797 18.80581665039062 8.29595947265625 23.19941711425781 6.227058410644531 28.09085845947266 C 4.085746765136719 33.15349960327148 3 38.53308486938477 3 44.0802001953125 C 3 49.62731552124023 4.085746765136719 55.00691604614258 6.227058410644531 60.06954193115234 C 8.29595947265625 64.96098327636719 11.25841522216797 69.35458374023438 15.03211212158203 73.12828826904297 C 18.80581665039062 76.90198516845703 23.19941711425781 79.86444091796875 28.09085845947266 81.93334197998047 C 33.15349960327148 84.07466125488281 38.53308486938477 85.160400390625 44.0802001953125 85.160400390625 C 49.62731552124023 85.160400390625 55.00691604614258 84.07466125488281 60.06954193115234 81.93334197998047 C 64.96099853515625 79.86444091796875 69.35458374023438 76.90198516845703 73.12828826904297 73.12828826904297 C 76.90198516845703 69.35458374023438 79.86444091796875 64.96099853515625 81.93334197998047 60.06954193115234 C 84.07466125488281 55.00691604614258 85.160400390625 49.62731552124023 85.160400390625 44.0802001953125 C 85.160400390625 38.53308486938477 84.07466125488281 33.15349960327148 81.93334197998047 28.09085845947266 C 79.86444091796875 23.19941711425781 76.90198516845703 18.80581665039062 73.12828826904297 15.03211212158203 C 69.35458374023438 11.25841522216797 64.96098327636719 8.29595947265625 60.06954193115234 6.227058410644531 C 55.00691604614258 4.085746765136719 49.62731552124023 3 44.0802001953125 3 M 44.0802001953125 0 C 68.42502593994141 0 88.160400390625 19.73538970947266 88.160400390625 44.0802001953125 C 88.160400390625 68.42502593994141 68.42502593994141 88.160400390625 44.0802001953125 88.160400390625 C 19.73538970947266 88.160400390625 0 68.42502593994141 0 44.0802001953125 C 0 19.73538970947266 19.73538970947266 0 44.0802001953125 0 Z" stroke="none" fill="#83793c"/>
                  </g>
                </g>
              </g>
            </g>
          </g>
        </g>
      </g>
      <g id="resolucion-de-problemas_1_" data-name="resolucion-de-problemas (1)" transform="translate(1028.787 6599.109)">
        <path id="Path_1043636" data-name="Path 1043636" d="M342.233,132h-5.815a9.876,9.876,0,0,1-4.42,3.845v6.39a.731.731,0,0,0,.731.731h9.5a.731.731,0,0,0,.731-.731v-9.5A.731.731,0,0,0,342.233,132Z" transform="translate(-267.127 -116.092)" fill="#cb97e7"/>
        <g id="Group_1203649" data-name="Group 1203649" transform="translate(64.871 16.723)">
          <path id="Path_1043637" data-name="Path 1043637" d="M335.855,148.191v-9.419A9.869,9.869,0,0,1,332,141.8v6.39a.731.731,0,0,0,.731.731h3.856A.731.731,0,0,1,335.855,148.191Z" transform="translate(-331.999 -138.772)" fill="#bd80e1"/>
        </g>
        <g id="Group_1203660" data-name="Group 1203660" transform="translate(29.174 0.904)">
          <path id="Path_1043638" data-name="Path 1043638" d="M108.405,273.634l2.066-5.62a14.113,14.113,0,0,1-13.414,0l2.066,5.62Z" transform="translate(-89.671 -236.621)" fill="#fff0ad"/>
          <path id="Path_1043639" data-name="Path 1043639" d="M104.2,273.634l-1.456-3.962a14,14,0,0,1-5.686-1.658l2.066,5.62Z" transform="translate(-89.672 -236.621)" fill="#ffe177"/>
          <path id="Path_1043640" data-name="Path 1043640" d="M126,393.588v1.881a1.808,1.808,0,0,0,1.808,1.808h2.823a1.808,1.808,0,0,0,1.808-1.808v-1.881Z" transform="translate(-115.127 -347.062)" fill="#02c7dd"/>
          <path id="Path_1043641" data-name="Path 1043641" d="M129.013,395.469v-1.881H126v1.881a1.808,1.808,0,0,0,1.808,1.808h2.823c.032,0,.063,0,.095,0A1.806,1.806,0,0,1,129.013,395.469Z" transform="translate(-115.127 -347.062)" fill="#07b2cd"/>
          <path id="Path_1043642" data-name="Path 1043642" d="M113.43,362.995v3.2a.6.6,0,0,0,.6.6H122.3a.6.6,0,0,0,.6-.6v-3.2Z" transform="translate(-104.071 -320.156)" fill="#a6e7f0"/>
          <path id="Path_1043643" data-name="Path 1043643" d="M116.443,366.2V363H113.43v3.2a.6.6,0,0,0,.6.6h3.013A.6.6,0,0,1,116.443,366.2Z" transform="translate(-104.071 -320.156)" fill="#6bd9e7"/>
          <path id="Path_1043644" data-name="Path 1043644" d="M57.674,53.128a9.857,9.857,0,0,1,.29-2.374A14.093,14.093,0,1,0,63.955,62.3,9.84,9.84,0,0,1,57.674,53.128Z" transform="translate(-35.77 -43.289)" fill="#ffe177"/>
          <g id="Group_1203650" data-name="Group 1203650" transform="translate(0 4.904)">
            <path id="Path_1043645" data-name="Path 1043645" d="M41.835,62.286A14.1,14.1,0,0,1,52.895,48.522a14.093,14.093,0,1,0,0,27.528A14.1,14.1,0,0,1,41.835,62.286Z" transform="translate(-35.769 -48.194)" fill="#ffd15b"/>
          </g>
          <g id="Group_1203651" data-name="Group 1203651" transform="translate(7.551 37.013)">
            <path id="Path_1043646" data-name="Path 1043646" d="M110.307,320.6H99.634a1.205,1.205,0,0,1-1.205-1.205v-3.536a1.205,1.205,0,0,1,1.205-1.205h10.673a1.205,1.205,0,0,1,1.205,1.205v3.536A1.205,1.205,0,0,1,110.307,320.6Z" transform="translate(-98.429 -314.651)" fill="#eaf9fa"/>
          </g>
          <path id="Path_1043647" data-name="Path 1043647" d="M102.475,319.392v-3.536a1.205,1.205,0,0,1,1.205-1.205H99.635a1.205,1.205,0,0,0-1.205,1.205v3.536a1.205,1.205,0,0,0,1.205,1.205h4.045A1.205,1.205,0,0,1,102.475,319.392Z" transform="translate(-90.879 -277.638)" fill="#d4f2f6"/>
          <g id="Group_1203652" data-name="Group 1203652" transform="translate(25.469 32.282)">
            <path id="Path_1043648" data-name="Path 1043648" d="M270.777,289.818a4.232,4.232,0,0,1-2.7-.734.362.362,0,0,0-.572.294v5.794a.6.6,0,0,1-.6.6h-5.794a.362.362,0,0,0-.294.572,4.247,4.247,0,1,1-7-.011.36.36,0,0,0-.3-.562h-5.795a.6.6,0,0,1-.6-.6v-4.551a.6.6,0,0,1,.649-.6,4.339,4.339,0,0,0,.676.012,4.248,4.248,0,0,0-.263-8.487q-.2,0-.4.018a.6.6,0,0,1-.666-.6v-4.976a.6.6,0,0,1,.6-.6h4.745a.6.6,0,0,1,.6.616c0,.042,0,.085,0,.127a4.248,4.248,0,0,0,8.5,0q0-.064,0-.127a.6.6,0,0,1,.6-.616h4.745a.6.6,0,0,1,.6.6v5.795a.36.36,0,0,0,.562.3,4.248,4.248,0,1,1,2.707,7.734Z" transform="translate(-247.12 -275.386)" fill="#fe9738"/>
          </g>
          <g id="Group_1203653" data-name="Group 1203653" transform="translate(25.469 32.282)">
            <path id="Path_1043649" data-name="Path 1043649" d="M270.777,289.818a4.232,4.232,0,0,1-2.7-.734.362.362,0,0,0-.572.294v5.794a.6.6,0,0,1-.6.6h-5.794a.362.362,0,0,0-.294.572,4.247,4.247,0,1,1-7-.011.36.36,0,0,0-.3-.562h-5.795a.6.6,0,0,1-.6-.6v-4.551a.6.6,0,0,1,.649-.6,4.339,4.339,0,0,0,.676.012,4.248,4.248,0,0,0-.263-8.487q-.2,0-.4.018a.6.6,0,0,1-.666-.6v-4.976a.6.6,0,0,1,.6-.6h4.745a.6.6,0,0,1,.6.616c0,.042,0,.085,0,.127a4.248,4.248,0,0,0,8.5,0q0-.064,0-.127a.6.6,0,0,1,.6-.616h4.745a.6.6,0,0,1,.6.6v5.795a.36.36,0,0,0,.562.3,4.248,4.248,0,1,1,2.707,7.734Z" transform="translate(-247.12 -275.386)" fill="#fe9738"/>
          </g>
          <g id="Group_1203656" data-name="Group 1203656" transform="translate(25.469 32.282)">
            <g id="Group_1203654" data-name="Group 1203654" transform="translate(0)">
              <path id="Path_1043650" data-name="Path 1043650" d="M247.784,281.565q.2-.018.4-.018a4.238,4.238,0,0,1,3.249,1.511v-7.068a.6.6,0,0,1,.6-.6h-4.31a.6.6,0,0,0-.6.6v4.976A.6.6,0,0,0,247.784,281.565Z" transform="translate(-247.118 -275.388)" fill="#fe860a"/>
            </g>
            <g id="Group_1203655" data-name="Group 1203655" transform="translate(0 13.136)">
              <path id="Path_1043651" data-name="Path 1043651" d="M251.428,391.047V384.4a4.244,4.244,0,0,1-2.985,1.51,4.324,4.324,0,0,1-.676-.012.6.6,0,0,0-.649.6v4.551a.6.6,0,0,0,.6.6h4.31a.6.6,0,0,1-.6-.6Z" transform="translate(-247.118 -384.398)" fill="#fe860a"/>
            </g>
          </g>
          <g id="Group_1203659" data-name="Group 1203659" transform="translate(21.904)">
            <g id="Group_1203657" data-name="Group 1203657">
              <circle id="Ellipse_12630" data-name="Ellipse 12630" cx="9.839" cy="9.839" r="9.839" fill="#05e39c"/>
            </g>
            <g id="Group_1203658" data-name="Group 1203658" transform="translate(0 0)">
              <path id="Path_1043652" data-name="Path 1043652" d="M222.618,17.339a9.842,9.842,0,0,1,7.3-9.506,9.839,9.839,0,1,0,0,19.012A9.842,9.842,0,0,1,222.618,17.339Z" transform="translate(-217.536 -7.5)" fill="#0ed290"/>
            </g>
          </g>
        </g>
        <g id="Group_1203661" data-name="Group 1203661" transform="translate(28.27 0)">
          <path id="Path_1043653" data-name="Path 1043653" d="M267.65,275.47a5.155,5.155,0,0,0-5.836-1.2v-4.873a1.508,1.508,0,0,0-1.506-1.506h-4.745a1.515,1.515,0,0,0-1.082.458,1.487,1.487,0,0,0-.422,1.09c0,.033,0,.066,0,.1a3.344,3.344,0,1,1-6.688,0c0-.033,0-.067,0-.1a1.487,1.487,0,0,0-.423-1.09,1.515,1.515,0,0,0-1.082-.458h-4.745a1.508,1.508,0,0,0-1.506,1.506v4.976a1.505,1.505,0,0,0,.49,1.11,1.522,1.522,0,0,0,1.163.389c.1-.01.208-.014.313-.014a3.344,3.344,0,0,1,.209,6.681,3.44,3.44,0,0,1-.535-.009,1.492,1.492,0,0,0-1.144.381,1.515,1.515,0,0,0-.5,1.119v4.551a1.508,1.508,0,0,0,1.506,1.506H246a5.152,5.152,0,0,0,4.713,7.221c.122,0,.245,0,.368-.013a5.155,5.155,0,0,0,4.357-7.208h4.872a1.508,1.508,0,0,0,1.506-1.506V283.7a5.152,5.152,0,0,0,5.835-8.234Zm-.431,3.753a3.347,3.347,0,0,1-3.1,3.1h0a3.315,3.315,0,0,1-2.123-.577,1.266,1.266,0,0,0-1.988,1.039v5.493h-5.493a1.266,1.266,0,0,0-1.038,1.988,3.344,3.344,0,1,1-5.511-.008,1.264,1.264,0,0,0-1.044-1.98h-5.493v-3.929c.158,0,.317,0,.476-.007a5.151,5.151,0,0,0-.476-10.291v-4.354h4.141a5.151,5.151,0,0,0,10.3,0h4.141v5.493a1.264,1.264,0,0,0,1.979,1.044,3.344,3.344,0,0,1,5.233,2.992Z" transform="translate(-214.15 -235.605)"/>
          <path id="Path_1043654" data-name="Path 1043654" d="M49.173,37.094,50.7,32.927a15.038,15.038,0,0,0,4.269-3.656.9.9,0,1,0-1.411-1.13,13.139,13.139,0,0,1-7.252,4.595V25.263h1.772a3.58,3.58,0,1,0-3.579-3.58v1.772H42.029V21.684a3.58,3.58,0,1,0-3.579,3.58h1.772v7.47A13.188,13.188,0,1,1,50.353,8.783a10.745,10.745,0,0,0,6.088,11.725,13.1,13.1,0,0,1-.893,4.209.9.9,0,1,0,1.683.66,14.878,14.878,0,0,0,.981-4.237,10.756,10.756,0,0,0,5.756-.1v5.1A1.637,1.637,0,0,0,65.6,27.776h9.5a1.637,1.637,0,0,0,1.635-1.635V23.257a.9.9,0,0,0-1.808,0v2.711H65.774V20.321a10.819,10.819,0,0,0,4-3.511h5.157V19.04a.9.9,0,0,0,1.808,0v-2.4A1.637,1.637,0,0,0,75.106,15H70.777a10.742,10.742,0,1,0-19.92-8.03A14.992,14.992,0,1,0,35.823,32.916l1.536,4.178a2.111,2.111,0,0,0-1.538,2.028v3.536a2.11,2.11,0,0,0,1.808,2.085v2.2a1.508,1.508,0,0,0,1.506,1.506h.008v.856a2.714,2.714,0,0,0,2.711,2.711h2.823a2.714,2.714,0,0,0,2.711-2.711v-.856H47.4A1.508,1.508,0,0,0,48.9,46.948v-2.2a2.11,2.11,0,0,0,1.808-2.085V39.122a2.111,2.111,0,0,0-1.538-2.028Zm-2.862-15.41a1.772,1.772,0,1,1,1.772,1.772H46.311ZM60.916,1.808a8.935,8.935,0,1,1-8.935,8.935A8.945,8.945,0,0,1,60.916,1.808ZM46.311,34.587A14.912,14.912,0,0,0,48.384,34l-1.107,3.012h-.966Zm-4.281-9.323H44.5v7.767c-.409.038-.821.058-1.237.058s-.83-.02-1.237-.058V25.263Zm0,9.581c.408.034.82.051,1.237.051s.828-.017,1.237-.051v2.168H42.029ZM38.45,23.456a1.772,1.772,0,1,1,1.772-1.772v1.772Zm1.772,11.13v2.428h-.966L38.146,34A14.865,14.865,0,0,0,40.222,34.586Zm5.36,14.725a.9.9,0,0,1-.9.9H41.854a.9.9,0,0,1-.9-.9v-.856h4.631ZM48.9,42.658a.3.3,0,0,1-.3.3H45.831a.9.9,0,1,0,0,1.808H47.1v1.879h-7.66V44.767h2.177a.9.9,0,0,0,0-1.808H37.93a.3.3,0,0,1-.3-.3V39.122a.3.3,0,0,1,.3-.3H48.6a.3.3,0,0,1,.3.3Z" transform="translate(-28.27 0)"/>
          <path id="Path_1043655" data-name="Path 1043655" d="M254.593,67.042a.9.9,0,0,0,.68.322h.012a.9.9,0,0,0,.676-.3l5.921-6.679a.9.9,0,0,0-1.353-1.2l-5.227,5.9-3.37-4a.9.9,0,0,0-1.383,1.164Z" transform="translate(-223.577 -51.781)"/>
        </g>
      </g>
    </g>
  </g>
</svg>
