<svg xmlns="http://www.w3.org/2000/svg" xmlns:xlink="http://www.w3.org/1999/xlink" width="106.16" height="106.16" viewBox="0 0 106.16 106.16">
  <defs>
    <filter id="Path_982547" x="0" y="0" width="106.16" height="106.16" filterUnits="userSpaceOnUse">
      <feOffset dy="3" input="SourceAlpha"/>
      <feGaussianBlur stdDeviation="3" result="blur"/>
      <feFlood flood-opacity="0.161"/>
      <feComposite operator="in" in2="blur"/>
      <feComposite in="SourceGraphic"/>
    </filter>
  </defs>
  <g id="Group_1203798" data-name="Group 1203798" transform="translate(-195 -2013)">
    <g id="Group_1203400" data-name="Group 1203400">
      <g id="Group_1202422" data-name="Group 1202422" transform="translate(-77 607.997)">
        <g id="Group_1177900" data-name="Group 1177900" transform="translate(281 1411.003)">
          <g id="Group_1172010" data-name="Group 1172010" transform="translate(0)">
            <g id="Group_1171046" data-name="Group 1171046">
              <g id="Group_1148525" data-name="Group 1148525">
                <g transform="matrix(1, 0, 0, 1, -9, -6)" filter="url(#Path_982547)">
                  <g id="Path_982547-2" data-name="Path 982547" transform="translate(9 6)" fill="#fdfbec">
                    <path d="M 44.0802001953125 86.660400390625 C 38.33124923706055 86.660400390625 32.75506210327148 85.53479766845703 27.50652503967285 83.31484985351562 C 22.43628692626953 81.17032623291016 17.88242530822754 78.09992218017578 13.97144985198975 74.18894958496094 C 10.06047534942627 70.27797698974609 6.99007511138916 65.72411346435547 4.845550060272217 60.65387344360352 C 2.625600099563599 55.40533828735352 1.500000238418579 49.82915115356445 1.500000238418579 44.0802001953125 C 1.500000238418579 38.33124923706055 2.625600099563599 32.75506210327148 4.845550060272217 27.50652503967285 C 6.99007511138916 22.43628692626953 10.06047534942627 17.88242530822754 13.97144985198975 13.97144985198975 C 17.88242530822754 10.06047534942627 22.43628692626953 6.99007511138916 27.50652503967285 4.845550060272217 C 32.75506210327148 2.625600099563599 38.33124923706055 1.500000238418579 44.0802001953125 1.500000238418579 C 49.82915115356445 1.500000238418579 55.40533828735352 2.625600099563599 60.65387344360352 4.845550060272217 C 65.72411346435547 6.99007511138916 70.27797698974609 10.06047534942627 74.18894958496094 13.97144985198975 C 78.09992218017578 17.88242530822754 81.17032623291016 22.43628692626953 83.31484985351562 27.50652503967285 C 85.53479766845703 32.75506210327148 86.660400390625 38.33124923706055 86.660400390625 44.0802001953125 C 86.660400390625 49.82915115356445 85.53479766845703 55.40533828735352 83.31484985351562 60.65387344360352 C 81.17032623291016 65.72411346435547 78.09992218017578 70.27797698974609 74.18894958496094 74.18894958496094 C 70.27797698974609 78.09992218017578 65.72411346435547 81.17032623291016 60.65387344360352 83.31484985351562 C 55.40533828735352 85.53479766845703 49.82915115356445 86.660400390625 44.0802001953125 86.660400390625 Z" stroke="none"/>
                    <path d="M 44.0802001953125 3 C 38.53308486938477 3 33.15349960327148 4.085746765136719 28.09085845947266 6.227058410644531 C 23.19941711425781 8.29595947265625 18.80581665039062 11.25841522216797 15.03211212158203 15.03211212158203 C 11.25841522216797 18.80581665039062 8.29595947265625 23.19941711425781 6.227058410644531 28.09085845947266 C 4.085746765136719 33.15349960327148 3 38.53308486938477 3 44.0802001953125 C 3 49.62731552124023 4.085746765136719 55.00691604614258 6.227058410644531 60.06954193115234 C 8.29595947265625 64.96098327636719 11.25841522216797 69.35458374023438 15.03211212158203 73.12828826904297 C 18.80581665039062 76.90198516845703 23.19941711425781 79.86444091796875 28.09085845947266 81.93334197998047 C 33.15349960327148 84.07466125488281 38.53308486938477 85.160400390625 44.0802001953125 85.160400390625 C 49.62731552124023 85.160400390625 55.00691604614258 84.07466125488281 60.06954193115234 81.93334197998047 C 64.96099853515625 79.86444091796875 69.35458374023438 76.90198516845703 73.12828826904297 73.12828826904297 C 76.90198516845703 69.35458374023438 79.86444091796875 64.96099853515625 81.93334197998047 60.06954193115234 C 84.07466125488281 55.00691604614258 85.160400390625 49.62731552124023 85.160400390625 44.0802001953125 C 85.160400390625 38.53308486938477 84.07466125488281 33.15349960327148 81.93334197998047 28.09085845947266 C 79.86444091796875 23.19941711425781 76.90198516845703 18.80581665039062 73.12828826904297 15.03211212158203 C 69.35458374023438 11.25841522216797 64.96098327636719 8.29595947265625 60.06954193115234 6.227058410644531 C 55.00691604614258 4.085746765136719 49.62731552124023 3 44.0802001953125 3 M 44.0802001953125 0 C 68.42502593994141 0 88.160400390625 19.73538970947266 88.160400390625 44.0802001953125 C 88.160400390625 68.42502593994141 68.42502593994141 88.160400390625 44.0802001953125 88.160400390625 C 19.73538970947266 88.160400390625 0 68.42502593994141 0 44.0802001953125 C 0 19.73538970947266 19.73538970947266 0 44.0802001953125 0 Z" stroke="none" fill="#83793c"/>
                  </g>
                </g>
              </g>
            </g>
          </g>
        </g>
      </g>
      <g id="juego-de-mesa" transform="translate(223.231 2038.231)">
        <g id="Filled_10_" transform="translate(0.729 0.729)">
          <path id="Path_1041821" data-name="Path 1041821" d="M7.5,7.5H55.74V55.74H7.5Z" transform="translate(-7.5 -7.5)" fill="#fff"/>
          <path id="Path_1041822" data-name="Path 1041822" d="M7.5,473.5H55.74v2.918H7.5Z" transform="translate(-7.5 -428.178)" fill="#bbbbbe"/>
          <path id="Path_1041823" data-name="Path 1041823" d="M0,0H30.734V30.734H0Z" transform="translate(39.487 8.753) rotate(90)" fill="#faef93"/>
          <path id="Path_1041824" data-name="Path 1041824" d="M0,0H2.918V30.734H0Z" transform="translate(39.487 36.569) rotate(90)" fill="#fde31d"/>
          <path id="Path_1041825" data-name="Path 1041825" d="M0,0H8.753V8.753H0Z" transform="translate(8.753) rotate(90)" fill="#a7eed4"/>
          <g id="Group_1203398" data-name="Group 1203398">
            <path id="Path_1041826" data-name="Path 1041826" d="M7.5,175.5h8.753v7.781H7.5Z" transform="translate(-7.5 -159.161)" fill="#f88fa4"/>
            <path id="Path_1041827" data-name="Path 1041827" d="M97.5,413.5h7.781v8.753H97.5Z" transform="translate(-88.747 -374.013)" fill="#f88fa4"/>
            <path id="Path_1041828" data-name="Path 1041828" d="M413.5,255.5h8.753v7.781H413.5Z" transform="translate(-374.013 -231.38)" fill="#f88fa4"/>
            <path id="Path_1041829" data-name="Path 1041829" d="M175.5,7.5h7.781v8.753H175.5Z" transform="translate(-159.161 -7.5)" fill="#f88fa4"/>
          </g>
          <path id="Path_1041830" data-name="Path 1041830" d="M7.5,413.5h8.753v8.753H7.5Z" transform="translate(-7.5 -374.013)" fill="#a7eed4"/>
          <path id="Path_1041831" data-name="Path 1041831" d="M97.5,473.5h7.781v2.918H97.5Z" transform="translate(-88.747 -428.178)" fill="#f05475"/>
          <path id="Path_1041832" data-name="Path 1041832" d="M7.5,473.5h8.753v2.918H7.5Z" transform="translate(-7.5 -428.178)" fill="#71e4bf"/>
          <path id="Path_1041833" data-name="Path 1041833" d="M0,0H8.753V8.753H0Z" transform="translate(39.487 48.24) rotate(-90)" fill="#a7eed4"/>
          <path id="Path_1041834" data-name="Path 1041834" d="M413.5,473.5h8.753v2.918H413.5Z" transform="translate(-374.013 -428.178)" fill="#71e4bf"/>
          <path id="Path_1041835" data-name="Path 1041835" d="M0,0H8.753V8.753H0Z" transform="translate(48.24 8.753) rotate(180)" fill="#a7eed4"/>
          <path id="Path_1041836" data-name="Path 1041836" d="M0,0H8.753V8.753H0Z" transform="matrix(0.866, -0.5, 0.5, 0.866, 11.865, 20.229)" fill="#fff"/>
          <path id="Path_1041837" data-name="Path 1041837" d="M0,0H8.753V2.918H0Z" transform="matrix(0.866, -0.5, 0.5, 0.866, 14.783, 25.283)" fill="#bbbbbe"/>
          <path id="Path_1041838" data-name="Path 1041838" d="M0,0H8.753V8.753H0Z" transform="translate(28.114 11.752) rotate(15.009)" fill="#fff"/>
          <path id="Path_1041839" data-name="Path 1041839" d="M0,0H2.918V8.753H0Z" transform="translate(25.855 20.202) rotate(-74.991)" fill="#bbbbbe"/>
          <path id="Path_1041840" data-name="Path 1041840" d="M294.993,280.5l.632,9.069,2.578-3.51,4.329-.478Z" transform="translate(-267.032 -253.949)" fill="#f88fa4"/>
        </g>
        <g id="Group_1203399" data-name="Group 1203399" transform="translate(2.918 2.918)">
          <path id="Path_1041841" data-name="Path 1041841" d="M162.5,376h1.459v1.459H162.5Z" transform="translate(-149.613 -342.349)" fill="#fff"/>
          <path id="Path_1041842" data-name="Path 1041842" d="M437.5,30h1.459v1.459H437.5Z" transform="translate(-397.867 -30)" fill="#fff"/>
          <path id="Path_1041843" data-name="Path 1041843" d="M30,466h1.459v1.459H30Z" transform="translate(-30 -423.596)" fill="#fff"/>
        </g>
        <g id="Outline_10_">
          <path id="Path_1041844" data-name="Path 1041844" d="M49.7,12.595V0H0V28.156H1.459V25.579H8.753V31.9H1.459V29.615H0V49.7H4.717V48.24H1.459V40.946H8.753V48.24H6.176V49.7H49.7V14.054H48.24v2.286H40.946V10.212H48.24v2.383ZM8.753,39.487H1.459V33.36H8.753ZM25.579,1.459H31.9V8.753H25.579Zm-7.781,0H24.12V8.753H17.8Zm-7.586,0h6.127V8.753H10.212ZM8.753,24.12H1.459V17.8H8.753Zm0-7.781H1.459V10.212H8.753Zm0-7.586H1.459V1.459H8.753ZM16.339,48.24H10.212V40.946h6.127Zm7.781,0H17.8V40.946H24.12Zm7.781,0H25.579V40.946H31.9Zm7.586,0H33.36V40.946h6.127Zm0-8.753H10.212V38.028h4.133V36.569H10.212V35.11h2.772V33.651H10.212V10.212H39.487Zm0-30.734H33.36V1.459h6.127ZM48.24,48.24H40.946V40.946H48.24Zm0-8.753H40.946V33.36H48.24Zm0-7.586H40.946V25.579H48.24Zm0-14.1V24.12H40.946V17.8ZM40.946,8.753V1.459H48.24V2.918H45.468V4.377H48.24V5.835h-1.6V7.294h1.6V8.753Z"/>
          <path id="Path_1041845" data-name="Path 1041845" d="M0,0H5.5V1.459H0Z" transform="translate(2.644 6.535) rotate(-45)"/>
          <path id="Path_1041846" data-name="Path 1041846" d="M60,208h1.459v1.459H60Z" transform="translate(-54.165 -187.77)"/>
          <path id="Path_1041847" data-name="Path 1041847" d="M30,208h1.459v1.459H30Z" transform="translate(-27.082 -187.77)"/>
          <path id="Path_1041848" data-name="Path 1041848" d="M208,436h1.459v1.459H208Z" transform="translate(-187.77 -393.596)"/>
          <path id="Path_1041849" data-name="Path 1041849" d="M208,466h1.459v1.459H208Z" transform="translate(-187.77 -420.678)"/>
          <path id="Path_1041850" data-name="Path 1041850" d="M451,288h1.459v1.459H451Z" transform="translate(-407.137 -259.99)"/>
          <path id="Path_1041851" data-name="Path 1041851" d="M288,30h1.459v1.459H288Z" transform="translate(-259.99 -27.082)"/>
          <path id="Path_1041852" data-name="Path 1041852" d="M288,60h1.459v1.459H288Z" transform="translate(-259.99 -54.165)"/>
          <path id="Path_1041853" data-name="Path 1041853" d="M30,436h4.377v1.459H30Z" transform="translate(-27.082 -393.596)"/>
          <path id="Path_1041854" data-name="Path 1041854" d="M436,451h1.459v1.459H436Z" transform="translate(-393.596 -407.137)"/>
          <path id="Path_1041855" data-name="Path 1041855" d="M466,436h1.459v4.377H466Z" transform="translate(-420.678 -393.596)"/>
          <path id="Path_1041856" data-name="Path 1041856" d="M133.2,169.1l-5.106-8.844-3.58,2.067.729,1.263,2.316-1.337,3.647,6.317-6.317,3.647-3.647-6.317,2.737-1.58-.729-1.263-4,2.31,5.106,8.844Z" transform="translate(-107.656 -144.669)"/>
          <path id="Path_1041857" data-name="Path 1041857" d="M0,0H1.459V1.459H0Z" transform="matrix(0.866, -0.5, 0.5, 0.866, 19.569, 22.828)"/>
          <path id="Path_1041858" data-name="Path 1041858" d="M0,0H1.459V1.459H0Z" transform="matrix(0.866, -0.5, 0.5, 0.866, 17.043, 24.286)"/>
          <path id="Path_1041859" data-name="Path 1041859" d="M0,0H1.459V1.459H0Z" transform="matrix(0.866, -0.5, 0.5, 0.866, 15.584, 21.76)"/>
          <path id="Path_1041860" data-name="Path 1041860" d="M0,0H1.459V1.459H0Z" transform="matrix(0.866, -0.5, 0.5, 0.866, 18.11, 20.301)"/>
          <path id="Path_1041861" data-name="Path 1041861" d="M276.594,121.73l-3.993-1.07-.378,1.409,2.583.692-1.888,7.046-7.046-1.888,1.888-7.046,3.053.818.378-1.409-4.462-1.2-2.643,9.864,9.864,2.643Z" transform="translate(-238.402 -107.505)"/>
          <path id="Path_1041862" data-name="Path 1041862" d="M286.444,265.692l.873,12.544,3.094-4.213,2.067,3.581,1.263-.729-2.068-3.581,5.2-.573ZM290.087,272l-1.59,2.165-.39-5.594,4.65,3.134Z" transform="translate(-258.585 -239.851)"/>
        </g>
      </g>
    </g>
  </g>
</svg>
