<svg xmlns="http://www.w3.org/2000/svg" xmlns:xlink="http://www.w3.org/1999/xlink" width="106.16" height="106.16" viewBox="0 0 106.16 106.16">
  <defs>
    <filter id="Path_982547" x="0" y="0" width="106.16" height="106.16" filterUnits="userSpaceOnUse">
      <feOffset dy="3" input="SourceAlpha"/>
      <feGaussianBlur stdDeviation="3" result="blur"/>
      <feFlood flood-opacity="0.161"/>
      <feComposite operator="in" in2="blur"/>
      <feComposite in="SourceGraphic"/>
    </filter>
  </defs>
  <g id="Group_1203799" data-name="Group 1203799" transform="translate(-825 -2013)">
    <g id="Group_1203401" data-name="Group 1203401">
      <g id="Group_1202423" data-name="Group 1202423" transform="translate(553 607.997)">
        <g id="Group_1177900" data-name="Group 1177900" transform="translate(281 1411.003)">
          <g id="Group_1172010" data-name="Group 1172010" transform="translate(0)">
            <g id="Group_1171046" data-name="Group 1171046">
              <g id="Group_1148525" data-name="Group 1148525">
                <g transform="matrix(1, 0, 0, 1, -9, -6)" filter="url(#Path_982547)">
                  <g id="Path_982547-2" data-name="Path 982547" transform="translate(9 6)" fill="#fdfbec">
                    <path d="M 44.0802001953125 86.660400390625 C 38.33124923706055 86.660400390625 32.75506210327148 85.53479766845703 27.50652503967285 83.31484985351562 C 22.43628692626953 81.17032623291016 17.88242530822754 78.09992218017578 13.97144985198975 74.18894958496094 C 10.06047534942627 70.27797698974609 6.99007511138916 65.72411346435547 4.845550060272217 60.65387344360352 C 2.625600099563599 55.40533828735352 1.500000238418579 49.82915115356445 1.500000238418579 44.0802001953125 C 1.500000238418579 38.33124923706055 2.625600099563599 32.75506210327148 4.845550060272217 27.50652503967285 C 6.99007511138916 22.43628692626953 10.06047534942627 17.88242530822754 13.97144985198975 13.97144985198975 C 17.88242530822754 10.06047534942627 22.43628692626953 6.99007511138916 27.50652503967285 4.845550060272217 C 32.75506210327148 2.625600099563599 38.33124923706055 1.500000238418579 44.0802001953125 1.500000238418579 C 49.82915115356445 1.500000238418579 55.40533828735352 2.625600099563599 60.65387344360352 4.845550060272217 C 65.72411346435547 6.99007511138916 70.27797698974609 10.06047534942627 74.18894958496094 13.97144985198975 C 78.09992218017578 17.88242530822754 81.17032623291016 22.43628692626953 83.31484985351562 27.50652503967285 C 85.53479766845703 32.75506210327148 86.660400390625 38.33124923706055 86.660400390625 44.0802001953125 C 86.660400390625 49.82915115356445 85.53479766845703 55.40533828735352 83.31484985351562 60.65387344360352 C 81.17032623291016 65.72411346435547 78.09992218017578 70.27797698974609 74.18894958496094 74.18894958496094 C 70.27797698974609 78.09992218017578 65.72411346435547 81.17032623291016 60.65387344360352 83.31484985351562 C 55.40533828735352 85.53479766845703 49.82915115356445 86.660400390625 44.0802001953125 86.660400390625 Z" stroke="none"/>
                    <path d="M 44.0802001953125 3 C 38.53308486938477 3 33.15349960327148 4.085746765136719 28.09085845947266 6.227058410644531 C 23.19941711425781 8.29595947265625 18.80581665039062 11.25841522216797 15.03211212158203 15.03211212158203 C 11.25841522216797 18.80581665039062 8.29595947265625 23.19941711425781 6.227058410644531 28.09085845947266 C 4.085746765136719 33.15349960327148 3 38.53308486938477 3 44.0802001953125 C 3 49.62731552124023 4.085746765136719 55.00691604614258 6.227058410644531 60.06954193115234 C 8.29595947265625 64.96098327636719 11.25841522216797 69.35458374023438 15.03211212158203 73.12828826904297 C 18.80581665039062 76.90198516845703 23.19941711425781 79.86444091796875 28.09085845947266 81.93334197998047 C 33.15349960327148 84.07466125488281 38.53308486938477 85.160400390625 44.0802001953125 85.160400390625 C 49.62731552124023 85.160400390625 55.00691604614258 84.07466125488281 60.06954193115234 81.93334197998047 C 64.96099853515625 79.86444091796875 69.35458374023438 76.90198516845703 73.12828826904297 73.12828826904297 C 76.90198516845703 69.35458374023438 79.86444091796875 64.96099853515625 81.93334197998047 60.06954193115234 C 84.07466125488281 55.00691604614258 85.160400390625 49.62731552124023 85.160400390625 44.0802001953125 C 85.160400390625 38.53308486938477 84.07466125488281 33.15349960327148 81.93334197998047 28.09085845947266 C 79.86444091796875 23.19941711425781 76.90198516845703 18.80581665039062 73.12828826904297 15.03211212158203 C 69.35458374023438 11.25841522216797 64.96098327636719 8.29595947265625 60.06954193115234 6.227058410644531 C 55.00691604614258 4.085746765136719 49.62731552124023 3 44.0802001953125 3 M 44.0802001953125 0 C 68.42502593994141 0 88.160400390625 19.73538970947266 88.160400390625 44.0802001953125 C 88.160400390625 68.42502593994141 68.42502593994141 88.160400390625 44.0802001953125 88.160400390625 C 19.73538970947266 88.160400390625 0 68.42502593994141 0 44.0802001953125 C 0 19.73538970947266 19.73538970947266 0 44.0802001953125 0 Z" stroke="none" fill="#83793c"/>
                  </g>
                </g>
              </g>
            </g>
          </g>
        </g>
      </g>
      <g id="software" transform="translate(850 2035)">
        <path id="Path_1041863" data-name="Path 1041863" d="M59.448,126.03H9.182A1.682,1.682,0,0,1,7.5,124.348V93.182A1.682,1.682,0,0,1,9.182,91.5H59.447a1.682,1.682,0,0,1,1.682,1.682v31.165A1.682,1.682,0,0,1,59.448,126.03Z" transform="translate(-6.691 -81.626)" fill="#685c79"/>
        <path id="Path_1041864" data-name="Path 1041864" d="M462.146,91.5h-3.237a1.682,1.682,0,0,1,1.682,1.682v31.165a1.682,1.682,0,0,1-1.682,1.682h3.237a1.682,1.682,0,0,0,1.682-1.682V93.182A1.682,1.682,0,0,0,462.146,91.5Z" transform="translate(-409.389 -81.626)" fill="#594f69"/>
        <rect id="Rectangle_419044" data-name="Rectangle 419044" width="28.056" height="47.156" transform="translate(51.202 13.111) rotate(90)" fill="#ade7ff"/>
        <path id="Path_1041865" data-name="Path 1041865" d="M141.459,477.737h-27.84A1.619,1.619,0,0,1,112,476.119h0a1.619,1.619,0,0,1,1.619-1.619h27.84a1.619,1.619,0,0,1,1.619,1.619h0A1.619,1.619,0,0,1,141.459,477.737Z" transform="translate(-99.914 -423.298)" fill="#685c79"/>
        <path id="Path_1041866" data-name="Path 1041866" d="M358.125,474.5h-3.251a1.619,1.619,0,0,1,0,3.237h3.251a1.619,1.619,0,1,0,0-3.237Z" transform="translate(-316.58 -423.298)" fill="#594f69"/>
        <path id="Path_1041867" data-name="Path 1041867" d="M181.74,418.3H161.3a8.538,8.538,0,0,0,3.485-6.8h13.467A8.538,8.538,0,0,0,181.74,418.3Z" transform="translate(-143.897 -367.096)" fill="#ade7ff"/>
        <path id="Path_1041868" data-name="Path 1041868" d="M293.126,411.5h-3.057a8.538,8.538,0,0,0,3.485,6.8h3.057A8.538,8.538,0,0,1,293.126,411.5Z" transform="translate(-258.768 -367.096)" fill="#82d2f5"/>
        <path id="Path_1041869" data-name="Path 1041869" d="M179.934,150v13.2l-10.467,5L159,163.2V150l10.467-5Z" transform="translate(-141.843 -129.353)" fill="#ff2c5c"/>
        <path id="Path_1041870" data-name="Path 1041870" d="M241.631,150l-3.237,1.547-10.234-5.112,3-1.435Z" transform="translate(-203.54 -129.353)" fill="#e62753"/>
        <path id="Path_1041871" data-name="Path 1041871" d="M169.467,196.344v13.2l-10.467-5v-13.2Z" transform="translate(-141.843 -170.696)" fill="#4fb1f5"/>
        <path id="Path_1041872" data-name="Path 1041872" d="M256,196.344v13.2l10.467-5v-13.2Z" transform="translate(-228.376 -170.696)" fill="#ffd659"/>
        <path id="Path_1041873" data-name="Path 1041873" d="M326.237,191.343,323,192.89l.049,13.175,3.188-1.523Z" transform="translate(-288.146 -170.696)" fill="#ffbd54"/>
        <circle id="Ellipse_12574" data-name="Ellipse 12574" cx="1.619" cy="1.619" r="1.619" transform="translate(40.614 0.809)" fill="#ff2c5c"/>
        <circle id="Ellipse_12575" data-name="Ellipse 12575" cx="1.619" cy="1.619" r="1.619" transform="translate(26.006 0.809)" fill="#ff2c5c"/>
        <circle id="Ellipse_12576" data-name="Ellipse 12576" cx="1.619" cy="1.619" r="1.619" transform="translate(11.398 0.809)" fill="#ff2c5c"/>
        <path id="Path_1041874" data-name="Path 1041874" d="M52.757,9.064H41.436a.809.809,0,0,0,0,1.619h11.32a.874.874,0,0,1,.873.873V42.721a.874.874,0,0,1-.873.873H2.492a.874.874,0,0,1-.873-.873V11.556a.874.874,0,0,1,.873-.873H20.273V12.3H4.047a.809.809,0,0,0-.809.809V34.494a.809.809,0,1,0,1.619,0V13.92H20.273v4.342l-3.465,1.655a.814.814,0,0,0-.46.73v13.2a.81.81,0,0,0,.46.73l10.467,5a.819.819,0,0,0,.7,0l5.884-2.811a.809.809,0,0,0-.7-1.461l-4.726,2.258v-11.4l8.848-4.227v11.4l-1.2.574a.809.809,0,0,0,.7,1.461l1.663-.794a.81.81,0,0,0,.46-.73v-13.2a.814.814,0,0,0-.46-.73l-3.465-1.655V13.92H50.393V40.357H4.856v-2.41a.809.809,0,0,0-1.619,0v3.219a.809.809,0,0,0,.809.809H51.2a.809.809,0,0,0,.809-.809V13.111A.809.809,0,0,0,51.2,12.3H34.975V10.683h3.008a.809.809,0,0,0,0-1.619H34.975V7.446h7.257a.809.809,0,0,0,.809-.809V4.717a2.428,2.428,0,1,0-1.619,0v1.11H34.166a.809.809,0,0,0-.809.809V9.064H28.434V4.717a2.428,2.428,0,1,0-1.619,0V9.064H21.892V6.636a.809.809,0,0,0-.809-.809H13.826V4.717a2.428,2.428,0,1,0-1.619,0v1.92a.809.809,0,0,0,.809.809h7.257V9.064H2.492A2.5,2.5,0,0,0,0,11.556V42.721a2.5,2.5,0,0,0,2.492,2.492H20.038a7.713,7.713,0,0,1-2.895,5.18H13.7a2.428,2.428,0,0,0,0,4.856h27.84a2.428,2.428,0,0,0,0-4.856H38.108a7.791,7.791,0,0,1-2.9-5.18H52.757a2.5,2.5,0,0,0,2.492-2.492V11.556A2.5,2.5,0,0,0,52.757,9.064ZM42.232,1.619a.809.809,0,1,1-.809.809A.81.81,0,0,1,42.232,1.619Zm-14.608,0a.809.809,0,1,1-.809.809A.81.81,0,0,1,27.624,1.619Zm-14.608,0a.809.809,0,1,1-.809.809A.81.81,0,0,1,13.016,1.619Zm8.875,12.3h4.923v1.216l-4.923,2.352Zm14.322,6.727-8.59,4.1-8.59-4.1,8.59-4.1ZM17.967,21.931l8.848,4.227v11.4l-8.848-4.227Zm15.39-4.442-4.923-2.352V13.92h4.923Zm0-6.806V12.3H28.434V10.683Zm-6.542,0V12.3H21.892V10.683ZM42.354,52.821a.81.81,0,0,1-.809.809H13.7a.809.809,0,1,1,0-1.619h27.84A.81.81,0,0,1,42.354,52.821Zm-6.567-2.428H19.462a9.127,9.127,0,0,0,2.2-5.18H33.583A9.128,9.128,0,0,0,35.786,50.393Z"/>
      </g>
    </g>
  </g>
</svg>
