<svg xmlns="http://www.w3.org/2000/svg" xmlns:xlink="http://www.w3.org/1999/xlink" width="97.533" height="97.533" viewBox="0 0 97.533 97.533">
  <defs>
    <filter id="Path_982547" x="0" y="0" width="97.533" height="97.533" filterUnits="userSpaceOnUse">
      <feOffset dy="3" input="SourceAlpha"/>
      <feGaussianBlur stdDeviation="3" result="blur"/>
      <feFlood flood-opacity="0.161"/>
      <feComposite operator="in" in2="blur"/>
      <feComposite in="SourceGraphic"/>
    </filter>
  </defs>
  <g id="Group_1203856" data-name="Group 1203856" transform="translate(-191 -9411.47)">
    <g id="Group_1203723" data-name="Group 1203723" transform="translate(0 -74.53)">
      <g id="Group_1203357" data-name="Group 1203357" transform="translate(-0.467 2583.318)">
        <g id="Group_1202156" data-name="Group 1202156" transform="translate(-80.533 5497.679)">
          <g id="Group_1177900" data-name="Group 1177900" transform="translate(281 1411.003)">
            <g id="Group_1172010" data-name="Group 1172010" transform="translate(0)">
              <g id="Group_1171046" data-name="Group 1171046">
                <g id="Group_1148525" data-name="Group 1148525">
                  <g transform="matrix(1, 0, 0, 1, -9, -6)" filter="url(#Path_982547)">
                    <g id="Path_982547-2" data-name="Path 982547" transform="translate(9 6)" fill="#fdfbec">
                      <path d="M 39.7666015625 78.033203125 C 34.59997940063477 78.033203125 29.58870124816895 77.02164459228516 24.87196731567383 75.02663421630859 C 20.31538963317871 73.099365234375 16.22284507751465 70.34000396728516 12.70802402496338 66.82518005371094 C 9.193202018737793 63.31035614013672 6.433835029602051 59.21781158447266 4.506568431854248 54.66123580932617 C 2.511557102203369 49.94449996948242 1.500001549720764 44.93322372436523 1.500001549720764 39.7666015625 C 1.500001549720764 34.59997940063477 2.511557102203369 29.58870124816895 4.506568431854248 24.87196731567383 C 6.433835029602051 20.31538963317871 9.193202018737793 16.22284507751465 12.70802402496338 12.70802402496338 C 16.22284507751465 9.193202018737793 20.31538963317871 6.433835029602051 24.87196731567383 4.506568431854248 C 29.58870124816895 2.511557102203369 34.59997940063477 1.500001549720764 39.7666015625 1.500001549720764 C 44.93322372436523 1.500001549720764 49.94449996948242 2.511557102203369 54.66123580932617 4.506568431854248 C 59.21781158447266 6.433835029602051 63.31035614013672 9.193202018737793 66.82518005371094 12.70802402496338 C 70.34000396728516 16.22284507751465 73.099365234375 20.31538963317871 75.02663421630859 24.87196731567383 C 77.02164459228516 29.58870124816895 78.033203125 34.59997940063477 78.033203125 39.7666015625 C 78.033203125 44.93322372436523 77.02164459228516 49.94449996948242 75.02663421630859 54.66123580932617 C 73.099365234375 59.21781158447266 70.34000396728516 63.31035614013672 66.82518005371094 66.82518005371094 C 63.31035614013672 70.34000396728516 59.21781158447266 73.099365234375 54.66123580932617 75.02663421630859 C 49.94449996948242 77.02164459228516 44.93322372436523 78.033203125 39.7666015625 78.033203125 Z" stroke="none"/>
                      <path d="M 39.7666015625 3 C 34.80181503295898 3 29.98714065551758 3.971687316894531 25.45630264282227 5.888076782226562 C 21.07851409912109 7.739715576171875 17.146240234375 10.39113616943359 13.76869201660156 13.76869201660156 C 10.39113616943359 17.146240234375 7.739715576171875 21.07851409912109 5.888076782226562 25.45630264282227 C 3.971687316894531 29.98714065551758 3 34.80181503295898 3 39.7666015625 C 3 44.73138809204102 3.971687316894531 49.54606628417969 5.888076782226562 54.076904296875 C 7.739715576171875 58.45468902587891 10.39113616943359 62.386962890625 13.76869201660156 65.76451110839844 C 17.146240234375 69.14206695556641 21.07851409912109 71.79348754882812 25.45630264282227 73.64512634277344 C 29.98714065551758 75.56151580810547 34.80181503295898 76.533203125 39.7666015625 76.533203125 C 44.73138809204102 76.533203125 49.54606628417969 75.56151580810547 54.076904296875 73.64512634277344 C 58.45468902587891 71.79348754882812 62.386962890625 69.14206695556641 65.76451110839844 65.76451110839844 C 69.14206695556641 62.386962890625 71.79348754882812 58.45468902587891 73.64512634277344 54.076904296875 C 75.56151580810547 49.54606628417969 76.533203125 44.73138809204102 76.533203125 39.7666015625 C 76.533203125 34.80181503295898 75.56151580810547 29.98714065551758 73.64512634277344 25.45630264282227 C 71.79348754882812 21.07851409912109 69.14206695556641 17.146240234375 65.76451110839844 13.76869201660156 C 62.386962890625 10.39113616943359 58.45468902587891 7.739715576171875 54.076904296875 5.888076782226562 C 49.54606628417969 3.971687316894531 44.73138809204102 3 39.7666015625 3 M 39.7666015625 0 C 61.72908782958984 0 79.533203125 17.80411529541016 79.533203125 39.7666015625 C 79.533203125 61.72908782958984 61.72908782958984 79.533203125 39.7666015625 79.533203125 C 17.80411529541016 79.533203125 0 61.72908782958984 0 39.7666015625 C 0 17.80411529541016 17.80411529541016 0 39.7666015625 0 Z" stroke="none" fill="#83793c"/>
                    </g>
                  </g>
                </g>
              </g>
            </g>
          </g>
        </g>
      </g>
      <g id="Playground" transform="translate(207.999 9481.384)">
        <path id="Path_1043838" data-name="Path 1043838" d="M116.039,311.288v17.183H111.9a.835.835,0,0,1-.835-.835v-4.7a4.154,4.154,0,0,0-3.641-4.191,4.038,4.038,0,0,0-4.433,4.018v4.875a.835.835,0,0,1-.835.835h-4.14V311.288Z" transform="translate(-82.495 -255.216)" fill="#118ab2"/>
        <path id="Path_1043839" data-name="Path 1043839" d="M248.015,311.327h2.5V328.51h-2.5Z" transform="translate(-216.972 -255.251)" fill="#0c7591"/>
        <path id="Path_1043840" data-name="Path 1043840" d="M98.044,107.12h3.687v8.989H98.044Z" transform="translate(-82.519 -72.174)" fill="#ffd166"/>
        <path id="Path_1043841" data-name="Path 1043841" d="M236.562,107.12h3.687v8.989h-3.687Z" transform="translate(-206.704 -72.174)" fill="#ffd166"/>
        <path id="Path_1043842" data-name="Path 1043842" d="M248.015,107.116h2.5V116.1h-2.5Z" transform="translate(-216.972 -72.17)" fill="#f9bd46"/>
        <path id="Path_1043843" data-name="Path 1043843" d="M98.044,178.788v15.377h18.017V178.788Zm9.008,12.175a4.487,4.487,0,1,1,4.487-4.487,4.487,4.487,0,0,1-4.487,4.487Z" transform="translate(-82.519 -136.426)" fill="#06d6a0"/>
        <path id="Path_1043844" data-name="Path 1043844" d="M247.935,178.816h2.5v15.372h-2.5Z" transform="translate(-216.901 -136.451)" fill="#0baa7d"/>
        <path id="Path_1043845" data-name="Path 1043845" d="M70.579,42.214l9.028-6.733a4.217,4.217,0,0,1,5.042,0l9.028,6.733a.835.835,0,0,1-.5,1.5h-22.1a.835.835,0,0,1-.5-1.5Z" transform="translate(-57.595 -7.197)" fill="#ef476f"/>
        <path id="Path_1043846" data-name="Path 1043846" d="M185.309,43.734h-2.5a.84.84,0,0,0,.5-1.51l-9.03-6.726a4.048,4.048,0,0,0-1.268-.643,4.18,4.18,0,0,1,3.772.643l9.03,6.726a.84.84,0,0,1-.5,1.51Z" transform="translate(-149.727 -7.211)" fill="#cc325e"/>
        <path id="Path_1043847" data-name="Path 1043847" d="M294.289,281.372v2.121a.831.831,0,0,1-.831.835H283.12a.833.833,0,0,1-.832-.835v-5.449a3.252,3.252,0,0,0-2.513-3.214,3.2,3.2,0,0,0-3.872,3.122v5.542a.835.835,0,0,1-.835.835H272.2V262.049s12.094.626,13.137,10.014c0,0,.887,7.667,8.658,8.137Z" transform="translate(-238.651 -211.073)" fill="#ef476f"/>
        <path id="Path_1043848" data-name="Path 1043848" d="M272.211,263.242v-1.193s10.248.534,12.685,7.936a11.721,11.721,0,0,0-1.285-2.045c-3.4-4.239-9.1-4.7-11.4-4.7Z" transform="translate(-238.665 -211.072)" fill="#cc325e"/>
        <path id="Path_1043849" data-name="Path 1043849" d="M422.709,409.966a8.688,8.688,0,0,0,6.217,2.846l.292,1.143C425.555,413.955,423.877,412.353,422.709,409.966Z" transform="translate(-373.59 -343.684)" fill="#cc325e"/>
        <path id="Path_1043850" data-name="Path 1043850" d="M22.732,378.161H14.877a.835.835,0,0,1-.835-.835V375.18a.835.835,0,0,1,.835-.835h1.629v-2.982a.835.835,0,0,1,.835-.835h1.629v-2.982a.835.835,0,0,1,.835-.835h2.931Z" transform="translate(-7.21 -304.906)" fill="#ffd166"/>
        <path id="Path_1043851" data-name="Path 1043851" d="M73.847,366.736h2.5v11.45h-2.5Z" transform="translate(-60.826 -304.927)" fill="#f9bd46"/>
        <path id="Path_1043852" data-name="Path 1043852" d="M461.422,440.744h2.5V443.7a.835.835,0,0,1-.835.835h-1.669Z" transform="translate(-408.298 -371.277)" fill="#cc325e"/>
        <path id="Path_1043853" data-name="Path 1043853" d="M272.195,251.922c1.934,0,6.714.363,9.425,3.75A17.3,17.3,0,0,1,284,260.79c1.419,4.113,3.184,9.231,10.287,9.231a1.267,1.267,0,1,0,0-2.534c-5.3,0-6.444-3.319-7.9-7.525a19.344,19.344,0,0,0-2.8-5.878c-3.4-4.24-9.1-4.7-11.4-4.7Z" transform="translate(-238.65 -199.722)" fill="#ffd166"/>
        <path id="Path_1043854" data-name="Path 1043854" d="M445.824,424.867a1.261,1.261,0,0,1-1.268,1.26,10.1,10.1,0,0,1-4.748-1.035,11.694,11.694,0,0,0,2.245.2,1.261,1.261,0,0,0,1.268-1.26,1.334,1.334,0,0,0-.108-.517,9.669,9.669,0,0,0,1.344.083A1.268,1.268,0,0,1,445.824,424.867Z" transform="translate(-388.919 -355.831)" fill="#f9bd46"/>
        <path id="Path_1043855" data-name="Path 1043855" d="M24.536,55.367a5.321,5.321,0,1,0-5.321-5.321,5.321,5.321,0,0,0,5.321,5.321Zm0-8.973a3.652,3.652,0,1,1-3.652,3.652A3.652,3.652,0,0,1,24.536,46.394Zm31.1,20.533c-4.7,0-5.66-2.77-7.107-6.962C47.349,56.526,45.3,49.319,34.378,48.849c0-10.614,0-2.628,0-11.5H38.1a.835.835,0,0,0,.5-1.5L27.556,27.61a5.084,5.084,0,0,0-6.04,0L10.471,35.847a.835.835,0,0,0,.5,1.5h3.722c0,15.207,0,22.9,0,23.617H11.762a.835.835,0,0,0-.835.834v2.982H9.3a.835.835,0,0,0-.835.834V68.6H6.835A.835.835,0,0,0,6,69.435v3.816a.835.835,0,0,0,.834.835H20.5a.835.835,0,0,0,.835-.834V67.542c0-4.232,6.4-4.233,6.4,0v5.709a.835.835,0,0,0,.834.835h8.682a.835.835,0,0,0,.835-.834V66.875a2.358,2.358,0,0,1,4.716,0v6.291a.846.846,0,0,0,0,.086.835.835,0,0,0,.834.835H55.64a.835.835,0,0,0,.835-.834v-2.3a2.1,2.1,0,0,0-.835-4.028Zm-8.686-6.418c1.436,4.159,2.793,8.087,8.686,8.087a.432.432,0,0,1,0,.865c-6.507,0-8.1-4.605-9.521-8.737-1.161-3.34-2.689-8.9-11.74-9.341v-.865c9.7.451,11.406,6.588,12.576,9.991ZM29.025,37.351v4.173H20.049V37.351Zm3.684,5.842V56.9H16.361V43.193Zm0-1.669H30.694V37.351h2.018Zm-10.2-12.575a3.4,3.4,0,0,1,4.045,0l9.028,6.733h-22.1Zm-4.134,8.4v4.173H16.361V37.351ZM7.67,70.27H9.3a.835.835,0,0,0,.835-.834V66.453h1.629a.835.835,0,0,0,.835-.834V62.637H14.69v9.78H7.67Zm11.994-2.728v4.875H16.359V58.571H32.712V72.417H29.407V67.542c0-6.438-9.743-6.438-9.743,0Zm24.81,4.875V66.875c0-5.321-8.054-5.324-8.054,0v5.542H34.381c0-11.323,0-18.264,0-19.363,7.835.414,9.018,4.923,10.186,8.283,1.372,3.976,3.247,9.351,10.241,9.754v1.326Z"/>
      </g>
    </g>
  </g>
</svg>
