<svg xmlns="http://www.w3.org/2000/svg" xmlns:xlink="http://www.w3.org/1999/xlink" width="113" height="113" viewBox="0 0 113 113">
  <defs>
    <filter id="Path_982547" x="0" y="0" width="113" height="113" filterUnits="userSpaceOnUse">
      <feOffset dy="3" input="SourceAlpha"/>
      <feGaussianBlur stdDeviation="3" result="blur"/>
      <feFlood flood-opacity="0.161"/>
      <feComposite operator="in" in2="blur"/>
      <feComposite in="SourceGraphic"/>
    </filter>
  </defs>
  <g id="Group_1203819" data-name="Group 1203819" transform="translate(-901 -5901.287)">
    <g id="Group_1203634" data-name="Group 1203634">
      <g id="Group_1202434" data-name="Group 1202434" transform="translate(-0.56 1255.773)">
        <g id="Group_1202053" data-name="Group 1202053" transform="translate(0 3240.511)">
          <g id="Group_1177898" data-name="Group 1177898" transform="translate(910.561 1411.003)">
            <g id="Group_1172010" data-name="Group 1172010" transform="translate(0)">
              <g id="Group_1171046" data-name="Group 1171046">
                <g id="Group_1148525" data-name="Group 1148525">
                  <g transform="matrix(1, 0, 0, 1, -9, -6)" filter="url(#Path_982547)">
                    <g id="Path_982547-2" data-name="Path 982547" transform="translate(9 6)" fill="#edf3fc">
                      <path d="M 47.5 93.5 C 41.28937149047852 93.5 35.26533508300781 92.28397369384766 29.59518623352051 89.88570404052734 C 24.11771965026855 87.56893157958984 19.19813346862793 84.25196075439453 14.97309303283691 80.02691650390625 C 10.74804019927979 75.80186462402344 7.431066513061523 70.88229370117188 5.114293098449707 65.40481567382812 C 2.716026782989502 59.73468017578125 1.5 53.71062850952148 1.5 47.5 C 1.5 41.28937149047852 2.716026782989502 35.26533508300781 5.114293098449707 29.59518623352051 C 7.431066513061523 24.11771965026855 10.74804019927979 19.19813346862793 14.97309303283691 14.97309303283691 C 19.19813346862793 10.74804019927979 24.11771965026855 7.431066513061523 29.59518623352051 5.114293098449707 C 35.26533508300781 2.716026782989502 41.28937149047852 1.5 47.5 1.5 C 53.71062850952148 1.5 59.73468017578125 2.716026782989502 65.40481567382812 5.114293098449707 C 70.88229370117188 7.431066513061523 75.80186462402344 10.74804019927979 80.02691650390625 14.97309303283691 C 84.25196075439453 19.19813346862793 87.56893157958984 24.11771965026855 89.88570404052734 29.59518623352051 C 92.28397369384766 35.26533508300781 93.5 41.28937149047852 93.5 47.5 C 93.5 53.71062850952148 92.28397369384766 59.73468017578125 89.88570404052734 65.40481567382812 C 87.56893157958984 70.88229370117188 84.25196075439453 75.80186462402344 80.02691650390625 80.02691650390625 C 75.80186462402344 84.25196075439453 70.88229370117188 87.56893157958984 65.40481567382812 89.88570404052734 C 59.73468017578125 92.28397369384766 53.71062850952148 93.5 47.5 93.5 Z" stroke="none"/>
                      <path d="M 47.5 3 C 41.49121475219727 3 35.66376876831055 4.176155090332031 30.17950439453125 6.495796203613281 C 24.88084411621094 8.736953735351562 20.12152099609375 11.94598388671875 16.03375244140625 16.03375244140625 C 11.94598388671875 20.12152099609375 8.736953735351562 24.88084411621094 6.495796203613281 30.17950439453125 C 4.176155090332031 35.66376876831055 3 41.49121475219727 3 47.5 C 3 53.50878524780273 4.176155090332031 59.33623123168945 6.495796203613281 64.82049560546875 C 8.736953735351562 70.11915588378906 11.94598388671875 74.87847900390625 16.03375244140625 78.96624755859375 C 20.12152099609375 83.05401611328125 24.88084411621094 86.26304626464844 30.17950439453125 88.50419616699219 C 35.66376876831055 90.82384490966797 41.49121475219727 92 47.5 92 C 53.50878524780273 92 59.33623123168945 90.82384490966797 64.82049560546875 88.50419616699219 C 70.11915588378906 86.26304626464844 74.87847900390625 83.05401611328125 78.96624755859375 78.96624755859375 C 83.05401611328125 74.87847900390625 86.26304626464844 70.11915588378906 88.50419616699219 64.82049560546875 C 90.82384490966797 59.33623123168945 92 53.50878524780273 92 47.5 C 92 41.49121475219727 90.82384490966797 35.66376876831055 88.50419616699219 30.17950439453125 C 86.26304626464844 24.88084411621094 83.05401611328125 20.12152099609375 78.96624755859375 16.03375244140625 C 74.87847900390625 11.94598388671875 70.11915588378906 8.736953735351562 64.82049560546875 6.495796203613281 C 59.33623123168945 4.176155090332031 53.50878524780273 3 47.5 3 M 47.5 0 C 73.7335205078125 0 95 21.2664794921875 95 47.5 C 95 73.7335205078125 73.7335205078125 95 47.5 95 C 21.2664794921875 95 0 73.7335205078125 0 47.5 C 0 21.2664794921875 21.2664794921875 0 47.5 0 Z" stroke="none" fill="#5692e8"/>
                    </g>
                  </g>
                </g>
              </g>
            </g>
          </g>
        </g>
      </g>
      <g id="charla_1_" data-name="charla (1)" transform="translate(924.629 5921.917)">
        <path id="Path_1042589" data-name="Path 1042589" d="M24.015,22.131a10.294,10.294,0,0,0,8-12.131H58.955a4.112,4.112,0,0,1,4.112,4.112V30.562a4.112,4.112,0,0,1-4.112,4.112H57.927V42.9L47.646,34.674H28.112A4.112,4.112,0,0,1,24,30.562v-8.43Z" transform="translate(0.646 0.253)" fill="#c0dafc"/>
        <path id="Path_1042590" data-name="Path 1042590" d="M24.015,22.019H24v8.43a4.112,4.112,0,0,0,4.112,4.112H47.646l10.281,8.225V34.562h.048V14H32.011a10.288,10.288,0,0,1-8,8.019Z" transform="translate(0.646 0.365)" fill="#d7ecff"/>
        <path id="Path_1042591" data-name="Path 1042591" d="M42.689,34.225H28.73a4.112,4.112,0,0,1-4.112-4.112V26.017c-.34-.011-.684-.017-1.028-.017C11.664,26,2,32.9,2,41.421c0,6.437,5.521,11.952,13.365,14.263v7.327l10.411-6.247H25.8c10.887-.792,19.382-7.358,19.382-15.343A12.029,12.029,0,0,0,42.689,34.225Z" transform="translate(0.028 0.702)" fill="#78a0d4"/>
        <circle id="Ellipse_12609" data-name="Ellipse 12609" cx="10.281" cy="10.281" r="10.281" transform="translate(12.309 2.028)" fill="#f0ae42"/>
        <path id="Path_1042592" data-name="Path 1042592" d="M20.822,12.188l-.791-3.95A1.914,1.914,0,0,1,20,7.871,1.871,1.871,0,0,1,21.871,6h.37a1.871,1.871,0,0,1,1.871,1.871,1.914,1.914,0,0,1-.036.367l-.786,3.95a1.259,1.259,0,0,1-2.467,0Z" transform="translate(0.534 0.14)" fill="#fce797"/>
        <circle id="Ellipse_12610" data-name="Ellipse 12610" cx="2.056" cy="2.056" r="2.056" transform="translate(20.534 15.393)" fill="#fce797"/>
        <g id="Group_1203632" data-name="Group 1203632" transform="translate(33.899 22.59)">
          <circle id="Ellipse_12611" data-name="Ellipse 12611" cx="2.056" cy="2.056" r="2.056" fill="#78a0d4"/>
          <circle id="Ellipse_12612" data-name="Ellipse 12612" cx="2.056" cy="2.056" r="2.056" transform="translate(8.225)" fill="#78a0d4"/>
          <circle id="Ellipse_12613" data-name="Ellipse 12613" cx="2.056" cy="2.056" r="2.056" transform="translate(16.449)" fill="#78a0d4"/>
        </g>
        <g id="Group_1203633" data-name="Group 1203633" transform="translate(13.337 42.123)">
          <path id="Path_1042593" data-name="Path 1042593" d="M15.056,45.112a2.056,2.056,0,1,1,2.056-2.056A2.056,2.056,0,0,1,15.056,45.112Z" transform="translate(-13 -41)" fill="#c0dafc"/>
          <path id="Path_1042594" data-name="Path 1042594" d="M23.056,45.112a2.056,2.056,0,1,1,2.056-2.056A2.056,2.056,0,0,1,23.056,45.112Z" transform="translate(-12.775 -41)" fill="#c0dafc"/>
          <path id="Path_1042595" data-name="Path 1042595" d="M31.056,45.112a2.056,2.056,0,1,1,2.056-2.056A2.056,2.056,0,0,1,31.056,45.112Z" transform="translate(-12.551 -41)" fill="#c0dafc"/>
        </g>
        <path id="Path_1042596" data-name="Path 1042596" d="M59.6,9.225H33.461A11.309,11.309,0,1,0,22.59,23.618c.347,0,.689-.022,1.028-.052v2.109C11.146,25.674,1,33.054,1,42.123,1,48.668,6.219,54.5,14.365,57.144v6.569a1.028,1.028,0,0,0,1.558.881l10.2-6.124c11.476-.911,20.112-7.916,20.112-16.347a12.736,12.736,0,0,0-1.645-6.168h3.34l10,8a1.028,1.028,0,0,0,1.671-.8v-7.2a5.147,5.147,0,0,0,5.14-5.14V14.365a5.147,5.147,0,0,0-5.14-5.14ZM13.337,12.309a9.253,9.253,0,1,1,9.253,9.253,9.253,9.253,0,0,1-9.253-9.253ZM44.18,42.123c0,7.4-7.922,13.554-18.424,14.316a1.028,1.028,0,0,0-.48.145L16.421,61.9V56.386a1.028,1.028,0,0,0-.738-.986C8.013,53.141,3.056,47.929,3.056,42.123c0-7.937,9.224-14.393,20.562-14.393v3.084a5.147,5.147,0,0,0,5.14,5.14h13.42a10.805,10.805,0,0,1,2,6.169ZM62.685,30.814A3.084,3.084,0,0,1,59.6,33.9H58.573a1.028,1.028,0,0,0-1.028,1.028v6.085l-8.61-6.888a1.028,1.028,0,0,0-.643-.225H28.758a3.084,3.084,0,0,1-3.084-3.084V23.18A11.322,11.322,0,0,0,33.9,12.309c0-.347-.022-.689-.052-1.028H59.6a3.084,3.084,0,0,1,3.084,3.084Z" transform="translate(0 0)"/>
        <path id="Path_1042597" data-name="Path 1042597" d="M22.27,5H21.9A2.9,2.9,0,0,0,19,7.9a2.946,2.946,0,0,0,.057.569l.79,3.951a2.282,2.282,0,0,0,4.476,0l.79-3.952A2.9,2.9,0,0,0,22.27,5Zm.822,3.064-.79,3.951a.235.235,0,0,1-.444,0l-.79-3.95a.814.814,0,0,1-.013-.166.843.843,0,0,1,.842-.843h.372a.843.843,0,0,1,.842.843.8.8,0,0,1-.016.164Z" transform="translate(0.506 0.112)"/>
        <circle id="Ellipse_12614" data-name="Ellipse 12614" cx="2.056" cy="2.056" r="2.056" transform="translate(20.534 15.393)"/>
        <circle id="Ellipse_12615" data-name="Ellipse 12615" cx="2.056" cy="2.056" r="2.056" transform="translate(33.899 22.59)"/>
        <circle id="Ellipse_12616" data-name="Ellipse 12616" cx="2.056" cy="2.056" r="2.056" transform="translate(42.123 22.59)"/>
        <circle id="Ellipse_12617" data-name="Ellipse 12617" cx="2.056" cy="2.056" r="2.056" transform="translate(50.348 22.59)"/>
        <circle id="Ellipse_12618" data-name="Ellipse 12618" cx="2.056" cy="2.056" r="2.056" transform="translate(13.337 42.123)"/>
        <circle id="Ellipse_12619" data-name="Ellipse 12619" cx="2.056" cy="2.056" r="2.056" transform="translate(21.562 42.123)"/>
        <circle id="Ellipse_12620" data-name="Ellipse 12620" cx="2.056" cy="2.056" r="2.056" transform="translate(29.786 42.123)"/>
      </g>
    </g>
  </g>
</svg>
