<svg xmlns="http://www.w3.org/2000/svg" xmlns:xlink="http://www.w3.org/1999/xlink" width="106.16" height="106.16" viewBox="0 0 106.16 106.16">
  <defs>
    <filter id="Path_982547" x="0" y="0" width="106.16" height="106.16" filterUnits="userSpaceOnUse">
      <feOffset dy="3" input="SourceAlpha"/>
      <feGaussianBlur stdDeviation="3" result="blur"/>
      <feFlood flood-opacity="0.161"/>
      <feComposite operator="in" in2="blur"/>
      <feComposite in="SourceGraphic"/>
    </filter>
  </defs>
  <g id="Group_1203816" data-name="Group 1203816" transform="translate(-824.92 -5425.744)">
    <g id="Group_1203624" data-name="Group 1203624">
      <g id="Group_1202431" data-name="Group 1202431" transform="translate(552.92 4020.741)">
        <g id="Group_1177900" data-name="Group 1177900" transform="translate(281 1411.003)">
          <g id="Group_1172010" data-name="Group 1172010" transform="translate(0)">
            <g id="Group_1171046" data-name="Group 1171046">
              <g id="Group_1148525" data-name="Group 1148525">
                <g transform="matrix(1, 0, 0, 1, -9, -6)" filter="url(#Path_982547)">
                  <g id="Path_982547-2" data-name="Path 982547" transform="translate(9 6)" fill="#fdfbec">
                    <path d="M 44.0802001953125 86.660400390625 C 38.33124923706055 86.660400390625 32.75506210327148 85.53479766845703 27.50652503967285 83.31484985351562 C 22.43628692626953 81.17032623291016 17.88242530822754 78.09992218017578 13.97144985198975 74.18894958496094 C 10.06047534942627 70.27797698974609 6.99007511138916 65.72411346435547 4.845550060272217 60.65387344360352 C 2.625600099563599 55.40533828735352 1.500000238418579 49.82915115356445 1.500000238418579 44.0802001953125 C 1.500000238418579 38.33124923706055 2.625600099563599 32.75506210327148 4.845550060272217 27.50652503967285 C 6.99007511138916 22.43628692626953 10.06047534942627 17.88242530822754 13.97144985198975 13.97144985198975 C 17.88242530822754 10.06047534942627 22.43628692626953 6.99007511138916 27.50652503967285 4.845550060272217 C 32.75506210327148 2.625600099563599 38.33124923706055 1.500000238418579 44.0802001953125 1.500000238418579 C 49.82915115356445 1.500000238418579 55.40533828735352 2.625600099563599 60.65387344360352 4.845550060272217 C 65.72411346435547 6.99007511138916 70.27797698974609 10.06047534942627 74.18894958496094 13.97144985198975 C 78.09992218017578 17.88242530822754 81.17032623291016 22.43628692626953 83.31484985351562 27.50652503967285 C 85.53479766845703 32.75506210327148 86.660400390625 38.33124923706055 86.660400390625 44.0802001953125 C 86.660400390625 49.82915115356445 85.53479766845703 55.40533828735352 83.31484985351562 60.65387344360352 C 81.17032623291016 65.72411346435547 78.09992218017578 70.27797698974609 74.18894958496094 74.18894958496094 C 70.27797698974609 78.09992218017578 65.72411346435547 81.17032623291016 60.65387344360352 83.31484985351562 C 55.40533828735352 85.53479766845703 49.82915115356445 86.660400390625 44.0802001953125 86.660400390625 Z" stroke="none"/>
                    <path d="M 44.0802001953125 3 C 38.53308486938477 3 33.15349960327148 4.085746765136719 28.09085845947266 6.227058410644531 C 23.19941711425781 8.29595947265625 18.80581665039062 11.25841522216797 15.03211212158203 15.03211212158203 C 11.25841522216797 18.80581665039062 8.29595947265625 23.19941711425781 6.227058410644531 28.09085845947266 C 4.085746765136719 33.15349960327148 3 38.53308486938477 3 44.0802001953125 C 3 49.62731552124023 4.085746765136719 55.00691604614258 6.227058410644531 60.06954193115234 C 8.29595947265625 64.96098327636719 11.25841522216797 69.35458374023438 15.03211212158203 73.12828826904297 C 18.80581665039062 76.90198516845703 23.19941711425781 79.86444091796875 28.09085845947266 81.93334197998047 C 33.15349960327148 84.07466125488281 38.53308486938477 85.160400390625 44.0802001953125 85.160400390625 C 49.62731552124023 85.160400390625 55.00691604614258 84.07466125488281 60.06954193115234 81.93334197998047 C 64.96099853515625 79.86444091796875 69.35458374023438 76.90198516845703 73.12828826904297 73.12828826904297 C 76.90198516845703 69.35458374023438 79.86444091796875 64.96099853515625 81.93334197998047 60.06954193115234 C 84.07466125488281 55.00691604614258 85.160400390625 49.62731552124023 85.160400390625 44.0802001953125 C 85.160400390625 38.53308486938477 84.07466125488281 33.15349960327148 81.93334197998047 28.09085845947266 C 79.86444091796875 23.19941711425781 76.90198516845703 18.80581665039062 73.12828826904297 15.03211212158203 C 69.35458374023438 11.25841522216797 64.96098327636719 8.29595947265625 60.06954193115234 6.227058410644531 C 55.00691604614258 4.085746765136719 49.62731552124023 3 44.0802001953125 3 M 44.0802001953125 0 C 68.42502593994141 0 88.160400390625 19.73538970947266 88.160400390625 44.0802001953125 C 88.160400390625 68.42502593994141 68.42502593994141 88.160400390625 44.0802001953125 88.160400390625 C 19.73538970947266 88.160400390625 0 68.42502593994141 0 44.0802001953125 C 0 19.73538970947266 19.73538970947266 0 44.0802001953125 0 Z" stroke="none" fill="#83793c"/>
                  </g>
                </g>
              </g>
            </g>
          </g>
        </g>
      </g>
      <g id="pagina-web" transform="translate(848.883 5446.708)">
        <g id="Group_1203615" data-name="Group 1203615" transform="translate(1.907 1.907)">
          <g id="Group_1203601" data-name="Group 1203601" transform="translate(11.791 48.978)">
            <path id="Path_1042541" data-name="Path 1042541" d="M45.838,59.628a1.827,1.827,0,0,1-1.814,1.814H16.814A1.819,1.819,0,0,1,15,59.628,3.623,3.623,0,0,1,18.628,56H42.21A3.627,3.627,0,0,1,45.838,59.628Z" transform="translate(-15 -56)" fill="#969faa"/>
          </g>
          <g id="Group_1203602" data-name="Group 1203602" transform="translate(18.14 43.536)">
            <path id="Path_1042542" data-name="Path 1042542" d="M40.14,55.442H22a6.119,6.119,0,0,0,2.721-5.088V50h12.7v.354A6.119,6.119,0,0,0,40.14,55.442Z" transform="translate(-22 -50)" fill="#aab2bd"/>
          </g>
          <g id="Group_1203603" data-name="Group 1203603" transform="translate(0 5.442)">
            <path id="Path_1042543" data-name="Path 1042543" d="M52.792,8H5.628A3.627,3.627,0,0,0,2,11.628V42.466a3.627,3.627,0,0,0,3.628,3.628H52.792a3.627,3.627,0,0,0,3.628-3.628V11.628A3.627,3.627,0,0,0,52.792,8Z" transform="translate(-2 -8)" fill="#ccd1d9"/>
          </g>
          <g id="Group_1203604" data-name="Group 1203604" transform="translate(3.628 9.07)">
            <path id="Path_1042544" data-name="Path 1042544" d="M9.628,13.814v25.4H6.907A.91.91,0,0,1,6,38.3v-25.4A.91.91,0,0,1,6.907,12H9.628Z" transform="translate(-6 -12)" fill="#69d6f4"/>
          </g>
          <g id="Group_1203605" data-name="Group 1203605" transform="translate(47.164 9.07)">
            <path id="Path_1042545" data-name="Path 1042545" d="M57.628,12.907V38.3a.91.91,0,0,1-.907.907H54V12h2.721A.91.91,0,0,1,57.628,12.907Z" transform="translate(-54 -12)" fill="#69d6f4"/>
          </g>
          <g id="Group_1203606" data-name="Group 1203606" transform="translate(7.256)">
            <path id="Path_1042546" data-name="Path 1042546" d="M49.908,11.07v1.814H10V3.814A1.819,1.819,0,0,1,11.814,2h36.28a1.819,1.819,0,0,1,1.814,1.814V11.07Z" transform="translate(-10 -2)" fill="#b4dd7f"/>
          </g>
          <g id="Group_1203607" data-name="Group 1203607" transform="translate(10.884 3.628)">
            <path id="Path_1042547" data-name="Path 1042547" d="M14,6h3.628V9.628H14Z" transform="translate(-14 -6)" fill="#e6e9ed"/>
          </g>
          <g id="Group_1203608" data-name="Group 1203608" transform="translate(18.14 3.628)">
            <path id="Path_1042548" data-name="Path 1042548" d="M22,6h3.628V9.628H22Z" transform="translate(-22 -6)" fill="#e6e9ed"/>
          </g>
          <g id="Group_1203609" data-name="Group 1203609" transform="translate(25.396 3.628)">
            <path id="Path_1042549" data-name="Path 1042549" d="M30,6h3.628V9.628H30Z" transform="translate(-30 -6)" fill="#e6e9ed"/>
          </g>
          <g id="Group_1203610" data-name="Group 1203610" transform="translate(7.256 10.884)">
            <path id="Path_1042550" data-name="Path 1042550" d="M10,14H49.908V39.4H10Z" transform="translate(-10 -14)" fill="#e6e9ed"/>
          </g>
          <g id="Group_1203611" data-name="Group 1203611" transform="translate(32.652 14.512)">
            <path id="Path_1042551" data-name="Path 1042551" d="M44.83,18.771l4.054,6.485H38l4.054-6.485a1.634,1.634,0,0,1,2.775,0Z" transform="translate(-38 -18)" fill="#aab2bd"/>
          </g>
          <g id="Group_1203612" data-name="Group 1203612" transform="translate(32.652 21.768)">
            <path id="Path_1042552" data-name="Path 1042552" d="M38,26H48.884V40.512H38Z" transform="translate(-38 -26)" fill="#ff826e"/>
          </g>
          <g id="Group_1203613" data-name="Group 1203613" transform="translate(7.256 16.326)">
            <path id="Path_1042553" data-name="Path 1042553" d="M26.326,29.977v5.442L24,36.009a10.8,10.8,0,0,1-.7,1.669l1.261,2.277H13.628A7.256,7.256,0,1,0,10,26.413V20h6.349l.59,2.331a10.8,10.8,0,0,1,1.669.7L20.685,21.8l3.846,3.846L23.3,27.719a10.8,10.8,0,0,1,.7,1.669Z" transform="translate(-10 -20)" fill="#ffc729"/>
          </g>
          <g id="Group_1203614" data-name="Group 1203614" transform="translate(7.256 21.768)">
            <path id="Path_1042554" data-name="Path 1042554" d="M13.628,26a7.256,7.256,0,1,1,0,14.512H10V33.256a3.628,3.628,0,1,0,3.628-3.628A3.627,3.627,0,0,0,10,33.256V26.97A7.23,7.23,0,0,1,13.628,26Z" transform="translate(-10 -26)" fill="#fcd770"/>
          </g>
        </g>
        <g id="Group_1203623" data-name="Group 1203623" transform="translate(1 1)">
          <g id="Group_1203616" data-name="Group 1203616">
            <path id="Path_1042555" data-name="Path 1042555" d="M15,45h1.814v1.814H15Z" transform="translate(-2.302 -5.092)"/>
            <path id="Path_1042556" data-name="Path 1042556" d="M7,45H8.814v1.814H7Z" transform="translate(-1.558 -5.092)"/>
            <path id="Path_1042557" data-name="Path 1042557" d="M11,45h1.814v1.814H11Z" transform="translate(-1.93 -5.092)"/>
            <path id="Path_1042558" data-name="Path 1042558" d="M52.7,6.442H49.978V3.721A2.724,2.724,0,0,0,47.257,1H10.977A2.724,2.724,0,0,0,8.256,3.721V6.442H5.535A4.54,4.54,0,0,0,1,10.977V41.815A4.54,4.54,0,0,0,5.535,46.35H21.827a5.177,5.177,0,0,1-2.082,3.628H17.326a4.54,4.54,0,0,0-4.535,4.535,2.724,2.724,0,0,0,2.721,2.721h27.21a2.724,2.724,0,0,0,2.721-2.721,4.54,4.54,0,0,0-4.535-4.535H38.49a5.177,5.177,0,0,1-2.082-3.628H52.7a4.54,4.54,0,0,0,4.535-4.535V10.977A4.54,4.54,0,0,0,52.7,6.442ZM8.256,37.28H6.442v-25.4H8.256ZM10.07,13.7H48.164V37.28H10.07Zm39.908-1.814h1.814v25.4H49.978Zm-39-9.07h36.28a.908.908,0,0,1,.907.907v8.163H10.07V3.721A.908.908,0,0,1,10.977,2.814Zm32.652,51.7a.908.908,0,0,1-.907.907H15.512a.908.908,0,0,1-.907-.907,2.724,2.724,0,0,1,2.721-2.721H40.908A2.724,2.724,0,0,1,43.629,54.513Zm-7.682-4.535H22.287a6.981,6.981,0,0,0,1.353-3.628H34.593A6.99,6.99,0,0,0,35.947,49.978ZM55.42,41.815A2.724,2.724,0,0,1,52.7,44.536H5.535a2.724,2.724,0,0,1-2.721-2.721V10.977A2.724,2.724,0,0,1,5.535,8.256H8.256V10.07H6.442a1.816,1.816,0,0,0-1.814,1.814v25.4a1.816,1.816,0,0,0,1.814,1.814h45.35a1.816,1.816,0,0,0,1.814-1.814v-25.4a1.816,1.816,0,0,0-1.814-1.814H49.978V8.256H52.7a2.724,2.724,0,0,1,2.721,2.721Z" transform="translate(-1 -1)"/>
            <path id="Path_1042559" data-name="Path 1042559" d="M18.442,5H13v5.442h5.442ZM16.628,8.628H14.814V6.814h1.814Z" transform="translate(-2.116 -1.372)"/>
            <path id="Path_1042560" data-name="Path 1042560" d="M26.442,5H21v5.442h5.442ZM24.628,8.628H22.814V6.814h1.814Z" transform="translate(-2.86 -1.372)"/>
            <path id="Path_1042561" data-name="Path 1042561" d="M34.442,5H29v5.442h5.442ZM32.628,8.628H30.814V6.814h1.814Z" transform="translate(-3.604 -1.372)"/>
          </g>
          <g id="Group_1203617" data-name="Group 1203617" transform="translate(9.07 16.326)">
            <path id="Path_1042562" data-name="Path 1042562" d="M23.861,40.3l-1.5-2.7.224-.432a9.983,9.983,0,0,0,.639-1.526l.152-.479,2.135-.542V30.59l-2.135-.543-.152-.479a9.983,9.983,0,0,0-.639-1.526l-.232-.447,1.13-1.9-2.851-2.851-1.9,1.13-.446-.23a9.957,9.957,0,0,0-1.529-.639l-.479-.153-.541-2.136H11V19h6.147l.647,2.541c.288.108.58.229.867.363l2.258-1.342,4.845,4.845-1.341,2.258c.133.288.255.578.363.867l2.541.648v6.852l-2.541.647q-.165.442-.371.883l1.033,1.86Z" transform="translate(-11 -19)"/>
          </g>
          <g id="Group_1203618" data-name="Group 1203618" transform="translate(7.708 21.768)">
            <path id="Path_1042563" data-name="Path 1042563" d="M13.581,41.326V39.512a6.349,6.349,0,1,0-3.175-11.849L9.5,26.094a8.163,8.163,0,1,1,4.083,15.232Z" transform="translate(-9.498 -25)"/>
          </g>
          <g id="Group_1203619" data-name="Group 1203619" transform="translate(7.256 25.396)">
            <path id="Path_1042564" data-name="Path 1042564" d="M13.535,38.07a4.535,4.535,0,1,1,4.535-4.535A4.54,4.54,0,0,1,13.535,38.07Zm0-7.256a2.721,2.721,0,1,0,2.721,2.721A2.724,2.724,0,0,0,13.535,30.814Z" transform="translate(-9 -29)"/>
          </g>
          <g id="Group_1203620" data-name="Group 1203620" transform="translate(32.652 14.512)">
            <path id="Path_1042565" data-name="Path 1042565" d="M49.7,39.675H47.884V25.423l-3.916-6.267a.756.756,0,0,0-1.238,0l-3.916,6.267V39.675H37V24.9L41.192,18.2a2.543,2.543,0,0,1,4.314,0L49.7,24.9Z" transform="translate(-37 -17)"/>
          </g>
          <g id="Group_1203621" data-name="Group 1203621" transform="translate(33.559 21.768)">
            <path id="Path_1042566" data-name="Path 1042566" d="M38,25H48.884v1.814H38Z" transform="translate(-38 -25)"/>
          </g>
          <g id="Group_1203622" data-name="Group 1203622" transform="translate(38.094 25.396)">
            <path id="Path_1042567" data-name="Path 1042567" d="M44.814,38.07H43V36.256h1.814Zm0-3.628H43V32.628h1.814Zm0-3.628H43V29h1.814Z" transform="translate(-43 -29)"/>
          </g>
        </g>
      </g>
    </g>
  </g>
</svg>
