<svg xmlns="http://www.w3.org/2000/svg" xmlns:xlink="http://www.w3.org/1999/xlink" width="97.533" height="97.533" viewBox="0 0 97.533 97.533">
  <defs>
    <filter id="Path_982547" x="0" y="0" width="97.533" height="97.533" filterUnits="userSpaceOnUse">
      <feOffset dy="3" input="SourceAlpha"/>
      <feGaussianBlur stdDeviation="3" result="blur"/>
      <feFlood flood-opacity="0.161"/>
      <feComposite operator="in" in2="blur"/>
      <feComposite in="SourceGraphic"/>
    </filter>
  </defs>
  <g id="Group_1203848" data-name="Group 1203848" transform="translate(-500.967 -8149.672)">
    <g id="Group_1203681" data-name="Group 1203681" transform="translate(0 -74.53)">
      <g id="Group_1203347" data-name="Group 1203347" transform="translate(228.967 6819.2)">
        <g id="Group_1177900" data-name="Group 1177900" transform="translate(281 1411.003)">
          <g id="Group_1172010" data-name="Group 1172010" transform="translate(0)">
            <g id="Group_1171046" data-name="Group 1171046">
              <g id="Group_1148525" data-name="Group 1148525">
                <g transform="matrix(1, 0, 0, 1, -9, -6)" filter="url(#Path_982547)">
                  <g id="Path_982547-2" data-name="Path 982547" transform="translate(9 6)" fill="#fdfbec">
                    <path d="M 39.7666015625 78.033203125 C 34.59997940063477 78.033203125 29.58870124816895 77.02164459228516 24.87196731567383 75.02663421630859 C 20.31538963317871 73.099365234375 16.22284507751465 70.34000396728516 12.70802402496338 66.82518005371094 C 9.193202018737793 63.31035614013672 6.433835029602051 59.21781158447266 4.506568431854248 54.66123580932617 C 2.511557102203369 49.94449996948242 1.500001549720764 44.93322372436523 1.500001549720764 39.7666015625 C 1.500001549720764 34.59997940063477 2.511557102203369 29.58870124816895 4.506568431854248 24.87196731567383 C 6.433835029602051 20.31538963317871 9.193202018737793 16.22284507751465 12.70802402496338 12.70802402496338 C 16.22284507751465 9.193202018737793 20.31538963317871 6.433835029602051 24.87196731567383 4.506568431854248 C 29.58870124816895 2.511557102203369 34.59997940063477 1.500001549720764 39.7666015625 1.500001549720764 C 44.93322372436523 1.500001549720764 49.94449996948242 2.511557102203369 54.66123580932617 4.506568431854248 C 59.21781158447266 6.433835029602051 63.31035614013672 9.193202018737793 66.82518005371094 12.70802402496338 C 70.34000396728516 16.22284507751465 73.099365234375 20.31538963317871 75.02663421630859 24.87196731567383 C 77.02164459228516 29.58870124816895 78.033203125 34.59997940063477 78.033203125 39.7666015625 C 78.033203125 44.93322372436523 77.02164459228516 49.94449996948242 75.02663421630859 54.66123580932617 C 73.099365234375 59.21781158447266 70.34000396728516 63.31035614013672 66.82518005371094 66.82518005371094 C 63.31035614013672 70.34000396728516 59.21781158447266 73.099365234375 54.66123580932617 75.02663421630859 C 49.94449996948242 77.02164459228516 44.93322372436523 78.033203125 39.7666015625 78.033203125 Z" stroke="none"/>
                    <path d="M 39.7666015625 3 C 34.80181503295898 3 29.98714065551758 3.971687316894531 25.45630264282227 5.888076782226562 C 21.07851409912109 7.739715576171875 17.146240234375 10.39113616943359 13.76869201660156 13.76869201660156 C 10.39113616943359 17.146240234375 7.739715576171875 21.07851409912109 5.888076782226562 25.45630264282227 C 3.971687316894531 29.98714065551758 3 34.80181503295898 3 39.7666015625 C 3 44.73138809204102 3.971687316894531 49.54606628417969 5.888076782226562 54.076904296875 C 7.739715576171875 58.45468902587891 10.39113616943359 62.386962890625 13.76869201660156 65.76451110839844 C 17.146240234375 69.14206695556641 21.07851409912109 71.79348754882812 25.45630264282227 73.64512634277344 C 29.98714065551758 75.56151580810547 34.80181503295898 76.533203125 39.7666015625 76.533203125 C 44.73138809204102 76.533203125 49.54606628417969 75.56151580810547 54.076904296875 73.64512634277344 C 58.45468902587891 71.79348754882812 62.386962890625 69.14206695556641 65.76451110839844 65.76451110839844 C 69.14206695556641 62.386962890625 71.79348754882812 58.45468902587891 73.64512634277344 54.076904296875 C 75.56151580810547 49.54606628417969 76.533203125 44.73138809204102 76.533203125 39.7666015625 C 76.533203125 34.80181503295898 75.56151580810547 29.98714065551758 73.64512634277344 25.45630264282227 C 71.79348754882812 21.07851409912109 69.14206695556641 17.146240234375 65.76451110839844 13.76869201660156 C 62.386962890625 10.39113616943359 58.45468902587891 7.739715576171875 54.076904296875 5.888076782226562 C 49.54606628417969 3.971687316894531 44.73138809204102 3 39.7666015625 3 M 39.7666015625 0 C 61.72908782958984 0 79.533203125 17.80411529541016 79.533203125 39.7666015625 C 79.533203125 61.72908782958984 61.72908782958984 79.533203125 39.7666015625 79.533203125 C 17.80411529541016 79.533203125 0 61.72908782958984 0 39.7666015625 C 0 17.80411529541016 17.80411529541016 0 39.7666015625 0 Z" stroke="none" fill="#83793c"/>
                  </g>
                </g>
              </g>
            </g>
          </g>
        </g>
      </g>
      <g id="comunicacion-visual" transform="translate(523.147 8210.266)">
        <g id="Group_1203679" data-name="Group 1203679" transform="translate(0.779 37.735)">
          <g id="Group_1203678" data-name="Group 1203678" transform="translate(0 0)">
            <path id="Path_1043716" data-name="Path 1043716" d="M94.309,386.017h5.153l-4.3-9.448H81.938l-4.3,9.448h5.153L85.1,381.23a.988.988,0,0,1,.89-.559h5.124a.988.988,0,0,1,.89.559Z" transform="translate(-70.356 -342.078)" fill="#9ec8fc"/>
            <path id="Path_1043717" data-name="Path 1043717" d="M43.89,147.4H7.5V124.421a.784.784,0,0,1,.784-.784H43.106a.784.784,0,0,1,.784.784V147.4Z" transform="translate(-7.5 -115.414)" fill="#6cbff8"/>
            <path id="Path_1043718" data-name="Path 1043718" d="M322.568,123.637h-3.219a.784.784,0,0,1,.784.784V147.4h3.219V124.421A.784.784,0,0,0,322.568,123.637Z" transform="translate(-286.962 -115.414)" fill="#5fa7ee"/>
            <path id="Path_1043719" data-name="Path 1043719" d="M43.89,346.973H7.5v3.113a.784.784,0,0,0,.784.784H43.106a.784.784,0,0,0,.784-.784v-3.113Z" transform="translate(-7.5 -315.556)" fill="#ddebfd"/>
            <path id="Path_1043720" data-name="Path 1043720" d="M320.133,346.973v3.113a.784.784,0,0,1-.784.784h3.219a.784.784,0,0,0,.784-.784v-3.113Z" transform="translate(-286.962 -315.556)" fill="#bed9fd"/>
            <g id="Group_1203676" data-name="Group 1203676" transform="translate(9.425 17.214)">
              <path id="Path_1043721" data-name="Path 1043721" d="M107.025,210.21a11.09,11.09,0,0,0-8.558,3.87.923.923,0,0,0,0,1.177,11.4,11.4,0,0,0,17.116,0,.923.923,0,0,0,0-1.177A11.09,11.09,0,0,0,107.025,210.21Z" transform="translate(-98.256 -210.21)" fill="#ddebfd"/>
              <path id="Path_1043722" data-name="Path 1043722" d="M141.314,210.308a4.62,4.62,0,0,0,0,8.721,11.862,11.862,0,0,0,3.05,0,4.62,4.62,0,0,0,0-8.721,11.86,11.86,0,0,0-3.05,0Z" transform="translate(-134.069 -210.21)" fill="#407194"/>
            </g>
            <g id="Group_1203677" data-name="Group 1203677" transform="translate(30.899 22.365)">
              <path id="Path_1043723" data-name="Path 1043723" d="M305.078,260.577c-.319,5.435.769,9.192,6.83,8.525l2.411-2.411c.667-6.061-3.09-7.148-8.525-6.829A.762.762,0,0,0,305.078,260.577Z" transform="translate(-305.028 -259.812)" fill="#407194"/>
              <path id="Path_1043724" data-name="Path 1043724" d="M388.686,346.68l7.328,7.328a.519.519,0,0,0,.734,0l2.475-2.475a.519.519,0,0,0,0-.734l-7.328-7.328Z" transform="translate(-379.998 -334.783)" fill="#db387e"/>
              <path id="Path_1043725" data-name="Path 1043725" d="M354.7,314.577l-3.273-3.273a.753.753,0,0,1,0-1.065l4.022-4.022a.753.753,0,0,1,1.065,0l3.273,3.273a.753.753,0,0,1,0,1.065l-4.022,4.022A.753.753,0,0,1,354.7,314.577Z" transform="translate(-346.415 -301.2)" fill="#5392f9"/>
            </g>
            <path id="Path_1043726" data-name="Path 1043726" d="M336.943,44.456H321.63a1.941,1.941,0,0,0-1.94,1.941V57.331a1.937,1.937,0,0,0,1.092,1.743.937.937,0,0,1,.54.838v2.439a.609.609,0,0,0,1.055.415l2.769-2.975a1.63,1.63,0,0,1,1.193-.52h10.6a1.94,1.94,0,0,0,1.94-1.94V46.4A1.941,1.941,0,0,0,336.943,44.456Z" transform="translate(-287.268 -44.456)" fill="#eec06b"/>
            <path id="Path_1043727" data-name="Path 1043727" d="M461.619,44.456h-2.8a1.941,1.941,0,0,1,1.941,1.94V57.331a1.94,1.94,0,0,1-1.941,1.941h2.8a1.941,1.941,0,0,0,1.941-1.941V46.4A1.941,1.941,0,0,0,461.619,44.456Z" transform="translate(-411.944 -44.456)" fill="#e9a761"/>
          </g>
        </g>
        <g id="Group_1203680" data-name="Group 1203680" transform="translate(0 36.956)">
          <path id="Path_1043728" data-name="Path 1043728" d="M91.144,206.862a1.7,1.7,0,0,0,0,2.173,12.175,12.175,0,0,0,18.314,0,1.7,1.7,0,0,0,0-2.173,12.175,12.175,0,0,0-18.314,0Zm17.116,1a.144.144,0,0,1,0,.182,9.714,9.714,0,0,1-3.238,2.526,5.388,5.388,0,0,0,0-5.233A9.711,9.711,0,0,1,108.259,207.857Zm-6.623-3.509a3.843,3.843,0,0,1,0,7.2,11.214,11.214,0,0,1-2.67,0,3.843,3.843,0,0,1,0-7.2A11.211,11.211,0,0,1,101.636,204.348Zm-9.294,3.509a9.713,9.713,0,0,1,3.238-2.526,5.388,5.388,0,0,0,0,5.233,9.714,9.714,0,0,1-3.238-2.526A.144.144,0,0,1,92.342,207.857Z" transform="translate(-81.327 -185.496)"/>
          <path id="Path_1043729" data-name="Path 1043729" d="M176.759,166.6v-.757a.779.779,0,0,0-1.558,0v.757a.779.779,0,0,0,1.558,0Z" transform="translate(-157.006 -151.756)"/>
          <path id="Path_1043730" data-name="Path 1043730" d="M231.13,179.96l.31-.31a.779.779,0,1,0-1.1-1.1l-.31.31a.779.779,0,0,0,1.1,1.1Z" transform="translate(-205.935 -163.64)"/>
          <path id="Path_1043731" data-name="Path 1043731" d="M119.261,179.96a.779.779,0,0,0,0-1.1l-.31-.31a.779.779,0,1,0-1.1,1.1l.31.31A.779.779,0,0,0,119.261,179.96Z" transform="translate(-105.406 -163.64)"/>
          <path id="Path_1043732" data-name="Path 1043732" d="M368.216,74.208h-9.741a.779.779,0,0,0,0,1.558h9.741a.779.779,0,0,0,0-1.558Z" transform="translate(-320.548 -70.339)"/>
          <path id="Path_1043733" data-name="Path 1043733" d="M368.216,108.286h-9.741a.779.779,0,0,0,0,1.558h9.741a.779.779,0,0,0,0-1.558Z" transform="translate(-320.548 -100.878)"/>
          <path id="Path_1043734" data-name="Path 1043734" d="M363.195,142.364h-4.721a.779.779,0,1,0,0,1.558h4.721a.779.779,0,1,0,0-1.558Z" transform="translate(-320.547 -131.417)"/>
          <path id="Path_1043735" data-name="Path 1043735" d="M50.453,36.956H35.141a2.722,2.722,0,0,0-2.719,2.719v5.5H1.563A1.565,1.565,0,0,0,0,46.743v5.041a.78.78,0,0,0,1.56,0V46.737H32.422V50.61a2.7,2.7,0,0,0,1.531,2.444.165.165,0,0,1,.1.138v2.439a1.386,1.386,0,0,0,2.336,1.011v2.833a19.851,19.851,0,0,0-3.994-.1,1.539,1.539,0,0,0-1.446,1.448c-.159,2.7-.042,5.68,1.53,7.553H1.558V55.419a.779.779,0,0,0-1.558,0V72.266a1.565,1.565,0,0,0,1.563,1.563h9.214L7.562,80.9H3.625a.779.779,0,1,0,0,1.558h30.7a.779.779,0,0,0,0-1.558H30.386l-3.215-7.067h9.214a1.564,1.564,0,0,0,1.538-1.294l1.494,1.494a1.528,1.528,0,0,0,2.012.133L42.466,75.2a.779.779,0,0,0,1.1-1.1l-1.027-1.027,2.107-2.107,5.52,5.521-2.107,2.108-1.924-1.924a.779.779,0,0,0-1.1,1.1l2.109,2.109a1.3,1.3,0,0,0,1.834,0L51.452,77.4a1.3,1.3,0,0,0,0-1.837l-5.714-5.715a1.529,1.529,0,0,0-.134-2.012l-3.273-3.273a1.522,1.522,0,0,0-.624-.377,5.158,5.158,0,0,0-3.761-4.359V54.975L39.227,53.6a.854.854,0,0,1,.623-.271h10.6a2.723,2.723,0,0,0,2.72-2.72V39.676a2.723,2.723,0,0,0-2.72-2.72Zm-36,43.939,1.767-3.669a.212.212,0,0,1,.189-.12h5.124a.21.21,0,0,1,.188.119l1.768,3.67H14.456Zm14.219,0H25.221L23.128,76.55a1.775,1.775,0,0,0-1.592-1H16.412a1.778,1.778,0,0,0-1.592,1L12.727,80.9H9.273l3.215-7.067H25.46Zm7.71-8.627H1.558V69.931H34.9a6.816,6.816,0,0,0,.869.2,1.521,1.521,0,0,0,.377.624l.241.245Zm8.1-3.346L40.5,72.908l-3.236-3.236,3.986-3.986Zm-4.3-4.374-.02.018-4.022,4.022-.019.021a3.608,3.608,0,0,1-3-2.131,11.909,11.909,0,0,1-.618-5.552,12.5,12.5,0,0,1,5.551.618A3.608,3.608,0,0,1,40.187,64.548ZM51.615,50.61a1.163,1.163,0,0,1-1.162,1.162H39.85a2.416,2.416,0,0,0-1.763.768L35.612,55.2V53.192a1.707,1.707,0,0,0-.979-1.539,1.152,1.152,0,0,1-.654-1.043V39.675a1.163,1.163,0,0,1,1.162-1.162H50.453a1.163,1.163,0,0,1,1.162,1.162Z" transform="translate(0 -36.956)"/>
        </g>
      </g>
    </g>
  </g>
</svg>
