<svg xmlns="http://www.w3.org/2000/svg" xmlns:xlink="http://www.w3.org/1999/xlink" width="113" height="113" viewBox="0 0 113 113">
  <defs>
    <filter id="Path_982547" x="0" y="0" width="113" height="113" filterUnits="userSpaceOnUse">
      <feOffset dy="3" input="SourceAlpha"/>
      <feGaussianBlur stdDeviation="3" result="blur"/>
      <feFlood flood-opacity="0.161"/>
      <feComposite operator="in" in2="blur"/>
      <feComposite in="SourceGraphic"/>
    </filter>
  </defs>
  <g id="Group_1203803" data-name="Group 1203803" transform="translate(-743 -2800)">
    <g id="Group_1203572" data-name="Group 1203572">
      <g id="Group_1202425" data-name="Group 1202425" transform="translate(-0.25 1464)">
        <g id="Group_1178324" data-name="Group 1178324" transform="translate(0 424)">
          <g id="Group_1177680" data-name="Group 1177680" transform="translate(752.25 918)">
            <g id="Group_1172010" data-name="Group 1172010">
              <g id="Group_1171046" data-name="Group 1171046">
                <g id="Group_1148525" data-name="Group 1148525">
                  <g transform="matrix(1, 0, 0, 1, -9, -6)" filter="url(#Path_982547)">
                    <g id="Path_982547-2" data-name="Path 982547" transform="translate(9 6)" fill="#edf3fc">
                      <path d="M 47.5 93.5 C 41.28937149047852 93.5 35.26533508300781 92.28397369384766 29.59518623352051 89.88570404052734 C 24.11771965026855 87.56893157958984 19.19813346862793 84.25196075439453 14.97309303283691 80.02691650390625 C 10.74804019927979 75.80186462402344 7.431066513061523 70.88229370117188 5.114293098449707 65.40481567382812 C 2.716026782989502 59.73468017578125 1.5 53.71062850952148 1.5 47.5 C 1.5 41.28937149047852 2.716026782989502 35.26533508300781 5.114293098449707 29.59518623352051 C 7.431066513061523 24.11771965026855 10.74804019927979 19.19813346862793 14.97309303283691 14.97309303283691 C 19.19813346862793 10.74804019927979 24.11771965026855 7.431066513061523 29.59518623352051 5.114293098449707 C 35.26533508300781 2.716026782989502 41.28937149047852 1.5 47.5 1.5 C 53.71062850952148 1.5 59.73468017578125 2.716026782989502 65.40481567382812 5.114293098449707 C 70.88229370117188 7.431066513061523 75.80186462402344 10.74804019927979 80.02691650390625 14.97309303283691 C 84.25196075439453 19.19813346862793 87.56893157958984 24.11771965026855 89.88570404052734 29.59518623352051 C 92.28397369384766 35.26533508300781 93.5 41.28937149047852 93.5 47.5 C 93.5 53.71062850952148 92.28397369384766 59.73468017578125 89.88570404052734 65.40481567382812 C 87.56893157958984 70.88229370117188 84.25196075439453 75.80186462402344 80.02691650390625 80.02691650390625 C 75.80186462402344 84.25196075439453 70.88229370117188 87.56893157958984 65.40481567382812 89.88570404052734 C 59.73468017578125 92.28397369384766 53.71062850952148 93.5 47.5 93.5 Z" stroke="none"/>
                      <path d="M 47.5 3 C 41.49121475219727 3 35.66376876831055 4.176155090332031 30.17950439453125 6.495796203613281 C 24.88084411621094 8.736953735351562 20.12152099609375 11.94598388671875 16.03375244140625 16.03375244140625 C 11.94598388671875 20.12152099609375 8.736953735351562 24.88084411621094 6.495796203613281 30.17950439453125 C 4.176155090332031 35.66376876831055 3 41.49121475219727 3 47.5 C 3 53.50878524780273 4.176155090332031 59.33623123168945 6.495796203613281 64.82049560546875 C 8.736953735351562 70.11915588378906 11.94598388671875 74.87847900390625 16.03375244140625 78.96624755859375 C 20.12152099609375 83.05401611328125 24.88084411621094 86.26304626464844 30.17950439453125 88.50419616699219 C 35.66376876831055 90.82384490966797 41.49121475219727 92 47.5 92 C 53.50878524780273 92 59.33623123168945 90.82384490966797 64.82049560546875 88.50419616699219 C 70.11915588378906 86.26304626464844 74.87847900390625 83.05401611328125 78.96624755859375 78.96624755859375 C 83.05401611328125 74.87847900390625 86.26304626464844 70.11915588378906 88.50419616699219 64.82049560546875 C 90.82384490966797 59.33623123168945 92 53.50878524780273 92 47.5 C 92 41.49121475219727 90.82384490966797 35.66376876831055 88.50419616699219 30.17950439453125 C 86.26304626464844 24.88084411621094 83.05401611328125 20.12152099609375 78.96624755859375 16.03375244140625 C 74.87847900390625 11.94598388671875 70.11915588378906 8.736953735351562 64.82049560546875 6.495796203613281 C 59.33623123168945 4.176155090332031 53.50878524780273 3 47.5 3 M 47.5 0 C 73.7335205078125 0 95 21.2664794921875 95 47.5 C 95 73.7335205078125 73.7335205078125 95 47.5 95 C 21.2664794921875 95 0 73.7335205078125 0 47.5 C 0 21.2664794921875 21.2664794921875 0 47.5 0 Z" stroke="none" fill="#5692e8"/>
                    </g>
                  </g>
                </g>
              </g>
            </g>
          </g>
        </g>
      </g>
      <g id="educacion-virtual" transform="translate(771.354 2804.579)">
        <g id="Group_1203570" data-name="Group 1203570" transform="translate(0.839 23.669)">
          <path id="Path_1042409" data-name="Path 1042409" d="M63.113,34.4V76.759a4.074,4.074,0,0,1-4.075,4.075H11.575A4.074,4.074,0,0,1,7.5,76.759V38.514l9.493-1.543c0-2.25-7.669-3.36-5.418-3.36l17.9-3.282H59.038A4.074,4.074,0,0,1,63.113,34.4Z" transform="translate(-7.5 -30.33)" fill="#d9b1ee"/>
          <path id="Path_1042410" data-name="Path 1042410" d="M15.955,138.356h-4.38A4.074,4.074,0,0,1,7.5,134.281V96.037l5.764-.937c-.787.493-1.384.937-1.384.937v38.244A4.074,4.074,0,0,0,15.955,138.356Z" transform="translate(-7.5 -87.852)" fill="#cb97e7"/>
          <path id="Path_1042411" data-name="Path 1042411" d="M29.472,30.33l-2.567,6.122a3.362,3.362,0,0,1-3.1,2.062H7.5V34.4a4.074,4.074,0,0,1,4.075-4.074Z" transform="translate(-7.5 -30.33)" fill="#9be69d"/>
          <path id="Path_1042412" data-name="Path 1042412" d="M15.955,30.33A4.074,4.074,0,0,0,11.88,34.4v4.11H7.5V34.4a4.074,4.074,0,0,1,4.075-4.074Z" transform="translate(-7.5 -30.33)" fill="#6fd7a3"/>
          <path id="Path_1042413" data-name="Path 1042413" d="M40.187,168.738a2.687,2.687,0,0,1-2.687-2.687V135.776a2.686,2.686,0,0,1,2.686-2.686H83.713a2.7,2.7,0,0,1,2.687,2.687v30.275a2.687,2.687,0,0,1-2.687,2.687H40.187Z" transform="translate(-34.143 -121.591)" fill="#e8edf2"/>
          <circle id="Ellipse_12586" data-name="Ellipse 12586" cx="1.99" cy="1.99" r="1.99" transform="translate(48.095 2.661)" fill="#fe646f"/>
          <circle id="Ellipse_12587" data-name="Ellipse 12587" cx="1.99" cy="1.99" r="1.99" transform="translate(41.381 2.661)" fill="#fe646f"/>
          <g id="Group_1203569" data-name="Group 1203569" transform="translate(10.251 15.19)">
            <path id="Path_1042414" data-name="Path 1042414" d="M199.749,214.1h-14.07a.939.939,0,0,1-.939-.939v-10.4h15.948v10.4A.939.939,0,0,1,199.749,214.1Z" transform="translate(-175.158 -198.661)" fill="#596c76"/>
            <path id="Path_1042415" data-name="Path 1042415" d="M191.082,214.1h-5.4a.939.939,0,0,1-.939-.939v-10.4h5.4v10.4A.938.938,0,0,0,191.082,214.1Z" transform="translate(-175.158 -198.663)" fill="#465a61"/>
            <path id="Path_1042416" data-name="Path 1042416" d="M132.729,194.063H100.6a1.493,1.493,0,1,1,0-2.986h32.125a1.493,1.493,0,1,1,0,2.986Z" transform="translate(-99.111 -188.28)" fill="#7a8c98"/>
            <path id="Path_1042417" data-name="Path 1042417" d="M106.007,194.068h-5.4a1.493,1.493,0,0,1,0-2.987h5.4a1.493,1.493,0,0,0,0,2.987Z" transform="translate(-99.111 -188.283)" fill="#596c76"/>
            <path id="Path_1042418" data-name="Path 1042418" d="M242.881,182.534a1.429,1.429,0,0,1-1.373-1.445v-9.444a2.77,2.77,0,0,0-2.77-2.77H228.457a1.429,1.429,0,0,1-1.445-1.373,1.4,1.4,0,0,1,1.4-1.425h10.757a5.139,5.139,0,0,1,5.139,5.139v9.919A1.4,1.4,0,0,1,242.881,182.534Z" transform="translate(-212.7 -166.077)" fill="#03bed7"/>
            <path id="Path_1042419" data-name="Path 1042419" d="M346.654,299.441h-4.345a.9.9,0,0,1-.851-1.174l1.791-5.467h2.464l1.791,5.467A.9.9,0,0,1,346.654,299.441Z" transform="translate(-314.3 -278.62)" fill="#ffd15b"/>
            <circle id="Ellipse_12588" data-name="Ellipse 12588" cx="2.571" cy="2.571" r="2.571" transform="translate(27.611 11.103)" fill="#ffe177"/>
          </g>
        </g>
        <g id="Group_1203571" data-name="Group 1203571" transform="translate(0 22.83)">
          <path id="Path_1042420" data-name="Path 1042420" d="M52.377,22.83H4.915A4.92,4.92,0,0,0,0,27.743V70.1a4.92,4.92,0,0,0,4.915,4.915H39.309a.839.839,0,0,0,0-1.678H4.915A3.24,3.24,0,0,1,1.678,70.1V32.693H17.145a4.191,4.191,0,0,0,3.873-2.577l2.351-5.607H52.377a3.239,3.239,0,0,1,3.236,3.235V70.1a3.24,3.24,0,0,1-3.236,3.236H43.2a.839.839,0,0,0,0,1.678h9.174A4.92,4.92,0,0,0,57.292,70.1V27.743a4.92,4.92,0,0,0-4.915-4.913ZM19.471,29.467a2.516,2.516,0,0,1-2.326,1.548H1.678V27.743a3.239,3.239,0,0,1,3.236-3.235H21.55Z" transform="translate(0 -22.83)"/>
          <path id="Path_1042421" data-name="Path 1042421" d="M30.839,142.739a.839.839,0,0,0-.839.839v15.812a3.53,3.53,0,0,0,3.526,3.526H77.052a3.53,3.53,0,0,0,3.526-3.526V129.116a3.53,3.53,0,0,0-3.526-3.526H33.525A3.529,3.529,0,0,0,30,129.115v10.547a.839.839,0,0,0,1.678,0V129.115a1.848,1.848,0,0,1,1.846-1.846H77.052a1.85,1.85,0,0,1,1.847,1.847v30.275a1.849,1.849,0,0,1-1.847,1.847H33.526a1.849,1.849,0,0,1-1.847-1.847V143.579A.839.839,0,0,0,30.839,142.739Z" transform="translate(-26.643 -114.091)"/>
          <path id="Path_1042422" data-name="Path 1042422" d="M435.471,49.438a2.83,2.83,0,1,0-2.83,2.83A2.833,2.833,0,0,0,435.471,49.438Zm-3.981,0a1.151,1.151,0,1,1,1.151,1.151A1.152,1.152,0,0,1,431.49,49.438Z" transform="translate(-381.717 -43.947)"/>
          <path id="Path_1042423" data-name="Path 1042423" d="M375.471,49.438a2.83,2.83,0,1,0-2.83,2.83A2.833,2.833,0,0,0,375.471,49.438Zm-3.981,0a1.151,1.151,0,1,1,1.151,1.151A1.152,1.152,0,0,1,371.49,49.438Z" transform="translate(-328.431 -43.947)"/>
          <path id="Path_1042424" data-name="Path 1042424" d="M131.358,61.078h2.212a.839.839,0,0,0,0-1.678h-2.212a.839.839,0,1,0,0,1.678Z" transform="translate(-115.914 -55.308)"/>
          <path id="Path_1042425" data-name="Path 1042425" d="M92.295,162.058a2.332,2.332,0,0,0,1.647,3.983h7.25v7.879a1.78,1.78,0,0,0,1.778,1.778h14.07a1.78,1.78,0,0,0,1.778-1.778v-7.879h1.6V170.5a3.4,3.4,0,0,0-.439,4.734l-1.169,3.571a1.734,1.734,0,0,0,1.648,2.275H124.8a1.735,1.735,0,0,0,1.648-2.274l-1.17-3.571a3.4,3.4,0,0,0-.386-4.688v-4.5h1.173a2.333,2.333,0,0,0,0-4.665h-2.093a5.978,5.978,0,0,0-5.058-2.8h-1.55a.839.839,0,1,0,0,1.678h1.55a4.305,4.305,0,0,1,4.3,4.3v5.175a3.382,3.382,0,0,0-1.119-.009v-4.737a3.614,3.614,0,0,0-3.61-3.61H108.2a.6.6,0,0,1-.6-.549.559.559,0,0,1,.56-.57h5.291a.839.839,0,0,0,0-1.678H108.16a2.238,2.238,0,0,0-2.238,2.28,2.158,2.158,0,0,0,.075.518H93.942A2.315,2.315,0,0,0,92.295,162.058Zm33.773,1a.654.654,0,0,1,0,1.308H124.89a5.96,5.96,0,0,0-.187-1.308Zm-1.22,16.322a.05.05,0,0,1-.045.023h-4.345a.051.051,0,0,1-.045-.023.05.05,0,0,1-.007-.05l1-3.054a3.4,3.4,0,0,0,2.45,0l1,3.053A.052.052,0,0,1,124.848,179.377Zm-.486-6.286a1.731,1.731,0,1,1-1.731-1.731A1.733,1.733,0,0,1,124.362,173.091Zm-7.222.829a.1.1,0,0,1-.1.1H102.97a.1.1,0,0,1-.1-.1v-7.879h14.269Zm3.174-9.557H93.942a.655.655,0,0,1-.653-.655.655.655,0,0,1,.653-.653h24.546A1.933,1.933,0,0,1,120.314,164.363Z" transform="translate(-81.359 -143.389)"/>
          <path id="Path_1042426" data-name="Path 1042426" d="M75.666,380.03a.839.839,0,0,0,.839.839h38.679a.839.839,0,0,0,0-1.678H76.505a.839.839,0,0,0-.839.839Z" transform="translate(-67.199 -339.315)"/>
          <path id="Path_1042427" data-name="Path 1042427" d="M156.182,408.734a.839.839,0,0,0,0,1.678H177.03a.839.839,0,1,0,0-1.678Z" transform="translate(-137.96 -365.552)"/>
        </g>
      </g>
    </g>
  </g>
</svg>
