<svg xmlns="http://www.w3.org/2000/svg" xmlns:xlink="http://www.w3.org/1999/xlink" width="106.16" height="106.16" viewBox="0 0 106.16 106.16">
  <defs>
    <filter id="Path_982547" x="0" y="0" width="106.16" height="106.16" filterUnits="userSpaceOnUse">
      <feOffset dy="3" input="SourceAlpha"/>
      <feGaussianBlur stdDeviation="3" result="blur"/>
      <feFlood flood-opacity="0.161"/>
      <feComposite operator="in" in2="blur"/>
      <feComposite in="SourceGraphic"/>
    </filter>
  </defs>
  <g id="Group_1203839" data-name="Group 1203839" transform="translate(-190.92 -6505.348)">
    <g id="Group_1203672" data-name="Group 1203672" transform="translate(0 -74.53)">
      <g id="Group_1203344" data-name="Group 1203344" transform="translate(-81.08 5174.875)">
        <g id="Group_1177900" data-name="Group 1177900" transform="translate(281 1411.003)">
          <g id="Group_1172010" data-name="Group 1172010" transform="translate(0)">
            <g id="Group_1171046" data-name="Group 1171046">
              <g id="Group_1148525" data-name="Group 1148525">
                <g transform="matrix(1, 0, 0, 1, -9, -6)" filter="url(#Path_982547)">
                  <g id="Path_982547-2" data-name="Path 982547" transform="translate(9 6)" fill="#fdfbec">
                    <path d="M 44.0802001953125 86.660400390625 C 38.33124923706055 86.660400390625 32.75506210327148 85.53479766845703 27.50652503967285 83.31484985351562 C 22.43628692626953 81.17032623291016 17.88242530822754 78.09992218017578 13.97144985198975 74.18894958496094 C 10.06047534942627 70.27797698974609 6.99007511138916 65.72411346435547 4.845550060272217 60.65387344360352 C 2.625600099563599 55.40533828735352 1.500000238418579 49.82915115356445 1.500000238418579 44.0802001953125 C 1.500000238418579 38.33124923706055 2.625600099563599 32.75506210327148 4.845550060272217 27.50652503967285 C 6.99007511138916 22.43628692626953 10.06047534942627 17.88242530822754 13.97144985198975 13.97144985198975 C 17.88242530822754 10.06047534942627 22.43628692626953 6.99007511138916 27.50652503967285 4.845550060272217 C 32.75506210327148 2.625600099563599 38.33124923706055 1.500000238418579 44.0802001953125 1.500000238418579 C 49.82915115356445 1.500000238418579 55.40533828735352 2.625600099563599 60.65387344360352 4.845550060272217 C 65.72411346435547 6.99007511138916 70.27797698974609 10.06047534942627 74.18894958496094 13.97144985198975 C 78.09992218017578 17.88242530822754 81.17032623291016 22.43628692626953 83.31484985351562 27.50652503967285 C 85.53479766845703 32.75506210327148 86.660400390625 38.33124923706055 86.660400390625 44.0802001953125 C 86.660400390625 49.82915115356445 85.53479766845703 55.40533828735352 83.31484985351562 60.65387344360352 C 81.17032623291016 65.72411346435547 78.09992218017578 70.27797698974609 74.18894958496094 74.18894958496094 C 70.27797698974609 78.09992218017578 65.72411346435547 81.17032623291016 60.65387344360352 83.31484985351562 C 55.40533828735352 85.53479766845703 49.82915115356445 86.660400390625 44.0802001953125 86.660400390625 Z" stroke="none"/>
                    <path d="M 44.0802001953125 3 C 38.53308486938477 3 33.15349960327148 4.085746765136719 28.09085845947266 6.227058410644531 C 23.19941711425781 8.29595947265625 18.80581665039062 11.25841522216797 15.03211212158203 15.03211212158203 C 11.25841522216797 18.80581665039062 8.29595947265625 23.19941711425781 6.227058410644531 28.09085845947266 C 4.085746765136719 33.15349960327148 3 38.53308486938477 3 44.0802001953125 C 3 49.62731552124023 4.085746765136719 55.00691604614258 6.227058410644531 60.06954193115234 C 8.29595947265625 64.96098327636719 11.25841522216797 69.35458374023438 15.03211212158203 73.12828826904297 C 18.80581665039062 76.90198516845703 23.19941711425781 79.86444091796875 28.09085845947266 81.93334197998047 C 33.15349960327148 84.07466125488281 38.53308486938477 85.160400390625 44.0802001953125 85.160400390625 C 49.62731552124023 85.160400390625 55.00691604614258 84.07466125488281 60.06954193115234 81.93334197998047 C 64.96099853515625 79.86444091796875 69.35458374023438 76.90198516845703 73.12828826904297 73.12828826904297 C 76.90198516845703 69.35458374023438 79.86444091796875 64.96099853515625 81.93334197998047 60.06954193115234 C 84.07466125488281 55.00691604614258 85.160400390625 49.62731552124023 85.160400390625 44.0802001953125 C 85.160400390625 38.53308486938477 84.07466125488281 33.15349960327148 81.93334197998047 28.09085845947266 C 79.86444091796875 23.19941711425781 76.90198516845703 18.80581665039062 73.12828826904297 15.03211212158203 C 69.35458374023438 11.25841522216797 64.96098327636719 8.29595947265625 60.06954193115234 6.227058410644531 C 55.00691604614258 4.085746765136719 49.62731552124023 3 44.0802001953125 3 M 44.0802001953125 0 C 68.42502593994141 0 88.160400390625 19.73538970947266 88.160400390625 44.0802001953125 C 88.160400390625 68.42502593994141 68.42502593994141 88.160400390625 44.0802001953125 88.160400390625 C 19.73538970947266 88.160400390625 0 68.42502593994141 0 44.0802001953125 C 0 19.73538970947266 19.73538970947266 0 44.0802001953125 0 Z" stroke="none" fill="#83793c"/>
                  </g>
                </g>
              </g>
            </g>
          </g>
        </g>
      </g>
      <g id="aprendizaje_2_" data-name="aprendizaje (2)" transform="translate(193.232 6598)">
        <g id="Group_1203670" data-name="Group 1203670" transform="translate(24.929 0.865)">
          <path id="Path_1043673" data-name="Path 1043673" d="M82.166,194.154a1.077,1.077,0,0,1,1.077,1.077V225.4a4.454,4.454,0,0,1-4.454,4.454H36.018a4.454,4.454,0,0,1-4.454-4.454V195.231a1.077,1.077,0,0,1,1.077-1.077Z" transform="translate(-31.564 -172.63)" fill="#b3e5ee"/>
          <path id="Path_1043674" data-name="Path 1043674" d="M59.879,194.154V224.6a3.658,3.658,0,0,0,3.653,3.654H101.49a3.658,3.658,0,0,0,3.653-3.654V194.154Z" transform="translate(-56.614 -172.63)" fill="#86d7e5"/>
          <path id="Path_1043675" data-name="Path 1043675" d="M119.615,175.283H80.795a.916.916,0,0,0-.916.917v27.546l12.51,4.569,7.816.9,18.732-3.381,1.593-2.087V176.2A.916.916,0,0,0,119.615,175.283Z" transform="translate(-74.308 -155.935)" fill="#f9f7f7"/>
          <path id="Path_1043676" data-name="Path 1043676" d="M248.639,175.283h1.73v33.969h-1.73Z" transform="translate(-223.607 -155.935)" fill="#f8f3f2"/>
          <path id="Path_1043677" data-name="Path 1043677" d="M163.57,175.283l5.073,7.9v.613a3,3,0,0,0,1.277,2.457v.963a3.66,3.66,0,0,0,3.656,3.656h1.338a3.66,3.66,0,0,0,3.656-3.656v-.963a3,3,0,0,0,1.277-2.457v-.613l5.073-7.9Z" transform="translate(-148.348 -155.935)" fill="#f8f3f2"/>
          <g id="Group_1203668" data-name="Group 1203668" transform="translate(5.572)">
            <g id="Group_1203667" data-name="Group 1203667" transform="translate(0 19.348)">
              <g id="XMLID_248_">
                <g id="Group_1203666" data-name="Group 1203666">
                  <g id="Group_1203664" data-name="Group 1203664">
                    <path id="Path_1043678" data-name="Path 1043678" d="M84.68,204.717V175.283H80.795a.916.916,0,0,0-.916.917v27.546l4.957,1.81A2.354,2.354,0,0,1,84.68,204.717Z" transform="translate(-79.879 -175.283)" fill="#f8f3f2"/>
                  </g>
                  <g id="Group_1203665" data-name="Group 1203665" transform="translate(0 28.462)">
                    <path id="Path_1043679" data-name="Path 1043679" d="M100.2,427.571v.038H81.226a1.347,1.347,0,0,1-1.347-1.348V422.1H94.736A5.468,5.468,0,0,1,100.2,427.571Z" transform="translate(-79.879 -422.103)" fill="#f2eae7"/>
                    <path id="Path_1043680" data-name="Path 1043680" d="M276.465,422.1v4.158a1.347,1.347,0,0,1-1.347,1.348H256.139v-.038a5.468,5.468,0,0,1,5.468-5.468Z" transform="translate(-235.813 -422.103)" fill="#f2eae7"/>
                  </g>
                </g>
              </g>
            </g>
            <path id="Path_1043681" data-name="Path 1043681" d="M238.825,248.154h-5.19v3.527a1.926,1.926,0,0,0,1.926,1.926H236.9a1.926,1.926,0,0,0,1.926-1.926Z" transform="translate(-215.904 -220.403)" fill="#a59ca6"/>
            <path id="Path_1043682" data-name="Path 1043682" d="M238.825,248.154h-5.19v3.527a1.926,1.926,0,0,0,1.926,1.926H236.9a1.924,1.924,0,0,0,1.711-1.044,1.952,1.952,0,0,1-.226.014h-1.338a1.925,1.925,0,0,1-1.822-1.3.44.44,0,0,1,.416-.582h3.186v-2.537Z" transform="translate(-215.904 -220.403)" fill="#8f8390"/>
            <path id="Path_1043683" data-name="Path 1043683" d="M179.4,19A11.5,11.5,0,1,0,158.49,25.62l5.535,8.616v1.12a1.277,1.277,0,0,0,1.277,1.277h5.19a1.277,1.277,0,0,0,1.277-1.277v-1.12L177.3,25.62A11.448,11.448,0,0,0,179.4,19Z" transform="translate(-147.571 -7.499)" fill="#fbe88c"/>
            <path id="Path_1043684" data-name="Path 1043684" d="M163.341,27.089a12.665,12.665,0,0,1-2.19-7.155A12.353,12.353,0,0,1,170.529,7.8a11.5,11.5,0,0,0-12.038,17.819l5.535,8.616v1.12a1.277,1.277,0,0,0,1.277,1.277h3.287Z" transform="translate(-147.572 -7.5)" fill="#fbe372"/>
          </g>
          <g id="Group_1203669" data-name="Group 1203669" transform="translate(5.572 47.811)">
            <path id="Path_1043685" data-name="Path 1043685" d="M256.569,451.046a5.451,5.451,0,0,0-.431,2.131v.038h18.979a1.347,1.347,0,0,0,1.347-1.348v-.821H256.569Z" transform="translate(-235.812 -447.708)" fill="#ede2dd"/>
            <path id="Path_1043686" data-name="Path 1043686" d="M87.046,425.441a2.366,2.366,0,0,1-2.366-2.366V422.1h-4.8v4.158a1.347,1.347,0,0,0,1.347,1.348H100.2v-.038a5.451,5.451,0,0,0-.431-2.131Z" transform="translate(-79.879 -422.103)" fill="#ede2dd"/>
          </g>
        </g>
        <g id="Group_1203671" data-name="Group 1203671" transform="translate(24.064 0)">
          <path id="Path_1043687" data-name="Path 1043687" d="M75.531,169.961H72.017v-.395a1.783,1.783,0,0,0-1.781-1.781h-6.93a.865.865,0,0,0,0,1.73h6.93a.052.052,0,0,1,.052.052v10.545a.865.865,0,0,0,1.73,0v-8.421h3.514a.212.212,0,0,1,.212.212v30.173a3.593,3.593,0,0,1-3.589,3.589H29.383a3.593,3.593,0,0,1-3.589-3.589V171.9a.212.212,0,0,1,.212-.212h3.629v29.58a2.214,2.214,0,0,0,2.212,2.212H69.805a2.214,2.214,0,0,0,2.212-2.212V183.8a.865.865,0,1,0-1.73,0v12.446H56.294a6.315,6.315,0,0,0-4.6,1.991V187.05a.865.865,0,0,0-1.73,0v11.188a6.315,6.315,0,0,0-4.6-1.991h-3.93a.865.865,0,0,0,0,1.73h3.93a4.61,4.61,0,0,1,4.528,3.776H31.847a.483.483,0,0,1-.482-.482v-3.294h6.374a.865.865,0,0,0,0-1.73H31.365v-26.68a.052.052,0,0,1,.052-.052h6.93a.865.865,0,0,0,0-1.73h-6.93a1.783,1.783,0,0,0-1.781,1.781v.395H26.006a1.944,1.944,0,0,0-1.942,1.942v30.173a5.325,5.325,0,0,0,5.319,5.319h42.77a5.325,5.325,0,0,0,5.319-5.319V171.9a1.944,1.944,0,0,0-1.942-1.942ZM56.294,197.976H70.287v3.294a.483.483,0,0,1-.482.482H51.767a4.61,4.61,0,0,1,4.528-3.776Z" transform="translate(-24.064 -148.437)"/>
          <path id="Path_1043688" data-name="Path 1043688" d="M150.131,12.135a.866.866,0,0,0,.942-.78,10.637,10.637,0,1,1,19.289,7.133l-.021.031-5.534,8.616a.865.865,0,0,0-.137.467v1.12a.413.413,0,0,1-.412.412H164.2l.551-9.349h.985a2.56,2.56,0,0,0,2.557-2.557v-.1a2.557,2.557,0,0,0-5.109-.15l-.064,1.082h-3.033l-.064-1.082a2.557,2.557,0,0,0-5.109.15v.1a2.56,2.56,0,0,0,2.557,2.557h.985l.551,9.343a.412.412,0,0,1-.353-.406V27.6a.866.866,0,0,0-.137-.467l-5.535-8.616-.021-.031a10.538,10.538,0,0,1-1.665-3.729.865.865,0,0,0-1.686.388,12.26,12.26,0,0,0,1.927,4.322l5.388,8.387v.867a2.144,2.144,0,0,0,1.277,1.958v1.463a2.794,2.794,0,0,0,2.791,2.791h1.338a2.794,2.794,0,0,0,2.791-2.791V30.681a2.144,2.144,0,0,0,1.277-1.958v-.867l5.387-8.387a12.367,12.367,0,1,0-22.436-8.276.865.865,0,0,0,.78.942Zm14.78,4.941a.827.827,0,0,1,1.653.049v.1a.828.828,0,0,1-.827.827h-.883Zm-7.44.98a.828.828,0,0,1-.827-.827v-.1a.827.827,0,0,1,1.653-.049l.058.98Zm5.547,1.73-.551,9.349h-1.727l-.551-9.349Zm.373,12.358a1.062,1.062,0,0,1-1.061,1.061h-1.338a1.063,1.063,0,0,1-1.061-1.061V30.865h3.461v1.279Z" transform="translate(-134.9 0)"/>
          <path id="Path_1043689" data-name="Path 1043689" d="M380.875,30.97a.862.862,0,0,0,.57-.215l1.887-1.657a.865.865,0,1,0-1.141-1.3L380.3,29.455a.865.865,0,0,0,.571,1.515Z" transform="translate(-338.964 -24.403)"/>
          <path id="Path_1043690" data-name="Path 1043690" d="M380.3,90.562l1.887,1.657a.865.865,0,0,0,1.141-1.3l-1.887-1.657a.865.865,0,0,0-1.141,1.3Z" transform="translate(-338.964 -78.779)"/>
          <path id="Path_1043691" data-name="Path 1043691" d="M101.2,29.1l1.887,1.657a.865.865,0,1,0,1.141-1.3L102.338,27.8a.865.865,0,1,0-1.141,1.3Z" transform="translate(-92.042 -24.402)"/>
          <path id="Path_1043692" data-name="Path 1043692" d="M101.769,92.435a.862.862,0,0,0,.57-.215l1.887-1.657a.865.865,0,0,0-1.141-1.3L101.2,90.92a.865.865,0,0,0,.571,1.515Z" transform="translate(-92.043 -78.78)"/>
          <path id="Path_1043693" data-name="Path 1043693" d="M111.152,253.519a.865.865,0,0,0-.865-.865h-8.519a.865.865,0,1,0,0,1.73h8.519A.865.865,0,0,0,111.152,253.519Z" transform="translate(-92.042 -223.519)"/>
          <path id="Path_1043694" data-name="Path 1043694" d="M124.908,290.8h-9.592a.865.865,0,0,0,0,1.73h9.592a.865.865,0,0,0,0-1.73Z" transform="translate(-104.028 -257.27)"/>
          <path id="Path_1043695" data-name="Path 1043695" d="M124.908,327.346h-9.592a.865.865,0,0,0,0,1.73h9.592a.865.865,0,1,0,0-1.73Z" transform="translate(-104.028 -289.598)"/>
          <path id="Path_1043696" data-name="Path 1043696" d="M124.908,363.887h-9.592a.865.865,0,0,0,0,1.73h9.592a.865.865,0,1,0,0-1.73Z" transform="translate(-104.028 -321.925)"/>
          <path id="Path_1043697" data-name="Path 1043697" d="M332.745,253.519a.865.865,0,0,0-.865-.865h-8.519a.865.865,0,1,0,0,1.73h8.519A.865.865,0,0,0,332.745,253.519Z" transform="translate(-288.082 -223.519)"/>
          <path id="Path_1043698" data-name="Path 1043698" d="M310.1,290.8h-9.592a.865.865,0,0,0,0,1.73H310.1a.865.865,0,0,0,0-1.73Z" transform="translate(-267.868 -257.27)"/>
          <path id="Path_1043699" data-name="Path 1043699" d="M310.1,327.346h-9.592a.865.865,0,0,0,0,1.73H310.1a.865.865,0,0,0,0-1.73Z" transform="translate(-267.868 -289.598)"/>
          <path id="Path_1043700" data-name="Path 1043700" d="M310.1,363.887h-9.592a.865.865,0,0,0,0,1.73H310.1a.865.865,0,0,0,0-1.73Z" transform="translate(-267.868 -321.925)"/>
        </g>
      </g>
    </g>
  </g>
</svg>
