<svg xmlns="http://www.w3.org/2000/svg" xmlns:xlink="http://www.w3.org/1999/xlink" width="103" height="103" viewBox="0 0 103 103">
  <defs>
    <filter id="Trazado_978624" x="0" y="0" width="103" height="103" filterUnits="userSpaceOnUse">
      <feOffset dy="3" input="SourceAlpha"/>
      <feGaussianBlur stdDeviation="3" result="blur"/>
      <feFlood flood-opacity="0.161"/>
      <feComposite operator="in" in2="blur"/>
      <feComposite in="SourceGraphic"/>
    </filter>
  </defs>
  <g id="Grupo_1203109" data-name="Grupo 1203109" transform="translate(-171 -757)">
    <g id="Grupo_1176881" data-name="Grupo 1176881" transform="translate(0 -2109)">
      <g id="Grupo_1175148" data-name="Grupo 1175148" transform="translate(0 1580)">
        <g id="Grupo_1173798" data-name="Grupo 1173798" transform="translate(-3 -3520)">
          <g id="Grupo_1171925" data-name="Grupo 1171925" transform="translate(-22 -2246)">
            <g id="Grupo_1164524" data-name="Grupo 1164524" transform="translate(205 7058)">
              <g id="Grupo_1144123" data-name="Grupo 1144123">
                <g transform="matrix(1, 0, 0, 1, -9, -6)" filter="url(#Trazado_978624)">
                  <g id="Trazado_978624-2" data-name="Trazado 978624" transform="translate(9 6)" fill="#edf3fc">
                    <path d="M 42.5 83.5 C 36.96437835693359 83.5 31.59512901306152 82.41617584228516 26.54141235351562 80.27863311767578 C 21.65934181213379 78.21369171142578 17.27447128295898 75.25723266601562 13.50862312316895 71.49137878417969 C 9.742764472961426 67.72553253173828 6.786305904388428 63.34066009521484 4.721364498138428 58.45858764648438 C 2.583823442459106 53.40486907958984 1.5 48.03562164306641 1.5 42.5 C 1.5 36.96437835693359 2.583823442459106 31.59512901306152 4.721364498138428 26.54141235351562 C 6.786305904388428 21.65934181213379 9.742764472961426 17.27447128295898 13.50862312316895 13.50862312316895 C 17.27447128295898 9.742764472961426 21.65934181213379 6.786305904388428 26.54141235351562 4.721364498138428 C 31.59512901306152 2.583823442459106 36.96437835693359 1.5 42.5 1.5 C 48.03562164306641 1.5 53.40486907958984 2.583823442459106 58.45858764648438 4.721364498138428 C 63.34066009521484 6.786305904388428 67.72553253173828 9.742764472961426 71.49137878417969 13.50862312316895 C 75.25723266601562 17.27447128295898 78.21369171142578 21.65934181213379 80.27863311767578 26.54141235351562 C 82.41617584228516 31.59512901306152 83.5 36.96437835693359 83.5 42.5 C 83.5 48.03562164306641 82.41617584228516 53.40486907958984 80.27863311767578 58.45858764648438 C 78.21369171142578 63.34066009521484 75.25723266601562 67.72553253173828 71.49137878417969 71.49137878417969 C 67.72553253173828 75.25723266601562 63.34066009521484 78.21369171142578 58.45858764648438 80.27863311767578 C 53.40486907958984 82.41617584228516 48.03562164306641 83.5 42.5 83.5 Z" stroke="none"/>
                    <path d="M 42.5 3 C 37.16621398925781 3 31.99356079101562 4.043960571289062 27.125732421875 6.102882385253906 C 22.42246627807617 8.092185974121094 18.19785308837891 10.94070434570312 14.56928253173828 14.56928253173828 C 10.94070434570312 18.19785308837891 8.092185974121094 22.42246627807617 6.102882385253906 27.125732421875 C 4.043960571289062 31.99356079101562 3 37.16621398925781 3 42.5 C 3 47.83378601074219 4.043960571289062 53.00643920898438 6.102882385253906 57.87425231933594 C 8.092185974121094 62.57753372192383 10.94070434570312 66.80213165283203 14.56928253173828 70.43071746826172 C 18.19786834716797 74.05929565429688 22.42246627807617 76.90781402587891 27.125732421875 78.89711761474609 C 31.99356079101562 80.95603942871094 37.16621398925781 82 42.5 82 C 47.83378601074219 82 53.00642395019531 80.95603942871094 57.87425231933594 78.89711761474609 C 62.57753372192383 76.90781402587891 66.80213165283203 74.05929565429688 70.43071746826172 70.43071746826172 C 74.05929565429688 66.80213165283203 76.90781402587891 62.57753372192383 78.89711761474609 57.87425231933594 C 80.95603942871094 53.00642395019531 82 47.83378601074219 82 42.5 C 82 37.16621398925781 80.95603942871094 31.99356079101562 78.89711761474609 27.125732421875 C 76.90781402587891 22.42246627807617 74.05929565429688 18.19786834716797 70.43071746826172 14.56928253173828 C 66.80213165283203 10.94070434570312 62.57753372192383 8.092185974121094 57.87425231933594 6.102882385253906 C 53.00643920898438 4.043960571289062 47.83378601074219 3 42.5 3 M 42.5 0 C 65.97209167480469 0 85 19.02789306640625 85 42.5 C 85 65.97209167480469 65.97209167480469 85 42.5 85 C 19.02789306640625 85 0 65.97209167480469 0 42.5 C 0 19.02789306640625 19.02789306640625 0 42.5 0 Z" stroke="none" fill="#5692e8"/>
                  </g>
                </g>
              </g>
            </g>
          </g>
        </g>
      </g>
    </g>
    <g id="mente" transform="translate(133.05 775)">
      <path id="Trazado_1041479" data-name="Trazado 1041479" d="M99.631,21.778a11.525,11.525,0,0,0-.155-1.888.839.839,0,0,1,.337-.815l1.682-1.222a.844.844,0,0,0,.235-1.1L99.3,12.534a.844.844,0,0,0-1.074-.349l-1.9.847a.839.839,0,0,1-.875-.116,11.463,11.463,0,0,0-3.268-1.889.838.838,0,0,1-.536-.7l-.217-2.066a.844.844,0,0,0-.839-.756H85.72a.844.844,0,0,0-.839.756l-.217,2.066a.838.838,0,0,1-.536.7,11.463,11.463,0,0,0-3.268,1.889.839.839,0,0,1-.875.116l-1.9-.847a.844.844,0,0,0-1.074.349L74.577,16.75a.844.844,0,0,0,.235,1.1l1.682,1.221a.839.839,0,0,1,.337.815,11.569,11.569,0,0,0,0,3.775.839.839,0,0,1-.337.815L74.812,25.7a.844.844,0,0,0-.235,1.1l2.434,4.216a.844.844,0,0,0,1.074.349l1.9-.847a.839.839,0,0,1,.875.116,11.463,11.463,0,0,0,3.268,1.889.838.838,0,0,1,.536.7l.217,2.066a.844.844,0,0,0,.839.756h4.868a.844.844,0,0,0,.839-.756l.217-2.066a.838.838,0,0,1,.536-.7,11.463,11.463,0,0,0,3.268-1.889.839.839,0,0,1,.875-.116l1.9.847a.844.844,0,0,0,1.074-.349l2.434-4.216a.844.844,0,0,0-.235-1.1l-1.682-1.222a.839.839,0,0,1-.337-.815A11.551,11.551,0,0,0,99.631,21.778Z" transform="translate(-6.604 -6.597)" fill="#dfeaef"/>
      <g id="Grupo_1203108" data-name="Grupo 1203108" transform="translate(67.859 0.909)">
        <path id="Trazado_1041480" data-name="Trazado 1041480" d="M156.366,7.507a.843.843,0,0,0-.839.756l-.217,2.066a.838.838,0,0,1-.536.7,4.059,4.059,0,0,1-1.6.054c.046-.019.091-.036.138-.054a.838.838,0,0,0,.536-.7l.217-2.066a.843.843,0,0,1,.839-.756Z" transform="translate(-143.644 -7.507)" fill="#b4d0d5"/>
        <path id="Trazado_1041481" data-name="Trazado 1041481" d="M78.475,64.472l-2.434-4.216a.844.844,0,0,1,.235-1.1l1.682-1.221a.839.839,0,0,0,.337-.815,11.569,11.569,0,0,1,0-3.775.839.839,0,0,0-.337-.815L76.277,51.3a.844.844,0,0,1-.235-1.1l2.434-4.216a.842.842,0,0,1,.094-.132l-.486-.217a.844.844,0,0,0-1.074.349L74.576,50.2a.844.844,0,0,0,.235,1.1l1.682,1.221a.839.839,0,0,1,.337.815,11.56,11.56,0,0,0,0,3.775.839.839,0,0,1-.337.815l-1.682,1.221a.844.844,0,0,0-.235,1.1l2.434,4.216a.844.844,0,0,0,1.074.349l.486-.217A.857.857,0,0,1,78.475,64.472Z" transform="translate(-74.462 -40.956)" fill="#b4d0d5"/>
        <path id="Trazado_1041482" data-name="Trazado 1041482" d="M156.984,217.081h-1.466a.843.843,0,0,1-.839-.755l-.217-2.067a.839.839,0,0,0-.536-.7l-.053-.02a3.4,3.4,0,0,1,1.519.02.839.839,0,0,1,.536.7l.217,2.067A.843.843,0,0,0,156.984,217.081Z" transform="translate(-144.262 -188.537)" fill="#b4d0d5"/>
        <circle id="Elipse_12583" data-name="Elipse 12583" cx="7.512" cy="7.512" r="7.512" transform="translate(6.178 6.76)" fill="#b4d0d5"/>
      </g>
      <path id="Trazado_1041483" data-name="Trazado 1041483" d="M216.411,88.517a11.524,11.524,0,0,0-.155-1.888.839.839,0,0,1,.337-.815l1.682-1.222a.844.844,0,0,0,.235-1.1l-2.434-4.216A.844.844,0,0,0,215,78.924l-1.9.847a.839.839,0,0,1-.875-.116,11.463,11.463,0,0,0-3.268-1.889.838.838,0,0,1-.536-.7L208.206,75a.844.844,0,0,0-.839-.756H202.5a.844.844,0,0,0-.839.756l-.217,2.066a.838.838,0,0,1-.536.7,11.463,11.463,0,0,0-3.268,1.889.839.839,0,0,1-.875.116l-1.9-.847a.844.844,0,0,0-1.074.349l-2.434,4.216a.844.844,0,0,0,.235,1.1l1.682,1.221a.839.839,0,0,1,.337.815,11.567,11.567,0,0,0,0,3.775.839.839,0,0,1-.337.815l-1.682,1.221a.844.844,0,0,0-.235,1.1l2.434,4.216a.844.844,0,0,0,1.074.349l1.9-.847a.839.839,0,0,1,.875.116,11.463,11.463,0,0,0,3.268,1.889.838.838,0,0,1,.536.7l.217,2.066a.844.844,0,0,0,.839.756h4.868a.844.844,0,0,0,.839-.756l.217-2.066a.838.838,0,0,1,.536-.7,11.463,11.463,0,0,0,3.268-1.889.839.839,0,0,1,.875-.116l1.9.847a.844.844,0,0,0,1.074-.349l2.434-4.216a.844.844,0,0,0-.235-1.1l-1.682-1.222a.839.839,0,0,1-.337-.815A11.521,11.521,0,0,0,216.411,88.517Z" transform="translate(-109.249 -65.258)" fill="#617881"/>
      <path id="Trazado_1041484" data-name="Trazado 1041484" d="M273.147,74.246a.843.843,0,0,0-.839.756l-.217,2.066a.838.838,0,0,1-.536.7,4.059,4.059,0,0,1-1.6.054c.046-.019.091-.036.138-.054a.838.838,0,0,0,.536-.7L270.843,75a.843.843,0,0,1,.839-.756Z" transform="translate(-178.431 -65.259)" fill="#475959"/>
      <path id="Trazado_1041485" data-name="Trazado 1041485" d="M195.256,131.212,192.823,127a.844.844,0,0,1,.235-1.1l1.682-1.221a.839.839,0,0,0,.337-.815,11.567,11.567,0,0,1,0-3.775.839.839,0,0,0-.337-.815l-1.682-1.221a.844.844,0,0,1-.235-1.1l2.434-4.216a.845.845,0,0,1,.094-.132l-.486-.217a.844.844,0,0,0-1.074.349l-2.434,4.216a.844.844,0,0,0,.235,1.1l1.682,1.221a.839.839,0,0,1,.337.815,11.56,11.56,0,0,0,0,3.775.839.839,0,0,1-.337.815l-1.682,1.221a.844.844,0,0,0-.235,1.1l2.434,4.216a.844.844,0,0,0,1.074.349l.486-.217a.854.854,0,0,1-.094-.132Z" transform="translate(-109.249 -98.709)" fill="#475959"/>
      <path id="Trazado_1041486" data-name="Trazado 1041486" d="M273.764,283.821H272.3a.843.843,0,0,1-.839-.755L271.243,281a.839.839,0,0,0-.536-.7l-.053-.02a3.4,3.4,0,0,1,1.519.02.839.839,0,0,1,.536.7l.217,2.067A.843.843,0,0,0,273.764,283.821Z" transform="translate(-179.048 -246.29)" fill="#475959"/>
      <circle id="Elipse_12584" data-name="Elipse 12584" cx="3.905" cy="3.905" r="3.905" transform="translate(91.779 19.354)" fill="#b4d0d5"/>
      <path id="Trazado_1041487" data-name="Trazado 1041487" d="M127.352,347.329h.024a3.768,3.768,0,0,0,0-7.536H92.716a3.768,3.768,0,0,0,0,7.536h.024" transform="translate(-19.336 -298.665)" fill="#f1b986"/>
      <path id="Trazado_1041488" data-name="Trazado 1041488" d="M134.227,250.511l-25.588.11-12.706.053c-.454-4.135-1.308-8.848-1.034-12.9h41.175C136.506,243.517,134.227,250.511,134.227,250.511Z" transform="translate(-24.519 -208.992)" fill="#f6e266"/>
      <path id="Trazado_1041489" data-name="Trazado 1041489" d="M108.64,250.62l-12.706.053c-.454-4.135-1.308-8.848-1.034-12.9h11.336c.279,1.121.634,2.239.988,3.317Z" transform="translate(-24.519 -208.991)" fill="#ecc32e"/>
      <path id="Trazado_1041490" data-name="Trazado 1041490" d="M154.649,278.53q0,2.976-.152,5.953a9.643,9.643,0,0,1-9.185,9.143q-5.2.247-10.409.171h0q-2.8-.039-5.6-.171a9.645,9.645,0,0,1-9.185-9.143q-.271-5.3-.059-10.6h0c1.935-.717,3.085-2.944,3.769-5.421a4.973,4.973,0,0,1,5.474-3.612,4.91,4.91,0,0,1,2.581,1.186,8.237,8.237,0,0,0,10.85,0,4.894,4.894,0,0,1,3.248-1.232,4.966,4.966,0,0,1,4.806,3.657c.682,2.477,1.833,4.7,3.769,5.421Q154.651,276.206,154.649,278.53Z" transform="translate(-46.598 -232.75)" fill="#f1d0a5"/>
      <path id="Trazado_1041491" data-name="Trazado 1041491" d="M134.9,293.8q-2.8-.039-5.6-.171a9.645,9.645,0,0,1-9.185-9.143q-.271-5.3-.059-10.6h0c1.935-.717,3.085-2.944,3.769-5.422a4.973,4.973,0,0,1,5.474-3.612C127.526,280.689,129.3,293.623,134.9,293.8Z" transform="translate(-46.597 -232.75)" fill="#f1b986"/>
      <path id="Trazado_1041492" data-name="Trazado 1041492" d="M233.761,408.455a2.994,2.994,0,0,1-5.41,0,.908.908,0,0,0-1.64.778,4.809,4.809,0,0,0,8.69,0,.908.908,0,0,0-1.64-.778Z" transform="translate(-140.346 -358.56)"/>
      <path id="Trazado_1041493" data-name="Trazado 1041493" d="M112.714,44.9a4.673,4.673,0,0,0-1.933-3.785c.567-1.931,2.044-7.539,1.679-12.4a.908.908,0,0,0-.905-.84h-1.273a1.75,1.75,0,0,0-.721-1.424l-1.651-1.2a12.471,12.471,0,0,0,0-3.983l1.652-1.2a1.748,1.748,0,0,0,.486-2.292l-2.435-4.216a1.747,1.747,0,0,0-2.23-.724l-1.864.83a12.39,12.39,0,0,0-3.448-1.993L99.86,9.648a1.746,1.746,0,0,0-1.741-1.57H94.977l-1.5-2.6a1.75,1.75,0,0,0-2.23-.723l-1.864.83A12.332,12.332,0,0,0,85.937,3.6l-.212-2.029A1.749,1.749,0,0,0,83.983,0H79.116a1.75,1.75,0,0,0-1.742,1.569L77.162,3.6a12.318,12.318,0,0,0-3.447,1.993l-1.865-.831a1.747,1.747,0,0,0-2.228.724L67.186,9.7a1.75,1.75,0,0,0,.488,2.294l1.65,1.2a12.474,12.474,0,0,0,0,3.981l-1.65,1.2a1.748,1.748,0,0,0-.488,2.294l2.434,4.214a1.746,1.746,0,0,0,2.229.726l1.865-.831a12.317,12.317,0,0,0,3.447,1.993l.116,1.107h-6.9a.908.908,0,0,0-.906.847,53.324,53.324,0,0,0,.669,10.029c.112.867.218,1.695.312,2.507a4.672,4.672,0,0,0,2.067,8.237q.036,1.147.093,2.288a10.523,10.523,0,0,0,10.049,10c1.894.088,3.788.146,5.63.173H88.3q1.2.017,2.4.017c2.7,0,5.405-.063,8.063-.19a10.515,10.515,0,0,0,5.931-2.167.908.908,0,1,0-1.105-1.44,8.707,8.707,0,0,1-4.912,1.794c-3.408.162-6.891.219-10.353.171h-.007c-1.821-.026-3.694-.083-5.566-.171a8.713,8.713,0,0,1-8.321-8.282c-.169-3.3-.2-6.648-.08-9.96,1.683-.889,2.946-2.829,3.759-5.777A4.087,4.087,0,0,1,82.58,33a4.026,4.026,0,0,1,2.107.97,9.145,9.145,0,0,0,12.045,0,3.975,3.975,0,0,1,2.651-1.007,4.038,4.038,0,0,1,3.931,2.99c.812,2.948,2.075,4.888,3.759,5.777.047,1.334.071,2.695.071,4.053,0,1.961-.051,3.948-.151,5.908a8.741,8.741,0,0,1-1.228,4.045.908.908,0,1,0,1.556.935,10.56,10.56,0,0,0,1.485-4.887c.039-.759.068-1.524.092-2.288a4.682,4.682,0,0,0,3.816-4.595Zm-14.443-33a1.754,1.754,0,0,0,1.12,1.456,10.576,10.576,0,0,1,3.01,1.74,1.735,1.735,0,0,0,1.821.245l1.848-.823,2.376,4.115-1.636,1.187a1.74,1.74,0,0,0-.7,1.7,10.643,10.643,0,0,1,0,3.478,1.739,1.739,0,0,0,.7,1.7l1.621,1.176H97.055a4.813,4.813,0,1,0-2.742,0H82.938L84.559,26.7a1.734,1.734,0,0,0,.7-1.7,10.749,10.749,0,0,1,0-3.477,1.735,1.735,0,0,0-.7-1.7l-1.636-1.187L85.3,14.519l1.847.823a1.736,1.736,0,0,0,1.823-.244,10.543,10.543,0,0,1,3.011-1.74A1.742,1.742,0,0,0,93.1,11.9l.21-2.008H98.06ZM95.684,26.256a3,3,0,1,1,3-3,3,3,0,0,1-3,3Zm-16.722.277a1.741,1.741,0,0,0-1.122-1.452,10.516,10.516,0,0,1-3.01-1.742,1.74,1.74,0,0,0-1.82-.242l-1.846.822L68.787,19.8l1.637-1.188a1.739,1.739,0,0,0,.7-1.7,10.652,10.652,0,0,1,0-3.48,1.739,1.739,0,0,0-.7-1.7l-1.636-1.188,2.377-4.116,1.846.822a1.741,1.741,0,0,0,1.823-.243,10.514,10.514,0,0,1,3.01-1.74,1.741,1.741,0,0,0,1.12-1.454l.21-2.01h4.753l.21,2.012A1.739,1.739,0,0,0,85.257,5.28a10.532,10.532,0,0,1,3.011,1.742,1.739,1.739,0,0,0,1.819.242l1.848-.823L92.9,8.114a1.745,1.745,0,0,0-1.393,1.534L91.3,11.675a12.317,12.317,0,0,0-1.761.832,8.422,8.422,0,0,0-16.071,5.031.908.908,0,1,0,1.743-.509,6.605,6.605,0,1,1,12.75-3.446c-.036.029-.073.056-.109.086l-1.862-.829a1.746,1.746,0,0,0-2.232.723l-2.433,4.216a1.747,1.747,0,0,0,.488,2.293l1.649,1.2c-.013.082-.023.165-.035.247a6.609,6.609,0,0,1-6.61-1.731.908.908,0,1,0-1.3,1.265A8.35,8.35,0,0,0,81.549,23.6a8.447,8.447,0,0,0,1.754-.185,12.556,12.556,0,0,0,.156,1.836l-1.65,1.2a1.745,1.745,0,0,0-.722,1.424H79.1ZM70.52,44.9a2.866,2.866,0,0,1,2-2.727c-.056,1.808-.07,3.625-.042,5.439A2.864,2.864,0,0,1,70.52,44.9Zm34.544-9.431a5.91,5.91,0,0,0-5.681-4.323A5.844,5.844,0,0,0,95.536,32.6a7.329,7.329,0,0,1-9.653,0,5.837,5.837,0,0,0-3.056-1.4,5.907,5.907,0,0,0-6.471,4.268c-.494,1.792-1.426,4.045-3.073,4.757a4.664,4.664,0,0,0-1.106.155c-.074-.607-.153-1.224-.235-1.862a58.627,58.627,0,0,1-.7-8.828h39.449a38.931,38.931,0,0,1-1.583,10.658,4.663,4.663,0,0,0-.974-.123C106.489,39.51,105.558,37.257,105.065,35.466Zm3.879,12.143c.01-.611.016-1.222.016-1.83,0-1.208-.019-2.418-.056-3.61a2.86,2.86,0,0,1,.04,5.439Z" transform="translate(0 0)"/>
      <path id="Trazado_1041494" data-name="Trazado 1041494" d="M184.064,343.084c0,1.284.7,2.329,1.563,2.329s1.563-1.045,1.563-2.329-.7-2.329-1.563-2.329S184.064,341.8,184.064,343.084Z" transform="translate(-102.939 -299.51)"/>
      <path id="Trazado_1041495" data-name="Trazado 1041495" d="M316.611,343.084c0,1.284.7,2.329,1.563,2.329s1.563-1.045,1.563-2.329-.7-2.329-1.563-2.329S316.611,341.8,316.611,343.084Z" transform="translate(-219.442 -299.51)"/>
      <path id="Trazado_1041496" data-name="Trazado 1041496" d="M316.211,4.11a.907.907,0,0,0,1.155-.56l.813-2.344a.908.908,0,1,0-1.715-.6l-.813,2.344A.908.908,0,0,0,316.211,4.11Z" transform="translate(-218.554 0)"/>
      <path id="Trazado_1041497" data-name="Trazado 1041497" d="M327.682,22.307a.908.908,0,0,0,1.263.231L332.47,20.1a.908.908,0,0,0-1.032-1.494l-3.525,2.434A.908.908,0,0,0,327.682,22.307Z" transform="translate(-229.032 -16.216)"/>
      <path id="Trazado_1041498" data-name="Trazado 1041498" d="M344.077,57l-2.139-.028a.908.908,0,0,0-.023,1.815l2.139.028h.012A.908.908,0,0,0,344.077,57Z" transform="translate(-240.896 -50.074)"/>
    </g>
  </g>
</svg>
