<svg xmlns="http://www.w3.org/2000/svg" xmlns:xlink="http://www.w3.org/1999/xlink" width="108" height="108" viewBox="0 0 108 108">
  <defs>
    <filter id="Trazado_904820" x="0" y="0" width="108" height="108" filterUnits="userSpaceOnUse">
      <feOffset dy="3" input="SourceAlpha"/>
      <feGaussianBlur stdDeviation="3" result="blur"/>
      <feFlood flood-opacity="0.161"/>
      <feComposite operator="in" in2="blur"/>
      <feComposite in="SourceGraphic"/>
    </filter>
  </defs>
  <g id="Grupo_1203192" data-name="Grupo 1203192" transform="translate(-620 -4041.718)">
    <g id="Grupo_1202422" data-name="Grupo 1202422" transform="translate(629 4047.718)">
      <g id="Grupo_1178315" data-name="Grupo 1178315" transform="translate(0 0)">
        <g id="Grupo_1173585" data-name="Grupo 1173585">
          <g id="Grupo_1173428" data-name="Grupo 1173428">
            <g id="Grupo_1171958" data-name="Grupo 1171958">
              <g id="Grupo_1167341" data-name="Grupo 1167341">
                <g id="Grupo_1166792" data-name="Grupo 1166792">
                  <g transform="matrix(1, 0, 0, 1, -9, -6)" filter="url(#Trazado_904820)">
                    <g id="Trazado_904820-2" data-name="Trazado 904820" transform="translate(9 6)" fill="#edf3fc">
                      <path d="M 44.99999618530273 88.49999237060547 C 39.12687301635742 88.49999237060547 33.43022155761719 87.35006713867188 28.06829643249512 85.08216857910156 C 22.88852119445801 82.89130401611328 18.23629570007324 79.75457763671875 14.24084663391113 75.75914001464844 C 10.24540901184082 71.76369476318359 7.108683586120605 67.11146545410156 4.917821407318115 61.93169403076172 C 2.649921178817749 56.56976699829102 1.499996185302734 50.87311553955078 1.499996185302734 44.99999237060547 C 1.499996185302734 39.12686920166016 2.649921178817749 33.43021774291992 4.917821407318115 28.06829261779785 C 7.108683586120605 22.88851737976074 10.24540901184082 18.23630523681641 14.24084663391113 14.24085521697998 C 18.23629570007324 10.24540519714355 22.88852119445801 7.108692169189453 28.06829643249512 4.917829990386963 C 33.43022155761719 2.649929761886597 39.12687301635742 1.500004887580872 44.99999618530273 1.500004887580872 C 50.87311935424805 1.500004887580872 56.56977081298828 2.649929761886597 61.93169784545898 4.917829990386963 C 67.11147308349609 7.108692169189453 71.76369476318359 10.24540519714355 75.75914764404297 14.24085521697998 C 79.75458526611328 18.23630523681641 82.89131164550781 22.88851737976074 85.08216857910156 28.06829261779785 C 87.35007476806641 33.43021774291992 88.5 39.12686920166016 88.5 44.99999237060547 C 88.5 50.87311553955078 87.35007476806641 56.56976699829102 85.08216857910156 61.93169403076172 C 82.89131164550781 67.11146545410156 79.75458526611328 71.76369476318359 75.75914764404297 75.75914001464844 C 71.76369476318359 79.75457763671875 67.11147308349609 82.89130401611328 61.93169784545898 85.08216857910156 C 56.56977081298828 87.35006713867188 50.87311935424805 88.49999237060547 44.99999618530273 88.49999237060547 Z" stroke="none"/>
                      <path d="M 44.99999618530273 2.999992370605469 C 39.32870864868164 2.999992370605469 33.82865142822266 4.11004638671875 28.65262603759766 6.299331665039062 C 23.65165710449219 8.414566040039062 19.15968322753906 11.44333648681641 15.301513671875 15.30150604248047 C 11.44333648681641 19.15967559814453 8.414566040039062 23.65164947509766 6.299339294433594 28.65262222290039 C 4.110054016113281 33.82864761352539 2.999992370605469 39.32870483398438 2.999992370605469 44.99999237060547 C 2.999992370605469 50.67127990722656 4.110054016113281 56.17132186889648 6.299339294433594 61.34736633300781 C 8.414566040039062 66.34833526611328 11.44333648681641 70.84029388427734 15.301513671875 74.69846343994141 C 19.15968322753906 78.55663299560547 23.65165710449219 81.58540344238281 28.65262603759766 83.70063781738281 C 33.82865142822266 85.88992309570312 39.32870864868164 86.99997711181641 44.99999618530273 86.99997711181641 C 50.67128372192383 86.99997711181641 56.17134094238281 85.88992309570312 61.34736633300781 83.70063781738281 C 66.34834289550781 81.58540344238281 70.84030914306641 78.55663299560547 74.69847869873047 74.69846343994141 C 78.55665588378906 70.84029388427734 81.58542633056641 66.34833526611328 83.70065307617188 61.34736633300781 C 85.88993835449219 56.17132186889648 87 50.67127990722656 87 44.99999237060547 C 87 39.32870483398438 85.88993835449219 33.82864761352539 83.70065307617188 28.65262222290039 C 81.58542633056641 23.65164947509766 78.55665588378906 19.15967559814453 74.69847869873047 15.30150604248047 C 70.84030914306641 11.44333648681641 66.34834289550781 8.414566040039062 61.34736633300781 6.299331665039062 C 56.17134094238281 4.11004638671875 50.67128372192383 2.999992370605469 44.99999618530273 2.999992370605469 M 44.99999618530273 -7.62939453125e-06 C 69.85281372070312 -7.62939453125e-06 90 20.14717864990234 90 44.99999237060547 C 90 69.85279083251953 69.85281372070312 89.99997711181641 44.99999618530273 89.99997711181641 C 20.14717864990234 89.99997711181641 -7.62939453125e-06 69.85279083251953 -7.62939453125e-06 44.99999237060547 C -7.62939453125e-06 20.14717864990234 20.14717864990234 -7.62939453125e-06 44.99999618530273 -7.62939453125e-06 Z" stroke="none" fill="#5692e8"/>
                    </g>
                  </g>
                </g>
              </g>
            </g>
          </g>
        </g>
      </g>
    </g>
    <g id="bloques_1_" data-name="bloques (1)" transform="translate(642.381 4036.889)">
      <g id="Grupo_1203190" data-name="Grupo 1203190" transform="translate(0.866 30.505)">
        <path id="Trazado_1041699" data-name="Trazado 1041699" d="M236.11,315.678H224.761v6.412H236.11a3.206,3.206,0,1,0,0-6.412Z" transform="translate(-199.622 -283.448)" fill="#ffcabd"/>
        <path id="Trazado_1041700" data-name="Trazado 1041700" d="M11.347,291.241a3.206,3.206,0,1,0-1.281,6.283l11.12,2.267,1.281-6.283Z" transform="translate(-7.5 -261.782)" fill="#ffdcce"/>
        <path id="Trazado_1041701" data-name="Trazado 1041701" d="M107.317,325.663c0-7.093-3.656-9.986-3.656-9.986H88.776s-3.656,2.893-3.656,9.986l11.1,3.4Z" transform="translate(-76.139 -283.448)" fill="#7de2ff"/>
        <path id="Trazado_1041702" data-name="Trazado 1041702" d="M233.2,396.921l-1.877,4.509,1.877,4.509h2.213a4.509,4.509,0,1,0,0-9.019H233.2Z" transform="translate(-205.421 -355.291)" fill="#696eb1"/>
        <path id="Trazado_1041703" data-name="Trazado 1041703" d="M167.721,401.431a4.509,4.509,0,0,0,4.509,4.51h4.727v-9.019H172.23A4.509,4.509,0,0,0,167.721,401.431Z" transform="translate(-149.182 -355.292)" fill="#ffdcce"/>
        <path id="Trazado_1041704" data-name="Trazado 1041704" d="M63.151,396.921l1.877,4.509-1.877,4.509H60.938a4.509,4.509,0,1,1,0-9.019h2.213Z" transform="translate(-50.767 -355.291)" fill="#696eb1"/>
        <path id="Trazado_1041705" data-name="Trazado 1041705" d="M58.164,405.179a4.508,4.508,0,0,0,2.775,8.063h2.213l1.091-2.622C60.247,409.99,58.713,407.922,58.164,405.179Z" transform="translate(-50.768 -362.593)" fill="#4c5698"/>
        <path id="Trazado_1041706" data-name="Trazado 1041706" d="M123.772,401.431a4.509,4.509,0,0,1-4.509,4.51h-4.727v-9.019h4.727A4.51,4.51,0,0,1,123.772,401.431Z" transform="translate(-102.151 -355.292)" fill="#ffdcce"/>
        <path id="Trazado_1041707" data-name="Trazado 1041707" d="M19.4,56.322H15.225A19.187,19.187,0,0,1,34.411,37.135H45.779A4.622,4.622,0,0,1,50.4,41.757a7,7,0,0,1-3.584,6.106L46.163,49.3Z" transform="translate(-14.331 -37.135)" fill="#d5938c"/>
        <path id="Trazado_1041708" data-name="Trazado 1041708" d="M98.774,318.474a18.3,18.3,0,0,0,9.379,2.647h.14a18.371,18.371,0,0,0,9.525-2.634,8.994,8.994,0,0,0-2.083-2.809H100.85A8.983,8.983,0,0,0,98.774,318.474Z" transform="translate(-88.213 -283.448)" fill="#2ecffb"/>
        <path id="Trazado_1041709" data-name="Trazado 1041709" d="M35.846,37.136H34.411A19.187,19.187,0,0,0,15.225,56.323H19.4l4.39-1.151A19.9,19.9,0,0,1,35.846,37.136Z" transform="translate(-14.331 -37.136)" fill="#cd847b"/>
        <path id="Trazado_1041710" data-name="Trazado 1041710" d="M81.034,135.446a14.913,14.913,0,0,0-2.336-5.592,6.948,6.948,0,0,1-3.408.886H58.649a7.37,7.37,0,0,0-7.367,7.181q0,.094,0,.187a15.015,15.015,0,1,0,29.756-2.661Z" transform="translate(-46.212 -119.126)" fill="#ffdcce"/>
        <path id="Trazado_1041711" data-name="Trazado 1041711" d="M25.572,161.728a19.92,19.92,0,0,1-6.466-22.007,7.386,7.386,0,0,0-4.659,3.8,4.135,4.135,0,0,0-.908-.1,4.8,4.8,0,0,0,0,9.606,3.854,3.854,0,0,0,1.289-.205A15.117,15.117,0,0,0,25.572,161.728Z" transform="translate(-8.594 -127.851)" fill="#ffcabd"/>
        <g id="Grupo_1203189" data-name="Grupo 1203189" transform="translate(7.099 20.039)">
          <g id="Grupo_1203188" data-name="Grupo 1203188">
            <g id="Grupo_1203186" data-name="Grupo 1203186">
              <ellipse id="Elipse_12591" data-name="Elipse 12591" cx="3.499" cy="2.786" rx="3.499" ry="2.786" fill="#ff8d9d"/>
            </g>
            <g id="Grupo_1203187" data-name="Grupo 1203187" transform="translate(18.965)">
              <ellipse id="Elipse_12592" data-name="Elipse 12592" cx="3.499" cy="2.786" rx="3.499" ry="2.786" fill="#ff8d9d"/>
            </g>
          </g>
        </g>
        <path id="Trazado_1041712" data-name="Trazado 1041712" d="M405.276,210.937l-3.877-5.9-3.877,5.9a2.454,2.454,0,0,0-2.454,2.454v7.754a2.454,2.454,0,0,0,2.454,2.454l3.877,6.714,3.877-6.714a2.454,2.454,0,0,0,2.454-2.454v-7.754A2.454,2.454,0,0,0,405.276,210.937Z" transform="translate(-350.223 -185.613)" fill="#c8a9f1"/>
        <path id="Trazado_1041713" data-name="Trazado 1041713" d="M405.276,37.135h-7.754a2.454,2.454,0,0,0-2.454,2.454v7.754a2.454,2.454,0,0,0,2.454,2.454l3.877,6.766,3.877-6.766a2.454,2.454,0,0,0,2.454-2.454V39.589A2.454,2.454,0,0,0,405.276,37.135Z" transform="translate(-350.223 -37.135)" fill="#ff8d9d"/>
        <path id="Trazado_1041714" data-name="Trazado 1041714" d="M405.276,146.568h-7.754a2.454,2.454,0,0,0-2.454,2.454v7.754a2.454,2.454,0,0,0,2.454,2.454h7.754a2.454,2.454,0,0,0,2.454-2.454v-7.754A2.454,2.454,0,0,0,405.276,146.568Z" transform="translate(-350.223 -133.906)" fill="#71dbba"/>
        <path id="Trazado_1041715" data-name="Trazado 1041715" d="M405.276,365.432h-7.754a2.454,2.454,0,0,0-2.454,2.454v7.754a2.454,2.454,0,0,0,2.454,2.454h7.754a2.454,2.454,0,0,0,2.454-2.454v-7.754A2.454,2.454,0,0,0,405.276,365.432Z" transform="translate(-350.223 -327.446)" fill="#fce29f"/>
        <path id="Trazado_1041716" data-name="Trazado 1041716" d="M118.447,441.008a15.918,15.918,0,0,1-3.911-.422v2.844h4.727a4.508,4.508,0,0,0,4.49-4.113A9.135,9.135,0,0,1,118.447,441.008Z" transform="translate(-102.151 -392.781)" fill="#ffcabd"/>
        <path id="Trazado_1041717" data-name="Trazado 1041717" d="M398.4,370.252a9.2,9.2,0,0,1,1.355-4.819h-2.238a2.454,2.454,0,0,0-2.454,2.454v7.754a2.454,2.454,0,0,0,2.454,2.454h5.237A9.235,9.235,0,0,1,398.4,370.252Z" transform="translate(-350.223 -327.446)" fill="#ffcd71"/>
        <path id="Trazado_1041718" data-name="Trazado 1041718" d="M398.4,260.82A9.2,9.2,0,0,1,399.759,256h-2.238a2.454,2.454,0,0,0-2.454,2.454v7.754a2.454,2.454,0,0,0,2.454,2.454h5.237A9.235,9.235,0,0,1,398.4,260.82Z" transform="translate(-350.223 -230.677)" fill="#b18ae3"/>
        <path id="Trazado_1041719" data-name="Trazado 1041719" d="M398.4,151.387a9.2,9.2,0,0,1,1.355-4.819h-2.238a2.454,2.454,0,0,0-2.454,2.454v7.754a2.454,2.454,0,0,0,2.454,2.454h5.237A9.235,9.235,0,0,1,398.4,151.387Z" transform="translate(-350.223 -133.906)" fill="#30cc9b"/>
        <path id="Trazado_1041720" data-name="Trazado 1041720" d="M398.4,41.955a9.2,9.2,0,0,1,1.355-4.819h-2.238a2.454,2.454,0,0,0-2.454,2.454v7.754a2.454,2.454,0,0,0,2.454,2.454h5.237A9.235,9.235,0,0,1,398.4,41.955Z" transform="translate(-350.223 -37.136)" fill="#e95b70"/>
      </g>
      <g id="Grupo_1203191" data-name="Grupo 1203191" transform="translate(-0.002 29.637)">
        <path id="Trazado_1041721" data-name="Trazado 1041721" d="M109.218,192.229v1.43a.868.868,0,1,0,1.736,0v-1.43a.868.868,0,1,0-1.736,0Z" transform="translate(-96.58 -172.648)"/>
        <path id="Trazado_1041722" data-name="Trazado 1041722" d="M237.873,192.229v1.43a.868.868,0,1,0,1.736,0v-1.43a.868.868,0,1,0-1.736,0Z" transform="translate(-210.349 -172.648)"/>
        <path id="Trazado_1041723" data-name="Trazado 1041723" d="M160.724,203.651a1.733,1.733,0,0,1-2.616,0,.868.868,0,1,0-1.308,1.14,3.469,3.469,0,0,0,5.233,0,.868.868,0,0,0-1.308-1.14Z" transform="translate(-138.467 -183.253)"/>
        <path id="Trazado_1041724" data-name="Trazado 1041724" d="M398.644,29.637H390.89a3.326,3.326,0,0,0-3.322,3.322v7.754a3.314,3.314,0,0,0,1.086,2.454,3.314,3.314,0,0,0-1.086,2.454v7.754a3.314,3.314,0,0,0,1.086,2.454,3.314,3.314,0,0,0-1.086,2.454v7.754a3.314,3.314,0,0,0,1.086,2.454,3.314,3.314,0,0,0-1.086,2.454V78.7a3.326,3.326,0,0,0,3.322,3.322h7.754a3.326,3.326,0,0,0,3.322-3.322V70.945a3.314,3.314,0,0,0-1.086-2.454,3.314,3.314,0,0,0,1.086-2.454V58.283a3.314,3.314,0,0,0-1.086-2.454,3.314,3.314,0,0,0,1.086-2.454V45.621a3.314,3.314,0,0,0-1.086-2.454,3.314,3.314,0,0,0,1.086-2.454V32.959A3.326,3.326,0,0,0,398.644,29.637Zm1.586,41.308V78.7a1.588,1.588,0,0,1-1.586,1.586H390.89A1.588,1.588,0,0,1,389.3,78.7V70.945a1.588,1.588,0,0,1,1.586-1.586h7.754a1.588,1.588,0,0,1,1.586,1.586Zm0-12.662v7.754a1.588,1.588,0,0,1-1.586,1.586H390.89a1.588,1.588,0,0,1-1.586-1.586V58.283A1.588,1.588,0,0,1,390.89,56.7h7.754a1.588,1.588,0,0,1,1.586,1.586Zm0-12.662v7.754a1.588,1.588,0,0,1-1.586,1.586H390.89a1.588,1.588,0,0,1-1.586-1.586V45.621a1.588,1.588,0,0,1,1.586-1.586h7.754A1.588,1.588,0,0,1,400.23,45.621ZM390.89,42.3a1.588,1.588,0,0,1-1.586-1.586V32.959a1.588,1.588,0,0,1,1.586-1.586h7.754a1.588,1.588,0,0,1,1.586,1.586v7.754a1.588,1.588,0,0,1-1.586,1.586H390.89Z" transform="translate(-342.723 -29.637)"/>
        <path id="Trazado_1041725" data-name="Trazado 1041725" d="M9.009,71.666a5.376,5.376,0,0,0,2.028,10.356h6.941a5.343,5.343,0,0,0,2.966-.9,5.37,5.37,0,0,0,2.969.9h6.941a5.376,5.376,0,0,0,2.028-10.356c-.03-.58-.084-1.129-.157-1.651h4.627a4.074,4.074,0,0,0,0-8.148h-6.2A16.123,16.123,0,0,0,33.5,59.422a.868.868,0,1,0-1.371-1.064,14.115,14.115,0,0,1-18.166,3.624h0a14.176,14.176,0,0,1-7.127-11.29A7.445,7.445,0,0,1,7.5,46.56h0A6.5,6.5,0,0,1,13.3,42.987H29.945a7.887,7.887,0,0,0,3.1-.635,13.951,13.951,0,0,1,1.794,4.638,14.318,14.318,0,0,1,.257,2.7,14.029,14.029,0,0,1-1.279,5.886.868.868,0,0,0,1.578.723,15.754,15.754,0,0,0,1.437-6.609,16.065,16.065,0,0,0-.289-3.031A15.677,15.677,0,0,0,34.552,41.5,7.83,7.83,0,0,0,37.8,35.128a5.5,5.5,0,0,0-5.49-5.49H20.946a20.054,20.054,0,0,0-9.48,2.386.868.868,0,1,0,.823,1.528,18.313,18.313,0,0,1,8.657-2.179H32.314a3.759,3.759,0,0,1,3.754,3.754,6.122,6.122,0,0,1-6.124,6.124H13.3a8.206,8.206,0,0,0-7.053,3.979,5.682,5.682,0,0,0-3.239.722,18.132,18.132,0,0,1,1.1-3.49,18.474,18.474,0,0,1,5.357-7.04.868.868,0,1,0-1.089-1.351,20.215,20.215,0,0,0-5.862,7.7A19.879,19.879,0,0,0,.97,47.936,5.668,5.668,0,0,0,6.6,56.5a15.915,15.915,0,0,0,2.212,3.416l-3.928-.8A4.074,4.074,0,0,0,3.259,67.1l6.217,1.267a18,18,0,0,0-.466,3.3ZM7.4,76.644A3.647,3.647,0,0,1,11.038,73h1.346v7.283H11.038A3.646,3.646,0,0,1,7.4,76.644Zm6.723,3.642V73h3.86a3.641,3.641,0,0,1,0,7.283Zm8.145-.4a5.372,5.372,0,0,0,0-6.49,3.618,3.618,0,0,1,1.649-.4h3.86v7.283h-3.86a3.633,3.633,0,0,1-1.65-.4ZM34.5,76.644a3.646,3.646,0,0,1-3.642,3.642H29.509V73h1.346A3.646,3.646,0,0,1,34.5,76.644Zm-3.642-5.376H23.914a5.455,5.455,0,0,0-2.968.895,5.386,5.386,0,0,0-2.968-.895H11c-.076,0-.152,0-.228.006a12.763,12.763,0,0,1,2.88-7.477,15.752,15.752,0,0,0,7.172,1.777h0a15.854,15.854,0,0,0,7.422-1.765,12.7,12.7,0,0,1,2.87,7.465c-.075,0-.15,0-.226-.006h-.038Zm8.838-5.327a2.341,2.341,0,0,1-2.338,2.338H32.4A13.8,13.8,0,0,0,30.311,63.6h7.042A2.341,2.341,0,0,1,39.692,65.941ZM5.812,54.819a3.934,3.934,0,0,1-.353-7.853,9.851,9.851,0,0,0-.36,3.784,15.759,15.759,0,0,0,.814,4.067ZM9.975,66.7,3.606,65.4a2.338,2.338,0,0,1,.934-4.582l6.59,1.343q.489.388,1,.734A12.584,12.584,0,0,0,9.975,66.7Z" transform="translate(0.002 -29.638)"/>
      </g>
    </g>
  </g>
</svg>
