<svg xmlns="http://www.w3.org/2000/svg" xmlns:xlink="http://www.w3.org/1999/xlink" width="98.32" height="98.32" viewBox="0 0 98.32 98.32">
  <defs>
    <filter id="Trazado_982547" x="0" y="0" width="98.32" height="98.32" filterUnits="userSpaceOnUse">
      <feOffset dy="3" input="SourceAlpha"/>
      <feGaussianBlur stdDeviation="3" result="blur"/>
      <feFlood flood-opacity="0.161"/>
      <feComposite operator="in" in2="blur"/>
      <feComposite in="SourceGraphic"/>
    </filter>
  </defs>
  <g id="Grupo_1203196" data-name="Grupo 1203196" transform="translate(-187 -4461)">
    <g id="Grupo_1202423" data-name="Grupo 1202423" transform="translate(196 4467)">
      <g id="Grupo_1177900" data-name="Grupo 1177900" transform="translate(0 0)">
        <g id="Grupo_1172010" data-name="Grupo 1172010" transform="translate(0)">
          <g id="Grupo_1171046" data-name="Grupo 1171046">
            <g id="Grupo_1148525" data-name="Grupo 1148525">
              <g transform="matrix(1, 0, 0, 1, -9, -6)" filter="url(#Trazado_982547)">
                <g id="Trazado_982547-2" data-name="Trazado 982547" transform="translate(9 6)" fill="#fdfbec">
                  <path d="M 40.1600341796875 78.820068359375 C 34.94030380249023 78.820068359375 29.87750434875488 77.79811859130859 25.11225700378418 75.78258514404297 C 20.50883483886719 73.83550262451172 16.37421035766602 71.04776000976562 12.82325744628906 67.49681091308594 C 9.272304534912109 63.94585800170898 6.484563827514648 59.81123352050781 4.537481307983398 55.20780944824219 C 2.521951913833618 50.44256210327148 1.499998927116394 45.37976455688477 1.499998927116394 40.1600341796875 C 1.499998927116394 34.94030380249023 2.521951913833618 29.87750434875488 4.537481307983398 25.11225700378418 C 6.484563827514648 20.50883483886719 9.272304534912109 16.37421035766602 12.82325744628906 12.82325744628906 C 16.37421035766602 9.272304534912109 20.50883483886719 6.484563827514648 25.11225700378418 4.537481307983398 C 29.87750434875488 2.521951913833618 34.94030380249023 1.499998927116394 40.1600341796875 1.499998927116394 C 45.37976455688477 1.499998927116394 50.44256210327148 2.521951913833618 55.20780944824219 4.537481307983398 C 59.81123352050781 6.484563827514648 63.94585800170898 9.272304534912109 67.49681091308594 12.82325744628906 C 71.04776000976562 16.37421035766602 73.83550262451172 20.50883483886719 75.78258514404297 25.11225700378418 C 77.79811859130859 29.87750434875488 78.820068359375 34.94030380249023 78.820068359375 40.1600341796875 C 78.820068359375 45.37976455688477 77.79811859130859 50.44256210327148 75.78258514404297 55.20780944824219 C 73.83550262451172 59.81123352050781 71.04776000976562 63.94585800170898 67.49681091308594 67.49681091308594 C 63.94585800170898 71.04776000976562 59.81123352050781 73.83550262451172 55.20780944824219 75.78258514404297 C 50.44256210327148 77.79811859130859 45.37976455688477 78.820068359375 40.1600341796875 78.820068359375 Z" stroke="none"/>
                  <path d="M 40.1600341796875 2.999992370605469 C 35.14213943481445 2.999992370605469 30.27593994140625 3.982086181640625 25.69659423828125 5.918983459472656 C 21.27195358276367 7.790451049804688 17.297607421875 10.47023773193359 13.8839111328125 13.8839111328125 C 10.47023773193359 17.297607421875 7.790451049804688 21.27195358276367 5.918983459472656 25.69659423828125 C 3.982086181640625 30.27593994140625 2.999992370605469 35.14213943481445 2.999992370605469 40.1600341796875 C 2.999992370605469 45.17792892456055 3.982086181640625 50.04412841796875 5.918983459472656 54.62347412109375 C 7.790451049804688 59.04810333251953 10.47023773193359 63.0224609375 13.8839111328125 66.43614196777344 C 17.297607421875 69.84982299804688 21.27195358276367 72.52960968017578 25.69659423828125 74.40107727050781 C 30.27593994140625 76.33796691894531 35.14213943481445 77.32006072998047 40.1600341796875 77.32006072998047 C 45.17792892456055 77.32006072998047 50.04412841796875 76.33796691894531 54.62347412109375 74.40107727050781 C 59.04810333251953 72.52960968017578 63.0224609375 69.84982299804688 66.43614196777344 66.43614196777344 C 69.84982299804688 63.0224609375 72.52960968017578 59.04810333251953 74.40107727050781 54.62347412109375 C 76.33796691894531 50.04412841796875 77.32006072998047 45.17792892456055 77.32006072998047 40.1600341796875 C 77.32006072998047 35.14213943481445 76.33796691894531 30.27593994140625 74.40107727050781 25.69659423828125 C 72.52960968017578 21.27195358276367 69.84982299804688 17.297607421875 66.43614196777344 13.8839111328125 C 63.0224609375 10.47023773193359 59.04810333251953 7.790451049804688 54.62347412109375 5.918983459472656 C 50.04412841796875 3.982086181640625 45.17792892456055 2.999992370605469 40.1600341796875 2.999992370605469 M 40.1600341796875 -7.62939453125e-06 C 62.33980560302734 -7.62939453125e-06 80.32006072998047 17.98025894165039 80.32006072998047 40.1600341796875 C 80.32006072998047 62.33980560302734 62.33980560302734 80.32006072998047 40.1600341796875 80.32006072998047 C 17.98025894165039 80.32006072998047 -7.62939453125e-06 62.33980560302734 -7.62939453125e-06 40.1600341796875 C -7.62939453125e-06 17.98025894165039 17.98025894165039 -7.62939453125e-06 40.1600341796875 -7.62939453125e-06 Z" stroke="none" fill="#83793c"/>
                </g>
              </g>
            </g>
          </g>
        </g>
      </g>
    </g>
    <g id="abaco_1_" data-name="abaco (1)" transform="translate(212 4483)">
      <g id="Grupo_1203195" data-name="Grupo 1203195" transform="translate(0.715 0.715)">
        <g id="Grupo_1203193" data-name="Grupo 1203193">
          <path id="Trazado_1041726" data-name="Trazado 1041726" d="M108.86,39.58a2.869,2.869,0,0,0,2.86-2.86V33.859a2.86,2.86,0,0,0-5.721,0V36.72A2.869,2.869,0,0,0,108.86,39.58Z" transform="translate(-96.608 -28.758)" fill="#acf3f9" fill-rule="evenodd"/>
          <path id="Trazado_1041727" data-name="Trazado 1041727" d="M226,36.72a2.86,2.86,0,1,0,5.721,0V33.859a2.86,2.86,0,1,0-5.721,0Z" transform="translate(-205.166 -28.758)" fill="#acf3f9" fill-rule="evenodd"/>
          <path id="Trazado_1041728" data-name="Trazado 1041728" d="M286,36.72a2.86,2.86,0,1,0,5.721,0V33.859a2.86,2.86,0,1,0-5.721,0Z" transform="translate(-259.445 -28.758)" fill="#acf3f9" fill-rule="evenodd"/>
          <path id="Trazado_1041729" data-name="Trazado 1041729" d="M346,36.72a2.86,2.86,0,1,0,5.721,0V33.859a2.86,2.86,0,1,0-5.721,0Z" transform="translate(-313.725 -28.758)" fill="#acf3f9" fill-rule="evenodd"/>
          <path id="Trazado_1041730" data-name="Trazado 1041730" d="M40.36,7.5H37.5V54.888h2.86Zm38.807,0h-2.86V54.888h2.86Z" transform="translate(-34.64 -7.5)" fill="#d2a47b" fill-rule="evenodd"/>
          <path id="Trazado_1041731" data-name="Trazado 1041731" d="M52.028,86.743v-2.86h1.43a1.43,1.43,0,0,1,0,2.86Zm0-11.442V72.441h1.43a1.43,1.43,0,0,1,0,2.86h-1.43ZM10.36,72.441V75.3H8.93a1.43,1.43,0,0,1,0-2.86h1.43Zm6.531,0V75.3H13.221V72.441Zm22.884,0V75.3H34.055V72.441Zm9.392,0V75.3H45.5V72.441ZM52.028,61V63.86h1.43a1.43,1.43,0,0,0,0-2.86h-1.43ZM10.36,63.86V61H8.93a1.43,1.43,0,0,0,0,2.86h1.43ZM13.221,61V63.86h3.671V61Zm9.392,0V63.86h5.721V61ZM45.5,61V63.86h3.671V61Zm6.531,34.326v2.861h1.43a1.43,1.43,0,0,0,0-2.86h-1.43ZM10.36,98.185V95.325H8.93a1.43,1.43,0,0,0,0,2.86h1.43Zm2.86-2.861v2.861h3.671V95.325Zm9.392,0v2.861h5.721V95.325Zm22.884,0v2.861h3.671V95.325ZM10.36,83.883v2.86H8.93a1.43,1.43,0,0,1,0-2.86Zm6.531,0v2.86H13.221v-2.86Zm17.163,0v2.86H28.334v-2.86Zm15.113,0v2.86H45.5v-2.86Z" transform="translate(-7.5 -55.898)" fill="#bd815c" fill-rule="evenodd"/>
          <path id="Trazado_1041732" data-name="Trazado 1041732" d="M37.5,482v2.145h2.86V482Zm38.807,0v2.145h2.86V482Z" transform="translate(-34.64 -436.757)" fill="#bd815c" fill-rule="evenodd"/>
          <path id="Trazado_1041733" data-name="Trazado 1041733" d="M108.86,39.58a2.834,2.834,0,0,0,1.073-.21,2.871,2.871,0,0,1-1.788-2.65V33.859a2.871,2.871,0,0,1,1.788-2.65A2.834,2.834,0,0,0,108.86,31a2.869,2.869,0,0,0-2.86,2.86V36.72A2.869,2.869,0,0,0,108.86,39.58Z" transform="translate(-96.608 -28.758)" fill="#5ceaee" fill-rule="evenodd"/>
          <path id="Trazado_1041734" data-name="Trazado 1041734" d="M228.86,39.58a2.834,2.834,0,0,0,1.073-.21,2.871,2.871,0,0,1-1.788-2.65V33.859a2.871,2.871,0,0,1,1.788-2.65A2.834,2.834,0,0,0,228.86,31a2.869,2.869,0,0,0-2.86,2.86V36.72A2.869,2.869,0,0,0,228.86,39.58Z" transform="translate(-205.166 -28.758)" fill="#5ceaee" fill-rule="evenodd"/>
          <path id="Trazado_1041735" data-name="Trazado 1041735" d="M108.86,399.581a2.869,2.869,0,0,0,2.86-2.86V393.86a2.86,2.86,0,1,0-5.721,0v2.861A2.869,2.869,0,0,0,108.86,399.581Z" transform="translate(-96.608 -354.434)" fill="#de95c2" fill-rule="evenodd"/>
          <path id="Trazado_1041736" data-name="Trazado 1041736" d="M226,396.721a2.86,2.86,0,0,0,5.721,0V393.86a2.86,2.86,0,1,0-5.721,0Z" transform="translate(-205.166 -354.434)" fill="#de95c2" fill-rule="evenodd"/>
          <path id="Trazado_1041737" data-name="Trazado 1041737" d="M286,396.721a2.86,2.86,0,0,0,5.721,0V393.86a2.86,2.86,0,1,0-5.721,0Z" transform="translate(-259.445 -354.434)" fill="#de95c2" fill-rule="evenodd"/>
          <path id="Trazado_1041738" data-name="Trazado 1041738" d="M346,396.721a2.86,2.86,0,1,0,5.721,0V393.86a2.86,2.86,0,1,0-5.721,0Z" transform="translate(-313.725 -354.434)" fill="#de95c2" fill-rule="evenodd"/>
          <path id="Trazado_1041739" data-name="Trazado 1041739" d="M108.86,399.581a2.834,2.834,0,0,0,1.073-.21,2.871,2.871,0,0,1-1.788-2.65V393.86a2.871,2.871,0,0,1,1.788-2.65,2.833,2.833,0,0,0-1.073-.21,2.869,2.869,0,0,0-2.86,2.86v2.861A2.869,2.869,0,0,0,108.86,399.581Z" transform="translate(-96.608 -354.434)" fill="#da6eac" fill-rule="evenodd"/>
          <path id="Trazado_1041740" data-name="Trazado 1041740" d="M228.86,399.581a2.834,2.834,0,0,0,1.073-.21,2.871,2.871,0,0,1-1.788-2.65V393.86a2.871,2.871,0,0,1,1.788-2.65,2.833,2.833,0,0,0-1.073-.21,2.869,2.869,0,0,0-2.86,2.86v2.861A2.869,2.869,0,0,0,228.86,399.581Z" transform="translate(-205.166 -354.434)" fill="#da6eac" fill-rule="evenodd"/>
          <path id="Trazado_1041741" data-name="Trazado 1041741" d="M348.86,159.58a2.869,2.869,0,0,1-2.86-2.86v-2.861a2.86,2.86,0,1,1,5.721,0v2.861A2.869,2.869,0,0,1,348.86,159.58Z" transform="translate(-313.725 -137.317)" fill="#fdef8e" fill-rule="evenodd"/>
          <path id="Trazado_1041742" data-name="Trazado 1041742" d="M231.721,156.72a2.86,2.86,0,1,1-5.721,0v-2.861a2.86,2.86,0,1,1,5.721,0Z" transform="translate(-205.166 -137.317)" fill="#fdef8e" fill-rule="evenodd"/>
          <path id="Trazado_1041743" data-name="Trazado 1041743" d="M171.721,156.72a2.86,2.86,0,1,1-5.721,0v-2.861a2.86,2.86,0,1,1,5.721,0Z" transform="translate(-150.887 -137.317)" fill="#fdef8e" fill-rule="evenodd"/>
          <path id="Trazado_1041744" data-name="Trazado 1041744" d="M111.721,156.72a2.86,2.86,0,1,1-5.721,0v-2.861a2.86,2.86,0,1,1,5.721,0Z" transform="translate(-96.608 -137.317)" fill="#fdef8e" fill-rule="evenodd"/>
          <path id="Trazado_1041745" data-name="Trazado 1041745" d="M171.721,276.721a2.86,2.86,0,1,1-5.721,0v-2.86a2.86,2.86,0,0,1,5.721,0Z" transform="translate(-150.887 -245.876)" fill="#b5efbc" fill-rule="evenodd"/>
          <path id="Trazado_1041746" data-name="Trazado 1041746" d="M111.721,276.721a2.86,2.86,0,1,1-5.721,0v-2.86a2.86,2.86,0,0,1,5.721,0Z" transform="translate(-96.608 -245.876)" fill="#b5efbc" fill-rule="evenodd"/>
          <path id="Trazado_1041747" data-name="Trazado 1041747" d="M351.72,276.721a2.86,2.86,0,1,1-5.721,0v-2.86a2.86,2.86,0,0,1,5.721,0Z" transform="translate(-313.724 -245.876)" fill="#b5efbc" fill-rule="evenodd"/>
          <path id="Trazado_1041748" data-name="Trazado 1041748" d="M291.721,276.721a2.86,2.86,0,1,1-5.721,0v-2.86a2.86,2.86,0,0,1,5.721,0Z" transform="translate(-259.445 -245.876)" fill="#b5efbc" fill-rule="evenodd"/>
          <path id="Trazado_1041749" data-name="Trazado 1041749" d="M108.86,159.581a2.834,2.834,0,0,0,1.073-.21,2.871,2.871,0,0,1-1.788-2.65V153.86a2.871,2.871,0,0,1,1.788-2.65,2.833,2.833,0,0,0-1.073-.21,2.869,2.869,0,0,0-2.86,2.86v2.86A2.869,2.869,0,0,0,108.86,159.581Z" transform="translate(-96.608 -137.317)" fill="#fee026" fill-rule="evenodd"/>
          <path id="Trazado_1041750" data-name="Trazado 1041750" d="M108.86,279.581a2.834,2.834,0,0,0,1.073-.21,2.871,2.871,0,0,1-1.788-2.65v-2.86a2.871,2.871,0,0,1,1.788-2.65,2.831,2.831,0,0,0-1.073-.21,2.869,2.869,0,0,0-2.86,2.86v2.86A2.869,2.869,0,0,0,108.86,279.581Z" transform="translate(-96.608 -245.876)" fill="#6ee0bc" fill-rule="evenodd"/>
          <path id="Trazado_1041751" data-name="Trazado 1041751" d="M288.86,279.581a2.834,2.834,0,0,0,1.073-.21,2.871,2.871,0,0,1-1.788-2.65v-2.86a2.871,2.871,0,0,1,1.788-2.65,2.832,2.832,0,0,0-1.073-.21,2.869,2.869,0,0,0-2.86,2.86v2.86A2.869,2.869,0,0,0,288.86,279.581Z" transform="translate(-259.445 -245.876)" fill="#6ee0bc" fill-rule="evenodd"/>
          <path id="Trazado_1041752" data-name="Trazado 1041752" d="M348.86,159.581a2.834,2.834,0,0,0,1.073-.21,2.871,2.871,0,0,1-1.788-2.65V153.86a2.871,2.871,0,0,1,1.788-2.65,2.834,2.834,0,0,0-1.073-.21,2.869,2.869,0,0,0-2.86,2.86v2.86A2.869,2.869,0,0,0,348.86,159.581Z" transform="translate(-313.725 -137.317)" fill="#fee026" fill-rule="evenodd"/>
        </g>
        <g id="Grupo_1203194" data-name="Grupo 1203194" transform="translate(34.421 5.101)">
          <path id="Trazado_1041753" data-name="Trazado 1041753" d="M368.5,61h1.43v1.43H368.5Z" transform="translate(-368.5 -61)" fill="#fff"/>
        </g>
      </g>
      <path id="Trazado_1041754" data-name="Trazado 1041754" d="M46.673,20.834a2.145,2.145,0,0,0,0-4.291h-.715V9.392h.715a2.145,2.145,0,0,0,0-4.291h-.715V0H41.667V5.1H39.355a3.574,3.574,0,0,0-6.364-1.428,3.572,3.572,0,0,0-5.721,0A3.574,3.574,0,0,0,20.906,5.1H16.471a3.576,3.576,0,0,0-7.007,0H7.151V0H2.86V5.1H2.145a2.145,2.145,0,0,0,0,4.291H2.86v2.86h1.43V1.43h1.43V47.388H4.291V13.683H2.86v2.86H2.145a2.145,2.145,0,0,0,0,4.291H2.86v7.151H2.145a2.145,2.145,0,0,0,0,4.291H2.86v7.151H2.145a2.145,2.145,0,0,0,0,4.291H2.86v5.1H7.151v-5.1H9.464a3.576,3.576,0,0,0,7.007,0h4.435a3.574,3.574,0,0,0,6.364,1.428,3.572,3.572,0,0,0,5.721,0,3.574,3.574,0,0,0,6.364-1.428h2.313v5.1h4.291v-5.1h.715a2.145,2.145,0,0,0,0-4.291h-.715v-2.86h-1.43V47.388H43.1V1.43h1.43V35.136h1.43v-2.86h.715a2.145,2.145,0,0,0,0-4.291h-.715V20.834ZM2.145,7.962a.715.715,0,0,1,0-1.43H2.86v1.43Zm0,11.442a.715.715,0,0,1,0-1.43H2.86V19.4Zm0,11.442a.715.715,0,0,1,0-1.43H2.86v1.43Zm0,11.442a.715.715,0,0,1,0-1.43H2.86v1.43Zm44.528-1.43a.715.715,0,0,1,0,1.43h-.715v-1.43ZM41.667,6.531v1.43H39.427V6.531Zm-5.816-2.86A2.148,2.148,0,0,1,38,5.816v2.86a2.145,2.145,0,0,1-4.291,0V5.816A2.148,2.148,0,0,1,35.851,3.671Zm-5.721,0a2.148,2.148,0,0,1,2.145,2.145v2.86a2.145,2.145,0,0,1-4.291,0V5.816A2.148,2.148,0,0,1,30.13,3.671ZM22.264,5.816a2.145,2.145,0,0,1,4.291,0v2.86a2.145,2.145,0,0,1-4.291,0Zm-1.43,2.145H16.543V6.531h4.291ZM10.822,5.816a2.145,2.145,0,1,1,4.291,0v2.86a2.145,2.145,0,1,1-4.291,0Zm2.145,6.436a3.582,3.582,0,0,0,3.5-2.86h4.435A3.574,3.574,0,0,0,27.27,10.82a3.572,3.572,0,0,0,5.721,0,3.574,3.574,0,0,0,6.364-1.428h2.313v7.151H39.355a3.576,3.576,0,0,0-7.007,0H27.913a3.574,3.574,0,0,0-6.364-1.428,3.572,3.572,0,0,0-5.721,0,3.574,3.574,0,0,0-6.364,1.428H7.151V9.392H9.464a3.582,3.582,0,0,0,3.5,2.86ZM39.427,29.415h2.241v1.43H39.427Zm-.072-1.43a3.574,3.574,0,0,0-6.364-1.428,3.574,3.574,0,0,0-6.364,1.428H22.192a3.574,3.574,0,0,0-6.364-1.428,3.574,3.574,0,0,0-6.364,1.428H7.151V20.834H9.464a3.574,3.574,0,0,0,6.364,1.428,3.572,3.572,0,0,0,5.721,0,3.574,3.574,0,0,0,6.364-1.428h4.435a3.576,3.576,0,0,0,7.007,0h2.313v7.151ZM32.276,31.56a2.145,2.145,0,1,1-4.291,0V28.7a2.145,2.145,0,1,1,4.291,0Zm1.43-2.86A2.145,2.145,0,0,1,38,28.7v2.86a2.145,2.145,0,1,1-4.291,0Zm-7.151,2.145H22.264v-1.43h4.291Zm-11.442.715a2.145,2.145,0,1,1-4.291,0V28.7a2.145,2.145,0,1,1,4.291,0Zm1.43-2.86a2.145,2.145,0,1,1,4.291,0v2.86a2.145,2.145,0,1,1-4.291,0ZM9.392,30.845H7.151v-1.43H9.392Zm0-11.442H7.151v-1.43H9.392Zm12.872-2.145a2.145,2.145,0,0,1,4.291,0v2.86a2.145,2.145,0,0,1-4.291,0Zm-1.43,2.86a2.145,2.145,0,0,1-4.291,0v-2.86a2.145,2.145,0,0,1,4.291,0Zm-5.721,0a2.145,2.145,0,1,1-4.291,0v-2.86a2.145,2.145,0,1,1,4.291,0Zm12.872-2.145h4.291V19.4H27.985Zm5.721,2.145v-2.86a2.145,2.145,0,0,1,4.291,0v2.86a2.145,2.145,0,0,1-4.291,0Zm5.721-.715v-1.43h2.241V19.4ZM9.392,6.531v1.43H7.151V6.531ZM7.151,40.857H9.392v1.43H7.151ZM15.113,43a2.145,2.145,0,0,1-4.291,0v-2.86a2.145,2.145,0,0,1,4.291,0Zm1.43-2.145h4.291v1.43H16.543Zm7.866,4.291A2.148,2.148,0,0,1,22.264,43v-2.86a2.145,2.145,0,0,1,4.291,0V43A2.148,2.148,0,0,1,24.409,45.148Zm5.721,0A2.148,2.148,0,0,1,27.985,43v-2.86a2.145,2.145,0,0,1,4.291,0V43A2.148,2.148,0,0,1,30.13,45.148ZM38,43a2.145,2.145,0,0,1-4.291,0v-2.86a2.145,2.145,0,0,1,4.291,0Zm-2.145-6.436A3.572,3.572,0,0,0,32.991,38a3.572,3.572,0,0,0-5.721,0,3.574,3.574,0,0,0-6.364,1.428H16.471a3.576,3.576,0,0,0-7.007,0H7.151V32.275H9.464A3.574,3.574,0,0,0,15.828,33.7a3.574,3.574,0,0,0,6.364-1.428h4.435A3.574,3.574,0,0,0,32.991,33.7a3.574,3.574,0,0,0,6.364-1.428h2.313v7.151H39.355A3.582,3.582,0,0,0,35.851,36.566Zm3.576,5.721v-1.43h2.241v1.43Zm7.247-24.314a.715.715,0,0,1,0,1.43h-.715v-1.43Zm0-11.442a.715.715,0,0,1,0,1.43h-.715V6.531Zm0,22.884a.715.715,0,0,1,0,1.43h-.715v-1.43Z"/>
    </g>
  </g>
</svg>
