<svg xmlns="http://www.w3.org/2000/svg" xmlns:xlink="http://www.w3.org/1999/xlink" width="98.32" height="98.32" viewBox="0 0 98.32 98.32">
  <defs>
    <filter id="Trazado_982547" x="0" y="0" width="98.32" height="98.32" filterUnits="userSpaceOnUse">
      <feOffset dy="3" input="SourceAlpha"/>
      <feGaussianBlur stdDeviation="3" result="blur"/>
      <feFlood flood-opacity="0.161"/>
      <feComposite operator="in" in2="blur"/>
      <feComposite in="SourceGraphic"/>
    </filter>
  </defs>
  <g id="Grupo_1203198" data-name="Grupo 1203198" transform="translate(-608 -4461)">
    <g id="Grupo_1202424" data-name="Grupo 1202424" transform="translate(617 4467)">
      <g id="Grupo_1202161" data-name="Grupo 1202161" transform="translate(0 0)">
        <g id="Grupo_1177900" data-name="Grupo 1177900" transform="translate(0 0)">
          <g id="Grupo_1172010" data-name="Grupo 1172010">
            <g id="Grupo_1171046" data-name="Grupo 1171046">
              <g id="Grupo_1148525" data-name="Grupo 1148525">
                <g transform="matrix(1, 0, 0, 1, -9, -6)" filter="url(#Trazado_982547)">
                  <g id="Trazado_982547-2" data-name="Trazado 982547" transform="translate(9 6)" fill="#fdfbec">
                    <path d="M 40.1600341796875 78.820068359375 C 34.94030380249023 78.820068359375 29.87750434875488 77.79811859130859 25.11225700378418 75.78258514404297 C 20.50883483886719 73.83550262451172 16.37421035766602 71.04776000976562 12.82325744628906 67.49681091308594 C 9.272304534912109 63.94585800170898 6.484563827514648 59.81123352050781 4.537481307983398 55.20780944824219 C 2.521951913833618 50.44256210327148 1.499998927116394 45.37976455688477 1.499998927116394 40.1600341796875 C 1.499998927116394 34.94030380249023 2.521951913833618 29.87750434875488 4.537481307983398 25.11225700378418 C 6.484563827514648 20.50883483886719 9.272304534912109 16.37421035766602 12.82325744628906 12.82325744628906 C 16.37421035766602 9.272304534912109 20.50883483886719 6.484563827514648 25.11225700378418 4.537481307983398 C 29.87750434875488 2.521951913833618 34.94030380249023 1.499998927116394 40.1600341796875 1.499998927116394 C 45.37976455688477 1.499998927116394 50.44256210327148 2.521951913833618 55.20780944824219 4.537481307983398 C 59.81123352050781 6.484563827514648 63.94585800170898 9.272304534912109 67.49681091308594 12.82325744628906 C 71.04776000976562 16.37421035766602 73.83550262451172 20.50883483886719 75.78258514404297 25.11225700378418 C 77.79811859130859 29.87750434875488 78.820068359375 34.94030380249023 78.820068359375 40.1600341796875 C 78.820068359375 45.37976455688477 77.79811859130859 50.44256210327148 75.78258514404297 55.20780944824219 C 73.83550262451172 59.81123352050781 71.04776000976562 63.94585800170898 67.49681091308594 67.49681091308594 C 63.94585800170898 71.04776000976562 59.81123352050781 73.83550262451172 55.20780944824219 75.78258514404297 C 50.44256210327148 77.79811859130859 45.37976455688477 78.820068359375 40.1600341796875 78.820068359375 Z" stroke="none"/>
                    <path d="M 40.1600341796875 2.999992370605469 C 35.14213943481445 2.999992370605469 30.27593994140625 3.982086181640625 25.69659423828125 5.918983459472656 C 21.27195358276367 7.790451049804688 17.297607421875 10.47023773193359 13.8839111328125 13.8839111328125 C 10.47023773193359 17.297607421875 7.790451049804688 21.27195358276367 5.918983459472656 25.69659423828125 C 3.982086181640625 30.27593994140625 2.999992370605469 35.14213943481445 2.999992370605469 40.1600341796875 C 2.999992370605469 45.17792892456055 3.982086181640625 50.04412841796875 5.918983459472656 54.62347412109375 C 7.790451049804688 59.04810333251953 10.47023773193359 63.0224609375 13.8839111328125 66.43614196777344 C 17.297607421875 69.84982299804688 21.27195358276367 72.52960968017578 25.69659423828125 74.40107727050781 C 30.27593994140625 76.33796691894531 35.14213943481445 77.32006072998047 40.1600341796875 77.32006072998047 C 45.17792892456055 77.32006072998047 50.04412841796875 76.33796691894531 54.62347412109375 74.40107727050781 C 59.04810333251953 72.52960968017578 63.0224609375 69.84982299804688 66.43614196777344 66.43614196777344 C 69.84982299804688 63.0224609375 72.52960968017578 59.04810333251953 74.40107727050781 54.62347412109375 C 76.33796691894531 50.04412841796875 77.32006072998047 45.17792892456055 77.32006072998047 40.1600341796875 C 77.32006072998047 35.14213943481445 76.33796691894531 30.27593994140625 74.40107727050781 25.69659423828125 C 72.52960968017578 21.27195358276367 69.84982299804688 17.297607421875 66.43614196777344 13.8839111328125 C 63.0224609375 10.47023773193359 59.04810333251953 7.790451049804688 54.62347412109375 5.918983459472656 C 50.04412841796875 3.982086181640625 45.17792892456055 2.999992370605469 40.1600341796875 2.999992370605469 M 40.1600341796875 -7.62939453125e-06 C 62.33980560302734 -7.62939453125e-06 80.32006072998047 17.98025894165039 80.32006072998047 40.1600341796875 C 80.32006072998047 62.33980560302734 62.33980560302734 80.32006072998047 40.1600341796875 80.32006072998047 C 17.98025894165039 80.32006072998047 -7.62939453125e-06 62.33980560302734 -7.62939453125e-06 40.1600341796875 C -7.62939453125e-06 17.98025894165039 17.98025894165039 -7.62939453125e-06 40.1600341796875 -7.62939453125e-06 Z" stroke="none" fill="#83793c"/>
                  </g>
                </g>
              </g>
            </g>
          </g>
        </g>
      </g>
    </g>
    <g id="reconocimiento-de-patrones" transform="translate(627.666 4477.428)">
      <path id="Trazado_1041770" data-name="Trazado 1041770" d="M20.529,21.8H27.5v6.972H20.529Z" transform="translate(-12.085 -12.869)" fill="#72c1e8"/>
      <path id="Trazado_1041771" data-name="Trazado 1041771" d="M30.739,32.5h-1.5a.49.49,0,0,1,0-.979H30.25v-3.1a.49.49,0,1,1,.979,0v3.592A.49.49,0,0,1,30.739,32.5Zm-3.459,0h-.132a.49.49,0,1,1,0-.979h.132a.49.49,0,1,1,0,.979Z" transform="translate(-17.014 -17.798)" fill="#c5e5ff"/>
      <path id="Trazado_1041772" data-name="Trazado 1041772" d="M75.81,22.343l2.772,4.8a1.085,1.085,0,0,1-.94,1.627H72.1a1.085,1.085,0,0,1-.94-1.627l2.772-4.8A1.085,1.085,0,0,1,75.81,22.343Z" transform="translate(-52.68 -12.87)" fill="#fc5d3d"/>
      <path id="Trazado_1041773" data-name="Trazado 1041773" d="M89.827,34.623l-.349-.649a.49.49,0,0,1,.862-.464l.349.649a.49.49,0,0,1-.862.464ZM88.55,32.249l-.279-.517a.49.49,0,1,1,.862-.464l.279.517a.49.49,0,1,1-.862.464Z" transform="translate(-66.512 -20.275)" fill="#ffcbc3"/>
      <path id="Trazado_1041774" data-name="Trazado 1041774" d="M72.916,70.834h6.972v6.972H72.916Z" transform="translate(-54.211 -52.299)" fill="#f0c020"/>
      <path id="Trazado_1041775" data-name="Trazado 1041775" d="M83.126,81.533h-1.5a.49.49,0,1,1,0-.979h1.011v-3.1a.49.49,0,1,1,.979,0v3.592A.49.49,0,0,1,83.126,81.533Zm-3.459,0h-.132a.49.49,0,0,1,0-.979h.132a.49.49,0,0,1,0,.979Z" transform="translate(-59.139 -57.227)" fill="#f8e5b0"/>
      <circle id="Elipse_12593" data-name="Elipse 12593" cx="3.757" cy="3.757" r="3.757" transform="translate(8.172 18.535)" fill="#13bf6d"/>
      <path id="Trazado_1041776" data-name="Trazado 1041776" d="M30.4,84.128a.49.49,0,0,1,.341-.6,1.578,1.578,0,0,0,.691-2.635.49.49,0,0,1,.692-.692A2.558,2.558,0,0,1,31,84.469.49.49,0,0,1,30.4,84.128ZM28.715,84a2.62,2.62,0,0,1-.208-.187.49.49,0,1,1,.693-.692,1.587,1.587,0,0,0,.129.116.49.49,0,0,1-.614.763Z" transform="translate(-18.385 -59.713)" fill="#76ffba"/>
      <path id="Trazado_1041777" data-name="Trazado 1041777" d="M146.122,21.8h6.972v6.972h-6.972Z" transform="translate(-113.078 -12.869)" fill="#72c1e8"/>
      <path id="Trazado_1041778" data-name="Trazado 1041778" d="M156.332,32.5h-1.5a.49.49,0,0,1,0-.979h1.011v-3.1a.49.49,0,0,1,.979,0v3.592A.49.49,0,0,1,156.332,32.5Zm-3.459,0h-.132a.49.49,0,0,1,0-.979h.132a.49.49,0,0,1,0,.979Z" transform="translate(-118.007 -17.798)" fill="#c5e5ff"/>
      <path id="Trazado_1041779" data-name="Trazado 1041779" d="M201.4,22.343l2.772,4.8a1.085,1.085,0,0,1-.94,1.627h-5.545a1.085,1.085,0,0,1-.94-1.627l2.772-4.8A1.085,1.085,0,0,1,201.4,22.343Z" transform="translate(-153.673 -12.87)" fill="#fc5d3d"/>
      <path id="Trazado_1041780" data-name="Trazado 1041780" d="M215.419,34.623l-.349-.649a.49.49,0,0,1,.862-.464l.349.649a.49.49,0,1,1-.862.464Zm-1.277-2.374-.279-.517a.49.49,0,1,1,.862-.464l.279.517a.49.49,0,1,1-.862.464Z" transform="translate(-167.504 -20.275)" fill="#ffcbc3"/>
      <path id="Trazado_1041781" data-name="Trazado 1041781" d="M198.509,70.834h6.972v6.972h-6.972Z" transform="translate(-155.204 -52.299)" fill="#f0c020"/>
      <path id="Trazado_1041782" data-name="Trazado 1041782" d="M208.719,81.533h-1.5a.49.49,0,0,1,0-.979h1.011v-3.1a.49.49,0,1,1,.979,0v3.592A.49.49,0,0,1,208.719,81.533Zm-3.459,0h-.132a.49.49,0,0,1,0-.979h.132a.49.49,0,0,1,0,.979Z" transform="translate(-160.132 -57.227)" fill="#f8e5b0"/>
      <circle id="Elipse_12594" data-name="Elipse 12594" cx="3.757" cy="3.757" r="3.757" transform="translate(32.772 18.535)" fill="#13bf6d"/>
      <path id="Trazado_1041783" data-name="Trazado 1041783" d="M155.99,84.128a.49.49,0,0,1,.341-.6,1.579,1.579,0,0,0,.691-2.635.49.49,0,0,1,.692-.692,2.558,2.558,0,0,1-1.123,4.271A.49.49,0,0,1,155.99,84.128ZM154.307,84a2.652,2.652,0,0,1-.208-.186.49.49,0,0,1,.692-.693,1.612,1.612,0,0,0,.13.116.49.49,0,0,1-.614.763Z" transform="translate(-119.378 -59.713)" fill="#76ffba"/>
      <path id="Trazado_1041784" data-name="Trazado 1041784" d="M20.529,146.8H27.5v6.972H20.529Z" transform="translate(-12.085 -113.386)" fill="#72c1e8"/>
      <path id="Trazado_1041785" data-name="Trazado 1041785" d="M30.739,157.5h-1.5a.49.49,0,1,1,0-.979H30.25v-3.1a.49.49,0,1,1,.979,0v3.592A.49.49,0,0,1,30.739,157.5Zm-3.459,0h-.132a.49.49,0,1,1,0-.979h.132a.49.49,0,1,1,0,.979Z" transform="translate(-17.014 -118.314)" fill="#c5e5ff"/>
      <path id="Trazado_1041786" data-name="Trazado 1041786" d="M75.81,147.343l2.772,4.8a1.085,1.085,0,0,1-.94,1.627H72.1a1.085,1.085,0,0,1-.94-1.627l2.772-4.8A1.085,1.085,0,0,1,75.81,147.343Z" transform="translate(-52.68 -113.386)" fill="#fc5d3d"/>
      <path id="Trazado_1041787" data-name="Trazado 1041787" d="M89.827,159.623l-.349-.649a.49.49,0,0,1,.862-.464l.349.649a.49.49,0,1,1-.862.464Zm-1.277-2.374-.279-.518a.49.49,0,1,1,.862-.464l.279.517a.49.49,0,1,1-.862.464Z" transform="translate(-66.512 -120.792)" fill="#ffcbc3"/>
      <path id="Trazado_1041788" data-name="Trazado 1041788" d="M72.916,195.834h6.972v6.972H72.916Z" transform="translate(-54.211 -152.815)" fill="#f0c020"/>
      <path id="Trazado_1041789" data-name="Trazado 1041789" d="M83.126,206.533h-1.5a.49.49,0,1,1,0-.979h1.011v-3.1a.49.49,0,1,1,.979,0v3.592A.49.49,0,0,1,83.126,206.533Zm-3.459,0h-.132a.49.49,0,0,1,0-.979h.132a.49.49,0,0,1,0,.979Z" transform="translate(-59.139 -157.743)" fill="#f8e5b0"/>
      <circle id="Elipse_12595" data-name="Elipse 12595" cx="3.757" cy="3.757" r="3.757" transform="translate(8.172 43.019)" fill="#13bf6d"/>
      <path id="Trazado_1041790" data-name="Trazado 1041790" d="M30.4,209.127a.49.49,0,0,1,.341-.6,1.578,1.578,0,0,0,.691-2.635.49.49,0,0,1,.692-.692A2.557,2.557,0,0,1,31,209.469.49.49,0,0,1,30.4,209.127ZM28.715,209a2.614,2.614,0,0,1-.208-.187.49.49,0,1,1,.693-.692,1.58,1.58,0,0,0,.129.116.49.49,0,0,1-.614.763Z" transform="translate(-18.385 -160.23)" fill="#76ffba"/>
      <path id="Trazado_1041791" data-name="Trazado 1041791" d="M146.122,146.8h6.972v6.972h-6.972Z" transform="translate(-113.078 -113.386)" fill="#72c1e8"/>
      <path id="Trazado_1041792" data-name="Trazado 1041792" d="M156.332,157.5h-1.5a.49.49,0,0,1,0-.979h1.011v-3.1a.49.49,0,1,1,.979,0v3.592A.49.49,0,0,1,156.332,157.5Zm-3.459,0h-.132a.49.49,0,1,1,0-.979h.132a.49.49,0,0,1,0,.979Z" transform="translate(-118.007 -118.314)" fill="#c5e5ff"/>
      <path id="Trazado_1041793" data-name="Trazado 1041793" d="M201.4,147.343l2.772,4.8a1.085,1.085,0,0,1-.94,1.627h-5.545a1.085,1.085,0,0,1-.94-1.627l2.772-4.8A1.085,1.085,0,0,1,201.4,147.343Z" transform="translate(-153.673 -113.386)" fill="#fc5d3d"/>
      <path id="Trazado_1041794" data-name="Trazado 1041794" d="M215.419,159.623l-.349-.649a.49.49,0,0,1,.862-.464l.349.649a.49.49,0,1,1-.862.464Zm-1.277-2.374-.279-.518a.49.49,0,1,1,.862-.464l.279.517a.49.49,0,1,1-.862.464Z" transform="translate(-167.504 -120.792)" fill="#ffcbc3"/>
      <path id="Trazado_1041795" data-name="Trazado 1041795" d="M198.509,195.834h6.972v6.972h-6.972Z" transform="translate(-155.204 -152.815)" fill="#f0c020"/>
      <path id="Trazado_1041796" data-name="Trazado 1041796" d="M208.719,206.533h-1.5a.49.49,0,0,1,0-.979h1.011v-3.1a.49.49,0,1,1,.979,0v3.592A.49.49,0,0,1,208.719,206.533Zm-3.459,0h-.132a.49.49,0,0,1,0-.979h.132a.49.49,0,0,1,0,.979Z" transform="translate(-160.132 -157.743)" fill="#f8e5b0"/>
      <circle id="Elipse_12596" data-name="Elipse 12596" cx="3.757" cy="3.757" r="3.757" transform="translate(32.772 43.019)" fill="#13bf6d"/>
      <path id="Trazado_1041797" data-name="Trazado 1041797" d="M155.99,209.127a.49.49,0,0,1,.341-.6,1.579,1.579,0,0,0,.691-2.635.49.49,0,0,1,.692-.692,2.557,2.557,0,0,1-1.123,4.271A.49.49,0,0,1,155.99,209.127ZM154.307,209a2.647,2.647,0,0,1-.208-.186.49.49,0,0,1,.692-.693,1.61,1.61,0,0,0,.13.116.49.49,0,0,1-.614.763Z" transform="translate(-119.378 -160.23)" fill="#76ffba"/>
      <path id="Trazado_1041798" data-name="Trazado 1041798" d="M18.519,27.251h6.972a.49.49,0,0,0,.49-.49V19.79a.49.49,0,0,0-.49-.49H18.519a.49.49,0,0,0-.49.49v6.972A.49.49,0,0,0,18.519,27.251Zm.49-6.972H25v5.993H19.008Z" transform="translate(-10.075 -10.859)"/>
      <path id="Trazado_1041799" data-name="Trazado 1041799" d="M70.085,27.25H75.63a1.576,1.576,0,0,0,1.363-2.362l-2.772-4.8a1.576,1.576,0,0,0-2.728,0l-2.772,4.8A1.575,1.575,0,0,0,70.085,27.25Zm-.517-1.871,2.774-4.8a.6.6,0,0,1,1.032,0l2.772,4.8a.6.6,0,0,1-.515.893H70.085a.6.6,0,0,1-.517-.891Z" transform="translate(-50.667 -10.858)"/>
      <path id="Trazado_1041800" data-name="Trazado 1041800" d="M77.878,68.334H70.906a.49.49,0,0,0-.49.49V75.8a.49.49,0,0,0,.49.49h6.972a.49.49,0,0,0,.49-.49V68.824A.49.49,0,0,0,77.878,68.334Zm-.49,6.972H71.4V69.313h5.993Z" transform="translate(-52.201 -50.289)"/>
      <path id="Trazado_1041801" data-name="Trazado 1041801" d="M20.888,68.33a4.248,4.248,0,1,0,4.246,4.248A4.256,4.256,0,0,0,20.888,68.33Zm0,7.516a3.268,3.268,0,1,1,3.267-3.267A3.282,3.282,0,0,1,20.888,75.846Z" transform="translate(-8.958 -50.285)"/>
      <path id="Trazado_1041802" data-name="Trazado 1041802" d="M5.5,8.244V26.736a2.451,2.451,0,0,0,2.448,2.448H26.44a2.451,2.451,0,0,0,2.448-2.448V8.244A2.451,2.451,0,0,0,26.44,5.8H7.948A2.451,2.451,0,0,0,5.5,8.244Zm22.409,0V26.736a1.471,1.471,0,0,1-1.469,1.469H7.948a1.471,1.471,0,0,1-1.469-1.469V8.244A1.471,1.471,0,0,1,7.948,6.775H26.44A1.471,1.471,0,0,1,27.909,8.244Z" transform="translate(0 0)"/>
      <path id="Trazado_1041803" data-name="Trazado 1041803" d="M151.083,27.251a.49.49,0,0,0,.49-.49V19.79a.49.49,0,0,0-.49-.49h-6.972a.49.49,0,0,0-.49.49v6.972a.49.49,0,0,0,.49.49ZM144.6,20.279h5.993v5.993H144.6Z" transform="translate(-111.067 -10.859)"/>
      <path id="Trazado_1041804" data-name="Trazado 1041804" d="M202.586,24.888l-2.772-4.8a1.576,1.576,0,0,0-2.728,0l-2.772,4.8a1.575,1.575,0,0,0,1.363,2.362h5.545A1.575,1.575,0,0,0,202.586,24.888Zm-1.363,1.383h-5.545a.6.6,0,0,1-.515-.891l2.772-4.8a.6.6,0,0,1,1.032,0l2.772,4.8A.6.6,0,0,1,201.223,26.271Z" transform="translate(-151.66 -10.858)"/>
      <path id="Trazado_1041805" data-name="Trazado 1041805" d="M203.47,68.334H196.5a.49.49,0,0,0-.49.49V75.8a.49.49,0,0,0,.49.49h6.972a.49.49,0,0,0,.49-.49V68.824A.49.49,0,0,0,203.47,68.334Zm-.49,6.972h-5.993V69.313h5.993Z" transform="translate(-153.193 -50.289)"/>
      <path id="Trazado_1041806" data-name="Trazado 1041806" d="M146.486,76.825a4.247,4.247,0,1,0-4.246-4.247A4.252,4.252,0,0,0,146.486,76.825Zm0-7.516a3.268,3.268,0,1,1-3.267,3.269A3.281,3.281,0,0,1,146.486,69.309Z" transform="translate(-109.957 -50.285)"/>
      <path id="Trazado_1041807" data-name="Trazado 1041807" d="M152.03,5.8H133.538a2.451,2.451,0,0,0-2.448,2.448v18.49a2.451,2.451,0,0,0,2.448,2.448H152.03a2.451,2.451,0,0,0,2.448-2.448V16.011a.49.49,0,0,0-.979,0V26.738a1.473,1.473,0,0,1-1.469,1.469H133.538a1.473,1.473,0,0,1-1.469-1.469V8.248a1.473,1.473,0,0,1,1.469-1.469H152.03A1.473,1.473,0,0,1,153.5,8.248v3.845a.49.49,0,1,0,.979,0V8.248A2.45,2.45,0,0,0,152.03,5.8Z" transform="translate(-100.991 -0.003)"/>
      <circle id="Elipse_12597" data-name="Elipse 12597" cx="0.49" cy="0.49" r="0.49" transform="translate(52.509 13.559)"/>
      <path id="Trazado_1041808" data-name="Trazado 1041808" d="M25.491,152.251a.49.49,0,0,0,.49-.49V144.79a.49.49,0,0,0-.49-.49H18.519a.49.49,0,0,0-.49.49v6.972a.49.49,0,0,0,.49.49Zm-6.482-6.972H25v5.993H19.008Z" transform="translate(-10.075 -111.375)"/>
      <path id="Trazado_1041809" data-name="Trazado 1041809" d="M76.994,149.888l-2.772-4.8a1.576,1.576,0,0,0-2.728,0l-2.772,4.8a1.575,1.575,0,0,0,1.363,2.362h5.545A1.576,1.576,0,0,0,76.994,149.888Zm-1.363,1.383H70.086a.6.6,0,0,1-.517-.891l2.773-4.8a.6.6,0,0,1,1.032,0l2.772,4.8A.6.6,0,0,1,75.631,151.27Z" transform="translate(-50.667 -111.375)"/>
      <path id="Trazado_1041810" data-name="Trazado 1041810" d="M77.878,193.334H70.906a.49.49,0,0,0-.49.49V200.8a.49.49,0,0,0,.49.49h6.972a.49.49,0,0,0,.49-.49v-6.972A.49.49,0,0,0,77.878,193.334Zm-.49,6.972H71.4v-5.993h5.993Z" transform="translate(-52.201 -150.805)"/>
      <path id="Trazado_1041811" data-name="Trazado 1041811" d="M20.888,201.825a4.247,4.247,0,1,0-4.248-4.247A4.252,4.252,0,0,0,20.888,201.825Zm0-7.516a3.268,3.268,0,1,1-3.269,3.269A3.281,3.281,0,0,1,20.888,194.309Z" transform="translate(-8.958 -150.802)"/>
      <path id="Trazado_1041812" data-name="Trazado 1041812" d="M5.99,176.3a.49.49,0,1,0-.49-.488A.489.489,0,0,0,5.99,176.3Z" transform="translate(0 -136.319)"/>
      <path id="Trazado_1041813" data-name="Trazado 1041813" d="M5.5,151.738a2.451,2.451,0,0,0,2.448,2.448H26.44a2.451,2.451,0,0,0,2.448-2.448V133.246A2.45,2.45,0,0,0,26.44,130.8H7.948A2.45,2.45,0,0,0,5.5,133.246v4.807a.49.49,0,1,0,.979,0v-4.807a1.476,1.476,0,0,1,1.469-1.469H26.44a1.476,1.476,0,0,1,1.469,1.469v18.492a1.473,1.473,0,0,1-1.469,1.469H7.948a1.473,1.473,0,0,1-1.469-1.469V141.97a.49.49,0,1,0-.979,0Z" transform="translate(0 -100.519)"/>
      <path id="Trazado_1041814" data-name="Trazado 1041814" d="M144.112,152.251h6.972a.49.49,0,0,0,.49-.49V144.79a.49.49,0,0,0-.49-.49h-6.972a.49.49,0,0,0-.49.49v6.972A.49.49,0,0,0,144.112,152.251Zm.49-6.972h5.993v5.993H144.6Z" transform="translate(-111.068 -111.375)"/>
      <path id="Trazado_1041815" data-name="Trazado 1041815" d="M199.815,145.087a1.576,1.576,0,0,0-2.728,0l-2.772,4.8a1.575,1.575,0,0,0,1.363,2.362h5.545a1.575,1.575,0,0,0,1.363-2.362Zm1.408,6.184h-5.545a.6.6,0,0,1-.515-.891l2.772-4.8a.6.6,0,0,1,1.032,0l2.772,4.8A.594.594,0,0,1,201.223,151.27Z" transform="translate(-151.66 -111.375)"/>
      <circle id="Elipse_12598" data-name="Elipse 12598" cx="0.49" cy="0.49" r="0.49" transform="translate(46.108 42.528)"/>
      <path id="Trazado_1041816" data-name="Trazado 1041816" d="M203.471,193.33h-1.72a.491.491,0,0,0,0,.981l0,0h1.226V200.3h-5.992v-5.994h.844a.49.49,0,1,0,0-.979H196.5a.491.491,0,0,0-.49.49v6.973a.488.488,0,0,0,.49.49h6.971a.488.488,0,0,0,.49-.49V193.82A.491.491,0,0,0,203.471,193.33Z" transform="translate(-153.195 -150.802)"/>
      <path id="Trazado_1041817" data-name="Trazado 1041817" d="M146.486,193.33a4.247,4.247,0,1,0,4.246,4.248A4.254,4.254,0,0,0,146.486,193.33Zm0,7.516a3.268,3.268,0,1,1,3.267-3.267A3.279,3.279,0,0,1,146.486,200.845Z" transform="translate(-109.957 -150.802)"/>
      <path id="Trazado_1041818" data-name="Trazado 1041818" d="M154.48,133.244a2.451,2.451,0,0,0-2.448-2.448H133.54a2.451,2.451,0,0,0-2.448,2.448v18.492a2.451,2.451,0,0,0,2.448,2.448h18.492a2.451,2.451,0,0,0,2.448-2.448Zm-.979,18.492a1.471,1.471,0,0,1-1.469,1.469H133.54a1.471,1.471,0,0,1-1.469-1.469V133.244a1.471,1.471,0,0,1,1.469-1.469h18.492a1.471,1.471,0,0,1,1.469,1.469Z" transform="translate(-100.992 -100.516)"/>
    </g>
  </g>
</svg>
