<svg xmlns="http://www.w3.org/2000/svg" xmlns:xlink="http://www.w3.org/1999/xlink" width="98.32" height="98.32" viewBox="0 0 98.32 98.32">
  <defs>
    <filter id="Trazado_982547" x="0" y="0" width="98.32" height="98.32" filterUnits="userSpaceOnUse">
      <feOffset dy="3" input="SourceAlpha"/>
      <feGaussianBlur stdDeviation="3" result="blur"/>
      <feFlood flood-opacity="0.161"/>
      <feComposite operator="in" in2="blur"/>
      <feComposite in="SourceGraphic"/>
    </filter>
  </defs>
  <g id="Grupo_1203202" data-name="Grupo 1203202" transform="translate(-1036 -4460)">
    <g id="Grupo_1202425" data-name="Grupo 1202425" transform="translate(1045 4466)">
      <g id="Grupo_1202160" data-name="Grupo 1202160" transform="translate(0 0)">
        <g id="Grupo_1177900" data-name="Grupo 1177900" transform="translate(0 0)">
          <g id="Grupo_1172010" data-name="Grupo 1172010" transform="translate(0)">
            <g id="Grupo_1171046" data-name="Grupo 1171046">
              <g id="Grupo_1148525" data-name="Grupo 1148525">
                <g transform="matrix(1, 0, 0, 1, -9, -6)" filter="url(#Trazado_982547)">
                  <g id="Trazado_982547-2" data-name="Trazado 982547" transform="translate(9 6)" fill="#fdfbec">
                    <path d="M 40.1600341796875 78.820068359375 C 34.94030380249023 78.820068359375 29.87750434875488 77.79811859130859 25.11225700378418 75.78258514404297 C 20.50883483886719 73.83550262451172 16.37421035766602 71.04776000976562 12.82325744628906 67.49681091308594 C 9.272304534912109 63.94585800170898 6.484563827514648 59.81123352050781 4.537481307983398 55.20780944824219 C 2.521951913833618 50.44256210327148 1.499998927116394 45.37976455688477 1.499998927116394 40.1600341796875 C 1.499998927116394 34.94030380249023 2.521951913833618 29.87750434875488 4.537481307983398 25.11225700378418 C 6.484563827514648 20.50883483886719 9.272304534912109 16.37421035766602 12.82325744628906 12.82325744628906 C 16.37421035766602 9.272304534912109 20.50883483886719 6.484563827514648 25.11225700378418 4.537481307983398 C 29.87750434875488 2.521951913833618 34.94030380249023 1.499998927116394 40.1600341796875 1.499998927116394 C 45.37976455688477 1.499998927116394 50.44256210327148 2.521951913833618 55.20780944824219 4.537481307983398 C 59.81123352050781 6.484563827514648 63.94585800170898 9.272304534912109 67.49681091308594 12.82325744628906 C 71.04776000976562 16.37421035766602 73.83550262451172 20.50883483886719 75.78258514404297 25.11225700378418 C 77.79811859130859 29.87750434875488 78.820068359375 34.94030380249023 78.820068359375 40.1600341796875 C 78.820068359375 45.37976455688477 77.79811859130859 50.44256210327148 75.78258514404297 55.20780944824219 C 73.83550262451172 59.81123352050781 71.04776000976562 63.94585800170898 67.49681091308594 67.49681091308594 C 63.94585800170898 71.04776000976562 59.81123352050781 73.83550262451172 55.20780944824219 75.78258514404297 C 50.44256210327148 77.79811859130859 45.37976455688477 78.820068359375 40.1600341796875 78.820068359375 Z" stroke="none"/>
                    <path d="M 40.1600341796875 2.999992370605469 C 35.14213943481445 2.999992370605469 30.27593994140625 3.982086181640625 25.69659423828125 5.918983459472656 C 21.27195358276367 7.790451049804688 17.297607421875 10.47023773193359 13.8839111328125 13.8839111328125 C 10.47023773193359 17.297607421875 7.790451049804688 21.27195358276367 5.918983459472656 25.69659423828125 C 3.982086181640625 30.27593994140625 2.999992370605469 35.14213943481445 2.999992370605469 40.1600341796875 C 2.999992370605469 45.17792892456055 3.982086181640625 50.04412841796875 5.918983459472656 54.62347412109375 C 7.790451049804688 59.04810333251953 10.47023773193359 63.0224609375 13.8839111328125 66.43614196777344 C 17.297607421875 69.84982299804688 21.27195358276367 72.52960968017578 25.69659423828125 74.40107727050781 C 30.27593994140625 76.33796691894531 35.14213943481445 77.32006072998047 40.1600341796875 77.32006072998047 C 45.17792892456055 77.32006072998047 50.04412841796875 76.33796691894531 54.62347412109375 74.40107727050781 C 59.04810333251953 72.52960968017578 63.0224609375 69.84982299804688 66.43614196777344 66.43614196777344 C 69.84982299804688 63.0224609375 72.52960968017578 59.04810333251953 74.40107727050781 54.62347412109375 C 76.33796691894531 50.04412841796875 77.32006072998047 45.17792892456055 77.32006072998047 40.1600341796875 C 77.32006072998047 35.14213943481445 76.33796691894531 30.27593994140625 74.40107727050781 25.69659423828125 C 72.52960968017578 21.27195358276367 69.84982299804688 17.297607421875 66.43614196777344 13.8839111328125 C 63.0224609375 10.47023773193359 59.04810333251953 7.790451049804688 54.62347412109375 5.918983459472656 C 50.04412841796875 3.982086181640625 45.17792892456055 2.999992370605469 40.1600341796875 2.999992370605469 M 40.1600341796875 -7.62939453125e-06 C 62.33980560302734 -7.62939453125e-06 80.32006072998047 17.98025894165039 80.32006072998047 40.1600341796875 C 80.32006072998047 62.33980560302734 62.33980560302734 80.32006072998047 40.1600341796875 80.32006072998047 C 17.98025894165039 80.32006072998047 -7.62939453125e-06 62.33980560302734 -7.62939453125e-06 40.1600341796875 C -7.62939453125e-06 17.98025894165039 17.98025894165039 -7.62939453125e-06 40.1600341796875 -7.62939453125e-06 Z" stroke="none" fill="#83793c"/>
                  </g>
                </g>
              </g>
            </g>
          </g>
        </g>
      </g>
    </g>
    <g id="dado" transform="translate(1057.979 4481.735)">
      <path id="Trazado_1041819" data-name="Trazado 1041819" d="M56.417,39.55l7.751-2.181a8.134,8.134,0,0,0,5.674-9.861l-3.17-14.057a7.621,7.621,0,0,0-9.111-5.758L44.85,10.56c-4.38,1.833-5.633,4.778-4.982,7.666l3.654,16.2a8.133,8.133,0,0,0,8.609,6.091l1-.226Z" transform="translate(-35.646 -6.737)" fill="#7c91db"/>
      <g id="Grupo_1203199" data-name="Grupo 1203199" transform="translate(0.767 3.823)">
        <path id="Trazado_1041820" data-name="Trazado 1041820" d="M17.276,61.247l-3.654-16.2a8.115,8.115,0,0,1,2.32-7.666l-2.49.562a7.62,7.62,0,0,0-5.758,9.109l3.429,15.2a7.62,7.62,0,0,0,9.11,5.758l2.99-.674a8.119,8.119,0,0,1-5.947-6.091Z" transform="translate(-7.506 -37.381)" fill="#677cd5"/>
        <path id="Trazado_1041821" data-name="Trazado 1041821" d="M190.107,192.217a8.134,8.134,0,0,0,5.674-9.861l-.533-2.363h-5.271a10,10,0,0,0-9.984,9.984v4.954l2.363-.533Z" transform="translate(-162.353 -165.408)" fill="#677cd5"/>
        <path id="Trazado_1041822" data-name="Trazado 1041822" d="M190.107,192.217a8.134,8.134,0,0,0,5.674-9.861l-.533-2.363h-5.271a10,10,0,0,0-9.984,9.984v4.954l2.363-.533Z" transform="translate(-162.353 -165.408)" fill="#677cd5"/>
      </g>
      <path id="Trazado_1041823" data-name="Trazado 1041823" d="M279.021,226.3V210.721A7.621,7.621,0,0,0,271.4,203.1h-9.1c-4.209,0-8.965,3.412-8.965,7.621V226.3c0,4.209,4.923,7.621,9.132,7.621H271.4A7.621,7.621,0,0,0,279.021,226.3Z" transform="translate(-227.426 -182.329)" fill="#70d2cf"/>
      <path id="Trazado_1041824" data-name="Trazado 1041824" d="M210.807,226.3V210.721a7.621,7.621,0,0,1,7.621-7.621h-7.706a7.621,7.621,0,0,0-7.621,7.621V226.3a7.621,7.621,0,0,0,7.621,7.621h7.706A7.621,7.621,0,0,1,210.807,226.3Z" transform="translate(-182.33 -182.329)" fill="#6dbccf"/>
      <path id="Trazado_1041825" data-name="Trazado 1041825" d="M266.628,404.246a3.083,3.083,0,0,0-1.876-2.837,3.015,3.015,0,0,0-2.9,2.837,2.768,2.768,0,0,0,2.9,2.837A3.083,3.083,0,0,0,266.628,404.246Z" transform="translate(-235.069 -360.358)" fill="#e1f1f9"/>
      <path id="Trazado_1041826" data-name="Trazado 1041826" d="M250.724,402.074a3.083,3.083,0,0,1,1.877-2.837,3.083,3.083,0,1,0,0,5.675A3.083,3.083,0,0,1,250.724,402.074Z" transform="translate(-222.918 -358.185)" fill="#cce6f4"/>
      <path id="Trazado_1041827" data-name="Trazado 1041827" d="M281.7,253.543a3.083,3.083,0,0,0-1.876-2.837,3.015,3.015,0,0,0-2.9,2.837,2.768,2.768,0,0,0,2.9,2.837A3.083,3.083,0,0,0,281.7,253.543Z" transform="translate(-248.597 -225.067)" fill="#e1f1f9"/>
      <path id="Trazado_1041828" data-name="Trazado 1041828" d="M265.794,251.371a3.083,3.083,0,0,1,1.877-2.837,3.083,3.083,0,1,0,0,5.675A3.083,3.083,0,0,1,265.794,251.371Z" transform="translate(-236.447 -222.894)" fill="#cce6f4"/>
      <path id="Trazado_1041829" data-name="Trazado 1041829" d="M218.229,58.142a3.083,3.083,0,0,0-1.877-2.837,3.015,3.015,0,0,0-2.9,2.837,2.768,2.768,0,0,0,2.9,2.837A3.083,3.083,0,0,0,218.229,58.142Z" transform="translate(-191.619 -49.649)" fill="#e1f1f9"/>
      <path id="Trazado_1041830" data-name="Trazado 1041830" d="M202.325,55.97a3.083,3.083,0,0,1,1.877-2.837,3.083,3.083,0,1,0,0,5.675A3.083,3.083,0,0,1,202.325,55.97Z" transform="translate(-179.469 -47.476)" fill="#cce6f4"/>
      <path id="Trazado_1041831" data-name="Trazado 1041831" d="M161.3,148.215a3.083,3.083,0,0,0-1.877-2.837,3.015,3.015,0,0,0-2.9,2.837,2.768,2.768,0,0,0,2.9,2.837A3.083,3.083,0,0,0,161.3,148.215Z" transform="translate(-140.512 -130.51)" fill="#e1f1f9"/>
      <path id="Trazado_1041832" data-name="Trazado 1041832" d="M145.4,146.043a3.083,3.083,0,0,1,1.876-2.837,3.083,3.083,0,1,0,0,5.675A3.083,3.083,0,0,1,145.4,146.043Z" transform="translate(-128.362 -128.338)" fill="#cce6f4"/>
      <path id="Trazado_1041833" data-name="Trazado 1041833" d="M104.367,238.289a3.083,3.083,0,0,0-1.877-2.837,3.015,3.015,0,0,0-2.9,2.837,2.768,2.768,0,0,0,2.9,2.837A3.083,3.083,0,0,0,104.367,238.289Z" transform="translate(-89.402 -211.373)" fill="#e1f1f9"/>
      <path id="Trazado_1041834" data-name="Trazado 1041834" d="M88.462,236.117a3.083,3.083,0,0,1,1.877-2.837,3.083,3.083,0,1,0,0,5.675A3.083,3.083,0,0,1,88.462,236.117Z" transform="translate(-77.25 -209.2)" fill="#cce6f4"/>
      <path id="Trazado_1041835" data-name="Trazado 1041835" d="M417.331,253.543a3.083,3.083,0,0,0-1.876-2.837,3.015,3.015,0,0,0-2.9,2.837,2.768,2.768,0,0,0,2.9,2.837A3.083,3.083,0,0,0,417.331,253.543Z" transform="translate(-370.36 -225.067)" fill="#e1f1f9"/>
      <path id="Trazado_1041836" data-name="Trazado 1041836" d="M401.426,251.371a3.083,3.083,0,0,1,1.876-2.837,3.083,3.083,0,1,0,0,5.675A3.083,3.083,0,0,1,401.426,251.371Z" transform="translate(-358.208 -222.894)" fill="#cce6f4"/>
      <path id="Trazado_1041837" data-name="Trazado 1041837" d="M417.331,404.246a3.083,3.083,0,0,0-1.876-2.837,3.015,3.015,0,0,0-2.9,2.837,2.768,2.768,0,0,0,2.9,2.837A3.083,3.083,0,0,0,417.331,404.246Z" transform="translate(-370.36 -360.358)" fill="#e1f1f9"/>
      <path id="Trazado_1041838" data-name="Trazado 1041838" d="M401.426,402.074a3.083,3.083,0,0,1,1.876-2.837,3.083,3.083,0,1,0,0,5.675A3.083,3.083,0,0,1,401.426,402.074Z" transform="translate(-358.208 -358.185)" fill="#cce6f4"/>
      <path id="Trazado_1041839" data-name="Trazado 1041839" d="M341.98,328.9a3.083,3.083,0,0,0-1.877-2.837,3.015,3.015,0,0,0-2.9,2.837,2.768,2.768,0,0,0,2.9,2.837A3.083,3.083,0,0,0,341.98,328.9Z" transform="translate(-302.715 -292.713)" fill="#e1f1f9"/>
      <path id="Trazado_1041840" data-name="Trazado 1041840" d="M326.075,326.723a3.083,3.083,0,0,1,1.876-2.837,3.083,3.083,0,1,0,0,5.675A3.083,3.083,0,0,1,326.075,326.723Z" transform="translate(-290.563 -290.54)" fill="#cce6f4"/>
      <g id="Grupo_1203200" data-name="Grupo 1203200" transform="translate(0 0)">
        <path id="Trazado_1041841" data-name="Trazado 1041841" d="M43.974,20H34.809l-1.19-5.281a.767.767,0,1,0-1.5.337L33.236,20H28.391A8.4,8.4,0,0,0,20,28.391V32.2l-6.678,1.506a6.861,6.861,0,0,1-8.193-5.179L1.7,13.326A6.849,6.849,0,0,1,6.882,5.133L22.084,1.7a6.85,6.85,0,0,1,8.194,5.178l1.053,4.67a.767.767,0,0,0,1.5-.337l-1.053-4.67A8.383,8.383,0,0,0,21.746.208L6.545,3.636A8.382,8.382,0,0,0,.207,13.663l3.429,15.2A8.4,8.4,0,0,0,13.662,35.2L20,33.772v3.053a.767.767,0,1,0,1.534,0V28.391a6.862,6.862,0,0,1,6.854-6.854H43.974a6.861,6.861,0,0,1,6.854,6.854V43.974a6.862,6.862,0,0,1-6.854,6.854H28.391a6.862,6.862,0,0,1-6.854-6.854V40.421a.767.767,0,1,0-1.534,0v3.553a8.4,8.4,0,0,0,8.388,8.388H43.974a8.4,8.4,0,0,0,8.388-8.388V28.391A8.4,8.4,0,0,0,43.974,20Z" transform="translate(0 0)"/>
        <path id="Trazado_1041842" data-name="Trazado 1041842" d="M320.011,323.86a3.849,3.849,0,1,0-3.849-3.849A3.854,3.854,0,0,0,320.011,323.86Zm0-6.165a2.315,2.315,0,1,1-2.315,2.315A2.318,2.318,0,0,1,320.011,317.7Z" transform="translate(-283.829 -283.828)"/>
        <path id="Trazado_1041843" data-name="Trazado 1041843" d="M395.362,399.212a3.849,3.849,0,1,0-3.849-3.849A3.854,3.854,0,0,0,395.362,399.212Zm0-6.165a2.315,2.315,0,1,1-2.315,2.315A2.318,2.318,0,0,1,395.362,393.047Z" transform="translate(-351.474 -351.474)"/>
        <path id="Trazado_1041844" data-name="Trazado 1041844" d="M395.362,248.509a3.849,3.849,0,1,0-3.849-3.849A3.854,3.854,0,0,0,395.362,248.509Zm0-6.165a2.315,2.315,0,1,1-2.315,2.315A2.318,2.318,0,0,1,395.362,242.344Z" transform="translate(-351.474 -216.183)"/>
        <path id="Trazado_1041845" data-name="Trazado 1041845" d="M259.73,240.811a3.849,3.849,0,1,0,3.849,3.849A3.854,3.854,0,0,0,259.73,240.811Zm0,6.165a2.315,2.315,0,1,1,2.315-2.315A2.318,2.318,0,0,1,259.73,246.976Z" transform="translate(-229.713 -216.184)"/>
        <path id="Trazado_1041846" data-name="Trazado 1041846" d="M240.811,395.363a3.849,3.849,0,1,0,3.849-3.849A3.854,3.854,0,0,0,240.811,395.363Zm3.849-2.315a2.315,2.315,0,1,1-2.315,2.315A2.318,2.318,0,0,1,244.66,393.048Z" transform="translate(-216.184 -351.475)"/>
        <path id="Trazado_1041847" data-name="Trazado 1041847" d="M143.079,138.48h0a3.849,3.849,0,1,0-3.755,4.7A3.854,3.854,0,0,0,143.079,138.48Zm-6.014,1.356a2.315,2.315,0,1,1,2.768,1.75A2.316,2.316,0,0,1,137.065,139.836Z" transform="translate(-121.619 -121.622)"/>
        <path id="Trazado_1041848" data-name="Trazado 1041848" d="M200.014,48.4a3.849,3.849,0,1,0-3.755,4.7A3.854,3.854,0,0,0,200.014,48.4ZM194,49.752a2.315,2.315,0,1,1,4.517-1.019h0A2.315,2.315,0,1,1,194,49.752Z" transform="translate(-172.732 -40.751)"/>
        <path id="Trazado_1041849" data-name="Trazado 1041849" d="M81.545,225.648a3.849,3.849,0,1,0,4.6,2.908A3.847,3.847,0,0,0,81.545,225.648Zm1.355,6.014a2.315,2.315,0,1,1,1.749-2.769A2.318,2.318,0,0,1,82.9,231.662Z" transform="translate(-70.509 -202.486)"/>
      </g>
    </g>
  </g>
</svg>
