<svg xmlns="http://www.w3.org/2000/svg" xmlns:xlink="http://www.w3.org/1999/xlink" width="98.32" height="98.32" viewBox="0 0 98.32 98.32">
  <defs>
    <filter id="Trazado_982547" x="0" y="0" width="98.32" height="98.32" filterUnits="userSpaceOnUse">
      <feOffset dy="3" input="SourceAlpha"/>
      <feGaussianBlur stdDeviation="3" result="blur"/>
      <feFlood flood-opacity="0.161"/>
      <feComposite operator="in" in2="blur"/>
      <feComposite in="SourceGraphic"/>
    </filter>
  </defs>
  <g id="Grupo_1203203" data-name="Grupo 1203203" transform="translate(-187 -4624)">
    <g id="Grupo_1202426" data-name="Grupo 1202426" transform="translate(196 4630)">
      <g id="Grupo_1177900" data-name="Grupo 1177900" transform="translate(0 0)">
        <g id="Grupo_1172010" data-name="Grupo 1172010" transform="translate(0)">
          <g id="Grupo_1171046" data-name="Grupo 1171046">
            <g id="Grupo_1148525" data-name="Grupo 1148525">
              <g transform="matrix(1, 0, 0, 1, -9, -6)" filter="url(#Trazado_982547)">
                <g id="Trazado_982547-2" data-name="Trazado 982547" transform="translate(9 6)" fill="#fdfbec">
                  <path d="M 40.1600341796875 78.820068359375 C 34.94030380249023 78.820068359375 29.87750434875488 77.79811859130859 25.11225700378418 75.78258514404297 C 20.50883483886719 73.83550262451172 16.37421035766602 71.04776000976562 12.82325744628906 67.49681091308594 C 9.272304534912109 63.94585800170898 6.484563827514648 59.81123352050781 4.537481307983398 55.20780944824219 C 2.521951913833618 50.44256210327148 1.499998927116394 45.37976455688477 1.499998927116394 40.1600341796875 C 1.499998927116394 34.94030380249023 2.521951913833618 29.87750434875488 4.537481307983398 25.11225700378418 C 6.484563827514648 20.50883483886719 9.272304534912109 16.37421035766602 12.82325744628906 12.82325744628906 C 16.37421035766602 9.272304534912109 20.50883483886719 6.484563827514648 25.11225700378418 4.537481307983398 C 29.87750434875488 2.521951913833618 34.94030380249023 1.499998927116394 40.1600341796875 1.499998927116394 C 45.37976455688477 1.499998927116394 50.44256210327148 2.521951913833618 55.20780944824219 4.537481307983398 C 59.81123352050781 6.484563827514648 63.94585800170898 9.272304534912109 67.49681091308594 12.82325744628906 C 71.04776000976562 16.37421035766602 73.83550262451172 20.50883483886719 75.78258514404297 25.11225700378418 C 77.79811859130859 29.87750434875488 78.820068359375 34.94030380249023 78.820068359375 40.1600341796875 C 78.820068359375 45.37976455688477 77.79811859130859 50.44256210327148 75.78258514404297 55.20780944824219 C 73.83550262451172 59.81123352050781 71.04776000976562 63.94585800170898 67.49681091308594 67.49681091308594 C 63.94585800170898 71.04776000976562 59.81123352050781 73.83550262451172 55.20780944824219 75.78258514404297 C 50.44256210327148 77.79811859130859 45.37976455688477 78.820068359375 40.1600341796875 78.820068359375 Z" stroke="none"/>
                  <path d="M 40.1600341796875 2.999992370605469 C 35.14213943481445 2.999992370605469 30.27593994140625 3.982086181640625 25.69659423828125 5.918983459472656 C 21.27195358276367 7.790451049804688 17.297607421875 10.47023773193359 13.8839111328125 13.8839111328125 C 10.47023773193359 17.297607421875 7.790451049804688 21.27195358276367 5.918983459472656 25.69659423828125 C 3.982086181640625 30.27593994140625 2.999992370605469 35.14213943481445 2.999992370605469 40.1600341796875 C 2.999992370605469 45.17792892456055 3.982086181640625 50.04412841796875 5.918983459472656 54.62347412109375 C 7.790451049804688 59.04810333251953 10.47023773193359 63.0224609375 13.8839111328125 66.43614196777344 C 17.297607421875 69.84982299804688 21.27195358276367 72.52960968017578 25.69659423828125 74.40107727050781 C 30.27593994140625 76.33796691894531 35.14213943481445 77.32006072998047 40.1600341796875 77.32006072998047 C 45.17792892456055 77.32006072998047 50.04412841796875 76.33796691894531 54.62347412109375 74.40107727050781 C 59.04810333251953 72.52960968017578 63.0224609375 69.84982299804688 66.43614196777344 66.43614196777344 C 69.84982299804688 63.0224609375 72.52960968017578 59.04810333251953 74.40107727050781 54.62347412109375 C 76.33796691894531 50.04412841796875 77.32006072998047 45.17792892456055 77.32006072998047 40.1600341796875 C 77.32006072998047 35.14213943481445 76.33796691894531 30.27593994140625 74.40107727050781 25.69659423828125 C 72.52960968017578 21.27195358276367 69.84982299804688 17.297607421875 66.43614196777344 13.8839111328125 C 63.0224609375 10.47023773193359 59.04810333251953 7.790451049804688 54.62347412109375 5.918983459472656 C 50.04412841796875 3.982086181640625 45.17792892456055 2.999992370605469 40.1600341796875 2.999992370605469 M 40.1600341796875 -7.62939453125e-06 C 62.33980560302734 -7.62939453125e-06 80.32006072998047 17.98025894165039 80.32006072998047 40.1600341796875 C 80.32006072998047 62.33980560302734 62.33980560302734 80.32006072998047 40.1600341796875 80.32006072998047 C 17.98025894165039 80.32006072998047 -7.62939453125e-06 62.33980560302734 -7.62939453125e-06 40.1600341796875 C -7.62939453125e-06 17.98025894165039 17.98025894165039 -7.62939453125e-06 40.1600341796875 -7.62939453125e-06 Z" stroke="none" fill="#83793c"/>
                </g>
              </g>
            </g>
          </g>
        </g>
      </g>
    </g>
    <g id="numeros" transform="translate(203.841 4641.355)">
      <path id="Trazado_1041850" data-name="Trazado 1041850" d="M133.641,32.877l-12.122-3.521a4.961,4.961,0,0,1-3.381-6.148l3.521-12.122A4.961,4.961,0,0,1,127.807,7.7l12.122,3.521a4.961,4.961,0,0,1,3.381,6.148L139.789,29.5A4.961,4.961,0,0,1,133.641,32.877Z" transform="translate(-99.838 -6.733)" fill="#f26666"/>
      <path id="Trazado_1041851" data-name="Trazado 1041851" d="M237.713,32.445,233.3,31.162a4.983,4.983,0,0,1,2.727,5.927l-3.535,12.173a4.982,4.982,0,0,1-5.538,3.534l4.476,1.3a4.961,4.961,0,0,0,6.148-3.381l3.521-12.122A4.961,4.961,0,0,0,237.713,32.445Z" transform="translate(-197.622 -27.953)" fill="#dd5b5b"/>
      <path id="Trazado_1041852" data-name="Trazado 1041852" d="M34.372,289.87,21.91,291.885a4.961,4.961,0,0,1-5.69-4.105L14.2,275.319a4.961,4.961,0,0,1,4.105-5.69l12.461-2.016a4.961,4.961,0,0,1,5.69,4.105l2.016,12.461A4.961,4.961,0,0,1,34.372,289.87Z" transform="translate(-6.728 -239.996)" fill="#73e7e6"/>
      <path id="Trazado_1041853" data-name="Trazado 1041853" d="M142.789,284.181l-2.016-12.461a4.961,4.961,0,0,0-5.69-4.105l-4.656.753a5.014,5.014,0,0,1,5.125,4.209l2.037,12.594a5.015,5.015,0,0,1-2.8,5.329l3.892-.63A4.961,4.961,0,0,0,142.789,284.181Z" transform="translate(-111.039 -239.997)" fill="#65d1cb"/>
      <path id="Trazado_1041854" data-name="Trazado 1041854" d="M296.514,294.894H283.89a4.961,4.961,0,0,1-4.961-4.961V277.309a4.961,4.961,0,0,1,4.961-4.961h12.623a4.961,4.961,0,0,1,4.961,4.961v12.623A4.961,4.961,0,0,1,296.514,294.894Z" transform="translate(-244.249 -244.301)" fill="#ff9f40"/>
      <path id="Trazado_1041855" data-name="Trazado 1041855" d="M414.474,272.348h-4.042a5.022,5.022,0,0,1,3.858,4.885v12.777a5.022,5.022,0,0,1-3.858,4.885h4.042a4.961,4.961,0,0,0,4.961-4.961V277.309A4.961,4.961,0,0,0,414.474,272.348Z" transform="translate(-362.21 -244.301)" fill="#f49138"/>
      <path id="Trazado_1041856" data-name="Trazado 1041856" d="M228.327,94.122a1.273,1.273,0,0,1-.35-.051c-.4-.115-.771-.42-.655-.816l2.124-7.314-.417.3-.005,0a.611.611,0,0,1-.29.075.474.474,0,0,1-.129-.017.569.569,0,0,1-.366-.349.794.794,0,0,1-.025-.509.844.844,0,0,1,.508-.543l1.811-.95a.6.6,0,0,1,.3-.08.688.688,0,0,1,.193.029c.356.1.677.436.573.792l-2.627,9.045A.606.606,0,0,1,228.327,94.122Z" transform="translate(-197.937 -75.229)"/>
      <path id="Trazado_1041857" data-name="Trazado 1041857" d="M97.079,346.271a.7.7,0,0,1-.729-.48l-.22-1.362c-.195-1.2.873-2.284,1.906-3.329,1-1.015,1.95-1.973,1.785-2.99a1.338,1.338,0,0,0-1.34-1.169,1.862,1.862,0,0,0-.3.025,1.4,1.4,0,0,0-.886.463,1.262,1.262,0,0,0-.222,1.039c.053.326-.225.717-.781.807a1.1,1.1,0,0,1-.173.015c-.412,0-.666-.276-.754-.82a2.779,2.779,0,0,1,2.562-3.07,3.661,3.661,0,0,1,.582-.047,2.9,2.9,0,0,1,2.994,2.441c.291,1.8-1.107,3.158-2.231,4.252-.812.79-1.513,1.473-1.411,2.1l.07.432,4.028-.652a.437.437,0,0,1,.07-.006.733.733,0,0,1,.644.657.742.742,0,0,1-.468.872l-5,.809A.808.808,0,0,1,97.079,346.271Z" transform="translate(-79.561 -300.818)"/>
      <path id="Trazado_1041858" data-name="Trazado 1041858" d="M359.626,340.595a3.5,3.5,0,0,1-2.476-.859,2.441,2.441,0,0,1-.772-1.748c0-.542.217-.743.8-.743.637,0,.885.188.885.672,0,.565.487,1.135,1.576,1.135,1.135,0,1.619-.5,1.619-1.661v-.27c0-.974-.534-1.448-1.633-1.448-.362,0-.587-.268-.587-.7s.225-.715.587-.715c.826,0,1.377-.249,1.377-1.462,0-.942-.407-1.363-1.32-1.363-1.138,0-1.377.579-1.377,1.064s-.274.715-.814.715c-.7,0-.885-.172-.885-.8,0-.931.651-2.507,3.091-2.507,1.966,0,2.963.887,2.963,2.635a2.729,2.729,0,0,1-1.01,2.364,2.28,2.28,0,0,1,1.323,2.218v.27C362.973,338.587,362.538,340.595,359.626,340.595Z" transform="translate(-313.723 -295.929)"/>
      <path id="Trazado_1041859" data-name="Trazado 1041859" d="M128.289,27.113a5.718,5.718,0,0,1-1.6-.228L114.57,23.364a5.733,5.733,0,0,1-3.907-7.1l1.361-4.685a.772.772,0,1,1,1.482.431l-1.361,4.685A4.19,4.19,0,0,0,115,21.882L127.122,25.4a4.194,4.194,0,0,0,5.192-2.855l3.521-12.122a4.189,4.189,0,0,0-2.855-5.192L120.858,1.713a4.189,4.189,0,0,0-5.192,2.855L114.523,8.5a.772.772,0,0,1-1.482-.43l1.143-3.935a5.733,5.733,0,0,1,7.1-3.907l12.122,3.521a5.733,5.733,0,0,1,3.907,7.1L133.8,22.978A5.744,5.744,0,0,1,128.289,27.113Z" transform="translate(-93.104 0)"/>
      <path id="Trazado_1041860" data-name="Trazado 1041860" d="M14.378,286a5.736,5.736,0,0,1-5.647-4.819l-.768-4.75a.772.772,0,1,1,1.524-.246l.768,4.75a4.189,4.189,0,0,0,4.8,3.467l12.461-2.016a4.189,4.189,0,0,0,3.467-4.8l-2.016-12.461a4.194,4.194,0,0,0-4.8-3.467l-12.461,2.016a4.189,4.189,0,0,0-3.467,4.8l.672,4.154a.772.772,0,0,1-1.524.247l-.672-4.154a5.733,5.733,0,0,1,4.744-6.575l12.461-2.016a5.74,5.74,0,0,1,6.575,4.744l2.016,12.461a5.733,5.733,0,0,1-4.744,6.575l-12.461,2.016A5.818,5.818,0,0,1,14.378,286Z" transform="translate(0 -233.277)"/>
      <path id="Trazado_1041861" data-name="Trazado 1041861" d="M289.79,288.942H277.167a5.74,5.74,0,0,1-5.733-5.733V278.4a.772.772,0,0,1,1.544,0v4.809a4.194,4.194,0,0,0,4.189,4.189H289.79a4.194,4.194,0,0,0,4.189-4.189V270.586a4.194,4.194,0,0,0-4.189-4.189H277.167a4.194,4.194,0,0,0-4.189,4.189V274.8a.772.772,0,0,1-1.544,0v-4.212a5.74,5.74,0,0,1,5.733-5.733H289.79a5.74,5.74,0,0,1,5.733,5.733v12.623A5.74,5.74,0,0,1,289.79,288.942Z" transform="translate(-237.525 -237.578)"/>
    </g>
  </g>
</svg>
