<svg xmlns="http://www.w3.org/2000/svg" xmlns:xlink="http://www.w3.org/1999/xlink" width="98.32" height="98.32" viewBox="0 0 98.32 98.32">
  <defs>
    <filter id="Trazado_982547" x="0" y="0" width="98.32" height="98.32" filterUnits="userSpaceOnUse">
      <feOffset dy="3" input="SourceAlpha"/>
      <feGaussianBlur stdDeviation="3" result="blur"/>
      <feFlood flood-opacity="0.161"/>
      <feComposite operator="in" in2="blur"/>
      <feComposite in="SourceGraphic"/>
    </filter>
  </defs>
  <g id="Grupo_1203201" data-name="Grupo 1203201" transform="translate(-607.92 -4622.718)">
    <g id="Grupo_1202427" data-name="Grupo 1202427" transform="translate(616.92 4628.718)">
      <g id="Grupo_1202161" data-name="Grupo 1202161" transform="translate(0 0)">
        <g id="Grupo_1177900" data-name="Grupo 1177900" transform="translate(0 0)">
          <g id="Grupo_1172010" data-name="Grupo 1172010">
            <g id="Grupo_1171046" data-name="Grupo 1171046">
              <g id="Grupo_1148525" data-name="Grupo 1148525">
                <g transform="matrix(1, 0, 0, 1, -9, -6)" filter="url(#Trazado_982547)">
                  <g id="Trazado_982547-2" data-name="Trazado 982547" transform="translate(9 6)" fill="#fdfbec">
                    <path d="M 40.1600341796875 78.820068359375 C 34.94030380249023 78.820068359375 29.87750434875488 77.79811859130859 25.11225700378418 75.78258514404297 C 20.50883483886719 73.83550262451172 16.37421035766602 71.04776000976562 12.82325744628906 67.49681091308594 C 9.272304534912109 63.94585800170898 6.484563827514648 59.81123352050781 4.537481307983398 55.20780944824219 C 2.521951913833618 50.44256210327148 1.499998927116394 45.37976455688477 1.499998927116394 40.1600341796875 C 1.499998927116394 34.94030380249023 2.521951913833618 29.87750434875488 4.537481307983398 25.11225700378418 C 6.484563827514648 20.50883483886719 9.272304534912109 16.37421035766602 12.82325744628906 12.82325744628906 C 16.37421035766602 9.272304534912109 20.50883483886719 6.484563827514648 25.11225700378418 4.537481307983398 C 29.87750434875488 2.521951913833618 34.94030380249023 1.499998927116394 40.1600341796875 1.499998927116394 C 45.37976455688477 1.499998927116394 50.44256210327148 2.521951913833618 55.20780944824219 4.537481307983398 C 59.81123352050781 6.484563827514648 63.94585800170898 9.272304534912109 67.49681091308594 12.82325744628906 C 71.04776000976562 16.37421035766602 73.83550262451172 20.50883483886719 75.78258514404297 25.11225700378418 C 77.79811859130859 29.87750434875488 78.820068359375 34.94030380249023 78.820068359375 40.1600341796875 C 78.820068359375 45.37976455688477 77.79811859130859 50.44256210327148 75.78258514404297 55.20780944824219 C 73.83550262451172 59.81123352050781 71.04776000976562 63.94585800170898 67.49681091308594 67.49681091308594 C 63.94585800170898 71.04776000976562 59.81123352050781 73.83550262451172 55.20780944824219 75.78258514404297 C 50.44256210327148 77.79811859130859 45.37976455688477 78.820068359375 40.1600341796875 78.820068359375 Z" stroke="none"/>
                    <path d="M 40.1600341796875 2.999992370605469 C 35.14213943481445 2.999992370605469 30.27593994140625 3.982086181640625 25.69659423828125 5.918983459472656 C 21.27195358276367 7.790451049804688 17.297607421875 10.47023773193359 13.8839111328125 13.8839111328125 C 10.47023773193359 17.297607421875 7.790451049804688 21.27195358276367 5.918983459472656 25.69659423828125 C 3.982086181640625 30.27593994140625 2.999992370605469 35.14213943481445 2.999992370605469 40.1600341796875 C 2.999992370605469 45.17792892456055 3.982086181640625 50.04412841796875 5.918983459472656 54.62347412109375 C 7.790451049804688 59.04810333251953 10.47023773193359 63.0224609375 13.8839111328125 66.43614196777344 C 17.297607421875 69.84982299804688 21.27195358276367 72.52960968017578 25.69659423828125 74.40107727050781 C 30.27593994140625 76.33796691894531 35.14213943481445 77.32006072998047 40.1600341796875 77.32006072998047 C 45.17792892456055 77.32006072998047 50.04412841796875 76.33796691894531 54.62347412109375 74.40107727050781 C 59.04810333251953 72.52960968017578 63.0224609375 69.84982299804688 66.43614196777344 66.43614196777344 C 69.84982299804688 63.0224609375 72.52960968017578 59.04810333251953 74.40107727050781 54.62347412109375 C 76.33796691894531 50.04412841796875 77.32006072998047 45.17792892456055 77.32006072998047 40.1600341796875 C 77.32006072998047 35.14213943481445 76.33796691894531 30.27593994140625 74.40107727050781 25.69659423828125 C 72.52960968017578 21.27195358276367 69.84982299804688 17.297607421875 66.43614196777344 13.8839111328125 C 63.0224609375 10.47023773193359 59.04810333251953 7.790451049804688 54.62347412109375 5.918983459472656 C 50.04412841796875 3.982086181640625 45.17792892456055 2.999992370605469 40.1600341796875 2.999992370605469 M 40.1600341796875 -7.62939453125e-06 C 62.33980560302734 -7.62939453125e-06 80.32006072998047 17.98025894165039 80.32006072998047 40.1600341796875 C 80.32006072998047 62.33980560302734 62.33980560302734 80.32006072998047 40.1600341796875 80.32006072998047 C 17.98025894165039 80.32006072998047 -7.62939453125e-06 62.33980560302734 -7.62939453125e-06 40.1600341796875 C -7.62939453125e-06 17.98025894165039 17.98025894165039 -7.62939453125e-06 40.1600341796875 -7.62939453125e-06 Z" stroke="none" fill="#83793c"/>
                  </g>
                </g>
              </g>
            </g>
          </g>
        </g>
      </g>
    </g>
    <g id="bloque-abc" transform="translate(632.885 4643.277)">
      <path id="Trazado_1041755" data-name="Trazado 1041755" d="M152.752,7.5H134.234a2.484,2.484,0,0,0-2.484,2.484V32.876h23.486V9.984A2.484,2.484,0,0,0,152.752,7.5Z" transform="translate(-119.298 -6.791)" fill="#f8e86a"/>
      <path id="Trazado_1041756" data-name="Trazado 1041756" d="M136.124,7.5h-1.89a2.484,2.484,0,0,0-2.484,2.484V32.876h1.89V9.984A2.484,2.484,0,0,1,136.124,7.5Z" transform="translate(-119.298 -6.791)" fill="#fab659"/>
      <path id="Trazado_1041757" data-name="Trazado 1041757" d="M0,0H15.925V15.925H0Z" transform="translate(32.157 4.489) rotate(90)" fill="#fab659"/>
      <path id="Trazado_1041758" data-name="Trazado 1041758" d="M256.3,256h-21l-2.161,11.743,2.161,11.743h21A2.484,2.484,0,0,0,258.785,277V258.484A2.484,2.484,0,0,0,256.3,256Z" transform="translate(-211.105 -231.806)" fill="#f9496e"/>
      <path id="Trazado_1041759" data-name="Trazado 1041759" d="M0,0H15.925V15.925H0Z" transform="translate(43.899 27.975) rotate(90)" fill="#ff889e"/>
      <path id="Trazado_1041760" data-name="Trazado 1041760" d="M9.984,256A2.484,2.484,0,0,0,7.5,258.484V277a2.484,2.484,0,0,0,2.484,2.484h21V256Z" transform="translate(-6.791 -231.806)" fill="#00c8de"/>
      <path id="Trazado_1041761" data-name="Trazado 1041761" d="M9.39,277V258.484A2.484,2.484,0,0,1,11.874,256H9.984A2.484,2.484,0,0,0,7.5,258.484V277a2.484,2.484,0,0,0,2.484,2.484h1.89A2.484,2.484,0,0,1,9.39,277Z" transform="translate(-6.791 -231.806)" fill="#0093ae"/>
      <path id="Trazado_1041762" data-name="Trazado 1041762" d="M0,0H15.925V15.925H0Z" transform="translate(20.414 27.975) rotate(90)" fill="#b3e8f0"/>
      <path id="Trazado_1041763" data-name="Trazado 1041763" d="M40,289.209v9.809a.709.709,0,0,0,1.418,0v-9.1H55.925v14.507H41.418v-2.581a.709.709,0,0,0-1.418,0v3.289a.709.709,0,0,0,.709.709H56.634a.709.709,0,0,0,.709-.709V289.209a.709.709,0,0,0-.709-.709H40.709A.709.709,0,0,0,40,289.209Z" transform="translate(-36.22 -261.234)"/>
      <path id="Trazado_1041764" data-name="Trazado 1041764" d="M305.134,288.5H289.209a.709.709,0,0,0-.709.709v15.925a.709.709,0,0,0,.709.709h15.925a.709.709,0,0,0,.709-.709V289.209A.709.709,0,0,0,305.134,288.5Zm-.709,15.925H289.918V289.918h14.507Z" transform="translate(-261.234 -261.234)"/>
      <path id="Trazado_1041765" data-name="Trazado 1041765" d="M164.959,40a.709.709,0,0,0-.709.709V56.634a.709.709,0,0,0,.709.709h15.925a.709.709,0,0,0,.709-.709V40.709a.709.709,0,0,0-.709-.709Zm15.216,15.925H165.668V41.418h14.507Z" transform="translate(-148.727 -36.22)"/>
      <path id="Trazado_1041766" data-name="Trazado 1041766" d="M219.447,90.195c.281,0,.5-.089.561-.332l.485-1.7h2.922l.485,1.7c.064.242.281.332.561.332.447,0,1.046-.293,1.046-.689a.563.563,0,0,0-.026-.128l-2.462-8.025c-.115-.383-.587-.561-1.072-.561a1.036,1.036,0,0,0-1.059.561l-2.462,8.025a.728.728,0,0,0-.026.128C218.4,89.914,219,90.195,219.447,90.195Zm2.5-7.247,1.11,3.917h-2.22Z" transform="translate(-197.76 -73.156)"/>
      <path id="Trazado_1041767" data-name="Trazado 1041767" d="M105.848,333.154c0-1.812-1.238-2.245-2.564-2.245h-2.462c-.37,0-.727.179-.727.523v8.293c0,.268.281.51.727.51h2.7c1.442,0,2.552-.715,2.552-2.7v-.268a1.916,1.916,0,0,0-1.314-2.08A2.013,2.013,0,0,0,105.848,333.154Zm-4.108-.791h1.416a1.086,1.086,0,0,1,.013,2.169H101.74Zm2.679,5.027c0,.97-.459,1.391-1.238,1.391H101.74v-2.947h1.442c.778,0,1.238.357,1.238,1.352Z" transform="translate(-90.634 -299.635)"/>
      <path id="Trazado_1041768" data-name="Trazado 1041768" d="M351.528,339.908c1.786,0,3.049-.982,3.049-2.526,0-.651-.268-.817-.842-.817-.434,0-.791.128-.817.523-.038.536-.14,1.365-1.3,1.365-.88,0-1.365-.472-1.365-1.467v-3.56c0-1,.485-1.467,1.34-1.467a1.182,1.182,0,0,1,1.327,1.263c.013.383.357.523.829.523.561,0,.829-.153.829-.817,0-1.48-1.263-2.424-3.036-2.424a2.661,2.661,0,0,0-2.947,2.922v3.56a2.652,2.652,0,0,0,2.934,2.922Z" transform="translate(-315.648 -299.269)"/>
      <path id="Trazado_1041769" data-name="Trazado 1041769" d="M45.2,23.486h-8.55V10.443a.709.709,0,1,0-1.418,0V23.486H13.16V3.193a1.777,1.777,0,0,1,1.775-1.775H33.453a1.777,1.777,0,0,1,1.775,1.775V7.61a.709.709,0,1,0,1.418,0V3.193A3.2,3.2,0,0,0,33.453,0H14.935a3.2,3.2,0,0,0-3.193,3.193V23.486H3.193A3.2,3.2,0,0,0,0,26.678V45.2a3.2,3.2,0,0,0,3.193,3.193h42A3.2,3.2,0,0,0,48.389,45.2V26.678A3.2,3.2,0,0,0,45.2,23.486ZM23.486,46.971H3.193A1.777,1.777,0,0,1,1.418,45.2V26.678A1.777,1.777,0,0,1,3.193,24.9H23.486ZM46.971,45.2A1.777,1.777,0,0,1,45.2,46.971H24.9V24.9H45.2a1.777,1.777,0,0,1,1.775,1.775Z" transform="translate(0 0)"/>
    </g>
  </g>
</svg>
