<svg xmlns="http://www.w3.org/2000/svg" xmlns:xlink="http://www.w3.org/1999/xlink" width="108" height="108" viewBox="0 0 108 108">
  <defs>
    <filter id="Trazado_904820" x="0" y="0" width="108" height="108" filterUnits="userSpaceOnUse">
      <feOffset dy="3" input="SourceAlpha"/>
      <feGaussianBlur stdDeviation="3" result="blur"/>
      <feFlood flood-opacity="0.161"/>
      <feComposite operator="in" in2="blur"/>
      <feComposite in="SourceGraphic"/>
    </filter>
  </defs>
  <g id="Grupo_1203204" data-name="Grupo 1203204" transform="translate(-620.75 -5631.675)">
    <g id="Grupo_1202428" data-name="Grupo 1202428" transform="translate(629.75 5637.675)">
      <g id="Grupo_1202051" data-name="Grupo 1202051" transform="translate(0 0)">
        <g id="Grupo_1173585" data-name="Grupo 1173585">
          <g id="Grupo_1173428" data-name="Grupo 1173428">
            <g id="Grupo_1171958" data-name="Grupo 1171958">
              <g id="Grupo_1167341" data-name="Grupo 1167341">
                <g id="Grupo_1166792" data-name="Grupo 1166792">
                  <g transform="matrix(1, 0, 0, 1, -9, -6)" filter="url(#Trazado_904820)">
                    <g id="Trazado_904820-2" data-name="Trazado 904820" transform="translate(9 6)" fill="#effbfe">
                      <path d="M 44.99999618530273 88.49999237060547 C 39.12687301635742 88.49999237060547 33.43022155761719 87.35006713867188 28.06829643249512 85.08216857910156 C 22.88852119445801 82.89130401611328 18.23629570007324 79.75457763671875 14.24084663391113 75.75914001464844 C 10.24540901184082 71.76369476318359 7.108683586120605 67.11146545410156 4.917821407318115 61.93169403076172 C 2.649921178817749 56.56976699829102 1.499996185302734 50.87311553955078 1.499996185302734 44.99999237060547 C 1.499996185302734 39.12686920166016 2.649921178817749 33.43021774291992 4.917821407318115 28.06829261779785 C 7.108683586120605 22.88851737976074 10.24540901184082 18.23630523681641 14.24084663391113 14.24085521697998 C 18.23629570007324 10.24540519714355 22.88852119445801 7.108692169189453 28.06829643249512 4.917829990386963 C 33.43022155761719 2.649929761886597 39.12687301635742 1.500004887580872 44.99999618530273 1.500004887580872 C 50.87311935424805 1.500004887580872 56.56977081298828 2.649929761886597 61.93169784545898 4.917829990386963 C 67.11147308349609 7.108692169189453 71.76369476318359 10.24540519714355 75.75914764404297 14.24085521697998 C 79.75458526611328 18.23630523681641 82.89131164550781 22.88851737976074 85.08216857910156 28.06829261779785 C 87.35007476806641 33.43021774291992 88.5 39.12686920166016 88.5 44.99999237060547 C 88.5 50.87311553955078 87.35007476806641 56.56976699829102 85.08216857910156 61.93169403076172 C 82.89131164550781 67.11146545410156 79.75458526611328 71.76369476318359 75.75914764404297 75.75914001464844 C 71.76369476318359 79.75457763671875 67.11147308349609 82.89130401611328 61.93169784545898 85.08216857910156 C 56.56977081298828 87.35006713867188 50.87311935424805 88.49999237060547 44.99999618530273 88.49999237060547 Z" stroke="none"/>
                      <path d="M 44.99999618530273 2.999992370605469 C 39.32870864868164 2.999992370605469 33.82865142822266 4.11004638671875 28.65262603759766 6.299331665039062 C 23.65165710449219 8.414566040039062 19.15968322753906 11.44333648681641 15.301513671875 15.30150604248047 C 11.44333648681641 19.15967559814453 8.414566040039062 23.65164947509766 6.299339294433594 28.65262222290039 C 4.110054016113281 33.82864761352539 2.999992370605469 39.32870483398438 2.999992370605469 44.99999237060547 C 2.999992370605469 50.67127990722656 4.110054016113281 56.17132186889648 6.299339294433594 61.34736633300781 C 8.414566040039062 66.34833526611328 11.44333648681641 70.84029388427734 15.301513671875 74.69846343994141 C 19.15968322753906 78.55663299560547 23.65165710449219 81.58540344238281 28.65262603759766 83.70063781738281 C 33.82865142822266 85.88992309570312 39.32870864868164 86.99997711181641 44.99999618530273 86.99997711181641 C 50.67128372192383 86.99997711181641 56.17134094238281 85.88992309570312 61.34736633300781 83.70063781738281 C 66.34834289550781 81.58540344238281 70.84030914306641 78.55663299560547 74.69847869873047 74.69846343994141 C 78.55665588378906 70.84029388427734 81.58542633056641 66.34833526611328 83.70065307617188 61.34736633300781 C 85.88993835449219 56.17132186889648 87 50.67127990722656 87 44.99999237060547 C 87 39.32870483398438 85.88993835449219 33.82864761352539 83.70065307617188 28.65262222290039 C 81.58542633056641 23.65164947509766 78.55665588378906 19.15967559814453 74.69847869873047 15.30150604248047 C 70.84030914306641 11.44333648681641 66.34834289550781 8.414566040039062 61.34736633300781 6.299331665039062 C 56.17134094238281 4.11004638671875 50.67128372192383 2.999992370605469 44.99999618530273 2.999992370605469 M 44.99999618530273 -7.62939453125e-06 C 69.85281372070312 -7.62939453125e-06 90 20.14717864990234 90 44.99999237060547 C 90 69.85279083251953 69.85281372070312 89.99997711181641 44.99999618530273 89.99997711181641 C 20.14717864990234 89.99997711181641 -7.62939453125e-06 69.85279083251953 -7.62939453125e-06 44.99999237060547 C -7.62939453125e-06 20.14717864990234 20.14717864990234 -7.62939453125e-06 44.99999618530273 -7.62939453125e-06 Z" stroke="none" fill="#497f88"/>
                    </g>
                  </g>
                </g>
              </g>
            </g>
          </g>
        </g>
      </g>
    </g>
    <g id="pensar_1_" data-name="pensar (1)" transform="translate(617.901 5650.558)">
      <g id="Grupo_1203173" data-name="Grupo 1203173" transform="translate(29.221 0.941)">
        <path id="Trazado_1041687" data-name="Trazado 1041687" d="M62.9,7.5A20.277,20.277,0,0,0,42.628,27.777V33.86L36.036,44.48A1.676,1.676,0,0,0,37.46,47.04h5.167v8.618a2.535,2.535,0,0,0,2.535,2.535h7.731V69.852H73.17V51.6A20.267,20.267,0,0,0,83.182,34.114V27.777A20.277,20.277,0,0,0,62.9,7.5Z" transform="translate(-35.784 -7.5)" fill="#ffddce"/>
      </g>
      <g id="Grupo_1203174" data-name="Grupo 1203174" transform="translate(56.342 0.941)">
        <path id="Trazado_1041688" data-name="Trazado 1041688" d="M251.959,7.5c9.643,0,17.489,10.634,17.489,20.277v6.337A17.479,17.479,0,0,1,260.811,49.2a2.788,2.788,0,0,0-1.374,2.4v18.25h2.788V51.6a20.267,20.267,0,0,0,10.012-17.489V27.777A20.277,20.277,0,0,0,251.959,7.5Z" transform="translate(-251.959 -7.5)" fill="#ffcbbe"/>
      </g>
      <g id="Grupo_1203177" data-name="Grupo 1203177" transform="translate(43.669 7.096)">
        <g id="Grupo_1203175" data-name="Grupo 1203175">
          <path id="Trazado_1041689" data-name="Trazado 1041689" d="M173.259,69.925a9.709,9.709,0,0,0-.129-1.57l3.16-3.2-2.2-3.817-4.353,1.136a9.632,9.632,0,0,0-2.72-1.572l-1.192-4.336h-4.408L160.221,60.9a9.629,9.629,0,0,0-2.72,1.572l-4.353-1.136-2.2,3.817,3.16,3.2a9.6,9.6,0,0,0,0,3.14l-3.16,3.2,2.2,3.817,4.353-1.136a9.632,9.632,0,0,0,2.72,1.572l1.192,4.336h4.408l1.192-4.336a9.629,9.629,0,0,0,2.72-1.572l4.353,1.136,2.2-3.817-3.16-3.2A9.709,9.709,0,0,0,173.259,69.925Zm-9.642,3.03a3.03,3.03,0,1,1,3.03-3.03A3.03,3.03,0,0,1,163.617,72.956Z" transform="translate(-150.944 -56.564)" fill="#4a80aa"/>
        </g>
        <g id="Grupo_1203176" data-name="Grupo 1203176" transform="translate(14.701 1.459)">
          <path id="Trazado_1041690" data-name="Trazado 1041690" d="M272.943,87.738l3.62.945,2.2-3.817-3.16-3.2a9.6,9.6,0,0,0,0-3.14l3.16-3.2-2.2-3.817-4.353,1.136a9.632,9.632,0,0,0-2.72-1.572L268.7,68.19a14.452,14.452,0,0,0,5.78,16.016l.042.178A4.8,4.8,0,0,0,272.943,87.738Z" transform="translate(-268.122 -68.19)" fill="#407093"/>
        </g>
      </g>
      <g id="Grupo_1203183" data-name="Grupo 1203183" transform="translate(61.158 0.941)">
        <g id="Grupo_1203182" data-name="Grupo 1203182">
          <g id="Grupo_1203178" data-name="Grupo 1203178">
            <path id="Trazado_1041691" data-name="Trazado 1041691" d="M313.664,19.159a11.659,11.659,0,1,0-17.3,10.2l.83,3.484h9.632l.83-3.484A11.655,11.655,0,0,0,313.664,19.159Z" transform="translate(-290.345 -7.5)" fill="#ffe07d"/>
          </g>
          <g id="Grupo_1203179" data-name="Grupo 1203179" transform="translate(3.93 5.735)">
            <path id="Trazado_1041692" data-name="Trazado 1041692" d="M339.446,53.213a13.689,13.689,0,0,1-13.592,15.3,13.676,13.676,0,0,1-4.18-.651,11.693,11.693,0,0,0,2.084,1.476l.83,3.484h9.632l.83-3.484a11.663,11.663,0,0,0,4.4-16.127Z" transform="translate(-321.674 -53.213)" fill="#ffd064"/>
          </g>
          <g id="Grupo_1203180" data-name="Grupo 1203180" transform="translate(4.816 25.346)">
            <path id="Trazado_1041693" data-name="Trazado 1041693" d="M340.391,213.588H330.76a2.028,2.028,0,0,1,0-4.056h9.632a2.028,2.028,0,1,1,0,4.056Z" transform="translate(-328.732 -209.532)" fill="#ecf4ff"/>
          </g>
          <g id="Grupo_1203181" data-name="Grupo 1203181" transform="translate(6.844 29.402)">
            <path id="Trazado_1041694" data-name="Trazado 1041694" d="M352.327,245.913h-5.234a1.267,1.267,0,0,1-1.21-.889l-.989-3.166h9.632l-.989,3.166A1.267,1.267,0,0,1,352.327,245.913Z" transform="translate(-344.894 -241.857)" fill="#90d8f9"/>
          </g>
        </g>
      </g>
      <g id="Grupo_1203184" data-name="Grupo 1203184" transform="translate(28.28 0)">
        <path id="Trazado_1041695" data-name="Trazado 1041695" d="M329.739,333.606a19.347,19.347,0,0,1-3,2.172.941.941,0,0,0-.464.811v18.25a.941.941,0,0,0,1.882,0v-17.72a21.239,21.239,0,0,0,2.823-2.1.941.941,0,0,0-1.246-1.41Z" transform="translate(-288.894 -291.546)"/>
        <path id="Trazado_1041696" data-name="Trazado 1041696" d="M94.037,376.6H86.306a1.6,1.6,0,0,1-1.595-1.595V373.6a.941.941,0,0,0-1.882,0v1.405a3.48,3.48,0,0,0,3.476,3.476H93.1V389.2a.941.941,0,1,0,1.882,0V377.541A.941.941,0,0,0,94.037,376.6Z" transform="translate(-75.986 -325.907)"/>
        <path id="Trazado_1041697" data-name="Trazado 1041697" d="M224.276,131.41a3.971,3.971,0,1,0,3.971,3.971A3.976,3.976,0,0,0,224.276,131.41Zm0,6.061a2.089,2.089,0,1,1,2.089-2.089A2.092,2.092,0,0,1,224.276,137.471Z" transform="translate(-196.214 -114.924)"/>
        <path id="Trazado_1041698" data-name="Trazado 1041698" d="M85.418,12.6a12.573,12.573,0,0,0-3.227-8.42.941.941,0,0,0-1.4,1.258A10.719,10.719,0,0,1,78.006,21.98a.94.94,0,0,0-.459.6l-.657,2.761H74.656l1.623-6.493a7.081,7.081,0,0,0,.72.038.941.941,0,0,0,0-1.882c-.087,0-.172,0-.257-.007l.156-.625a.941.941,0,0,0-1.826-.456l-.168.672a6.329,6.329,0,0,1-1.492-.819.945.945,0,0,0-1.189,0,6.328,6.328,0,0,1-1.494.821l-.168-.672a.941.941,0,0,0-1.826.456l.156.625c-.085,0-.17.007-.257.007a.941.941,0,1,0,0,1.882,7.08,7.08,0,0,0,.72-.038l1.623,6.493H68.744l-.657-2.761a.941.941,0,0,0-.459-.605,10.719,10.719,0,0,1,5.189-20.1A10.6,10.6,0,0,1,77.589,3a.941.941,0,1,0,.84-1.684,12.6,12.6,0,0,0-12.7.871A21.225,21.225,0,0,0,35.124,21.218v5.814L28.672,37.426a2.617,2.617,0,0,0,2.226,4h4.225V43.3a.941.941,0,1,0,1.882,0V40.481a.941.941,0,0,0-.941-.941H30.9a.735.735,0,0,1-.626-1.123L36.864,27.8a.941.941,0,0,0,.142-.5V21.219A19.34,19.34,0,0,1,64.1,3.506a12.588,12.588,0,0,0-3.687,6.849l-.965-3.508a.941.941,0,0,0-.907-.692H54.138a.941.941,0,0,0-.907.691l-1.069,3.888a10.505,10.505,0,0,0-2.149,1.242l-3.9-1.019a.941.941,0,0,0-1.053.44l-2.2,3.818A.941.941,0,0,0,43,16.347l2.834,2.87a10.461,10.461,0,0,0,0,2.48L43,24.568a.941.941,0,0,0-.145,1.131l2.2,3.818a.941.941,0,0,0,1.053.44l3.9-1.019a10.5,10.5,0,0,0,2.149,1.242l1.069,3.888a.941.941,0,0,0,.907.691h4.408a.941.941,0,0,0,.907-.692l1.069-3.888a10.5,10.5,0,0,0,2.149-1.242l2.673.7A2.98,2.98,0,0,0,67.282,31.2l.811,2.594a2.2,2.2,0,0,0,2.108,1.55h3.845a19.2,19.2,0,0,1-2.1,3.638.941.941,0,0,0,1.517,1.114,21.081,21.081,0,0,0,2.665-4.862,2.2,2.2,0,0,0,1.417-1.44l.811-2.594a2.968,2.968,0,0,0,.418-5.622l.514-2.158A12.617,12.617,0,0,0,85.418,12.6Zm-12.6,5.045a8.691,8.691,0,0,0,1.628.786l-1.628,6.512L71.189,18.43A8.692,8.692,0,0,0,72.817,17.644ZM61.86,27.184A8.631,8.631,0,0,1,59.407,28.6a.941.941,0,0,0-.576.631l-1,3.645H54.855l-1-3.645a.941.941,0,0,0-.576-.631,8.633,8.633,0,0,1-2.453-1.417A.942.942,0,0,0,49.988,27l-3.659.956L44.842,25.38,47.5,22.689a.94.94,0,0,0,.259-.813,8.663,8.663,0,0,1,0-2.837.941.941,0,0,0-.259-.813l-2.657-2.691,1.487-2.576,3.659.956a.941.941,0,0,0,.835-.184,8.635,8.635,0,0,1,2.453-1.417.941.941,0,0,0,.576-.631l1-3.645h2.974l1,3.645a.941.941,0,0,0,.576.631,8.8,8.8,0,0,1,.812.356A12.614,12.614,0,0,0,66.35,23.415l.514,2.158a2.98,2.98,0,0,0-1.751,2.058L62.7,27a.941.941,0,0,0-.836.184Zm13.885,6.044a.325.325,0,0,1-.312.229H70.2a.325.325,0,0,1-.312-.229l-.608-1.945h7.072ZM77.633,29.4H68a1.087,1.087,0,0,1,0-2.174h9.632a1.087,1.087,0,0,1,0,2.174Z" transform="translate(-28.28 0)"/>
      </g>
    </g>
  </g>
</svg>
