<svg xmlns="http://www.w3.org/2000/svg" xmlns:xlink="http://www.w3.org/1999/xlink" width="108" height="108" viewBox="0 0 108 108">
  <defs>
    <filter id="Trazado_904820" x="0" y="0" width="108" height="108" filterUnits="userSpaceOnUse">
      <feOffset dy="3" input="SourceAlpha"/>
      <feGaussianBlur stdDeviation="3" result="blur"/>
      <feFlood flood-opacity="0.161"/>
      <feComposite operator="in" in2="blur"/>
      <feComposite in="SourceGraphic"/>
    </filter>
  </defs>
  <g id="Grupo_1203168" data-name="Grupo 1203168" transform="translate(-621.5 -423.187)">
    <g id="Grupo_1202416" data-name="Grupo 1202416" transform="translate(2.023 10)">
      <g id="Grupo_1177315" data-name="Grupo 1177315" transform="translate(-0.523 -112.813)">
        <g id="Grupo_1173585" data-name="Grupo 1173585" transform="translate(629 532)">
          <g id="Grupo_1173428" data-name="Grupo 1173428" transform="translate(0 0)">
            <g id="Grupo_1171958" data-name="Grupo 1171958">
              <g id="Grupo_1167341" data-name="Grupo 1167341">
                <g id="Grupo_1166792" data-name="Grupo 1166792">
                  <g transform="matrix(1, 0, 0, 1, -9, -6)" filter="url(#Trazado_904820)">
                    <g id="Trazado_904820-2" data-name="Trazado 904820" transform="translate(9 6)" fill="#effbfe">
                      <path d="M 44.99999618530273 88.49999237060547 C 39.12687301635742 88.49999237060547 33.43022155761719 87.35006713867188 28.06829643249512 85.08216857910156 C 22.88852119445801 82.89130401611328 18.23629570007324 79.75457763671875 14.24084663391113 75.75914001464844 C 10.24540901184082 71.76369476318359 7.108683586120605 67.11146545410156 4.917821407318115 61.93169403076172 C 2.649921178817749 56.56976699829102 1.499996185302734 50.87311553955078 1.499996185302734 44.99999237060547 C 1.499996185302734 39.12686920166016 2.649921178817749 33.43021774291992 4.917821407318115 28.06829261779785 C 7.108683586120605 22.88851737976074 10.24540901184082 18.23630523681641 14.24084663391113 14.24085521697998 C 18.23629570007324 10.24540519714355 22.88852119445801 7.108692169189453 28.06829643249512 4.917829990386963 C 33.43022155761719 2.649929761886597 39.12687301635742 1.500004887580872 44.99999618530273 1.500004887580872 C 50.87311935424805 1.500004887580872 56.56977081298828 2.649929761886597 61.93169784545898 4.917829990386963 C 67.11147308349609 7.108692169189453 71.76369476318359 10.24540519714355 75.75914764404297 14.24085521697998 C 79.75458526611328 18.23630523681641 82.89131164550781 22.88851737976074 85.08216857910156 28.06829261779785 C 87.35007476806641 33.43021774291992 88.5 39.12686920166016 88.5 44.99999237060547 C 88.5 50.87311553955078 87.35007476806641 56.56976699829102 85.08216857910156 61.93169403076172 C 82.89131164550781 67.11146545410156 79.75458526611328 71.76369476318359 75.75914764404297 75.75914001464844 C 71.76369476318359 79.75457763671875 67.11147308349609 82.89130401611328 61.93169784545898 85.08216857910156 C 56.56977081298828 87.35006713867188 50.87311935424805 88.49999237060547 44.99999618530273 88.49999237060547 Z" stroke="none"/>
                      <path d="M 44.99999618530273 2.999992370605469 C 39.32870864868164 2.999992370605469 33.82865142822266 4.11004638671875 28.65262603759766 6.299331665039062 C 23.65165710449219 8.414566040039062 19.15968322753906 11.44333648681641 15.301513671875 15.30150604248047 C 11.44333648681641 19.15967559814453 8.414566040039062 23.65164947509766 6.299339294433594 28.65262222290039 C 4.110054016113281 33.82864761352539 2.999992370605469 39.32870483398438 2.999992370605469 44.99999237060547 C 2.999992370605469 50.67127990722656 4.110054016113281 56.17132186889648 6.299339294433594 61.34736633300781 C 8.414566040039062 66.34833526611328 11.44333648681641 70.84029388427734 15.301513671875 74.69846343994141 C 19.15968322753906 78.55663299560547 23.65165710449219 81.58540344238281 28.65262603759766 83.70063781738281 C 33.82865142822266 85.88992309570312 39.32870864868164 86.99997711181641 44.99999618530273 86.99997711181641 C 50.67128372192383 86.99997711181641 56.17134094238281 85.88992309570312 61.34736633300781 83.70063781738281 C 66.34834289550781 81.58540344238281 70.84030914306641 78.55663299560547 74.69847869873047 74.69846343994141 C 78.55665588378906 70.84029388427734 81.58542633056641 66.34833526611328 83.70065307617188 61.34736633300781 C 85.88993835449219 56.17132186889648 87 50.67127990722656 87 44.99999237060547 C 87 39.32870483398438 85.88993835449219 33.82864761352539 83.70065307617188 28.65262222290039 C 81.58542633056641 23.65164947509766 78.55665588378906 19.15967559814453 74.69847869873047 15.30150604248047 C 70.84030914306641 11.44333648681641 66.34834289550781 8.414566040039062 61.34736633300781 6.299331665039062 C 56.17134094238281 4.11004638671875 50.67128372192383 2.999992370605469 44.99999618530273 2.999992370605469 M 44.99999618530273 -7.62939453125e-06 C 69.85281372070312 -7.62939453125e-06 90 20.14717864990234 90 44.99999237060547 C 90 69.85279083251953 69.85281372070312 89.99997711181641 44.99999618530273 89.99997711181641 C 20.14717864990234 89.99997711181641 -7.62939453125e-06 69.85279083251953 -7.62939453125e-06 44.99999237060547 C -7.62939453125e-06 20.14717864990234 20.14717864990234 -7.62939453125e-06 44.99999618530273 -7.62939453125e-06 Z" stroke="none" fill="#497f88"/>
                    </g>
                  </g>
                </g>
              </g>
            </g>
          </g>
        </g>
      </g>
    </g>
    <g id="estudiar" transform="translate(646.821 444.695)">
      <g id="Grupo_1203166" data-name="Grupo 1203166" transform="translate(0.84 1.755)">
        <g id="Grupo_1203162" data-name="Grupo 1203162" transform="translate(10.555 6.802)">
          <path id="Trazado_1041641" data-name="Trazado 1041641" d="M182.985,389.052h-23.04c.244-2.574.569-4.887.769-6.207a2.583,2.583,0,0,1,1.221-1.824,23.521,23.521,0,0,1,3.828-1.815,31.327,31.327,0,0,1,5.242-1.453,2.555,2.555,0,0,1,.918,0,31.315,31.315,0,0,1,5.242,1.453,23.526,23.526,0,0,1,3.828,1.815,2.583,2.583,0,0,1,1.221,1.824C182.415,384.165,182.74,386.477,182.985,389.052Z" transform="translate(-153.422 -343.141)" fill="#95d6a4"/>
          <path id="Trazado_1041642" data-name="Trazado 1041642" d="M163.992,397.617a2.987,2.987,0,0,0-.945,1.957c-.164,1.5-.439,4.195-.634,7.155h-2.469c.244-2.575.569-4.887.769-6.207a2.583,2.583,0,0,1,1.221-1.824,21.454,21.454,0,0,1,2.058-1.08Z" transform="translate(-153.421 -360.817)" fill="#78c2a4"/>
          <path id="Trazado_1041643" data-name="Trazado 1041643" d="M133.708,89.616l-20.473.291-8.352.119s-4.195-6.133-2.923-12.128,8.991-2.361,8.991-2.361,4.2-6.411,9.738-6.411c8.231,0,11.7,7.864,15.419,5.05C136.107,74.176,140.991,83.407,133.708,89.616Z" transform="translate(-101.719 -69.126)" fill="#9d6b6b"/>
          <path id="Trazado_1041644" data-name="Trazado 1041644" d="M113.235,132.08l-8.352.119s-4.195-6.133-2.923-12.128,8.991-2.361,8.991-2.361-2.647,4.425,2.15,7.957C114.648,126.805,114.35,129.268,113.235,132.08Z" transform="translate(-101.719 -111.299)" fill="#8b5e5e"/>
          <path id="Trazado_1041645" data-name="Trazado 1041645" d="M243.128,340.164V344.9a2.836,2.836,0,0,1-5.672,0v-4.736Z" transform="translate(-222.25 -309.8)" fill="#ffddce"/>
          <g id="Grupo_1203160" data-name="Grupo 1203160" transform="translate(2.494 20.473)">
            <path id="Trazado_1041646" data-name="Trazado 1041646" d="M241.22,347.58a2.838,2.838,0,0,1-3.762-2.681v-4.736h1.852V344.9A2.836,2.836,0,0,0,241.22,347.58Z" transform="translate(-224.746 -330.273)" fill="#ffcbbe"/>
            <path id="Trazado_1041647" data-name="Trazado 1041647" d="M127.684,257.826a3.705,3.705,0,0,1-3.611-4.521,1.828,1.828,0,0,1,3.611.4h23.693a1.828,1.828,0,0,1,3.611-.4,3.705,3.705,0,0,1-3.611,4.521" transform="translate(-123.982 -251.879)" fill="#ffcbbe"/>
            <path id="Trazado_1041648" data-name="Trazado 1041648" d="M237.457,340.164h5.672v4.363h-5.672Z" transform="translate(-224.745 -330.274)" fill="#ffcbbe"/>
          </g>
          <path id="Trazado_1041649" data-name="Trazado 1041649" d="M180.716,185.478v6.637a8.634,8.634,0,0,1-8.634,8.634h-6.424a8.634,8.634,0,0,1-8.634-8.634v-6.637a5.54,5.54,0,0,0,5.541-5.539s.044.042.132.117c.928.8,6.776,5.422,18.021,5.422Z" transform="translate(-150.827 -167.525)" fill="#ffddce"/>
          <path id="Trazado_1041650" data-name="Trazado 1041650" d="M171.331,200.75h-5.672a8.634,8.634,0,0,1-8.634-8.634v-6.637a5.54,5.54,0,0,0,5.541-5.539s.044.042.132.117v12.059A8.634,8.634,0,0,0,171.331,200.75Z" transform="translate(-150.828 -167.525)" fill="#ffcbbe"/>
          <g id="Grupo_1203161" data-name="Grupo 1203161" transform="translate(8.288 24.113)">
            <ellipse id="Elipse_12587" data-name="Elipse 12587" cx="1.939" cy="1.179" rx="1.939" ry="1.179" transform="translate(15.63)" fill="#eaafa5"/>
            <ellipse id="Elipse_12588" data-name="Elipse 12588" cx="1.939" cy="1.179" rx="1.939" ry="1.179" fill="#eaafa5"/>
          </g>
        </g>
        <g id="Grupo_1203164" data-name="Grupo 1203164" transform="translate(5.182 48.574)">
          <g id="Grupo_1203163" data-name="Grupo 1203163">
            <path id="Trazado_1041651" data-name="Trazado 1041651" d="M53.752,443.213a24.376,24.376,0,0,0,10.329.356l8.307-1.5a4.016,4.016,0,0,1,4.732,3.952v2.8H53.752Z" transform="translate(-53.752 -441.999)" fill="#ecf4ff"/>
            <path id="Trazado_1041652" data-name="Trazado 1041652" d="M285.722,443.213a24.376,24.376,0,0,1-10.329.356l-8.307-1.5a4.016,4.016,0,0,0-4.732,3.952v2.8l23.369.075Z" transform="translate(-238.984 -441.999)" fill="#ecf4ff"/>
          </g>
          <path id="Trazado_1041653" data-name="Trazado 1041653" d="M198.556,442.214v3.932l-2.422-1.323-2.55,1.323v-3.539l2.972-.538A3.991,3.991,0,0,1,198.556,442.214Z" transform="translate(-177.92 -442.004)" fill="#d57080"/>
        </g>
        <path id="Trazado_1041654" data-name="Trazado 1041654" d="M21.314,35.361q-3.437.106-6.873,0a7.14,7.14,0,0,1-6.929-6.947q-.031-1.344,0-2.688a7.14,7.14,0,0,1,6.929-6.947q3.437-.106,6.873,0a7.14,7.14,0,0,1,6.929,6.947q.031,1.344,0,2.688A7.139,7.139,0,0,1,21.314,35.361Z" transform="translate(-7.496 -17.571)" fill="#e0f1f4"/>
        <circle id="Elipse_12589" data-name="Elipse 12589" cx="2.284" cy="2.284" r="2.284" transform="translate(8.987 20.259)" fill="#e0f1f4"/>
        <g id="Grupo_1203165" data-name="Grupo 1203165" transform="translate(39.098)">
          <path id="Trazado_1041655" data-name="Trazado 1041655" d="M450.748,112.762l-.073-.238a1.669,1.669,0,0,1,1-2.048l2.518-.969a1.668,1.668,0,0,1,2.194,1.066l.182.591a1.668,1.668,0,0,1-1.213,2.116l-2.627.616A1.669,1.669,0,0,1,450.748,112.762Z" transform="translate(-440.058 -98.081)" fill="#f6e781"/>
          <path id="Trazado_1041656" data-name="Trazado 1041656" d="M418.507,46l-.182-.169a1.668,1.668,0,0,1-.162-2.271l1.7-2.1a1.668,1.668,0,0,1,2.433-.174l.453.42a1.668,1.668,0,0,1,.007,2.439l-1.967,1.847A1.668,1.668,0,0,1,418.507,46Z" transform="translate(-410.925 -37.205)" fill="#f6e781"/>
          <path id="Trazado_1041657" data-name="Trazado 1041657" d="M358.037,14.424l-.242-.055a1.668,1.668,0,0,1-1.276-1.886l.42-2.665a1.668,1.668,0,0,1,2.02-1.367l.6.138a1.669,1.669,0,0,1,1.226,2.109l-.78,2.583a1.668,1.668,0,0,1-1.969,1.144Z" transform="translate(-356.497 -8.408)" fill="#f6e781"/>
        </g>
      </g>
      <g id="Grupo_1203167" data-name="Grupo 1203167" transform="translate(0 0.916)">
        <path id="Trazado_1041658" data-name="Trazado 1041658" d="M285.178,262.1a3.9,3.9,0,0,0,2.775-1.149.84.84,0,0,0-1.188-1.188,2.243,2.243,0,0,1-3.173,0,.84.84,0,0,0-1.188,1.188A3.9,3.9,0,0,0,285.178,262.1Z" transform="translate(-250.548 -230.546)"/>
        <path id="Trazado_1041659" data-name="Trazado 1041659" d="M195.262,259.763a.84.84,0,0,0-1.188,0,2.243,2.243,0,0,1-3.173,0,.84.84,0,1,0-1.188,1.188,3.924,3.924,0,0,0,5.549,0A.84.84,0,0,0,195.262,259.763Z" transform="translate(-168.241 -230.547)"/>
        <path id="Trazado_1041660" data-name="Trazado 1041660" d="M245.267,320.9H247.7a.84.84,0,1,0,0-1.68h-2.431a.84.84,0,1,0,0,1.68Z" transform="translate(-217.045 -283.562)"/>
        <path id="Trazado_1041661" data-name="Trazado 1041661" d="M52.645,49.047H47.557a.84.84,0,0,0-.809.613l-1.658,5.9-1.415-2.629a.84.84,0,0,0-.74-.442h-1.86a.84.84,0,1,0,0,1.68h1.358L44.6,58.189a.84.84,0,0,0,.74.442.856.856,0,0,0,.092-.005.84.84,0,0,0,.717-.608l2.049-7.291h4.451a.84.84,0,0,0,0-1.681Z" transform="translate(-35.728 -43.655)"/>
        <path id="Trazado_1041662" data-name="Trazado 1041662" d="M116.712,78.139a.84.84,0,0,0,1.006,1.346,7.264,7.264,0,0,0,2.586-4.7,2.678,2.678,0,1,0-2.645,2.257h.038A5.184,5.184,0,0,1,116.712,78.139Zm-.05-3.777a1,1,0,1,1,1,1A1,1,0,0,1,116.662,74.362Z" transform="translate(-102.101 -63.756)"/>
        <path id="Trazado_1041663" data-name="Trazado 1041663" d="M450.719,104.266l-.182-.59a2.509,2.509,0,0,0-3.3-1.6l-2.518.969a2.516,2.516,0,0,0-1.5,3.08l.073.238a2.518,2.518,0,0,0,2.4,1.769,2.489,2.489,0,0,0,.57-.066l2.627-.616a2.508,2.508,0,0,0,1.824-3.181Zm-1.679,1.151a.82.82,0,0,1-.529.394l-2.627.616a.83.83,0,0,1-.981-.562h0l-.073-.237a.831.831,0,0,1,.494-1.017l2.518-.969a.82.82,0,0,1,.659.028.82.82,0,0,1,.43.5l.182.59A.819.819,0,0,1,449.041,105.417Z" transform="translate(-393.473 -90.593)"/>
        <path id="Trazado_1041664" data-name="Trazado 1041664" d="M411.3,39.955a2.516,2.516,0,0,0,3.424-.01l1.967-1.847a2.509,2.509,0,0,0-.011-3.667l-.453-.421a2.509,2.509,0,0,0-3.658.262l-1.7,2.1a2.516,2.516,0,0,0,.244,3.415Zm.88-2.528,1.7-2.1a.82.82,0,0,1,.585-.305l.061,0a.819.819,0,0,1,.561.221l.453.42a.828.828,0,0,1,0,1.211l-1.967,1.847a.831.831,0,0,1-1.13,0l-.182-.169A.831.831,0,0,1,412.183,37.427Z" transform="translate(-364.354 -29.708)"/>
        <path id="Trazado_1041665" data-name="Trazado 1041665" d="M350.955,8.535l.242.055h0a2.491,2.491,0,0,0,.556.063,2.518,2.518,0,0,0,2.4-1.783l.78-2.583a2.509,2.509,0,0,0-1.843-3.17l-.6-.138a2.509,2.509,0,0,0-3.037,2.055l-.42,2.665A2.516,2.516,0,0,0,350.955,8.535ZM350.7,5.961l.42-2.665a.829.829,0,0,1,.815-.7.841.841,0,0,1,.187.021l.6.138a.828.828,0,0,1,.609,1.047l-.78,2.583a.831.831,0,0,1-.977.568h0l-.242-.055a.831.831,0,0,1-.633-.936Z" transform="translate(-309.907 -0.916)"/>
        <path id="Trazado_1041666" data-name="Trazado 1041666" d="M54.554,65.546H53.6V60.7a.84.84,0,0,0-1.046-.814,23.6,23.6,0,0,1-4.13.662.84.84,0,1,0,.118,1.676,25.293,25.293,0,0,0,3.378-.468v3.788l-21.688-.076V63.506a3.176,3.176,0,0,1,3.742-3.126l8.306,1.5a25.035,25.035,0,0,0,2.79.347.84.84,0,0,0,.112-1.677,23.374,23.374,0,0,1-2.6-.323L41.4,60.017c-.113-.889-.24-1.8-.379-2.724A3.409,3.409,0,0,0,39.4,54.877a24.326,24.326,0,0,0-3.966-1.882c-.756-.283-1.534-.539-2.32-.766V51.77a9.493,9.493,0,0,0,8.631-6.816,4.546,4.546,0,0,0,3.969-5.523,2.688,2.688,0,0,0-.855-1.458,12,12,0,0,0,3.291-9.9,16.941,16.941,0,0,0-1.626-5.7.84.84,0,0,0-1.249-.277c-1.3.982-2.524.228-4.951-1.432-2.466-1.686-5.534-3.786-9.96-3.786-3.248,0-6.017,1.948-7.924,3.812,0-.547,0-1.095-.015-1.637a7.973,7.973,0,0,0-7.743-7.767c-2.3-.071-4.627-.071-6.925,0A7.975,7.975,0,0,0,.016,19.051c-.022.9-.022,1.823,0,2.728a7.888,7.888,0,0,0,1.51,4.466.84.84,0,0,0,1.359-.988A6.214,6.214,0,0,1,1.7,21.738c-.021-.878-.021-1.769,0-2.648a6.294,6.294,0,0,1,6.115-6.127c2.263-.07,4.558-.07,6.821,0a6.293,6.293,0,0,1,6.115,6.127c.021.878.021,1.769,0,2.648a6.293,6.293,0,0,1-6.115,6.126c-2.263.07-4.558.07-6.821,0a6.269,6.269,0,0,1-2.668-.681.84.84,0,0,0-.762,1.5,7.935,7.935,0,0,0,3.378.863q1.4.043,2.818.051.029.538.1,1.088a3.123,3.123,0,0,0,1.788,5.878,22.338,22.338,0,0,0,1.06,1.988,2.8,2.8,0,0,0-.362.881,4.546,4.546,0,0,0,3.969,5.523,9.492,9.492,0,0,0,8.632,6.816v.458c-.784.226-1.562.482-2.321.766a24.335,24.335,0,0,0-3.965,1.882,3.41,3.41,0,0,0-1.62,2.419c-.134.891-.26,1.8-.376,2.705l-1.278.231a23.4,23.4,0,0,1-9.974-.344.84.84,0,0,0-1.046.815v4.842H4.227a.84.84,0,0,0,0,1.68H54.555a.84.84,0,0,0,0-1.68ZM31.434,51.782v1.034a2,2,0,1,1-3.991,0V51.782Zm10.649-8.6c.027-.289.042-.58.042-.876v-.6c.178-.18.483-.417.769-.3a.84.84,0,0,0,.629-1.558,2.1,2.1,0,0,0-1.372-.074.992.992,0,0,1,1.926.031,2.865,2.865,0,0,1-1.993,3.381ZM10.667,33.458A1.444,1.444,0,1,1,12.111,34.9,1.446,1.446,0,0,1,10.667,33.458Zm1.661-3.116q-.045-.378-.068-.749,1.215-.011,2.424-.048a7.985,7.985,0,0,0,7.532-6.128c1.3-1.576,4.459-4.859,8.149-4.859,3.906,0,6.737,1.936,9.011,3.492,2.059,1.408,4.018,2.748,6.024,1.906a15.8,15.8,0,0,1,1.079,4.286,10.241,10.241,0,0,1-3.391,9.108c-.09,0-.18.007-.271.017a2.856,2.856,0,0,0-.692.166V35.67a.84.84,0,0,0-.84-.84,31.817,31.817,0,0,1-13.259-2.655,17.441,17.441,0,0,1-4.315-2.654.84.84,0,0,0-1.418.61,4.705,4.705,0,0,1-4.7,4.7.84.84,0,0,0-.84.84v1.863a2.857,2.857,0,0,0-.692-.166,2.76,2.76,0,0,0-1.208.127c-.223-.381-.518-.917-.829-1.568a3.122,3.122,0,0,0-1.7-5.585Zm2.4,10.094a2.883,2.883,0,0,1,.07-.634.992.992,0,0,1,1.926-.03,2.1,2.1,0,0,0-1.372.074.84.84,0,1,0,.629,1.558c.285-.115.59.122.768.3v.6c0,.3.015.587.042.875A2.866,2.866,0,0,1,14.73,40.435Zm3.7,1.872V36.455a6.4,6.4,0,0,0,5.344-4.75c2.271,1.6,7.723,4.617,16.668,4.8v5.805A7.8,7.8,0,0,1,32.65,50.1H26.226A7.8,7.8,0,0,1,18.432,42.307Zm1.086,15.241a1.734,1.734,0,0,1,.823-1.231,22.664,22.664,0,0,1,3.69-1.749c.623-.233,1.261-.446,1.9-.638a3.676,3.676,0,0,0,7.006,0c.645.193,1.282.406,1.9.638a22.661,22.661,0,0,1,3.691,1.75,1.732,1.732,0,0,1,.822,1.228c.109.728.211,1.448.3,2.157l-5.389-.976a4.86,4.86,0,0,0-4.882,2.049,4.849,4.849,0,0,0-4.881-2.048l-5.294.959c.095-.718.2-1.434.3-2.138Zm3.01,3.246,2.281-.413a3.175,3.175,0,0,1,1.009-.022v1.855l-1.178-.644a.84.84,0,0,0-.79-.008l-1.322.686V60.795Zm-15.665.965a25.056,25.056,0,0,0,9.64.127l4.345-.787v2.532a.84.84,0,0,0,1.227.746l2.152-1.116,2.029,1.108a.84.84,0,0,0,1.243-.737V61.146a3.174,3.174,0,0,1,1.053,2.361v1.965H6.862Z" transform="translate(0 -10.075)"/>
      </g>
    </g>
  </g>
</svg>
