<svg xmlns="http://www.w3.org/2000/svg" xmlns:xlink="http://www.w3.org/1999/xlink" width="108" height="108" viewBox="0 0 108 108">
  <defs>
    <filter id="Trazado_904820" x="0" y="0" width="108" height="108" filterUnits="userSpaceOnUse">
      <feOffset dy="3" input="SourceAlpha"/>
      <feGaussianBlur stdDeviation="3" result="blur"/>
      <feFlood flood-opacity="0.161"/>
      <feComposite operator="in" in2="blur"/>
      <feComposite in="SourceGraphic"/>
    </filter>
  </defs>
  <g id="Grupo_1203293" data-name="Grupo 1203293" transform="translate(-620 -7268.718)">
    <g id="Grupo_1202605" data-name="Grupo 1202605" transform="translate(629 7274.718)">
      <g id="Grupo_1178315" data-name="Grupo 1178315" transform="translate(0 0)">
        <g id="Grupo_1173585" data-name="Grupo 1173585" transform="translate(0 0)">
          <g id="Grupo_1173428" data-name="Grupo 1173428">
            <g id="Grupo_1171958" data-name="Grupo 1171958">
              <g id="Grupo_1167341" data-name="Grupo 1167341">
                <g id="Grupo_1166792" data-name="Grupo 1166792">
                  <g transform="matrix(1, 0, 0, 1, -9, -6)" filter="url(#Trazado_904820)">
                    <g id="Trazado_904820-2" data-name="Trazado 904820" transform="translate(9 6)" fill="#ebe9f0">
                      <path d="M 44.99999618530273 88.49990081787109 C 39.12687301635742 88.49990081787109 33.43022155761719 87.3499755859375 28.06829643249512 85.08207702636719 C 22.88852119445801 82.89122009277344 18.23629570007324 79.75450134277344 14.24084663391113 75.75906372070312 C 10.24540901184082 71.76361846923828 7.108683586120605 67.11140441894531 4.917821407318115 61.931640625 C 2.649921178817749 56.56971740722656 1.499996185302734 50.87306594848633 1.499996185302734 44.99995422363281 C 1.499996185302734 39.1268424987793 2.649921178817749 33.43019104003906 4.917821407318115 28.06826591491699 C 7.108683586120605 22.88850402832031 10.24540901184082 18.23629188537598 14.24084663391113 14.24084186553955 C 18.23629570007324 10.24540424346924 22.88852119445801 7.108691692352295 28.06829643249512 4.917829036712646 C 33.43022155761719 2.649929285049438 39.12687301635742 1.500004172325134 44.99999618530273 1.500004172325134 C 50.87311935424805 1.500004172325134 56.56977081298828 2.649929285049438 61.93169784545898 4.917829036712646 C 67.11147308349609 7.108691692352295 71.76369476318359 10.24540424346924 75.75914764404297 14.24084186553955 C 79.75458526611328 18.23629188537598 82.89131164550781 22.88850402832031 85.08216857910156 28.06826591491699 C 87.35007476806641 33.43019104003906 88.5 39.1268424987793 88.5 44.99995422363281 C 88.5 50.87306594848633 87.35007476806641 56.56971740722656 85.08216857910156 61.931640625 C 82.89131164550781 67.11140441894531 79.75458526611328 71.76361846923828 75.75914764404297 75.75906372070312 C 71.76369476318359 79.75450134277344 67.11147308349609 82.89122009277344 61.93169784545898 85.08207702636719 C 56.56977081298828 87.3499755859375 50.87311935424805 88.49990081787109 44.99999618530273 88.49990081787109 Z" stroke="none"/>
                      <path d="M 44.99999618530273 3 C 39.32870864868164 3 33.82865142822266 4.110054016113281 28.65262603759766 6.299324035644531 C 23.65165710449219 8.414566040039062 19.15968322753906 11.44332885742188 15.301513671875 15.30149841308594 C 11.44333648681641 19.15966796875 8.414566040039062 23.65162658691406 6.299339294433594 28.65259552001953 C 4.110054016113281 33.8286247253418 2.999992370605469 39.32866668701172 2.999992370605469 44.99995422363281 C 2.999992370605469 50.67124176025391 4.110054016113281 56.17128372192383 6.299339294433594 61.34731292724609 C 8.414566040039062 66.34828186035156 11.44333648681641 70.84024047851562 15.301513671875 74.69841003417969 C 19.15968322753906 78.55657958984375 23.65165710449219 81.58534240722656 28.65262603759766 83.70058441162109 C 33.82865142822266 85.88985443115234 39.32870864868164 86.99990844726562 44.99999618530273 86.99990844726562 C 50.67128372192383 86.99990844726562 56.17134094238281 85.88985443115234 61.34736633300781 83.70058441162109 C 66.34834289550781 81.58534240722656 70.84030914306641 78.55657958984375 74.69847869873047 74.69841003417969 C 78.55665588378906 70.84024047851562 81.58542633056641 66.34828186035156 83.70065307617188 61.34731292724609 C 85.88993835449219 56.17128372192383 87 50.67124176025391 87 44.99995422363281 C 87 39.32866668701172 85.88993835449219 33.8286247253418 83.70065307617188 28.65259552001953 C 81.58542633056641 23.65162658691406 78.55665588378906 19.15966796875 74.69847869873047 15.30149841308594 C 70.84030914306641 11.44332885742188 66.34834289550781 8.414566040039062 61.34736633300781 6.299324035644531 C 56.17134094238281 4.110054016113281 50.67128372192383 3 44.99999618530273 3 M 44.99999618530273 0 C 69.85281372070312 0 90 20.14717102050781 90 44.99995422363281 C 90 69.85273742675781 69.85281372070312 89.99990844726562 44.99999618530273 89.99990844726562 C 20.14717864990234 89.99990844726562 -7.62939453125e-06 69.85273742675781 -7.62939453125e-06 44.99995422363281 C -7.62939453125e-06 20.14717102050781 20.14717864990234 0 44.99999618530273 0 Z" stroke="none" fill="#453179"/>
                    </g>
                  </g>
                </g>
              </g>
            </g>
          </g>
        </g>
      </g>
    </g>
    <g id="aprender-en-linea_4_" data-name="aprender-en-linea (4)" transform="translate(645.266 7290.491)">
      <g id="Grupo_1203206" data-name="Grupo 1203206" transform="translate(0.851 0.856)">
        <path id="Trazado_1041862" data-name="Trazado 1041862" d="M180.8,428.486a1.027,1.027,0,0,0-1.025-.952H168.368l-.5,6.823h13.365Z" transform="translate(-150.047 -379.579)" fill="#596c76"/>
        <path id="Trazado_1041863" data-name="Trazado 1041863" d="M60.74,102.259H14.668a2.842,2.842,0,0,0-2.842,2.842v26.377l1.261,1.679H60.928V103.274A2.835,2.835,0,0,0,60.74,102.259Z" transform="translate(-11.821 -91.441)" fill="#99e6fc"/>
        <path id="Trazado_1041864" data-name="Trazado 1041864" d="M183.206,392.1a1.028,1.028,0,0,1,1.025.952l.431,5.871h2.619l-.836-11.39H172.59l-.335,4.567Z" transform="translate(-153.934 -344.145)" fill="#465a61"/>
        <path id="Trazado_1041865" data-name="Trazado 1041865" d="M434.351,102.259h-.085a2.833,2.833,0,0,1,.188,1.015v29.882h.868l1.872-1.679V105.1A2.842,2.842,0,0,0,434.351,102.259Z" transform="translate(-386.031 -91.441)" fill="#62dbfb"/>
        <path id="Trazado_1041866" data-name="Trazado 1041866" d="M134.757,348.443v-2.078a4.131,4.131,0,0,0-4.131-4.131H112.105a4.131,4.131,0,0,0-4.131,4.131v2.078Z" transform="translate(-96.992 -304.018)" fill="#fdb97e"/>
        <path id="Trazado_1041867" data-name="Trazado 1041867" d="M306.976,346.365v2.078H309.8v-2.078a4.131,4.131,0,0,0-4.131-4.131h-2.823A4.131,4.131,0,0,1,306.976,346.365Z" transform="translate(-269.614 -304.018)" fill="#fea95c"/>
        <path id="Trazado_1041868" data-name="Trazado 1041868" d="M184.668,348.443l2.541-6.209H172.834l2.542,6.209Z" transform="translate(-154.447 -304.018)" fill="#b3ceec"/>
        <path id="Trazado_1041869" data-name="Trazado 1041869" d="M132.481,42.147a29.931,29.931,0,0,0-12.407,0,8.17,8.17,0,0,0-6.366,6.95h.657v1.513h-.748c0,.168-.011-.087.073,1.5h1.078v1.513h-1c.074,1.395.184,3.47.349,6.574h24.316l.5-9.332A8.294,8.294,0,0,0,132.481,42.147Z" transform="translate(-101.989 -37.615)" fill="#9facba"/>
        <path id="Trazado_1041870" data-name="Trazado 1041870" d="M237.052,53.175V51.663h.7c.084-1.582.069-1.329.073-1.5h-1.1V48.653h1.006a8.17,8.17,0,0,0-6.366-6.95,38.056,38.056,0,0,0-8.624-.684,38.084,38.084,0,0,1,6,.684,8.294,8.294,0,0,1,6.449,8.715l-.5,9.332h2.622c.165-3.1.275-5.179.349-6.574h-.624Z" transform="translate(-198.663 -37.172)" fill="#8d9ca8"/>
        <path id="Trazado_1041871" data-name="Trazado 1041871" d="M110.462,171.592h-5.587a3.9,3.9,0,0,1,0-7.8h5.587Z" transform="translate(-90.8 -145.946)" fill="#ffb09e"/>
        <path id="Trazado_1041872" data-name="Trazado 1041872" d="M287.74,163.79h5.587a3.9,3.9,0,0,1,0,7.8H287.74Z" transform="translate(-256.234 -145.947)" fill="#f89580"/>
        <path id="Trazado_1041873" data-name="Trazado 1041873" d="M169.108,326.106l-2.953,1.587a.521.521,0,0,0-.1.847l3.9,3.507a.521.521,0,0,0,.649.038l3.251-2.3Z" transform="translate(-148.287 -289.731)" fill="#f2fbff"/>
        <path id="Trazado_1041874" data-name="Trazado 1041874" d="M261.789,327.692l-2.953-1.587-.908.7,1.642.883a.521.521,0,0,1,.1.847l-3.233,2.908.9.638a.521.521,0,0,0,.649-.038l3.9-3.507A.521.521,0,0,0,261.789,327.692Z" transform="translate(-228.507 -289.73)" fill="#dff6fd"/>
        <path id="Trazado_1041875" data-name="Trazado 1041875" d="M194.148,321.9l4.745,3.683,4.781-3.683v-.542h-9.526Z" transform="translate(-173.327 -285.523)" fill="#ffa78f"/>
        <path id="Trazado_1041876" data-name="Trazado 1041876" d="M194.148,251.741a11.648,11.648,0,0,0,9.526-.015v-8.957h-9.526Z" transform="translate(-173.327 -215.909)" fill="#f89580"/>
        <path id="Trazado_1041877" data-name="Trazado 1041877" d="M155.82,95.891V91.83c0-6.8-5.816-11.384-10.587-11.384A11.455,11.455,0,0,0,135.05,91.83v4.061a11.454,11.454,0,0,0,10.183,11.384C149.995,107.275,155.82,102.7,155.82,95.891Z" transform="translate(-120.976 -72.118)" fill="#ffcebf"/>
        <path id="Trazado_1041878" data-name="Trazado 1041878" d="M224.245,79.877a11.456,11.456,0,0,1,10.183,11.384v4.061a11.456,11.456,0,0,1-10.183,11.384,11.469,11.469,0,0,0,12.8-11.384V91.262A11.468,11.468,0,0,0,224.245,79.877Z" transform="translate(-199.988 -71.549)" fill="#ffb09e"/>
        <path id="Trazado_1041879" data-name="Trazado 1041879" d="M285.788,224.886h-1.732a.779.779,0,1,0,0,1.558h1.732a.779.779,0,1,0,0-1.558Z" transform="translate(-252.281 -200.067)" fill="#fe8f83"/>
        <path id="Trazado_1041880" data-name="Trazado 1041880" d="M135.05,46.51a5.737,5.737,0,0,0,5.556,5.9h11.058a5.737,5.737,0,0,0,5.556-5.9V43.421a7.691,7.691,0,0,0-3.535-1.727,37.941,37.941,0,0,0-14.626,0,7.712,7.712,0,0,0-4.01,2.173Z" transform="translate(-120.976 -37.163)" fill="#9facba"/>
        <path id="Trazado_1041881" data-name="Trazado 1041881" d="M238.216,336.912,241.449,334a.521.521,0,0,0-.1-.847l-1.642-.883-3.838,2.978Z" transform="translate(-210.283 -295.196)" fill="#f2fbff"/>
        <path id="Trazado_1041882" data-name="Trazado 1041882" d="M234.844,47.458a30.248,30.248,0,0,0,.063-3.981,8.2,8.2,0,0,0-2.223-1.343c-2.128-.835-7.062-1.168-9.936-1.068a38.085,38.085,0,0,1,6,.684A8.072,8.072,0,0,1,234.844,47.458Z" transform="translate(-198.663 -37.219)" fill="#8d9ca8"/>
        <path id="Trazado_1041883" data-name="Trazado 1041883" d="M160.105,224.886h1.732a.779.779,0,1,1,0,1.558h-1.732a.779.779,0,1,1,0-1.558Z" transform="translate(-142.481 -200.067)" fill="#fe8f83"/>
        <path id="Trazado_1041884" data-name="Trazado 1041884" d="M11.784,358.188c0,4.281-.055,4.219.188,4.874H58.044a2.842,2.842,0,0,0,2.842-2.842v-2.032h-49.1Z" transform="translate(-11.779 -318.15)" fill="#8d9ca8"/>
        <path id="Trazado_1041885" data-name="Trazado 1041885" d="M61.7,358.188v2.032a2.842,2.842,0,0,1-2.842,2.842H13.469a2.843,2.843,0,0,0,2.655,1.827H61.6a2.842,2.842,0,0,0,2.842-2.842v-3.859Z" transform="translate(-13.276 -318.15)" fill="#7a8c98"/>
        <path id="Trazado_1041886" data-name="Trazado 1041886" d="M336.374,25.162,340,22.783h.694a6.866,6.866,0,0,0,6.866-6.866v-1.55A6.866,6.866,0,0,0,340.7,7.5H336.3a6.866,6.866,0,0,0-6.866,6.866v1.55a6.865,6.865,0,0,0,6.614,6.859l-.136,2.386h.457Z" transform="translate(-293.172 -7.501)" fill="#f2fbff"/>
        <path id="Trazado_1041887" data-name="Trazado 1041887" d="M392.179,7.5h-1.827a6.866,6.866,0,0,1,6.866,6.866v1.55a6.866,6.866,0,0,1-6.866,6.866h-.694l-3.628,2.38-.018.325a.464.464,0,0,0,.718.414l4.755-3.119h.694a6.866,6.866,0,0,0,6.866-6.866v-1.55A6.866,6.866,0,0,0,392.179,7.5Z" transform="translate(-343.285 -7.5)" fill="#dff6fd"/>
        <path id="Trazado_1041888" data-name="Trazado 1041888" d="M144.711,468.685a2.168,2.168,0,0,0-2.168-2.168H122.569a2.168,2.168,0,0,0,0,4.336h19.974A2.168,2.168,0,0,0,144.711,468.685Z" transform="translate(-108 -414.112)" fill="#8d9ca8"/>
        <path id="Trazado_1041889" data-name="Trazado 1041889" d="M314.626,466.517h-2.283a2.168,2.168,0,0,1,0,4.336h2.283a2.168,2.168,0,0,0,0-4.336Z" transform="translate(-278.028 -414.112)" fill="#7a8c98"/>
        <g id="Grupo_1203205" data-name="Grupo 1203205" transform="translate(20.136 26.734)">
          <path id="Trazado_1041890" data-name="Trazado 1041890" d="M191.408,244.75h-3.26v-.894a2.188,2.188,0,0,1,2.188-2.188h3.26v.894A2.188,2.188,0,0,1,191.408,244.75Z" transform="translate(-188.148 -241.667)" fill="#9facba"/>
          <path id="Trazado_1041891" data-name="Trazado 1041891" d="M238.055,244.75h3.26v-.894a2.188,2.188,0,0,0-2.188-2.188h-3.26v.894A2.188,2.188,0,0,0,238.055,244.75Z" transform="translate(-230.419 -241.667)" fill="#9facba"/>
        </g>
      </g>
      <g id="Grupo_1203207" data-name="Grupo 1203207">
        <path id="Trazado_1041892" data-name="Trazado 1041892" d="M58,1.071a.856.856,0,0,0-.872,1.474A6.041,6.041,0,0,1,60.08,7.722v1.55a6.02,6.02,0,0,1-4.794,5.886l-.012,0a8.8,8.8,0,0,1-1.9.121.855.855,0,0,0-.47.14l-4.1,2.692.11-1.934a.857.857,0,0,0-.824-.9A5.988,5.988,0,0,1,44.8,14.147h0a6.033,6.033,0,0,1-2.455-4.164A18.818,18.818,0,0,1,42.3,7.8a6.015,6.015,0,0,1,6.009-6.09H54.07A.856.856,0,0,0,54.07,0H48.309a7.734,7.734,0,0,0-7.439,5.655,11.518,11.518,0,0,0-5.02-1.474.856.856,0,1,0-.237,1.7c2.567.359,3.675.654,4.976,1.665L40.565,10.2a4.887,4.887,0,0,1-4.7,5.045H24.805a4.889,4.889,0,0,1-4.7-5.045V7.92a6.84,6.84,0,0,1,3.319-1.693,37.5,37.5,0,0,1,8.3-.677.856.856,0,1,0,.051-1.712,39.206,39.206,0,0,0-8.681.708,8.572,8.572,0,0,0-4.449,2.405l-.006.006a9.335,9.335,0,0,0-2.286,3.86H8.024a3.7,3.7,0,0,0-3.7,3.7V44.752a3.7,3.7,0,0,0,3.7,3.7h3.459a.856.856,0,0,0,0-1.713H8.024a1.988,1.988,0,0,1-1.986-1.986V42.315H55.483v2.437A1.988,1.988,0,0,1,53.5,46.738H15.479a.856.856,0,0,0,0,1.713h7.187l-.29,3.955h-2.63a3.024,3.024,0,1,0,0,6.049H41.775a3.024,3.024,0,0,0,0-6.049h-2.63l-.29-3.955H53.5a3.7,3.7,0,0,0,3.7-3.7V16.331a7.732,7.732,0,0,0,4.6-7.059V7.722A7.761,7.761,0,0,0,58,1.071ZM43.087,55.43a1.314,1.314,0,0,1-1.312,1.312H19.746a1.312,1.312,0,0,1,0-2.624H41.775A1.313,1.313,0,0,1,43.087,55.43Zm-5.659-3.024H24.093l.29-3.954H37.138ZM45.3,22.613a2.98,2.98,0,0,1-2.241,2.909c.018-.239.032-.6.032-.892V20.568c0-.277-.011-.592-.032-.892a3.168,3.168,0,0,1,.591.222l.026.016a2.952,2.952,0,0,1,1.375,1.461,3.132,3.132,0,0,1,.25,1.213v.024ZM43.215,40.6H38.8a2.518,2.518,0,0,0,.628-.675h1.805A3.292,3.292,0,0,1,43.215,40.6Zm-22.925-.675h1.788a2.552,2.552,0,0,0,.628.675h-4.4A3.277,3.277,0,0,1,20.291,39.928Zm4.977.675-1.4-1.257,2.043-1.1.988.767L28.946,40.6H25.267Zm5.478-.772-3.891-3.02v-.488a12.762,12.762,0,0,0,3.93.617,12.278,12.278,0,0,0,3.884-.628V36.8C32.128,38.768,33.023,38.076,30.745,39.831ZM43.274,17.95a4.733,4.733,0,0,0-.476-.074q-.1-.463-.242-.916h.77Zm.128-2.7H41.887a12.969,12.969,0,0,0-.7-1.271,6.865,6.865,0,0,0,.447-.814A7.689,7.689,0,0,0,43.4,15.247ZM35.865,16.96a6.214,6.214,0,0,0,4.148-1.6,10.588,10.588,0,0,1,1.369,5.211c0,4.484,0,4.155-.008,4.455a10.638,10.638,0,0,1-21.268-.395V20.569a10.624,10.624,0,0,1,1.125-4.756,6.161,6.161,0,0,0,3.575,1.148Zm-19.639,5.41c0-.011,0-.022,0-.033a3,3,0,0,1,2.2-2.653q-.032.44-.032.884v4.061c0,.271.013.623.032.888A3.012,3.012,0,0,1,16.226,22.371Zm2.464-4.489a4.8,4.8,0,0,0-.812.162l-.058-1.084h1.114C18.84,17.27,18.746,17.629,18.69,17.881ZM19.94,14.6c-.1.179-.215.4-.337.651H17.73l-.063-1.191v0c0-.035,0-.07,0-.105h1.81a6.784,6.784,0,0,0,.467.647Zm-2.161-2.359a7.677,7.677,0,0,1,.617-1.969,7.059,7.059,0,0,0,.3,1.969ZM6.039,14.517a1.988,1.988,0,0,1,1.986-1.986h7.981v.008a9.826,9.826,0,0,0-.048,1.608l.255,4.8a4.753,4.753,0,0,0,2.476,8.366,12.325,12.325,0,0,0,6.455,8.3v1.1a27.106,27.106,0,0,0-2.728,1.5H20.291a5.013,5.013,0,0,0-4.245,2.372l-.01.015h-10V14.517ZM35.6,38.253l2.034,1.093-1.4,1.257H32.557c1.384-1.074.71-.554,3.042-2.35ZM55.483,16.865V40.6h-10a5.015,5.015,0,0,0-4.256-2.387H39.09a27.754,27.754,0,0,0-2.71-1.487V35.6a12.287,12.287,0,0,0,6.42-8.281,4.717,4.717,0,0,0,4.216-4.7v-.024a4.738,4.738,0,0,0-2.065-3.92c.083-1.565,0,0,.126-2.377a7.7,7.7,0,0,0,2.078.616c-.052.915-.029.515-.107,1.885a1.321,1.321,0,0,0,2.042,1.181L53.631,17A9.361,9.361,0,0,0,55.483,16.865Z" transform="translate(-4.326 0)"/>
        <path id="Trazado_1041893" data-name="Trazado 1041893" d="M364.756,31.459a.856.856,0,0,0-.856-.856h-7a1.091,1.091,0,0,0-1.04.776l-1.4,4.693-.069-.382a1.2,1.2,0,0,0-1.179-.984h-1.059a.856.856,0,0,0,0,1.713h.63l.463,2.547a1.081,1.081,0,0,0,1.008.889l.06,0a1.081,1.081,0,0,0,1.038-.776l2.011-6.765H363.9a.856.856,0,0,0,.856-.856Z" transform="translate(-311.687 -27.109)"/>
        <path id="Trazado_1041894" data-name="Trazado 1041894" d="M413.542,62.471a.856.856,0,0,0-1.211,0l-1.194,1.194-1.194-1.194a.856.856,0,0,0-1.211,1.211l1.194,1.194-1.194,1.194a.856.856,0,0,0,1.211,1.211l1.194-1.194,1.194,1.194a.856.856,0,1,0,1.211-1.211l-1.194-1.194,1.194-1.194A.856.856,0,0,0,413.542,62.471Z" transform="translate(-362.339 -55.117)"/>
        <path id="Trazado_1041895" data-name="Trazado 1041895" d="M179.064,189.336v2.117a.856.856,0,1,0,1.713,0v-2.117a.856.856,0,1,0-1.713,0Z" transform="translate(-159.114 -166.962)"/>
        <path id="Trazado_1041896" data-name="Trazado 1041896" d="M278.217,192.309a.856.856,0,0,0,.856-.856v-2.117a.856.856,0,1,0-1.713,0v2.117A.856.856,0,0,0,278.217,192.309Z" transform="translate(-246.189 -166.962)"/>
        <path id="Trazado_1041897" data-name="Trazado 1041897" d="M180.647,237.211v.894a.856.856,0,0,0,.856.856h3.26a3.035,3.035,0,0,0,2.188-.931,3.035,3.035,0,0,0,2.188.931h3.26a.856.856,0,0,0,.856-.856v-.894a3.048,3.048,0,0,0-3.045-3.045h-6.52A3.048,3.048,0,0,0,180.647,237.211Zm10.9.038h-2.4a1.333,1.333,0,0,1-1.332-1.37h2.4A1.333,1.333,0,0,1,191.543,237.249Zm-7.852-1.37h2.4a1.333,1.333,0,0,1-1.332,1.37h-2.4A1.333,1.333,0,0,1,183.691,235.879Z" transform="translate(-160.517 -207.432)"/>
      </g>
    </g>
  </g>
</svg>
