<svg xmlns="http://www.w3.org/2000/svg" xmlns:xlink="http://www.w3.org/1999/xlink" width="108" height="108" viewBox="0 0 108 108">
  <defs>
    <filter id="Trazado_904820" x="0" y="0" width="108" height="108" filterUnits="userSpaceOnUse">
      <feOffset dy="3" input="SourceAlpha"/>
      <feGaussianBlur stdDeviation="3" result="blur"/>
      <feFlood flood-opacity="0.161"/>
      <feComposite operator="in" in2="blur"/>
      <feComposite in="SourceGraphic"/>
    </filter>
  </defs>
  <g id="Grupo_1203210" data-name="Grupo 1203210" transform="translate(-620 -7268.718)">
    <g id="Grupo_1202605" data-name="Grupo 1202605" transform="translate(629 7274.718)">
      <g id="Grupo_1178315" data-name="Grupo 1178315" transform="translate(0 0)">
        <g id="Grupo_1173585" data-name="Grupo 1173585" transform="translate(0 0)">
          <g id="Grupo_1173428" data-name="Grupo 1173428">
            <g id="Grupo_1171958" data-name="Grupo 1171958">
              <g id="Grupo_1167341" data-name="Grupo 1167341">
                <g id="Grupo_1166792" data-name="Grupo 1166792">
                  <g transform="matrix(1, 0, 0, 1, -9, -6)" filter="url(#Trazado_904820)">
                    <g id="Trazado_904820-2" data-name="Trazado 904820" transform="translate(9 6)" fill="#fdfbec">
                      <path d="M 44.99999618530273 88.49990081787109 C 39.12687301635742 88.49990081787109 33.43022155761719 87.3499755859375 28.06829643249512 85.08207702636719 C 22.88852119445801 82.89122009277344 18.23629570007324 79.75450134277344 14.24084663391113 75.75906372070312 C 10.24540901184082 71.76361846923828 7.108683586120605 67.11140441894531 4.917821407318115 61.931640625 C 2.649921178817749 56.56971740722656 1.499996185302734 50.87306594848633 1.499996185302734 44.99995422363281 C 1.499996185302734 39.1268424987793 2.649921178817749 33.43019104003906 4.917821407318115 28.06826591491699 C 7.108683586120605 22.88850402832031 10.24540901184082 18.23629188537598 14.24084663391113 14.24084186553955 C 18.23629570007324 10.24540424346924 22.88852119445801 7.108691692352295 28.06829643249512 4.917829036712646 C 33.43022155761719 2.649929285049438 39.12687301635742 1.500004172325134 44.99999618530273 1.500004172325134 C 50.87311935424805 1.500004172325134 56.56977081298828 2.649929285049438 61.93169784545898 4.917829036712646 C 67.11147308349609 7.108691692352295 71.76369476318359 10.24540424346924 75.75914764404297 14.24084186553955 C 79.75458526611328 18.23629188537598 82.89131164550781 22.88850402832031 85.08216857910156 28.06826591491699 C 87.35007476806641 33.43019104003906 88.5 39.1268424987793 88.5 44.99995422363281 C 88.5 50.87306594848633 87.35007476806641 56.56971740722656 85.08216857910156 61.931640625 C 82.89131164550781 67.11140441894531 79.75458526611328 71.76361846923828 75.75914764404297 75.75906372070312 C 71.76369476318359 79.75450134277344 67.11147308349609 82.89122009277344 61.93169784545898 85.08207702636719 C 56.56977081298828 87.3499755859375 50.87311935424805 88.49990081787109 44.99999618530273 88.49990081787109 Z" stroke="none"/>
                      <path d="M 44.99999618530273 3 C 39.32870864868164 3 33.82865142822266 4.110054016113281 28.65262603759766 6.299324035644531 C 23.65165710449219 8.414566040039062 19.15968322753906 11.44332885742188 15.301513671875 15.30149841308594 C 11.44333648681641 19.15966796875 8.414566040039062 23.65162658691406 6.299339294433594 28.65259552001953 C 4.110054016113281 33.8286247253418 2.999992370605469 39.32866668701172 2.999992370605469 44.99995422363281 C 2.999992370605469 50.67124176025391 4.110054016113281 56.17128372192383 6.299339294433594 61.34731292724609 C 8.414566040039062 66.34828186035156 11.44333648681641 70.84024047851562 15.301513671875 74.69841003417969 C 19.15968322753906 78.55657958984375 23.65165710449219 81.58534240722656 28.65262603759766 83.70058441162109 C 33.82865142822266 85.88985443115234 39.32870864868164 86.99990844726562 44.99999618530273 86.99990844726562 C 50.67128372192383 86.99990844726562 56.17134094238281 85.88985443115234 61.34736633300781 83.70058441162109 C 66.34834289550781 81.58534240722656 70.84030914306641 78.55657958984375 74.69847869873047 74.69841003417969 C 78.55665588378906 70.84024047851562 81.58542633056641 66.34828186035156 83.70065307617188 61.34731292724609 C 85.88993835449219 56.17128372192383 87 50.67124176025391 87 44.99995422363281 C 87 39.32866668701172 85.88993835449219 33.8286247253418 83.70065307617188 28.65259552001953 C 81.58542633056641 23.65162658691406 78.55665588378906 19.15966796875 74.69847869873047 15.30149841308594 C 70.84030914306641 11.44332885742188 66.34834289550781 8.414566040039062 61.34736633300781 6.299324035644531 C 56.17134094238281 4.110054016113281 50.67128372192383 3 44.99999618530273 3 M 44.99999618530273 0 C 69.85281372070312 0 90 20.14717102050781 90 44.99995422363281 C 90 69.85273742675781 69.85281372070312 89.99990844726562 44.99999618530273 89.99990844726562 C 20.14717864990234 89.99990844726562 -7.62939453125e-06 69.85273742675781 -7.62939453125e-06 44.99995422363281 C -7.62939453125e-06 20.14717102050781 20.14717864990234 0 44.99999618530273 0 Z" stroke="none" fill="#83793c"/>
                    </g>
                  </g>
                </g>
              </g>
            </g>
          </g>
        </g>
      </g>
    </g>
    <g id="Page-1" transform="translate(644.166 7292.018)">
      <g id="_008---Mathematics-Book" data-name="008---Mathematics-Book" transform="translate(0)">
        <path id="Shape" d="M46.236,23.516,39.2,30.935l-1.621,1.7L31.638,38.89h-3.65l-7.558-7.955L13.46,23.6c1.154-.825,4.574-3.51,11.864-4.346a1.02,1.02,0,0,1,1,.547l3.58,7.16,3.58-7.16a1.02,1.02,0,0,1,1-.547C41.553,20.075,44.993,22.651,46.236,23.516Z" transform="translate(-0.075 -0.107)" fill="#ffeb3a"/>
        <path id="Shape-2" data-name="Shape" d="M34.577,19.25a1.019,1.019,0,0,0-.844.325,22.437,22.437,0,0,1,9.605,3.941L36.3,30.935l-1.621,1.7L28.74,38.89h2.983l5.937-6.255,1.621-1.7,7.041-7.418c-1.243-.865-4.684-3.441-11.744-4.266Z" transform="translate(-0.16 -0.107)" fill="#fdd834"/>
        <path id="Shape-3" data-name="Shape" d="M37.337,23.093a.994.994,0,0,0-1.322.48l-6.06,12.985L23.9,23.574a.994.994,0,0,0-1.8.841l6.961,14.916a1.04,1.04,0,0,0,.9.574,1.027,1.027,0,0,0,.895-.573l6.961-14.916a.994.994,0,0,0-.474-1.323Z" transform="translate(-0.122 -0.128)" fill="#ffdc00"/>
        <path id="Shape-4" data-name="Shape" d="M24.856,56.839l-1.77,1.591a1.989,1.989,0,0,1-1.333.507H8.319a1.989,1.989,0,0,1-1.333-3.471l8.214-7.4a1,1,0,0,1,1.323,0l.716.626,6.891,6.036.716.626a.985.985,0,0,1,.01,1.482Z" transform="translate(-0.035 -0.266)" fill="#9d27b0"/>
        <path id="Shape-5" data-name="Shape" d="M24.891,55.358l-.716-.626L17.284,48.7l-.716-.626a1,1,0,0,0-1.323,0l-.818.737,6.762,5.926.716.626a.985.985,0,0,1,.01,1.482l-1.77,1.591a1.989,1.989,0,0,1-1.333.507H21.8a1.989,1.989,0,0,0,1.333-.507L24.9,56.84a.985.985,0,0,0-.007-1.482Z" transform="translate(-0.08 -0.266)" fill="#6a1b9a"/>
        <path id="Shape-6" data-name="Shape" d="M50.257,26.486l-4.236,4.465-.159.169-4.047,4.256v-.945a2.486,2.486,0,1,0-4.972,0v6.185c-1.72,1.81-2.506,2.973-4.515,3.212-.378.07-.02.05-4.574.05a4.7,4.7,0,0,1-3.222-1.372l-7.558-7.946-3.421-3.61L9.426,26.605a2.486,2.486,0,1,1,3.6-3.421l.408.428L20.4,30.951l7.558,7.955h3.65l5.937-6.255,1.621-1.7,7.041-7.418.447-.467a2.486,2.486,0,1,1,3.6,3.421Z" transform="translate(-0.048 -0.124)" fill="sienna"/>
        <path id="Shape-7" data-name="Shape" d="M37.9,32.458l-.239.251L33.971,36.6v4.077c-1.72,1.81-2.506,2.973-4.515,3.212a2.513,2.513,0,0,1-.634.05,22.109,22.109,0,0,0,3.618-.05c2.009-.239,2.794-1.4,4.515-3.212V34.489a2.426,2.426,0,0,1,1-1.989A.677.677,0,0,1,37.9,32.458Z" transform="translate(-0.16 -0.181)" fill="#783e22"/>
        <path id="Shape-8" data-name="Shape" d="M50.579,23.225a2.486,2.486,0,0,0-3.427-.423,2.5,2.5,0,0,1,.444.423,2.471,2.471,0,0,1-.139,3.262L43.22,30.952l-.159.169-1.644,1.728A2.479,2.479,0,0,1,42,34.432v.945l4.047-4.256.159-.169,4.236-4.465a2.471,2.471,0,0,0,.139-3.262Z" transform="translate(-0.23 -0.124)" fill="#783e22"/>
        <path id="Shape-9" data-name="Shape" d="M41.849,34.486v6.852a2.435,2.435,0,0,1-.447,1.541c-.577.855-1.76,1.989-4,5.211a8.9,8.9,0,0,1-7.309,3.8h-1.87a3.016,3.016,0,0,0-2.1.855l-1.949,1.9-6.891-6.036,1.521-1.521a1.975,1.975,0,0,0,0-2.814l-2.963-3.212a3.985,3.985,0,0,1,.288-5.668l.875-.776,7.558,7.946a4.7,4.7,0,0,0,3.222,1.372c4.555,0,4.2.02,4.574-.05,2.009-.239,2.794-1.4,4.515-3.212V34.486a2.486,2.486,0,0,1,4.972,0Z" transform="translate(-0.082 -0.178)" fill="#ffe0b2"/>
        <path id="Shape-10" data-name="Shape" d="M41.166,32.726a2.472,2.472,0,0,0-3.246-.226,2.769,2.769,0,0,1,.263.226,2.486,2.486,0,0,1,.726,1.76v6.852a2.435,2.435,0,0,1-.447,1.541c-.577.855-1.76,1.989-4,5.211a8.9,8.9,0,0,1-7.309,3.8h-1.87a3.016,3.016,0,0,0-2.1.855l-.537.523,1.571,1.376,1.949-1.9a3.016,3.016,0,0,1,2.1-.855h1.87a8.9,8.9,0,0,0,7.309-3.8c2.237-3.222,3.421-4.356,4-5.211a2.435,2.435,0,0,0,.447-1.541V34.486a2.486,2.486,0,0,0-.726-1.76Z" transform="translate(-0.126 -0.178)" fill="#dfc49c"/>
        <path id="Shape-11" data-name="Shape" d="M48,35.973l-6.454,6.9A2.435,2.435,0,0,0,42,41.333V35.426l4.047-4.256a2.778,2.778,0,0,1,1.879.805,2.855,2.855,0,0,1,.08,4Z" transform="translate(-0.231 -0.174)" fill="#ffe0b2"/>
        <path id="Shape-12" data-name="Shape" d="M47.924,31.975a2.778,2.778,0,0,0-1.879-.805l-.946.994a2.846,2.846,0,0,1-.079,3.809L42,39.206v2.127a2.435,2.435,0,0,1-.447,1.541L48,35.973A2.855,2.855,0,0,0,47.924,31.975Z" transform="translate(-0.231 -0.174)" fill="#dfc49c"/>
        <g id="Grupo_1203209" data-name="Grupo 1203209">
          <circle id="Oval" cx="0.874" cy="0.874" r="0.874" transform="translate(37.826 0.261)"/>
          <circle id="Oval-2" data-name="Oval" cx="0.874" cy="0.874" r="0.874" transform="translate(37.826 9.871)"/>
          <path id="Shape-13" data-name="Shape" d="M18.932,53.525a.994.994,0,0,0-1.406,1.406l1.756,1.756a.994.994,0,0,0,1.406-1.406Z" transform="translate(-0.096 -0.296)"/>
          <path id="Shape-14" data-name="Shape" d="M25.165,18.259c-6.453.738-10,2.884-11.65,4.037a3.468,3.468,0,0,0-4.829,4.972l6.839,7.21-.1.093a4.979,4.979,0,0,0-.361,7.086l3,3.245a.975.975,0,0,1,.3.7.994.994,0,0,1-.3.711l-.863.863-.008-.006a2,2,0,0,0-2.651,0l-8.22,7.4a2.983,2.983,0,0,0,2,5.2H21.748a3,3,0,0,0,2-.762l1.767-1.591a1.963,1.963,0,0,0,.068-2.884l1.193-1.158a2.007,2.007,0,0,1,1.4-.567h1.865a9.886,9.886,0,0,0,8.123-4.226,57.4,57.4,0,0,1,3.649-4.724,4.064,4.064,0,0,0,.308-.429l6.407-6.85a3.8,3.8,0,0,0-.873-5.954l3.3-3.474a3.47,3.47,0,0,0-4.873-4.932,24.95,24.95,0,0,0-11.515-3.962,1.989,1.989,0,0,0-2.012,1.094l-2.692,5.377-2.685-5.377a2,2,0,0,0-2.013-1.092ZM10,24a1.526,1.526,0,0,1,2.287-.148L27.222,39.57a.994.994,0,0,0,.721.309h3.65a.994.994,0,0,0,.722-.31l3.514-3.7V40.2l-1.5,1.571a3.621,3.621,0,0,1-2.194,1.057,1.906,1.906,0,0,1-.335.037H27.735a2.358,2.358,0,0,1-.391-.043,3.523,3.523,0,0,1-2.11-1.02l-7.558-7.947L10.128,25.9A1.492,1.492,0,0,1,10,24Zm14.2,31.935-1.766,1.591a.994.994,0,0,1-.68.256H8.313a.994.994,0,0,1-.667-1.737l8.216-7.39.715.626,6.891,6.035.718.615Zm12.34-8.486a7.9,7.9,0,0,1-6.493,3.372H28.177a3.986,3.986,0,0,0-2.8,1.138l-1.293,1.258-2.094-1.834-3.306-2.9.77-.771a2.975,2.975,0,0,0,.881-2.123,2.917,2.917,0,0,0-.853-2.068l-2.961-3.209a2.99,2.99,0,0,1,.215-4.253l.157-.138,6.9,7.259a5.477,5.477,0,0,0,3.256,1.609,3.926,3.926,0,0,0,.681.063H31.8a3.551,3.551,0,0,0,.624-.057,5.585,5.585,0,0,0,3.339-1.644l1.78-1.871a.994.994,0,0,0,.273-.685V34.409a1.5,1.5,0,0,1,.436-1.057,1.554,1.554,0,0,1,2.113,0,1.5,1.5,0,0,1,.435,1.057v6.853a2,2,0,0,1-.5,1.3,59.407,59.407,0,0,0-3.774,4.884ZM47.03,32.62a1.869,1.869,0,0,1,.047,2.605L42.79,39.8V35.751l3.418-3.6A1.8,1.8,0,0,1,47.03,32.62ZM48.5,23.272a1.484,1.484,0,0,1,1.016,2.509l-6.975,7.345a3.462,3.462,0,0,0-.769-1.177,3.291,3.291,0,0,0-1.446-.814l7.031-7.4a1.461,1.461,0,0,1,1.143-.459ZM29.863,27.946a.994.994,0,0,0,.89-.55l3.58-7.16a23.379,23.379,0,0,1,10.334,3.438L31.166,37.89h-2.8L14.928,23.741a22.826,22.826,0,0,1,10.466-3.5l3.58,7.16a.994.994,0,0,0,.888.547Z" transform="translate(-0.029 -0.102)"/>
          <path id="Shape-15" data-name="Shape" d="M17.994,6.961h3.978v3.978a.994.994,0,1,0,1.989,0V6.961h3.978a.994.994,0,0,0,0-1.989H23.961V.994a.994.994,0,0,0-1.989,0V4.972H17.994a.994.994,0,0,0,0,1.989Z" transform="translate(-0.095)"/>
          <path id="Shape-16" data-name="Shape" d="M33.994,6.989h9.944a.994.994,0,1,0,0-1.989H33.994a.994.994,0,0,0,0,1.989Z" transform="translate(-0.184 -0.028)"/>
          <path id="Shape-17" data-name="Shape" d="M59.64,6.217a.994.994,0,0,0-1.407,0l-4.266,4.3L49.7,6.222a.995.995,0,0,0-1.412,1.4l4.276,4.307-4.276,4.312a.995.995,0,0,0,1.412,1.4l4.266-4.3,4.266,4.292a.995.995,0,0,0,1.412-1.4l-4.276-4.307,4.276-4.307a.994.994,0,0,0,0-1.4Z" transform="translate(-0.267 -0.033)"/>
          <path id="Shape-18" data-name="Shape" d="M.076,17.32a.994.994,0,0,0,.919.614h9.944a.994.994,0,0,0,0-1.989H3.395L6.67,12.67a.994.994,0,0,0,0-1.406L3.395,7.989h7.544a.994.994,0,0,0,0-1.989H.994a.994.994,0,0,0-.7,1.7L4.56,11.967.291,16.236A.994.994,0,0,0,.076,17.32Z" transform="translate(0 -0.033)"/>
        </g>
      </g>
    </g>
  </g>
</svg>
