<svg xmlns="http://www.w3.org/2000/svg" xmlns:xlink="http://www.w3.org/1999/xlink" width="108" height="108" viewBox="0 0 108 108">
  <defs>
    <filter id="Trazado_904820" x="0" y="0" width="108" height="108" filterUnits="userSpaceOnUse">
      <feOffset dy="3" input="SourceAlpha"/>
      <feGaussianBlur stdDeviation="3" result="blur"/>
      <feFlood flood-opacity="0.161"/>
      <feComposite operator="in" in2="blur"/>
      <feComposite in="SourceGraphic"/>
    </filter>
  </defs>
  <g id="Grupo_1203169" data-name="Grupo 1203169" transform="translate(-199.5 -1290)">
    <g id="Grupo_1202418" data-name="Grupo 1202418" transform="translate(-419.977 876.813)">
      <g id="Grupo_1177315" data-name="Grupo 1177315" transform="translate(-0.523 -112.813)">
        <g id="Grupo_1173585" data-name="Grupo 1173585" transform="translate(629 532)">
          <g id="Grupo_1173428" data-name="Grupo 1173428" transform="translate(0 0)">
            <g id="Grupo_1171958" data-name="Grupo 1171958">
              <g id="Grupo_1167341" data-name="Grupo 1167341">
                <g id="Grupo_1166792" data-name="Grupo 1166792">
                  <g transform="matrix(1, 0, 0, 1, -9, -6)" filter="url(#Trazado_904820)">
                    <g id="Trazado_904820-2" data-name="Trazado 904820" transform="translate(9 6)" fill="#edf3fc">
                      <path d="M 44.99999618530273 88.49999237060547 C 39.12687301635742 88.49999237060547 33.43022155761719 87.35006713867188 28.06829643249512 85.08216857910156 C 22.88852119445801 82.89130401611328 18.23629570007324 79.75457763671875 14.24084663391113 75.75914001464844 C 10.24540901184082 71.76369476318359 7.108683586120605 67.11146545410156 4.917821407318115 61.93169403076172 C 2.649921178817749 56.56976699829102 1.499996185302734 50.87311553955078 1.499996185302734 44.99999237060547 C 1.499996185302734 39.12686920166016 2.649921178817749 33.43021774291992 4.917821407318115 28.06829261779785 C 7.108683586120605 22.88851737976074 10.24540901184082 18.23630523681641 14.24084663391113 14.24085521697998 C 18.23629570007324 10.24540519714355 22.88852119445801 7.108692169189453 28.06829643249512 4.917829990386963 C 33.43022155761719 2.649929761886597 39.12687301635742 1.500004887580872 44.99999618530273 1.500004887580872 C 50.87311935424805 1.500004887580872 56.56977081298828 2.649929761886597 61.93169784545898 4.917829990386963 C 67.11147308349609 7.108692169189453 71.76369476318359 10.24540519714355 75.75914764404297 14.24085521697998 C 79.75458526611328 18.23630523681641 82.89131164550781 22.88851737976074 85.08216857910156 28.06829261779785 C 87.35007476806641 33.43021774291992 88.5 39.12686920166016 88.5 44.99999237060547 C 88.5 50.87311553955078 87.35007476806641 56.56976699829102 85.08216857910156 61.93169403076172 C 82.89131164550781 67.11146545410156 79.75458526611328 71.76369476318359 75.75914764404297 75.75914001464844 C 71.76369476318359 79.75457763671875 67.11147308349609 82.89130401611328 61.93169784545898 85.08216857910156 C 56.56977081298828 87.35006713867188 50.87311935424805 88.49999237060547 44.99999618530273 88.49999237060547 Z" stroke="none"/>
                      <path d="M 44.99999618530273 2.999992370605469 C 39.32870864868164 2.999992370605469 33.82865142822266 4.11004638671875 28.65262603759766 6.299331665039062 C 23.65165710449219 8.414566040039062 19.15968322753906 11.44333648681641 15.301513671875 15.30150604248047 C 11.44333648681641 19.15967559814453 8.414566040039062 23.65164947509766 6.299339294433594 28.65262222290039 C 4.110054016113281 33.82864761352539 2.999992370605469 39.32870483398438 2.999992370605469 44.99999237060547 C 2.999992370605469 50.67127990722656 4.110054016113281 56.17132186889648 6.299339294433594 61.34736633300781 C 8.414566040039062 66.34833526611328 11.44333648681641 70.84029388427734 15.301513671875 74.69846343994141 C 19.15968322753906 78.55663299560547 23.65165710449219 81.58540344238281 28.65262603759766 83.70063781738281 C 33.82865142822266 85.88992309570312 39.32870864868164 86.99997711181641 44.99999618530273 86.99997711181641 C 50.67128372192383 86.99997711181641 56.17134094238281 85.88992309570312 61.34736633300781 83.70063781738281 C 66.34834289550781 81.58540344238281 70.84030914306641 78.55663299560547 74.69847869873047 74.69846343994141 C 78.55665588378906 70.84029388427734 81.58542633056641 66.34833526611328 83.70065307617188 61.34736633300781 C 85.88993835449219 56.17132186889648 87 50.67127990722656 87 44.99999237060547 C 87 39.32870483398438 85.88993835449219 33.82864761352539 83.70065307617188 28.65262222290039 C 81.58542633056641 23.65164947509766 78.55665588378906 19.15967559814453 74.69847869873047 15.30150604248047 C 70.84030914306641 11.44333648681641 66.34834289550781 8.414566040039062 61.34736633300781 6.299331665039062 C 56.17134094238281 4.11004638671875 50.67128372192383 2.999992370605469 44.99999618530273 2.999992370605469 M 44.99999618530273 -7.62939453125e-06 C 69.85281372070312 -7.62939453125e-06 90 20.14717864990234 90 44.99999237060547 C 90 69.85279083251953 69.85281372070312 89.99997711181641 44.99999618530273 89.99997711181641 C 20.14717864990234 89.99997711181641 -7.62939453125e-06 69.85279083251953 -7.62939453125e-06 44.99999237060547 C -7.62939453125e-06 20.14717864990234 20.14717864990234 -7.62939453125e-06 44.99999618530273 -7.62939453125e-06 Z" stroke="none" fill="#453179"/>
                    </g>
                  </g>
                </g>
              </g>
            </g>
          </g>
        </g>
      </g>
    </g>
    <g id="Page-1" transform="translate(226.472 1310.986)">
      <g id="_016---Mental-Maths" data-name="016---Mental-Maths" transform="translate(-1)">
        <g id="colour" transform="translate(1)">
          <path id="Shape" d="M47.16,56.1c.44.93,1.5,2,1.78,2.9H23.73s-1.5-6.15-4.92-7.7a84.221,84.221,0,0,1-8.7,2.63,2.71,2.71,0,0,1-3.2-2c-.86-2.46.32-3.13-.05-4.6-.26-1-1.23-1.27-2-1.81s.49-1.84.49-1.84-1.17-.87-1.6-1.25.18-1,.73-2.16a2.7,2.7,0,0,0,.19-1.61c-.2-1.08-1.83-1.48-2.63-2.08-1.24-.93-1.61-1.33.09-3.42a39.24,39.24,0,0,0,4.44-7.25A2,2,0,0,0,6.88,25c0-1.43-2.09-2-2.28-3.41-.15-1.08,1.24-3.05,1.69-5a26.48,26.48,0,0,1,1-3.49A17.91,17.91,0,0,1,11,6.94c2.45-2.6,5.84-3.72,9.28-4.52C32.89-.48,39.2,1.11,46.37,6.75A15.48,15.48,0,0,1,52,14.84,29.08,29.08,0,0,1,53,23c-.11,7.34-4.78,9.91-6.86,14.66A18.11,18.11,0,0,0,44.76,47a28.23,28.23,0,0,0,2.4,9.1Z" fill="#fddead"/>
          <path id="Shape-2" data-name="Shape" d="M44.76,47a18.11,18.11,0,0,1,1.38-9.31C48.22,33,52.89,30.38,53,23a29.08,29.08,0,0,0-1-8.2,15.48,15.48,0,0,0-5.62-8.09c-5.19-4.08-9.94-6-16.93-5.7,5.42.3,9.52,2.23,13.93,5.7A15.48,15.48,0,0,1,49,14.84,29.08,29.08,0,0,1,50,23c-.11,7.34-4.78,9.91-6.86,14.66A18.11,18.11,0,0,0,41.76,47a28.23,28.23,0,0,0,2.4,9.09c.44.93,1.5,2,1.78,2.9h3c-.28-.94-1.34-2-1.78-2.9A28.23,28.23,0,0,1,44.76,47Z" fill="#ddc298"/>
          <path id="Shape-3" data-name="Shape" d="M37,32.83A3.13,3.13,0,0,0,39.84,36,3,3,0,0,0,43,33V30.15A12.27,12.27,0,0,1,45.15,23,9.48,9.48,0,0,0,47,17.5C47,10.6,38.94,5,29,5S11,10.6,11,17.5,19.06,30,29,30h6a2,2,0,0,1,2,2Z" fill="#f4f4f4"/>
          <path id="Shape-4" data-name="Shape" d="M29,5H27.5C36.74,5.58,44,11,44,17.5A9.48,9.48,0,0,1,42.15,23,12.27,12.27,0,0,0,40,30.15V33a3,3,0,0,1-1.47,2.58,2.94,2.94,0,0,0,1.31.42A3,3,0,0,0,43,33V30.15A12.27,12.27,0,0,1,45.15,23,9.48,9.48,0,0,0,47,17.5C47,10.6,38.94,5,29,5Z" fill="#ced7db"/>
        </g>
        <g id="outline">
          <path id="Shape-5" data-name="Shape" d="M2.37,32.53c-.92,1.14-1.47,2-1.36,2.95a3,3,0,0,0,1.46,1.9,6.3,6.3,0,0,0,1,.61c.43.22,1.15.59,1.2.85a1.8,1.8,0,0,1-.11,1c-.15.31-.31.58-.44.82-.39.69-1,1.73,0,2.51.21.19.58.48.92.74a2.56,2.56,0,0,0-.32,1.45,1.44,1.44,0,0,0,.59,1,7.17,7.17,0,0,0,.69.43c.59.34.82.49.9.8a2.18,2.18,0,0,1-.1,1.11A5.72,5.72,0,0,0,7,52.26a3.7,3.7,0,0,0,4.35,2.65,81.741,81.741,0,0,0,8.42-2.53c2.24,1.33,3.65,5.35,4,6.86a1,1,0,0,0,1,.76H50a1,1,0,0,0,.95-1.29,7,7,0,0,0-1.12-2,6.82,6.82,0,0,1-.72-1.1,27.28,27.28,0,0,1-2.3-8.77,17,17,0,0,1,1.3-8.79,22.63,22.63,0,0,1,2.64-4.19c2-2.67,4.22-5.7,4.3-10.85a30.06,30.06,0,0,0-1-8.5A16.58,16.58,0,0,0,48,6C40.12-.2,33.33-1.33,21.1,1.49c-3.32.76-7.08,1.93-9.79,4.8a18.92,18.92,0,0,0-4,6.54A26.31,26.31,0,0,0,6.4,16.1l-.08.35a13.12,13.12,0,0,1-.88,2.34,5.92,5.92,0,0,0-.82,3A3.85,3.85,0,0,0,6.06,24c.49.45.81.76.82,1.05a1.65,1.65,0,0,1-.18.43,38.62,38.62,0,0,1-4.33,7.05Zm5-10c-.4-.37-.78-.72-.82-1a6.44,6.44,0,0,1,.66-1.91,14.75,14.75,0,0,0,1-2.71l.08-.35a24.53,24.53,0,0,1,.83-3A17.18,17.18,0,0,1,12.7,7.7c2.34-2.47,5.61-3.49,8.79-4.22C31.77,1,38.48,1,46.75,7.54A14.35,14.35,0,0,1,52,15.11,28.19,28.19,0,0,1,53,23c-.07,4.51-1.93,7-3.9,9.69a23.58,23.58,0,0,0-2.87,4.59,18.91,18.91,0,0,0-1.46,9.82,29.15,29.15,0,0,0,2.49,9.4,8.83,8.83,0,0,0,.9,1.41v.06H25.48A15.81,15.81,0,0,0,22,51.61l.76-.27,1.58-.54c4.27-1.35,6.41-3.3,6.36-5.79a1,1,0,0,0-2,0c0,1-.82,2.54-5,3.84-.29.09-.87.3-1.63.57l-2.58.89A82.881,82.881,0,0,1,10.91,53a1.78,1.78,0,0,1-2.06-1.34,3.73,3.73,0,0,1-.1-2.45,4,4,0,0,0,.08-2.08A3.31,3.31,0,0,0,7,45l-.22-.13a3.53,3.53,0,0,1,.39-.62A1,1,0,0,0,7,42.87c-.24-.18-.81-.6-1.22-.93a2.75,2.75,0,0,1,.17-.29c.15-.27.32-.59.49-.94a3.63,3.63,0,0,0,.27-2.24c-.23-1.23-1.4-1.82-2.25-2.26a6,6,0,0,1-.76-.43,4.67,4.67,0,0,1-.7-.54c0-.05,0-.37.93-1.45a40.36,40.36,0,0,0,4.55-7.43,2.92,2.92,0,0,0,.4-1.35A3.52,3.52,0,0,0,7.41,22.5Z"/>
          <path id="Shape-6" data-name="Shape" d="M30,31h6a1,1,0,0,1,1,1v.83A4.09,4.09,0,0,0,40.79,37H41a4,4,0,0,0,4-4V30.15a11.22,11.22,0,0,1,2-6.55,10.39,10.39,0,0,0,2-6.1C49,10.06,40.48,4,30,4S11,10.06,11,17.5,19.52,31,30,31ZM30,6c9.37,0,17,5.16,17,11.5a8.4,8.4,0,0,1-1.67,4.94A13.22,13.22,0,0,0,43,30.15V33a2,2,0,0,1-.62,1.45,2.08,2.08,0,0,1-1.49.55A2.13,2.13,0,0,1,39,32.83V32a3,3,0,0,0-3-3H30c-9.37,0-17-5.16-17-11.5S20.63,6,30,6Z"/>
          <path id="Shape-7" data-name="Shape" d="M19.29,20.71a1,1,0,0,0,1.42,0L22,19.41l1.29,1.3a1,1,0,1,0,1.42-1.42L23.41,18l1.3-1.29a1,1,0,0,0-1.42-1.42L22,16.59l-1.29-1.3a1,1,0,1,0-1.42,1.42L20.59,18l-1.3,1.29a1,1,0,0,0,0,1.42Z"/>
          <path id="Shape-8" data-name="Shape" d="M28,21h4a1,1,0,0,0,0-2H28a1,1,0,0,0,0,2Z"/>
          <path id="Shape-9" data-name="Shape" d="M28,17h4a1,1,0,0,0,0-2H28a1,1,0,0,0,0,2Z"/>
          <path id="Shape-10" data-name="Shape" d="M38,21a1,1,0,0,1-.87-.5,1,1,0,1,0-1.73,1A3,3,0,1,0,40.22,18a3,3,0,1,0-4.82-3.5,1,1,0,1,0,1.73,1A1,1,0,1,1,38,17a1,1,0,0,0,0,2,1,1,0,0,1,0,2Z"/>
        </g>
      </g>
    </g>
  </g>
</svg>
