<svg xmlns="http://www.w3.org/2000/svg" xmlns:xlink="http://www.w3.org/1999/xlink" width="108" height="108" viewBox="0 0 108 108">
  <defs>
    <filter id="Trazado_904820" x="0" y="0" width="108" height="108" filterUnits="userSpaceOnUse">
      <feOffset dy="3" input="SourceAlpha"/>
      <feGaussianBlur stdDeviation="3" result="blur"/>
      <feFlood flood-opacity="0.161"/>
      <feComposite operator="in" in2="blur"/>
      <feComposite in="SourceGraphic"/>
    </filter>
  </defs>
  <g id="Grupo_1203172" data-name="Grupo 1203172" transform="translate(-166 -2624)">
    <g id="Grupo_1202793" data-name="Grupo 1202793" transform="translate(175 2630)">
      <g id="Grupo_1178315" data-name="Grupo 1178315" transform="translate(0 0)">
        <g id="Grupo_1173585" data-name="Grupo 1173585" transform="translate(0)">
          <g id="Grupo_1173428" data-name="Grupo 1173428">
            <g id="Grupo_1171958" data-name="Grupo 1171958">
              <g id="Grupo_1167341" data-name="Grupo 1167341">
                <g id="Grupo_1166792" data-name="Grupo 1166792">
                  <g transform="matrix(1, 0, 0, 1, -9, -6)" filter="url(#Trazado_904820)">
                    <g id="Trazado_904820-2" data-name="Trazado 904820" transform="translate(9 6)" fill="#edf3fc">
                      <path d="M 44.99999618530273 88.49999237060547 C 39.12687301635742 88.49999237060547 33.43022155761719 87.35006713867188 28.06829643249512 85.08216857910156 C 22.88852119445801 82.89130401611328 18.23629570007324 79.75457763671875 14.24084663391113 75.75914001464844 C 10.24540901184082 71.76369476318359 7.108683586120605 67.11146545410156 4.917821407318115 61.93169403076172 C 2.649921178817749 56.56976699829102 1.499996185302734 50.87311553955078 1.499996185302734 44.99999237060547 C 1.499996185302734 39.12686920166016 2.649921178817749 33.43021774291992 4.917821407318115 28.06829261779785 C 7.108683586120605 22.88851737976074 10.24540901184082 18.23630523681641 14.24084663391113 14.24085521697998 C 18.23629570007324 10.24540519714355 22.88852119445801 7.108692169189453 28.06829643249512 4.917829990386963 C 33.43022155761719 2.649929761886597 39.12687301635742 1.500004887580872 44.99999618530273 1.500004887580872 C 50.87311935424805 1.500004887580872 56.56977081298828 2.649929761886597 61.93169784545898 4.917829990386963 C 67.11147308349609 7.108692169189453 71.76369476318359 10.24540519714355 75.75914764404297 14.24085521697998 C 79.75458526611328 18.23630523681641 82.89131164550781 22.88851737976074 85.08216857910156 28.06829261779785 C 87.35007476806641 33.43021774291992 88.5 39.12686920166016 88.5 44.99999237060547 C 88.5 50.87311553955078 87.35007476806641 56.56976699829102 85.08216857910156 61.93169403076172 C 82.89131164550781 67.11146545410156 79.75458526611328 71.76369476318359 75.75914764404297 75.75914001464844 C 71.76369476318359 79.75457763671875 67.11147308349609 82.89130401611328 61.93169784545898 85.08216857910156 C 56.56977081298828 87.35006713867188 50.87311935424805 88.49999237060547 44.99999618530273 88.49999237060547 Z" stroke="none"/>
                      <path d="M 44.99999618530273 2.999992370605469 C 39.32870864868164 2.999992370605469 33.82865142822266 4.11004638671875 28.65262603759766 6.299331665039062 C 23.65165710449219 8.414566040039062 19.15968322753906 11.44333648681641 15.301513671875 15.30150604248047 C 11.44333648681641 19.15967559814453 8.414566040039062 23.65164947509766 6.299339294433594 28.65262222290039 C 4.110054016113281 33.82864761352539 2.999992370605469 39.32870483398438 2.999992370605469 44.99999237060547 C 2.999992370605469 50.67127990722656 4.110054016113281 56.17132186889648 6.299339294433594 61.34736633300781 C 8.414566040039062 66.34833526611328 11.44333648681641 70.84029388427734 15.301513671875 74.69846343994141 C 19.15968322753906 78.55663299560547 23.65165710449219 81.58540344238281 28.65262603759766 83.70063781738281 C 33.82865142822266 85.88992309570312 39.32870864868164 86.99997711181641 44.99999618530273 86.99997711181641 C 50.67128372192383 86.99997711181641 56.17134094238281 85.88992309570312 61.34736633300781 83.70063781738281 C 66.34834289550781 81.58540344238281 70.84030914306641 78.55663299560547 74.69847869873047 74.69846343994141 C 78.55665588378906 70.84029388427734 81.58542633056641 66.34833526611328 83.70065307617188 61.34736633300781 C 85.88993835449219 56.17132186889648 87 50.67127990722656 87 44.99999237060547 C 87 39.32870483398438 85.88993835449219 33.82864761352539 83.70065307617188 28.65262222290039 C 81.58542633056641 23.65164947509766 78.55665588378906 19.15967559814453 74.69847869873047 15.30150604248047 C 70.84030914306641 11.44333648681641 66.34834289550781 8.414566040039062 61.34736633300781 6.299331665039062 C 56.17134094238281 4.11004638671875 50.67128372192383 2.999992370605469 44.99999618530273 2.999992370605469 M 44.99999618530273 -7.62939453125e-06 C 69.85281372070312 -7.62939453125e-06 90 20.14717864990234 90 44.99999237060547 C 90 69.85279083251953 69.85281372070312 89.99997711181641 44.99999618530273 89.99997711181641 C 20.14717864990234 89.99997711181641 -7.62939453125e-06 69.85279083251953 -7.62939453125e-06 44.99999237060547 C -7.62939453125e-06 20.14717864990234 20.14717864990234 -7.62939453125e-06 44.99999618530273 -7.62939453125e-06 Z" stroke="none" fill="#5692e8"/>
                    </g>
                  </g>
                </g>
              </g>
            </g>
          </g>
        </g>
      </g>
    </g>
    <g id="solucion_1_" data-name="solucion (1)" transform="translate(156.54 2646.009)">
      <g id="Grupo_1203170" data-name="Grupo 1203170" transform="translate(40.554 0.918)">
        <path id="Trazado_1041667" data-name="Trazado 1041667" d="M189.749,343.363l-2.818,2.818-2.653,2.652-2.333-2.333,2.6-2.6,2.872-2.872Z" transform="translate(-165.434 -300.18)" fill="#678d98"/>
        <path id="Trazado_1041668" data-name="Trazado 1041668" d="M196.6,341.03l-2.872,2.872q.4.461.835.9c.139.139.28.274.422.407l-2.573,2.573,1.051,1.051,2.653-2.652,0,0,2.816-2.816Z" transform="translate(-174.619 -300.18)" fill="#537983"/>
        <path id="Trazado_1041669" data-name="Trazado 1041669" d="M85.259,395.264l-2.633-2.633a1.636,1.636,0,0,1,0-2.313l9.281-9.281a1.636,1.636,0,0,1,2.313,0l2.633,2.633a1.636,1.636,0,0,1,0,2.313l-9.281,9.281A1.636,1.636,0,0,1,85.259,395.264Z" transform="translate(-77.86 -334.867)" fill="#6c7fd8"/>
        <path id="Trazado_1041670" data-name="Trazado 1041670" d="M109.7,383.667l-2.633-2.633a1.635,1.635,0,0,0-2.314,0l-.6.605-1.243,1.243a1.758,1.758,0,0,1,2.487,0L106.7,384.2a1.635,1.635,0,0,1,0,2.312l-7.434,7.434a1.758,1.758,0,0,1-2.487,0l1.243,1.243.076.075a1.635,1.635,0,0,0,2.314,0l9.281-9.281A1.636,1.636,0,0,0,109.7,383.667Z" transform="translate(-90.703 -334.864)" fill="#4f66d0"/>
        <path id="Trazado_1041671" data-name="Trazado 1041671" d="M81.037,9.451V40.766a1.951,1.951,0,0,1-1.951,1.952h-30a1.951,1.951,0,0,1-1.952-1.952V9.451A1.951,1.951,0,0,1,49.087,7.5h30A1.951,1.951,0,0,1,81.037,9.451Z" transform="translate(-47.135 -7.499)" fill="#e2f1fe"/>
        <path id="Trazado_1041672" data-name="Trazado 1041672" d="M175.129,122.1v18.885a1.951,1.951,0,0,1-1.951,1.952H154.861A17.113,17.113,0,0,1,175.129,122.1Z" transform="translate(-141.227 -107.721)" fill="#c4e3ff"/>
        <path id="Trazado_1041673" data-name="Trazado 1041673" d="M282.56,7.5h-3.552a1.952,1.952,0,0,1,1.952,1.952V40.765a1.952,1.952,0,0,1-1.952,1.952h3.552a1.952,1.952,0,0,0,1.952-1.952V9.449A1.952,1.952,0,0,0,282.56,7.5Z" transform="translate(-250.609 -7.497)" fill="#c4e3ff"/>
        <circle id="Elipse_12590" data-name="Elipse 12590" cx="17.11" cy="17.11" r="17.11" transform="translate(16.956 13.989)" fill="#0ed290"/>
        <path id="Trazado_1041674" data-name="Trazado 1041674" d="M321.526,126.732a17.08,17.08,0,0,0-14.311-4.867,17.109,17.109,0,0,1,.768,34.014,17.109,17.109,0,0,0,13.542-29.146Z" transform="translate(-275.362 -107.732)" fill="#00c285"/>
        <path id="Trazado_1041675" data-name="Trazado 1041675" d="M238.4,174.527a13.452,13.452,0,0,1-18.832.19c-.066-.062-.131-.126-.194-.19a13.454,13.454,0,0,1,18.453-19.566c.2.172.386.353.573.539A13.455,13.455,0,0,1,238.4,174.527Z" transform="translate(-194.819 -133.915)" fill="#e2f1fe"/>
        <path id="Trazado_1041676" data-name="Trazado 1041676" d="M237.825,154.961v19.756H219.566c-.066-.062-.131-.126-.194-.19a13.454,13.454,0,0,1,18.453-19.567Z" transform="translate(-194.819 -133.915)" fill="#ffc344"/>
        <path id="Trazado_1041677" data-name="Trazado 1041677" d="M311.582,151.668a13.386,13.386,0,0,1,7.267,3.3v18.218a1.538,1.538,0,0,1-1.538,1.538H322.2V154.965A13.43,13.43,0,0,0,311.582,151.668Z" transform="translate(-279.194 -133.919)" fill="#f6ab31"/>
      </g>
      <g id="Grupo_1203171" data-name="Grupo 1203171" transform="translate(39.635 0)">
        <path id="Trazado_1041678" data-name="Trazado 1041678" d="M87.367,19.268a17.959,17.959,0,0,0-11.993-5.255V2.871A2.873,2.873,0,0,0,72.505,0h-30a2.874,2.874,0,0,0-2.871,2.871V34.185a2.874,2.874,0,0,0,2.871,2.871H53.924a.919.919,0,1,0,0-1.837H42.506a1.035,1.035,0,0,1-1.034-1.034V2.871a1.035,1.035,0,0,1,1.034-1.034h30a1.034,1.034,0,0,1,1.032,1.034V14.03A18.024,18.024,0,0,0,60.183,42.82L56.993,46.01a2.558,2.558,0,0,0-3.04.428L44.671,55.72a2.557,2.557,0,0,0,0,3.612L47.3,61.965a2.554,2.554,0,0,0,3.612,0L60.2,52.683a2.557,2.557,0,0,0,.428-3.041l3.19-3.189A17.824,17.824,0,0,0,72.305,49.9a.919.919,0,0,0,.235-1.822,16.035,16.035,0,0,1-9.369-4.609q-.553-.553-1.045-1.148l-.01-.012a16.191,16.191,0,1,1,14.54,5.775.919.919,0,0,0-.8,1.026.986.986,0,0,0,1.026.8,17.854,17.854,0,0,0,10.482-5.138,18.049,18.049,0,0,0,0-25.5ZM58.9,51.384l-9.281,9.281a.717.717,0,0,1-1.014,0h0L45.97,58.033a.717.717,0,0,1,0-1.014l9.281-9.281a.718.718,0,0,1,1.014,0L58.9,50.37a.718.718,0,0,1,0,1.014Zm.5-3.112-1.034-1.034,3-3c.165.179.333.355.506.528s.349.342.528.507Z" transform="translate(-39.635 0)"/>
        <path id="Trazado_1041679" data-name="Trazado 1041679" d="M236.723,158.445a14.278,14.278,0,0,0-4.21-10.163c-.205-.206-.412-.4-.611-.576a14.372,14.372,0,0,0-19.714,20.9c.07.07.141.139.207.2l0,0,0,0h0a14.283,14.283,0,0,0,9.946,4h.136a14.373,14.373,0,0,0,14.238-14.372Zm-23.236-8.864a12.538,12.538,0,0,1,17.2-.5c.174.153.352.321.53.5a12.538,12.538,0,0,1,1,16.608v-13.2a.919.919,0,0,0-1.837,0V167.23H213.41A12.549,12.549,0,0,1,213.487,149.581Zm8.981,21.4a12.5,12.5,0,0,1-6.777-1.913h13.322A12.46,12.46,0,0,1,222.468,170.98Z" transform="translate(-187.366 -126.429)"/>
        <path id="Trazado_1041680" data-name="Trazado 1041680" d="M269.091,219.709a.946.946,0,0,0,1.3,0l3.754-3.754,3.65,3.65a.946.946,0,0,0,1.3,0,.919.919,0,0,0,0-1.3l-3.65-3.65,3.65-3.65a.919.919,0,1,0-1.3-1.3l-3.65,3.65L270.39,209.6a.919.919,0,0,0-1.3,1.3l3.754,3.754-3.754,3.754A.919.919,0,0,0,269.091,219.709Z" transform="translate(-240.752 -183.697)"/>
        <path id="Trazado_1041681" data-name="Trazado 1041681" d="M96.35,199.537h-.025a1.222,1.222,0,0,1-1.211-1.049,1.012,1.012,0,0,0-.93-1.091.918.918,0,0,0-.919.919,3.1,3.1,0,0,0,.029.425,3.06,3.06,0,0,0,3.03,2.634h.062a3.068,3.068,0,0,0,2.992-2.9,3.034,3.034,0,0,0-.837-2.267,3.073,3.073,0,0,0-2.218-.953c-.114,0-.221,0-.322.008l.165-1h1.851a.919.919,0,0,0,0-1.837h-2.63a.918.918,0,0,0-.906.768l-.521,3.144a.92.92,0,0,0,1.323.969c.689-.393,2.243-.334,2.261,1.07A1.225,1.225,0,0,1,96.35,199.537Z" transform="translate(-86.697 -168.863)"/>
        <path id="Trazado_1041682" data-name="Trazado 1041682" d="M97.943,124.565H93.021a.919.919,0,0,0,0,1.837h4.923a.919.919,0,0,0,0-1.837Z" transform="translate(-85.676 -109.309)"/>
        <path id="Trazado_1041683" data-name="Trazado 1041683" d="M98.862,150.77a.918.918,0,0,0-.919-.919H93.021a.919.919,0,0,0,0,1.837h4.923A.919.919,0,0,0,98.862,150.77Z" transform="translate(-85.676 -131.498)"/>
        <path id="Trazado_1041684" data-name="Trazado 1041684" d="M96.865,37.615l-2.226-2.932,1.866-2.475A.919.919,0,1,0,95.039,31.1l-1.554,2.061L91.919,31.1a.919.919,0,0,0-1.463,1.111l1.88,2.477L90.211,37.5a.919.919,0,0,0,.18,1.286.962.962,0,0,0,1.286-.18l1.812-2.4L95.4,38.726a.931.931,0,0,0,1.287.176A.919.919,0,0,0,96.865,37.615Z" transform="translate(-83.854 -26.971)"/>
        <path id="Trazado_1041685" data-name="Trazado 1041685" d="M161.606,33.084a.918.918,0,0,0-.919.919V35.9h-1.962a.919.919,0,1,0,0,1.837h1.962V39.7a.919.919,0,1,0,1.837,0V37.734h1.894a.919.919,0,0,0,0-1.837h-1.894V34A.919.919,0,0,0,161.606,33.084Z" transform="translate(-143.334 -29.032)"/>
        <path id="Trazado_1041686" data-name="Trazado 1041686" d="M241.006,32.736a3.535,3.535,0,0,0,.055-.455,2.554,2.554,0,0,0-5.06-.494.919.919,0,1,0,1.8.354.717.717,0,0,1,.7-.577c.883.15.858.928.172,1.825-1.01,1.443-1.613,2.232-1.936,2.656-.415.543-.644.843-.491,1.34a.959.959,0,0,0,.615.624,5.073,5.073,0,0,0,1.477.074c.492,0,1.163-.005,2.082-.017a.919.919,0,0,0-.011-1.837H240.4c-.5.006-1.031.011-1.508.013.33-.447.755-1.034,1.29-1.8A5.045,5.045,0,0,0,241.006,32.736Z" transform="translate(-211.936 -26.086)"/>
      </g>
    </g>
  </g>
</svg>
