<svg xmlns="http://www.w3.org/2000/svg" xmlns:xlink="http://www.w3.org/1999/xlink" width="110" height="110" viewBox="0 0 110 110">
  <defs>
    <filter id="Trazado_982547" x="0" y="0" width="110" height="110" filterUnits="userSpaceOnUse">
      <feOffset dy="3" input="SourceAlpha"/>
      <feGaussianBlur stdDeviation="3" result="blur"/>
      <feFlood flood-opacity="0.161"/>
      <feComposite operator="in" in2="blur"/>
      <feComposite in="SourceGraphic"/>
    </filter>
  </defs>
  <g id="Grupo_1203222" data-name="Grupo 1203222" transform="translate(-191 -8588.479)">
    <g id="Grupo_1202611" data-name="Grupo 1202611" transform="translate(200 8594.479)">
      <g id="Grupo_1175185" data-name="Grupo 1175185">
        <g id="Grupo_1164700" data-name="Grupo 1164700" transform="translate(0 0)">
          <g id="Grupo_1160931" data-name="Grupo 1160931" transform="translate(0 0)">
            <g id="Grupo_1160749" data-name="Grupo 1160749" transform="translate(0 0)">
              <g id="Grupo_1158891" data-name="Grupo 1158891">
                <g id="Grupo_1157406" data-name="Grupo 1157406">
                  <g id="Grupo_1155793" data-name="Grupo 1155793">
                    <g id="Grupo_1154704" data-name="Grupo 1154704">
                      <g id="Grupo_1150790" data-name="Grupo 1150790">
                        <g id="Grupo_1154214" data-name="Grupo 1154214">
                          <g id="Grupo_1152583" data-name="Grupo 1152583">
                            <g id="Grupo_1146973" data-name="Grupo 1146973">
                              <g id="Grupo_1146954" data-name="Grupo 1146954">
                                <g transform="matrix(1, 0, 0, 1, -9, -6)" filter="url(#Trazado_982547)">
                                  <g id="Trazado_982547-2" data-name="Trazado 982547" transform="translate(9 6)" fill="#effbfe">
                                    <path d="M 46.00000381469727 90.49986267089844 C 39.99188232421875 90.49986267089844 34.16428375244141 89.32350158691406 28.67905807495117 87.00344848632812 C 23.38021659851074 84.76223754882812 18.62104415893555 81.55341339111328 14.53376388549805 77.46613311767578 C 10.44647026062012 73.37885284423828 7.237643718719482 68.61968994140625 4.996417045593262 63.32085037231445 C 2.676363706588745 57.83565139770508 1.500003814697266 52.00805282592773 1.500003814697266 45.99993133544922 C 1.500003814697266 39.99182510375977 2.676363706588745 34.16422653198242 4.996417045593262 28.67901039123535 C 7.237643718719482 23.38017082214355 10.44647026062012 18.62101173400879 14.53376388549805 14.53373146057129 C 18.62104415893555 10.44645118713379 23.38021659851074 7.237624645233154 28.67905807495117 4.996411323547363 C 34.16428375244141 2.676357984542847 39.99188232421875 1.499997973442078 46.00000381469727 1.499997973442078 C 52.00812530517578 1.499997973442078 57.83573532104492 2.676357984542847 63.32094955444336 4.996411323547363 C 68.61980438232422 7.237624645233154 73.37896728515625 10.44645118713379 77.46625518798828 14.53373146057129 C 81.55353546142578 18.62101173400879 84.76236724853516 23.38017082214355 87.00359344482422 28.67901039123535 C 89.32364654541016 34.16422653198242 90.5 39.99182510375977 90.5 45.99993133544922 C 90.5 52.00805282592773 89.32364654541016 57.83565139770508 87.00359344482422 63.32085037231445 C 84.76236724853516 68.61968994140625 81.55353546142578 73.37885284423828 77.46625518798828 77.46613311767578 C 73.37896728515625 81.55341339111328 68.61980438232422 84.76223754882812 63.32094955444336 87.00344848632812 C 57.83573532104492 89.32350158691406 52.00812530517578 90.49986267089844 46.00000381469727 90.49986267089844 Z" stroke="none"/>
                                    <path d="M 46.00000381469727 3 C 40.19371795654297 3 34.56270217895508 4.136505126953125 29.26338958740234 6.377914428710938 C 24.14333343505859 8.54351806640625 19.54443359375 11.64438629150391 15.59442138671875 15.59439086914062 C 11.64440155029297 19.54440307617188 8.543533325195312 24.14330291748047 6.3779296875 29.26334381103516 C 4.136505126953125 34.56266021728516 3.000007629394531 40.19366073608398 3.000007629394531 45.99993133544922 C 3.000007629394531 51.80620193481445 4.136505126953125 57.43720245361328 6.3779296875 62.73651885986328 C 8.543533325195312 67.85655975341797 11.64440155029297 72.45545959472656 15.59442138671875 76.40547180175781 C 19.54443359375 80.35547637939453 24.14333343505859 83.45634460449219 29.26338958740234 85.6219482421875 C 34.56270217895508 87.86335754394531 40.19371795654297 88.99986267089844 46.00000381469727 88.99986267089844 C 51.80628967285156 88.99986267089844 57.43730545043945 87.86335754394531 62.73663330078125 85.6219482421875 C 67.85667419433594 83.45634460449219 72.45558929443359 80.35547637939453 76.40560150146484 76.40547180175781 C 80.35560607910156 72.45545959472656 83.45648956298828 67.85655975341797 85.62208557128906 62.73651885986328 C 87.86350250244141 57.43720245361328 89 51.80620193481445 89 45.99993133544922 C 89 40.19366073608398 87.86350250244141 34.56266021728516 85.62208557128906 29.26334381103516 C 83.45648956298828 24.14330291748047 80.35560607910156 19.54440307617188 76.40560150146484 15.59439086914062 C 72.45558929443359 11.64438629150391 67.85667419433594 8.54351806640625 62.73663330078125 6.377914428710938 C 57.43730545043945 4.136505126953125 51.80628967285156 3 46.00000381469727 3 M 46.00000381469727 0 C 71.40510559082031 0 92 20.59487152099609 92 45.99993133544922 C 92 71.40499114990234 71.40510559082031 91.99986267089844 46.00000381469727 91.99986267089844 C 20.59491729736328 91.99986267089844 7.62939453125e-06 71.40499114990234 7.62939453125e-06 45.99993133544922 C 7.62939453125e-06 20.59487152099609 20.59491729736328 0 46.00000381469727 0 Z" stroke="none" fill="#397b86"/>
                                  </g>
                                </g>
                              </g>
                            </g>
                          </g>
                        </g>
                      </g>
                    </g>
                  </g>
                </g>
              </g>
            </g>
          </g>
        </g>
      </g>
    </g>
    <g id="Fill_Outline" data-name="Fill Outline" transform="translate(213.706 8607.738)">
      <path id="Trazado_1041972" data-name="Trazado 1041972" d="M3,23V55.847H24.556a10.265,10.265,0,0,1,8.212,4.106,10.265,10.265,0,0,1,8.212-4.106H62.536V23Z" transform="translate(0.026 0.503)" fill="#f06e7a"/>
      <path id="Trazado_1041973" data-name="Trazado 1041973" d="M33.285,23a4.06,4.06,0,0,0-.57,2.053A4.06,4.06,0,0,0,32.145,23H5V53.795H24.019a19.447,19.447,0,0,1,8.7,2.053,19.448,19.448,0,0,1,8.7-2.053H58.377V23Z" transform="translate(0.079 0.503)" fill="#a7325c"/>
      <path id="Trazado_1041974" data-name="Trazado 1041974" d="M36.106,19A4.106,4.106,0,0,0,32,23.106V53.9a19.451,19.451,0,0,1,8.7-2.053H57.662V19Z" transform="translate(0.795 0.397)" fill="#92e5eb"/>
      <path id="Trazado_1041975" data-name="Trazado 1041975" d="M7,19V51.847H23.966a19.449,19.449,0,0,1,8.7,2.052V23.106A4.106,4.106,0,0,0,28.556,19Z" transform="translate(0.132 0.397)" fill="#92e5eb"/>
      <path id="Trazado_1041976" data-name="Trazado 1041976" d="M38.159,33.371V19H36.106A4.106,4.106,0,0,0,32,23.106V53.9a19.448,19.448,0,0,1,8.7-2.053H57.662V47.742H52.53A14.371,14.371,0,0,1,38.159,33.371Z" transform="translate(0.795 0.397)" fill="#68cbf2"/>
      <path id="Trazado_1041977" data-name="Trazado 1041977" d="M22.4,45.689A10.265,10.265,0,0,1,12.132,35.424V19H7V51.847H23.966a19.447,19.447,0,0,1,8.7,2.053V47.742a19.448,19.448,0,0,0-8.7-2.053Z" transform="translate(0.132 0.397)" fill="#68cbf2"/>
      <circle id="Elipse_12602" data-name="Elipse 12602" cx="11.291" cy="11.291" r="11.291" transform="translate(21.503 5.027)" fill="#34b2e4"/>
      <path id="Trazado_1041978" data-name="Trazado 1041978" d="M36.4,23.437A11.277,11.277,0,0,1,26.635,6.49,11.284,11.284,0,1,0,42.053,21.908,11.22,11.22,0,0,1,36.4,23.437Z" transform="translate(0.503 0.066)" fill="#2070a1"/>
      <path id="Trazado_1041979" data-name="Trazado 1041979" d="M43.291,16.247A11.285,11.285,0,0,1,32,27.539V24.459l3.079-2.053-1.026-3.079,4.106-5.132-4.106-2.053L37.964,6.66a11.258,11.258,0,0,1,5.327,9.587Z" transform="translate(0.795 0.07)" fill="#80e1b8"/>
      <path id="Trazado_1041980" data-name="Trazado 1041980" d="M26.132,15.185l3.079,4.106L27.159,23.4l-2.669.975A11.291,11.291,0,0,1,24.531,8.01l4.681,4.1Z" transform="translate(0.503 0.106)" fill="#80e1b8"/>
      <path id="Trazado_1041981" data-name="Trazado 1041981" d="M34.316,5.226l-3.274,4.907L29.43,5.308A11.117,11.117,0,0,1,32.068,5a10.845,10.845,0,0,1,2.248.226Z" transform="translate(0.726 0.027)" fill="#80e1b8"/>
      <path id="Trazado_1041982" data-name="Trazado 1041982" d="M33.874,22.817,32,24.066v3.079a11.275,11.275,0,0,0,9.767-5.639,11.242,11.242,0,0,1-7.893,1.311Z" transform="translate(0.795 0.464)" fill="#3aba80"/>
      <path id="Trazado_1041983" data-name="Trazado 1041983" d="M25.106,12.106a11.271,11.271,0,0,1,.464-3.182L24.531,8.01a11.291,11.291,0,0,0-.041,16.362l2.669-.975,1.528-3.058a11.249,11.249,0,0,1-3.581-8.233Z" transform="translate(0.503 0.106)" fill="#3aba80"/>
      <g id="Grupo_1203221" data-name="Grupo 1203221" transform="translate(2 3.998)">
        <path id="Trazado_1041984" data-name="Trazado 1041984" d="M62.563,22a1.026,1.026,0,0,0-1.026,1.026V54.847H41.006a11.354,11.354,0,0,0-8.212,3.542,11.35,11.35,0,0,0-8.212-3.542H4.053V23.026a1.026,1.026,0,1,0-2.053,0V55.874A1.026,1.026,0,0,0,3.026,56.9H24.583a9.285,9.285,0,0,1,7.391,3.7,1.026,1.026,0,0,0,1.642,0,9.284,9.284,0,0,1,7.391-3.7H62.563a1.026,1.026,0,0,0,1.026-1.026V23.026A1.026,1.026,0,0,0,62.563,22Z" transform="translate(-2 -3.522)" fill="#2f2f31"/>
        <path id="Trazado_1041985" data-name="Trazado 1041985" d="M12.026,36A1.026,1.026,0,0,0,11,37.026v8.212a1.026,1.026,0,0,0,1.026,1.026h2.053a3.079,3.079,0,1,0,0-6.159H13.053V37.026A1.026,1.026,0,0,0,12.026,36Zm3.079,7.185a1.026,1.026,0,0,1-1.026,1.026H13.053V42.159h1.026A1.026,1.026,0,0,1,15.106,43.185Z" transform="translate(-1.762 -3.151)" fill="#2f2f31"/>
        <path id="Trazado_1041986" data-name="Trazado 1041986" d="M18.214,23.566l-4.106,8.212a1.027,1.027,0,1,0,1.837.918L17.2,30.184h3.864L22.32,32.7a1.027,1.027,0,1,0,1.837-.918l-4.106-8.212a1.07,1.07,0,0,0-1.837,0Zm1.824,4.565H18.227l.905-1.811Z" transform="translate(-1.682 -3.494)" fill="#2f2f31"/>
        <path id="Trazado_1041987" data-name="Trazado 1041987" d="M23.681,41.218a.616.616,0,0,1,.538.317A1.026,1.026,0,0,0,25.993,40.5,2.676,2.676,0,0,0,21,41.845V43.5a2.676,2.676,0,0,0,4.993,1.346,1.026,1.026,0,0,0-1.774-1.033.616.616,0,0,1-.538.317.628.628,0,0,1-.628-.63V41.845a.628.628,0,0,1,.628-.627Z" transform="translate(-1.497 -3.067)" fill="#2f2f31"/>
        <path id="Trazado_1041988" data-name="Trazado 1041988" d="M38.621,45.144a1.026,1.026,0,0,0,1.054-.051l3.079-2.053a1.027,1.027,0,0,0-1.139-1.708l-1.483.99V36.026A1.026,1.026,0,0,0,39.106,35H36.026a1.026,1.026,0,1,0,0,2.053h2.053v7.185a1.026,1.026,0,0,0,.542.905Z" transform="translate(-1.126 -3.177)" fill="#2f2f31"/>
        <path id="Trazado_1041989" data-name="Trazado 1041989" d="M39.079,34.106a1.026,1.026,0,0,0,.726-1.752L37.752,30.3A1.026,1.026,0,1,0,36.3,31.752l2.053,2.053A1.026,1.026,0,0,0,39.079,34.106Z" transform="translate(-1.1 -3.31)" fill="#2f2f31"/>
        <path id="Trazado_1041990" data-name="Trazado 1041990" d="M53.265,28.053a1.026,1.026,0,0,0,0-2.053H44.026a1.026,1.026,0,1,0,0,2.053h2.943l-.257,2.053H44.026a1.026,1.026,0,1,0,0,2.053h2.43l-.369,2.952a.874.874,0,0,0,.009.127h-2.07a1.026,1.026,0,1,0,0,2.053h9.238a1.026,1.026,0,0,0,0-2.053H52.238V31.132a1.026,1.026,0,0,0-1.026-1.026h-2.43l.257-2.053Zm-3.079,4.106v3.079H48.141l.385-3.079Z" transform="translate(-0.914 -3.416)" fill="#2f2f31"/>
        <path id="Trazado_1041991" data-name="Trazado 1041991" d="M53.238,47.212a1.026,1.026,0,0,0,1.026-1.026V40.026A1.026,1.026,0,0,0,53.238,39H45.026A1.026,1.026,0,0,0,44,40.026v6.159a1.026,1.026,0,0,0,2.053,0V45.159h6.159v1.026A1.026,1.026,0,0,0,53.238,47.212Zm-7.185-4.106V41.053h6.159v2.053Z" transform="translate(-0.888 -3.072)" fill="#2f2f31"/>
        <path id="Trazado_1041992" data-name="Trazado 1041992" d="M7.026,40.583a1.026,1.026,0,0,0,1.026-1.026v-19.5h9.675a1.026,1.026,0,0,0,0-2.053H7.026A1.026,1.026,0,0,0,6,19.026v20.53a1.026,1.026,0,0,0,1.026,1.026Z" transform="translate(-1.894 -3.628)" fill="#2f2f31"/>
        <path id="Trazado_1041993" data-name="Trazado 1041993" d="M7.026,52.9H23.992a18.5,18.5,0,0,1,8.238,1.95c.013.006.03,0,.044.01a1.045,1.045,0,0,0,.415.092,1.026,1.026,0,0,0,.411-.1c.015-.006.032,0,.047-.01A18.5,18.5,0,0,1,41.385,52.9H58.351a1.026,1.026,0,0,0,1.026-1.026V19.026A1.026,1.026,0,0,0,58.351,18H47.65a1.026,1.026,0,0,0,0,2.053h9.675V50.847H41.385a20.581,20.581,0,0,0-7.67,1.5v-21a1.026,1.026,0,1,0-2.053,0V52.339a20.592,20.592,0,0,0-7.67-1.491H8.053V43.662a1.026,1.026,0,0,0-2.053,0v8.212A1.026,1.026,0,0,0,7.026,52.9Z" transform="translate(-1.894 -3.628)" fill="#2f2f31"/>
        <path id="Trazado_1041994" data-name="Trazado 1041994" d="M32.318,28.636a12.253,12.253,0,0,0,12.137-14.35,1.026,1.026,0,1,0-2.024.337A10.2,10.2,0,0,1,33.345,26.53V25.079l2.623-1.745a1.026,1.026,0,0,0,.4-1.178l-.85-2.553,3.757-4.7a1.026,1.026,0,0,0-.343-1.56L35.882,11.82a1.028,1.028,0,1,0-.924,1.836l1.919.96-3.312,4.14a1.026,1.026,0,0,0-.172.966l.779,2.336-2.428,1.618a1.026,1.026,0,0,0-.452.854v2a10.184,10.184,0,0,1-4.722-1.71l.964-.353a1.026,1.026,0,0,0,.567-.505l2.053-4.106a1.026,1.026,0,0,0-.093-1.075l-2.546-3.394,2.45-2.45a1.026,1.026,0,0,0-.049-1.5l-3.772-3.3a10.278,10.278,0,0,1,2.879-1.533l1.3,3.878a1.026,1.026,0,0,0,1.828.245l2.874-4.3a10.33,10.33,0,0,1,6.137,4.692,1.027,1.027,0,1,0,1.769-1.043A12.318,12.318,0,1,0,32.318,28.636Zm.459-22.552L31.6,7.845l-.569-1.7a10.209,10.209,0,0,1,1.287-.089c.154,0,.308.024.459.031ZM24.628,9.543l3.109,2.72-2.3,2.3a1.026,1.026,0,0,0-.1,1.341l2.7,3.6L26.45,22.682l-1.651.6a10.205,10.205,0,0,1-.171-13.743Z" transform="translate(-1.524 -3.999)" fill="#2f2f31"/>
      </g>
    </g>
  </g>
</svg>
