<svg xmlns="http://www.w3.org/2000/svg" xmlns:xlink="http://www.w3.org/1999/xlink" width="110" height="110" viewBox="0 0 110 110">
  <defs>
    <filter id="Trazado_982547" x="0" y="0" width="110" height="110" filterUnits="userSpaceOnUse">
      <feOffset dy="3" input="SourceAlpha"/>
      <feGaussianBlur stdDeviation="3" result="blur"/>
      <feFlood flood-opacity="0.161"/>
      <feComposite operator="in" in2="blur"/>
      <feComposite in="SourceGraphic"/>
    </filter>
  </defs>
  <g id="Grupo_1203217" data-name="Grupo 1203217" transform="translate(-1112 -8191.606)">
    <g id="Grupo_1202607" data-name="Grupo 1202607" transform="translate(1121 8197.606)">
      <g id="Grupo_1175186" data-name="Grupo 1175186">
        <g id="Grupo_1164700" data-name="Grupo 1164700" transform="translate(0 0)">
          <g id="Grupo_1160931" data-name="Grupo 1160931" transform="translate(0 0)">
            <g id="Grupo_1160749" data-name="Grupo 1160749" transform="translate(0 0)">
              <g id="Grupo_1158891" data-name="Grupo 1158891">
                <g id="Grupo_1157406" data-name="Grupo 1157406">
                  <g id="Grupo_1155793" data-name="Grupo 1155793">
                    <g id="Grupo_1154704" data-name="Grupo 1154704">
                      <g id="Grupo_1150790" data-name="Grupo 1150790">
                        <g id="Grupo_1154214" data-name="Grupo 1154214">
                          <g id="Grupo_1152583" data-name="Grupo 1152583">
                            <g id="Grupo_1146973" data-name="Grupo 1146973">
                              <g id="Grupo_1146954" data-name="Grupo 1146954">
                                <g transform="matrix(1, 0, 0, 1, -9, -6)" filter="url(#Trazado_982547)">
                                  <g id="Trazado_982547-2" data-name="Trazado 982547" transform="translate(9 6)" fill="#effbfe">
                                    <path d="M 46.00000381469727 90.49986267089844 C 39.99188232421875 90.49986267089844 34.16428375244141 89.32350158691406 28.67905807495117 87.00344848632812 C 23.38021659851074 84.76223754882812 18.62104415893555 81.55341339111328 14.53376388549805 77.46613311767578 C 10.44647026062012 73.37885284423828 7.237643718719482 68.61968994140625 4.996417045593262 63.32085037231445 C 2.676363706588745 57.83565139770508 1.500003814697266 52.00805282592773 1.500003814697266 45.99993133544922 C 1.500003814697266 39.99182510375977 2.676363706588745 34.16422653198242 4.996417045593262 28.67901039123535 C 7.237643718719482 23.38017082214355 10.44647026062012 18.62101173400879 14.53376388549805 14.53373146057129 C 18.62104415893555 10.44645118713379 23.38021659851074 7.237624645233154 28.67905807495117 4.996411323547363 C 34.16428375244141 2.676357984542847 39.99188232421875 1.499997973442078 46.00000381469727 1.499997973442078 C 52.00812530517578 1.499997973442078 57.83573532104492 2.676357984542847 63.32094955444336 4.996411323547363 C 68.61980438232422 7.237624645233154 73.37896728515625 10.44645118713379 77.46625518798828 14.53373146057129 C 81.55353546142578 18.62101173400879 84.76236724853516 23.38017082214355 87.00359344482422 28.67901039123535 C 89.32364654541016 34.16422653198242 90.5 39.99182510375977 90.5 45.99993133544922 C 90.5 52.00805282592773 89.32364654541016 57.83565139770508 87.00359344482422 63.32085037231445 C 84.76236724853516 68.61968994140625 81.55353546142578 73.37885284423828 77.46625518798828 77.46613311767578 C 73.37896728515625 81.55341339111328 68.61980438232422 84.76223754882812 63.32094955444336 87.00344848632812 C 57.83573532104492 89.32350158691406 52.00812530517578 90.49986267089844 46.00000381469727 90.49986267089844 Z" stroke="none"/>
                                    <path d="M 46.00000381469727 3 C 40.19371795654297 3 34.56270217895508 4.136505126953125 29.26338958740234 6.377914428710938 C 24.14333343505859 8.54351806640625 19.54443359375 11.64438629150391 15.59442138671875 15.59439086914062 C 11.64440155029297 19.54440307617188 8.543533325195312 24.14330291748047 6.3779296875 29.26334381103516 C 4.136505126953125 34.56266021728516 3.000007629394531 40.19366073608398 3.000007629394531 45.99993133544922 C 3.000007629394531 51.80620193481445 4.136505126953125 57.43720245361328 6.3779296875 62.73651885986328 C 8.543533325195312 67.85655975341797 11.64440155029297 72.45545959472656 15.59442138671875 76.40547180175781 C 19.54443359375 80.35547637939453 24.14333343505859 83.45634460449219 29.26338958740234 85.6219482421875 C 34.56270217895508 87.86335754394531 40.19371795654297 88.99986267089844 46.00000381469727 88.99986267089844 C 51.80628967285156 88.99986267089844 57.43730545043945 87.86335754394531 62.73663330078125 85.6219482421875 C 67.85667419433594 83.45634460449219 72.45558929443359 80.35547637939453 76.40560150146484 76.40547180175781 C 80.35560607910156 72.45545959472656 83.45648956298828 67.85655975341797 85.62208557128906 62.73651885986328 C 87.86350250244141 57.43720245361328 89 51.80620193481445 89 45.99993133544922 C 89 40.19366073608398 87.86350250244141 34.56266021728516 85.62208557128906 29.26334381103516 C 83.45648956298828 24.14330291748047 80.35560607910156 19.54440307617188 76.40560150146484 15.59439086914062 C 72.45558929443359 11.64438629150391 67.85667419433594 8.54351806640625 62.73663330078125 6.377914428710938 C 57.43730545043945 4.136505126953125 51.80628967285156 3 46.00000381469727 3 M 46.00000381469727 0 C 71.40510559082031 0 92 20.59487152099609 92 45.99993133544922 C 92 71.40499114990234 71.40510559082031 91.99986267089844 46.00000381469727 91.99986267089844 C 20.59491729736328 91.99986267089844 7.62939453125e-06 71.40499114990234 7.62939453125e-06 45.99993133544922 C 7.62939453125e-06 20.59487152099609 20.59491729736328 0 46.00000381469727 0 Z" stroke="none" fill="#397b86"/>
                                  </g>
                                </g>
                              </g>
                            </g>
                          </g>
                        </g>
                      </g>
                    </g>
                  </g>
                </g>
              </g>
            </g>
          </g>
        </g>
      </g>
    </g>
    <g id="cognitivo" transform="translate(1104.414 8200.712)">
      <g id="Grupo_1203216" data-name="Grupo 1203216" transform="translate(39.009 20.381)">
        <g id="Grupo_1203213" data-name="Grupo 1203213" transform="translate(24.64 0)">
          <path id="Trazado_1041919" data-name="Trazado 1041919" d="M263.558,96H266.6l1.436,3.731a19.213,19.213,0,0,1,5.626,2.332l3.656-1.624,4.309,4.309-1.623,3.655a19.209,19.209,0,0,1,2.333,5.627l3.73,1.436v6.094L282.34,123a19.216,19.216,0,0,1-2.332,5.626l1.624,3.656-4.309,4.309-3.655-1.623a19.209,19.209,0,0,1-5.628,2.333l-1.436,3.73h-3.047V129.14a10.627,10.627,0,0,0,0-21.254Z" transform="translate(-263.558 -96)" fill="#ffe177" fill-rule="evenodd"/>
          <path id="Trazado_1041920" data-name="Trazado 1041920" d="M280.007,128.621l1.624,3.656-.583.583-1.518-3.419Q279.778,129.037,280.007,128.621Zm0-20.219a19.212,19.212,0,0,1,2.333,5.627l3.73,1.436v1.9l-3.73-1.436a25.578,25.578,0,0,0-2.81-6.448ZM263.557,96H266.6l1.436,3.731a19.213,19.213,0,0,1,5.626,2.332l3.656-1.624,4.309,4.309-.583,1.313-3.726-3.726-3.656,1.624a19.213,19.213,0,0,0-5.626-2.332L266.6,97.9h-3.047V96Z" transform="translate(-263.557 -96)" fill="#ffd064" fill-rule="evenodd"/>
        </g>
        <g id="Grupo_1203214" data-name="Grupo 1203214" transform="translate(0 0)">
          <path id="Trazado_1041921" data-name="Trazado 1041921" d="M103.214,99.518a5.07,5.07,0,0,0-4.624,3.893,5.063,5.063,0,0,0-6.247,4.775,5.072,5.072,0,0,0-3.9,4.919,5.4,5.4,0,0,0,5.389,5.407h14.2a5.052,5.052,0,0,0,5.052-5.052V101.051a5.053,5.053,0,0,0-9.867-1.533Z" transform="translate(-88.441 -95.999)" fill="#fe646f" fill-rule="evenodd"/>
          <path id="Trazado_1041922" data-name="Trazado 1041922" d="M147.6,103.27a4.975,4.975,0,0,0-.528.047c.164.023.328.054.492.095C147.573,103.364,147.585,103.317,147.6,103.27Zm9.4,15.242h1.407a5.052,5.052,0,0,0,5.052-5.052V101.051a5.055,5.055,0,0,0-5.759-5,5.07,5.07,0,0,1,4.351,5V113.46A5.052,5.052,0,0,1,157,118.512Z" transform="translate(-138.821 -95.999)" fill="#fd4755" fill-rule="evenodd"/>
        </g>
        <g id="Grupo_1203215" data-name="Grupo 1203215" transform="translate(0 22.513)">
          <path id="Trazado_1041923" data-name="Trazado 1041923" d="M103.214,274.992a5.07,5.07,0,0,1-4.624-3.894,5.063,5.063,0,0,1-6.247-4.775,5.072,5.072,0,0,1-3.9-4.919A5.4,5.4,0,0,1,93.83,256h14.2a5.052,5.052,0,0,1,5.052,5.052v12.409a5.053,5.053,0,0,1-9.867,1.533Z" transform="translate(-88.441 -255.998)" fill="#fe646f" fill-rule="evenodd"/>
          <path id="Trazado_1041924" data-name="Trazado 1041924" d="M147.6,271.242a4.969,4.969,0,0,1-.528-.047c.164-.023.328-.054.492-.095C147.573,271.148,147.585,271.195,147.6,271.242ZM157,256h1.407a5.052,5.052,0,0,1,5.052,5.052v12.409a5.055,5.055,0,0,1-5.759,5,5.07,5.07,0,0,0,4.351-5V261.052A5.052,5.052,0,0,0,157,256Z" transform="translate(-138.821 -256)" fill="#fd4755" fill-rule="evenodd"/>
        </g>
      </g>
      <path id="Trazado_1041925" data-name="Trazado 1041925" d="M58.552,50.576a1.125,1.125,0,0,0-1.592-.043,3.9,3.9,0,0,1-3.72.944,3.947,3.947,0,0,1-2.848-3.094,1.126,1.126,0,0,0-2.216.4,6.2,6.2,0,0,0,6.1,5.081,6.14,6.14,0,0,0,4.234-1.7A1.125,1.125,0,0,0,58.552,50.576ZM58.6,64.281a3.926,3.926,0,0,1-2.95-6.519,1.125,1.125,0,1,0-1.689-1.487A6.206,6.206,0,0,0,52.424,60.4a3.956,3.956,0,0,1-2.171-2.662A1.126,1.126,0,0,0,48.89,56.9a3.773,3.773,0,0,1-3.442-6.558A1.126,1.126,0,0,0,44,48.617a6.2,6.2,0,0,0-1.977,3.032A3.965,3.965,0,0,1,40.135,48.3,4.277,4.277,0,0,1,44.4,44.02h9.429a6.218,6.218,0,0,0-.687,1.029,1.125,1.125,0,1,0,1.987,1.057,3.928,3.928,0,0,1,7.4,1.84V60.359A3.932,3.932,0,0,1,58.6,64.281ZM44.4,41.768h9.429a6.212,6.212,0,0,1-.687-1.029,1.125,1.125,0,1,1,1.987-1.057,3.928,3.928,0,0,0,7.4-1.842V25.427a3.927,3.927,0,1,0-6.876,2.6,1.125,1.125,0,1,1-1.689,1.486,6.2,6.2,0,0,1-1.534-4.124,3.959,3.959,0,0,0-2.171,2.664,1.126,1.126,0,0,1-1.363.836,3.849,3.849,0,0,0-.927-.113,3.746,3.746,0,0,0-2.515,6.671A1.126,1.126,0,0,1,44,37.172a6.205,6.205,0,0,1-1.977-3.032,3.961,3.961,0,0,0-1.891,3.347A4.277,4.277,0,0,0,44.4,41.768ZM64.775,21.507V31.2a11.752,11.752,0,0,1,0,23.4v9.69h1.148l1.158-3.009a1.121,1.121,0,0,1,.789-.691,18.074,18.074,0,0,0,5.3-2.2,1.122,1.122,0,0,1,1.048-.07l2.948,1.309,3.215-3.216-1.31-2.949a1.128,1.128,0,0,1,.07-1.047,18.077,18.077,0,0,0,2.2-5.3,1.129,1.129,0,0,1,.691-.789l3.009-1.158V40.62l-3.009-1.158a1.124,1.124,0,0,1-.689-.791,18.06,18.06,0,0,0-2.2-5.3,1.124,1.124,0,0,1-.07-1.047l1.309-2.949-3.215-3.215-2.949,1.31a1.125,1.125,0,0,1-1.046-.07,18.106,18.106,0,0,0-5.3-2.2,1.125,1.125,0,0,1-.789-.689l-1.158-3.01ZM62.145,42.894a6.172,6.172,0,0,1,2.629,5.052v4.38a9.5,9.5,0,0,0,0-18.864v4.38A6.173,6.173,0,0,1,62.145,42.894ZM58.6,66.532a6.153,6.153,0,0,1-5.621-3.611,6.235,6.235,0,0,1-4.587-3.672,6.2,6.2,0,0,1-6.527-5.179,6.244,6.244,0,0,1-3.978-5.77,6.535,6.535,0,0,1,2.862-5.406,6.535,6.535,0,0,1-2.862-5.407,6.245,6.245,0,0,1,3.978-5.77,6.2,6.2,0,0,1,6.527-5.179,6.24,6.24,0,0,1,4.587-3.673,6.178,6.178,0,0,1,9.548-2.2v-.285a1.126,1.126,0,0,1,1.126-1.126H66.7a1.124,1.124,0,0,1,1.05.721l1.227,3.187a20.264,20.264,0,0,1,4.861,2.016l3.123-1.387a1.126,1.126,0,0,1,1.254.232l4.308,4.309a1.127,1.127,0,0,1,.234,1.254l-1.387,3.122a20.266,20.266,0,0,1,2.015,4.861L86.566,38.8a1.124,1.124,0,0,1,.721,1.05V45.94a1.127,1.127,0,0,1-.721,1.051l-3.188,1.227a20.338,20.338,0,0,1-2.015,4.86L82.752,56.2a1.126,1.126,0,0,1-.234,1.252L78.21,61.763A1.128,1.128,0,0,1,76.956,62l-3.123-1.387a20.3,20.3,0,0,1-4.861,2.017l-1.225,3.186a1.128,1.128,0,0,1-1.052.722H63.65a1.126,1.126,0,0,1-1.126-1.126V65.12A6.148,6.148,0,0,1,58.6,66.532Zm-10.65,1.886a1.126,1.126,0,0,1-.563,2.1,1.108,1.108,0,0,1-.56-.151A31.662,31.662,0,0,1,30.915,42.894,31.672,31.672,0,0,1,62.586,11.223c1.034,0,2.071.054,3.1.154L64.2,9.933a1.125,1.125,0,1,1,1.565-1.617l4.048,3.919A1.126,1.126,0,0,1,69.624,14l-4.775,2.99a1.114,1.114,0,0,1-.6.172,1.126,1.126,0,0,1-.6-2.08l2.264-1.417A29.423,29.423,0,0,0,47.947,68.418ZM89.865,26.8A31.674,31.674,0,0,1,62.586,74.564c-1.034,0-2.072-.052-3.1-.154l1.49,1.444a1.125,1.125,0,1,1-1.566,1.617L55.36,73.552a1.124,1.124,0,0,1,.186-1.762L60.322,68.8a1.125,1.125,0,0,1,1.195,1.907l-2.261,1.417a29.423,29.423,0,0,0,17.97-54.755,1.125,1.125,0,1,1,1.121-1.952A31.856,31.856,0,0,1,89.865,26.8ZM53.24,34.31A3.946,3.946,0,0,0,50.392,37.4a1.126,1.126,0,0,1-1.107.924,1.035,1.035,0,0,1-.2-.019A1.125,1.125,0,0,1,48.176,37a6.212,6.212,0,0,1,4.482-4.866,6.141,6.141,0,0,1,5.851,1.485,1.125,1.125,0,1,1-1.548,1.633A3.906,3.906,0,0,0,53.24,34.31Z" transform="translate(0)" fill-rule="evenodd"/>
    </g>
  </g>
</svg>
