<svg xmlns="http://www.w3.org/2000/svg" xmlns:xlink="http://www.w3.org/1999/xlink" width="110" height="110" viewBox="0 0 110 110">
  <defs>
    <filter id="Trazado_982547" x="0" y="0" width="110" height="110" filterUnits="userSpaceOnUse">
      <feOffset dy="3" input="SourceAlpha"/>
      <feGaussianBlur stdDeviation="3" result="blur"/>
      <feFlood flood-opacity="0.161"/>
      <feComposite operator="in" in2="blur"/>
      <feComposite in="SourceGraphic"/>
    </filter>
  </defs>
  <g id="Grupo_1203218" data-name="Grupo 1203218" transform="translate(-191 -8211.479)">
    <g id="Grupo_1202609" data-name="Grupo 1202609" transform="translate(200 8217.479)">
      <g id="Grupo_1175185" data-name="Grupo 1175185">
        <g id="Grupo_1164700" data-name="Grupo 1164700" transform="translate(0 0)">
          <g id="Grupo_1160931" data-name="Grupo 1160931" transform="translate(0 0)">
            <g id="Grupo_1160749" data-name="Grupo 1160749" transform="translate(0 0)">
              <g id="Grupo_1158891" data-name="Grupo 1158891">
                <g id="Grupo_1157406" data-name="Grupo 1157406">
                  <g id="Grupo_1155793" data-name="Grupo 1155793">
                    <g id="Grupo_1154704" data-name="Grupo 1154704">
                      <g id="Grupo_1150790" data-name="Grupo 1150790">
                        <g id="Grupo_1154214" data-name="Grupo 1154214">
                          <g id="Grupo_1152583" data-name="Grupo 1152583">
                            <g id="Grupo_1146973" data-name="Grupo 1146973">
                              <g id="Grupo_1146954" data-name="Grupo 1146954">
                                <g transform="matrix(1, 0, 0, 1, -9, -6)" filter="url(#Trazado_982547)">
                                  <g id="Trazado_982547-2" data-name="Trazado 982547" transform="translate(9 6)" fill="#effbfe">
                                    <path d="M 46.00000381469727 90.49986267089844 C 39.99188232421875 90.49986267089844 34.16428375244141 89.32350158691406 28.67905807495117 87.00344848632812 C 23.38021659851074 84.76223754882812 18.62104415893555 81.55341339111328 14.53376388549805 77.46613311767578 C 10.44647026062012 73.37885284423828 7.237643718719482 68.61968994140625 4.996417045593262 63.32085037231445 C 2.676363706588745 57.83565139770508 1.500003814697266 52.00805282592773 1.500003814697266 45.99993133544922 C 1.500003814697266 39.99182510375977 2.676363706588745 34.16422653198242 4.996417045593262 28.67901039123535 C 7.237643718719482 23.38017082214355 10.44647026062012 18.62101173400879 14.53376388549805 14.53373146057129 C 18.62104415893555 10.44645118713379 23.38021659851074 7.237624645233154 28.67905807495117 4.996411323547363 C 34.16428375244141 2.676357984542847 39.99188232421875 1.499997973442078 46.00000381469727 1.499997973442078 C 52.00812530517578 1.499997973442078 57.83573532104492 2.676357984542847 63.32094955444336 4.996411323547363 C 68.61980438232422 7.237624645233154 73.37896728515625 10.44645118713379 77.46625518798828 14.53373146057129 C 81.55353546142578 18.62101173400879 84.76236724853516 23.38017082214355 87.00359344482422 28.67901039123535 C 89.32364654541016 34.16422653198242 90.5 39.99182510375977 90.5 45.99993133544922 C 90.5 52.00805282592773 89.32364654541016 57.83565139770508 87.00359344482422 63.32085037231445 C 84.76236724853516 68.61968994140625 81.55353546142578 73.37885284423828 77.46625518798828 77.46613311767578 C 73.37896728515625 81.55341339111328 68.61980438232422 84.76223754882812 63.32094955444336 87.00344848632812 C 57.83573532104492 89.32350158691406 52.00812530517578 90.49986267089844 46.00000381469727 90.49986267089844 Z" stroke="none"/>
                                    <path d="M 46.00000381469727 3 C 40.19371795654297 3 34.56270217895508 4.136505126953125 29.26338958740234 6.377914428710938 C 24.14333343505859 8.54351806640625 19.54443359375 11.64438629150391 15.59442138671875 15.59439086914062 C 11.64440155029297 19.54440307617188 8.543533325195312 24.14330291748047 6.3779296875 29.26334381103516 C 4.136505126953125 34.56266021728516 3.000007629394531 40.19366073608398 3.000007629394531 45.99993133544922 C 3.000007629394531 51.80620193481445 4.136505126953125 57.43720245361328 6.3779296875 62.73651885986328 C 8.543533325195312 67.85655975341797 11.64440155029297 72.45545959472656 15.59442138671875 76.40547180175781 C 19.54443359375 80.35547637939453 24.14333343505859 83.45634460449219 29.26338958740234 85.6219482421875 C 34.56270217895508 87.86335754394531 40.19371795654297 88.99986267089844 46.00000381469727 88.99986267089844 C 51.80628967285156 88.99986267089844 57.43730545043945 87.86335754394531 62.73663330078125 85.6219482421875 C 67.85667419433594 83.45634460449219 72.45558929443359 80.35547637939453 76.40560150146484 76.40547180175781 C 80.35560607910156 72.45545959472656 83.45648956298828 67.85655975341797 85.62208557128906 62.73651885986328 C 87.86350250244141 57.43720245361328 89 51.80620193481445 89 45.99993133544922 C 89 40.19366073608398 87.86350250244141 34.56266021728516 85.62208557128906 29.26334381103516 C 83.45648956298828 24.14330291748047 80.35560607910156 19.54440307617188 76.40560150146484 15.59439086914062 C 72.45558929443359 11.64438629150391 67.85667419433594 8.54351806640625 62.73663330078125 6.377914428710938 C 57.43730545043945 4.136505126953125 51.80628967285156 3 46.00000381469727 3 M 46.00000381469727 0 C 71.40510559082031 0 92 20.59487152099609 92 45.99993133544922 C 92 71.40499114990234 71.40510559082031 91.99986267089844 46.00000381469727 91.99986267089844 C 20.59491729736328 91.99986267089844 7.62939453125e-06 71.40499114990234 7.62939453125e-06 45.99993133544922 C 7.62939453125e-06 20.59487152099609 20.59491729736328 0 46.00000381469727 0 Z" stroke="none" fill="#397b86"/>
                                  </g>
                                </g>
                              </g>
                            </g>
                          </g>
                        </g>
                      </g>
                    </g>
                  </g>
                </g>
              </g>
            </g>
          </g>
        </g>
      </g>
    </g>
    <g id="razon" transform="translate(206.699 8232.506)">
      <path id="Trazado_1041926" data-name="Trazado 1041926" d="M68.718,147.841a6.138,6.138,0,0,1-12.269.271,4.912,4.912,0,0,1-3.935-4.813c0-.1,0-.208.011-.311a7.36,7.36,0,0,1-6.291-8.527,7.365,7.365,0,0,1,0-12.277,7.359,7.359,0,0,1,6.327-8.532,4.911,4.911,0,0,1,4.382-4.211,6.138,6.138,0,0,1,11.775,2.431v35.969Z" transform="translate(-28.917 -92.941)" fill="#fc8086"/>
      <path id="Trazado_1041927" data-name="Trazado 1041927" d="M124.283,256.223a4.918,4.918,0,0,0,3.668,3.215,6.138,6.138,0,0,0,12.269-.271V232.384c0,13.013-7.106,23.59-15.937,23.839Z" transform="translate(-100.419 -204.267)" fill="#fa4954"/>
      <path id="Trazado_1041928" data-name="Trazado 1041928" d="M256,147.841a6.138,6.138,0,0,0,12.269.271A4.912,4.912,0,0,0,272.2,143.3c0-.1,0-.208-.011-.311a7.36,7.36,0,0,0,6.291-8.527,7.365,7.365,0,0,0,0-12.277,7.359,7.359,0,0,0-6.327-8.532,4.911,4.911,0,0,0-4.382-4.211A6.138,6.138,0,0,0,256,111.872v35.969Z" transform="translate(-216.198 -92.941)" fill="#fc8086"/>
      <path id="Trazado_1041929" data-name="Trazado 1041929" d="M281.78,254.564a7.339,7.339,0,0,0-2.162-5.211,21.359,21.359,0,0,1-21.354,20.9,21.6,21.6,0,0,1-2.264-.119v3.946a6.138,6.138,0,0,0,12.269.271,4.912,4.912,0,0,0,3.935-4.813c0-.1,0-.208-.011-.311a7.359,7.359,0,0,0,6.291-8.527A7.357,7.357,0,0,0,281.78,254.564Z" transform="translate(-216.199 -219.183)" fill="#fa4954"/>
      <circle id="Elipse_12599" data-name="Elipse 12599" cx="8.593" cy="8.593" r="8.593" transform="translate(10.952 7.392)" fill="#97e4f9"/>
      <path id="Trazado_1041930" data-name="Trazado 1041930" d="M43.008,74.534A8.591,8.591,0,0,1,31.013,86.529,8.592,8.592,0,1,0,43.008,74.534Z" transform="translate(-18.435 -65.516)" fill="#0acefa"/>
      <circle id="Elipse_12600" data-name="Elipse 12600" cx="8.593" cy="8.593" r="8.593" transform="translate(51.463 7.392)" fill="#6df3bf"/>
      <path id="Trazado_1041931" data-name="Trazado 1041931" d="M377.822,74.534a8.591,8.591,0,0,1-11.995,11.995,8.592,8.592,0,1,0,11.995-11.995Z" transform="translate(-312.737 -65.516)" fill="#05e29a"/>
      <circle id="Elipse_12601" data-name="Elipse 12601" cx="8.593" cy="8.593" r="8.593" transform="translate(31.208 0.64)" fill="#fba65c"/>
      <path id="Trazado_1041932" data-name="Trazado 1041932" d="M210.415,18.732A8.591,8.591,0,0,1,198.42,30.727a8.592,8.592,0,1,0,11.995-11.995Z" transform="translate(-165.586 -16.466)" fill="#fb9538"/>
      <path id="Trazado_1041933" data-name="Trazado 1041933" d="M65.289,100.256a.911.911,0,0,0,.911-.911V91a.911.911,0,1,0-1.823,0v.348A1.177,1.177,0,0,1,63.2,92.52a.911.911,0,1,0,0,1.823,2.981,2.981,0,0,0,1.175-.24v5.242A.911.911,0,0,0,65.289,100.256Z" transform="translate(-45.928 -79.186)"/>
      <path id="Trazado_1041934" data-name="Trazado 1041934" d="M69.561,15.985a9.481,9.481,0,0,0-1.444-5.038.911.911,0,1,0-1.545.967A7.675,7.675,0,1,1,63.8,9.273a.911.911,0,1,0,.889-1.591A9.506,9.506,0,0,0,50.8,13.828a7.025,7.025,0,0,0-2.061-1.367A9.506,9.506,0,0,0,42.181.029a.911.911,0,0,0-.455,1.765,7.682,7.682,0,1,1-3.849,0A.911.911,0,0,0,37.421.029a9.506,9.506,0,0,0-6.56,12.432A7.026,7.026,0,0,0,28.8,13.828,9.506,9.506,0,0,0,14.916,7.682.911.911,0,1,0,15.8,9.273a7.681,7.681,0,1,1-2.775,2.64.911.911,0,0,0-1.545-.967,9.506,9.506,0,0,0,5.35,14.147,8.294,8.294,0,0,0-.533,2.922c0,.266.013.535.04.8l-.136.107a8.394,8.394,0,0,0-3.1,6.455,8.263,8.263,0,0,0,3.231,6.56c-.025.266-.04.534-.04.805h0a8.3,8.3,0,0,0,6.4,8.06,5.843,5.843,0,0,0,3.98,5.08A7.047,7.047,0,0,0,39.8,58.36a7.047,7.047,0,0,0,13.118-2.473,5.843,5.843,0,0,0,3.98-5.08,8.3,8.3,0,0,0,6.4-8.06h0c0-.271-.014-.539-.04-.805a8.263,8.263,0,0,0,3.231-6.56,8.394,8.394,0,0,0-3.1-6.455l-.136-.107c.026-.269.04-.538.04-.8a8.294,8.294,0,0,0-.533-2.922,9.52,9.52,0,0,0,6.794-9.109Zm-35.9,44.142a5.212,5.212,0,0,1-5.111-4.136,5.857,5.857,0,0,0,4.811-5.764.911.911,0,1,0-1.823,0,4.025,4.025,0,0,1-3.917,4.03A4.008,4.008,0,0,1,24.546,50.9a8.272,8.272,0,0,0,3.489-1.227.911.911,0,0,0-.974-1.541,6.456,6.456,0,0,1-3.388,1,6.465,6.465,0,0,1-5.548-6.387h0a6.422,6.422,0,0,1,3.053-5.487.911.911,0,0,0-.962-1.548,8.245,8.245,0,0,0-3.42,4.2,6.438,6.438,0,0,1-1.863-4.531,6.553,6.553,0,0,1,2.418-5.036c.136-.11.284-.218.437-.321L17.823,30a6.449,6.449,0,0,1,7.974.666.911.911,0,0,0,1.246-1.331,8.276,8.276,0,0,0-8.911-1.567,6.453,6.453,0,0,1,.528-2.324c.292.027.586.043.885.043a9.519,9.519,0,0,0,9.4-8.078,4,4,0,0,1,3.563,3.975.911.911,0,1,0,1.823,0,5.83,5.83,0,0,0-4.746-5.721,5.208,5.208,0,0,1,2.064-1.556,9.517,9.517,0,0,0,7.243,4.583v7.461A2.652,2.652,0,0,1,36.241,28.8a.911.911,0,1,0,0,1.823,4.447,4.447,0,0,0,2.649-.872v5.459a6.461,6.461,0,0,1-3.7,1.612.911.911,0,0,0,.083,1.819q.042,0,.085,0a8.278,8.278,0,0,0,3.532-1.17V41.8a2.652,2.652,0,0,1-2.649,2.649.911.911,0,1,0,0,1.823,4.447,4.447,0,0,0,2.649-.872v9.5a5.232,5.232,0,0,1-5.227,5.227ZM61.47,27.771a8.276,8.276,0,0,0-8.911,1.567A.911.911,0,1,0,53.8,30.668,6.449,6.449,0,0,1,61.779,30l.035.021c.153.1.3.212.437.321a6.553,6.553,0,0,1,2.418,5.036,6.438,6.438,0,0,1-1.863,4.531,8.246,8.246,0,0,0-3.42-4.2.911.911,0,0,0-.962,1.548,6.422,6.422,0,0,1,3.053,5.487h0a6.465,6.465,0,0,1-5.548,6.387,6.457,6.457,0,0,1-3.388-1,.911.911,0,1,0-.974,1.541A8.275,8.275,0,0,0,55.056,50.9a4.008,4.008,0,0,1-3.077,3.353,4.025,4.025,0,0,1-3.917-4.03.911.911,0,1,0-1.823,0,5.857,5.857,0,0,0,4.811,5.764A5.226,5.226,0,0,1,40.712,54.9V45.4a4.447,4.447,0,0,0,2.649.872.911.911,0,0,0,0-1.823A2.652,2.652,0,0,1,40.712,41.8V37.47a8.276,8.276,0,0,0,3.532,1.17c.028,0,.057,0,.085,0a.911.911,0,0,0,.083-1.819,6.46,6.46,0,0,1-3.7-1.612V29.754a4.447,4.447,0,0,0,2.649.872.911.911,0,0,0,0-1.823,2.652,2.652,0,0,1-2.649-2.649V18.693a9.516,9.516,0,0,0,7.243-4.583,5.207,5.207,0,0,1,2.064,1.556,5.83,5.83,0,0,0-4.746,5.721.911.911,0,1,0,1.823,0,4,4,0,0,1,3.563-3.975,9.519,9.519,0,0,0,9.4,8.078c.3,0,.593-.016.885-.043a6.45,6.45,0,0,1,.529,2.324Z"/>
      <path id="Trazado_1041935" data-name="Trazado 1041935" d="M403.711,91.908a.911.911,0,0,0,0-1.823h-4.174a.911.911,0,0,0-.911.911v2.946a2.142,2.142,0,0,0,2.139,2.139h1.719a.316.316,0,0,1,.316.316v1.719a.316.316,0,0,1-.316.316h-2.946a.911.911,0,1,0,0,1.823h2.946a2.142,2.142,0,0,0,2.139-2.139V96.4a2.142,2.142,0,0,0-2.139-2.139h-1.719a.316.316,0,0,1-.316-.316V91.908Z" transform="translate(-341.568 -79.186)"/>
      <path id="Trazado_1041936" data-name="Trazado 1041936" d="M231.219,36.413a.911.911,0,1,0,1.823,0,.306.306,0,0,1,.306-.306h1.739a.306.306,0,0,1,.306.306v1.739a.306.306,0,0,1-.306.306H233.87a.911.911,0,0,0,0,1.823h1.217a.306.306,0,0,1,.306.306v1.739a.306.306,0,0,1-.306.306h-1.739a.306.306,0,0,1-.306-.306.911.911,0,1,0-1.823,0,2.131,2.131,0,0,0,2.129,2.129h1.739a2.131,2.131,0,0,0,2.129-2.129V40.587a2.115,2.115,0,0,0-.385-1.217,2.115,2.115,0,0,0,.385-1.217V36.413a2.131,2.131,0,0,0-2.129-2.129h-1.739a2.131,2.131,0,0,0-2.129,2.129Z" transform="translate(-194.416 -30.136)"/>
    </g>
  </g>
</svg>
