<svg xmlns="http://www.w3.org/2000/svg" xmlns:xlink="http://www.w3.org/1999/xlink" width="110" height="110" viewBox="0 0 110 110">
  <defs>
    <filter id="Trazado_982547" x="0" y="0" width="110" height="110" filterUnits="userSpaceOnUse">
      <feOffset dy="3" input="SourceAlpha"/>
      <feGaussianBlur stdDeviation="3" result="blur"/>
      <feFlood flood-opacity="0.161"/>
      <feComposite operator="in" in2="blur"/>
      <feComposite in="SourceGraphic"/>
    </filter>
  </defs>
  <g id="Grupo_1203220" data-name="Grupo 1203220" transform="translate(-507 -8211.223)">
    <g id="Grupo_1202610" data-name="Grupo 1202610" transform="translate(516 8217.223)">
      <g id="Grupo_1175186" data-name="Grupo 1175186">
        <g id="Grupo_1164700" data-name="Grupo 1164700" transform="translate(0 0)">
          <g id="Grupo_1160931" data-name="Grupo 1160931" transform="translate(0 0)">
            <g id="Grupo_1160749" data-name="Grupo 1160749" transform="translate(0 0)">
              <g id="Grupo_1158891" data-name="Grupo 1158891">
                <g id="Grupo_1157406" data-name="Grupo 1157406">
                  <g id="Grupo_1155793" data-name="Grupo 1155793">
                    <g id="Grupo_1154704" data-name="Grupo 1154704">
                      <g id="Grupo_1150790" data-name="Grupo 1150790">
                        <g id="Grupo_1154214" data-name="Grupo 1154214">
                          <g id="Grupo_1152583" data-name="Grupo 1152583">
                            <g id="Grupo_1146973" data-name="Grupo 1146973">
                              <g id="Grupo_1146954" data-name="Grupo 1146954">
                                <g transform="matrix(1, 0, 0, 1, -9, -6)" filter="url(#Trazado_982547)">
                                  <g id="Trazado_982547-2" data-name="Trazado 982547" transform="translate(9 6)" fill="#effbfe">
                                    <path d="M 46.00000381469727 90.49986267089844 C 39.99188232421875 90.49986267089844 34.16428375244141 89.32350158691406 28.67905807495117 87.00344848632812 C 23.38021659851074 84.76223754882812 18.62104415893555 81.55341339111328 14.53376388549805 77.46613311767578 C 10.44647026062012 73.37885284423828 7.237643718719482 68.61968994140625 4.996417045593262 63.32085037231445 C 2.676363706588745 57.83565139770508 1.500003814697266 52.00805282592773 1.500003814697266 45.99993133544922 C 1.500003814697266 39.99182510375977 2.676363706588745 34.16422653198242 4.996417045593262 28.67901039123535 C 7.237643718719482 23.38017082214355 10.44647026062012 18.62101173400879 14.53376388549805 14.53373146057129 C 18.62104415893555 10.44645118713379 23.38021659851074 7.237624645233154 28.67905807495117 4.996411323547363 C 34.16428375244141 2.676357984542847 39.99188232421875 1.499997973442078 46.00000381469727 1.499997973442078 C 52.00812530517578 1.499997973442078 57.83573532104492 2.676357984542847 63.32094955444336 4.996411323547363 C 68.61980438232422 7.237624645233154 73.37896728515625 10.44645118713379 77.46625518798828 14.53373146057129 C 81.55353546142578 18.62101173400879 84.76236724853516 23.38017082214355 87.00359344482422 28.67901039123535 C 89.32364654541016 34.16422653198242 90.5 39.99182510375977 90.5 45.99993133544922 C 90.5 52.00805282592773 89.32364654541016 57.83565139770508 87.00359344482422 63.32085037231445 C 84.76236724853516 68.61968994140625 81.55353546142578 73.37885284423828 77.46625518798828 77.46613311767578 C 73.37896728515625 81.55341339111328 68.61980438232422 84.76223754882812 63.32094955444336 87.00344848632812 C 57.83573532104492 89.32350158691406 52.00812530517578 90.49986267089844 46.00000381469727 90.49986267089844 Z" stroke="none"/>
                                    <path d="M 46.00000381469727 3 C 40.19371795654297 3 34.56270217895508 4.136505126953125 29.26338958740234 6.377914428710938 C 24.14333343505859 8.54351806640625 19.54443359375 11.64438629150391 15.59442138671875 15.59439086914062 C 11.64440155029297 19.54440307617188 8.543533325195312 24.14330291748047 6.3779296875 29.26334381103516 C 4.136505126953125 34.56266021728516 3.000007629394531 40.19366073608398 3.000007629394531 45.99993133544922 C 3.000007629394531 51.80620193481445 4.136505126953125 57.43720245361328 6.3779296875 62.73651885986328 C 8.543533325195312 67.85655975341797 11.64440155029297 72.45545959472656 15.59442138671875 76.40547180175781 C 19.54443359375 80.35547637939453 24.14333343505859 83.45634460449219 29.26338958740234 85.6219482421875 C 34.56270217895508 87.86335754394531 40.19371795654297 88.99986267089844 46.00000381469727 88.99986267089844 C 51.80628967285156 88.99986267089844 57.43730545043945 87.86335754394531 62.73663330078125 85.6219482421875 C 67.85667419433594 83.45634460449219 72.45558929443359 80.35547637939453 76.40560150146484 76.40547180175781 C 80.35560607910156 72.45545959472656 83.45648956298828 67.85655975341797 85.62208557128906 62.73651885986328 C 87.86350250244141 57.43720245361328 89 51.80620193481445 89 45.99993133544922 C 89 40.19366073608398 87.86350250244141 34.56266021728516 85.62208557128906 29.26334381103516 C 83.45648956298828 24.14330291748047 80.35560607910156 19.54440307617188 76.40560150146484 15.59439086914062 C 72.45558929443359 11.64438629150391 67.85667419433594 8.54351806640625 62.73663330078125 6.377914428710938 C 57.43730545043945 4.136505126953125 51.80628967285156 3 46.00000381469727 3 M 46.00000381469727 0 C 71.40510559082031 0 92 20.59487152099609 92 45.99993133544922 C 92 71.40499114990234 71.40510559082031 91.99986267089844 46.00000381469727 91.99986267089844 C 20.59491729736328 91.99986267089844 7.62939453125e-06 71.40499114990234 7.62939453125e-06 45.99993133544922 C 7.62939453125e-06 20.59487152099609 20.59491729736328 0 46.00000381469727 0 Z" stroke="none" fill="#397b86"/>
                                  </g>
                                </g>
                              </g>
                            </g>
                          </g>
                        </g>
                      </g>
                    </g>
                  </g>
                </g>
              </g>
            </g>
          </g>
        </g>
      </g>
    </g>
    <g id="autoestima" transform="translate(473.783 8230.215)">
      <g id="Grupo_1203219" data-name="Grupo 1203219" transform="translate(64.923 37.913)">
        <path id="Trazado_1041937" data-name="Trazado 1041937" d="M72.3,315.9a2.472,2.472,0,0,1,1.215-3.284l4.833-2.221,2.426-5.223v4.109l5.14-2.362-.564-1.2a1.651,1.651,0,0,1,.812-2.205,1.687,1.687,0,0,1,2.231.8l.586,1.242,1.168-.539-6.594-6.549a6.59,6.59,0,0,1-1.957-4.431,2.682,2.682,0,0,0-2.272,1.539l-7.2,15.489c-1.37,2.946-.328,4.61.415,5.339a3.607,3.607,0,0,0,.468.385A2.462,2.462,0,0,1,72.3,315.9Z" transform="translate(-71.458 -294.045)" fill="#b3dafe"/>
        <path id="Trazado_1041938" data-name="Trazado 1041938" d="M165.394,415.2a1.55,1.55,0,0,1-1.851.437l-5.222-2.407c-.037,0-.074.005-.111.005s-.074,0-.111-.005l-5.222,2.407a1.55,1.55,0,0,1-1.851-.437l-7.291,3.351v5.535a.915.915,0,0,0,.916.914h27.117a.915.915,0,0,0,.916-.914v-5.535Z" transform="translate(-134.416 -397.86)" fill="#b3dafe"/>
        <path id="Trazado_1041939" data-name="Trazado 1041939" d="M313.591,311.072l-7.2-15.49a2.682,2.682,0,0,0-2.272-1.54,6.592,6.592,0,0,1-1.957,4.431l-6.594,6.549,1.168.539.586-1.242a1.687,1.687,0,0,1,2.231-.8,1.651,1.651,0,0,1,.812,2.205l-.564,1.2,5.139,2.362v-4.109l2.426,5.223,4.833,2.221a2.47,2.47,0,0,1,.509,4.181,3.622,3.622,0,0,0,.468-.386C313.919,315.682,314.961,314.018,313.591,311.072Z" transform="translate(-266.671 -294.043)" fill="#b3dafe"/>
      </g>
      <path id="Trazado_1041940" data-name="Trazado 1041940" d="M72.3,315.9a2.472,2.472,0,0,1,1.215-3.284L75,311.934a8.428,8.428,0,0,1,.346-.861l6.8-14.636a6.589,6.589,0,0,1-.554-2.393,2.682,2.682,0,0,0-2.272,1.539l-7.2,15.489c-1.37,2.946-.328,4.61.415,5.339a3.613,3.613,0,0,0,.468.386A2.463,2.463,0,0,1,72.3,315.9Z" transform="translate(-6.535 -256.131)" fill="#8ac9fe"/>
      <path id="Trazado_1041941" data-name="Trazado 1041941" d="M146.025,26.163h1.667v-3.3a.475.475,0,0,1,.157-.352.488.488,0,0,1,.327-.126l.041,0c.2.017.407.026.608.026h6.956a7.311,7.311,0,0,0,5.864-2.982.488.488,0,0,1,.783,0,7.311,7.311,0,0,0,5.864,2.982h.4a.481.481,0,0,1,.484.478v3.269h1.667a2.721,2.721,0,0,1,2.032.917V18.494A11.047,11.047,0,0,0,161.843,7.5h-6.818a11.046,11.046,0,0,0-11.033,10.994V27.08A2.719,2.719,0,0,1,146.025,26.163Z" transform="translate(-69.718 -6.533)" fill="#d78878"/>
      <path id="Trazado_1041942" data-name="Trazado 1041942" d="M333.437,201.831H331.77v.852a7.175,7.175,0,0,1-1.117,3.849h0a6.708,6.708,0,0,1,2.07,1.4,6.593,6.593,0,0,1,1.942,4.19,10.855,10.855,0,0,0,.8-4.1v-7.108a2.72,2.72,0,0,1-2.032.917Z" transform="translate(-232.31 -175.009)" fill="#d78878"/>
      <path id="Trazado_1041943" data-name="Trazado 1041943" d="M147.691,34.207V22.867a.475.475,0,0,1,.157-.352.488.488,0,0,1,.327-.126l.041,0c.1.008.192.014.288.018V18.494A11.046,11.046,0,0,1,159.537,7.5h-4.513a11.046,11.046,0,0,0-11.033,10.994V39.547a10.858,10.858,0,0,0,.8,4.1,6.59,6.59,0,0,1,1.942-4.19A6.725,6.725,0,0,1,148.5,38.2v-.669A7.165,7.165,0,0,1,147.691,34.207Z" transform="translate(-69.717 -6.533)" fill="#ca6e59"/>
      <path id="Trazado_1041944" data-name="Trazado 1041944" d="M143.023,152.248h-1.667a2.727,2.727,0,0,0-2.723,2.714v1.764a2.726,2.726,0,0,0,2.723,2.713h1.667Z" transform="translate(-65.049 -132.618)" fill="#fed2a4"/>
      <path id="Trazado_1041945" data-name="Trazado 1041945" d="M340.983,152.248h-1.667v7.191h1.667a2.727,2.727,0,0,0,2.723-2.713v-1.764A2.727,2.727,0,0,0,340.983,152.248Z" transform="translate(-239.857 -132.618)" fill="#fed2a4"/>
      <path id="Trazado_1041946" data-name="Trazado 1041946" d="M176.476,116.795a6.69,6.69,0,0,1,4.745,1.952l2,1.988h.408l2-1.988a6.753,6.753,0,0,1,7.42-1.4,7.175,7.175,0,0,0,1.117-3.849V102.184a.481.481,0,0,0-.484-.478h-.4a7.31,7.31,0,0,1-5.864-2.982.488.488,0,0,0-.783,0,7.311,7.311,0,0,1-5.864,2.982h-6.956c-.2,0-.406-.009-.608-.026l-.041,0a.488.488,0,0,0-.327.126.476.476,0,0,0-.157.352V113.5a7.175,7.175,0,0,0,1.117,3.849,6.73,6.73,0,0,1,2.675-.551Z" transform="translate(-94.709 -85.822)" fill="#fed2a4"/>
      <path id="Trazado_1041947" data-name="Trazado 1041947" d="M176.474,138.088a6.842,6.842,0,0,1,.91.062,7.172,7.172,0,0,1-.833-3.361v-11.34a.475.475,0,0,1,.157-.352.486.486,0,0,1,.169-.1h-3.061c-.2,0-.406-.009-.608-.026l-.041,0a.488.488,0,0,0-.327.126.476.476,0,0,0-.157.352v11.34a7.175,7.175,0,0,0,1.117,3.849A6.732,6.732,0,0,1,176.474,138.088Z" transform="translate(-94.708 -107.116)" fill="#ffbd86"/>
      <path id="Trazado_1041948" data-name="Trazado 1041948" d="M231.851,204.251a3.57,3.57,0,0,1-3.574-3.557.634.634,0,0,1,.637-.63h5.873a.634.634,0,0,1,.638.63A3.569,3.569,0,0,1,231.851,204.251Z" transform="translate(-143.134 -174.268)" fill="#fd8087"/>
      <path id="Trazado_1041949" data-name="Trazado 1041949" d="M230.856,200.694a.634.634,0,0,1,.637-.63h-2.579a.634.634,0,0,0-.637.63,3.575,3.575,0,0,0,4.864,3.316A3.562,3.562,0,0,1,230.856,200.694Z" transform="translate(-143.134 -174.268)" fill="#fe646f"/>
      <path id="Trazado_1041950" data-name="Trazado 1041950" d="M175.412,242.167a6.743,6.743,0,0,0-9.49,0l-2.206,2.191-2.206-2.191a6.743,6.743,0,0,0-9.49,0,6.629,6.629,0,0,0,0,9.42l6.594,6.549,2.734-1.26a1.545,1.545,0,0,1,2.037.733l.33.7.33-.7a1.546,1.546,0,0,1,2.037-.733l2.734,1.26,6.594-6.549a6.629,6.629,0,0,0,0-9.42Z" transform="translate(-74.999 -209.243)" fill="#fd4755"/>
      <path id="Trazado_1041951" data-name="Trazado 1041951" d="M161.35,256.9a1.541,1.541,0,0,1,1.088-.074l-6.549-6.5a6.629,6.629,0,0,1,0-9.42,6.8,6.8,0,0,1,.773-.66,6.689,6.689,0,0,0-4.641,1.949,6.629,6.629,0,0,0,0,9.42l6.594,6.549Z" transform="translate(-75 -209.262)" fill="#fb2b3a"/>
      <path id="Trazado_1041952" data-name="Trazado 1041952" d="M92.05,398.064,90.084,393.9l-12.4,5.7a2.476,2.476,0,0,0,2.077,4.5l12.472-5.732A1.5,1.5,0,0,1,92.05,398.064Z" transform="translate(-10.703 -343.11)" fill="#8ac9fe"/>
      <path id="Trazado_1041953" data-name="Trazado 1041953" d="M90.084,393.9l-12.4,5.7a2.476,2.476,0,0,0,1.424,4.693c-.021-.04-.042-.079-.061-.12a2.472,2.472,0,0,1,1.215-3.284l10.779-4.953Z" transform="translate(-10.702 -343.11)" fill="#60b7ff"/>
      <path id="Trazado_1041954" data-name="Trazado 1041954" d="M187.832,372.21a1.512,1.512,0,0,1-.741-2.013l.965-2.046-.33-.7a1.545,1.545,0,0,0-2.037-.733l-3.9,1.8-.586-1.242a1.687,1.687,0,0,0-2.231-.8,1.651,1.651,0,0,0-.812,2.205l2.53,5.362a1.546,1.546,0,0,0,2.037.733l5.333-2.458Z" transform="translate(-99.339 -319.084)" fill="#fed2a4"/>
      <path id="Trazado_1041955" data-name="Trazado 1041955" d="M326.268,399.6l-12.4-5.7-1.966,4.166a1.5,1.5,0,0,1-.186.3l12.472,5.732a2.476,2.476,0,1,0,2.077-4.5Z" transform="translate(-215.817 -343.111)" fill="#8ac9fe"/>
      <path id="Trazado_1041956" data-name="Trazado 1041956" d="M247.547,370.2l1.3-2.746a1.546,1.546,0,0,1,2.037-.733l3.9,1.8.586-1.242a1.688,1.688,0,0,1,2.231-.8,1.651,1.651,0,0,1,.812,2.205l-2.53,5.362a1.545,1.545,0,0,1-2.037.733l-5.557-2.561A1.512,1.512,0,0,1,247.547,370.2Z" transform="translate(-159.795 -319.084)" fill="#fed2a4"/>
      <path id="Trazado_1041957" data-name="Trazado 1041957" d="M251.3,373.026a1.512,1.512,0,0,1-.741-2.013l1.04-2.2-.715-.33a1.545,1.545,0,0,0-2.037.733l-1.3,2.746a1.512,1.512,0,0,0,.741,2.013l5.557,2.561a1.545,1.545,0,0,0,2.037-.733l.256-.543Z" transform="translate(-159.795 -320.846)" fill="#ffbd86"/>
      <path id="Trazado_1041958" data-name="Trazado 1041958" d="M112.72,54.534l-3.581-7.7a.967.967,0,0,0-1.754.815l3.581,7.7c.065.139.121.273.174.4-.092-.053-.187-.1-.286-.148h0l-4.51-2.073-2.276-4.9a.967.967,0,0,0-1.844.407v2.6l-2.881-1.324L99.491,50a2.618,2.618,0,0,0-1.282-3.5,2.651,2.651,0,0,0-.456-.16l3.342-3.319a7.56,7.56,0,0,0,2.092-3.851,1.678,1.678,0,0,1,.579.68l1.706,3.67a.967.967,0,0,0,1.754-.815l-1.706-3.671a3.627,3.627,0,0,0-2.131-1.9,11.867,11.867,0,0,0,.738-4.128V26.248a3.653,3.653,0,0,0,.691-2.14V22.344a3.654,3.654,0,0,0-.691-2.141v-2.8a.967.967,0,1,0-1.934,0V18.82a3.685,3.685,0,0,0-1.065-.157h-.7v-2.3a1.45,1.45,0,0,0-1.451-1.446h-.4a6.341,6.341,0,0,1-5.086-2.589,1.455,1.455,0,0,0-2.341,0,6.342,6.342,0,0,1-5.085,2.588H79.108c-.174,0-.351-.008-.521-.022a1.449,1.449,0,0,0-1.58,1.439v2.329h-.7a3.688,3.688,0,0,0-1.065.157V11.961A10.058,10.058,0,0,1,85.308,1.934h6.818a10.058,10.058,0,0,1,10.066,10.027v.889a.967.967,0,1,0,1.934,0v-.889A12,12,0,0,0,92.125,0H85.308a11.994,11.994,0,0,0-12,11.961V20.2a3.654,3.654,0,0,0-.691,2.141v1.764a3.653,3.653,0,0,0,.691,2.14v6.765a11.867,11.867,0,0,0,.738,4.128,3.626,3.626,0,0,0-2.131,1.9l-7.2,15.489a6.557,6.557,0,0,0-.655,4.105,4.523,4.523,0,0,0,1.872,2.828,3.458,3.458,0,0,0,2.092.708,3.423,3.423,0,0,0,1.441-.316l3.811-1.751v4.026a1.884,1.884,0,0,0,1.883,1.881H77.5a.967.967,0,0,0,0-1.934H75.209V59.22l6.161-2.831a2.534,2.534,0,0,0,1.372.406,2.5,2.5,0,0,0,1.047-.23l4.928-2.271,4.928,2.271a2.5,2.5,0,0,0,1.047.23,2.533,2.533,0,0,0,1.372-.406l6.16,2.831v4.862H82.1a.967.967,0,0,0,0,1.934h20.177a1.884,1.884,0,0,0,1.883-1.881V60.109l3.81,1.751a3.422,3.422,0,0,0,1.441.316,3.458,3.458,0,0,0,2.092-.709,4.524,4.524,0,0,0,1.872-2.828,6.557,6.557,0,0,0-.655-4.105ZM99.732,41.658l-6.118,6.076-2.125-.979a2.518,2.518,0,0,0-2.772.453,2.519,2.519,0,0,0-2.772-.453l-2.125.979L77.7,41.658a5.662,5.662,0,0,1,0-8.047,5.777,5.777,0,0,1,8.128,0L88.036,35.8a.967.967,0,0,0,1.363,0l2.206-2.19a5.776,5.776,0,0,1,8.127,0,5.662,5.662,0,0,1,0,8.048ZM75.259,33.586q-.017-.284-.017-.572V27.632a3.688,3.688,0,0,0,1.065.157h.7a8.127,8.127,0,0,0,.761,3.33,7.685,7.685,0,0,0-2.512,2.467Zm25.868-5.8a3.69,3.69,0,0,0,1.065-.157v5.382q0,.289-.017.573a7.688,7.688,0,0,0-2.512-2.468,8.126,8.126,0,0,0,.761-3.33Zm0-7.191a1.754,1.754,0,0,1,1.756,1.747v1.764a1.753,1.753,0,0,1-1.756,1.746h-.7V20.6h.7ZM78.942,16.848l.166,0h6.956a8.279,8.279,0,0,0,6.256-2.889,8.28,8.28,0,0,0,6.172,2.889V27.674a6.211,6.211,0,0,1-.595,2.657,7.748,7.748,0,0,0-2.229-.325,7.652,7.652,0,0,0-5.427,2.233l-1.525,1.514-1.525-1.514a7.651,7.651,0,0,0-5.426-2.233,7.747,7.747,0,0,0-2.23.325,6.209,6.209,0,0,1-.6-2.657ZM77.007,20.6v5.257h-.7a1.753,1.753,0,0,1-1.756-1.746V22.344A1.753,1.753,0,0,1,76.307,20.6h.7ZM73.668,39.86a1.679,1.679,0,0,1,.579-.68A7.558,7.558,0,0,0,76.34,43.03l3.342,3.319a2.649,2.649,0,0,0-.456.16,2.618,2.618,0,0,0-1.282,3.5l.147.312-2.881,1.324v-2.6a.967.967,0,0,0-1.844-.407l-2.276,4.9-4.51,2.072c-.1.045-.193.095-.286.148.053-.132.109-.266.174-.4ZM68.657,60.1a1.5,1.5,0,0,1-.633.139,1.521,1.521,0,0,1-1.378-.878,1.505,1.505,0,0,1,.741-2l11.528-5.3L80.2,54.8ZM82.98,54.808a.58.58,0,0,1-.758-.267l-2.53-5.362a.671.671,0,0,1-.024-.519.7.7,0,0,1,.366-.395.726.726,0,0,1,.305-.067.712.712,0,0,1,.647.4l.586,1.242a.967.967,0,0,0,1.279.465l3.9-1.8a.579.579,0,0,1,.758.267l.136.287L86.877,50.7a2.448,2.448,0,0,0-.086,1.895,2.508,2.508,0,0,0,.176.376Zm11.475,0L88.9,52.247a.551.551,0,0,1-.289-.314.53.53,0,0,1,.017-.408h0l1.3-2.747a.58.58,0,0,1,.757-.267l3.9,1.8a.967.967,0,0,0,1.279-.465l.586-1.243a.719.719,0,0,1,.952-.337.7.7,0,0,1,.366.395.671.671,0,0,1-.024.519l-2.53,5.362A.579.579,0,0,1,94.455,54.808ZM108.777,60.1,97.231,54.8l1.288-2.73,11.528,5.3h0a1.5,1.5,0,0,1,.741,2,1.521,1.521,0,0,1-1.378.878,1.5,1.5,0,0,1-.633-.139Z" transform="translate(0 0)"/>
      <path id="Trazado_1041959" data-name="Trazado 1041959" d="M208.253,145.184a.967.967,0,0,0,.967-.967v-1.991a.967.967,0,1,0-1.934,0v1.991A.967.967,0,0,0,208.253,145.184Z" transform="translate(-124.85 -123.046)"/>
      <path id="Trazado_1041960" data-name="Trazado 1041960" d="M290.679,145.184a.967.967,0,0,0,.967-.967v-1.991a.967.967,0,1,0-1.934,0v1.991A.967.967,0,0,0,290.679,145.184Z" transform="translate(-196.648 -123.046)"/>
      <path id="Trazado_1041961" data-name="Trazado 1041961" d="M225.319,198.685a4.538,4.538,0,0,0,4.542-4.524,1.6,1.6,0,0,0-1.6-1.6h-5.873a1.6,1.6,0,0,0-1.6,1.6A4.537,4.537,0,0,0,225.319,198.685ZM227.9,194.5a2.61,2.61,0,0,1-5.171,0Z" transform="translate(-136.602 -167.736)"/>
      <path id="Trazado_1041962" data-name="Trazado 1041962" d="M244.661,154.034H246.1a.967.967,0,0,0,0-1.934h-.855v-1.567a.967.967,0,1,0-1.934,0v2.148A1.355,1.355,0,0,0,244.661,154.034Z" transform="translate(-156.227 -130.281)"/>
      <path id="Trazado_1041963" data-name="Trazado 1041963" d="M212.735,291.889a.967.967,0,0,0-.967.967v1.28a.967.967,0,0,0,1.934,0v-1.28A.967.967,0,0,0,212.735,291.889Z" transform="translate(-128.754 -254.254)"/>
      <path id="Trazado_1041964" data-name="Trazado 1041964" d="M286.2,291.889a.967.967,0,0,0-.967.967v1.28a.967.967,0,0,0,1.934,0v-1.28A.967.967,0,0,0,286.2,291.889Z" transform="translate(-192.746 -254.254)"/>
      <path id="Trazado_1041965" data-name="Trazado 1041965" d="M236.656,317.517a.967.967,0,0,0-.967.967,1.259,1.259,0,1,1-2.518,0,.967.967,0,0,0-1.934,0,3.193,3.193,0,1,0,6.386,0A.967.967,0,0,0,236.656,317.517Z" transform="translate(-145.713 -276.578)"/>
      <path id="Trazado_1041966" data-name="Trazado 1041966" d="M91.1,266.446l-1.8,1.047a.967.967,0,1,0,.971,1.673l1.8-1.047a.967.967,0,1,0-.971-1.673Z" transform="translate(-21.657 -231.978)"/>
      <path id="Trazado_1041967" data-name="Trazado 1041967" d="M88.9,151.6l1.811,1.035a.967.967,0,1,0,.96-1.679l-1.811-1.035a.967.967,0,1,0-.96,1.679Z" transform="translate(-21.305 -130.481)"/>
      <path id="Trazado_1041968" data-name="Trazado 1041968" d="M72.838,213.7h2.088a.967.967,0,1,0,0-1.934H72.838a.967.967,0,1,0,0,1.934Z" transform="translate(-6.895 -184.462)"/>
      <path id="Trazado_1041969" data-name="Trazado 1041969" d="M394.669,268.118l1.8,1.047a.967.967,0,1,0,.971-1.673l-1.8-1.047a.967.967,0,1,0-.971,1.673Z" transform="translate(-287.653 -231.977)"/>
      <path id="Trazado_1041970" data-name="Trazado 1041970" d="M395.508,152.764a.962.962,0,0,0,.479-.128L397.8,151.6a.967.967,0,1,0-.96-1.679l-1.811,1.035a.967.967,0,0,0,.481,1.807Z" transform="translate(-287.96 -130.48)"/>
      <path id="Trazado_1041971" data-name="Trazado 1041971" d="M408.938,212.733a.967.967,0,0,0,.967.967h2.087a.967.967,0,1,0,0-1.934H409.9A.967.967,0,0,0,408.938,212.733Z" transform="translate(-300.502 -184.462)"/>
    </g>
  </g>
</svg>
