<svg xmlns="http://www.w3.org/2000/svg" xmlns:xlink="http://www.w3.org/1999/xlink" width="110" height="110" viewBox="0 0 110 110">
  <defs>
    <filter id="Trazado_982547" x="0" y="0" width="110" height="110" filterUnits="userSpaceOnUse">
      <feOffset dy="3" input="SourceAlpha"/>
      <feGaussianBlur stdDeviation="3" result="blur"/>
      <feFlood flood-opacity="0.161"/>
      <feComposite operator="in" in2="blur"/>
      <feComposite in="SourceGraphic"/>
    </filter>
  </defs>
  <g id="Grupo_1203212" data-name="Grupo 1203212" transform="translate(-796 -8191.863)">
    <g id="Grupo_1202606" data-name="Grupo 1202606" transform="translate(805 8197.863)">
      <g id="Grupo_1175185" data-name="Grupo 1175185">
        <g id="Grupo_1164700" data-name="Grupo 1164700" transform="translate(0 0)">
          <g id="Grupo_1160931" data-name="Grupo 1160931" transform="translate(0 0)">
            <g id="Grupo_1160749" data-name="Grupo 1160749" transform="translate(0 0)">
              <g id="Grupo_1158891" data-name="Grupo 1158891">
                <g id="Grupo_1157406" data-name="Grupo 1157406">
                  <g id="Grupo_1155793" data-name="Grupo 1155793">
                    <g id="Grupo_1154704" data-name="Grupo 1154704">
                      <g id="Grupo_1150790" data-name="Grupo 1150790">
                        <g id="Grupo_1154214" data-name="Grupo 1154214">
                          <g id="Grupo_1152583" data-name="Grupo 1152583">
                            <g id="Grupo_1146973" data-name="Grupo 1146973">
                              <g id="Grupo_1146954" data-name="Grupo 1146954">
                                <g transform="matrix(1, 0, 0, 1, -9, -6)" filter="url(#Trazado_982547)">
                                  <g id="Trazado_982547-2" data-name="Trazado 982547" transform="translate(9 6)" fill="#effbfe">
                                    <path d="M 46.00000381469727 90.49986267089844 C 39.99188232421875 90.49986267089844 34.16428375244141 89.32350158691406 28.67905807495117 87.00344848632812 C 23.38021659851074 84.76223754882812 18.62104415893555 81.55341339111328 14.53376388549805 77.46613311767578 C 10.44647026062012 73.37885284423828 7.237643718719482 68.61968994140625 4.996417045593262 63.32085037231445 C 2.676363706588745 57.83565139770508 1.500003814697266 52.00805282592773 1.500003814697266 45.99993133544922 C 1.500003814697266 39.99182510375977 2.676363706588745 34.16422653198242 4.996417045593262 28.67901039123535 C 7.237643718719482 23.38017082214355 10.44647026062012 18.62101173400879 14.53376388549805 14.53373146057129 C 18.62104415893555 10.44645118713379 23.38021659851074 7.237624645233154 28.67905807495117 4.996411323547363 C 34.16428375244141 2.676357984542847 39.99188232421875 1.499997973442078 46.00000381469727 1.499997973442078 C 52.00812530517578 1.499997973442078 57.83573532104492 2.676357984542847 63.32094955444336 4.996411323547363 C 68.61980438232422 7.237624645233154 73.37896728515625 10.44645118713379 77.46625518798828 14.53373146057129 C 81.55353546142578 18.62101173400879 84.76236724853516 23.38017082214355 87.00359344482422 28.67901039123535 C 89.32364654541016 34.16422653198242 90.5 39.99182510375977 90.5 45.99993133544922 C 90.5 52.00805282592773 89.32364654541016 57.83565139770508 87.00359344482422 63.32085037231445 C 84.76236724853516 68.61968994140625 81.55353546142578 73.37885284423828 77.46625518798828 77.46613311767578 C 73.37896728515625 81.55341339111328 68.61980438232422 84.76223754882812 63.32094955444336 87.00344848632812 C 57.83573532104492 89.32350158691406 52.00812530517578 90.49986267089844 46.00000381469727 90.49986267089844 Z" stroke="none"/>
                                    <path d="M 46.00000381469727 3 C 40.19371795654297 3 34.56270217895508 4.136505126953125 29.26338958740234 6.377914428710938 C 24.14333343505859 8.54351806640625 19.54443359375 11.64438629150391 15.59442138671875 15.59439086914062 C 11.64440155029297 19.54440307617188 8.543533325195312 24.14330291748047 6.3779296875 29.26334381103516 C 4.136505126953125 34.56266021728516 3.000007629394531 40.19366073608398 3.000007629394531 45.99993133544922 C 3.000007629394531 51.80620193481445 4.136505126953125 57.43720245361328 6.3779296875 62.73651885986328 C 8.543533325195312 67.85655975341797 11.64440155029297 72.45545959472656 15.59442138671875 76.40547180175781 C 19.54443359375 80.35547637939453 24.14333343505859 83.45634460449219 29.26338958740234 85.6219482421875 C 34.56270217895508 87.86335754394531 40.19371795654297 88.99986267089844 46.00000381469727 88.99986267089844 C 51.80628967285156 88.99986267089844 57.43730545043945 87.86335754394531 62.73663330078125 85.6219482421875 C 67.85667419433594 83.45634460449219 72.45558929443359 80.35547637939453 76.40560150146484 76.40547180175781 C 80.35560607910156 72.45545959472656 83.45648956298828 67.85655975341797 85.62208557128906 62.73651885986328 C 87.86350250244141 57.43720245361328 89 51.80620193481445 89 45.99993133544922 C 89 40.19366073608398 87.86350250244141 34.56266021728516 85.62208557128906 29.26334381103516 C 83.45648956298828 24.14330291748047 80.35560607910156 19.54440307617188 76.40560150146484 15.59439086914062 C 72.45558929443359 11.64438629150391 67.85667419433594 8.54351806640625 62.73663330078125 6.377914428710938 C 57.43730545043945 4.136505126953125 51.80628967285156 3 46.00000381469727 3 M 46.00000381469727 0 C 71.40510559082031 0 92 20.59487152099609 92 45.99993133544922 C 92 71.40499114990234 71.40510559082031 91.99986267089844 46.00000381469727 91.99986267089844 C 20.59491729736328 91.99986267089844 7.62939453125e-06 71.40499114990234 7.62939453125e-06 45.99993133544922 C 7.62939453125e-06 20.59487152099609 20.59491729736328 0 46.00000381469727 0 Z" stroke="none" fill="#397b86"/>
                                  </g>
                                </g>
                              </g>
                            </g>
                          </g>
                        </g>
                      </g>
                    </g>
                  </g>
                </g>
              </g>
            </g>
          </g>
        </g>
      </g>
    </g>
    <g id="libro-de-matematicas" transform="translate(821.938 8216.668)">
      <g id="Grupo_1203211" data-name="Grupo 1203211" transform="translate(0.872 0.873)">
        <path id="Trazado_1041898" data-name="Trazado 1041898" d="M37.347,168.213H60A4.663,4.663,0,0,0,64.94,163.5V133.137a3.48,3.48,0,0,0-3.473-3.469H11.032a3.48,3.48,0,0,0-3.473,3.469V163.5a4.663,4.663,0,0,0,4.937,4.715Zm0,0" transform="translate(-7.559 -115.567)" fill="#8ebfe8" fill-rule="evenodd"/>
        <path id="Trazado_1041899" data-name="Trazado 1041899" d="M256.016,127.228h24.3V94.523c0-1.738-.7-1.925-2.764-2.509a35.388,35.388,0,0,0-9.145-1.108c-6.457.18-10.514,1.046-12.394,2.135Zm0,0" transform="translate(-227.324 -81.281)" fill="#eceff1" fill-rule="evenodd"/>
        <path id="Trazado_1041900" data-name="Trazado 1041900" d="M69.839,127.228l3.39-18.825-3.39-15.362c-1.884-1.089-5.941-1.955-12.4-2.135A35.364,35.364,0,0,0,48.3,92.014c-2.065.583-2.764.77-2.764,2.508v32.706H69.839Zm0,0" transform="translate(-41.147 -81.281)" fill="#eceff1" fill-rule="evenodd"/>
        <path id="Trazado_1041901" data-name="Trazado 1041901" d="M47.33,391.136H69.838l1.342-1.344-1.342-.978c-3.831-2.217-16.672-3.5-24.307,0v.479a1.825,1.825,0,0,0,1.8,1.843Zm0,0" transform="translate(-41.146 -342.867)" fill="#90a4ae" fill-rule="evenodd"/>
        <path id="Trazado_1041902" data-name="Trazado 1041902" d="M280.319,388.813c-7.635-3.5-20.473-2.217-24.3,0v2.322h22.508a1.825,1.825,0,0,0,1.8-1.843Zm0,0" transform="translate(-227.324 -342.866)" fill="#90a4ae" fill-rule="evenodd"/>
        <path id="Trazado_1041903" data-name="Trazado 1041903" d="M100.69,7.622A9.875,9.875,0,1,1,98.343,26.7l-1.822,1.065c-1.208.705-3.046.663-3.02-1.462.276-.925.413-1.6.686-2.528a9.874,9.874,0,0,1,6.5-16.156Zm0,0" transform="translate(-82.144 -7.562)" fill="#f55a8e" fill-rule="evenodd"/>
        <path id="Trazado_1041904" data-name="Trazado 1041904" d="M206.652,33.238a9.877,9.877,0,0,1-2.088,15.445,11.464,11.464,0,0,1,2.088-15.445Zm0,0" transform="translate(-179.966 -30.273)" fill="#ba4583" fill-rule="evenodd"/>
        <path id="Trazado_1041905" data-name="Trazado 1041905" d="M238.354,13.067a11.476,11.476,0,1,0-.42,22.334l1.923,1.525c1.273,1.01,3.4,1.263,3.713-1.19-.164-1.108-.213-1.911-.378-3.02a11.47,11.47,0,0,0-4.838-19.649Zm0,0" transform="translate(-199.024 -12.112)" fill="#8bc34a" fill-rule="evenodd"/>
        <path id="Trazado_1041906" data-name="Trazado 1041906" d="M335.148,13.387A11.477,11.477,0,0,1,342.2,26.956a11.155,11.155,0,0,1-2.718,4.978c-.65.688-.755.446-.64,1.37.1.8.157,1.485.289,2.361a2.045,2.045,0,0,1-1.086,1.774l.111.088c1.273,1.01,3.4,1.263,3.712-1.19-.164-1.108-.213-1.911-.378-3.02a11.47,11.47,0,0,0-4.838-19.649,12.174,12.174,0,0,0-1.5-.282Zm0,0" transform="translate(-297.318 -12.714)" fill="#689f38" fill-rule="evenodd"/>
        <path id="Trazado_1041907" data-name="Trazado 1041907" d="M432.2,129.668v32.325a1.825,1.825,0,0,1-1.8,1.843h-2.679v4.377h3.922a4.663,4.663,0,0,0,4.937-4.715V133.137a3.48,3.48,0,0,0-3.473-3.469Zm0,0" transform="translate(-379.206 -115.567)" fill="#519ad6" fill-rule="evenodd"/>
        <path id="Trazado_1041908" data-name="Trazado 1041908" d="M432.2,394.443a21.59,21.59,0,0,0-4.474-1.436v3.758h2.679a1.825,1.825,0,0,0,1.8-1.843Zm0,0" transform="translate(-379.206 -348.496)" fill="#7c8c94" fill-rule="evenodd"/>
        <path id="Trazado_1041909" data-name="Trazado 1041909" d="M432.2,132.5V99.8c0-1.738-.7-1.925-2.764-2.509-.177-.052-.355-.1-.535-.148-.384-.1-.771-.19-1.175-.272v34.2A21.618,21.618,0,0,1,432.2,132.5Zm0,0" transform="translate(-379.206 -86.557)" fill="#c4cccf" fill-rule="evenodd"/>
      </g>
      <path id="Trazado_1041910" data-name="Trazado 1041910" d="M77.619,259.571a.866.866,0,0,0,.364-.08c4.561-2.1,12.236-1.257,14.339-.037a.873.873,0,1,0,.876-1.51,17.184,17.184,0,0,0-7.09-1.456,20.9,20.9,0,0,0-8.855,1.418.873.873,0,0,0,.365,1.666Zm0,0" transform="translate(-67.883 -226.854)"/>
      <path id="Trazado_1041911" data-name="Trazado 1041911" d="M77.619,315.027a.867.867,0,0,0,.364-.08c4.561-2.1,12.236-1.257,14.339-.038a.873.873,0,1,0,.876-1.51,17.183,17.183,0,0,0-7.09-1.456,20.9,20.9,0,0,0-8.855,1.418.873.873,0,0,0,.365,1.666Zm0,0" transform="translate(-67.883 -275.906)"/>
      <path id="Trazado_1041912" data-name="Trazado 1041912" d="M305.4,257.9a20.911,20.911,0,0,0-8.857-1.418,17.184,17.184,0,0,0-7.09,1.456.873.873,0,0,0,.876,1.51c2.1-1.22,9.78-2.059,14.343.038a.873.873,0,0,0,.729-1.586Zm0,0" transform="translate(-255.643 -226.853)"/>
      <path id="Trazado_1041913" data-name="Trazado 1041913" d="M305.4,313.362a20.91,20.91,0,0,0-8.857-1.418,17.184,17.184,0,0,0-7.09,1.456.873.873,0,0,0,.876,1.51c2.1-1.219,9.78-2.059,14.343.038a.873.873,0,1,0,.729-1.586Zm0,0" transform="translate(-255.643 -275.906)"/>
      <path id="Trazado_1041914" data-name="Trazado 1041914" d="M163.131,124.582a1.059,1.059,0,0,0-.814.364,1.253,1.253,0,0,0-.328.879,1.226,1.226,0,0,0,.341.918,1.118,1.118,0,0,0,.8.334,1.091,1.091,0,0,0,.788-.337,1.251,1.251,0,0,0,.338-.915,1.273,1.273,0,0,0-.322-.879A1.05,1.05,0,0,0,163.131,124.582Zm0,0" transform="translate(-143.282 -110.196)"/>
      <path id="Trazado_1041915" data-name="Trazado 1041915" d="M143.674,47.938c.568,0,.817-.4.886-.938a3.651,3.651,0,0,1,.656-1.167,1.219,1.219,0,0,1,.975-.367,1.233,1.233,0,0,1,.926.37,1.256,1.256,0,0,1,.358.912,1.144,1.144,0,0,1-.115.508,2.022,2.022,0,0,1-.3.443c-.19.213-.4.42-.607.623a11.067,11.067,0,0,0-.781.833,2.973,2.973,0,0,0-.479.843,3.152,3.152,0,0,0-.18,1.131,1.211,1.211,0,0,0,.269.843.909.909,0,0,0,.679.3c.561,0,.837-.364.922-.885.033-.167.069-.335.108-.5a1.581,1.581,0,0,1,.1-.265,1.474,1.474,0,0,1,.187-.3,3.639,3.639,0,0,1,.351-.39c.381-.383.768-.774,1.132-1.174a3.446,3.446,0,0,0,.568-.853,2.712,2.712,0,0,0,.243-1.171,3.024,3.024,0,0,0-1.608-2.689,3.676,3.676,0,0,0-1.766-.413,3.52,3.52,0,0,0-1.884.5,3.392,3.392,0,0,0-1.227,1.249,3.066,3.066,0,0,0-.424,1.5,1.079,1.079,0,0,0,.289.721A.923.923,0,0,0,143.674,47.938Zm0,0" transform="translate(-126.183 -38.591)"/>
      <path id="Trazado_1041916" data-name="Trazado 1041916" d="M258.893,79.589c.087.089.159.166.219.231a1.307,1.307,0,0,0,.933.536.989.989,0,0,0,.174-.016,1.176,1.176,0,0,0,.849-.858c.036-.085.079-.189.134-.31l2.541-5.606h7.141a.873.873,0,0,0,0-1.746h-7.7a.873.873,0,0,0-.795.512L259.8,78.026l-1.723-1.757a.873.873,0,1,0-1.246,1.222Zm0,0" transform="translate(-226.955 -63.527)"/>
      <path id="Trazado_1041917" data-name="Trazado 1041917" d="M329.973,105.591l.919-1a1,1,0,0,0,.272-.662.85.85,0,0,0-.276-.65.881.881,0,0,0-.657-.272.9.9,0,0,0-.719.354l-.706.882-.689-.879A.893.893,0,0,0,327.4,103a.956.956,0,0,0-.371.072,1.111,1.111,0,0,0-.289.184l0,0,0,.007a.89.89,0,0,0-.266.656.973.973,0,0,0,.276.665l.916,1-1.192,1.305a.829.829,0,0,0-.213.594.934.934,0,0,0,.939.941,1,1,0,0,0,.751-.416l.863-1.079.88,1.079a1,1,0,0,0,.751.416.941.941,0,0,0,.942-.941.863.863,0,0,0-.223-.594Zm0,0" transform="translate(-288.578 -91.109)"/>
      <path id="Trazado_1041918" data-name="Trazado 1041918" d="M54.78,14.1h-.04c-.005-2.375-1.341-2.753-3.361-3.324l-.035-.01c-.62-.177-1.248-.328-1.9-.459A12.367,12.367,0,0,0,28.859,3.986,10.761,10.761,0,0,0,9.745,10.3c-.676.132-1.324.287-1.962.47l-.038.011c-2.02.571-3.356.949-3.361,3.324h-.04A4.348,4.348,0,0,0,0,18.443V48.8a5.515,5.515,0,0,0,5.81,5.588h8.3a.873.873,0,1,0,0-1.745h-8.3A3.785,3.785,0,0,1,1.745,48.8V18.443a2.6,2.6,0,0,1,2.6-2.6h.04V47.3a2.7,2.7,0,0,0,2.671,2.716H28.691v2.632H18.236a.873.873,0,1,0,0,1.745H53.316a5.515,5.515,0,0,0,5.81-5.588V18.443A4.349,4.349,0,0,0,54.78,14.1ZM39.986,2.673h0a10.613,10.613,0,0,1,7.838,8.488c0,.017.005.033.009.05a10.612,10.612,0,0,1-3.375,9.615.874.874,0,0,0-.281.778c.08.539.131,1,.185,1.48.049.441.1.9.174,1.413-.086.532-.279.862-.575.982A1.954,1.954,0,0,1,42.248,25l-1.923-1.525a.869.869,0,0,0-.728-.169A10.634,10.634,0,0,1,30.2,20.781a.894.894,0,0,0-.085-.081,10.676,10.676,0,0,1-1.889-2.349A10.6,10.6,0,0,1,39.986,2.673ZM13.466,5.114a9.023,9.023,0,0,1,14.2.174A12.334,12.334,0,0,0,26.02,17.86a9.027,9.027,0,0,1-8.646,1.335.873.873,0,0,0-.743.065l-1.821,1.065a1.587,1.587,0,0,1-1.4.2.921.921,0,0,1-.31-.784c.127-.436.226-.822.323-1.2.1-.4.2-.77.327-1.208a.871.871,0,0,0-.169-.807,9,9,0,0,1-.118-11.413Zm-7.335,9c0-.784.167-.917.267-1a6.521,6.521,0,0,1,1.823-.663l.042-.012c.509-.147,1.025-.272,1.558-.382a10.683,10.683,0,0,0,2.132,5.221c-.08.291-.149.561-.217.826-.106.412-.206.8-.342,1.259a.869.869,0,0,0-.037.238,2.417,2.417,0,0,0,2.477,2.752,3.73,3.73,0,0,0,1.857-.525l1.475-.862a10.853,10.853,0,0,0,4.5.462,10.711,10.711,0,0,0,5.173-2.006,12.418,12.418,0,0,0,1.851,2.327v23.7A32.888,32.888,0,0,0,18.868,43.8,35.045,35.045,0,0,0,6.13,45.515ZM30.437,47.35c3.879-1.828,15.333-2.974,22.554.04a.944.944,0,0,1-.918.879H30.437Zm-24.3.04c7.221-3.015,18.678-1.868,22.557-.04v.919H7.056a.945.945,0,0,1-.922-.879ZM57.38,48.8a3.785,3.785,0,0,1-4.064,3.843H30.437V50.015H52.072A2.7,2.7,0,0,0,54.74,47.3V33a.873.873,0,1,0-1.745,0V45.515A35.028,35.028,0,0,0,40.259,43.8a32.881,32.881,0,0,0-9.822,1.653V23.182A12.382,12.382,0,0,0,34.3,24.909a12.22,12.22,0,0,0,5.259.188l1.607,1.273a4.025,4.025,0,0,0,2.446.914,2.67,2.67,0,0,0,1.01-.188,2.84,2.84,0,0,0,1.665-2.489.866.866,0,0,0,0-.239c-.079-.538-.13-.995-.184-1.478-.038-.346-.078-.7-.129-1.085A12.388,12.388,0,0,0,49.7,12.147c.4.09.784.189,1.167.3l.038.011a6.536,6.536,0,0,1,1.823.663c.1.078.267.211.267,1V28.88a.873.873,0,0,0,1.745,0V15.846h.04a2.6,2.6,0,0,1,2.6,2.6Zm0,0"/>
    </g>
  </g>
</svg>
