<svg xmlns="http://www.w3.org/2000/svg" xmlns:xlink="http://www.w3.org/1999/xlink" width="97.533" height="97.533" viewBox="0 0 97.533 97.533">
  <defs>
    <filter id="Trazado_982547" x="0" y="0" width="97.533" height="97.533" filterUnits="userSpaceOnUse">
      <feOffset dy="3" input="SourceAlpha"/>
      <feGaussianBlur stdDeviation="3" result="blur"/>
      <feFlood flood-opacity="0.161"/>
      <feComposite operator="in" in2="blur"/>
      <feComposite in="SourceGraphic"/>
    </filter>
  </defs>
  <g id="Grupo_1203258" data-name="Grupo 1203258" transform="translate(-172 -6557)">
    <g id="Grupo_1203058" data-name="Grupo 1203058" transform="translate(-19.467 -345.681)">
      <g id="Grupo_1202156" data-name="Grupo 1202156" transform="translate(-80.533 5497.679)">
        <g id="Grupo_1177900" data-name="Grupo 1177900" transform="translate(281 1411.003)">
          <g id="Grupo_1172010" data-name="Grupo 1172010" transform="translate(0)">
            <g id="Grupo_1171046" data-name="Grupo 1171046">
              <g id="Grupo_1148525" data-name="Grupo 1148525">
                <g transform="matrix(1, 0, 0, 1, -9, -6)" filter="url(#Trazado_982547)">
                  <g id="Trazado_982547-2" data-name="Trazado 982547" transform="translate(9 6)" fill="#fdfbec">
                    <path d="M 39.7666015625 78.033203125 C 34.59997940063477 78.033203125 29.58870124816895 77.02164459228516 24.87196731567383 75.02663421630859 C 20.31538963317871 73.099365234375 16.22284507751465 70.34000396728516 12.70802402496338 66.82518005371094 C 9.193202018737793 63.31035614013672 6.433835029602051 59.21781158447266 4.506568431854248 54.66123580932617 C 2.511557102203369 49.94449996948242 1.500001549720764 44.93322372436523 1.500001549720764 39.7666015625 C 1.500001549720764 34.59997940063477 2.511557102203369 29.58870124816895 4.506568431854248 24.87196731567383 C 6.433835029602051 20.31538963317871 9.193202018737793 16.22284507751465 12.70802402496338 12.70802402496338 C 16.22284507751465 9.193202018737793 20.31538963317871 6.433835029602051 24.87196731567383 4.506568431854248 C 29.58870124816895 2.511557102203369 34.59997940063477 1.500001549720764 39.7666015625 1.500001549720764 C 44.93322372436523 1.500001549720764 49.94449996948242 2.511557102203369 54.66123580932617 4.506568431854248 C 59.21781158447266 6.433835029602051 63.31035614013672 9.193202018737793 66.82518005371094 12.70802402496338 C 70.34000396728516 16.22284507751465 73.099365234375 20.31538963317871 75.02663421630859 24.87196731567383 C 77.02164459228516 29.58870124816895 78.033203125 34.59997940063477 78.033203125 39.7666015625 C 78.033203125 44.93322372436523 77.02164459228516 49.94449996948242 75.02663421630859 54.66123580932617 C 73.099365234375 59.21781158447266 70.34000396728516 63.31035614013672 66.82518005371094 66.82518005371094 C 63.31035614013672 70.34000396728516 59.21781158447266 73.099365234375 54.66123580932617 75.02663421630859 C 49.94449996948242 77.02164459228516 44.93322372436523 78.033203125 39.7666015625 78.033203125 Z" stroke="none"/>
                    <path d="M 39.7666015625 3 C 34.80181503295898 3 29.98714065551758 3.971687316894531 25.45630264282227 5.888076782226562 C 21.07851409912109 7.739715576171875 17.146240234375 10.39113616943359 13.76869201660156 13.76869201660156 C 10.39113616943359 17.146240234375 7.739715576171875 21.07851409912109 5.888076782226562 25.45630264282227 C 3.971687316894531 29.98714065551758 3 34.80181503295898 3 39.7666015625 C 3 44.73138809204102 3.971687316894531 49.54606628417969 5.888076782226562 54.076904296875 C 7.739715576171875 58.45468902587891 10.39113616943359 62.386962890625 13.76869201660156 65.76451110839844 C 17.146240234375 69.14206695556641 21.07851409912109 71.79348754882812 25.45630264282227 73.64512634277344 C 29.98714065551758 75.56151580810547 34.80181503295898 76.533203125 39.7666015625 76.533203125 C 44.73138809204102 76.533203125 49.54606628417969 75.56151580810547 54.076904296875 73.64512634277344 C 58.45468902587891 71.79348754882812 62.386962890625 69.14206695556641 65.76451110839844 65.76451110839844 C 69.14206695556641 62.386962890625 71.79348754882812 58.45468902587891 73.64512634277344 54.076904296875 C 75.56151580810547 49.54606628417969 76.533203125 44.73138809204102 76.533203125 39.7666015625 C 76.533203125 34.80181503295898 75.56151580810547 29.98714065551758 73.64512634277344 25.45630264282227 C 71.79348754882812 21.07851409912109 69.14206695556641 17.146240234375 65.76451110839844 13.76869201660156 C 62.386962890625 10.39113616943359 58.45468902587891 7.739715576171875 54.076904296875 5.888076782226562 C 49.54606628417969 3.971687316894531 44.73138809204102 3 39.7666015625 3 M 39.7666015625 0 C 61.72908782958984 0 79.533203125 17.80411529541016 79.533203125 39.7666015625 C 79.533203125 61.72908782958984 61.72908782958984 79.533203125 39.7666015625 79.533203125 C 17.80411529541016 79.533203125 0 61.72908782958984 0 39.7666015625 C 0 17.80411529541016 17.80411529541016 0 39.7666015625 0 Z" stroke="none" fill="#83793c"/>
                  </g>
                </g>
              </g>
            </g>
          </g>
        </g>
      </g>
    </g>
    <g id="aprender-en-linea_6_" data-name="aprender-en-linea (6)" transform="translate(149.539 6545.386)">
      <g id="Grupo_1203257" data-name="Grupo 1203257" transform="translate(47.404 32.662)">
        <g id="Grupo_1203254" data-name="Grupo 1203254" transform="translate(0 7.588)">
          <path id="Trazado_1042947" data-name="Trazado 1042947" d="M192.66,368.57h14.929v8.5H192.66Z" transform="translate(-176.374 -337.495)" fill="#a79ba7" fill-rule="evenodd"/>
          <path id="Trazado_1042948" data-name="Trazado 1042948" d="M309.515,368.57h1.158v8.5h-1.158Z" transform="translate(-279.457 -337.495)" fill="#837683" fill-rule="evenodd"/>
          <path id="Trazado_1042949" data-name="Trazado 1042949" d="M119.07,434.239h32.274v-2.488c0-1.368-1.4-2.488-3.114-2.488H122.184c-1.713,0-3.114,1.12-3.114,2.488Z" transform="translate(-111.456 -391.036)" fill="#eceff1" fill-rule="evenodd"/>
          <path id="Trazado_1042950" data-name="Trazado 1042950" d="M119.07,437.943h32.274v-2.488a2.371,2.371,0,0,0-1.256-1.993,2.054,2.054,0,0,1,.266,1v2.488H119.07Z" transform="translate(-111.456 -394.739)" fill="#d1d1d6" fill-rule="evenodd"/>
          <path id="Trazado_1042951" data-name="Trazado 1042951" d="M58.116,104.889h40.2a3.662,3.662,0,0,1,3.652,3.652v25.122a3.662,3.662,0,0,1-3.652,3.652h-40.2a3.663,3.663,0,0,1-3.652-3.652V108.541A3.663,3.663,0,0,1,58.116,104.889Z" transform="translate(-54.464 -104.889)" fill="#eceff1" fill-rule="evenodd"/>
          <path id="Trazado_1042952" data-name="Trazado 1042952" d="M105.032,110.193a3.656,3.656,0,0,1,1.615,3.027v25.122a3.662,3.662,0,0,1-3.652,3.652H62.8a3.656,3.656,0,0,1-3.026-1.615,3.625,3.625,0,0,0,2.037.625H102a3.662,3.662,0,0,0,3.652-3.652V112.23A3.625,3.625,0,0,0,105.032,110.193Z" transform="translate(-59.145 -109.568)" fill="#d1d1d6" fill-rule="evenodd"/>
          <path id="Trazado_1042953" data-name="Trazado 1042953" d="M80.883,130.8h40.381a.508.508,0,0,1,.507.506v22.741H80.377V131.307A.508.508,0,0,1,80.883,130.8Z" transform="translate(-77.323 -127.747)" fill="#d8ecfe" fill-rule="evenodd"/>
          <path id="Trazado_1042954" data-name="Trazado 1042954" d="M410.531,130.8h1.979a.508.508,0,0,1,.507.507v22.741h-1.979V131.307A.508.508,0,0,0,410.531,130.8Z" transform="translate(-368.569 -127.746)" fill="#c4e2ff" fill-rule="evenodd"/>
        </g>
        <g id="Grupo_1203255" data-name="Grupo 1203255" transform="translate(17.593 21.034)">
          <path id="Trazado_1042955" data-name="Trazado 1042955" d="M209.9,218.984l6.158,3.555v7.111l-6.158,3.555-6.158-3.555v-7.111Z" transform="translate(-203.747 -218.984)" fill="#ffd064" fill-rule="evenodd"/>
          <path id="Trazado_1042956" data-name="Trazado 1042956" d="M256,259.818v-7.111l6.158-3.555v7.111Z" transform="translate(-249.842 -245.597)" fill="#ffe177" fill-rule="evenodd"/>
          <path id="Trazado_1042957" data-name="Trazado 1042957" d="M203.747,222.539l6.158,3.555,6.158-3.555-6.158-3.555Z" transform="translate(-203.747 -218.984)" fill="#ffc338" fill-rule="evenodd"/>
        </g>
        <g id="Grupo_1203256" data-name="Grupo 1203256" transform="translate(6.673 0)">
          <path id="Trazado_1042958" data-name="Trazado 1042958" d="M161.292,73.511l11.687.288a.374.374,0,0,1,.365.374V85.1a.371.371,0,0,1-.307.368c-13.922,2.557-9.586,2.557-23.508,0a.371.371,0,0,1-.307-.368V74.173a.374.374,0,0,1,.365-.374l11.687-.288h.018Z" transform="translate(-144.728 -69.621)" fill="#837683" fill-rule="evenodd"/>
          <path id="Trazado_1042959" data-name="Trazado 1042959" d="M173.344,86.384v.7a.371.371,0,0,1-.307.368c-13.922,2.557-9.586,2.557-23.508,0a.371.371,0,0,1-.307-.368V76.164a.374.374,0,0,1,.365-.374l.882-.022V85.843a.371.371,0,0,0,.307.368C164.374,88.708,160.558,88.766,173.344,86.384Z" transform="translate(-144.728 -71.612)" fill="#685e68" fill-rule="evenodd"/>
          <path id="Trazado_1042960" data-name="Trazado 1042960" d="M127.736,40.514l16.181,4.3a.374.374,0,0,1,0,.723l-16.181,4.3a.359.359,0,0,1-.192,0l-16.181-4.3a.374.374,0,0,1,0-.723l16.181-4.3A.355.355,0,0,1,127.736,40.514Z" transform="translate(-111.085 -40.5)" fill="#837683" fill-rule="evenodd"/>
          <path id="Trazado_1042961" data-name="Trazado 1042961" d="M142.931,74.861l.986.262a.374.374,0,0,1,0,.723l-16.181,4.3a.359.359,0,0,1-.192,0l-16.181-4.3a.374.374,0,0,1,0-.723l.986-.262,15.2,4.036a.359.359,0,0,0,.192,0Z" transform="translate(-111.085 -70.812)" fill="#685e68" fill-rule="evenodd"/>
          <path id="Trazado_1042962" data-name="Trazado 1042962" d="M368.721,147.367l1.653.955a.365.365,0,0,1,.187.324v5.219a.374.374,0,0,1-.6.3l-1.2-.905a.369.369,0,0,0-.45,0l-1.2.905a.374.374,0,0,1-.6-.3v-5.219a.366.366,0,0,1,.187-.324l1.653-.955A.365.365,0,0,1,368.721,147.367Z" transform="translate(-336.406 -134.728)" fill="#ffe177" fill-rule="evenodd"/>
          <path id="Trazado_1042963" data-name="Trazado 1042963" d="M369.264,147.081l1.582.987a.375.375,0,0,1,.187.324v5.219a.374.374,0,0,1-.6.3l-.118-.089a.372.372,0,0,0,.063-.21v-5.219a.376.376,0,0,0-.187-.324l-1.442-.906.14-.081A.357.357,0,0,1,369.264,147.081ZM368.781,153l-.1-.077a.37.37,0,0,0-.45,0l-1.188.893a.284.284,0,0,0,.144.124.414.414,0,0,0,.392-.036Z" transform="translate(-336.877 -134.474)" fill="#ffd064" fill-rule="evenodd"/>
        </g>
      </g>
      <path id="Trazado_1042964" data-name="Trazado 1042964" d="M71.155,54.89l4.272,2.467-4.272,2.466-4.272-2.466Zm.943,11.5,4.272-2.466V58.989L72.1,61.456Zm-6.157-7.4v4.933l4.272,2.466V61.456Zm4.743,9.849a.944.944,0,0,0,.713.094.228.228,0,0,0,.022-.007c.032-.009.063-.019.094-.032l.022-.011a.97.97,0,0,0,.089-.044h0l6.157-3.556a.942.942,0,0,0,.471-.817v-7.11a.981.981,0,0,0-.007-.114c0-.01,0-.02,0-.03a.855.855,0,0,0-.018-.086.161.161,0,0,0-.007-.027.919.919,0,0,0-.086-.208.194.194,0,0,0-.013-.021.732.732,0,0,0-.048-.073l-.018-.024c-.022-.027-.045-.054-.069-.079l0,0a1.051,1.051,0,0,0-.084-.073l-.023-.018c-.025-.018-.049-.035-.075-.05l-.014-.009-6.157-3.555a.945.945,0,0,0-.943,0L64.526,56.54l-.014.009c-.026.016-.05.032-.075.05l-.023.018a1.064,1.064,0,0,0-.084.073l0,0c-.025.025-.047.052-.07.079l-.018.024c-.017.023-.033.048-.048.073a.208.208,0,0,0-.013.021.919.919,0,0,0-.086.208.217.217,0,0,0-.007.027c-.007.028-.013.057-.018.086,0,.01,0,.02,0,.03a.866.866,0,0,0-.007.114v7.11a.942.942,0,0,0,.471.817ZM70.7,33.533l12.953,3.441L70.7,40.414,57.75,36.974ZM81.128,46.667V39.6L70.944,42.3a.94.94,0,0,1-.483,0L60.277,39.6v7.071c1.6.3,2.946.556,4.059.771,6.367,1.231,6.367,1.231,12.735,0C78.183,47.223,79.528,46.963,81.128,46.667ZM87.291,50.6l-.4-.3a.943.943,0,0,0-1.134,0l-.4.3V47.2l.969-.559.969.559v3.4ZM53.835,37.885a.943.943,0,0,1,0-1.822l16.626-4.416a.938.938,0,0,1,.483,0L87.57,36.063a.943.943,0,0,1,0,1.822l-.3.08v7.046l1.44.831a.944.944,0,0,1,.471.816v5.829a.943.943,0,0,1-1.509.754l-1.345-1.011-1.344,1.011a.943.943,0,0,1-1.51-.754V46.66a.945.945,0,0,1,.471-.816l1.44-.831V38.467l-2.366.628v8.356a.943.943,0,0,1-.773.928c-1.934.353-3.53.662-4.812.91a36.677,36.677,0,0,1-6.726.966,36.671,36.671,0,0,1-6.725-.966c-1.282-.248-2.878-.556-4.812-.91a.944.944,0,0,1-.774-.928V39.1ZM51.4,44.351V65.686H63.557a.943.943,0,1,1,0,1.885h-13.1a.942.942,0,0,1-.943-.942V43.915a1.45,1.45,0,0,1,1.448-1.449h5.778a.943.943,0,1,1,0,1.886H51.4ZM77.81,66.629a.942.942,0,0,1,.943-.943H90.91V44.351H88.915a.943.943,0,0,1,0-1.886h2.431A1.451,1.451,0,0,1,92.8,43.915V66.629a.943.943,0,0,1-.943.942h-13.1A.942.942,0,0,1,77.81,66.629Zm-.133,11.01H64.633V73.723H77.677Zm8.673,3.431v1.546H55.961V81.071c0-.838.995-1.545,2.171-1.545H84.179C85.354,79.525,86.349,80.232,86.349,81.071Zm4.905-41.659H88.915a.943.943,0,0,0,0,1.886h2.339a2.712,2.712,0,0,1,2.709,2.709V69.128a2.712,2.712,0,0,1-2.709,2.709h-40.2a2.711,2.711,0,0,1-2.709-2.709V44.007A2.712,2.712,0,0,1,51.056,41.3h5.651a.943.943,0,1,0,0-1.886H51.056a4.6,4.6,0,0,0-4.6,4.6V69.128a4.6,4.6,0,0,0,4.6,4.6H62.748V77.64H58.131c-2.236,0-4.056,1.539-4.056,3.431v2.489a.943.943,0,0,0,.943.943H87.292a.944.944,0,0,0,.943-.943V81.071c0-1.892-1.82-3.431-4.056-3.431H79.562V73.723H91.254a4.6,4.6,0,0,0,4.594-4.6V44.007a4.6,4.6,0,0,0-4.594-4.595Z" transform="translate(0 0)" fill="#242222" fill-rule="evenodd"/>
    </g>
  </g>
</svg>
