<svg xmlns="http://www.w3.org/2000/svg" xmlns:xlink="http://www.w3.org/1999/xlink" width="97.533" height="97.533" viewBox="0 0 97.533 97.533">
  <defs>
    <filter id="Trazado_982547" x="0" y="0" width="97.533" height="97.533" filterUnits="userSpaceOnUse">
      <feOffset dy="3" input="SourceAlpha"/>
      <feGaussianBlur stdDeviation="3" result="blur"/>
      <feFlood flood-opacity="0.161"/>
      <feComposite operator="in" in2="blur"/>
      <feComposite in="SourceGraphic"/>
    </filter>
  </defs>
  <g id="Grupo_1203259" data-name="Grupo 1203259" transform="translate(-490.467 -6557.471)">
    <g id="Grupo_1203056" data-name="Grupo 1203056" transform="translate(218.467 5152.468)">
      <g id="Grupo_1177900" data-name="Grupo 1177900" transform="translate(281 1411.003)">
        <g id="Grupo_1172010" data-name="Grupo 1172010" transform="translate(0)">
          <g id="Grupo_1171046" data-name="Grupo 1171046">
            <g id="Grupo_1148525" data-name="Grupo 1148525">
              <g transform="matrix(1, 0, 0, 1, -9, -6)" filter="url(#Trazado_982547)">
                <g id="Trazado_982547-2" data-name="Trazado 982547" transform="translate(9 6)" fill="#fdfbec">
                  <path d="M 39.7666015625 78.033203125 C 34.59997940063477 78.033203125 29.58870124816895 77.02164459228516 24.87196731567383 75.02663421630859 C 20.31538963317871 73.099365234375 16.22284507751465 70.34000396728516 12.70802402496338 66.82518005371094 C 9.193202018737793 63.31035614013672 6.433835029602051 59.21781158447266 4.506568431854248 54.66123580932617 C 2.511557102203369 49.94449996948242 1.500001549720764 44.93322372436523 1.500001549720764 39.7666015625 C 1.500001549720764 34.59997940063477 2.511557102203369 29.58870124816895 4.506568431854248 24.87196731567383 C 6.433835029602051 20.31538963317871 9.193202018737793 16.22284507751465 12.70802402496338 12.70802402496338 C 16.22284507751465 9.193202018737793 20.31538963317871 6.433835029602051 24.87196731567383 4.506568431854248 C 29.58870124816895 2.511557102203369 34.59997940063477 1.500001549720764 39.7666015625 1.500001549720764 C 44.93322372436523 1.500001549720764 49.94449996948242 2.511557102203369 54.66123580932617 4.506568431854248 C 59.21781158447266 6.433835029602051 63.31035614013672 9.193202018737793 66.82518005371094 12.70802402496338 C 70.34000396728516 16.22284507751465 73.099365234375 20.31538963317871 75.02663421630859 24.87196731567383 C 77.02164459228516 29.58870124816895 78.033203125 34.59997940063477 78.033203125 39.7666015625 C 78.033203125 44.93322372436523 77.02164459228516 49.94449996948242 75.02663421630859 54.66123580932617 C 73.099365234375 59.21781158447266 70.34000396728516 63.31035614013672 66.82518005371094 66.82518005371094 C 63.31035614013672 70.34000396728516 59.21781158447266 73.099365234375 54.66123580932617 75.02663421630859 C 49.94449996948242 77.02164459228516 44.93322372436523 78.033203125 39.7666015625 78.033203125 Z" stroke="none"/>
                  <path d="M 39.7666015625 3 C 34.80181503295898 3 29.98714065551758 3.971687316894531 25.45630264282227 5.888076782226562 C 21.07851409912109 7.739715576171875 17.146240234375 10.39113616943359 13.76869201660156 13.76869201660156 C 10.39113616943359 17.146240234375 7.739715576171875 21.07851409912109 5.888076782226562 25.45630264282227 C 3.971687316894531 29.98714065551758 3 34.80181503295898 3 39.7666015625 C 3 44.73138809204102 3.971687316894531 49.54606628417969 5.888076782226562 54.076904296875 C 7.739715576171875 58.45468902587891 10.39113616943359 62.386962890625 13.76869201660156 65.76451110839844 C 17.146240234375 69.14206695556641 21.07851409912109 71.79348754882812 25.45630264282227 73.64512634277344 C 29.98714065551758 75.56151580810547 34.80181503295898 76.533203125 39.7666015625 76.533203125 C 44.73138809204102 76.533203125 49.54606628417969 75.56151580810547 54.076904296875 73.64512634277344 C 58.45468902587891 71.79348754882812 62.386962890625 69.14206695556641 65.76451110839844 65.76451110839844 C 69.14206695556641 62.386962890625 71.79348754882812 58.45468902587891 73.64512634277344 54.076904296875 C 75.56151580810547 49.54606628417969 76.533203125 44.73138809204102 76.533203125 39.7666015625 C 76.533203125 34.80181503295898 75.56151580810547 29.98714065551758 73.64512634277344 25.45630264282227 C 71.79348754882812 21.07851409912109 69.14206695556641 17.146240234375 65.76451110839844 13.76869201660156 C 62.386962890625 10.39113616943359 58.45468902587891 7.739715576171875 54.076904296875 5.888076782226562 C 49.54606628417969 3.971687316894531 44.73138809204102 3 39.7666015625 3 M 39.7666015625 0 C 61.72908782958984 0 79.533203125 17.80411529541016 79.533203125 39.7666015625 C 79.533203125 61.72908782958984 61.72908782958984 79.533203125 39.7666015625 79.533203125 C 17.80411529541016 79.533203125 0 61.72908782958984 0 39.7666015625 C 0 17.80411529541016 17.80411529541016 0 39.7666015625 0 Z" stroke="none" fill="#83793c"/>
                </g>
              </g>
            </g>
          </g>
        </g>
      </g>
    </g>
    <g id="idea-inovation-thinking-vision-creativity" transform="translate(511.91 6571.867)">
      <path id="Trazado_1042965" data-name="Trazado 1042965" d="M54.06,38.962a2.832,2.832,0,0,1,2.4,1.555,2.869,2.869,0,0,1-1.249,3.853L38.9,52.649A26.707,26.707,0,0,0,29.366,60.8l-20.2-.2,3.3-5.732a6.41,6.41,0,0,0-.429-7.039L6.98,41.089A3.115,3.115,0,0,1,11.6,36.939l3.577,3.338a10.373,10.373,0,0,0,11.77,1.65l10.53-5.37a2.854,2.854,0,0,1,3.853,1.259l1.86-.954a2.876,2.876,0,0,1,3.853,1.249l1.86-.954a2.906,2.906,0,0,1,1.45-.305,2.861,2.861,0,0,1,2.4,1.564A2.957,2.957,0,0,1,53,39.1a2.9,2.9,0,0,1,1.059-.143Z" transform="translate(-0.046 -1.621)" fill="#ffd199"/>
      <path id="Trazado_1042966" data-name="Trazado 1042966" d="M22.88,30h7.869a6.963,6.963,0,0,0-.124,1.335v2.48a1.913,1.913,0,0,1-1.908,1.908H24.9a1.913,1.913,0,0,1-1.908-1.908v-2.47A7.917,7.917,0,0,0,22.88,30Z" transform="translate(-0.809 -1.339)" fill="#cc7400"/>
      <path id="Trazado_1042967" data-name="Trazado 1042967" d="M36.076,17.538a9.533,9.533,0,0,1-3.2,7.125,7.474,7.474,0,0,0-2.4,4.321H22.608a7.139,7.139,0,0,0-2.327-4.244,9.538,9.538,0,1,1,15.8-7.2Z" transform="translate(-0.538 -0.323)" fill="#ff9811"/>
      <path id="Trazado_1042968" data-name="Trazado 1042968" d="M57.268,40.039a3.775,3.775,0,0,0-3.2-2.077,3.66,3.66,0,0,0-.491.02c-.008-.015-.01-.031-.018-.047a3.824,3.824,0,0,0-5.134-1.669l-1.122.572a3.828,3.828,0,0,0-4.593-.873l-1.135.58A3.779,3.779,0,0,0,37,35.666L26.46,41.033a9.433,9.433,0,0,1-10.683-1.5L12.2,36.193a4.069,4.069,0,0,0-6.03,5.417l5.062,6.751a5.437,5.437,0,0,1,.362,5.985l-3.3,5.736,1.654.954,3.3-5.733a7.344,7.344,0,0,0-.49-8.082L7.7,40.471a2.162,2.162,0,0,1,1.648-3.463,2.2,2.2,0,0,1,1.55.58l3.579,3.338a11.35,11.35,0,0,0,12.851,1.8l10.535-5.368a1.908,1.908,0,1,1,1.731,3.4l-9.865,5.026.866,1.7,9.865-5.027a3.777,3.777,0,0,0,1.98-4.214l1.135-.58a1.908,1.908,0,1,1,1.73,3.4L33.75,46.957l.866,1.7,11.556-5.889a3.774,3.774,0,0,0,1.984-4.224l1.132-.578a1.909,1.909,0,0,1,1.733,3.4L39.464,47.256l.866,1.7,11.557-5.889a3.714,3.714,0,0,0,2.068-3.2h.011a1.908,1.908,0,0,1,.763,3.606l-16.3,8.277A27.785,27.785,0,0,0,28.548,60.2l1.546,1.118a25.86,25.86,0,0,1,9.2-7.863l16.3-8.281a3.815,3.815,0,0,0,1.67-5.133Z" transform="translate(0 -1.575)"/>
      <path id="Trazado_1042969" data-name="Trazado 1042969" d="M16.1,16.007a10.509,10.509,0,0,0,3.511,9.4,6.046,6.046,0,0,1,1.717,2.575H19.815v1.908H21.7c.007.129.019.257.019.387v2.474a2.861,2.861,0,0,0,2.861,2.861H28.4a2.861,2.861,0,0,0,2.861-2.861v-2.48c0-.129.013-.257.02-.382h1.888V27.984H31.674a6.566,6.566,0,0,1,1.792-2.659,10.492,10.492,0,1,0-17.359-9.317ZM29.353,30.273v2.48a.954.954,0,0,1-.954.954H24.584a.954.954,0,0,1-.954-.954V30.278c0-.131-.014-.258-.02-.387h5.763c-.006.128-.02.256-.02.382ZM25.509,8.963a8.95,8.95,0,0,1,.994-.055,8.481,8.481,0,0,1,5.711,2.187A8.578,8.578,0,0,1,32.2,23.9a8.489,8.489,0,0,0-2.521,4.084H23.32a8.024,8.024,0,0,0-2.456-4.015A8.58,8.58,0,0,1,25.509,8.963Z" transform="translate(-0.491 -0.277)"/>
      <path id="Trazado_1042970" data-name="Trazado 1042970" d="M25.861,21.68v3h1.908v-3A3.815,3.815,0,0,0,30.631,18H28.723a1.908,1.908,0,0,1-3.815,0H23a3.815,3.815,0,0,0,2.861,3.68Z" transform="translate(-0.815 -0.785)"/>
      <path id="Trazado_1042971" data-name="Trazado 1042971" d="M26,1h1.908V4.815H26Z" transform="translate(-0.953)"/>
      <path id="Trazado_1042972" data-name="Trazado 1042972" d="M0,0H1.908V3.815H0Z" transform="matrix(0.866, -0.5, 0.5, 0.866, 17.066, 3.649)"/>
      <path id="Trazado_1042973" data-name="Trazado 1042973" d="M0,0H1.908V3.815H0Z" transform="matrix(0.5, -0.866, 0.866, 0.5, 11.48, 9.934)"/>
      <path id="Trazado_1042974" data-name="Trazado 1042974" d="M10,17h3.815v1.908H10Z" transform="translate(-0.214 -0.739)"/>
      <path id="Trazado_1042975" data-name="Trazado 1042975" d="M0,0H3.815V1.908H0Z" transform="matrix(0.866, -0.5, 0.5, 0.866, 11.481, 24.494)"/>
      <path id="Trazado_1042976" data-name="Trazado 1042976" d="M0,0H1.908V3.815H0Z" transform="matrix(0.5, -0.866, 0.866, 0.5, 36.261, 24.24)"/>
      <path id="Trazado_1042977" data-name="Trazado 1042977" d="M40,17h3.815v1.908H40Z" transform="translate(-1.6 -0.739)"/>
      <path id="Trazado_1042978" data-name="Trazado 1042978" d="M0,0H3.815V1.908H0Z" transform="matrix(0.866, -0.5, 0.5, 0.866, 36.261, 10.185)"/>
      <path id="Trazado_1042979" data-name="Trazado 1042979" d="M0,0H3.815V1.908H0Z" transform="matrix(0.5, -0.866, 0.866, 0.5, 31.376, 6.002)"/>
    </g>
  </g>
</svg>
