<svg xmlns="http://www.w3.org/2000/svg" xmlns:xlink="http://www.w3.org/1999/xlink" width="97.533" height="97.533" viewBox="0 0 97.533 97.533">
  <defs>
    <filter id="Trazado_982547" x="0" y="0" width="97.533" height="97.533" filterUnits="userSpaceOnUse">
      <feOffset dy="3" input="SourceAlpha"/>
      <feGaussianBlur stdDeviation="3" result="blur"/>
      <feFlood flood-opacity="0.161"/>
      <feComposite operator="in" in2="blur"/>
      <feComposite in="SourceGraphic"/>
    </filter>
  </defs>
  <g id="Grupo_1203266" data-name="Grupo 1203266" transform="translate(-803.467 -6557.471)">
    <g id="Grupo_1203057" data-name="Grupo 1203057" transform="translate(531.467 5152.468)">
      <g id="Grupo_1177900" data-name="Grupo 1177900" transform="translate(281 1411.003)">
        <g id="Grupo_1172010" data-name="Grupo 1172010" transform="translate(0)">
          <g id="Grupo_1171046" data-name="Grupo 1171046">
            <g id="Grupo_1148525" data-name="Grupo 1148525">
              <g transform="matrix(1, 0, 0, 1, -9, -6)" filter="url(#Trazado_982547)">
                <g id="Trazado_982547-2" data-name="Trazado 982547" transform="translate(9 6)" fill="#fdfbec">
                  <path d="M 39.7666015625 78.033203125 C 34.59997940063477 78.033203125 29.58870124816895 77.02164459228516 24.87196731567383 75.02663421630859 C 20.31538963317871 73.099365234375 16.22284507751465 70.34000396728516 12.70802402496338 66.82518005371094 C 9.193202018737793 63.31035614013672 6.433835029602051 59.21781158447266 4.506568431854248 54.66123580932617 C 2.511557102203369 49.94449996948242 1.500001549720764 44.93322372436523 1.500001549720764 39.7666015625 C 1.500001549720764 34.59997940063477 2.511557102203369 29.58870124816895 4.506568431854248 24.87196731567383 C 6.433835029602051 20.31538963317871 9.193202018737793 16.22284507751465 12.70802402496338 12.70802402496338 C 16.22284507751465 9.193202018737793 20.31538963317871 6.433835029602051 24.87196731567383 4.506568431854248 C 29.58870124816895 2.511557102203369 34.59997940063477 1.500001549720764 39.7666015625 1.500001549720764 C 44.93322372436523 1.500001549720764 49.94449996948242 2.511557102203369 54.66123580932617 4.506568431854248 C 59.21781158447266 6.433835029602051 63.31035614013672 9.193202018737793 66.82518005371094 12.70802402496338 C 70.34000396728516 16.22284507751465 73.099365234375 20.31538963317871 75.02663421630859 24.87196731567383 C 77.02164459228516 29.58870124816895 78.033203125 34.59997940063477 78.033203125 39.7666015625 C 78.033203125 44.93322372436523 77.02164459228516 49.94449996948242 75.02663421630859 54.66123580932617 C 73.099365234375 59.21781158447266 70.34000396728516 63.31035614013672 66.82518005371094 66.82518005371094 C 63.31035614013672 70.34000396728516 59.21781158447266 73.099365234375 54.66123580932617 75.02663421630859 C 49.94449996948242 77.02164459228516 44.93322372436523 78.033203125 39.7666015625 78.033203125 Z" stroke="none"/>
                  <path d="M 39.7666015625 3 C 34.80181503295898 3 29.98714065551758 3.971687316894531 25.45630264282227 5.888076782226562 C 21.07851409912109 7.739715576171875 17.146240234375 10.39113616943359 13.76869201660156 13.76869201660156 C 10.39113616943359 17.146240234375 7.739715576171875 21.07851409912109 5.888076782226562 25.45630264282227 C 3.971687316894531 29.98714065551758 3 34.80181503295898 3 39.7666015625 C 3 44.73138809204102 3.971687316894531 49.54606628417969 5.888076782226562 54.076904296875 C 7.739715576171875 58.45468902587891 10.39113616943359 62.386962890625 13.76869201660156 65.76451110839844 C 17.146240234375 69.14206695556641 21.07851409912109 71.79348754882812 25.45630264282227 73.64512634277344 C 29.98714065551758 75.56151580810547 34.80181503295898 76.533203125 39.7666015625 76.533203125 C 44.73138809204102 76.533203125 49.54606628417969 75.56151580810547 54.076904296875 73.64512634277344 C 58.45468902587891 71.79348754882812 62.386962890625 69.14206695556641 65.76451110839844 65.76451110839844 C 69.14206695556641 62.386962890625 71.79348754882812 58.45468902587891 73.64512634277344 54.076904296875 C 75.56151580810547 49.54606628417969 76.533203125 44.73138809204102 76.533203125 39.7666015625 C 76.533203125 34.80181503295898 75.56151580810547 29.98714065551758 73.64512634277344 25.45630264282227 C 71.79348754882812 21.07851409912109 69.14206695556641 17.146240234375 65.76451110839844 13.76869201660156 C 62.386962890625 10.39113616943359 58.45468902587891 7.739715576171875 54.076904296875 5.888076782226562 C 49.54606628417969 3.971687316894531 44.73138809204102 3 39.7666015625 3 M 39.7666015625 0 C 61.72908782958984 0 79.533203125 17.80411529541016 79.533203125 39.7666015625 C 79.533203125 61.72908782958984 61.72908782958984 79.533203125 39.7666015625 79.533203125 C 17.80411529541016 79.533203125 0 61.72908782958984 0 39.7666015625 C 0 17.80411529541016 17.80411529541016 0 39.7666015625 0 Z" stroke="none" fill="#83793c"/>
                </g>
              </g>
            </g>
          </g>
        </g>
      </g>
    </g>
    <g id="repetitivo" transform="translate(827.722 6578.579)">
      <g id="Grupo_1203264" data-name="Grupo 1203264" transform="translate(0.718 0.881)">
        <path id="Trazado_1042980" data-name="Trazado 1042980" d="M122.282,331.609c0-8.371,5.316-11.587,5.316-11.587l14.975-.957a16.4,16.4,0,0,1,5.316,12.545Z" transform="translate(-111.292 -289.248)" fill="#ffb4bf"/>
        <path id="Trazado_1042981" data-name="Trazado 1042981" d="M352.2,9.185a5.012,5.012,0,0,1,7.088,7.088c-1.957,1.957-5.791,2.618-7.748.66s-1.3-5.791.66-7.748Z" transform="translate(-317.537 -7.712)" fill="#4c5698"/>
        <path id="Trazado_1042982" data-name="Trazado 1042982" d="M65.465,25.906a18.243,18.243,0,0,1,36.486,0Z" transform="translate(-59.915 -7.663)" fill="#696eb1"/>
        <path id="Trazado_1042983" data-name="Trazado 1042983" d="M62.66,10.6a5.956,5.956,0,0,0-1.032-1.417,5.012,5.012,0,1,0-7.088,7.088,6.128,6.128,0,0,0,1.8,1.222,18.128,18.128,0,0,0-2.084,8.46h6.477A22.958,22.958,0,0,1,69.874,7.9,18.129,18.129,0,0,0,62.66,10.6Z" transform="translate(-48.709 -7.712)" fill="#4c5698"/>
        <circle id="Elipse_12608" data-name="Elipse 12608" cx="3.793" cy="3.793" r="3.793" transform="translate(35.161 16.132)" fill="#c7856a"/>
        <path id="Trazado_1042984" data-name="Trazado 1042984" d="M176.571,319.064l-14.975.957a8.912,8.912,0,0,0-1.716,1.5,18.436,18.436,0,0,0,9.185,2.384h.172a18.463,18.463,0,0,0,9.4-2.566A12.4,12.4,0,0,0,176.571,319.064Z" transform="translate(-145.29 -289.248)" fill="#ff8d9d"/>
        <path id="Trazado_1042985" data-name="Trazado 1042985" d="M128,115.263a1.145,1.145,0,0,0-1.709-.414,4.817,4.817,0,0,1-6.452-.632,1.139,1.139,0,0,0-1.68,0,4.818,4.818,0,0,1-7.147,0,1.139,1.139,0,0,0-1.68,0,4.817,4.817,0,0,1-6.452.632,1.142,1.142,0,0,0-1.7.4,14.908,14.908,0,0,0-1.566,6.672c0,8.264,6.843,14.088,15.107,14.016,8.209-.071,14.841-5.79,14.841-14.016A14.91,14.91,0,0,0,128,115.263Z" transform="translate(-90.789 -103.681)" fill="#da9d81"/>
        <path id="Trazado_1042986" data-name="Trazado 1042986" d="M68.066,140.615a23.06,23.06,0,0,1-1.81-17.891,4.813,4.813,0,0,1-.963-.558,1.142,1.142,0,0,0-1.7.4,14.871,14.871,0,0,0-1.419,4.577c-.108-.01-.219-.016-.334-.016a3.793,3.793,0,1,0,0,7.585,3.243,3.243,0,0,0,1.2-.218A13.606,13.606,0,0,0,68.066,140.615Z" transform="translate(-53.205 -110.997)" fill="#c7856a"/>
        <g id="Grupo_1203263" data-name="Grupo 1203263" transform="translate(11.961 21.867)">
          <g id="Grupo_1203262" data-name="Grupo 1203262">
            <g id="Grupo_1203260" data-name="Grupo 1203260">
              <ellipse id="Elipse_12609" data-name="Elipse 12609" cx="3.189" cy="2.54" rx="3.189" ry="2.54" fill="#eeedff"/>
            </g>
            <g id="Grupo_1203261" data-name="Grupo 1203261" transform="translate(17.286)">
              <ellipse id="Elipse_12610" data-name="Elipse 12610" cx="3.189" cy="2.54" rx="3.189" ry="2.54" fill="#eeedff"/>
            </g>
          </g>
        </g>
        <path id="Trazado_1042987" data-name="Trazado 1042987" d="M7.5,438.69H55.086v6.285H7.5Z" transform="translate(-7.5 -397.421)" fill="#71dbba"/>
        <path id="Trazado_1042988" data-name="Trazado 1042988" d="M104.028,305.64a4.421,4.421,0,0,0-4.421,4.421,2.658,2.658,0,0,0,2.658,2.658h3.525a2.658,2.658,0,0,0,2.658-2.658A4.421,4.421,0,0,0,104.028,305.64Z" transform="translate(-90.788 -277.11)" fill="#c7856a"/>
        <path id="Trazado_1042989" data-name="Trazado 1042989" d="M190.5,386.327H178.936l-1.766-3.376,1.766-3.376H190.5l1.754,3.376Z" transform="translate(-160.925 -343.967)" fill="#fce29f"/>
        <path id="Trazado_1042990" data-name="Trazado 1042990" d="M77.119,379.576a2.268,2.268,0,0,0-2.268,2.268v2.215a2.268,2.268,0,0,0,2.268,2.268h9.295v-6.751Z" transform="translate(-68.402 -343.967)" fill="#ff8d9d"/>
        <path id="Trazado_1042991" data-name="Trazado 1042991" d="M325.678,379.576h-9.295v6.751h9.295a2.268,2.268,0,0,0,2.268-2.268v-2.215A2.268,2.268,0,0,0,325.678,379.576Z" transform="translate(-286.809 -343.967)" fill="#c8a9f1"/>
        <path id="Trazado_1042992" data-name="Trazado 1042992" d="M78.088,381.246a7.364,7.364,0,0,1,.193-1.67H77.119a2.268,2.268,0,0,0-2.268,2.268v2.215a2.268,2.268,0,0,0,2.268,2.268H80.13A7.324,7.324,0,0,1,78.088,381.246Z" transform="translate(-68.402 -343.967)" fill="#e95b70"/>
        <path id="Trazado_1042993" data-name="Trazado 1042993" d="M200.9,386.327a7.339,7.339,0,0,1-1.849-6.751h-3.43v6.751Z" transform="translate(-177.605 -343.967)" fill="#ffcd71"/>
        <path id="Trazado_1042994" data-name="Trazado 1042994" d="M321.662,386.327a7.339,7.339,0,0,1-1.849-6.751h-3.43v6.751Z" transform="translate(-286.809 -343.967)" fill="#b18ae3"/>
      </g>
      <g id="Grupo_1203265" data-name="Grupo 1203265" transform="translate(0 0.163)">
        <path id="Trazado_1042995" data-name="Trazado 1042995" d="M178.362,215.918a.718.718,0,0,0-.718.718v1.3a.718.718,0,0,0,1.436,0v-1.3A.718.718,0,0,0,178.362,215.918Z" transform="translate(-160.635 -195.26)"/>
        <path id="Trazado_1042996" data-name="Trazado 1042996" d="M320.074,215.918a.718.718,0,0,0-.718.718v1.3a.718.718,0,1,0,1.436,0v-1.3A.718.718,0,0,0,320.074,215.918Z" transform="translate(-288.779 -195.26)"/>
        <path id="Trazado_1042997" data-name="Trazado 1042997" d="M234.586,229.3a.718.718,0,0,0-1.013.07,1.652,1.652,0,0,1-2.494,0,.718.718,0,0,0-1.083.944,3.089,3.089,0,0,0,4.66,0A.718.718,0,0,0,234.586,229.3Z" transform="translate(-207.815 -207.204)"/>
        <path id="Trazado_1042998" data-name="Trazado 1042998" d="M48.3,41.432H42.538a3,3,0,0,0,.035-.459V38.759a2.99,2.99,0,0,0-2.986-2.986H36.5a16.834,16.834,0,0,0-2.887-4.5,14.2,14.2,0,0,0,5.274-6.025,4.507,4.507,0,0,0,4.565-6.894,18.846,18.846,0,0,0-1.822-7.379,6.6,6.6,0,0,0,1.348-1.024,5.736,5.736,0,0,0,0-8.1A5.673,5.673,0,0,0,40.75.465a.718.718,0,1,0-.456,1.362,4.247,4.247,0,0,1,1.67,1.035,4.3,4.3,0,0,1,0,6.072,5.111,5.111,0,0,1-1,.768,19.172,19.172,0,0,0-5.642-6.149,4.863,4.863,0,0,1,.571-.691,4.288,4.288,0,0,1,1.942-1.115A.718.718,0,0,0,37.47.357a5.727,5.727,0,0,0-2.593,1.489,6.322,6.322,0,0,0-.763.93,18.953,18.953,0,0,0-19.206,0,6.322,6.322,0,0,0-.763-.93,5.73,5.73,0,0,0-8.1,8.1A6.6,6.6,0,0,0,7.39,10.973a18.846,18.846,0,0,0-1.822,7.379,4.507,4.507,0,0,0,4.579,6.892,14.045,14.045,0,0,0,2.442,3.635,5.147,5.147,0,0,0-3.77,4.952,3.357,3.357,0,0,0,.616,1.94,2.99,2.99,0,0,0-2.986,2.986v2.215a3,3,0,0,0,.035.459H.718A.718.718,0,0,0,0,42.15v6.285a.718.718,0,0,0,.718.718h9.539a.718.718,0,1,0,0-1.436H1.436V42.869h5.69a2.969,2.969,0,0,0,2.3,1.091H39.6a2.968,2.968,0,0,0,2.3-1.091h5.69v4.849H13.129a.718.718,0,1,0,0,1.436H48.3a.718.718,0,0,0,.718-.718V42.15a.718.718,0,0,0-.718-.718Zm-7.167-2.674v2.215a1.552,1.552,0,0,1-1.55,1.55H31.011V37.209h8.576A1.552,1.552,0,0,1,41.137,38.759Zm-6.216-2.986H18.482a3.61,3.61,0,0,0,.544-2.788,17.553,17.553,0,0,0,13.315-.976,15.074,15.074,0,0,1,2.58,3.764Zm-10.283-3.35A15.574,15.574,0,0,1,18.37,31.2a5.155,5.155,0,0,0-3.9-2.48A12.693,12.693,0,0,1,10.3,20.188c0-.01,0-.02,0-.03a14.261,14.261,0,0,1,1.452-7.386.424.424,0,0,1,.631-.148A5.537,5.537,0,0,0,19.79,11.9a.421.421,0,0,1,.615,0,5.539,5.539,0,0,0,8.212,0,.42.42,0,0,1,.615,0,5.537,5.537,0,0,0,7.414.725.427.427,0,0,1,.636.159,14.3,14.3,0,0,1,1.485,6.341c0,7.776-6.259,13.228-14.13,13.3ZM39.672,23.88q-.116,0-.231-.009a14.84,14.84,0,0,0,.762-4.747c0-.438-.024-.966-.057-1.355a3.074,3.074,0,0,1-.474,6.111Zm2.221-7a4.515,4.515,0,0,0-1.942-.578,15.614,15.614,0,0,0-1.383-4.16,1.863,1.863,0,0,0-2.782-.67,4.1,4.1,0,0,1-5.49-.538,1.858,1.858,0,0,0-2.745,0,4.1,4.1,0,0,1-6.082,0,1.857,1.857,0,0,0-2.745,0,4.1,4.1,0,0,1-5.49.538,1.856,1.856,0,0,0-1.544-.319c-1.027.244-1.328,1.1-1.706,2.025A15.429,15.429,0,0,0,9.071,16.3a4.5,4.5,0,0,0-1.942.578,17.526,17.526,0,0,1,34.763,0ZM7.057,8.934a4.294,4.294,0,0,1,6.072-6.072,4.868,4.868,0,0,1,.571.691A19.172,19.172,0,0,0,8.058,9.7a5.114,5.114,0,0,1-1-.768ZM9.593,23.87a3.074,3.074,0,0,1-.717-6.1,15.828,15.828,0,0,0-.013,2.522v.017a14.5,14.5,0,0,0,.728,3.562Zm4.365,6.259c.06,0,.12,0,.18,0h0a3.711,3.711,0,0,1,3.523,3.7,1.943,1.943,0,0,1-1.94,1.94H12.2a1.943,1.943,0,0,1-1.94-1.94A3.707,3.707,0,0,1,13.958,30.129ZM7.885,38.759a1.552,1.552,0,0,1,1.55-1.55h8.576v5.315H9.435a1.552,1.552,0,0,1-1.55-1.55Zm11.563-1.55H29.574v5.315H19.448Z" transform="translate(0 -0.163)"/>
      </g>
    </g>
  </g>
</svg>
