<svg xmlns="http://www.w3.org/2000/svg" xmlns:xlink="http://www.w3.org/1999/xlink" width="97.533" height="97.533" viewBox="0 0 97.533 97.533">
  <defs>
    <filter id="Trazado_982547" x="0" y="0" width="97.533" height="97.533" filterUnits="userSpaceOnUse">
      <feOffset dy="3" input="SourceAlpha"/>
      <feGaussianBlur stdDeviation="3" result="blur"/>
      <feFlood flood-opacity="0.161"/>
      <feComposite operator="in" in2="blur"/>
      <feComposite in="SourceGraphic"/>
    </filter>
  </defs>
  <g id="Grupo_1203268" data-name="Grupo 1203268" transform="translate(-1117 -6557)">
    <g id="Grupo_1203059" data-name="Grupo 1203059" transform="translate(-19.467 -345.681)">
      <g id="Grupo_1202159" data-name="Grupo 1202159" transform="translate(864.467 5497.679)">
        <g id="Grupo_1177900" data-name="Grupo 1177900" transform="translate(281 1411.003)">
          <g id="Grupo_1172010" data-name="Grupo 1172010" transform="translate(0)">
            <g id="Grupo_1171046" data-name="Grupo 1171046">
              <g id="Grupo_1148525" data-name="Grupo 1148525">
                <g transform="matrix(1, 0, 0, 1, -9, -6)" filter="url(#Trazado_982547)">
                  <g id="Trazado_982547-2" data-name="Trazado 982547" transform="translate(9 6)" fill="#fdfbec">
                    <path d="M 39.7666015625 78.033203125 C 34.59997940063477 78.033203125 29.58870124816895 77.02164459228516 24.87196731567383 75.02663421630859 C 20.31538963317871 73.099365234375 16.22284507751465 70.34000396728516 12.70802402496338 66.82518005371094 C 9.193202018737793 63.31035614013672 6.433835029602051 59.21781158447266 4.506568431854248 54.66123580932617 C 2.511557102203369 49.94449996948242 1.500001549720764 44.93322372436523 1.500001549720764 39.7666015625 C 1.500001549720764 34.59997940063477 2.511557102203369 29.58870124816895 4.506568431854248 24.87196731567383 C 6.433835029602051 20.31538963317871 9.193202018737793 16.22284507751465 12.70802402496338 12.70802402496338 C 16.22284507751465 9.193202018737793 20.31538963317871 6.433835029602051 24.87196731567383 4.506568431854248 C 29.58870124816895 2.511557102203369 34.59997940063477 1.500001549720764 39.7666015625 1.500001549720764 C 44.93322372436523 1.500001549720764 49.94449996948242 2.511557102203369 54.66123580932617 4.506568431854248 C 59.21781158447266 6.433835029602051 63.31035614013672 9.193202018737793 66.82518005371094 12.70802402496338 C 70.34000396728516 16.22284507751465 73.099365234375 20.31538963317871 75.02663421630859 24.87196731567383 C 77.02164459228516 29.58870124816895 78.033203125 34.59997940063477 78.033203125 39.7666015625 C 78.033203125 44.93322372436523 77.02164459228516 49.94449996948242 75.02663421630859 54.66123580932617 C 73.099365234375 59.21781158447266 70.34000396728516 63.31035614013672 66.82518005371094 66.82518005371094 C 63.31035614013672 70.34000396728516 59.21781158447266 73.099365234375 54.66123580932617 75.02663421630859 C 49.94449996948242 77.02164459228516 44.93322372436523 78.033203125 39.7666015625 78.033203125 Z" stroke="none"/>
                    <path d="M 39.7666015625 3 C 34.80181503295898 3 29.98714065551758 3.971687316894531 25.45630264282227 5.888076782226562 C 21.07851409912109 7.739715576171875 17.146240234375 10.39113616943359 13.76869201660156 13.76869201660156 C 10.39113616943359 17.146240234375 7.739715576171875 21.07851409912109 5.888076782226562 25.45630264282227 C 3.971687316894531 29.98714065551758 3 34.80181503295898 3 39.7666015625 C 3 44.73138809204102 3.971687316894531 49.54606628417969 5.888076782226562 54.076904296875 C 7.739715576171875 58.45468902587891 10.39113616943359 62.386962890625 13.76869201660156 65.76451110839844 C 17.146240234375 69.14206695556641 21.07851409912109 71.79348754882812 25.45630264282227 73.64512634277344 C 29.98714065551758 75.56151580810547 34.80181503295898 76.533203125 39.7666015625 76.533203125 C 44.73138809204102 76.533203125 49.54606628417969 75.56151580810547 54.076904296875 73.64512634277344 C 58.45468902587891 71.79348754882812 62.386962890625 69.14206695556641 65.76451110839844 65.76451110839844 C 69.14206695556641 62.386962890625 71.79348754882812 58.45468902587891 73.64512634277344 54.076904296875 C 75.56151580810547 49.54606628417969 76.533203125 44.73138809204102 76.533203125 39.7666015625 C 76.533203125 34.80181503295898 75.56151580810547 29.98714065551758 73.64512634277344 25.45630264282227 C 71.79348754882812 21.07851409912109 69.14206695556641 17.146240234375 65.76451110839844 13.76869201660156 C 62.386962890625 10.39113616943359 58.45468902587891 7.739715576171875 54.076904296875 5.888076782226562 C 49.54606628417969 3.971687316894531 44.73138809204102 3 39.7666015625 3 M 39.7666015625 0 C 61.72908782958984 0 79.533203125 17.80411529541016 79.533203125 39.7666015625 C 79.533203125 61.72908782958984 61.72908782958984 79.533203125 39.7666015625 79.533203125 C 17.80411529541016 79.533203125 0 61.72908782958984 0 39.7666015625 C 0 17.80411529541016 17.80411529541016 0 39.7666015625 0 Z" stroke="none" fill="#83793c"/>
                  </g>
                </g>
              </g>
            </g>
          </g>
        </g>
      </g>
    </g>
    <g id="imaginacion" transform="translate(1139.962 6578.962)">
      <path id="Trazado_1042999" data-name="Trazado 1042999" d="M18.436,119.474a3.927,3.927,0,0,0-7.119-1.533,1.571,1.571,0,0,0-2.246,1.418q0,.067.006.132a2.356,2.356,0,0,0,.78,4.579h7.852a2.356,2.356,0,0,0,.728-4.6Z" transform="translate(-6.742 -104.467)" fill="#c8effe"/>
      <path id="Trazado_1043000" data-name="Trazado 1043000" d="M28.154,238.684H26.846a6.067,6.067,0,0,1-5.949-4.877l-.822-4.11a3.976,3.976,0,0,1,5.156-4.551l2.923.974v12.563Z" transform="translate(-17.973 -202.193)" fill="#ffbd86"/>
      <path id="Trazado_1043001" data-name="Trazado 1043001" d="M411.312,238.684h1.308a6.067,6.067,0,0,0,5.949-4.877l.822-4.11a3.976,3.976,0,0,0-5.156-4.551l-2.923.974v12.563Z" transform="translate(-369.723 -202.193)" fill="#f6a96c"/>
      <path id="Trazado_1043002" data-name="Trazado 1043002" d="M154.515,54.094c-6.108,0-11.2,6.489-11.416,12.563l1.993,1.57,1.15-1.57a8.283,8.283,0,0,1,16.544,0l1.15,1.57,1.993-1.57C165.714,60.582,160.623,54.094,154.515,54.094Z" transform="translate(-128.63 -48.624)" fill="#46cc8d"/>
      <path id="Trazado_1043003" data-name="Trazado 1043003" d="M334.607,160.366l1.15,1.57,1.993-1.57a12.247,12.247,0,0,0-.246-2.022h-3.258A8.1,8.1,0,0,1,334.607,160.366Z" transform="translate(-300.45 -142.333)" fill="#00c27a"/>
      <path id="Trazado_1043004" data-name="Trazado 1043004" d="M143.346,158.344a12.24,12.24,0,0,0-.246,2.022l1.993,1.57,1.15-1.57a8.1,8.1,0,0,1,.36-2.022Z" transform="translate(-128.631 -142.333)" fill="#00c27a"/>
      <path id="Trazado_1043005" data-name="Trazado 1043005" d="M126.58,23.031c-7.825,0-14.34,7.9-14.558,15.7l1.995,1.57,1.148-1.57a11.424,11.424,0,0,1,22.831,0l1.148,1.57,1.995-1.57c-.218-7.8-6.733-15.7-14.558-15.7Z" transform="translate(-100.695 -20.702)" fill="#fee903"/>
      <g id="Grupo_1203267" data-name="Grupo 1203267" transform="translate(11.327 6.937)">
        <path id="Trazado_1043006" data-name="Trazado 1043006" d="M352.266,72.306a17.8,17.8,0,0,0-2.661-3.7,2.356,2.356,0,0,0,1.938,3.7h.723Z" transform="translate(-325.207 -68.611)" fill="#f4d902"/>
        <path id="Trazado_1043007" data-name="Trazado 1043007" d="M366.611,160.366l1.148,1.57,1.995-1.57a15.122,15.122,0,0,0-.195-2.022h-3.205A11.2,11.2,0,0,1,366.611,160.366Z" transform="translate(-340.638 -149.271)" fill="#f4d902"/>
        <path id="Trazado_1043008" data-name="Trazado 1043008" d="M112.217,158.344a15.132,15.132,0,0,0-.195,2.022l1.995,1.57,1.148-1.57a11.2,11.2,0,0,1,.257-2.022Z" transform="translate(-112.022 -149.271)" fill="#f4d902"/>
      </g>
      <path id="Trazado_1043009" data-name="Trazado 1043009" d="M98.649,10.641a14.638,14.638,0,0,1,14.558,14.134l1.146,1.57,2-1.57a17.705,17.705,0,0,0-35.4,0l2,1.57,1.146-1.57A14.639,14.639,0,0,1,98.649,10.641Z" transform="translate(-72.764 -6.742)" fill="#e53950"/>
      <path id="Trazado_1043010" data-name="Trazado 1043010" d="M350.462,51.023a14.81,14.81,0,0,1,2.7,3.126h3.627a17.8,17.8,0,0,0-4.508-5.738,1.564,1.564,0,0,0-.382,1.026c0,.044,0,.089.005.132A2.362,2.362,0,0,0,350.462,51.023Z" transform="translate(-315.026 -43.516)" fill="#ca2e43"/>
      <path id="Trazado_1043011" data-name="Trazado 1043011" d="M398.2,160.366l1.146,1.57,2-1.57a17.713,17.713,0,0,0-.162-2.022H398A14.331,14.331,0,0,1,398.2,160.366Z" transform="translate(-357.753 -142.333)" fill="#ca2e43"/>
      <path id="Trazado_1043012" data-name="Trazado 1043012" d="M81.112,158.344a17.692,17.692,0,0,0-.162,2.022l2,1.57,1.146-1.57a14.305,14.305,0,0,1,.2-2.022Z" transform="translate(-72.765 -142.333)" fill="#ca2e43"/>
      <path id="Trazado_1043013" data-name="Trazado 1043013" d="M51.725,10.255a8.064,8.064,0,0,0-2.753,2.753,8.081,8.081,0,0,0-2.755-2.753A8.112,8.112,0,0,0,48.972,7.5,8.094,8.094,0,0,0,51.725,10.255Z" transform="translate(-41.544 -6.742)" fill="#fee903"/>
      <path id="Trazado_1043014" data-name="Trazado 1043014" d="M462.618,118.575a6.9,6.9,0,0,0-2.355,2.355,6.915,6.915,0,0,0-2.356-2.355,6.94,6.94,0,0,0,2.356-2.356A6.924,6.924,0,0,0,462.618,118.575Z" transform="translate(-411.607 -104.468)" fill="#fee903"/>
      <path id="Trazado_1043015" data-name="Trazado 1043015" d="M80.907,178.344q-.017.76.03,1.534l.986,15.771a16.716,16.716,0,0,0,33.367,0l.986-15.771q.048-.773.031-1.534Z" transform="translate(-72.722 -160.311)" fill="#fed2a4"/>
      <path id="Trazado_1043016" data-name="Trazado 1043016" d="M189.94,178.344h-4.106l-.955,15.283a16.726,16.726,0,0,1-22.061,14.789,16.718,16.718,0,0,0,26.106-12.766l.986-15.771Q189.958,179.1,189.94,178.344Z" transform="translate(-146.355 -160.311)" fill="#ffbd86"/>
      <path id="Trazado_1043017" data-name="Trazado 1043017" d="M360.124,10.756A3.927,3.927,0,0,0,353,9.223a1.571,1.571,0,0,0-2.246,1.418c0,.044,0,.089.006.132a2.356,2.356,0,0,0,.78,4.579H359.4a2.356,2.356,0,0,0,.728-4.6Z" transform="translate(-313.881 -6.742)" fill="#c8effe"/>
      <path id="Trazado_1043018" data-name="Trazado 1043018" d="M244.421,287.361a3.29,3.29,0,0,0,3.286-3.286v-3.754a.758.758,0,0,0-1.517,0v3.754a1.772,1.772,0,0,1-1.769,1.769H243.2a.758.758,0,1,0,0,1.517Z" transform="translate(-217.923 -251.296)"/>
      <path id="Trazado_1043019" data-name="Trazado 1043019" d="M182.828,392.272a.758.758,0,0,0,0,1.072,10.181,10.181,0,0,0,14.4,0,.758.758,0,0,0-1.073-1.072,8.664,8.664,0,0,1-12.253,0A.758.758,0,0,0,182.828,392.272Z" transform="translate(-164.142 -352.409)"/>
      <path id="Trazado_1043020" data-name="Trazado 1043020" d="M39.086,4.163a7.341,7.341,0,0,1,2.5,2.495.758.758,0,0,0,1.3,0,7.323,7.323,0,0,1,2.494-2.494.758.758,0,0,0,0-1.3,7.355,7.355,0,0,1-2.5-2.5.758.758,0,0,0-1.3,0,7.376,7.376,0,0,1-2.5,2.5.758.758,0,0,0,0,1.3ZM42.23,2.085a8.911,8.911,0,0,0,1.427,1.427A8.872,8.872,0,0,0,42.23,4.939,8.884,8.884,0,0,0,40.8,3.512,8.931,8.931,0,0,0,42.23,2.085Z" transform="translate(-34.803)"/>
      <path id="Trazado_1043021" data-name="Trazado 1043021" d="M456.267,111.184a6.182,6.182,0,0,1-2.1-2.1.758.758,0,0,0-1.3,0,6.2,6.2,0,0,1-2.1,2.1.758.758,0,0,0,0,1.3,6.172,6.172,0,0,1,2.1,2.1.758.758,0,0,0,1.3,0,6.153,6.153,0,0,1,2.1-2.1.758.758,0,0,0,0-1.3Zm-2.747,1.7a7.707,7.707,0,0,0-1.047-1.047,7.743,7.743,0,0,0,1.047-1.047,7.73,7.73,0,0,0,1.046,1.047A7.694,7.694,0,0,0,453.52,112.879Z" transform="translate(-404.864 -97.726)"/>
      <path id="Trazado_1043022" data-name="Trazado 1043022" d="M48.9,23.176a4.687,4.687,0,0,0-4.63-.942l-.128.043.166-2.662c.033-.523.044-1.052.032-1.573,0-.008,0-.017,0-.025a18.35,18.35,0,0,0-2.388-8.647h3.559A3.115,3.115,0,0,0,46.9,3.464,4.686,4.686,0,0,0,38.845,1.6a2.333,2.333,0,0,0-2.609,1.567,18.479,18.479,0,0,0-20.821.082A.758.758,0,1,0,16.276,4.5a16.964,16.964,0,0,1,18.949-.183,3.117,3.117,0,0,0-.653,1.562,15.192,15.192,0,0,0-8.687-2.74A15.427,15.427,0,0,0,10.608,17.274H8.978A16.88,16.88,0,0,1,13.67,6.718a.758.758,0,0,0-1.093-1.051,18.488,18.488,0,0,0-3.64,5.459A4.693,4.693,0,0,0,4.3,12.6a2.333,2.333,0,0,0-2.7,1.93,3.114,3.114,0,0,0,1.515,5.835H7.505l.12,1.915L7.5,22.234a4.734,4.734,0,0,0-6.139,5.419l.822,4.11a6.845,6.845,0,0,0,6.48,5.483,17.372,17.372,0,0,0,1.112,3.821.758.758,0,1,0,1.4-.588,15.923,15.923,0,0,1-1.212-5.188c-1-15.943-1-15.781-1.016-16.5H42.828c-.011.52.063-.765-1.016,16.5a15.959,15.959,0,0,1-28.978,8.19.758.758,0,1,0-1.24.874A17.477,17.477,0,0,0,43.11,37.246a6.832,6.832,0,0,0,1.466-.206.758.758,0,1,0-.373-1.47,5.3,5.3,0,0,1-.9.147c.02-.244-.024.431.53-8.427l1.914-.638a.274.274,0,0,1,.034-.009.123.123,0,0,1,.058.042.144.144,0,0,1,.011.016.125.125,0,0,1,0,.039L45.3,29.462a.758.758,0,1,0,1.487.3l.544-2.722a1.555,1.555,0,0,0-.322-1.314,1.566,1.566,0,0,0-1.744-.51l-1.332.444.109-1.748.71-.237a3.217,3.217,0,0,1,4.172,3.683l-.822,4.11a5.3,5.3,0,0,1-1.29,2.544.758.758,0,1,0,1.118,1.025,6.82,6.82,0,0,0,1.659-3.271l.822-4.11A4.687,4.687,0,0,0,48.9,23.176Zm-6.111-5.9H41.162a15.159,15.159,0,0,0-2.984-7.906h2.007A16.834,16.834,0,0,1,42.791,17.275ZM37.639,3.968a.813.813,0,0,1,.809-.881.8.8,0,0,1,.349.078.758.758,0,0,0,.954-.258A3.168,3.168,0,0,1,45.5,4.143a.759.759,0,0,0,.513.593,1.6,1.6,0,0,1-.494,3.117H37.663a1.6,1.6,0,0,1-.529-3.105.758.758,0,0,0,.5-.779Zm-11.754.69A13.9,13.9,0,0,1,39.641,17.275H38.01a12.187,12.187,0,0,0-24.25,0h-1.63A13.9,13.9,0,0,1,25.885,4.658Zm8.964,12.617a9.047,9.047,0,0,0-17.929,0H15.285a10.667,10.667,0,0,1,21.2,0Zm-1.533,0H18.454a7.526,7.526,0,0,1,14.862,0Zm-31.8-.027A1.6,1.6,0,0,1,2.585,15.74a.758.758,0,0,0,.5-.779A.813.813,0,0,1,3.9,14.08a.8.8,0,0,1,.349.078A.758.758,0,0,0,5.2,13.9a3.176,3.176,0,0,1,3.183-1.342,18.377,18.377,0,0,0-.959,5.457c0,.009,0,.018,0,.027-.006.266-.006.534,0,.8H3.114a1.6,1.6,0,0,1-1.6-1.6ZM3.667,31.465l-.822-4.11a3.217,3.217,0,0,1,4.172-3.683l.71.237.109,1.748L6.5,25.213a1.566,1.566,0,0,0-1.744.51,1.555,1.555,0,0,0-.322,1.314l.544,2.722a.758.758,0,1,0,1.487-.3L5.925,26.74a.153.153,0,0,1,0-.038.091.091,0,0,1,.011-.017.14.14,0,0,1,.054-.042.153.153,0,0,1,.038.009l1.914.638c.553,8.845.51,8.185.53,8.427a5.324,5.324,0,0,1-4.8-4.252Z" transform="translate(0 0)"/>
    </g>
  </g>
</svg>
