<svg xmlns="http://www.w3.org/2000/svg" xmlns:xlink="http://www.w3.org/1999/xlink" width="108" height="108" viewBox="0 0 108 108">
  <defs>
    <filter id="Trazado_904820" x="0" y="0" width="108" height="108" filterUnits="userSpaceOnUse">
      <feOffset dy="3" input="SourceAlpha"/>
      <feGaussianBlur stdDeviation="3" result="blur"/>
      <feFlood flood-opacity="0.161"/>
      <feComposite operator="in" in2="blur"/>
      <feComposite in="SourceGraphic"/>
    </filter>
  </defs>
  <g id="Grupo_1203287" data-name="Grupo 1203287" transform="translate(-608 -7011)">
    <g id="Grupo_1203060" data-name="Grupo 1203060" transform="translate(617 7017)">
      <g id="Grupo_1202051" data-name="Grupo 1202051" transform="translate(0 0)">
        <g id="Grupo_1173585" data-name="Grupo 1173585">
          <g id="Grupo_1173428" data-name="Grupo 1173428">
            <g id="Grupo_1171958" data-name="Grupo 1171958">
              <g id="Grupo_1167341" data-name="Grupo 1167341">
                <g id="Grupo_1166792" data-name="Grupo 1166792">
                  <g transform="matrix(1, 0, 0, 1, -9, -6)" filter="url(#Trazado_904820)">
                    <g id="Trazado_904820-2" data-name="Trazado 904820" transform="translate(9 6)" fill="#effbfe">
                      <path d="M 44.99999618530273 88.49999237060547 C 39.12687301635742 88.49999237060547 33.43022155761719 87.35006713867188 28.06829643249512 85.08216857910156 C 22.88852119445801 82.89130401611328 18.23629570007324 79.75457763671875 14.24084663391113 75.75914001464844 C 10.24540901184082 71.76369476318359 7.108683586120605 67.11146545410156 4.917821407318115 61.93169403076172 C 2.649921178817749 56.56976699829102 1.499996185302734 50.87311553955078 1.499996185302734 44.99999237060547 C 1.499996185302734 39.12686920166016 2.649921178817749 33.43021774291992 4.917821407318115 28.06829261779785 C 7.108683586120605 22.88851737976074 10.24540901184082 18.23630523681641 14.24084663391113 14.24085521697998 C 18.23629570007324 10.24540519714355 22.88852119445801 7.108692169189453 28.06829643249512 4.917829990386963 C 33.43022155761719 2.649929761886597 39.12687301635742 1.500004887580872 44.99999618530273 1.500004887580872 C 50.87311935424805 1.500004887580872 56.56977081298828 2.649929761886597 61.93169784545898 4.917829990386963 C 67.11147308349609 7.108692169189453 71.76369476318359 10.24540519714355 75.75914764404297 14.24085521697998 C 79.75458526611328 18.23630523681641 82.89131164550781 22.88851737976074 85.08216857910156 28.06829261779785 C 87.35007476806641 33.43021774291992 88.5 39.12686920166016 88.5 44.99999237060547 C 88.5 50.87311553955078 87.35007476806641 56.56976699829102 85.08216857910156 61.93169403076172 C 82.89131164550781 67.11146545410156 79.75458526611328 71.76369476318359 75.75914764404297 75.75914001464844 C 71.76369476318359 79.75457763671875 67.11147308349609 82.89130401611328 61.93169784545898 85.08216857910156 C 56.56977081298828 87.35006713867188 50.87311935424805 88.49999237060547 44.99999618530273 88.49999237060547 Z" stroke="none"/>
                      <path d="M 44.99999618530273 2.999992370605469 C 39.32870864868164 2.999992370605469 33.82865142822266 4.11004638671875 28.65262603759766 6.299331665039062 C 23.65165710449219 8.414566040039062 19.15968322753906 11.44333648681641 15.301513671875 15.30150604248047 C 11.44333648681641 19.15967559814453 8.414566040039062 23.65164947509766 6.299339294433594 28.65262222290039 C 4.110054016113281 33.82864761352539 2.999992370605469 39.32870483398438 2.999992370605469 44.99999237060547 C 2.999992370605469 50.67127990722656 4.110054016113281 56.17132186889648 6.299339294433594 61.34736633300781 C 8.414566040039062 66.34833526611328 11.44333648681641 70.84029388427734 15.301513671875 74.69846343994141 C 19.15968322753906 78.55663299560547 23.65165710449219 81.58540344238281 28.65262603759766 83.70063781738281 C 33.82865142822266 85.88992309570312 39.32870864868164 86.99997711181641 44.99999618530273 86.99997711181641 C 50.67128372192383 86.99997711181641 56.17134094238281 85.88992309570312 61.34736633300781 83.70063781738281 C 66.34834289550781 81.58540344238281 70.84030914306641 78.55663299560547 74.69847869873047 74.69846343994141 C 78.55665588378906 70.84029388427734 81.58542633056641 66.34833526611328 83.70065307617188 61.34736633300781 C 85.88993835449219 56.17132186889648 87 50.67127990722656 87 44.99999237060547 C 87 39.32870483398438 85.88993835449219 33.82864761352539 83.70065307617188 28.65262222290039 C 81.58542633056641 23.65164947509766 78.55665588378906 19.15967559814453 74.69847869873047 15.30150604248047 C 70.84030914306641 11.44333648681641 66.34834289550781 8.414566040039062 61.34736633300781 6.299331665039062 C 56.17134094238281 4.11004638671875 50.67128372192383 2.999992370605469 44.99999618530273 2.999992370605469 M 44.99999618530273 -7.62939453125e-06 C 69.85281372070312 -7.62939453125e-06 90 20.14717864990234 90 44.99999237060547 C 90 69.85279083251953 69.85281372070312 89.99997711181641 44.99999618530273 89.99997711181641 C 20.14717864990234 89.99997711181641 -7.62939453125e-06 69.85279083251953 -7.62939453125e-06 44.99999237060547 C -7.62939453125e-06 20.14717864990234 20.14717864990234 -7.62939453125e-06 44.99999618530273 -7.62939453125e-06 Z" stroke="none" fill="#497f88"/>
                    </g>
                  </g>
                </g>
              </g>
            </g>
          </g>
        </g>
      </g>
    </g>
    <g id="graduacion" transform="translate(558.103 7027.035)">
      <g id="Grupo_1203269" data-name="Grupo 1203269" transform="translate(91.463 14.873)">
        <path id="Trazado_1043023" data-name="Trazado 1043023" d="M159.69,118.878v8.577a11.244,11.244,0,1,0,22.488,0v-8.577l-11.244-3.4Z" transform="translate(-159.69 -115.482)" fill="#fed2a4"/>
      </g>
      <g id="Grupo_1203270" data-name="Grupo 1203270" transform="translate(101.431 17.498)">
        <path id="Trazado_1043024" data-name="Trazado 1043024" d="M249.606,136.629v8.578a11.245,11.245,0,0,1-11.244,11.244,10.929,10.929,0,0,1-1.276-.073,11.242,11.242,0,0,0,9.966-11.171v-9.349Z" transform="translate(-237.086 -135.858)" fill="#ffbd86"/>
      </g>
      <g id="Grupo_1203271" data-name="Grupo 1203271" transform="translate(113.951 22.018)">
        <path id="Trazado_1043025" data-name="Trazado 1043025" d="M335.245,176.034h-.951v-5.08h.951a2.54,2.54,0,1,1,0,5.08Z" transform="translate(-334.294 -170.954)" fill="#fed2a4"/>
      </g>
      <g id="Grupo_1203272" data-name="Grupo 1203272" transform="translate(87.972 22.018)">
        <path id="Trazado_1043026" data-name="Trazado 1043026" d="M135.125,176.034h.951v-5.08h-.951a2.54,2.54,0,1,0,0,5.08Z" transform="translate(-132.585 -170.954)" fill="#fed2a4"/>
      </g>
      <g id="Grupo_1203275" data-name="Grupo 1203275" transform="translate(91.463 9.624)">
        <g id="Grupo_1203273" data-name="Grupo 1203273" transform="translate(0 0)">
          <path id="Trazado_1043027" data-name="Trazado 1043027" d="M170.934,74.722H159.69v9.79L170.934,82.5l11.244,2.007v-9.79Z" transform="translate(-159.69 -74.722)" fill="#8d9ca8"/>
        </g>
        <g id="Grupo_1203274" data-name="Grupo 1203274" transform="translate(19.934)">
          <path id="Trazado_1043028" data-name="Trazado 1043028" d="M317.021,74.72v9.79l-2.554-.456V74.72Z" transform="translate(-314.467 -74.72)" fill="#7a8c98"/>
        </g>
      </g>
      <g id="Grupo_1203276" data-name="Grupo 1203276" transform="translate(82.343 0.966)">
        <path id="Trazado_1043029" data-name="Trazado 1043029" d="M129.253,12.8,110.519,7.671a4.843,4.843,0,0,0-2.556,0L89.23,12.8a.479.479,0,0,0,0,.924l18.726,5.16a4.843,4.843,0,0,0,2.573,0l18.726-5.16A.479.479,0,0,0,129.253,12.8Z" transform="translate(-88.877 -7.499)" fill="#596c76"/>
      </g>
      <g id="Grupo_1203277" data-name="Grupo 1203277" transform="translate(99.724 0.966)">
        <path id="Trazado_1043030" data-name="Trazado 1043030" d="M246.823,13.724,228.1,18.884a4.835,4.835,0,0,1-2.572,0l-1.7-.468,17.029-4.692a.479.479,0,0,0,0-.924L223.828,8.141l1.7-.467a4.856,4.856,0,0,1,2.557,0L246.823,12.8A.479.479,0,0,1,246.823,13.724Z" transform="translate(-223.828 -7.503)" fill="#465a61"/>
      </g>
      <g id="Grupo_1203278" data-name="Grupo 1203278" transform="translate(120.691 20.313)">
        <circle id="Elipse_12611" data-name="Elipse 12611" cx="2.38" cy="2.38" r="2.38" fill="#8d9ca8"/>
      </g>
      <g id="Grupo_1203279" data-name="Grupo 1203279" transform="translate(120.989 20.328)">
        <path id="Trazado_1043031" data-name="Trazado 1043031" d="M393.4,160.2a2.38,2.38,0,0,1-4.462,1.151,2.27,2.27,0,0,0,.262.015,2.38,2.38,0,0,0,2.38-2.38,2.354,2.354,0,0,0-.3-1.151A2.378,2.378,0,0,1,393.4,160.2Z" transform="translate(-388.939 -157.835)" fill="#7a8c98"/>
      </g>
      <g id="Grupo_1203280" data-name="Grupo 1203280" transform="translate(85.707 35.61)">
        <path id="Trazado_1043032" data-name="Trazado 1043032" d="M146.828,300.9H117.169a2.17,2.17,0,0,1-2.17-2.17V279.278a2.787,2.787,0,0,1,2.787-2.787h28.425A2.787,2.787,0,0,1,149,279.278v19.447A2.171,2.171,0,0,1,146.828,300.9Z" transform="translate(-114.999 -276.491)" fill="#c5d3dd"/>
      </g>
      <g id="Grupo_1203281" data-name="Grupo 1203281" transform="translate(114.253 35.61)">
        <path id="Trazado_1043033" data-name="Trazado 1043033" d="M342.094,279.277v19.447a2.171,2.171,0,0,1-2.17,2.171h-2.666a2.171,2.171,0,0,0,2.17-2.171V279.277a2.786,2.786,0,0,0-2.787-2.787h2.666A2.787,2.787,0,0,1,342.094,279.277Z" transform="translate(-336.641 -276.49)" fill="#b6c4cf"/>
      </g>
      <g id="Grupo_1203282" data-name="Grupo 1203282" transform="translate(83.041 60.015)">
        <path id="Trazado_1043034" data-name="Trazado 1043034" d="M131.582,471H96.348a2.049,2.049,0,0,1-2.049-2.049v-2.263a.709.709,0,0,1,.708-.708h37.915a.709.709,0,0,1,.708.708v2.263A2.049,2.049,0,0,1,131.582,471Z" transform="translate(-94.299 -465.977)" fill="#8d9ca8"/>
      </g>
      <g id="Grupo_1203283" data-name="Grupo 1203283" transform="translate(117.657 60.015)">
        <path id="Trazado_1043035" data-name="Trazado 1043035" d="M367.786,466.688v2.263A2.049,2.049,0,0,1,365.737,471h-2.666a2.049,2.049,0,0,0,2.049-2.049v-2.263a.708.708,0,0,0-.708-.708h2.666A.708.708,0,0,1,367.786,466.688Z" transform="translate(-363.071 -465.98)" fill="#7a8c98"/>
      </g>
      <g id="Grupo_1203284" data-name="Grupo 1203284" transform="translate(99.29 44.395)">
        <circle id="Elipse_12612" data-name="Elipse 12612" cx="3.417" cy="3.417" r="3.417" transform="translate(0)" fill="#f9f7f8"/>
      </g>
      <g id="Grupo_1203285" data-name="Grupo 1203285" transform="translate(99.621 44.525)">
        <path id="Trazado_1043036" data-name="Trazado 1043036" d="M229.534,349a3.417,3.417,0,0,1-6.5,1.468,3.368,3.368,0,0,0,.931.13,3.418,3.418,0,0,0,3.418-3.417,3.378,3.378,0,0,0-.332-1.468A3.416,3.416,0,0,1,229.534,349Z" transform="translate(-223.031 -345.71)" fill="#efedef"/>
      </g>
      <g id="Grupo_1203286" data-name="Grupo 1203286" transform="translate(81.377 0)">
        <path id="Trazado_1043037" data-name="Trazado 1043037" d="M205.579,174.965a.966.966,0,0,0-.966.966v2.115a.966.966,0,0,0,1.932,0v-2.115A.966.966,0,0,0,205.579,174.965Z" transform="translate(-188.741 -152.431)"/>
        <path id="Trazado_1043038" data-name="Trazado 1043038" d="M275.337,179.011a.966.966,0,0,0,.966-.966v-2.115a.966.966,0,0,0-1.932,0v2.115A.966.966,0,0,0,275.337,179.011Z" transform="translate(-249.515 -152.431)"/>
        <path id="Trazado_1043039" data-name="Trazado 1043039" d="M224.58,225.963a.966.966,0,0,0-1.705.908,3.412,3.412,0,0,0,6.011.025.966.966,0,0,0-1.7-.922,1.48,1.48,0,0,1-2.608-.011Z" transform="translate(-204.552 -196.414)"/>
        <path id="Trazado_1043040" data-name="Trazado 1043040" d="M119.726,22.693a3.346,3.346,0,1,0,4.312-3.2V6.576a.96.96,0,0,0-.2-.581,1.434,1.434,0,0,0-.868-.664L104.24.206a5.812,5.812,0,0,0-3.066,0L82.441,5.332a1.445,1.445,0,0,0,0,2.787L90.5,10.34V21.052a3.506,3.506,0,0,0,.015,7.011h.048a12.157,12.157,0,0,0,2.761,6.581H88.495A3.758,3.758,0,0,0,84.741,38.4v2.832a.966.966,0,1,0,1.932,0V38.4a1.823,1.823,0,0,1,1.821-1.821H116.92a1.824,1.824,0,0,1,1.822,1.821V57.844a1.206,1.206,0,0,1-1.2,1.2H87.878a1.206,1.206,0,0,1-1.2-1.2V45.715a.966.966,0,1,0-1.932,0V57.844a3.119,3.119,0,0,0,.241,1.2H83.75a1.676,1.676,0,0,0-1.674,1.674v2.263A3.019,3.019,0,0,0,85.09,66h27.126a.966.966,0,1,0,0-1.932H85.09a1.084,1.084,0,0,1-1.083-1.083V60.981h37.4v2.006a1.084,1.084,0,0,1-1.083,1.083H116.67a.966.966,0,1,0,0,1.932h3.654a3.019,3.019,0,0,0,3.015-3.015V60.723a1.676,1.676,0,0,0-1.674-1.674h-1.232a3.119,3.119,0,0,0,.241-1.2V38.4a3.758,3.758,0,0,0-3.753-3.753h-4.826a12.155,12.155,0,0,0,2.761-6.581h.048a3.506,3.506,0,0,0,.015-7.011V10.34l7.189-1.981V19.49a3.351,3.351,0,0,0-2.38,3.2ZM90.5,26.132a1.574,1.574,0,0,1,0-3.148Zm24.42-3.148a1.574,1.574,0,0,1,0,3.148Zm-1.932,3.862a10.252,10.252,0,0,1-3.595,7.8H96.025a10.254,10.254,0,0,1-3.6-7.8V20.223l10.278-1.835,10.278,1.835v6.624ZM92.429,18.26V10.872l8.735,2.407a5.809,5.809,0,0,0,3.086,0l8.735-2.407V18.26l-10.108-1.8a.964.964,0,0,0-.339,0Zm11.308-6.843a3.879,3.879,0,0,1-2.06,0L84.661,6.728l17.023-4.658a3.88,3.88,0,0,1,2.046,0L116.671,5.61H103.045a.966.966,0,0,0,0,1.932H117.8Zm19.334,9.862a1.414,1.414,0,1,1-1.414,1.414A1.416,1.416,0,0,1,123.071,21.279Z" transform="translate(-81.377 0)"/>
        <path id="Trazado_1043041" data-name="Trazado 1043041" d="M221.725,341.584a4.383,4.383,0,1,0-4.383,4.383A4.388,4.388,0,0,0,221.725,341.584Zm-6.835,0a2.451,2.451,0,1,1,2.451,2.451A2.454,2.454,0,0,1,214.891,341.584Z" transform="translate(-196.012 -293.772)"/>
      </g>
    </g>
  </g>
</svg>
