<svg xmlns="http://www.w3.org/2000/svg" xmlns:xlink="http://www.w3.org/1999/xlink" width="108" height="108" viewBox="0 0 108 108">
  <defs>
    <filter id="Trazado_904820" x="0" y="0" width="108" height="108" filterUnits="userSpaceOnUse">
      <feOffset dy="3" input="SourceAlpha"/>
      <feGaussianBlur stdDeviation="3" result="blur"/>
      <feFlood flood-opacity="0.161"/>
      <feComposite operator="in" in2="blur"/>
      <feComposite in="SourceGraphic"/>
    </filter>
  </defs>
  <g id="Grupo_1203230" data-name="Grupo 1203230" transform="translate(-621.5 -315.762)">
    <g id="Grupo_1202612" data-name="Grupo 1202612" transform="translate(2.023 -97.425)">
      <g id="Grupo_1177315" data-name="Grupo 1177315" transform="translate(-0.523 -112.813)">
        <g id="Grupo_1173585" data-name="Grupo 1173585" transform="translate(629 532)">
          <g id="Grupo_1173428" data-name="Grupo 1173428" transform="translate(0 0)">
            <g id="Grupo_1171958" data-name="Grupo 1171958">
              <g id="Grupo_1167341" data-name="Grupo 1167341">
                <g id="Grupo_1166792" data-name="Grupo 1166792">
                  <g transform="matrix(1, 0, 0, 1, -9, -6)" filter="url(#Trazado_904820)">
                    <g id="Trazado_904820-2" data-name="Trazado 904820" transform="translate(9 6)" fill="#edf3fc">
                      <path d="M 44.99999618530273 88.49999237060547 C 39.12687301635742 88.49999237060547 33.43022155761719 87.35006713867188 28.06829643249512 85.08216857910156 C 22.88852119445801 82.89130401611328 18.23629570007324 79.75457763671875 14.24084663391113 75.75914001464844 C 10.24540901184082 71.76369476318359 7.108683586120605 67.11146545410156 4.917821407318115 61.93169403076172 C 2.649921178817749 56.56976699829102 1.499996185302734 50.87311553955078 1.499996185302734 44.99999237060547 C 1.499996185302734 39.12686920166016 2.649921178817749 33.43021774291992 4.917821407318115 28.06829261779785 C 7.108683586120605 22.88851737976074 10.24540901184082 18.23630523681641 14.24084663391113 14.24085521697998 C 18.23629570007324 10.24540519714355 22.88852119445801 7.108692169189453 28.06829643249512 4.917829990386963 C 33.43022155761719 2.649929761886597 39.12687301635742 1.500004887580872 44.99999618530273 1.500004887580872 C 50.87311935424805 1.500004887580872 56.56977081298828 2.649929761886597 61.93169784545898 4.917829990386963 C 67.11147308349609 7.108692169189453 71.76369476318359 10.24540519714355 75.75914764404297 14.24085521697998 C 79.75458526611328 18.23630523681641 82.89131164550781 22.88851737976074 85.08216857910156 28.06829261779785 C 87.35007476806641 33.43021774291992 88.5 39.12686920166016 88.5 44.99999237060547 C 88.5 50.87311553955078 87.35007476806641 56.56976699829102 85.08216857910156 61.93169403076172 C 82.89131164550781 67.11146545410156 79.75458526611328 71.76369476318359 75.75914764404297 75.75914001464844 C 71.76369476318359 79.75457763671875 67.11147308349609 82.89130401611328 61.93169784545898 85.08216857910156 C 56.56977081298828 87.35006713867188 50.87311935424805 88.49999237060547 44.99999618530273 88.49999237060547 Z" stroke="none"/>
                      <path d="M 44.99999618530273 2.999992370605469 C 39.32870864868164 2.999992370605469 33.82865142822266 4.11004638671875 28.65262603759766 6.299331665039062 C 23.65165710449219 8.414566040039062 19.15968322753906 11.44333648681641 15.301513671875 15.30150604248047 C 11.44333648681641 19.15967559814453 8.414566040039062 23.65164947509766 6.299339294433594 28.65262222290039 C 4.110054016113281 33.82864761352539 2.999992370605469 39.32870483398438 2.999992370605469 44.99999237060547 C 2.999992370605469 50.67127990722656 4.110054016113281 56.17132186889648 6.299339294433594 61.34736633300781 C 8.414566040039062 66.34833526611328 11.44333648681641 70.84029388427734 15.301513671875 74.69846343994141 C 19.15968322753906 78.55663299560547 23.65165710449219 81.58540344238281 28.65262603759766 83.70063781738281 C 33.82865142822266 85.88992309570312 39.32870864868164 86.99997711181641 44.99999618530273 86.99997711181641 C 50.67128372192383 86.99997711181641 56.17134094238281 85.88992309570312 61.34736633300781 83.70063781738281 C 66.34834289550781 81.58540344238281 70.84030914306641 78.55663299560547 74.69847869873047 74.69846343994141 C 78.55665588378906 70.84029388427734 81.58542633056641 66.34833526611328 83.70065307617188 61.34736633300781 C 85.88993835449219 56.17132186889648 87 50.67127990722656 87 44.99999237060547 C 87 39.32870483398438 85.88993835449219 33.82864761352539 83.70065307617188 28.65262222290039 C 81.58542633056641 23.65164947509766 78.55665588378906 19.15967559814453 74.69847869873047 15.30150604248047 C 70.84030914306641 11.44333648681641 66.34834289550781 8.414566040039062 61.34736633300781 6.299331665039062 C 56.17134094238281 4.11004638671875 50.67128372192383 2.999992370605469 44.99999618530273 2.999992370605469 M 44.99999618530273 -7.62939453125e-06 C 69.85281372070312 -7.62939453125e-06 90 20.14717864990234 90 44.99999237060547 C 90 69.85279083251953 69.85281372070312 89.99997711181641 44.99999618530273 89.99997711181641 C 20.14717864990234 89.99997711181641 -7.62939453125e-06 69.85279083251953 -7.62939453125e-06 44.99999237060547 C -7.62939453125e-06 20.14717864990234 20.14717864990234 -7.62939453125e-06 44.99999618530273 -7.62939453125e-06 Z" stroke="none" fill="#5692e8"/>
                    </g>
                  </g>
                </g>
              </g>
            </g>
          </g>
        </g>
      </g>
    </g>
    <g id="pensar_2_" data-name="pensar (2)" transform="translate(647.813 340.401)">
      <g id="Grupo_1203228" data-name="Grupo 1203228" transform="translate(2.523 1.525)">
        <g id="Grupo_1203224" data-name="Grupo 1203224" transform="translate(0 15.662)">
          <circle id="Elipse_12603" data-name="Elipse 12603" cx="4.059" cy="4.059" r="4.059" transform="translate(0)" fill="#da4a54"/>
          <path id="Trazado_1042495" data-name="Trazado 1042495" d="M30.755,160.96a4.059,4.059,0,1,1-5.461-5.461,4.061,4.061,0,0,0,5.461,5.461Z" transform="translate(-23.078 -155.058)" fill="#c32430"/>
        </g>
        <g id="Grupo_1203225" data-name="Grupo 1203225" transform="translate(42.709)">
          <circle id="Elipse_12604" data-name="Elipse 12604" cx="4.661" cy="4.661" r="4.661" fill="#f4dd45"/>
        </g>
        <g id="Grupo_1203227" data-name="Grupo 1203227" transform="translate(4.302 16.008)">
          <path id="Trazado_1042496" data-name="Trazado 1042496" d="M104.812,176.1a21.192,21.192,0,1,0-42.38,0c0,11.861,9.487,12.756,21.19,12.756S104.812,187.966,104.812,176.1Z" transform="translate(-62.432 -154.629)" fill="#665e66"/>
          <path id="Trazado_1042497" data-name="Trazado 1042497" d="M83.344,188.862c-11.574-.014-20.912-.988-20.912-12.755a21.335,21.335,0,0,1,21.19-21.475c-5.956,0-10.784,9.615-10.784,21.475C72.838,187.783,77.517,188.833,83.344,188.862Z" transform="translate(-62.432 -154.632)" fill="#454045"/>
          <path id="Trazado_1042498" data-name="Trazado 1042498" d="M146.945,243.685a8.518,8.518,0,0,1-8.113,8.075q-5.638.267-11.276.107h-.007q-1.43-.04-2.859-.107a8.517,8.517,0,0,1-8.112-8.075q-.248-4.824-.04-9.649h0q.063-1.5.172-3.006c.695-3.3,3.415-6.122,7.214-7.776.112-.048.225-.1.339-.144a19.2,19.2,0,0,1,5.055-1.283,20.878,20.878,0,0,1,7.7.531h0c5.127,1.363,8.959,4.667,9.8,8.682a0,0,0,0,0,0,0A102.72,102.72,0,0,1,146.945,243.685Z" transform="translate(-110.538 -214.353)" fill="#f1d0a5"/>
          <path id="Trazado_1042499" data-name="Trazado 1042499" d="M127.557,263.485h-.007q-1.43-.04-2.859-.107a8.517,8.517,0,0,1-8.112-8.075,102.609,102.609,0,0,1,.132-12.656c.695-3.3,3.415-6.122,7.214-7.776.112-.048.225-.1.339-.144-.26,6.352-.322,15.553-.189,20.755C124.178,259.48,125.639,262.74,127.557,263.485Z" transform="translate(-110.539 -225.97)" fill="#f1b986"/>
          <path id="Trazado_1042500" data-name="Trazado 1042500" d="M137.79,222.358h0c-2.525,4.33-8.578,10.022-10.987,8.663-.881-.5-.766-1.524-.269-2.627a19.555,19.555,0,0,1-3.761,4.619c-1.62,1.365-3.572,2.213-5.462,1.023h0q.063-1.5.172-3.006c.695-3.3,3.415-6.122,7.214-7.776.112-.048.225-.1.339-.144a19.2,19.2,0,0,1,5.055-1.283,20.879,20.879,0,0,1,7.7.531Z" transform="translate(-111.312 -214.353)" fill="#665e66"/>
          <path id="Trazado_1042501" data-name="Trazado 1042501" d="M122.775,233.013c-1.62,1.365-3.572,2.213-5.462,1.023h0q.063-1.5.172-3.006c.695-3.3,3.415-6.122,7.214-7.776.112-.048.225-.1.339-.144a19.2,19.2,0,0,1,5.055-1.283,20.559,20.559,0,0,1,2.443-.143C127.246,223.53,116.322,233.013,122.775,233.013Z" transform="translate(-111.313 -214.353)" fill="#454045"/>
          <g id="Grupo_1203226" data-name="Grupo 1203226" transform="translate(9.148 25.455)">
            <ellipse id="Elipse_12605" data-name="Elipse 12605" cx="2.592" cy="1.644" rx="2.592" ry="1.644" fill="#df9380"/>
            <ellipse id="Elipse_12606" data-name="Elipse 12606" cx="2.592" cy="1.644" rx="2.592" ry="1.644" transform="translate(18.966)" fill="#f9a58e"/>
          </g>
          <path id="Trazado_1042502" data-name="Trazado 1042502" d="M147.76,204.613a8.13,8.13,0,0,1-.146,1.54c-1.029-5.359-7.386-9.485-15.077-9.485a20.573,20.573,0,0,0-2.443.143,19.211,19.211,0,0,0-4.759,1.165q-.322.124-.636.261c-3.851,1.677-6.594,4.552-7.241,7.911a8.152,8.152,0,0,1-.145-1.535c0-4.01,2.96-7.519,7.386-9.445q.687-.3,1.42-.546a19.419,19.419,0,0,1,3.974-.883,20.554,20.554,0,0,1,2.443-.142C140.944,193.6,147.76,198.53,147.76,204.613Z" transform="translate(-111.313 -189.338)" fill="#80b4fb"/>
          <path id="Trazado_1042503" data-name="Trazado 1042503" d="M126.12,202.972l-.784,3.354q-.322.124-.636.261c-3.851,1.677-6.594,4.552-7.241,7.911a8.153,8.153,0,0,1-.145-1.535c0-4.01,2.96-7.519,7.386-9.445Q125.387,203.218,126.12,202.972Z" transform="translate(-111.314 -197.687)" fill="#5490f9"/>
        </g>
      </g>
      <g id="Grupo_1203229" data-name="Grupo 1203229" transform="translate(0 0.705)">
        <path id="Trazado_1042504" data-name="Trazado 1042504" d="M251.45,17.921h2.15l1.546,5.744a.82.82,0,0,0,.775.607h.017a.82.82,0,0,0,.782-.575l3.453-11.036h4.9a.82.82,0,0,0,0-1.64h-5.5a.82.82,0,0,0-.783.575L256,20.517l-.977-3.629a.82.82,0,0,0-.792-.607H251.45a.82.82,0,0,0,0,1.64Z" transform="translate(-223.23 -9.892)"/>
        <path id="Trazado_1042505" data-name="Trazado 1042505" d="M337.145,55.755c-1.375,1.964-2.195,3.038-2.636,3.615-.538.705-.74.969-.6,1.433a.861.861,0,0,0,.561.567,7.464,7.464,0,0,0,1.89.078c.658,0,1.558-.006,2.8-.022a.82.82,0,0,0-.021-1.64c-1.005.013-2.078.021-2.9.02.489-.648,1.215-1.631,2.251-3.111a6.424,6.424,0,0,0,1.048-2.166.8.8,0,0,0,.015-.081l.043-.335a.8.8,0,0,0,.007-.1,3.037,3.037,0,0,0-6.017-.588.82.82,0,0,0,1.609.316,1.4,1.4,0,0,1,2.768.226l-.03.234A4.934,4.934,0,0,1,337.145,55.755Z" transform="translate(-297.101 -45.477)"/>
        <path id="Trazado_1042506" data-name="Trazado 1042506" d="M4.944,139.565a4.878,4.878,0,0,0,6.233-6.233c2.422-3.085,2.158-4.078,1.64-4.6s-1.512-.782-4.6,1.639a4.877,4.877,0,0,0-6.233,6.233c-2.422,3.085-2.158,4.079-1.64,4.6a1.129,1.129,0,0,0,.848.348c.687,0,1.8-.459,3.749-1.988Zm3.929-2.3a3.229,3.229,0,0,1-2.316.947c.557-.5,1.122-1.032,1.676-1.586s1.088-1.119,1.586-1.676a3.23,3.23,0,0,1-.947,2.316Zm2.38-6.961a12.019,12.019,0,0,1-.967,1.5c-.081-.094-.164-.186-.253-.275s-.182-.173-.276-.253A12,12,0,0,1,11.253,130.3Zm-6.961,2.38a3.236,3.236,0,0,1,4.946.436c-.644.763-1.383,1.565-2.164,2.345s-1.583,1.52-2.346,2.164a3.236,3.236,0,0,1-.436-4.946Zm-1.413,5.465c.081.094.164.187.253.276s.181.173.275.253a12.036,12.036,0,0,1-1.5.968A12.015,12.015,0,0,1,2.879,138.145Z" transform="translate(0 -114.43)"/>
        <path id="Trazado_1042507" data-name="Trazado 1042507" d="M431.4,128.518l-.009-.023a1.022,1.022,0,0,0-.948-.635h0a1.022,1.022,0,0,0-.948.637l-.007.019-3.405,8.941a.82.82,0,1,0,1.532.584l.647-1.7H432.6l.64,1.7a.82.82,0,1,0,1.534-.579Zm-2.515,6.184,1.555-4.083,1.541,4.083Z" transform="translate(-379.45 -113.959)"/>
        <path id="Trazado_1042508" data-name="Trazado 1042508" d="M466.377,248.426a.82.82,0,0,0-1.16,0l-.395.395-.395-.395a.82.82,0,1,0-1.16,1.159l.395.395-.395.395a.82.82,0,1,0,1.16,1.159l.395-.395.395.395a.82.82,0,0,0,1.16-1.159l-.395-.395.395-.395A.82.82,0,0,0,466.377,248.426Z" transform="translate(-412.408 -221.131)"/>
        <path id="Trazado_1042509" data-name="Trazado 1042509" d="M217.5,98.1a.82.82,0,0,0,1.159,0l.395-.395.395.395a.82.82,0,1,0,1.159-1.159l-.395-.395.395-.395A.82.82,0,1,0,219.45,95l-.395.395L218.661,95a.82.82,0,0,0-1.159,1.159l.395.395-.395.395A.82.82,0,0,0,217.5,98.1Z" transform="translate(-193.509 -84.473)"/>
        <path id="Trazado_1042510" data-name="Trazado 1042510" d="M12.122,267.681a.82.82,0,0,0-1.159,0l-.395.395-.395-.395a.82.82,0,0,0-1.159,1.159l.395.395-.395.395a.82.82,0,1,0,1.159,1.16l.395-.395.395.395a.82.82,0,1,0,1.159-1.16l-.395-.395.395-.395A.82.82,0,0,0,12.122,267.681Z" transform="translate(-7.814 -238.281)"/>
        <path id="Trazado_1042511" data-name="Trazado 1042511" d="M84.227,46.208h1.581v1.581a.82.82,0,1,0,1.64,0V46.208h1.581a.82.82,0,0,0,0-1.64H87.448V42.988a.82.82,0,0,0-1.64,0v1.581H84.227a.82.82,0,1,0,0,1.64Z" transform="translate(-74.289 -37.635)"/>
        <path id="Trazado_1042512" data-name="Trazado 1042512" d="M411.727,11.667a5.481,5.481,0,1,0-5.481-5.481A5.487,5.487,0,0,0,411.727,11.667Zm0-9.322a3.841,3.841,0,1,1-3.841,3.841A3.846,3.846,0,0,1,411.727,2.345Z" transform="translate(-361.834 -0.705)"/>
        <path id="Trazado_1042513" data-name="Trazado 1042513" d="M449.7,25.876h1.227a.82.82,0,1,0,0-1.64h-.407V22.711a.82.82,0,0,0-1.64,0v2.345A.82.82,0,0,0,449.7,25.876Z" transform="translate(-399.809 -19.575)"/>
        <path id="Trazado_1042514" data-name="Trazado 1042514" d="M24.317,10.663H26.45L24.845,14a.82.82,0,1,0,1.478.71l2.17-4.513a.82.82,0,0,0-.739-1.175H25.621l1.6-3.338a.82.82,0,1,0-1.478-.71l-2.17,4.513a.82.82,0,0,0,.739,1.175Z" transform="translate(-20.928 -4.094)"/>
        <path id="Trazado_1042515" data-name="Trazado 1042515" d="M157.742,23.787h0s2.155-.01,2.749-.01a2.99,2.99,0,0,0,1.737-5.424,2.674,2.674,0,0,0-2.146-4.272h-2.343a.82.82,0,0,0-.82.82v8.066a.82.82,0,0,0,.82.82Zm2.752-1.649c-.353,0-1.255,0-1.932.006V19.438l.674,0h1.259a1.351,1.351,0,1,1,0,2.7Zm-.409-6.417a1.036,1.036,0,1,1,0,2.072l-.855,0h-.668V15.721Z" transform="translate(-139.767 -12.619)"/>
        <path id="Trazado_1042516" data-name="Trazado 1042516" d="M91.076,152.339a.82.82,0,0,0-1.062,1.249,20.738,20.738,0,0,1,7.294,15.838c0,4.575-1.457,7.631-4.55,9.47a9.477,9.477,0,0,0,.215-1.572,103.807,103.807,0,0,0-.113-12.445,8.949,8.949,0,0,0,.154-1.654c0-3.212-1.7-6.214-4.8-8.453a19.268,19.268,0,0,0-11.246-3.382,21.443,21.443,0,0,0-2.538.148,19.82,19.82,0,0,0-5.627,1.491,14.734,14.734,0,0,0-5.666,4.181,9.612,9.612,0,0,0-2.213,6.016,9.01,9.01,0,0,0,.154,1.656c-.177,2.569-.261,5.156-.246,7.7a.82.82,0,0,0,.82.815h0a.82.82,0,0,0,.815-.825c-.007-1.225.01-2.461.048-3.7a4.159,4.159,0,0,0,1.116.153,4.656,4.656,0,0,0,1.137-.145c2.15-.54,4.078-2.542,5.348-4.182a2.135,2.135,0,0,0,.712.639c1.815,1.025,4.472-.676,6.381-2.285a28.211,28.211,0,0,0,5.382-6.129c4.476,1.356,7.845,4.278,8.611,7.842a102.161,102.161,0,0,1,.126,12.479,7.677,7.677,0,0,1-7.333,7.3c-4.666.221-9.4.221-14.065,0a7.674,7.674,0,0,1-7.331-7.3c-.027-.53-.047-1-.063-1.423a.82.82,0,0,0-1.639.06c.016.435.037.908.064,1.446a9.47,9.47,0,0,0,.225,1.616c-3.145-1.835-4.626-4.9-4.626-9.514a20.538,20.538,0,0,1,20.37-20.656,20.118,20.118,0,0,1,10.535,2.974.82.82,0,1,0,.858-1.4,21.758,21.758,0,0,0-11.393-3.216,22.179,22.179,0,0,0-22.01,22.3c0,5.934,2.317,9.776,7.078,11.736a9.308,9.308,0,0,0,7.855,5.013c2.359.112,4.734.167,7.11.167s4.751-.056,7.109-.167a9.311,9.311,0,0,0,7.875-5.048c4.7-1.971,6.993-5.8,6.993-11.7A22.376,22.376,0,0,0,91.076,152.339ZM76.16,161.794c-2.446,2.06-3.962,2.425-4.518,2.111-.337-.19-.311-.722.077-1.579a.82.82,0,0,0-1.46-.743,20.666,20.666,0,0,1-1.849,2.627,8.616,8.616,0,0,1-4.036,3.077,2.676,2.676,0,0,1-1.783-.13q.058-1.206.143-2.411c.643-2.96,3.083-5.556,6.726-7.143a18.2,18.2,0,0,1,5.165-1.365,20.088,20.088,0,0,1,6.292.257A27.221,27.221,0,0,1,76.16,161.794Zm11.287-4.472a19.743,19.743,0,0,0-10.476-2.86,21.458,21.458,0,0,0-2.538.148,19.833,19.833,0,0,0-5.627,1.49,14.765,14.765,0,0,0-5.558,4.038,8.958,8.958,0,0,1,1.173-1.9,13.1,13.1,0,0,1,5.039-3.7,18.187,18.187,0,0,1,5.165-1.366,19.818,19.818,0,0,1,2.346-.136c6.443,0,11.911,3.01,13.747,7.147a13.643,13.643,0,0,0-3.27-2.856Z" transform="translate(-48.922 -131.123)"/>
        <path id="Trazado_1042517" data-name="Trazado 1042517" d="M224.515,404.355a4.285,4.285,0,0,0,3.854-2.437.82.82,0,1,0-1.482-.7,2.626,2.626,0,0,1-4.745,0,.82.82,0,1,0-1.481.7A4.286,4.286,0,0,0,224.515,404.355Z" transform="translate(-196.466 -357.012)"/>
        <path id="Trazado_1042518" data-name="Trazado 1042518" d="M302.864,343.125a.816.816,0,0,0,1.119.294,4.8,4.8,0,0,1,3.1-.332.82.82,0,0,0,.31-1.61,7.259,7.259,0,0,0-1.441-.133,2.819,2.819,0,0,0,.213-1.093c0-1.135-.619-2.058-1.381-2.058s-1.381.923-1.381,2.058a2.633,2.633,0,0,0,.409,1.46,4.135,4.135,0,0,0-.656.289A.823.823,0,0,0,302.864,343.125Z" transform="translate(-269.654 -301.299)"/>
        <path id="Trazado_1042519" data-name="Trazado 1042519" d="M162.476,341.476a.82.82,0,0,0,.31,1.61,4.8,4.8,0,0,1,3.1.331.82.82,0,0,0,.824-1.418,4.149,4.149,0,0,0-.656-.289,2.633,2.633,0,0,0,.409-1.46c0-1.135-.619-2.058-1.381-2.058s-1.381.923-1.381,2.058a2.82,2.82,0,0,0,.213,1.093A7.266,7.266,0,0,0,162.476,341.476Z" transform="translate(-144.122 -301.298)"/>
      </g>
    </g>
  </g>
</svg>
