<svg xmlns="http://www.w3.org/2000/svg" xmlns:xlink="http://www.w3.org/1999/xlink" width="108" height="108" viewBox="0 0 108 108">
  <defs>
    <filter id="Trazado_904820" x="0" y="0" width="108" height="108" filterUnits="userSpaceOnUse">
      <feOffset dy="3" input="SourceAlpha"/>
      <feGaussianBlur stdDeviation="3" result="blur"/>
      <feFlood flood-opacity="0.161"/>
      <feComposite operator="in" in2="blur"/>
      <feComposite in="SourceGraphic"/>
    </filter>
  </defs>
  <g id="Grupo_1203639" data-name="Grupo 1203639" transform="translate(-620 -800)">
    <g id="Grupo_1202437" data-name="Grupo 1202437" transform="translate(0.523 386.813)">
      <g id="Grupo_1177315" data-name="Grupo 1177315" transform="translate(-0.523 -112.813)">
        <g id="Grupo_1173585" data-name="Grupo 1173585" transform="translate(629 532)">
          <g id="Grupo_1173428" data-name="Grupo 1173428" transform="translate(0 0)">
            <g id="Grupo_1171958" data-name="Grupo 1171958">
              <g id="Grupo_1167341" data-name="Grupo 1167341">
                <g id="Grupo_1166792" data-name="Grupo 1166792">
                  <g transform="matrix(1, 0, 0, 1, -9, -6)" filter="url(#Trazado_904820)">
                    <g id="Trazado_904820-2" data-name="Trazado 904820" transform="translate(9 6)" fill="#fdfbec">
                      <path d="M 44.99999618530273 88.49999237060547 C 39.12687301635742 88.49999237060547 33.43022155761719 87.35006713867188 28.06829643249512 85.08216857910156 C 22.88852119445801 82.89130401611328 18.23629570007324 79.75457763671875 14.24084663391113 75.75914001464844 C 10.24540901184082 71.76369476318359 7.108683586120605 67.11146545410156 4.917821407318115 61.93169403076172 C 2.649921178817749 56.56976699829102 1.499996185302734 50.87311553955078 1.499996185302734 44.99999237060547 C 1.499996185302734 39.12686920166016 2.649921178817749 33.43021774291992 4.917821407318115 28.06829261779785 C 7.108683586120605 22.88851737976074 10.24540901184082 18.23630523681641 14.24084663391113 14.24085521697998 C 18.23629570007324 10.24540519714355 22.88852119445801 7.108692169189453 28.06829643249512 4.917829990386963 C 33.43022155761719 2.649929761886597 39.12687301635742 1.500004887580872 44.99999618530273 1.500004887580872 C 50.87311935424805 1.500004887580872 56.56977081298828 2.649929761886597 61.93169784545898 4.917829990386963 C 67.11147308349609 7.108692169189453 71.76369476318359 10.24540519714355 75.75914764404297 14.24085521697998 C 79.75458526611328 18.23630523681641 82.89131164550781 22.88851737976074 85.08216857910156 28.06829261779785 C 87.35007476806641 33.43021774291992 88.5 39.12686920166016 88.5 44.99999237060547 C 88.5 50.87311553955078 87.35007476806641 56.56976699829102 85.08216857910156 61.93169403076172 C 82.89131164550781 67.11146545410156 79.75458526611328 71.76369476318359 75.75914764404297 75.75914001464844 C 71.76369476318359 79.75457763671875 67.11147308349609 82.89130401611328 61.93169784545898 85.08216857910156 C 56.56977081298828 87.35006713867188 50.87311935424805 88.49999237060547 44.99999618530273 88.49999237060547 Z" stroke="none"/>
                      <path d="M 44.99999618530273 2.999992370605469 C 39.32870864868164 2.999992370605469 33.82865142822266 4.11004638671875 28.65262603759766 6.299331665039062 C 23.65165710449219 8.414566040039062 19.15968322753906 11.44333648681641 15.301513671875 15.30150604248047 C 11.44333648681641 19.15967559814453 8.414566040039062 23.65164947509766 6.299339294433594 28.65262222290039 C 4.110054016113281 33.82864761352539 2.999992370605469 39.32870483398438 2.999992370605469 44.99999237060547 C 2.999992370605469 50.67127990722656 4.110054016113281 56.17132186889648 6.299339294433594 61.34736633300781 C 8.414566040039062 66.34833526611328 11.44333648681641 70.84029388427734 15.301513671875 74.69846343994141 C 19.15968322753906 78.55663299560547 23.65165710449219 81.58540344238281 28.65262603759766 83.70063781738281 C 33.82865142822266 85.88992309570312 39.32870864868164 86.99997711181641 44.99999618530273 86.99997711181641 C 50.67128372192383 86.99997711181641 56.17134094238281 85.88992309570312 61.34736633300781 83.70063781738281 C 66.34834289550781 81.58540344238281 70.84030914306641 78.55663299560547 74.69847869873047 74.69846343994141 C 78.55665588378906 70.84029388427734 81.58542633056641 66.34833526611328 83.70065307617188 61.34736633300781 C 85.88993835449219 56.17132186889648 87 50.67127990722656 87 44.99999237060547 C 87 39.32870483398438 85.88993835449219 33.82864761352539 83.70065307617188 28.65262222290039 C 81.58542633056641 23.65164947509766 78.55665588378906 19.15967559814453 74.69847869873047 15.30150604248047 C 70.84030914306641 11.44333648681641 66.34834289550781 8.414566040039062 61.34736633300781 6.299331665039062 C 56.17134094238281 4.11004638671875 50.67128372192383 2.999992370605469 44.99999618530273 2.999992370605469 M 44.99999618530273 -7.62939453125e-06 C 69.85281372070312 -7.62939453125e-06 90 20.14717864990234 90 44.99999237060547 C 90 69.85279083251953 69.85281372070312 89.99997711181641 44.99999618530273 89.99997711181641 C 20.14717864990234 89.99997711181641 -7.62939453125e-06 69.85279083251953 -7.62939453125e-06 44.99999237060547 C -7.62939453125e-06 20.14717864990234 20.14717864990234 -7.62939453125e-06 44.99999618530273 -7.62939453125e-06 Z" stroke="none" fill="#83793c"/>
                    </g>
                  </g>
                </g>
              </g>
            </g>
          </g>
        </g>
      </g>
    </g>
    <g id="international-literacy-day_1_" data-name="international-literacy-day (1)" transform="translate(643.104 816.319)">
      <g id="Grupo_1203637" data-name="Grupo 1203637" transform="translate(1.206 1.21)">
        <path id="Trazado_1042619" data-name="Trazado 1042619" d="M36,385.425c8.769-2.947,18.643-5.93,26.551.172,7.908-6.1,17.782-3.119,26.551-.172v-5.687c-8.367-2.242-19.26-7.292-26.551,0-7.292-7.292-18.184-2.242-26.551,0Z" transform="translate(-32.864 -331.776)" fill="#e8eaf0" fill-rule="evenodd"/>
        <path id="Trazado_1042620" data-name="Trazado 1042620" d="M39.691,430.04c-7.908-6.1-17.782-3.119-26.551-.171-1.064.358-2.112.715-3.138,1.055l1.249,4.674c8.082-2.165,19.815-7.537,26.728-.624H41.4c6.912-6.912,18.646-1.541,26.728.624l1.249-4.674c-1.026-.34-2.074-.7-3.138-1.055C57.473,426.922,47.6,423.939,39.691,430.04Z" transform="translate(-10.002 -376.219)" fill="#b278d3" fill-rule="evenodd"/>
        <path id="Trazado_1042621" data-name="Trazado 1042621" d="M276.683,31.434a19.914,19.914,0,0,0-18.954-21.259v.031c.836,1.917-2.79,4.825.863,6.976,1.879,1.107,1.8,2.294-.038,2.786a1.863,1.863,0,0,0,.032,3.7c4.582,0,2.6,4.3,4.4,6.713.979,1.311,3.347,1.748,3.635-.1.471-3.03,1.759-1.822,3.156-2.4,2.034-.847,1.377,2.523,3.327,3.649a3.827,3.827,0,0,0,3.4-.04Z" transform="translate(-227.127 -10.154)" fill="#cbe558" fill-rule="evenodd"/>
        <path id="Trazado_1042622" data-name="Trazado 1042622" d="M113.055,23.513a1.863,1.863,0,0,1-.032-3.7c1.838-.492,1.917-1.679.038-2.786-3.653-2.152-.028-5.059-.863-6.976v-.031A19.914,19.914,0,0,0,91.422,28.494h.316c2.25-.572,2.952.788,4.143-.889.636-.9,1.678-2.1,2.822-1.8a1.683,1.683,0,0,1,1.085,2.189c-.288,1.419-.27,2.992,1.13,3.26,1.526.292,2.235-1.6,3.556-2.922a2.024,2.024,0,0,1,3.507,1.691c-.1,1.545-.9,2.472-2.469,3.82a9.219,9.219,0,0,0-2.952,3.546c-.934,2.38-3.153,5.8-4.757,6.725l-.237.237a19.914,19.914,0,0,0,33.583-13.07l-.179.048a3.827,3.827,0,0,1-3.4.04c-1.95-1.126-1.294-4.5-3.327-3.649-1.4.582-2.685-.626-3.156,2.4-.287,1.85-2.656,1.412-3.635.1-1.8-2.414.181-6.713-4.4-6.713Z" transform="translate(-81.596 -10.002)" fill="#66e0f7" fill-rule="evenodd"/>
        <path id="Trazado_1042623" data-name="Trazado 1042623" d="M107.612,144.823a2.024,2.024,0,0,0-3.507-1.691c-1.321,1.321-2.031,3.214-3.556,2.922-1.4-.268-1.419-1.841-1.13-3.26a1.683,1.683,0,0,0-1.085-2.189c-1.144-.3-2.186.9-2.822,1.8-1.192,1.677-1.893.316-4.143.889h-.316a19.868,19.868,0,0,0,5.782,15.5q.181.181.365.356l.237-.237c1.6-.926,3.823-4.344,4.757-6.725a9.219,9.219,0,0,1,2.952-3.546C106.709,147.3,107.517,146.369,107.612,144.823Z" transform="translate(-81.225 -124.801)" fill="#cbe558" fill-rule="evenodd"/>
      </g>
      <g id="Grupo_1203638" data-name="Grupo 1203638" transform="translate(-0.001 0.003)">
        <path id="Trazado_1042624" data-name="Trazado 1042624" d="M60.964,376.542c-.672-.223-1.353-.453-2.042-.685l-.269-.091v-4.82a1.207,1.207,0,0,0-.895-1.166c-1.263-.339-2.576-.739-3.966-1.164-3.771-1.151-8.046-2.456-12.109-2.651A14.748,14.748,0,0,0,30.9,369.3a14.746,14.746,0,0,0-10.788-3.336c-4.063.194-8.337,1.5-12.109,2.651-1.39.424-2.7.825-3.966,1.164a1.207,1.207,0,0,0-.895,1.166v4.82l-.274.093c-.687.232-1.367.461-2.037.684A1.207,1.207,0,0,0,.04,378l1.249,4.674a1.207,1.207,0,0,0,1.478.854c1.326-.355,2.725-.788,4.206-1.246a54.554,54.554,0,0,1,11.68-2.7c4.192-.3,7.357.689,9.676,3.007a1.207,1.207,0,0,0,.853.354h3.425a1.207,1.207,0,0,0,.853-.354c2.319-2.319,5.485-3.3,9.676-3.007a54.552,54.552,0,0,1,11.68,2.7c1.481.458,2.879.891,4.206,1.246a1.207,1.207,0,0,0,1.478-.854L61.75,378a1.207,1.207,0,0,0-.786-1.457Zm-7.877-5.617c1.09.333,2.133.651,3.152.94v3.094a55.036,55.036,0,0,0-11.705-2.785A20.041,20.041,0,0,0,32.1,374.536v-3.075h0C37.753,366.244,45.891,368.728,53.088,370.925Zm5.4,9.945c-.941-.273-1.927-.578-2.954-.9-7.631-2.361-17.093-5.288-23.409.555H29.669c-6.316-5.843-15.778-2.916-23.409-.555-1.026.318-2.013.623-2.954.9l-.641-2.4.97-.327c2.442-.824,4.966-1.677,7.509-2.355a1.207,1.207,0,1,0-.622-2.332c-1.682.449-3.342.967-4.971,1.5v-3.095c1.019-.289,2.062-.607,3.152-.94,7.2-2.2,15.336-4.681,20.986.535h0v3.073a18.255,18.255,0,0,0-8.02-2.427,1.207,1.207,0,1,0-.182,2.407,15.681,15.681,0,0,1,8.672,3.247,1.207,1.207,0,0,0,1.475,0c7.726-5.961,17.709-2.59,26.517.384l.975.329Z" transform="translate(0.001 -321.777)"/>
        <path id="Trazado_1042625" data-name="Trazado 1042625" d="M125.04,418.733h0a1.207,1.207,0,1,0,1.208,1.207A1.206,1.206,0,0,0,125.039,418.733Z" transform="translate(-108.888 -368.198)"/>
        <path id="Trazado_1042626" data-name="Trazado 1042626" d="M102.122,42.243A21.12,21.12,0,0,0,117.057,6.189,21.12,21.12,0,0,0,87.188,36.057,20.983,20.983,0,0,0,102.122,42.243Zm18.706-21.12q0,.241-.006.481a2.1,2.1,0,0,1-1.808-.073,3.078,3.078,0,0,1-1-1.651,3.268,3.268,0,0,0-1.545-2.128,2.3,2.3,0,0,0-1.853.062,2.31,2.31,0,0,1-.772.111c-1.271.05-2.664.345-3.112,3.222-.028.183-.065.192-.112.2a1.619,1.619,0,0,1-1.363-.639,5.562,5.562,0,0,1-.731-2.507c-.263-1.868-.66-4.691-4.637-4.691-.164,0-.394-.253-.436-.568-.018-.135-.072-.545.716-.756,1.812-.485,2.212-1.514,2.29-2.083.1-.743-.155-1.851-1.951-2.909-1.375-.81-1.24-1.426-.648-3.089a9.246,9.246,0,0,0,.455-1.566,18.712,18.712,0,0,1,16.511,18.58ZM88.895,7.9a18.58,18.58,0,0,1,12.982-5.477c-.074.281-.187.6-.288.882-.548,1.539-1.465,4.116,1.7,5.978a3.411,3.411,0,0,1,.628.457,2.6,2.6,0,0,1-.366.124,3.091,3.091,0,0,0-2.484,3.4,2.961,2.961,0,0,0,2.829,2.667c1.8,0,1.962.585,2.247,2.614a7.5,7.5,0,0,0,1.187,3.615,3.978,3.978,0,0,0,3.879,1.537,2.55,2.55,0,0,0,1.915-2.175,2.5,2.5,0,0,1,.342-1.138,2.7,2.7,0,0,1,.48-.043,4.506,4.506,0,0,0,1.551-.272c.086.182.185.451.258.65a5.052,5.052,0,0,0,2.055,2.907,4.147,4.147,0,0,0,2.1.569,4.631,4.631,0,0,0,.675-.051A18.712,18.712,0,0,1,90.264,35.593a20.6,20.6,0,0,0,4.26-6.554,7.445,7.445,0,0,1,2.341-2.84c.1-.082.189-.16.275-.233,1.5-1.293,2.755-2.536,2.886-4.661a3.33,3.33,0,0,0-1.872-3.367,3.293,3.293,0,0,0-3.693.749A13.447,13.447,0,0,0,93.3,20.063c-.69.9-1.027,1.271-1.319,1.215-.131-.025-.156-.061-.172-.085a2.814,2.814,0,0,1,0-1.749,2.885,2.885,0,0,0-1.96-3.6c-1.4-.37-2.782.393-4.114,2.267-.225.316-.335.36-.335.36a2.5,2.5,0,0,1-.544-.041,7.572,7.572,0,0,0-1.236-.088A18.565,18.565,0,0,1,88.895,7.9ZM83.419,20.773a4.532,4.532,0,0,1,1.116.052A2.859,2.859,0,0,0,87.7,19.512c.82-1.154,1.348-1.379,1.53-1.332.29.077.275.468.211.782a4.634,4.634,0,0,0,.363,3.574,2.608,2.608,0,0,0,1.723,1.112c1.806.346,2.851-1.021,3.69-2.12a11.421,11.421,0,0,1,.946-1.134.886.886,0,0,1,.994-.255.965.965,0,0,1,.455,1.018c-.062,1.006-.5,1.646-2.052,2.98l-.255.217a9.6,9.6,0,0,0-3.032,3.8A17.7,17.7,0,0,1,88.5,33.941a18.575,18.575,0,0,1-5.081-12.818q0-.175,0-.35Z" transform="translate(-71.226 -0.003)"/>
      </g>
    </g>
  </g>
</svg>
