<svg xmlns="http://www.w3.org/2000/svg" xmlns:xlink="http://www.w3.org/1999/xlink" width="108" height="108" viewBox="0 0 108 108">
  <defs>
    <filter id="Trazado_904820" x="0" y="0" width="108" height="108" filterUnits="userSpaceOnUse">
      <feOffset dy="3" input="SourceAlpha"/>
      <feGaussianBlur stdDeviation="3" result="blur"/>
      <feFlood flood-opacity="0.161"/>
      <feComposite operator="in" in2="blur"/>
      <feComposite in="SourceGraphic"/>
    </filter>
  </defs>
  <g id="Grupo_1203251" data-name="Grupo 1203251" transform="translate(9 6)">
    <g id="Grupo_1202878" data-name="Grupo 1202878" transform="translate(0 0)">
      <g id="Grupo_1177315" data-name="Grupo 1177315" transform="translate(0 0)">
        <g id="Grupo_1173585" data-name="Grupo 1173585" transform="translate(0 0)">
          <g id="Grupo_1173428" data-name="Grupo 1173428">
            <g id="Grupo_1171958" data-name="Grupo 1171958">
              <g id="Grupo_1167341" data-name="Grupo 1167341">
                <g id="Grupo_1166792" data-name="Grupo 1166792">
                  <g transform="matrix(1, 0, 0, 1, -9, -6)" filter="url(#Trazado_904820)">
                    <g id="Trazado_904820-2" data-name="Trazado 904820" transform="translate(9 6)" fill="#effbfe">
                      <path d="M 44.99999618530273 88.49999237060547 C 39.12687301635742 88.49999237060547 33.43022155761719 87.35006713867188 28.06829643249512 85.08216857910156 C 22.88852119445801 82.89130401611328 18.23629570007324 79.75457763671875 14.24084663391113 75.75914001464844 C 10.24540901184082 71.76369476318359 7.108683586120605 67.11146545410156 4.917821407318115 61.93169403076172 C 2.649921178817749 56.56976699829102 1.499996185302734 50.87311553955078 1.499996185302734 44.99999237060547 C 1.499996185302734 39.12686920166016 2.649921178817749 33.43021774291992 4.917821407318115 28.06829261779785 C 7.108683586120605 22.88851737976074 10.24540901184082 18.23630523681641 14.24084663391113 14.24085521697998 C 18.23629570007324 10.24540519714355 22.88852119445801 7.108692169189453 28.06829643249512 4.917829990386963 C 33.43022155761719 2.649929761886597 39.12687301635742 1.500004887580872 44.99999618530273 1.500004887580872 C 50.87311935424805 1.500004887580872 56.56977081298828 2.649929761886597 61.93169784545898 4.917829990386963 C 67.11147308349609 7.108692169189453 71.76369476318359 10.24540519714355 75.75914764404297 14.24085521697998 C 79.75458526611328 18.23630523681641 82.89131164550781 22.88851737976074 85.08216857910156 28.06829261779785 C 87.35007476806641 33.43021774291992 88.5 39.12686920166016 88.5 44.99999237060547 C 88.5 50.87311553955078 87.35007476806641 56.56976699829102 85.08216857910156 61.93169403076172 C 82.89131164550781 67.11146545410156 79.75458526611328 71.76369476318359 75.75914764404297 75.75914001464844 C 71.76369476318359 79.75457763671875 67.11147308349609 82.89130401611328 61.93169784545898 85.08216857910156 C 56.56977081298828 87.35006713867188 50.87311935424805 88.49999237060547 44.99999618530273 88.49999237060547 Z" stroke="none"/>
                      <path d="M 44.99999618530273 2.999992370605469 C 39.32870864868164 2.999992370605469 33.82865142822266 4.11004638671875 28.65262603759766 6.299331665039062 C 23.65165710449219 8.414566040039062 19.15968322753906 11.44333648681641 15.301513671875 15.30150604248047 C 11.44333648681641 19.15967559814453 8.414566040039062 23.65164947509766 6.299339294433594 28.65262222290039 C 4.110054016113281 33.82864761352539 2.999992370605469 39.32870483398438 2.999992370605469 44.99999237060547 C 2.999992370605469 50.67127990722656 4.110054016113281 56.17132186889648 6.299339294433594 61.34736633300781 C 8.414566040039062 66.34833526611328 11.44333648681641 70.84029388427734 15.301513671875 74.69846343994141 C 19.15968322753906 78.55663299560547 23.65165710449219 81.58540344238281 28.65262603759766 83.70063781738281 C 33.82865142822266 85.88992309570312 39.32870864868164 86.99997711181641 44.99999618530273 86.99997711181641 C 50.67128372192383 86.99997711181641 56.17134094238281 85.88992309570312 61.34736633300781 83.70063781738281 C 66.34834289550781 81.58540344238281 70.84030914306641 78.55663299560547 74.69847869873047 74.69846343994141 C 78.55665588378906 70.84029388427734 81.58542633056641 66.34833526611328 83.70065307617188 61.34736633300781 C 85.88993835449219 56.17132186889648 87 50.67127990722656 87 44.99999237060547 C 87 39.32870483398438 85.88993835449219 33.82864761352539 83.70065307617188 28.65262222290039 C 81.58542633056641 23.65164947509766 78.55665588378906 19.15967559814453 74.69847869873047 15.30150604248047 C 70.84030914306641 11.44333648681641 66.34834289550781 8.414566040039062 61.34736633300781 6.299331665039062 C 56.17134094238281 4.11004638671875 50.67128372192383 2.999992370605469 44.99999618530273 2.999992370605469 M 44.99999618530273 -7.62939453125e-06 C 69.85281372070312 -7.62939453125e-06 90 20.14717864990234 90 44.99999237060547 C 90 69.85279083251953 69.85281372070312 89.99997711181641 44.99999618530273 89.99997711181641 C 20.14717864990234 89.99997711181641 -7.62939453125e-06 69.85279083251953 -7.62939453125e-06 44.99999237060547 C -7.62939453125e-06 20.14717864990234 20.14717864990234 -7.62939453125e-06 44.99999618530273 -7.62939453125e-06 Z" stroke="none" fill="#497f88"/>
                    </g>
                  </g>
                </g>
              </g>
            </g>
          </g>
        </g>
      </g>
    </g>
    <g id="educacion_6_" data-name="educacion (6)" transform="translate(16 17)">
      <g id="Grupo_1203250" data-name="Grupo 1203250" transform="translate(0.973 0.698)">
        <path id="Trazado_1042895" data-name="Trazado 1042895" d="M97.754,233.59a11.178,11.178,0,0,0-.067,8.279l.912,1.786H59.241s-7.328-4.117,0-11.445l39.018-.8Z" transform="translate(-50.745 -206.982)" fill="#f1f2f2"/>
        <path id="Trazado_1042896" data-name="Trazado 1042896" d="M98.6,243.654H59.244s-7.327-4.118,0-11.445l39.018-.8-.506,2.185a10.718,10.718,0,0,0-.556,1.775H61.486a2.508,2.508,0,1,0,0,5.016H97.213a9.635,9.635,0,0,0,.476,1.487Z" transform="translate(-50.748 -206.981)" fill="#dee1e1"/>
        <path id="Trazado_1042897" data-name="Trazado 1042897" d="M81.877,234.618,45.9,234.562c-4.31,0-8.011-2.749-8.011-7.059a9.819,9.819,0,0,1,.146-3.044,7.807,7.807,0,0,1,7.322-5.1H82.265a1.76,1.76,0,1,1,0,3.521H54.332l-2.728.64-2.372-.64H45.358a4.283,4.283,0,0,0,0,8.567H82.265a1.761,1.761,0,0,1,1.748,1.968c-.1.875-1.234,1.2-2.137,1.2Z" transform="translate(-34.619 -196.274)" fill="#b7e546"/>
        <path id="Trazado_1042898" data-name="Trazado 1042898" d="M81.668,270.644A1.76,1.76,0,0,1,79.92,272.2L61.686,273.29,43.013,272.2a7.808,7.808,0,0,1-7.139-10.962v1.6a7.8,7.8,0,0,0,7.8,7.8Z" transform="translate(-32.274 -233.501)" fill="#abd641"/>
        <path id="Trazado_1042899" data-name="Trazado 1042899" d="M146.722,256.224v-5.132h-3.658l-1.3.13.078,4.779a.222.222,0,0,0,.3.207l.918-.224,1.027-.4a.221.221,0,0,1,.162,0l2.166.848A.222.222,0,0,0,146.722,256.224Z" transform="translate(-127.008 -224.483)" fill="#ef5227"/>
        <path id="Trazado_1042900" data-name="Trazado 1042900" d="M141.912,251.1v4.892l-1.14.446a.222.222,0,0,1-.3-.206V251.1Z" transform="translate(-125.857 -224.486)" fill="#d83724"/>
        <path id="Trazado_1042901" data-name="Trazado 1042901" d="M134.793,173.162v2.5l-.111,1.11a.777.777,0,0,1-.777.777l-29.57-.111a.776.776,0,0,1-.777-.777l-.222-3.5,15.18-.725Z" transform="translate(-92.843 -154.556)" fill="#fdcd08"/>
        <path id="Trazado_1042902" data-name="Trazado 1042902" d="M437.888,197.8c-.695,1.712-1.393,3.4-2.088,5.114a1.554,1.554,0,0,0,1.427,2.145l1.284.111h3.124a1.554,1.554,0,0,0,1.427-2.145l-1.449-3.571L440.7,197.8h-2.814Z" transform="translate(-388.315 -177.103)" fill="#fdcd08"/>
        <path id="Trazado_1042903" data-name="Trazado 1042903" d="M438.12,197.739a4.218,4.218,0,0,0,2.607-.631l-.779-1.947-1.287.385h0l-1.678-.224c-.212.523-.52,1.265-.732,1.787h0l-1.448,3.569a1.554,1.554,0,0,0,1.426,2.145H438a1.554,1.554,0,0,1-1.426-2.145l1.082-2.665A.448.448,0,0,1,438.12,197.739Z" transform="translate(-387.429 -174.758)" fill="#faab18"/>
        <path id="Trazado_1042904" data-name="Trazado 1042904" d="M452.414,160.41a2.585,2.585,0,0,0-1.729-2.446c-.261-.09-.64.07-.931.07a2.179,2.179,0,0,0-2.285,2.376,2.257,2.257,0,0,0,2.473,2.285c.291,0,.483.252.744.161a2.585,2.585,0,0,0,1.729-2.446Z" transform="translate(-398.792 -141.664)" fill="#fdcd08"/>
        <path id="Trazado_1042905" data-name="Trazado 1042905" d="M449.269,161.957a2.524,2.524,0,0,1-.832.14,2.586,2.586,0,0,1,0-5.172,2.524,2.524,0,0,1,.832.14,2.595,2.595,0,0,0,0,4.892Z" transform="translate(-397.377 -140.765)" fill="#faab18"/>
        <path id="Trazado_1042906" data-name="Trazado 1042906" d="M64.44,21.485l-7.318,2.534-2-.2L40.92,29.627a4.656,4.656,0,0,1-3.046,0L23.668,24.04l-2-.022-7.319-2.534a.931.931,0,0,1,0-1.76l23.8-8.239a3.807,3.807,0,0,1,2.491,0l23.8,8.239A.931.931,0,0,1,64.44,21.485Z" transform="translate(-13.175 -11.277)" fill="#868491"/>
        <path id="Trazado_1042907" data-name="Trazado 1042907" d="M120.787,82.867v.751l-16.2,5.609a4.655,4.655,0,0,1-3.047,0l-16.2-5.609v-.751a3.264,3.264,0,0,1,2.69-3.215,85.217,85.217,0,0,1,30.072,0,3.267,3.267,0,0,1,2.69,3.215Z" transform="translate(-76.84 -70.877)" fill="#77777f"/>
        <path id="Trazado_1042908" data-name="Trazado 1042908" d="M136.571,98.87v6.616H105.447l-.111-6.394a1.27,1.27,0,0,1,1.045-1.249c.317-.057.412-.334.73-.387a83.194,83.194,0,0,1,28.414.165,1.271,1.271,0,0,1,1.045,1.249Z" transform="translate(-94.621 -86.88)" fill="#868491"/>
        <path id="Trazado_1042909" data-name="Trazado 1042909" d="M134.793,175.664v1.22a.777.777,0,0,1-.777.777h-29.9a.777.777,0,0,1-.777-.777v-3.723l1-.725,1,.725v1.947a.555.555,0,0,0,.555.555Z" transform="translate(-92.843 -154.556)" fill="#faab18"/>
        <path id="Trazado_1042910" data-name="Trazado 1042910" d="M105.333,106.6v8.03h-2v-6.616a1.27,1.27,0,0,1,1.045-1.249C104.7,106.713,105.016,106.657,105.333,106.6Z" transform="translate(-92.843 -96.028)" fill="#77777f"/>
        <path id="Trazado_1042911" data-name="Trazado 1042911" d="M80.6,390.1a10.439,10.439,0,0,1,0-7.99l.338-1.5H35.569s-5.107,5.553.332,10.992l45.334.34Z" transform="translate(-30.662 -339.632)" fill="#f1f2f2"/>
        <path id="Trazado_1042912" data-name="Trazado 1042912" d="M81.234,391.946l-45.334-.34c-5.44-5.439-.332-10.991-.332-10.991l45.588.084-.555,1.415a10.4,10.4,0,0,0-.5,1.513H38.466a2.508,2.508,0,1,0,0,5.016H80.119A10.527,10.527,0,0,0,80.6,390.1Z" transform="translate(-30.661 -339.635)" fill="#dee1e1"/>
        <path id="Trazado_1042913" data-name="Trazado 1042913" d="M63.356,375.253l-41.02-.076c-4.31,0-8.1-2.432-8.1-6.742,0-1.368-.335-3.251.284-4.369a7.8,7.8,0,0,1,6.834-4.033H64.127a1.76,1.76,0,0,1,0,3.521h-10.6l-2.769.613-2.331-.613H21.351a4.283,4.283,0,1,0,0,8.567H64.127a1.762,1.762,0,0,1,1.732,2.078c-.15.82-1.639,1.054-2.5,1.054Z" transform="translate(-13.547 -321.337)" fill="#ef5227"/>
        <path id="Trazado_1042914" data-name="Trazado 1042914" d="M61.08,403.139a1.762,1.762,0,0,1-1.732,1.442H16.573a7.805,7.805,0,0,1-6.584-12v2.749a7.8,7.8,0,0,0,7.8,7.8Z" transform="translate(-8.768 -350.277)" fill="#d83724"/>
        <path id="Trazado_1042915" data-name="Trazado 1042915" d="M329.364,396.922v-5.173h-3.436l-1.524.093.082,4.859a.222.222,0,0,0,.3.207l1.14-.311.805-.315a.221.221,0,0,1,.162,0l2.167.848A.222.222,0,0,0,329.364,396.922Z" transform="translate(-289.383 -349.534)" fill="#fdcd08"/>
        <path id="Trazado_1042916" data-name="Trazado 1042916" d="M324.8,391.745v4.848l-1.361.533a.222.222,0,0,1-.3-.206v-5.174Z" transform="translate(-288.259 -349.53)" fill="#faab18"/>
      </g>
      <path id="Trazado_1042917" data-name="Trazado 1042917" d="M56.633,30.926l-1.847-4.553a3.381,3.381,0,0,0-1.716-5.455c0-.219,0-5.7,0-5.935a1.727,1.727,0,0,0-1.176-1.651l-23.4-8.1a4.594,4.594,0,0,0-2.994,0L19.68,7.249a.832.832,0,1,0,.544,1.573L26.05,6.8a2.922,2.922,0,0,1,1.9,0l23.4,8.1a.083.083,0,0,1,0,.158L43.3,17.85V17.6a2.078,2.078,0,0,0-1.713-2.047,82.33,82.33,0,0,0-29.162,0A2.078,2.078,0,0,0,10.708,17.6v.249L2.654,15.062a.083.083,0,0,1,0-.158l13.833-4.789a.832.832,0,1,0-.544-1.573L2.11,13.331a1.748,1.748,0,0,0,0,3.3l8.6,2.977v8.236a8.633,8.633,0,0,0-3.936,15.77A8.635,8.635,0,0,0,8.636,60.684H51.412a2.592,2.592,0,0,0,.053-5.184,9.533,9.533,0,0,1-.02-6.9,2.592,2.592,0,0,0-.033-5.184H50.9a2.591,2.591,0,0,0-2.42-3.521h-.022a9.527,9.527,0,0,1-.157-6.465,2.337,2.337,0,0,0,1.718.754h4.443A2.341,2.341,0,0,0,56.4,33.143a2.368,2.368,0,0,0,.23-2.217Zm-2.709-6.74a1.686,1.686,0,1,1-1.686-1.709A1.7,1.7,0,0,1,53.924,24.186ZM51.406,16.8v4.115a3.381,3.381,0,0,0-1.716,5.455l-.58,1.43H43.3V19.611Zm-38.691.388a80.687,80.687,0,0,1,28.575,0,.415.415,0,0,1,.342.409v5.672H36.5a.832.832,0,0,0,0,1.664h5.128V27.8H12.372V24.937H32.621a.832.832,0,0,0,0-1.664H12.372V17.6a.415.415,0,0,1,.342-.409ZM52.34,46a.929.929,0,0,1-.928.928H8.636a5.115,5.115,0,1,0,0,10.231H41.5a.832.832,0,1,0,0-1.664H8.636a3.451,3.451,0,1,1,0-6.9H34.881v4.665a.832.832,0,0,0,1.136.775l2.247-.88,2.247.88a.832.832,0,0,0,1.136-.775V48.6h8.033a11.169,11.169,0,0,0,.016,6.9H45.38a.832.832,0,0,0,0,1.664h6.031a.928.928,0,1,1,0,1.856H8.636a6.972,6.972,0,1,1,0-13.944H51.412A.929.929,0,0,1,52.34,46ZM36.545,48.6h3.436v3.445l-1.415-.554a.832.832,0,0,0-.607,0l-1.415.554ZM22.3,41.555H48.478a.928.928,0,0,1,0,1.856H11.57a6.972,6.972,0,0,1,0-13.944H48.435c-.206.552-.586,1.334-.713,1.856H11.57a5.115,5.115,0,1,0,0,10.231h6.848a.832.832,0,0,0,0-1.664H11.57a3.451,3.451,0,1,1,0-6.9h3.042v4.625a.832.832,0,0,0,1.136.775l2.247-.88,2.247.88a.832.832,0,0,0,1.136-.775V32.988H46.688a11.17,11.17,0,0,0,0,6.9H22.3a.832.832,0,0,0,0,1.664Zm-6.025-8.567h3.436v3.405L18.3,35.84a.832.832,0,0,0-.607,0l-1.415.554Zm38.746-.775a.675.675,0,0,1-.563.3H50.016a.675.675,0,0,1-.563-.3.7.7,0,0,1-.068-.662l1.7-4.2a3.331,3.331,0,0,0,2.3,0l1.7,4.2a.7.7,0,0,1-.068.662Z" transform="translate(0 -4.982)"/>
    </g>
  </g>
</svg>
