<svg xmlns="http://www.w3.org/2000/svg" xmlns:xlink="http://www.w3.org/1999/xlink" width="108" height="108" viewBox="0 0 108 108">
  <defs>
    <filter id="Trazado_904820" x="0" y="0" width="108" height="108" filterUnits="userSpaceOnUse">
      <feOffset dy="3" input="SourceAlpha"/>
      <feGaussianBlur stdDeviation="3" result="blur"/>
      <feFlood flood-opacity="0.161"/>
      <feComposite operator="in" in2="blur"/>
      <feComposite in="SourceGraphic"/>
    </filter>
  </defs>
  <g id="Grupo_1203253" data-name="Grupo 1203253" transform="translate(-199 -6137)">
    <g id="Grupo_1203055" data-name="Grupo 1203055" transform="translate(208 6143)">
      <g id="Grupo_1177315" data-name="Grupo 1177315" transform="translate(0 0)">
        <g id="Grupo_1173585" data-name="Grupo 1173585">
          <g id="Grupo_1173428" data-name="Grupo 1173428">
            <g id="Grupo_1171958" data-name="Grupo 1171958">
              <g id="Grupo_1167341" data-name="Grupo 1167341">
                <g id="Grupo_1166792" data-name="Grupo 1166792">
                  <g transform="matrix(1, 0, 0, 1, -9, -6)" filter="url(#Trazado_904820)">
                    <g id="Trazado_904820-2" data-name="Trazado 904820" transform="translate(9 6)" fill="#edf3fc">
                      <path d="M 44.99999618530273 88.49999237060547 C 39.12687301635742 88.49999237060547 33.43022155761719 87.35006713867188 28.06829643249512 85.08216857910156 C 22.88852119445801 82.89130401611328 18.23629570007324 79.75457763671875 14.24084663391113 75.75914001464844 C 10.24540901184082 71.76369476318359 7.108683586120605 67.11146545410156 4.917821407318115 61.93169403076172 C 2.649921178817749 56.56976699829102 1.499996185302734 50.87311553955078 1.499996185302734 44.99999237060547 C 1.499996185302734 39.12686920166016 2.649921178817749 33.43021774291992 4.917821407318115 28.06829261779785 C 7.108683586120605 22.88851737976074 10.24540901184082 18.23630523681641 14.24084663391113 14.24085521697998 C 18.23629570007324 10.24540519714355 22.88852119445801 7.108692169189453 28.06829643249512 4.917829990386963 C 33.43022155761719 2.649929761886597 39.12687301635742 1.500004887580872 44.99999618530273 1.500004887580872 C 50.87311935424805 1.500004887580872 56.56977081298828 2.649929761886597 61.93169784545898 4.917829990386963 C 67.11147308349609 7.108692169189453 71.76369476318359 10.24540519714355 75.75914764404297 14.24085521697998 C 79.75458526611328 18.23630523681641 82.89131164550781 22.88851737976074 85.08216857910156 28.06829261779785 C 87.35007476806641 33.43021774291992 88.5 39.12686920166016 88.5 44.99999237060547 C 88.5 50.87311553955078 87.35007476806641 56.56976699829102 85.08216857910156 61.93169403076172 C 82.89131164550781 67.11146545410156 79.75458526611328 71.76369476318359 75.75914764404297 75.75914001464844 C 71.76369476318359 79.75457763671875 67.11147308349609 82.89130401611328 61.93169784545898 85.08216857910156 C 56.56977081298828 87.35006713867188 50.87311935424805 88.49999237060547 44.99999618530273 88.49999237060547 Z" stroke="none"/>
                      <path d="M 44.99999618530273 2.999992370605469 C 39.32870864868164 2.999992370605469 33.82865142822266 4.11004638671875 28.65262603759766 6.299331665039062 C 23.65165710449219 8.414566040039062 19.15968322753906 11.44333648681641 15.301513671875 15.30150604248047 C 11.44333648681641 19.15967559814453 8.414566040039062 23.65164947509766 6.299339294433594 28.65262222290039 C 4.110054016113281 33.82864761352539 2.999992370605469 39.32870483398438 2.999992370605469 44.99999237060547 C 2.999992370605469 50.67127990722656 4.110054016113281 56.17132186889648 6.299339294433594 61.34736633300781 C 8.414566040039062 66.34833526611328 11.44333648681641 70.84029388427734 15.301513671875 74.69846343994141 C 19.15968322753906 78.55663299560547 23.65165710449219 81.58540344238281 28.65262603759766 83.70063781738281 C 33.82865142822266 85.88992309570312 39.32870864868164 86.99997711181641 44.99999618530273 86.99997711181641 C 50.67128372192383 86.99997711181641 56.17134094238281 85.88992309570312 61.34736633300781 83.70063781738281 C 66.34834289550781 81.58540344238281 70.84030914306641 78.55663299560547 74.69847869873047 74.69846343994141 C 78.55665588378906 70.84029388427734 81.58542633056641 66.34833526611328 83.70065307617188 61.34736633300781 C 85.88993835449219 56.17132186889648 87 50.67127990722656 87 44.99999237060547 C 87 39.32870483398438 85.88993835449219 33.82864761352539 83.70065307617188 28.65262222290039 C 81.58542633056641 23.65164947509766 78.55665588378906 19.15967559814453 74.69847869873047 15.30150604248047 C 70.84030914306641 11.44333648681641 66.34834289550781 8.414566040039062 61.34736633300781 6.299331665039062 C 56.17134094238281 4.11004638671875 50.67128372192383 2.999992370605469 44.99999618530273 2.999992370605469 M 44.99999618530273 -7.62939453125e-06 C 69.85281372070312 -7.62939453125e-06 90 20.14717864990234 90 44.99999237060547 C 90 69.85279083251953 69.85281372070312 89.99997711181641 44.99999618530273 89.99997711181641 C 20.14717864990234 89.99997711181641 -7.62939453125e-06 69.85279083251953 -7.62939453125e-06 44.99999237060547 C -7.62939453125e-06 20.14717864990234 20.14717864990234 -7.62939453125e-06 44.99999618530273 -7.62939453125e-06 Z" stroke="none" fill="#453179"/>
                    </g>
                  </g>
                </g>
              </g>
            </g>
          </g>
        </g>
      </g>
    </g>
    <g id="virtual_2_" data-name="virtual (2)" transform="translate(225 6159)">
      <path id="Trazado_1042918" data-name="Trazado 1042918" d="M52.072,355.721a8.684,8.684,0,0,1,5.709,8.114v4.444H42.649a2.229,2.229,0,0,1-2.229-2.229v-2.215a8.686,8.686,0,0,1,5.708-8.114Z" transform="translate(-35.893 -315.877)" fill="#9be69d"/>
      <path id="Trazado_1042919" data-name="Trazado 1042919" d="M42.317,363.831v2.216a2.229,2.229,0,0,0,2.229,2.229h-1.9a2.229,2.229,0,0,1-2.229-2.229v-2.216a8.686,8.686,0,0,1,5.708-8.114h1.9A8.686,8.686,0,0,0,42.317,363.831Z" transform="translate(-35.893 -315.873)" fill="#6fd7a3"/>
      <path id="Trazado_1042920" data-name="Trazado 1042920" d="M32.96,111.143v3.328a7.363,7.363,0,0,1-7.363,7.362H13.77A5.334,5.334,0,0,1,8.435,116.5v-5.217a5.724,5.724,0,0,1,10.741-2.754,7.141,7.141,0,0,1,13.785,2.615Z" transform="translate(-7.49 -92.355)" fill="#d1a08f"/>
      <path id="Trazado_1042921" data-name="Trazado 1042921" d="M22.246,134.162H13.77a5.334,5.334,0,0,1-5.335-5.335V123.61a5.723,5.723,0,0,1,9.961-3.846,5.705,5.705,0,0,0-1.485,3.846v5.217A5.334,5.334,0,0,0,22.246,134.162Z" transform="translate(-7.49 -104.683)" fill="#c68d7a"/>
      <path id="Trazado_1042922" data-name="Trazado 1042922" d="M60.776,201.885v3.773a8.249,8.249,0,0,1-5.276,7.7v1.835a3.019,3.019,0,0,1-2.863,3.042,2.973,2.973,0,0,1-3.082-2.97v-1.908a8.25,8.25,0,0,1-5.274-7.694v-3.773a8.272,8.272,0,0,1,.157-1.612.779.779,0,0,1,.928-.612,4.978,4.978,0,0,0,5.214-2.2.536.536,0,0,1,.872-.037,9.13,9.13,0,0,0,8.438,3.478.777.777,0,0,1,.883.75Q60.776,201.771,60.776,201.885Z" transform="translate(-39.321 -175.132)" fill="#ffdfcf"/>
      <path id="Trazado_1042923" data-name="Trazado 1042923" d="M55.9,224.07c-.131.061-.263.117-.4.168v1.835a3.019,3.019,0,0,1-2.863,3.042,2.973,2.973,0,0,1-3.082-2.97v-1.908a8.25,8.25,0,0,1-5.274-7.694v-3.773a8.272,8.272,0,0,1,.157-1.612.779.779,0,0,1,.928-.612,4.98,4.98,0,0,0,4.225-1.066,8.239,8.239,0,0,0-.454,2.7v3.773a8.25,8.25,0,0,0,6.76,8.114Z" transform="translate(-39.322 -186.015)" fill="#ffcebf"/>
      <path id="Trazado_1042924" data-name="Trazado 1042924" d="M61.115,467.84H9.553a2.053,2.053,0,0,0,0,4.106H61.115a2.053,2.053,0,0,0,0-4.106Z" transform="translate(-6.66 -415.438)" fill="#d9b1ee"/>
      <path id="Trazado_1042925" data-name="Trazado 1042925" d="M15.716,471.345a2.046,2.046,0,0,0,1.452.6H9.553a2.053,2.053,0,0,1,0-4.106h7.614a2.053,2.053,0,0,0-1.452,3.5Z" transform="translate(-6.66 -415.438)" fill="#cb97e7"/>
      <path id="Trazado_1042926" data-name="Trazado 1042926" d="M217.933,214.972h26.9a2.751,2.751,0,0,0,2.751-2.751V194.463a2.751,2.751,0,0,0-2.751-2.751h-26.9a2.751,2.751,0,0,0-2.751,2.751v17.758A2.751,2.751,0,0,0,217.933,214.972Z" transform="translate(-191.08 -170.238)" fill="#596c76"/>
      <path id="Trazado_1042927" data-name="Trazado 1042927" d="M220.908,214.971h-2.975a2.751,2.751,0,0,1-2.751-2.751V194.462a2.752,2.752,0,0,1,2.751-2.751h2.975a2.751,2.751,0,0,0-2.751,2.751V212.22A2.75,2.75,0,0,0,220.908,214.971Z" transform="translate(-191.08 -170.238)" fill="#465a61"/>
      <path id="Trazado_1042928" data-name="Trazado 1042928" d="M331.139,291.63h-8.286v-17.5a.981.981,0,0,1,.981-.981h6.323a.981.981,0,0,1,.981.981v17.5Z" transform="translate(-286.691 -242.556)" fill="#7a8c98"/>
      <path id="Trazado_1042929" data-name="Trazado 1042929" d="M300.9,441.449H287.687a1.664,1.664,0,1,1,0-3.329H300.9a1.664,1.664,0,0,1,0,3.329Z" transform="translate(-253.986 -389.047)" fill="#596c76"/>
      <path id="Trazado_1042930" data-name="Trazado 1042930" d="M291.9,441.449h-4.216a1.664,1.664,0,0,1,0-3.329H291.9a1.664,1.664,0,1,0,0,3.329Z" transform="translate(-253.986 -389.046)" fill="#465a61"/>
      <path id="Trazado_1042931" data-name="Trazado 1042931" d="M274.646,7.5H254.84a3.554,3.554,0,0,0-3.554,3.554V17.1a3.554,3.554,0,0,0,3.554,3.554H258.4v3.26a1.209,1.209,0,0,0,2.163.742l3.115-4h10.972A3.554,3.554,0,0,0,278.2,17.1V11.054A3.554,3.554,0,0,0,274.646,7.5Z" transform="translate(-223.14 -6.66)" fill="#e8edf2"/>
      <path id="Trazado_1042932" data-name="Trazado 1042932" d="M257.872,20.652H254.84a3.555,3.555,0,0,1-3.554-3.554V11.054A3.555,3.555,0,0,1,254.84,7.5h3.032a3.555,3.555,0,0,0-3.554,3.554V17.1A3.555,3.555,0,0,0,257.872,20.652Z" transform="translate(-223.14 -6.66)" fill="#d9e7ec"/>
      <path id="Trazado_1042933" data-name="Trazado 1042933" d="M103.026,433.193v.962H99.74v-4.249A3.286,3.286,0,0,1,103.026,433.193Z" transform="translate(-88.568 -381.753)" fill="#ffdfcf"/>
      <g id="Grupo_1203252" data-name="Grupo 1203252" transform="translate(0 0)">
        <path id="Trazado_1042934" data-name="Trazado 1042934" d="M94.964,292.934a.84.84,0,0,0,.367,1.13,6.3,6.3,0,0,0,5.7,0,.84.84,0,1,0-.763-1.5,4.61,4.61,0,0,1-4.174,0A.84.84,0,0,0,94.964,292.934Z" transform="translate(-84.246 -259.715)"/>
        <path id="Trazado_1042935" data-name="Trazado 1042935" d="M91.163,244.785V243.6a.84.84,0,1,0-1.68,0v1.181a.84.84,0,0,0,1.68,0Z" transform="translate(-79.46 -215.572)"/>
        <path id="Trazado_1042936" data-name="Trazado 1042936" d="M145.175,245.625a.84.84,0,0,0,.84-.84V243.6a.84.84,0,1,0-1.68,0v1.181A.84.84,0,0,0,145.175,245.625Z" transform="translate(-128.168 -215.572)"/>
        <path id="Trazado_1042937" data-name="Trazado 1042937" d="M53.758,131.264a3.6,3.6,0,0,0,3.591-3.591V109.915a3.6,3.6,0,0,0-3.591-3.591h-26.9a3.605,3.605,0,0,0-.543.041V104.48a7.982,7.982,0,0,0-14.748-4.233q-.127-.142-.263-.276a.84.84,0,1,0-1.183,1.193,4.839,4.839,0,0,1,.833,1.106.84.84,0,0,0,1.518-.1A6.3,6.3,0,0,1,24.63,104.48V107.1a3.586,3.586,0,0,0-1.368,2.817V111.8a6.555,6.555,0,0,1-.967,1v-.359q0-.126,0-.252a1.617,1.617,0,0,0-1.833-1.559,8.371,8.371,0,0,1-1.1.073,8.228,8.228,0,0,1-6.562-3.23,1.376,1.376,0,0,0-2.245.1A4.138,4.138,0,0,1,6.217,109.4a1.619,1.619,0,0,0-1.924,1.27,9.141,9.141,0,0,0-.174,1.776v1.335a4.492,4.492,0,0,1-2.336-3.945v-5.216a4.888,4.888,0,0,1,4.882-4.882c.145,0,.285.006.416.018a.84.84,0,1,0,.151-1.673c-.182-.016-.372-.025-.567-.025A6.57,6.57,0,0,0,.1,104.618v5.216A6.168,6.168,0,0,0,4.12,115.62v.6a9.092,9.092,0,0,0,5.274,8.25v.5a9.567,9.567,0,0,0-5.707,8.68v2.215a3.049,3.049,0,0,0,.334,1.389H2.893a2.893,2.893,0,0,0,0,5.787H54.456a2.893,2.893,0,0,0,0-5.786H49.274a2.5,2.5,0,0,0-2.364-3.329H45.289v-2.66h8.469Zm-33.094-9.85a9.033,9.033,0,0,0,1.632-5.2V114.86a8.251,8.251,0,0,0,.967-.674v13.487a3.6,3.6,0,0,0,3.591,3.591h1.015a.84.84,0,1,0,0-1.68H26.853a1.913,1.913,0,0,1-1.911-1.911V109.915A1.913,1.913,0,0,1,26.853,108h26.9a1.913,1.913,0,0,1,1.911,1.911v17.758a1.913,1.913,0,0,1-1.911,1.911H45.289V117.268a1.824,1.824,0,0,0-1.821-1.822H37.144a1.824,1.824,0,0,0-1.821,1.822v12.316H31.788a.84.84,0,0,0,0,1.68h3.534v2.66H33.7a2.5,2.5,0,0,0-2.364,3.329H22.728v-3.609a9.563,9.563,0,0,0-5.709-8.676v-.5a9.071,9.071,0,0,0,3.645-3.055Zm-12.694.042a7.363,7.363,0,0,1-2.17-5.238v-3.773a7.459,7.459,0,0,1,.13-1.39,5.818,5.818,0,0,0,5.8-2.228,9.89,9.89,0,0,0,7.632,3.56,10.05,10.05,0,0,0,1.255-.079q0,.069,0,.137v3.773a7.455,7.455,0,0,1-4.739,6.912.84.84,0,0,0-.537.784v1.835a2.188,2.188,0,0,1-2.053,2.2,2.133,2.133,0,0,1-2.212-2.131v-1.908a.84.84,0,0,0-.537-.784,7.383,7.383,0,0,1-2.567-1.672Zm-2.6,12.2a7.88,7.88,0,0,1,4.147-6.876,3.819,3.819,0,0,0,3.69,2.856l.142,0a3.863,3.863,0,0,0,3.535-2.863,7.876,7.876,0,0,1,4.167,6.882v3.6H19.873v-2.94a.84.84,0,1,0-1.68,0v2.94H15.3v-.123A4.131,4.131,0,0,0,11.172,133H9.323v-.684a.84.84,0,0,0-1.68,0v.733a.84.84,0,0,0,.28,1.631h2.41v2.568H6.755a1.391,1.391,0,0,1-1.389-1.389Zm6.646,1.18a2.45,2.45,0,0,1,1.606,2.3v.122H12.012Zm43.656,5.313a1.214,1.214,0,0,1-1.213,1.213H2.893a1.213,1.213,0,1,1,0-2.426H54.456A1.214,1.214,0,0,1,55.669,140.147Zm-7.935-3.718a.825.825,0,0,1-.824.824H33.7a.824.824,0,0,1,0-1.649H46.909A.825.825,0,0,1,47.734,136.429ZM37,133.925V117.268a.142.142,0,0,1,.141-.141h6.323a.142.142,0,0,1,.141.141v16.656Z" transform="translate(0 -85.691)"/>
        <path id="Trazado_1042938" data-name="Trazado 1042938" d="M235.079,308.838h6.547a.84.84,0,1,0,0-1.68h-6.547a.84.84,0,1,0,0,1.68Z" transform="translate(-208.002 -272.753)"/>
        <path id="Trazado_1042939" data-name="Trazado 1042939" d="M235.079,333.826h6.547a.84.84,0,0,0,0-1.68h-6.547a.84.84,0,0,0,0,1.68Z" transform="translate(-208.002 -294.943)"/>
        <path id="Trazado_1042940" data-name="Trazado 1042940" d="M242.466,357.974a.84.84,0,0,0-.84-.84h-6.547a.84.84,0,1,0,0,1.68h6.547A.84.84,0,0,0,242.466,357.974Z" transform="translate(-208.002 -317.132)"/>
        <path id="Trazado_1042941" data-name="Trazado 1042941" d="M413.961,308.838h6.547a.84.84,0,1,0,0-1.68h-6.547a.84.84,0,1,0,0,1.68Z" transform="translate(-366.848 -272.753)"/>
        <path id="Trazado_1042942" data-name="Trazado 1042942" d="M413.961,333.826h6.547a.84.84,0,0,0,0-1.68h-6.547a.84.84,0,1,0,0,1.68Z" transform="translate(-366.848 -294.943)"/>
        <path id="Trazado_1042943" data-name="Trazado 1042943" d="M413.961,358.814h6.547a.84.84,0,1,0,0-1.68h-6.547a.84.84,0,1,0,0,1.68Z" transform="translate(-366.848 -317.132)"/>
        <path id="Trazado_1042944" data-name="Trazado 1042944" d="M248.184,14.832H250.9v2.421a2.023,2.023,0,0,0,1.384,1.937,2.089,2.089,0,0,0,.679.115,2.022,2.022,0,0,0,1.6-.794l2.863-3.678H267.99a4.4,4.4,0,0,0,4.394-4.394V6.354a.84.84,0,1,0-1.68,0v4.084a2.717,2.717,0,0,1-2.714,2.714H257.017a.84.84,0,0,0-.663.324l-3.115,4a.369.369,0,0,1-.66-.226V13.992a.84.84,0,0,0-.84-.84h-3.555a2.717,2.717,0,0,1-2.714-2.714V4.394a2.717,2.717,0,0,1,2.714-2.714H267.99a2.7,2.7,0,0,1,2.3,1.276.84.84,0,1,0,1.424-.892A4.372,4.372,0,0,0,267.99,0H248.184a4.4,4.4,0,0,0-4.394,4.394v6.044A4.4,4.4,0,0,0,248.184,14.832Z" transform="translate(-216.483 0)"/>
        <path id="Trazado_1042945" data-name="Trazado 1042945" d="M298.421,40.4H279.267a.84.84,0,1,0,0,1.68h19.154a.84.84,0,1,0,0-1.68Z" transform="translate(-247.241 -35.872)"/>
        <path id="Trazado_1042946" data-name="Trazado 1042946" d="M298.421,72.644H279.267a.84.84,0,1,0,0,1.68h19.154a.84.84,0,1,0,0-1.68Z" transform="translate(-247.241 -64.507)"/>
      </g>
    </g>
  </g>
</svg>
