<svg xmlns="http://www.w3.org/2000/svg" xmlns:xlink="http://www.w3.org/1999/xlink" width="110" height="110" viewBox="0 0 110 110">
  <defs>
    <filter id="Trazado_982547" x="0" y="0" width="110" height="110" filterUnits="userSpaceOnUse">
      <feOffset dy="3" input="SourceAlpha"/>
      <feGaussianBlur stdDeviation="3" result="blur"/>
      <feFlood flood-opacity="0.161"/>
      <feComposite operator="in" in2="blur"/>
      <feComposite in="SourceGraphic"/>
    </filter>
  </defs>
  <g id="Grupo_1203243" data-name="Grupo 1203243" transform="translate(-1521 -2543.146)">
    <g id="Grupo_1202791" data-name="Grupo 1202791" transform="translate(1530 2549.146)">
      <g id="Grupo_1175186" data-name="Grupo 1175186">
        <g id="Grupo_1164700" data-name="Grupo 1164700" transform="translate(0 0)">
          <g id="Grupo_1160931" data-name="Grupo 1160931" transform="translate(0 0)">
            <g id="Grupo_1160749" data-name="Grupo 1160749" transform="translate(0 0)">
              <g id="Grupo_1158891" data-name="Grupo 1158891">
                <g id="Grupo_1157406" data-name="Grupo 1157406">
                  <g id="Grupo_1155793" data-name="Grupo 1155793">
                    <g id="Grupo_1154704" data-name="Grupo 1154704">
                      <g id="Grupo_1150790" data-name="Grupo 1150790">
                        <g id="Grupo_1154214" data-name="Grupo 1154214">
                          <g id="Grupo_1152583" data-name="Grupo 1152583">
                            <g id="Grupo_1146973" data-name="Grupo 1146973">
                              <g id="Grupo_1146954" data-name="Grupo 1146954">
                                <g transform="matrix(1, 0, 0, 1, -9, -6)" filter="url(#Trazado_982547)">
                                  <g id="Trazado_982547-2" data-name="Trazado 982547" transform="translate(9 6)" fill="#effbfe">
                                    <path d="M 46.00000381469727 90.49986267089844 C 39.99188232421875 90.49986267089844 34.16428375244141 89.32350158691406 28.67905807495117 87.00344848632812 C 23.38021659851074 84.76223754882812 18.62104415893555 81.55341339111328 14.53376388549805 77.46613311767578 C 10.44647026062012 73.37885284423828 7.237643718719482 68.61968994140625 4.996417045593262 63.32085037231445 C 2.676363706588745 57.83565139770508 1.500003814697266 52.00805282592773 1.500003814697266 45.99993133544922 C 1.500003814697266 39.99182510375977 2.676363706588745 34.16422653198242 4.996417045593262 28.67901039123535 C 7.237643718719482 23.38017082214355 10.44647026062012 18.62101173400879 14.53376388549805 14.53373146057129 C 18.62104415893555 10.44645118713379 23.38021659851074 7.237624645233154 28.67905807495117 4.996411323547363 C 34.16428375244141 2.676357984542847 39.99188232421875 1.499997973442078 46.00000381469727 1.499997973442078 C 52.00812530517578 1.499997973442078 57.83573532104492 2.676357984542847 63.32094955444336 4.996411323547363 C 68.61980438232422 7.237624645233154 73.37896728515625 10.44645118713379 77.46625518798828 14.53373146057129 C 81.55353546142578 18.62101173400879 84.76236724853516 23.38017082214355 87.00359344482422 28.67901039123535 C 89.32364654541016 34.16422653198242 90.5 39.99182510375977 90.5 45.99993133544922 C 90.5 52.00805282592773 89.32364654541016 57.83565139770508 87.00359344482422 63.32085037231445 C 84.76236724853516 68.61968994140625 81.55353546142578 73.37885284423828 77.46625518798828 77.46613311767578 C 73.37896728515625 81.55341339111328 68.61980438232422 84.76223754882812 63.32094955444336 87.00344848632812 C 57.83573532104492 89.32350158691406 52.00812530517578 90.49986267089844 46.00000381469727 90.49986267089844 Z" stroke="none"/>
                                    <path d="M 46.00000381469727 3 C 40.19371795654297 3 34.56270217895508 4.136505126953125 29.26338958740234 6.377914428710938 C 24.14333343505859 8.54351806640625 19.54443359375 11.64438629150391 15.59442138671875 15.59439086914062 C 11.64440155029297 19.54440307617188 8.543533325195312 24.14330291748047 6.3779296875 29.26334381103516 C 4.136505126953125 34.56266021728516 3.000007629394531 40.19366073608398 3.000007629394531 45.99993133544922 C 3.000007629394531 51.80620193481445 4.136505126953125 57.43720245361328 6.3779296875 62.73651885986328 C 8.543533325195312 67.85655975341797 11.64440155029297 72.45545959472656 15.59442138671875 76.40547180175781 C 19.54443359375 80.35547637939453 24.14333343505859 83.45634460449219 29.26338958740234 85.6219482421875 C 34.56270217895508 87.86335754394531 40.19371795654297 88.99986267089844 46.00000381469727 88.99986267089844 C 51.80628967285156 88.99986267089844 57.43730545043945 87.86335754394531 62.73663330078125 85.6219482421875 C 67.85667419433594 83.45634460449219 72.45558929443359 80.35547637939453 76.40560150146484 76.40547180175781 C 80.35560607910156 72.45545959472656 83.45648956298828 67.85655975341797 85.62208557128906 62.73651885986328 C 87.86350250244141 57.43720245361328 89 51.80620193481445 89 45.99993133544922 C 89 40.19366073608398 87.86350250244141 34.56266021728516 85.62208557128906 29.26334381103516 C 83.45648956298828 24.14330291748047 80.35560607910156 19.54440307617188 76.40560150146484 15.59439086914062 C 72.45558929443359 11.64438629150391 67.85667419433594 8.54351806640625 62.73663330078125 6.377914428710938 C 57.43730545043945 4.136505126953125 51.80628967285156 3 46.00000381469727 3 M 46.00000381469727 0 C 71.40510559082031 0 92 20.59487152099609 92 45.99993133544922 C 92 71.40499114990234 71.40510559082031 91.99986267089844 46.00000381469727 91.99986267089844 C 20.59491729736328 91.99986267089844 7.62939453125e-06 71.40499114990234 7.62939453125e-06 45.99993133544922 C 7.62939453125e-06 20.59487152099609 20.59491729736328 0 46.00000381469727 0 Z" stroke="none" fill="#397b86"/>
                                  </g>
                                </g>
                              </g>
                            </g>
                          </g>
                        </g>
                      </g>
                    </g>
                  </g>
                </g>
              </g>
            </g>
          </g>
        </g>
      </g>
    </g>
    <g id="dibujar" transform="translate(1551.14 2565.981)">
      <g id="Grupo_1203241" data-name="Grupo 1203241" transform="translate(0.799 0.975)">
        <path id="Trazado_1042859" data-name="Trazado 1042859" d="M28.468,53.439,11.208,36.2a.426.426,0,0,1,0-.6L24.84,21.981l3.624-2.533a.426.426,0,0,1,.6,0L46.322,35.6a.426.426,0,0,1,0,.6L29.07,53.439a.426.426,0,0,1-.6,0Z" transform="translate(-10.701 -18.24)" fill="#eef5f6"/>
        <path id="Trazado_1042860" data-name="Trazado 1042860" d="M161.743,27.118l-4.229,4.225a2.43,2.43,0,0,0-.058-3.381L143.035,13.556a3.434,3.434,0,0,0-2.775-.665l3.621-3.617a.425.425,0,0,1,.6,0l17.26,17.24A.427.427,0,0,1,161.743,27.118Z" transform="translate(-126.122 -9.15)" fill="#deecf1"/>
        <path id="Trazado_1042861" data-name="Trazado 1042861" d="M230.642,213.952l-2.723,1.595-19.492,7.5a.426.426,0,0,1-.55-.244L199.1,200.058a.426.426,0,0,1,.244-.551l19.4-7.465,3.215-.528a.426.426,0,0,1,.55.244l8.379,21.642A.426.426,0,0,1,230.642,213.952Z" transform="translate(-178.67 -172.068)" fill="#ade194"/>
        <path id="Trazado_1042862" data-name="Trazado 1042862" d="M396.247,207.822l-3.985,1.533a1.645,1.645,0,0,0,.945-2.129l-7.9-20.467a2.432,2.432,0,0,0-1.519-1.179l3.374-1.3a.427.427,0,0,1,.551.245l8.777,22.744A.426.426,0,0,1,396.247,207.822Z" transform="translate(-343.718 -165.607)" fill="#97da7b"/>
        <path id="Trazado_1042863" data-name="Trazado 1042863" d="M31.8,292.211l-4.436.642H7.926a.426.426,0,0,1-.426-.426V268.054a.426.426,0,0,1,.426-.426H32.331a.426.426,0,0,1,.426.426l-.533,23.731A.426.426,0,0,1,31.8,292.211Z" transform="translate(-7.5 -240.102)" fill="#8ac9fe"/>
        <path id="Trazado_1042864" data-name="Trazado 1042864" d="M193.7,268.056v24.373a.426.426,0,0,1-.426.426h-5.583a1.75,1.75,0,0,0,1.75-1.75V280.521l-1.816-2.406,1.816-10.485h3.834A.426.426,0,0,1,193.7,268.056Z" transform="translate(-168.438 -240.104)" fill="#60b7ff"/>
        <path id="Trazado_1042865" data-name="Trazado 1042865" d="M293.167,288.037l-1.489.574A6.785,6.785,0,0,0,279.02,293.5l-1.489.574a1.141,1.141,0,0,1-1.523-.793,9.6,9.6,0,0,1,17.755-6.852A1.143,1.143,0,0,1,293.167,288.037Z" transform="translate(-247.179 -252.452)" fill="#fe7ab6"/>
        <path id="Trazado_1042866" data-name="Trazado 1042866" d="M315.315,312.252h0l-1.859.717a1.135,1.135,0,0,1-1.347-.409,3.783,3.783,0,0,0-6.87,2.651,1.136,1.136,0,0,1-.724,1.209l-1.858.718a6.785,6.785,0,0,1,12.659-4.886Z" transform="translate(-270.816 -276.093)" fill="#8ac9fe"/>
        <path id="Trazado_1042867" data-name="Trazado 1042867" d="M55.575,324.009c-.835.237-1.828-.923-2.651-.954-.853-.032-1.932,1.04-2.716.751s-.919-1.811-1.583-2.332-2.165-.277-2.641-.986c-.459-.684.329-1.982.092-2.818s-1.588-1.527-1.557-2.35c.032-.853,1.441-1.441,1.73-2.225s-.4-2.152.123-2.816,2-.311,2.706-.786c.684-.459.921-1.967,1.756-2.2s1.828.923,2.651.954c.853.032,1.932-1.04,2.716-.751s.919,1.811,1.583,2.332,2.165.277,2.641.986c.459.684-.329,1.982-.092,2.818s1.588,1.527,1.557,2.35c-.032.853-1.441,1.441-1.73,2.225s.4,2.152-.123,2.816-2,.311-2.706.786C56.647,322.263,56.411,323.772,55.575,324.009Z" transform="translate(-40.576 -275.509)" fill="#fece85"/>
        <circle id="Elipse_12607" data-name="Elipse 12607" cx="3.729" cy="3.729" r="3.729" transform="translate(8.899 36.409)" fill="#fec165"/>
        <path id="Trazado_1042868" data-name="Trazado 1042868" d="M140.064,264.579l-2.811-2.809-.987.468-2.51.8a8.352,8.352,0,0,0-5.327,6.148l2.32.508a2.319,2.319,0,0,1,2.319,2.319l.492.308A13.5,13.5,0,0,0,140.064,264.579Z" transform="translate(-115.552 -234.868)" fill="#d78878"/>
        <path id="Trazado_1042869" data-name="Trazado 1042869" d="M129.141,336.455c-.086.019-.467-.256-.553-.24l-3.207.561a1.445,1.445,0,0,1-1.784-1.784l-.137-.957.518-2.564c0-.017.007-.034.012-.051h2.8a2.319,2.319,0,0,1,2.319,2.319Z" transform="translate(-111.11 -297.1)" fill="#fec165"/>
        <path id="Trazado_1042870" data-name="Trazado 1042870" d="M174.822,265.375l-.417,1.037-.772,2.391a8.36,8.36,0,0,1-6.089,5.419l-1.1-1.623a11.559,11.559,0,0,0,1.038-1.51,8.063,8.063,0,0,0,3.8-6.95,8.488,8.488,0,0,0-.31-2.281l.244-.088Z" transform="translate(-149.514 -234.868)" fill="#ca6e59"/>
        <path id="Trazado_1042871" data-name="Trazado 1042871" d="M126.828,352.413c-.086.019-.173.037-.259.053l-3.709.7a1.675,1.675,0,0,1-1.955-1.977l.242-1.2a6.977,6.977,0,0,0,5.615-.714,2.341,2.341,0,0,1,.037.417Z" transform="translate(-108.797 -313.059)" fill="#fdb441"/>
        <path id="Trazado_1042872" data-name="Trazado 1042872" d="M206.193,224.607l-.707-.056a3.765,3.765,0,0,1-3.469-3.753v-.365l5.119-5.109a1.168,1.168,0,0,1,1.651,0l2.526,2.524a1.165,1.165,0,0,1,0,1.649Z" transform="translate(-181.301 -193.062)" fill="#deecf1"/>
        <path id="Trazado_1042873" data-name="Trazado 1042873" d="M239.631,42.986l-1.236-.793a3.155,3.155,0,0,1-.228-4.211l2.673-3.322a36.037,36.037,0,0,1,6.212-6.055l14.064-10.737a1.979,1.979,0,0,1,1.521-.419c1.247.785,1.441,1.831.375,3.222l-10.283,13.3a33.581,33.581,0,0,1-5.653,6.174l-3.227,3.071a3.165,3.165,0,0,1-4.216-.231Z" transform="translate(-212.979 -16.547)" fill="#7a8c98"/>
        <path id="Trazado_1042874" data-name="Trazado 1042874" d="M269.547,20.9,258.786,34.943a36.014,36.014,0,0,1-6.067,6.2l-3.328,2.667a3.165,3.165,0,0,1-4.216-.231l-1.2-1.2a3.1,3.1,0,0,1-.261-.3,3.165,3.165,0,0,0,3.926-.024l3.328-2.667a35.984,35.984,0,0,0,6.067-6.2l10.761-14.038a1.971,1.971,0,0,0,.42-1.519,2.047,2.047,0,0,1,1.335,3.274Z" transform="translate(-218.555 -16.727)" fill="#687c87"/>
        <path id="Trazado_1042875" data-name="Trazado 1042875" d="M124.628,108.881a2.854,2.854,0,0,0-3.834.108,2.822,2.822,0,0,0-.264.294.314.314,0,0,1-.484.009q-.08-.091-.166-.177a3.72,3.72,0,0,0-6.251,3.485.321.321,0,0,1-.231.387,2.123,2.123,0,0,0-.96.553,2.147,2.147,0,0,0,.166,3.169.31.31,0,0,1,.056.437,2.839,2.839,0,0,0,4.226,3.778l7.89-7.89A2.839,2.839,0,0,0,124.628,108.881Z" transform="translate(-100.709 -97.496)" fill="#8ac9fe"/>
      </g>
      <g id="Grupo_1203242" data-name="Grupo 1203242" transform="translate(0 0)">
        <path id="Trazado_1042876" data-name="Trazado 1042876" d="M34.712,49.5l-4.1,1.576-3.762-9.748V32.485L29.8,29.548a3.953,3.953,0,0,0,2.338-.869l3.328-2.667a36.87,36.87,0,0,0,3.912-3.632l4.81-1.851.879,2.278a.8.8,0,0,0,1.49-.575l-1.166-3.023a.8.8,0,0,0-1.032-.458l-2.816,1.084,10.885-14.2a2.774,2.774,0,0,0-.243-3.724,2.779,2.779,0,0,0-3.731-.251L42.1,6.513a.8.8,0,1,0,.969,1.27l6.354-4.851a1.191,1.191,0,0,1,1.631.11,1.171,1.171,0,0,1,.106,1.624L40.4,18.7a35.285,35.285,0,0,1-5.933,6.062l-3.328,2.667a2.363,2.363,0,0,1-3.152-.173l-1.2-1.2a2.354,2.354,0,0,1-.17-3.145l2.673-3.322a35.282,35.282,0,0,1,6.074-5.921L40.1,10.045a.8.8,0,1,0-.969-1.27L34.386,12.4q-.786.6-1.539,1.243L19.423.234a.8.8,0,0,0-1.129,0L6.456,12.058a.8.8,0,1,0,1.129,1.13L18.859,1.928,31.652,14.706a36.855,36.855,0,0,0-3.615,3.882l-2.673,3.322a3.944,3.944,0,0,0-.873,2.335l-3.244,3.237-.607.22H11.214l-9.08-9.069,2.814-2.811a.8.8,0,1,0-1.129-1.13L.439,18.067a.8.8,0,0,0,0,1.13l8.514,8.5H.8a.8.8,0,0,0-.8.8V53.726a.8.8,0,0,0,.8.8H26.056a.8.8,0,0,0,.8-.8V45.763l2.559,6.63a.8.8,0,0,0,1.032.458l4.84-1.862a.8.8,0,1,0-.574-1.491ZM20.758,40.72a2.724,2.724,0,0,1,.557.692c-.014.141-.431.51-.631.688a3.445,3.445,0,0,0-1.05,1.292,3.474,3.474,0,0,0-.04,1.679,2.639,2.639,0,0,1,.04.918,2.623,2.623,0,0,1-.893.178,3.507,3.507,0,0,0-1.632.44,3.349,3.349,0,0,0-1,1.311c-.128.243-.4.749-.534.788s-.631-.251-.868-.391a3.348,3.348,0,0,0-1.535-.593,3.484,3.484,0,0,0-1.62.482,2.712,2.712,0,0,1-.849.318,2.575,2.575,0,0,1-.452-.8A3.472,3.472,0,0,0,9.34,46.31a3.446,3.446,0,0,0-1.572-.549,2.657,2.657,0,0,1-.895-.248,2.631,2.631,0,0,1,.108-.887,3.544,3.544,0,0,0,.086-1.71A3.544,3.544,0,0,0,6.1,41.506a2.724,2.724,0,0,1-.557-.691c.014-.141.431-.51.631-.688a3.445,3.445,0,0,0,1.05-1.292,3.473,3.473,0,0,0,.04-1.679,2.641,2.641,0,0,1-.04-.918,2.622,2.622,0,0,1,.893-.179,3.507,3.507,0,0,0,1.631-.44,3.348,3.348,0,0,0,1-1.311c.128-.243.4-.749.534-.788s.631.251.868.391a5.4,5.4,0,0,0,.941.475c-.079.263-.146.529-.2.8l-.3,1.476a4.529,4.529,0,0,0-.3,8.831,4.554,4.554,0,0,0,1.152.149,4.5,4.5,0,0,0,2.281-.623,4.552,4.552,0,0,0,2.234-3.708l.769-.145a9.12,9.12,0,0,0,1.908-.584l.131.137ZM18,39.677l-3.29.621a.877.877,0,0,1-1.024-1.033l.641-3.173H16.48A1.523,1.523,0,0,1,18,37.613Zm-5.215,1.5a2.475,2.475,0,0,0,2.222.693l1.3-.246a2.945,2.945,0,0,1-1.4,2.02,2.931,2.931,0,1,1-2.683-5.2l-.1.509A2.469,2.469,0,0,0,12.787,41.175Zm6.812-1.9v-1.66A3.122,3.122,0,0,0,16.481,34.5H14.728a7.613,7.613,0,0,1,4.549-4.6l1.484-.539a4.594,4.594,0,0,0,3.894,3.872l-.492,1.418A7.58,7.58,0,0,1,19.6,39.274ZM26.854,28.39a3.964,3.964,0,0,0,1.076.765l-2.544,2.539a3.021,3.021,0,0,1-3.074-3.018l2.571-2.566a3.963,3.963,0,0,0,.766,1.076ZM1.6,52.927V29.3H16.914a9.261,9.261,0,0,0-3.237,3.6,3.61,3.61,0,0,1-.724-.363,2.739,2.739,0,0,0-2.114-.551,2.74,2.74,0,0,0-1.51,1.579,2.743,2.743,0,0,1-.472.73,2.717,2.717,0,0,1-.9.177,2.7,2.7,0,0,0-1.988.779,2.714,2.714,0,0,0-.287,2.129,2.7,2.7,0,0,1,.043.9,2.756,2.756,0,0,1-.61.649,2.723,2.723,0,0,0-1.169,1.823,2.641,2.641,0,0,0,1,1.861,2.717,2.717,0,0,1,.584.737,2.721,2.721,0,0,1-.11.934,2.64,2.64,0,0,0,.123,2.11,2.722,2.722,0,0,0,1.951.938,2.753,2.753,0,0,1,.86.232,2.7,2.7,0,0,1,.438.792,2.715,2.715,0,0,0,1.362,1.662,2.7,2.7,0,0,0,2.1-.38,2.668,2.668,0,0,1,.861-.322,2.739,2.739,0,0,1,.785.373,3.405,3.405,0,0,0,1.662.614,1.653,1.653,0,0,0,.453-.063,2.74,2.74,0,0,0,1.51-1.579,2.74,2.74,0,0,1,.472-.73,2.718,2.718,0,0,1,.9-.177,2.7,2.7,0,0,0,1.988-.779,2.714,2.714,0,0,0,.287-2.129,2.7,2.7,0,0,1-.043-.9,2.756,2.756,0,0,1,.61-.648,2.722,2.722,0,0,0,1.168-1.823,2.359,2.359,0,0,0-.828-1.677,9.183,9.183,0,0,0,3.174-3.626V52.927Z" transform="translate(0 0)"/>
        <path id="Trazado_1042877" data-name="Trazado 1042877" d="M370.619,254.176l-6.575-17.039a.8.8,0,1,0-1.49.575l6.288,16.293-14.5,5.58a.8.8,0,1,0,.574,1.491l15.247-5.867a.8.8,0,0,0,.458-1.033Z" transform="translate(-316.148 -211.427)"/>
        <path id="Trazado_1042878" data-name="Trazado 1042878" d="M277.582,281.625a2.969,2.969,0,0,1,3.537,1.1,1.925,1.925,0,0,0,2.3.7l3.347-1.292a1.941,1.941,0,0,0,1.008-2.74,10.4,10.4,0,0,0-19.231,7.421,1.942,1.942,0,0,0,2.587,1.353l3.347-1.292a1.925,1.925,0,0,0,1.227-2.064A2.969,2.969,0,0,1,277.582,281.625Zm-7.031,5.055a.346.346,0,0,1-.289-.017.332.332,0,0,1-.17-.218,8.8,8.8,0,0,1,16.277-6.281.332.332,0,0,1,.02.276.346.346,0,0,1-.2.206l-.783.3a7.583,7.583,0,0,0-14.071,5.43Zm3.567-1.646a.339.339,0,0,1-.22.354l-1.063.41a5.985,5.985,0,0,1,11.067-4.271l-1.063.41a.339.339,0,0,1-.4-.114,4.581,4.581,0,0,0-8.32,3.211Z" transform="translate(-239.688 -244.831)"/>
        <path id="Trazado_1042879" data-name="Trazado 1042879" d="M105.051,110.318a3.638,3.638,0,0,0,5.675,4.47l7.89-7.89a3.637,3.637,0,0,0-5.071-5.214,4.486,4.486,0,0,0-3.021-1.158h0a4.521,4.521,0,0,0-4.478,5.136,2.929,2.929,0,0,0-.995,4.656Zm1.226-2.914a1.318,1.318,0,0,1,.8-.383.8.8,0,0,0,.674-1.048,2.922,2.922,0,0,1,2.77-3.85h0a2.9,2.9,0,0,1,2.065.856,3.008,3.008,0,0,1,.336.4.8.8,0,0,0,1.349-.065,2.039,2.039,0,1,1,3.212,2.454l-7.89,7.89a2.04,2.04,0,0,1-2.886-2.884l.013-.013a.8.8,0,0,0-.17-1.261,1.283,1.283,0,0,1-.275-.211,1.336,1.336,0,0,1,0-1.886Z" transform="translate(-93.184 -89.821)"/>
      </g>
    </g>
  </g>
</svg>
