<svg xmlns="http://www.w3.org/2000/svg" xmlns:xlink="http://www.w3.org/1999/xlink" width="110" height="110" viewBox="0 0 110 110">
  <defs>
    <filter id="Trazado_982547" x="0" y="0" width="110" height="110" filterUnits="userSpaceOnUse">
      <feOffset dy="3" input="SourceAlpha"/>
      <feGaussianBlur stdDeviation="3" result="blur"/>
      <feFlood flood-opacity="0.161"/>
      <feComposite operator="in" in2="blur"/>
      <feComposite in="SourceGraphic"/>
    </filter>
  </defs>
  <g id="Grupo_1203239" data-name="Grupo 1203239" transform="translate(-1112 -2542.04)">
    <g id="Grupo_1202788" data-name="Grupo 1202788" transform="translate(1121 2548.04)">
      <g id="Grupo_1175186" data-name="Grupo 1175186">
        <g id="Grupo_1164700" data-name="Grupo 1164700" transform="translate(0 0)">
          <g id="Grupo_1160931" data-name="Grupo 1160931" transform="translate(0 0)">
            <g id="Grupo_1160749" data-name="Grupo 1160749" transform="translate(0 0)">
              <g id="Grupo_1158891" data-name="Grupo 1158891">
                <g id="Grupo_1157406" data-name="Grupo 1157406">
                  <g id="Grupo_1155793" data-name="Grupo 1155793">
                    <g id="Grupo_1154704" data-name="Grupo 1154704">
                      <g id="Grupo_1150790" data-name="Grupo 1150790">
                        <g id="Grupo_1154214" data-name="Grupo 1154214">
                          <g id="Grupo_1152583" data-name="Grupo 1152583">
                            <g id="Grupo_1146973" data-name="Grupo 1146973">
                              <g id="Grupo_1146954" data-name="Grupo 1146954">
                                <g transform="matrix(1, 0, 0, 1, -9, -6)" filter="url(#Trazado_982547)">
                                  <g id="Trazado_982547-2" data-name="Trazado 982547" transform="translate(9 6)" fill="#effbfe">
                                    <path d="M 46.00000381469727 90.49986267089844 C 39.99188232421875 90.49986267089844 34.16428375244141 89.32350158691406 28.67905807495117 87.00344848632812 C 23.38021659851074 84.76223754882812 18.62104415893555 81.55341339111328 14.53376388549805 77.46613311767578 C 10.44647026062012 73.37885284423828 7.237643718719482 68.61968994140625 4.996417045593262 63.32085037231445 C 2.676363706588745 57.83565139770508 1.500003814697266 52.00805282592773 1.500003814697266 45.99993133544922 C 1.500003814697266 39.99182510375977 2.676363706588745 34.16422653198242 4.996417045593262 28.67901039123535 C 7.237643718719482 23.38017082214355 10.44647026062012 18.62101173400879 14.53376388549805 14.53373146057129 C 18.62104415893555 10.44645118713379 23.38021659851074 7.237624645233154 28.67905807495117 4.996411323547363 C 34.16428375244141 2.676357984542847 39.99188232421875 1.499997973442078 46.00000381469727 1.499997973442078 C 52.00812530517578 1.499997973442078 57.83573532104492 2.676357984542847 63.32094955444336 4.996411323547363 C 68.61980438232422 7.237624645233154 73.37896728515625 10.44645118713379 77.46625518798828 14.53373146057129 C 81.55353546142578 18.62101173400879 84.76236724853516 23.38017082214355 87.00359344482422 28.67901039123535 C 89.32364654541016 34.16422653198242 90.5 39.99182510375977 90.5 45.99993133544922 C 90.5 52.00805282592773 89.32364654541016 57.83565139770508 87.00359344482422 63.32085037231445 C 84.76236724853516 68.61968994140625 81.55353546142578 73.37885284423828 77.46625518798828 77.46613311767578 C 73.37896728515625 81.55341339111328 68.61980438232422 84.76223754882812 63.32094955444336 87.00344848632812 C 57.83573532104492 89.32350158691406 52.00812530517578 90.49986267089844 46.00000381469727 90.49986267089844 Z" stroke="none"/>
                                    <path d="M 46.00000381469727 3 C 40.19371795654297 3 34.56270217895508 4.136505126953125 29.26338958740234 6.377914428710938 C 24.14333343505859 8.54351806640625 19.54443359375 11.64438629150391 15.59442138671875 15.59439086914062 C 11.64440155029297 19.54440307617188 8.543533325195312 24.14330291748047 6.3779296875 29.26334381103516 C 4.136505126953125 34.56266021728516 3.000007629394531 40.19366073608398 3.000007629394531 45.99993133544922 C 3.000007629394531 51.80620193481445 4.136505126953125 57.43720245361328 6.3779296875 62.73651885986328 C 8.543533325195312 67.85655975341797 11.64440155029297 72.45545959472656 15.59442138671875 76.40547180175781 C 19.54443359375 80.35547637939453 24.14333343505859 83.45634460449219 29.26338958740234 85.6219482421875 C 34.56270217895508 87.86335754394531 40.19371795654297 88.99986267089844 46.00000381469727 88.99986267089844 C 51.80628967285156 88.99986267089844 57.43730545043945 87.86335754394531 62.73663330078125 85.6219482421875 C 67.85667419433594 83.45634460449219 72.45558929443359 80.35547637939453 76.40560150146484 76.40547180175781 C 80.35560607910156 72.45545959472656 83.45648956298828 67.85655975341797 85.62208557128906 62.73651885986328 C 87.86350250244141 57.43720245361328 89 51.80620193481445 89 45.99993133544922 C 89 40.19366073608398 87.86350250244141 34.56266021728516 85.62208557128906 29.26334381103516 C 83.45648956298828 24.14330291748047 80.35560607910156 19.54440307617188 76.40560150146484 15.59439086914062 C 72.45558929443359 11.64438629150391 67.85667419433594 8.54351806640625 62.73663330078125 6.377914428710938 C 57.43730545043945 4.136505126953125 51.80628967285156 3 46.00000381469727 3 M 46.00000381469727 0 C 71.40510559082031 0 92 20.59487152099609 92 45.99993133544922 C 92 71.40499114990234 71.40510559082031 91.99986267089844 46.00000381469727 91.99986267089844 C 20.59491729736328 91.99986267089844 7.62939453125e-06 71.40499114990234 7.62939453125e-06 45.99993133544922 C 7.62939453125e-06 20.59487152099609 20.59491729736328 0 46.00000381469727 0 Z" stroke="none" fill="#397b86"/>
                                  </g>
                                </g>
                              </g>
                            </g>
                          </g>
                        </g>
                      </g>
                    </g>
                  </g>
                </g>
              </g>
            </g>
          </g>
        </g>
      </g>
    </g>
    <g id="herbario" transform="translate(1138.181 2563.166)">
      <g id="Grupo_1203237" data-name="Grupo 1203237" transform="translate(0.933 0.92)">
        <path id="Trazado_1042824" data-name="Trazado 1042824" d="M297.259,28.109a2.415,2.415,0,0,1,2.118-2.118c6.275-.731,12.178.871,16.309,5s5.733,10.035,5,16.309a2.415,2.415,0,0,1-2.118,2.118c-6.275.731-12.178-.871-16.31-5S296.528,34.384,297.259,28.109Z" transform="translate(-297.088 -23.526)" fill="#00ba66"/>
        <path id="Trazado_1042825" data-name="Trazado 1042825" d="M316.1,49.133c.731-6.275-.871-12.178-5-16.309a18.719,18.719,0,0,0-14.013-5.165,2.415,2.415,0,0,1,2.02-1.668c6.275-.731,12.178.871,16.31,5s5.733,10.035,5,16.31a2.415,2.415,0,0,1-2.118,2.118q-1.158.135-2.3.163A2.4,2.4,0,0,0,316.1,49.133Z" transform="translate(-296.819 -23.525)" fill="#00a855"/>
        <path id="Trazado_1042826" data-name="Trazado 1042826" d="M178.166,82.685a1.717,1.717,0,0,0-1.505-1.505c-4.46-.52-8.655.619-11.591,3.555s-4.075,7.131-3.555,11.591a1.717,1.717,0,0,0,1.505,1.505c4.46.52,8.655-.619,11.591-3.555S178.685,87.144,178.166,82.685Z" transform="translate(-137.622 -71.886)" fill="#00ba66"/>
        <path id="Trazado_1042827" data-name="Trazado 1042827" d="M171.545,91.791a13.487,13.487,0,0,0,3.64-10.632q.714.026,1.439.109a1.717,1.717,0,0,1,1.505,1.505c.52,4.46-.619,8.655-3.555,11.591s-7.131,4.075-11.591,3.555a1.717,1.717,0,0,1-1.505-1.505c-.037-.321-.065-.641-.085-.959A13.355,13.355,0,0,0,171.545,91.791Z" transform="translate(-137.585 -71.975)" fill="#00a855"/>
        <path id="Trazado_1042828" data-name="Trazado 1042828" d="M259.936,7.64a.654.654,0,0,0-.789-.187,5.243,5.243,0,0,0-3.051,3.47,5.243,5.243,0,0,0,1.163,4.472.654.654,0,0,0,.789.188,5.243,5.243,0,0,0,3.051-3.47,5.243,5.243,0,0,0-1.163-4.472Z" transform="translate(-232.332 -7.392)" fill="#00ba66"/>
        <path id="Trazado_1042829" data-name="Trazado 1042829" d="M379.141,284.547a1.748,1.748,0,0,1-1.2-.321l-7.807-5.615a2.978,2.978,0,0,0-1.367-.54.248.248,0,0,1-.215-.253,3.441,3.441,0,0,1,1.279-2.665,2.992,2.992,0,0,1,4.209.742l5.508,7.943a1.774,1.774,0,0,0,.7.6h0Z" transform="translate(-365.382 -241.327)" fill="#ffbd86"/>
        <path id="Trazado_1042830" data-name="Trazado 1042830" d="M368.924,275.9a3.062,3.062,0,0,0-.3-.368.248.248,0,0,1,.027-.373l0,0a2.992,2.992,0,0,1,4.209.742l5.508,7.943a1.774,1.774,0,0,0,.7.6h0l-1.115.113a1.747,1.747,0,0,1-1.2-.321l-4.082-2.936a.249.249,0,0,1-.059-.06Z" transform="translate(-364.202 -241.327)" fill="#f6a96c"/>
        <path id="Trazado_1042831" data-name="Trazado 1042831" d="M131.322,282.558a3.031,3.031,0,0,1,4.273-.806l7.731,5.447a2.021,2.021,0,0,0,1.364.359l4.057-.4a.425.425,0,0,0,.206-.769,3.3,3.3,0,0,1,1.382-5.989l13.423-2.052a5.944,5.944,0,0,1,4.321,1.015l7.125,5.02a.249.249,0,0,1,.059.347L167.3,295.908a.248.248,0,0,1-.325.071,18.786,18.786,0,0,0-9.5-2.446l-12.1.147a9.669,9.669,0,0,1-5.809-1.76l-7.411-5.221A3.042,3.042,0,0,1,131.322,282.558Z" transform="translate(-130.84 -244.55)" fill="#fed2a4"/>
        <path id="Trazado_1042832" data-name="Trazado 1042832" d="M136.871,282.919l-5.055-3.561a5.879,5.879,0,0,0-.832-.489.248.248,0,0,1,.067-.471l.36-.055a5.944,5.944,0,0,1,4.321,1.015l7.125,5.02a.249.249,0,0,1,.059.347l-7.962,11.181a.248.248,0,0,1-.325.071,18.75,18.75,0,0,0-2.435-1.158.248.248,0,0,1-.114-.376l5.451-7.656A2.769,2.769,0,0,0,136.871,282.919Z" transform="translate(-98.493 -244.549)" fill="#ffbd86"/>
        <path id="Trazado_1042833" data-name="Trazado 1042833" d="M270.251,330.3a.249.249,0,0,1-.27-.178.171.171,0,0,0-.107-.122,3.329,3.329,0,0,1-1.671-1.466.988.988,0,0,1,.179-.033l9.022-.8a.979.979,0,1,1,.176,1.95Z" transform="translate(-251.107 -287.812)" fill="#ffbd86"/>
        <path id="Trazado_1042834" data-name="Trazado 1042834" d="M35.331,332.517a.248.248,0,0,1,.346-.059l6.868,4.865a1.38,1.38,0,0,1,.36,1.917l-9.932,14.022a1.38,1.38,0,0,1-1.928.3l-6.868-4.865a.249.249,0,0,1-.059-.346Z" transform="translate(14.614 -291.947)" fill="#22a7ff"/>
        <path id="Trazado_1042835" data-name="Trazado 1042835" d="M33.29,339.241a1.38,1.38,0,0,0-.36-1.917L28.812,334.5a.248.248,0,0,1-.062-.349l1.159-1.636a.249.249,0,0,1,.346-.059l6.868,4.865a1.38,1.38,0,0,1,.36,1.917l-9.932,14.023a1.38,1.38,0,0,1-1.928.3l-1.446-1.024a.248.248,0,0,1-.059-.346Z" transform="translate(20.036 -291.948)" fill="#0094fd"/>
        <path id="Trazado_1042836" data-name="Trazado 1042836" d="M89.26,331.518a.248.248,0,0,1-.346.059l-2.817-2a1.366,1.366,0,0,1-.337-1.9l9.932-14.023a1.366,1.366,0,0,1,1.906-.313l2.817,2a.249.249,0,0,1,.059.346Z" transform="translate(-50.405 -275.029)" fill="#d9edff"/>
        <g id="Grupo_1203236" data-name="Grupo 1203236" transform="translate(44.677 38.06)">
          <path id="Trazado_1042837" data-name="Trazado 1042837" d="M85.618,314.8a.248.248,0,0,1-.062-.349l.563-.794a1.366,1.366,0,0,1,1.906-.313l2.817,2a.248.248,0,0,1,.059.346l-1.162,1.64a.248.248,0,0,1-.343.061Z" transform="translate(-85.51 -313.091)" fill="#b4dbff"/>
        </g>
      </g>
      <g id="Grupo_1203238" data-name="Grupo 1203238" transform="translate(0 0)">
        <path id="Trazado_1042838" data-name="Trazado 1042838" d="M251.877,9.973a1.582,1.582,0,0,1-1.917-.455A5.855,5.855,0,0,1,252.186.151,1.582,1.582,0,0,1,254.1.606,5.855,5.855,0,0,1,251.877,9.973Zm.9-8.031a3.958,3.958,0,0,0-1.483,6.239A3.958,3.958,0,0,0,252.773,1.942Z" transform="translate(-224.834 -0.001)"/>
        <path id="Trazado_1042839" data-name="Trazado 1042839" d="M19.284,276.227l7.412,5.222a8.805,8.805,0,0,0,5.261,1.59l5.626-.069h.012a.934.934,0,0,1,.011,1.867l-5.614.068a10.672,10.672,0,0,1-6.371-1.93l-7.412-5.222a4,4,0,0,1-1.082-5.418,3.927,3.927,0,0,1,2.569-1.709l.037-.006a3.917,3.917,0,0,1,7.121-1.743l5.5,7.928,1.769-.176a4.237,4.237,0,0,1,2.662-6.865l13.425-2.053a6.843,6.843,0,0,1,5,1.175l6.412,4.518.336-.474a2.3,2.3,0,0,1,3.208-.535l9.97,7.062a2.312,2.312,0,0,1,.582,3.219L65.781,296.7a2.312,2.312,0,0,1-3.23.519l-9.97-7.062a2.3,2.3,0,0,1-.56-3.2l.228-.322a17.879,17.879,0,0,0-8.172-1.874l-2.113.026a.934.934,0,0,1-.023-1.867l2.113-.026a19.735,19.735,0,0,1,9.287,2.2l7.2-10.162-6.408-4.515a4.986,4.986,0,0,0-3.643-.855L37.064,271.61a2.371,2.371,0,0,0,.225,4.714c.024,0,.047,0,.069.007l5.009-.4a.934.934,0,1,1,.149,1.862c-7.542.6-5.156.39-11.239,1a2.739,2.739,0,0,1-1.827-.481l-7.808-5.5a2.077,2.077,0,1,0-2.358,3.42ZM63.63,295.7a.448.448,0,0,0,.627-.075L74.19,281.6a.448.448,0,0,0-.137-.616l-6.31-4.47L57.32,291.226Zm-10.085-7.662a.433.433,0,0,0,.115.6l2.136,1.513,10.423-14.715-2.136-1.513a.432.432,0,0,0-.6.09ZM22.717,271.28l6.9,4.862-4.3-6.2a2.039,2.039,0,0,0-3.7.793A4.043,4.043,0,0,1,22.717,271.28Z" transform="translate(-16.492 -233.91)"/>
        <path id="Trazado_1042840" data-name="Trazado 1042840" d="M154.067,21.544A3.335,3.335,0,0,1,157,18.607c11.374-1.325,19.87,4.83,22,14.4,2.4-5.193,7.87-8.4,14.967-7.574a2.639,2.639,0,0,1,2.324,2.324c1.2,10.28-6.07,17.36-16.181,16.182a2.639,2.639,0,0,1-1.757-.969,3.339,3.339,0,0,1-1.943.92,20.99,20.99,0,0,1-14.843-3.378.934.934,0,1,1,1.085-1.52,19.1,19.1,0,0,0,13.522,3.046L171.644,37.5h-5.9a.934.934,0,0,1,0-1.868h4.036l-3.568-3.568h-4.681a.934.934,0,1,1,0-1.868h2.813L160.75,26.61a.934.934,0,0,1,1.321-1.32l3.591,3.591V26.067a.934.934,0,1,1,1.868,0v4.681l3.568,3.568V30.28a.934.934,0,0,1,1.868,0v5.9l4.534,4.534c1.491-12.885-7.365-21.761-20.278-20.256a1.474,1.474,0,0,0-1.3,1.3c-.653,5.6.668,10.726,3.72,14.424a.934.934,0,0,1-1.441,1.189C154.823,33.278,153.355,27.657,154.067,21.544Zm25.52,19.277,2.739-2.739V34a.934.934,0,0,1,1.868,0v2.216l2-2V31a.934.934,0,0,1,1.868,0v1.347l2.091-2.091a.934.934,0,1,1,1.321,1.32l-2.091,2.091h1.347a.934.934,0,0,1,0,1.868H187.51l-2,2h2.216a.934.934,0,0,1,0,1.868h-4.084l-2.739,2.739c8.7.724,14.557-5.374,13.532-14.167a.779.779,0,0,0-.686-.686C184.925,26.26,178.867,32.161,179.587,40.821Z" transform="translate(-153.891 -16.134)"/>
      </g>
    </g>
  </g>
</svg>
