<svg xmlns="http://www.w3.org/2000/svg" xmlns:xlink="http://www.w3.org/1999/xlink" width="110" height="110" viewBox="0 0 110 110">
  <defs>
    <filter id="Trazado_982547" x="0" y="0" width="110" height="110" filterUnits="userSpaceOnUse">
      <feOffset dy="3" input="SourceAlpha"/>
      <feGaussianBlur stdDeviation="3" result="blur"/>
      <feFlood flood-opacity="0.161"/>
      <feComposite operator="in" in2="blur"/>
      <feComposite in="SourceGraphic"/>
    </filter>
  </defs>
  <g id="Grupo_1203235" data-name="Grupo 1203235" transform="translate(-796 -2542.296)">
    <g id="Grupo_1202787" data-name="Grupo 1202787" transform="translate(805 2548.296)">
      <g id="Grupo_1175185" data-name="Grupo 1175185">
        <g id="Grupo_1164700" data-name="Grupo 1164700" transform="translate(0 0)">
          <g id="Grupo_1160931" data-name="Grupo 1160931" transform="translate(0 0)">
            <g id="Grupo_1160749" data-name="Grupo 1160749" transform="translate(0 0)">
              <g id="Grupo_1158891" data-name="Grupo 1158891">
                <g id="Grupo_1157406" data-name="Grupo 1157406">
                  <g id="Grupo_1155793" data-name="Grupo 1155793">
                    <g id="Grupo_1154704" data-name="Grupo 1154704">
                      <g id="Grupo_1150790" data-name="Grupo 1150790">
                        <g id="Grupo_1154214" data-name="Grupo 1154214">
                          <g id="Grupo_1152583" data-name="Grupo 1152583">
                            <g id="Grupo_1146973" data-name="Grupo 1146973">
                              <g id="Grupo_1146954" data-name="Grupo 1146954">
                                <g transform="matrix(1, 0, 0, 1, -9, -6)" filter="url(#Trazado_982547)">
                                  <g id="Trazado_982547-2" data-name="Trazado 982547" transform="translate(9 6)" fill="#effbfe">
                                    <path d="M 46.00000381469727 90.49986267089844 C 39.99188232421875 90.49986267089844 34.16428375244141 89.32350158691406 28.67905807495117 87.00344848632812 C 23.38021659851074 84.76223754882812 18.62104415893555 81.55341339111328 14.53376388549805 77.46613311767578 C 10.44647026062012 73.37885284423828 7.237643718719482 68.61968994140625 4.996417045593262 63.32085037231445 C 2.676363706588745 57.83565139770508 1.500003814697266 52.00805282592773 1.500003814697266 45.99993133544922 C 1.500003814697266 39.99182510375977 2.676363706588745 34.16422653198242 4.996417045593262 28.67901039123535 C 7.237643718719482 23.38017082214355 10.44647026062012 18.62101173400879 14.53376388549805 14.53373146057129 C 18.62104415893555 10.44645118713379 23.38021659851074 7.237624645233154 28.67905807495117 4.996411323547363 C 34.16428375244141 2.676357984542847 39.99188232421875 1.499997973442078 46.00000381469727 1.499997973442078 C 52.00812530517578 1.499997973442078 57.83573532104492 2.676357984542847 63.32094955444336 4.996411323547363 C 68.61980438232422 7.237624645233154 73.37896728515625 10.44645118713379 77.46625518798828 14.53373146057129 C 81.55353546142578 18.62101173400879 84.76236724853516 23.38017082214355 87.00359344482422 28.67901039123535 C 89.32364654541016 34.16422653198242 90.5 39.99182510375977 90.5 45.99993133544922 C 90.5 52.00805282592773 89.32364654541016 57.83565139770508 87.00359344482422 63.32085037231445 C 84.76236724853516 68.61968994140625 81.55353546142578 73.37885284423828 77.46625518798828 77.46613311767578 C 73.37896728515625 81.55341339111328 68.61980438232422 84.76223754882812 63.32094955444336 87.00344848632812 C 57.83573532104492 89.32350158691406 52.00812530517578 90.49986267089844 46.00000381469727 90.49986267089844 Z" stroke="none"/>
                                    <path d="M 46.00000381469727 3 C 40.19371795654297 3 34.56270217895508 4.136505126953125 29.26338958740234 6.377914428710938 C 24.14333343505859 8.54351806640625 19.54443359375 11.64438629150391 15.59442138671875 15.59439086914062 C 11.64440155029297 19.54440307617188 8.543533325195312 24.14330291748047 6.3779296875 29.26334381103516 C 4.136505126953125 34.56266021728516 3.000007629394531 40.19366073608398 3.000007629394531 45.99993133544922 C 3.000007629394531 51.80620193481445 4.136505126953125 57.43720245361328 6.3779296875 62.73651885986328 C 8.543533325195312 67.85655975341797 11.64440155029297 72.45545959472656 15.59442138671875 76.40547180175781 C 19.54443359375 80.35547637939453 24.14333343505859 83.45634460449219 29.26338958740234 85.6219482421875 C 34.56270217895508 87.86335754394531 40.19371795654297 88.99986267089844 46.00000381469727 88.99986267089844 C 51.80628967285156 88.99986267089844 57.43730545043945 87.86335754394531 62.73663330078125 85.6219482421875 C 67.85667419433594 83.45634460449219 72.45558929443359 80.35547637939453 76.40560150146484 76.40547180175781 C 80.35560607910156 72.45545959472656 83.45648956298828 67.85655975341797 85.62208557128906 62.73651885986328 C 87.86350250244141 57.43720245361328 89 51.80620193481445 89 45.99993133544922 C 89 40.19366073608398 87.86350250244141 34.56266021728516 85.62208557128906 29.26334381103516 C 83.45648956298828 24.14330291748047 80.35560607910156 19.54440307617188 76.40560150146484 15.59439086914062 C 72.45558929443359 11.64438629150391 67.85667419433594 8.54351806640625 62.73663330078125 6.377914428710938 C 57.43730545043945 4.136505126953125 51.80628967285156 3 46.00000381469727 3 M 46.00000381469727 0 C 71.40510559082031 0 92 20.59487152099609 92 45.99993133544922 C 92 71.40499114990234 71.40510559082031 91.99986267089844 46.00000381469727 91.99986267089844 C 20.59491729736328 91.99986267089844 7.62939453125e-06 71.40499114990234 7.62939453125e-06 45.99993133544922 C 7.62939453125e-06 20.59487152099609 20.59491729736328 0 46.00000381469727 0 Z" stroke="none" fill="#397b86"/>
                                  </g>
                                </g>
                              </g>
                            </g>
                          </g>
                        </g>
                      </g>
                    </g>
                  </g>
                </g>
              </g>
            </g>
          </g>
        </g>
      </g>
    </g>
    <g id="arcilla-de-moldear" transform="translate(816.12 2532.803)">
      <g id="Grupo_1203233" data-name="Grupo 1203233" transform="translate(0.964 38.292)">
        <path id="Trazado_1042809" data-name="Trazado 1042809" d="M373.8,94.806l-4.36,3.384,3.141,3.386-1.608,8.932c-9.7-5.981-12.944-18.293-8.54-26.2h13.257Z" transform="translate(-315.134 -79.231)" fill="#fbf198"/>
        <path id="Trazado_1042810" data-name="Trazado 1042810" d="M247.327,110.507l-.283,1.567H223.619l-5-27.767h20.168A31.645,31.645,0,0,0,247.327,110.507Z" transform="translate(-191.483 -79.231)" fill="#fad989"/>
        <path id="Trazado_1042811" data-name="Trazado 1042811" d="M384.564,165.988l-1.219,6.77h-7.632c-3.022-1.81-3.455-4.168-2.2-6.77Z" transform="translate(-325.894 -150.414)" fill="#ff8a98"/>
        <path id="Trazado_1042812" data-name="Trazado 1042812" d="M254.123,172.758H234.549l-1.218-6.77h18.593A32.11,32.11,0,0,0,254.123,172.758Z" transform="translate(-204.304 -150.414)" fill="#fd5c6f"/>
        <path id="Trazado_1042813" data-name="Trazado 1042813" d="M351.593,46.773V50.6a1.956,1.956,0,0,1-1.956,1.955H336.044c-6.36-.913-8.668-5.8-4.928-7.74h18.522A1.956,1.956,0,0,1,351.593,46.773Z" transform="translate(-287.953 -44.817)" fill="#ff8a98"/>
        <path id="Trazado_1042814" data-name="Trazado 1042814" d="M220.367,52.558H198.534a1.955,1.955,0,0,1-1.955-1.955V46.774a1.955,1.955,0,0,1,1.955-1.956h16.9C214.52,47.192,215.971,50.752,220.367,52.558Z" transform="translate(-172.276 -44.818)" fill="#fd5c6f"/>
        <g id="Grupo_1203232" data-name="Grupo 1203232" transform="translate(0 2.538)">
          <path id="Trazado_1042815" data-name="Trazado 1042815" d="M148.24,87.014c-.077.014-.153.026-.23.037-.677.1-.937.64-.976,1.422-16.461,0-22.5-15.362-15.07-23.854,6.789-.611,8.849,4.216,16.946,6.831a8.2,8.2,0,0,1,5.888,7.171A8.007,8.007,0,0,1,148.24,87.014Z" transform="translate(-113.229 -64.566)" fill="#60daa8"/>
          <path id="Trazado_1042816" data-name="Trazado 1042816" d="M41.43,97.286a13.675,13.675,0,0,1-5.673,1.959c-3,.341-12.912-7.191-15.352-8.574a10.378,10.378,0,0,0-5.774-1.4l-.194.01a6.736,6.736,0,0,1-6.83-5.46c-.551-2.9,1.118-5.272,3.179-7.04,6.1-5.233,6.95-10.7,14.842-11.738.207-.027.41-.05.608-.068-3.83,7.8,1.851,19.239,15.07,23.854C41.186,91.292,43.263,96.152,41.43,97.286Z" transform="translate(-7.501 -64.925)" fill="#00ce8e"/>
          <path id="Trazado_1042817" data-name="Trazado 1042817" d="M210.515,211.891l-6.067,6.067a4.677,4.677,0,0,1-7.095-.564l-3.545-4.895a4.5,4.5,0,0,0-4.63-1.751c-1.416.317-2.832.625-4.2.913-7.907-.422-9.724-7.419-5.508-11.277l5.006-2.4-5.8-.594a4.989,4.989,0,0,1-4.436-5.627,5.054,5.054,0,0,1,5.005-4.325l5.463-.04c5.042-.126,9.7,2.167,13.394,5.469l12.412,12.412A4.679,4.679,0,0,1,210.515,211.891Z" transform="translate(-152.77 -171.603)" fill="#ffddcf"/>
          <path id="Trazado_1042818" data-name="Trazado 1042818" d="M68.524,253.048c-2.721.573-5.252,1.074-7.226,1.455a8.945,8.945,0,0,1-7.283-1.806l-11.673-9.361a4.75,4.75,0,0,1,5.724-7.577l11.072,7.873,3.879-1.861A9.239,9.239,0,0,0,68.524,253.048Z" transform="translate(-36.314 -212.989)" fill="#ffcbbe"/>
          <path id="Trazado_1042819" data-name="Trazado 1042819" d="M317.4,292.186l12.1-12.1a3.844,3.844,0,0,0,0-5.436l-5.855-5.855a3.844,3.844,0,0,0-5.436,0l-12.1,12.1a3.844,3.844,0,0,0,0,5.436l5.855,5.855A3.844,3.844,0,0,0,317.4,292.186Z" transform="translate(-266.748 -241.563)" fill="#5ad6ff"/>
        </g>
      </g>
      <g id="Grupo_1203234" data-name="Grupo 1203234" transform="translate(0 37.33)">
        <path id="Trazado_1042820" data-name="Trazado 1042820" d="M64.4,73.236l-6.168-6.141L61.853,47h.8a2.923,2.923,0,0,0,2.919-2.919V40.249A2.923,2.923,0,0,0,62.65,37.33H58.282a.964.964,0,1,0,0,1.928H62.65a.993.993,0,0,1,.991.991v3.829a.993.993,0,0,1-.991.991H32.845c-1.286-.674-2.4-1.38-3.444-2.041a34.707,34.707,0,0,0-3.168-1.859v-.921a.993.993,0,0,1,.992-.991H53.784a.964.964,0,1,0,0-1.928H27.224A2.931,2.931,0,0,0,24.3,40.388,12.055,12.055,0,0,0,18.967,40c-5.6.741-7.922,3.587-10.606,6.882-.649.8-1.32,1.62-2.071,2.456a.964.964,0,0,0,1.434,1.289c.783-.87,1.468-1.713,2.132-2.527,2.623-3.221,4.518-5.547,9.363-6.188,3.942-.522,6.11.816,9.149,2.749a32.921,32.921,0,0,0,7.982,3.976,7.238,7.238,0,0,1,5.222,6.32,6.944,6.944,0,0,1-.314,2.58,18.211,18.211,0,0,0-8.37-1.872l-5.454.039a6.029,6.029,0,0,0-5.955,5.163,5.953,5.953,0,0,0,5.294,6.712l2.4.246-5.29,2.538L13.277,62.816A5.727,5.727,0,0,0,5.57,63.824a5.78,5.78,0,0,1-3.55-4.275c-.371-1.953.442-3.882,2.419-5.732A.964.964,0,1,0,3.121,52.41c-2.49,2.332-3.5,4.855-3,7.5A7.719,7.719,0,0,0,4.6,65.51,5.721,5.721,0,0,0,6.391,71.93l11.673,9.361a9.892,9.892,0,0,0,8.068,2c2.847-.548,7.145-1.4,11.453-2.372a3.523,3.523,0,0,1,1.1-.071,4.815,4.815,0,0,0,.959,5.434L45.5,92.136a4.814,4.814,0,0,0,6.8,0l12.1-12.1A4.814,4.814,0,0,0,64.4,73.236ZM57.612,59.673H44.83c-.576-.418-1.193-.828-1.849-1.217a8.87,8.87,0,0,0,.516-3.624H58.483ZM57.264,61.6l-.819,4.549a4.831,4.831,0,0,0-1.3-.178,4.773,4.773,0,0,0-2.745.861L47.17,61.6ZM37.5,47H59.894L58.831,52.9H43.153A9.29,9.29,0,0,0,37.5,47Zm-.339,32.04C32.879,80,28.6,80.853,25.768,81.4a7.964,7.964,0,0,1-6.5-1.611L7.6,70.426a3.785,3.785,0,0,1-.867-4.919,3.852,3.852,0,0,1,.3-.426,3.8,3.8,0,0,1,5.129-.694L23.23,72.259a.963.963,0,0,0,.976.083l8.886-4.264a.964.964,0,0,0-.319-1.828l-5.8-.594a4.025,4.025,0,0,1-3.579-4.541,4.093,4.093,0,0,1,4.057-3.488l5.463-.039c5.031-.124,9.36,2.224,12.724,5.205l5.35,5.35L39.978,79.152a5.494,5.494,0,0,0-2.815-.114Zm25.876-.366-12.1,12.1a2.884,2.884,0,0,1-4.073,0L41.01,84.918a2.88,2.88,0,0,1,0-4.073l12.1-12.1a2.88,2.88,0,0,1,4.073,0L63.039,74.6a2.883,2.883,0,0,1,0,4.073Z" transform="translate(0 -37.33)"/>
        <path id="Trazado_1042821" data-name="Trazado 1042821" d="M225.829,134.839V133.3a.964.964,0,0,0-1.928,0v1.542a.964.964,0,0,0,1.928,0Z" transform="translate(-195.122 -120.122)"/>
        <path id="Trazado_1042822" data-name="Trazado 1042822" d="M100.932,134.839V133.3a.964.964,0,0,0-1.928,0v1.542a.964.964,0,0,0,1.928,0Z" transform="translate(-86.279 -120.122)"/>
        <path id="Trazado_1042823" data-name="Trazado 1042823" d="M148.069,146.869a3.771,3.771,0,0,0,2.843-1.295.964.964,0,1,0-1.454-1.267,1.841,1.841,0,0,1-2.779,0,.964.964,0,0,0-1.453,1.267,3.771,3.771,0,0,0,2.843,1.295Z" transform="translate(-126.353 -130.27)"/>
      </g>
    </g>
  </g>
</svg>
