<svg xmlns="http://www.w3.org/2000/svg" xmlns:xlink="http://www.w3.org/1999/xlink" width="110" height="110" viewBox="0 0 110 110">
  <defs>
    <filter id="Trazado_982547" x="0" y="0" width="110" height="110" filterUnits="userSpaceOnUse">
      <feOffset dy="3" input="SourceAlpha"/>
      <feGaussianBlur stdDeviation="3" result="blur"/>
      <feFlood flood-opacity="0.161"/>
      <feComposite operator="in" in2="blur"/>
      <feComposite in="SourceGraphic"/>
    </filter>
  </defs>
  <g id="Grupo_1203247" data-name="Grupo 1203247" transform="translate(-1205 -2947.403)">
    <g id="Grupo_1202792" data-name="Grupo 1202792" transform="translate(1214 2953.403)">
      <g id="Grupo_1175185" data-name="Grupo 1175185">
        <g id="Grupo_1164700" data-name="Grupo 1164700" transform="translate(0 0)">
          <g id="Grupo_1160931" data-name="Grupo 1160931" transform="translate(0 0)">
            <g id="Grupo_1160749" data-name="Grupo 1160749" transform="translate(0 0)">
              <g id="Grupo_1158891" data-name="Grupo 1158891">
                <g id="Grupo_1157406" data-name="Grupo 1157406">
                  <g id="Grupo_1155793" data-name="Grupo 1155793">
                    <g id="Grupo_1154704" data-name="Grupo 1154704">
                      <g id="Grupo_1150790" data-name="Grupo 1150790">
                        <g id="Grupo_1154214" data-name="Grupo 1154214">
                          <g id="Grupo_1152583" data-name="Grupo 1152583">
                            <g id="Grupo_1146973" data-name="Grupo 1146973">
                              <g id="Grupo_1146954" data-name="Grupo 1146954">
                                <g transform="matrix(1, 0, 0, 1, -9, -6)" filter="url(#Trazado_982547)">
                                  <g id="Trazado_982547-2" data-name="Trazado 982547" transform="translate(9 6)" fill="#effbfe">
                                    <path d="M 46.00000381469727 90.49986267089844 C 39.99188232421875 90.49986267089844 34.16428375244141 89.32350158691406 28.67905807495117 87.00344848632812 C 23.38021659851074 84.76223754882812 18.62104415893555 81.55341339111328 14.53376388549805 77.46613311767578 C 10.44647026062012 73.37885284423828 7.237643718719482 68.61968994140625 4.996417045593262 63.32085037231445 C 2.676363706588745 57.83565139770508 1.500003814697266 52.00805282592773 1.500003814697266 45.99993133544922 C 1.500003814697266 39.99182510375977 2.676363706588745 34.16422653198242 4.996417045593262 28.67901039123535 C 7.237643718719482 23.38017082214355 10.44647026062012 18.62101173400879 14.53376388549805 14.53373146057129 C 18.62104415893555 10.44645118713379 23.38021659851074 7.237624645233154 28.67905807495117 4.996411323547363 C 34.16428375244141 2.676357984542847 39.99188232421875 1.499997973442078 46.00000381469727 1.499997973442078 C 52.00812530517578 1.499997973442078 57.83573532104492 2.676357984542847 63.32094955444336 4.996411323547363 C 68.61980438232422 7.237624645233154 73.37896728515625 10.44645118713379 77.46625518798828 14.53373146057129 C 81.55353546142578 18.62101173400879 84.76236724853516 23.38017082214355 87.00359344482422 28.67901039123535 C 89.32364654541016 34.16422653198242 90.5 39.99182510375977 90.5 45.99993133544922 C 90.5 52.00805282592773 89.32364654541016 57.83565139770508 87.00359344482422 63.32085037231445 C 84.76236724853516 68.61968994140625 81.55353546142578 73.37885284423828 77.46625518798828 77.46613311767578 C 73.37896728515625 81.55341339111328 68.61980438232422 84.76223754882812 63.32094955444336 87.00344848632812 C 57.83573532104492 89.32350158691406 52.00812530517578 90.49986267089844 46.00000381469727 90.49986267089844 Z" stroke="none"/>
                                    <path d="M 46.00000381469727 3 C 40.19371795654297 3 34.56270217895508 4.136505126953125 29.26338958740234 6.377914428710938 C 24.14333343505859 8.54351806640625 19.54443359375 11.64438629150391 15.59442138671875 15.59439086914062 C 11.64440155029297 19.54440307617188 8.543533325195312 24.14330291748047 6.3779296875 29.26334381103516 C 4.136505126953125 34.56266021728516 3.000007629394531 40.19366073608398 3.000007629394531 45.99993133544922 C 3.000007629394531 51.80620193481445 4.136505126953125 57.43720245361328 6.3779296875 62.73651885986328 C 8.543533325195312 67.85655975341797 11.64440155029297 72.45545959472656 15.59442138671875 76.40547180175781 C 19.54443359375 80.35547637939453 24.14333343505859 83.45634460449219 29.26338958740234 85.6219482421875 C 34.56270217895508 87.86335754394531 40.19371795654297 88.99986267089844 46.00000381469727 88.99986267089844 C 51.80628967285156 88.99986267089844 57.43730545043945 87.86335754394531 62.73663330078125 85.6219482421875 C 67.85667419433594 83.45634460449219 72.45558929443359 80.35547637939453 76.40560150146484 76.40547180175781 C 80.35560607910156 72.45545959472656 83.45648956298828 67.85655975341797 85.62208557128906 62.73651885986328 C 87.86350250244141 57.43720245361328 89 51.80620193481445 89 45.99993133544922 C 89 40.19366073608398 87.86350250244141 34.56266021728516 85.62208557128906 29.26334381103516 C 83.45648956298828 24.14330291748047 80.35560607910156 19.54440307617188 76.40560150146484 15.59439086914062 C 72.45558929443359 11.64438629150391 67.85667419433594 8.54351806640625 62.73663330078125 6.377914428710938 C 57.43730545043945 4.136505126953125 51.80628967285156 3 46.00000381469727 3 M 46.00000381469727 0 C 71.40510559082031 0 92 20.59487152099609 92 45.99993133544922 C 92 71.40499114990234 71.40510559082031 91.99986267089844 46.00000381469727 91.99986267089844 C 20.59491729736328 91.99986267089844 7.62939453125e-06 71.40499114990234 7.62939453125e-06 45.99993133544922 C 7.62939453125e-06 20.59487152099609 20.59491729736328 0 46.00000381469727 0 Z" stroke="none" fill="#397b86"/>
                                  </g>
                                </g>
                              </g>
                            </g>
                          </g>
                        </g>
                      </g>
                    </g>
                  </g>
                </g>
              </g>
            </g>
          </g>
        </g>
      </g>
    </g>
    <g id="aprender-en-linea_5_" data-name="aprender-en-linea (5)" transform="translate(1206.609 2961.641)">
      <g id="Grupo_1203246" data-name="Grupo 1203246" transform="translate(26.18 7.725)">
        <g id="Grupo_1203244" data-name="Grupo 1203244" transform="translate(0 10.136)">
          <path id="Trazado_1042880" data-name="Trazado 1042880" d="M186.04,381.6h17.1v9.741h-17.1Z" transform="translate(-167.383 -345.994)" fill="#a79ba7" fill-rule="evenodd"/>
          <path id="Trazado_1042881" data-name="Trazado 1042881" d="M313.233,381.6h1.327v9.741h-1.327Z" transform="translate(-278.799 -345.994)" fill="#837683" fill-rule="evenodd"/>
          <path id="Trazado_1042882" data-name="Trazado 1042882" d="M105.951,453.344h36.976v-2.851c0-1.565-1.607-2.851-3.567-2.851H109.518c-1.964,0-3.567,1.286-3.567,2.851Z" transform="translate(-97.228 -403.847)" fill="#eceff1" fill-rule="evenodd"/>
          <path id="Trazado_1042883" data-name="Trazado 1042883" d="M105.951,457.362h36.976v-2.851a2.719,2.719,0,0,0-1.44-2.282,2.35,2.35,0,0,1,.305,1.151v2.851H105.951Z" transform="translate(-97.228 -407.864)" fill="#d1d1d6" fill-rule="evenodd"/>
          <path id="Trazado_1042884" data-name="Trazado 1042884" d="M39.811,94.563H85.867a4.2,4.2,0,0,1,4.184,4.184v28.78a4.2,4.2,0,0,1-4.184,4.185H39.811a4.2,4.2,0,0,1-4.181-4.185V98.747a4.2,4.2,0,0,1,4.181-4.184Z" transform="translate(-35.63 -94.563)" fill="#eceff1" fill-rule="evenodd"/>
          <path id="Trazado_1042885" data-name="Trazado 1042885" d="M93.238,100.341a4.188,4.188,0,0,1,1.851,3.468v28.78a4.2,4.2,0,0,1-4.184,4.185H44.85a4.2,4.2,0,0,1-3.468-1.848,4.167,4.167,0,0,0,2.333.714H89.77a4.194,4.194,0,0,0,4.185-4.181V102.674A4.146,4.146,0,0,0,93.238,100.341Z" transform="translate(-40.669 -99.624)" fill="#d1d1d6" fill-rule="evenodd"/>
          <path id="Trazado_1042886" data-name="Trazado 1042886" d="M64.4,122.779h46.264a.58.58,0,0,1,.579.579v26.055H63.821V123.358A.581.581,0,0,1,64.4,122.779Z" transform="translate(-60.324 -119.279)" fill="#d8ecfe" fill-rule="evenodd"/>
          <path id="Trazado_1042887" data-name="Trazado 1042887" d="M423.2,122.779h2.269a.58.58,0,0,1,.579.579v26.055h-2.266V123.358A.583.583,0,0,0,423.2,122.779Z" transform="translate(-375.123 -119.279)" fill="#c4e2ff" fill-rule="evenodd"/>
        </g>
        <g id="Grupo_1203245" data-name="Grupo 1203245" transform="translate(7.842 0)">
          <path id="Trazado_1042888" data-name="Trazado 1042888" d="M151.249,48.928l-14.012.349V61.592a1.377,1.377,0,0,0,1.14,1.366c14.973,2.78,10.761,2.78,25.743,0a1.377,1.377,0,0,0,1.131-1.366V49.277Z" transform="translate(-132.476 -44.452)" fill="#837683" fill-rule="evenodd"/>
          <path id="Trazado_1042889" data-name="Trazado 1042889" d="M243.214,48.928l-.989.028,13.013.32V61.592a1.377,1.377,0,0,1-1.131,1.366c-6.577,1.225-9.461,1.9-11.882,2.054,3.1.188,5.465-.49,13.861-2.054a1.377,1.377,0,0,0,1.131-1.366V49.277Z" transform="translate(-224.441 -44.452)" fill="#685e68" fill-rule="evenodd"/>
          <path id="Trazado_1042890" data-name="Trazado 1042890" d="M118.023,12.9l17.922,4.759a.6.6,0,0,1,0,1.15l-17.922,4.759a1.479,1.479,0,0,1-.81,0L99.3,18.808a.594.594,0,0,1,0-1.15L117.213,12.9a1.482,1.482,0,0,1,.81,0Z" transform="translate(-98.855 -12.844)" fill="#685e68" fill-rule="evenodd"/>
          <path id="Trazado_1042891" data-name="Trazado 1042891" d="M134.372,48.32l1.574.415a.6.6,0,0,1,0,1.15l-17.922,4.759a1.479,1.479,0,0,1-.81,0L99.3,49.884a.594.594,0,0,1,0-1.15l1.564-.415,16.349,4.344a1.683,1.683,0,0,0,.81,0Z" transform="translate(-98.855 -43.92)" fill="#544854" fill-rule="evenodd"/>
          <path id="Trazado_1042892" data-name="Trazado 1042892" d="M381.789,143.407l-2.325,1.341a.908.908,0,0,0-.469.816v5.657a.468.468,0,0,0,.749.369l2.046-1.532,2.035,1.532a.474.474,0,0,0,.76-.369v-5.657a.908.908,0,0,0-.47-.816Z" transform="translate(-344.246 -127.212)" fill="#8ac9fe" fill-rule="evenodd"/>
          <path id="Trazado_1042893" data-name="Trazado 1042893" d="M381.789,143.407l-.85.492,1.14.66a.931.931,0,0,1,.481.816v5.243l1.263.973a.474.474,0,0,0,.76-.369v-5.657a.908.908,0,0,0-.47-.816Zm-2.795,6.987v.827a.468.468,0,0,0,.749.369l2.046-1.532-1.174-.883Z" transform="translate(-344.246 -127.212)" fill="#60b7ff" fill-rule="evenodd"/>
        </g>
      </g>
      <path id="Trazado_1042894" data-name="Trazado 1042894" d="M43.739,56.019H30.072a5.247,5.247,0,0,1-5.23-5.23V21.643a5.247,5.247,0,0,1,5.23-5.23h8.1v-.656l-5.6-1.488a.992.992,0,0,1,0-1.918L52.593,7.033a.994.994,0,0,1,.51,0l20.021,5.317a.992.992,0,0,1,0,1.918l-.477.127v2.017h4.062a5.247,5.247,0,0,1,5.23,5.23V50.789a5.247,5.247,0,0,1-5.23,5.23H63.046v4.748H68.5c2.586,0,4.606,1.811,4.606,3.876v2.888a.992.992,0,0,1-.992.992H34.669a.992.992,0,0,1-.992-.992V64.644c0-2.065,2.019-3.876,4.606-3.876h5.456ZM38.169,18.4h-8.1a3.256,3.256,0,0,0-3.246,3.246V50.789a3.256,3.256,0,0,0,3.246,3.246H76.709a3.256,3.256,0,0,0,3.246-3.246V21.643A3.256,3.256,0,0,0,76.709,18.4H72.647v1.561h4.17a1.582,1.582,0,0,1,1.58,1.58V47.89a.992.992,0,0,1-.992.992H29.377a.992.992,0,0,1-.992-.992V21.538a1.581,1.581,0,0,1,1.583-1.58h8.2ZM61.061,56.019H45.724v4.748H61.061ZM40.153,16.284V25.1c14.87,2.749,10.519,2.749,25.389,0V16.284L53.1,19.591a.992.992,0,0,1-.51,0Zm27.373-.528v.656h3.136V14.923Zm0,2.64v1.561h3.136V18.4Zm0,3.546V25.93a.992.992,0,0,1-.814.976c-16.549,3.027-11.182,3.027-27.73,0a.992.992,0,0,1-.814-.976V21.943h-7.8V46.9H76.412V21.943H72.647v1.13l1.8,1.045a.992.992,0,0,1,.5.859v7.018a.992.992,0,0,1-1.589.793l-1.7-1.281-1.7,1.281a.992.992,0,0,1-1.589-.793V24.977a.993.993,0,0,1,.5-.859l1.8-1.045v-1.13ZM52.848,9.019,36.69,13.31l16.157,4.3L69,13.31ZM35.662,66.539H71.123v-1.9c0-1.109-1.232-1.892-2.621-1.892H38.283c-1.389,0-2.621.783-2.621,1.892ZM71.655,24.792l-1.308.757v4.458l.711-.535a.992.992,0,0,1,1.193,0l.711.535V25.549ZM50.635,41.922a.992.992,0,1,1-1.518-1.278,5.952,5.952,0,0,1,8.919-.36.992.992,0,1,1-1.41,1.4,3.969,3.969,0,0,0-5.991.242ZM45.6,36.842a.992.992,0,0,1-1.518-1.278,12.366,12.366,0,0,1,18.56-.75.992.992,0,0,1-1.41,1.4,10.383,10.383,0,0,0-15.632.632Zm8.057,5.637a1.742,1.742,0,1,1-1.671,1.811A1.742,1.742,0,0,1,53.658,42.479Zm6.682-4.931a.992.992,0,0,1-1.41,1.4,7.176,7.176,0,0,0-10.812.437A.992.992,0,0,1,46.6,38.1a9.159,9.159,0,0,1,13.74-.555Z" transform="translate(0 0)" fill-rule="evenodd"/>
    </g>
  </g>
</svg>
