<svg xmlns="http://www.w3.org/2000/svg" xmlns:xlink="http://www.w3.org/1999/xlink" width="110" height="110" viewBox="0 0 110 110">
  <defs>
    <filter id="Trazado_982547" x="0" y="0" width="110" height="110" filterUnits="userSpaceOnUse">
      <feOffset dy="3" input="SourceAlpha"/>
      <feGaussianBlur stdDeviation="3" result="blur"/>
      <feFlood flood-opacity="0.161"/>
      <feComposite operator="in" in2="blur"/>
      <feComposite in="SourceGraphic"/>
    </filter>
  </defs>
  <g id="Grupo_1203240" data-name="Grupo 1203240" transform="translate(-1205 -2543)">
    <g id="Grupo_1202790" data-name="Grupo 1202790" transform="translate(1214 2549)">
      <g id="Grupo_1175185" data-name="Grupo 1175185">
        <g id="Grupo_1164700" data-name="Grupo 1164700" transform="translate(0 0)">
          <g id="Grupo_1160931" data-name="Grupo 1160931" transform="translate(0 0)">
            <g id="Grupo_1160749" data-name="Grupo 1160749" transform="translate(0 0)">
              <g id="Grupo_1158891" data-name="Grupo 1158891">
                <g id="Grupo_1157406" data-name="Grupo 1157406">
                  <g id="Grupo_1155793" data-name="Grupo 1155793">
                    <g id="Grupo_1154704" data-name="Grupo 1154704">
                      <g id="Grupo_1150790" data-name="Grupo 1150790">
                        <g id="Grupo_1154214" data-name="Grupo 1154214">
                          <g id="Grupo_1152583" data-name="Grupo 1152583">
                            <g id="Grupo_1146973" data-name="Grupo 1146973">
                              <g id="Grupo_1146954" data-name="Grupo 1146954">
                                <g transform="matrix(1, 0, 0, 1, -9, -6)" filter="url(#Trazado_982547)">
                                  <g id="Trazado_982547-2" data-name="Trazado 982547" transform="translate(9 6)" fill="#effbfe">
                                    <path d="M 46.00000381469727 90.49986267089844 C 39.99188232421875 90.49986267089844 34.16428375244141 89.32350158691406 28.67905807495117 87.00344848632812 C 23.38021659851074 84.76223754882812 18.62104415893555 81.55341339111328 14.53376388549805 77.46613311767578 C 10.44647026062012 73.37885284423828 7.237643718719482 68.61968994140625 4.996417045593262 63.32085037231445 C 2.676363706588745 57.83565139770508 1.500003814697266 52.00805282592773 1.500003814697266 45.99993133544922 C 1.500003814697266 39.99182510375977 2.676363706588745 34.16422653198242 4.996417045593262 28.67901039123535 C 7.237643718719482 23.38017082214355 10.44647026062012 18.62101173400879 14.53376388549805 14.53373146057129 C 18.62104415893555 10.44645118713379 23.38021659851074 7.237624645233154 28.67905807495117 4.996411323547363 C 34.16428375244141 2.676357984542847 39.99188232421875 1.499997973442078 46.00000381469727 1.499997973442078 C 52.00812530517578 1.499997973442078 57.83573532104492 2.676357984542847 63.32094955444336 4.996411323547363 C 68.61980438232422 7.237624645233154 73.37896728515625 10.44645118713379 77.46625518798828 14.53373146057129 C 81.55353546142578 18.62101173400879 84.76236724853516 23.38017082214355 87.00359344482422 28.67901039123535 C 89.32364654541016 34.16422653198242 90.5 39.99182510375977 90.5 45.99993133544922 C 90.5 52.00805282592773 89.32364654541016 57.83565139770508 87.00359344482422 63.32085037231445 C 84.76236724853516 68.61968994140625 81.55353546142578 73.37885284423828 77.46625518798828 77.46613311767578 C 73.37896728515625 81.55341339111328 68.61980438232422 84.76223754882812 63.32094955444336 87.00344848632812 C 57.83573532104492 89.32350158691406 52.00812530517578 90.49986267089844 46.00000381469727 90.49986267089844 Z" stroke="none"/>
                                    <path d="M 46.00000381469727 3 C 40.19371795654297 3 34.56270217895508 4.136505126953125 29.26338958740234 6.377914428710938 C 24.14333343505859 8.54351806640625 19.54443359375 11.64438629150391 15.59442138671875 15.59439086914062 C 11.64440155029297 19.54440307617188 8.543533325195312 24.14330291748047 6.3779296875 29.26334381103516 C 4.136505126953125 34.56266021728516 3.000007629394531 40.19366073608398 3.000007629394531 45.99993133544922 C 3.000007629394531 51.80620193481445 4.136505126953125 57.43720245361328 6.3779296875 62.73651885986328 C 8.543533325195312 67.85655975341797 11.64440155029297 72.45545959472656 15.59442138671875 76.40547180175781 C 19.54443359375 80.35547637939453 24.14333343505859 83.45634460449219 29.26338958740234 85.6219482421875 C 34.56270217895508 87.86335754394531 40.19371795654297 88.99986267089844 46.00000381469727 88.99986267089844 C 51.80628967285156 88.99986267089844 57.43730545043945 87.86335754394531 62.73663330078125 85.6219482421875 C 67.85667419433594 83.45634460449219 72.45558929443359 80.35547637939453 76.40560150146484 76.40547180175781 C 80.35560607910156 72.45545959472656 83.45648956298828 67.85655975341797 85.62208557128906 62.73651885986328 C 87.86350250244141 57.43720245361328 89 51.80620193481445 89 45.99993133544922 C 89 40.19366073608398 87.86350250244141 34.56266021728516 85.62208557128906 29.26334381103516 C 83.45648956298828 24.14330291748047 80.35560607910156 19.54440307617188 76.40560150146484 15.59439086914062 C 72.45558929443359 11.64438629150391 67.85667419433594 8.54351806640625 62.73663330078125 6.377914428710938 C 57.43730545043945 4.136505126953125 51.80628967285156 3 46.00000381469727 3 M 46.00000381469727 0 C 71.40510559082031 0 92 20.59487152099609 92 45.99993133544922 C 92 71.40499114990234 71.40510559082031 91.99986267089844 46.00000381469727 91.99986267089844 C 20.59491729736328 91.99986267089844 7.62939453125e-06 71.40499114990234 7.62939453125e-06 45.99993133544922 C 7.62939453125e-06 20.59487152099609 20.59491729736328 0 46.00000381469727 0 Z" stroke="none" fill="#397b86"/>
                                  </g>
                                </g>
                              </g>
                            </g>
                          </g>
                        </g>
                      </g>
                    </g>
                  </g>
                </g>
              </g>
            </g>
          </g>
        </g>
      </g>
    </g>
    <g id="Playground" transform="translate(1223.562 2540.457)">
      <path id="Trazado_1042841" data-name="Trazado 1042841" d="M119.223,311.288v20.218h-4.871a.982.982,0,0,1-.982-.982v-5.532a4.888,4.888,0,0,0-4.284-4.932,4.751,4.751,0,0,0-5.216,4.728v5.736a.982.982,0,0,1-.982.982H98.017V311.288Z" transform="translate(-80.813 -250.013)" fill="#118ab2"/>
      <path id="Trazado_1042842" data-name="Trazado 1042842" d="M248.015,311.327h2.946v20.218h-2.946Z" transform="translate(-212.549 -250.048)" fill="#0c7591"/>
      <path id="Trazado_1042843" data-name="Trazado 1042843" d="M98.044,107.12h4.338V117.7H98.044Z" transform="translate(-80.837 -70.703)" fill="#ffd166"/>
      <path id="Trazado_1042844" data-name="Trazado 1042844" d="M236.562,107.12H240.9V117.7h-4.338Z" transform="translate(-202.491 -70.703)" fill="#ffd166"/>
      <path id="Trazado_1042845" data-name="Trazado 1042845" d="M248.015,107.116h2.946v10.575h-2.946Z" transform="translate(-212.549 -70.699)" fill="#f9bd46"/>
      <path id="Trazado_1042846" data-name="Trazado 1042846" d="M98.044,178.788v18.093h21.2V178.788Zm10.6,14.325a5.279,5.279,0,1,1,5.279-5.279,5.279,5.279,0,0,1-5.279,5.279Z" transform="translate(-80.837 -133.645)" fill="#06d6a0"/>
      <path id="Trazado_1042847" data-name="Trazado 1042847" d="M247.935,178.816h2.946V196.9h-2.946Z" transform="translate(-212.479 -133.67)" fill="#0baa7d"/>
      <path id="Trazado_1042848" data-name="Trazado 1042848" d="M70.638,43.551l10.623-7.922a4.962,4.962,0,0,1,5.933,0l10.623,7.922a.982.982,0,0,1-.587,1.769h-26a.982.982,0,0,1-.587-1.769Z" transform="translate(-56.421 -7.051)" fill="#ef476f"/>
      <path id="Trazado_1042849" data-name="Trazado 1042849" d="M187.482,45.337h-2.946a.988.988,0,0,0,.589-1.777L174.5,35.645a4.763,4.763,0,0,0-1.493-.756,4.919,4.919,0,0,1,4.438.756l10.624,7.914a.988.988,0,0,1-.589,1.777Z" transform="translate(-146.675 -7.064)" fill="#cc325e"/>
      <path id="Trazado_1042850" data-name="Trazado 1042850" d="M298.191,284.785v2.5a.978.978,0,0,1-.977.982H285.05a.98.98,0,0,1-.979-.982v-6.412a3.827,3.827,0,0,0-2.957-3.782,3.762,3.762,0,0,0-4.556,3.673v6.521a.982.982,0,0,1-.982.982H272.2V262.05s14.23.736,15.458,11.783c0,0,1.043,9.022,10.188,9.574Z" transform="translate(-233.786 -206.77)" fill="#ef476f"/>
      <path id="Trazado_1042851" data-name="Trazado 1042851" d="M272.211,263.453v-1.4s12.058.628,14.925,9.338a13.784,13.784,0,0,0-1.512-2.406c-4-4.988-10.713-5.528-13.413-5.528Z" transform="translate(-233.799 -206.769)" fill="#cc325e"/>
      <path id="Trazado_1042852" data-name="Trazado 1042852" d="M422.709,409.966a10.222,10.222,0,0,0,7.315,3.348l.344,1.345C426.057,414.659,424.084,412.774,422.709,409.966Z" transform="translate(-365.974 -336.677)" fill="#cc325e"/>
      <path id="Trazado_1042853" data-name="Trazado 1042853" d="M24.267,380.183H15.025a.982.982,0,0,1-.982-.982v-2.526a.982.982,0,0,1,.982-.982h1.916v-3.508a.982.982,0,0,1,.982-.982H19.84v-3.508a.982.982,0,0,1,.982-.982H24.27Z" transform="translate(-7.063 -298.69)" fill="#ffd166"/>
      <path id="Trazado_1042854" data-name="Trazado 1042854" d="M73.847,366.736h2.946v13.472H73.847Z" transform="translate(-59.586 -298.711)" fill="#f9bd46"/>
      <path id="Trazado_1042855" data-name="Trazado 1042855" d="M461.422,440.744h2.946v3.48a.982.982,0,0,1-.982.982h-1.964Z" transform="translate(-399.974 -363.708)" fill="#cc325e"/>
      <path id="Trazado_1042856" data-name="Trazado 1042856" d="M272.195,252.37c2.276,0,7.9.427,11.09,4.412a20.358,20.358,0,0,1,2.8,6.022c1.669,4.839,3.746,10.861,12.1,10.861a1.491,1.491,0,1,0,0-2.981c-6.231,0-7.582-3.905-9.291-8.854a22.76,22.76,0,0,0-3.289-6.916c-3.995-4.988-10.712-5.525-13.415-5.525Z" transform="translate(-233.785 -195.65)" fill="#ffd166"/>
      <path id="Trazado_1042857" data-name="Trazado 1042857" d="M446.887,425.106a1.483,1.483,0,0,1-1.492,1.483,11.888,11.888,0,0,1-5.587-1.218,13.763,13.763,0,0,0,2.641.236,1.484,1.484,0,0,0,1.493-1.483,1.57,1.57,0,0,0-.128-.609,11.383,11.383,0,0,0,1.581.1A1.492,1.492,0,0,1,446.887,425.106Z" transform="translate(-380.991 -348.577)" fill="#f9bd46"/>
      <path id="Trazado_1042858" data-name="Trazado 1042858" d="M27.809,60.446a6.261,6.261,0,1,0-6.261-6.261,6.261,6.261,0,0,0,6.261,6.261Zm0-10.558a4.3,4.3,0,1,1-4.3,4.3,4.3,4.3,0,0,1,4.3-4.3Zm36.6,24.16c-5.534,0-6.659-3.259-8.363-8.192-1.393-4.046-3.8-12.527-16.655-13.08,0-12.489,0-3.093,0-13.529h4.377a.983.983,0,0,0,.587-1.769l-13-9.692a5.982,5.982,0,0,0-7.107,0l-13,9.692a.983.983,0,0,0,.587,1.769h4.38c0,17.893,0,26.94,0,27.789H12.779a.982.982,0,0,0-.982.982v3.508H9.881a.982.982,0,0,0-.982.982v3.509H6.983A.982.982,0,0,0,6,77v4.49a.982.982,0,0,0,.982.982H23.06a.982.982,0,0,0,.982-.982V74.771c0-4.979,7.536-4.98,7.536,0v6.718a.982.982,0,0,0,.982.982H42.775a.982.982,0,0,0,.982-.982v-7.5c0-3.667,5.549-3.667,5.549,0v7.4a1,1,0,0,0-.005.1.982.982,0,0,0,.982.982H64.408a.982.982,0,0,0,.982-.982v-2.7a2.474,2.474,0,0,0-.982-4.74ZM54.188,66.5c1.69,4.893,3.287,9.515,10.22,9.515a.509.509,0,0,1,0,1.017c-7.657,0-9.526-5.419-11.2-10.28-1.366-3.93-3.164-10.473-13.814-10.99V54.74C50.808,55.271,52.811,62.492,54.188,66.5Zm-21.1-27.249v4.91H22.53v-4.91Zm4.335,6.874V62.249H18.191V46.12Zm0-1.964H35.056v-4.91H37.43Zm-12-14.8a4,4,0,0,1,4.759,0l10.623,7.923h-26Zm-4.864,9.886v4.91H18.191v-4.91ZM7.965,77.981H9.881A.982.982,0,0,0,10.863,77V73.49h1.916a.982.982,0,0,0,.982-.982V69h2.463V80.507H7.965Zm14.113-3.21v5.736H18.188V64.216H37.43V80.507H33.541V74.771c0-7.575-11.464-7.575-11.464,0Zm29.192,5.736V73.986c0-6.261-9.477-6.264-9.477,0v6.521h-2.4c0-13.322,0-21.49,0-22.783C48.61,58.211,50,63.517,51.376,67.47c1.614,4.679,3.82,11,12.05,11.477v1.56Z" transform="translate(0 0)"/>
    </g>
  </g>
</svg>
