<svg xmlns="http://www.w3.org/2000/svg" xmlns:xlink="http://www.w3.org/1999/xlink" width="108" height="108" viewBox="0 0 108 108">
  <defs>
    <filter id="Trazado_904820" x="0" y="0" width="108" height="108" filterUnits="userSpaceOnUse">
      <feOffset dy="3" input="SourceAlpha"/>
      <feGaussianBlur stdDeviation="3" result="blur"/>
      <feFlood flood-opacity="0.161"/>
      <feComposite operator="in" in2="blur"/>
      <feComposite in="SourceGraphic"/>
    </filter>
  </defs>
  <g id="Grupo_1203390" data-name="Grupo 1203390" transform="translate(-621.5 -423)">
    <g id="Grupo_1202416" data-name="Grupo 1202416" transform="translate(2.023 9.813)">
      <g id="Grupo_1177315" data-name="Grupo 1177315" transform="translate(-0.523 -112.813)">
        <g id="Grupo_1173585" data-name="Grupo 1173585" transform="translate(629 532)">
          <g id="Grupo_1173428" data-name="Grupo 1173428" transform="translate(0 0)">
            <g id="Grupo_1171958" data-name="Grupo 1171958">
              <g id="Grupo_1167341" data-name="Grupo 1167341">
                <g id="Grupo_1166792" data-name="Grupo 1166792">
                  <g transform="matrix(1, 0, 0, 1, -9, -6)" filter="url(#Trazado_904820)">
                    <g id="Trazado_904820-2" data-name="Trazado 904820" transform="translate(9 6)" fill="#fdfbec">
                      <path d="M 44.99999618530273 88.49999237060547 C 39.12687301635742 88.49999237060547 33.43022155761719 87.35006713867188 28.06829643249512 85.08216857910156 C 22.88852119445801 82.89130401611328 18.23629570007324 79.75457763671875 14.24084663391113 75.75914001464844 C 10.24540901184082 71.76369476318359 7.108683586120605 67.11146545410156 4.917821407318115 61.93169403076172 C 2.649921178817749 56.56976699829102 1.499996185302734 50.87311553955078 1.499996185302734 44.99999237060547 C 1.499996185302734 39.12686920166016 2.649921178817749 33.43021774291992 4.917821407318115 28.06829261779785 C 7.108683586120605 22.88851737976074 10.24540901184082 18.23630523681641 14.24084663391113 14.24085521697998 C 18.23629570007324 10.24540519714355 22.88852119445801 7.108692169189453 28.06829643249512 4.917829990386963 C 33.43022155761719 2.649929761886597 39.12687301635742 1.500004887580872 44.99999618530273 1.500004887580872 C 50.87311935424805 1.500004887580872 56.56977081298828 2.649929761886597 61.93169784545898 4.917829990386963 C 67.11147308349609 7.108692169189453 71.76369476318359 10.24540519714355 75.75914764404297 14.24085521697998 C 79.75458526611328 18.23630523681641 82.89131164550781 22.88851737976074 85.08216857910156 28.06829261779785 C 87.35007476806641 33.43021774291992 88.5 39.12686920166016 88.5 44.99999237060547 C 88.5 50.87311553955078 87.35007476806641 56.56976699829102 85.08216857910156 61.93169403076172 C 82.89131164550781 67.11146545410156 79.75458526611328 71.76369476318359 75.75914764404297 75.75914001464844 C 71.76369476318359 79.75457763671875 67.11147308349609 82.89130401611328 61.93169784545898 85.08216857910156 C 56.56977081298828 87.35006713867188 50.87311935424805 88.49999237060547 44.99999618530273 88.49999237060547 Z" stroke="none"/>
                      <path d="M 44.99999618530273 2.999992370605469 C 39.32870864868164 2.999992370605469 33.82865142822266 4.11004638671875 28.65262603759766 6.299331665039062 C 23.65165710449219 8.414566040039062 19.15968322753906 11.44333648681641 15.301513671875 15.30150604248047 C 11.44333648681641 19.15967559814453 8.414566040039062 23.65164947509766 6.299339294433594 28.65262222290039 C 4.110054016113281 33.82864761352539 2.999992370605469 39.32870483398438 2.999992370605469 44.99999237060547 C 2.999992370605469 50.67127990722656 4.110054016113281 56.17132186889648 6.299339294433594 61.34736633300781 C 8.414566040039062 66.34833526611328 11.44333648681641 70.84029388427734 15.301513671875 74.69846343994141 C 19.15968322753906 78.55663299560547 23.65165710449219 81.58540344238281 28.65262603759766 83.70063781738281 C 33.82865142822266 85.88992309570312 39.32870864868164 86.99997711181641 44.99999618530273 86.99997711181641 C 50.67128372192383 86.99997711181641 56.17134094238281 85.88992309570312 61.34736633300781 83.70063781738281 C 66.34834289550781 81.58540344238281 70.84030914306641 78.55663299560547 74.69847869873047 74.69846343994141 C 78.55665588378906 70.84029388427734 81.58542633056641 66.34833526611328 83.70065307617188 61.34736633300781 C 85.88993835449219 56.17132186889648 87 50.67127990722656 87 44.99999237060547 C 87 39.32870483398438 85.88993835449219 33.82864761352539 83.70065307617188 28.65262222290039 C 81.58542633056641 23.65164947509766 78.55665588378906 19.15967559814453 74.69847869873047 15.30150604248047 C 70.84030914306641 11.44333648681641 66.34834289550781 8.414566040039062 61.34736633300781 6.299331665039062 C 56.17134094238281 4.11004638671875 50.67128372192383 2.999992370605469 44.99999618530273 2.999992370605469 M 44.99999618530273 -7.62939453125e-06 C 69.85281372070312 -7.62939453125e-06 90 20.14717864990234 90 44.99999237060547 C 90 69.85279083251953 69.85281372070312 89.99997711181641 44.99999618530273 89.99997711181641 C 20.14717864990234 89.99997711181641 -7.62939453125e-06 69.85279083251953 -7.62939453125e-06 44.99999237060547 C -7.62939453125e-06 20.14717864990234 20.14717864990234 -7.62939453125e-06 44.99999618530273 -7.62939453125e-06 Z" stroke="none" fill="#83793c"/>
                    </g>
                  </g>
                </g>
              </g>
            </g>
          </g>
        </g>
      </g>
    </g>
    <g id="calculadora" transform="translate(647.324 446.824)">
      <g id="Grupo_1203388" data-name="Grupo 1203388" transform="translate(1.101 1.101)">
        <path id="Trazado_1041193" data-name="Trazado 1041193" d="M73.207,66.6a2.2,2.2,0,0,0-2.2-2.2H68.8V62.2a2.2,2.2,0,0,0-4.4,0v2.2H62.2a2.2,2.2,0,0,0,0,4.4h2.2v2.2a2.2,2.2,0,1,0,4.4,0V68.8h2.2A2.2,2.2,0,0,0,73.207,66.6Z" transform="translate(-54.497 -54.497)" fill="#fff" fill-rule="evenodd"/>
        <path id="Trazado_1041194" data-name="Trazado 1041194" d="M26.509,19.905a2.2,2.2,0,0,1,0,4.4h-2.2v2.2a2.2,2.2,0,0,1-4.4,0v-2.2H17.7a2.2,2.2,0,0,1,0-4.4h2.2V17.7a2.2,2.2,0,0,1,4.4,0v2.2ZM29.811,10H14.4A4.415,4.415,0,0,0,10,14.4V29.811a4.415,4.415,0,0,0,4.4,4.4H29.811a4.415,4.415,0,0,0,4.4-4.4V14.4A4.415,4.415,0,0,0,29.811,10Z" transform="translate(-10 -10)" fill="#ff5d7d" fill-rule="evenodd"/>
        <path id="Trazado_1041195" data-name="Trazado 1041195" d="M29.811,282H14.4a4.415,4.415,0,0,0-4.4,4.4v15.409a4.415,4.415,0,0,0,4.4,4.4H29.811a4.415,4.415,0,0,0,4.4-4.4V286.4A4.415,4.415,0,0,0,29.811,282ZM17.7,291.908h8.8a2.2,2.2,0,0,1,0,4.4H17.7a2.2,2.2,0,0,1,0-4.4Z" transform="translate(-10 -252.065)" fill="#ffea60" fill-rule="evenodd"/>
        <path id="Trazado_1041196" data-name="Trazado 1041196" d="M71.006,372H62.2a2.2,2.2,0,0,0,0,4.4h8.8a2.2,2.2,0,1,0,0-4.4Z" transform="translate(-54.497 -332.16)" fill="#fff" fill-rule="evenodd"/>
        <path id="Trazado_1041197" data-name="Trazado 1041197" d="M65.409,75.534a4.415,4.415,0,0,1,4.4,4.4V95.345h5.723V79.937a4.415,4.415,0,0,1,4.4-4.4H95.345V69.811H79.937a4.415,4.415,0,0,1-4.4-4.4V50H69.811V65.409a4.415,4.415,0,0,1-4.4,4.4H50v5.723Z" transform="translate(-45.598 -45.598)" fill="#8690af" fill-rule="evenodd"/>
        <path id="Trazado_1041198" data-name="Trazado 1041198" d="M282,29.811a4.415,4.415,0,0,0,4.4,4.4h15.409a4.415,4.415,0,0,0,4.4-4.4V14.4a4.415,4.415,0,0,0-4.4-4.4H286.4a4.415,4.415,0,0,0-4.4,4.4Zm10.55-3.035a2.2,2.2,0,0,1-3.113-3.113l6.226-6.226a2.2,2.2,0,1,1,3.113,3.113Z" transform="translate(-252.065 -10)" fill="#cbe558" fill-rule="evenodd"/>
        <path id="Trazado_1041199" data-name="Trazado 1041199" d="M344.363,81.7a2.2,2.2,0,0,0,3.113,0l6.226-6.226a2.2,2.2,0,0,0-3.113-3.113l-6.226,6.226A2.2,2.2,0,0,0,344.363,81.7Z" transform="translate(-306.989 -64.923)" fill="#fff" fill-rule="evenodd"/>
        <path id="Trazado_1041200" data-name="Trazado 1041200" d="M301.813,282H286.4a4.415,4.415,0,0,0-4.4,4.4v15.409a4.415,4.415,0,0,0,4.4,4.4h15.409a4.415,4.415,0,0,0,4.4-4.4V286.4A4.415,4.415,0,0,0,301.813,282Zm-12.374,7.437a2.2,2.2,0,0,1,3.113,0L294.109,291l1.556-1.556a2.2,2.2,0,1,1,3.113,3.113l-1.556,1.556,1.556,1.556a2.2,2.2,0,1,1-3.113,3.113l-1.556-1.556-1.556,1.556a2.2,2.2,0,0,1-3.113-3.113L291,294.109l-1.556-1.556A2.2,2.2,0,0,1,289.439,289.439Z" transform="translate(-252.065 -252.065)" fill="#66e0f7" fill-rule="evenodd"/>
        <path id="Trazado_1041201" data-name="Trazado 1041201" d="M353.7,344.362a2.2,2.2,0,0,0-3.113,0l-1.556,1.557-1.556-1.557a2.2,2.2,0,1,0-3.113,3.113l1.556,1.556-1.556,1.556a2.2,2.2,0,0,0,3.113,3.113l1.556-1.556,1.556,1.556a2.2,2.2,0,0,0,3.113-3.113l-1.557-1.556,1.557-1.556A2.2,2.2,0,0,0,353.7,344.362Z" transform="translate(-306.989 -306.988)" fill="#fff" fill-rule="evenodd"/>
      </g>
      <g id="Grupo_1203389" data-name="Grupo 1203389">
        <path id="Trazado_1041202" data-name="Trazado 1041202" d="M56.351,20.912V5.5a5.509,5.509,0,0,0-5.5-5.5H35.44a5.512,5.512,0,0,0-5.392,4.4H26.3A5.512,5.512,0,0,0,20.912,0H5.5A5.509,5.509,0,0,0,0,5.5V20.912A5.512,5.512,0,0,0,4.4,26.3v3.744A5.512,5.512,0,0,0,0,35.44V50.848a5.509,5.509,0,0,0,5.5,5.5H20.912a5.512,5.512,0,0,0,5.392-4.4h3.744a5.512,5.512,0,0,0,5.392,4.4H50.848a5.509,5.509,0,0,0,5.5-5.5V35.44a5.512,5.512,0,0,0-4.4-5.392V26.3A5.512,5.512,0,0,0,56.351,20.912ZM35.44,2.2H50.848a3.306,3.306,0,0,1,3.3,3.3V20.912a3.306,3.306,0,0,1-3.3,3.3H35.44a3.306,3.306,0,0,1-3.3-3.3V5.5A3.306,3.306,0,0,1,35.44,2.2ZM2.2,20.912V5.5A3.306,3.306,0,0,1,5.5,2.2H20.912a3.306,3.306,0,0,1,3.3,3.3V20.912a3.306,3.306,0,0,1-3.3,3.3H5.5A3.306,3.306,0,0,1,2.2,20.912ZM20.912,54.15H5.5a3.306,3.306,0,0,1-3.3-3.3V35.44a3.306,3.306,0,0,1,3.3-3.3H8.254a1.1,1.1,0,1,0,0-2.2H6.6V26.415H20.912a5.509,5.509,0,0,0,5.5-5.5V6.6h3.522V20.912a5.509,5.509,0,0,0,5.5,5.5H49.748v3.522H35.44a5.509,5.509,0,0,0-5.5,5.5V49.748H26.415V35.44a5.509,5.509,0,0,0-5.5-5.5H18.16a1.1,1.1,0,1,0,0,2.2h2.752a3.306,3.306,0,0,1,3.3,3.3V50.848a3.306,3.306,0,0,1-3.3,3.3ZM54.15,35.44V50.848a3.306,3.306,0,0,1-3.3,3.3H35.44a3.306,3.306,0,0,1-3.3-3.3V35.44a3.306,3.306,0,0,1,3.3-3.3H50.848A3.306,3.306,0,0,1,54.15,35.44Z"/>
        <path id="Trazado_1041203" data-name="Trazado 1041203" d="M53.3,61.006h1.1v1.1a3.3,3.3,0,1,0,6.6,0v-1.1h1.1a3.3,3.3,0,1,0,0-6.6h-1.1V53.3a3.3,3.3,0,1,0-6.6,0v1.1H53.3a3.3,3.3,0,1,0,0,6.6Zm0-4.4h2.2a1.1,1.1,0,0,0,1.1-1.1V53.3a1.1,1.1,0,0,1,2.2,0v2.2a1.1,1.1,0,0,0,1.1,1.1h2.2a1.1,1.1,0,0,1,0,2.2h-2.2a1.1,1.1,0,0,0-1.1,1.1v2.2a1.1,1.1,0,0,1-2.2,0v-2.2a1.1,1.1,0,0,0-1.1-1.1H53.3a1.1,1.1,0,0,1,0-2.2Z" transform="translate(-44.497 -44.497)"/>
        <path id="Trazado_1041204" data-name="Trazado 1041204" d="M62.107,362H53.3a3.3,3.3,0,0,0,0,6.6h8.8a3.3,3.3,0,0,0,0-6.6Zm0,4.4H53.3a1.1,1.1,0,1,1,0-2.2h8.8a1.1,1.1,0,1,1,0,2.2Z" transform="translate(-44.497 -322.16)"/>
        <path id="Trazado_1041205" data-name="Trazado 1041205" d="M345.593,334.7a3.306,3.306,0,0,0-4.67,0l-.778.778-.778-.778a3.3,3.3,0,0,0-4.67,4.669l.778.778-.778.778a3.3,3.3,0,0,0,4.67,4.67l.778-.778.778.778a3.3,3.3,0,1,0,4.67-4.669l-.778-.778.778-.778A3.306,3.306,0,0,0,345.593,334.7Zm-3.113,6.226,1.556,1.557a1.1,1.1,0,1,1-1.556,1.556l-1.556-1.556a1.1,1.1,0,0,0-1.556,0l-1.557,1.556a1.1,1.1,0,1,1-1.556-1.556l1.556-1.556a1.1,1.1,0,0,0,0-1.556l-1.556-1.556a1.1,1.1,0,0,1,1.556-1.556l1.557,1.556a1.1,1.1,0,0,0,1.556,0l1.556-1.556a1.1,1.1,0,1,1,1.556,1.556l-1.556,1.556A1.1,1.1,0,0,0,342.48,340.923Z" transform="translate(-297.001 -297.001)"/>
        <path id="Trazado_1041206" data-name="Trazado 1041206" d="M337.032,74.557a3.292,3.292,0,0,0,2.335-.965l6.226-6.226a3.3,3.3,0,0,0-4.67-4.67L334.7,68.922a3.3,3.3,0,0,0,2.335,5.635Zm-.778-4.079,6.226-6.226a1.1,1.1,0,0,1,1.556,1.557l-6.226,6.226a1.1,1.1,0,0,1-1.556-1.557Z" transform="translate(-297.001 -54.937)"/>
        <path id="Trazado_1041207" data-name="Trazado 1041207" d="M111.1,274.2a1.1,1.1,0,0,0,0-2.2h0a1.1,1.1,0,0,0,0,2.2Z" transform="translate(-97.891 -242.065)"/>
      </g>
    </g>
  </g>
</svg>
