<svg xmlns="http://www.w3.org/2000/svg" xmlns:xlink="http://www.w3.org/1999/xlink" width="103" height="103" viewBox="0 0 103 103">
  <defs>
    <filter id="Trazado_978624" x="0" y="0" width="103" height="103" filterUnits="userSpaceOnUse">
      <feOffset dy="3" input="SourceAlpha"/>
      <feGaussianBlur stdDeviation="3" result="blur"/>
      <feFlood flood-opacity="0.161"/>
      <feComposite operator="in" in2="blur"/>
      <feComposite in="SourceGraphic"/>
    </filter>
  </defs>
  <g id="Grupo_1203387" data-name="Grupo 1203387" transform="translate(-171 -832)">
    <g id="Grupo_1178310" data-name="Grupo 1178310" transform="translate(0 -2034)">
      <g id="Grupo_1176881" data-name="Grupo 1176881">
        <g id="Grupo_1175148" data-name="Grupo 1175148" transform="translate(0 1580)">
          <g id="Grupo_1173798" data-name="Grupo 1173798" transform="translate(-3 -3520)">
            <g id="Grupo_1171925" data-name="Grupo 1171925" transform="translate(-22 -2246)">
              <g id="Grupo_1164524" data-name="Grupo 1164524" transform="translate(205 7058)">
                <g id="Grupo_1144123" data-name="Grupo 1144123">
                  <g transform="matrix(1, 0, 0, 1, -9, -6)" filter="url(#Trazado_978624)">
                    <g id="Trazado_978624-2" data-name="Trazado 978624" transform="translate(9 6)" fill="#edf3fc">
                      <path d="M 42.5 83.5 C 36.96437835693359 83.5 31.59512901306152 82.41617584228516 26.54141235351562 80.27863311767578 C 21.65934181213379 78.21369171142578 17.27447128295898 75.25723266601562 13.50862312316895 71.49137878417969 C 9.742764472961426 67.72553253173828 6.786305904388428 63.34066009521484 4.721364498138428 58.45858764648438 C 2.583823442459106 53.40486907958984 1.5 48.03562164306641 1.5 42.5 C 1.5 36.96437835693359 2.583823442459106 31.59512901306152 4.721364498138428 26.54141235351562 C 6.786305904388428 21.65934181213379 9.742764472961426 17.27447128295898 13.50862312316895 13.50862312316895 C 17.27447128295898 9.742764472961426 21.65934181213379 6.786305904388428 26.54141235351562 4.721364498138428 C 31.59512901306152 2.583823442459106 36.96437835693359 1.5 42.5 1.5 C 48.03562164306641 1.5 53.40486907958984 2.583823442459106 58.45858764648438 4.721364498138428 C 63.34066009521484 6.786305904388428 67.72553253173828 9.742764472961426 71.49137878417969 13.50862312316895 C 75.25723266601562 17.27447128295898 78.21369171142578 21.65934181213379 80.27863311767578 26.54141235351562 C 82.41617584228516 31.59512901306152 83.5 36.96437835693359 83.5 42.5 C 83.5 48.03562164306641 82.41617584228516 53.40486907958984 80.27863311767578 58.45858764648438 C 78.21369171142578 63.34066009521484 75.25723266601562 67.72553253173828 71.49137878417969 71.49137878417969 C 67.72553253173828 75.25723266601562 63.34066009521484 78.21369171142578 58.45858764648438 80.27863311767578 C 53.40486907958984 82.41617584228516 48.03562164306641 83.5 42.5 83.5 Z" stroke="none"/>
                      <path d="M 42.5 3 C 37.16621398925781 3 31.99356079101562 4.043960571289062 27.125732421875 6.102882385253906 C 22.42246627807617 8.092185974121094 18.19785308837891 10.94070434570312 14.56928253173828 14.56928253173828 C 10.94070434570312 18.19785308837891 8.092185974121094 22.42246627807617 6.102882385253906 27.125732421875 C 4.043960571289062 31.99356079101562 3 37.16621398925781 3 42.5 C 3 47.83378601074219 4.043960571289062 53.00643920898438 6.102882385253906 57.87425231933594 C 8.092185974121094 62.57753372192383 10.94070434570312 66.80213165283203 14.56928253173828 70.43071746826172 C 18.19786834716797 74.05929565429688 22.42246627807617 76.90781402587891 27.125732421875 78.89711761474609 C 31.99356079101562 80.95603942871094 37.16621398925781 82 42.5 82 C 47.83378601074219 82 53.00642395019531 80.95603942871094 57.87425231933594 78.89711761474609 C 62.57753372192383 76.90781402587891 66.80213165283203 74.05929565429688 70.43071746826172 70.43071746826172 C 74.05929565429688 66.80213165283203 76.90781402587891 62.57753372192383 78.89711761474609 57.87425231933594 C 80.95603942871094 53.00642395019531 82 47.83378601074219 82 42.5 C 82 37.16621398925781 80.95603942871094 31.99356079101562 78.89711761474609 27.125732421875 C 76.90781402587891 22.42246627807617 74.05929565429688 18.19786834716797 70.43071746826172 14.56928253173828 C 66.80213165283203 10.94070434570312 62.57753372192383 8.092185974121094 57.87425231933594 6.102882385253906 C 53.00643920898438 4.043960571289062 47.83378601074219 3 42.5 3 M 42.5 0 C 65.97209167480469 0 85 19.02789306640625 85 42.5 C 85 65.97209167480469 65.97209167480469 85 42.5 85 C 19.02789306640625 85 0 65.97209167480469 0 42.5 C 0 19.02789306640625 19.02789306640625 0 42.5 0 Z" stroke="none" fill="#5692e8"/>
                    </g>
                  </g>
                </g>
              </g>
            </g>
          </g>
        </g>
      </g>
    </g>
    <g id="maestro_3_" data-name="maestro (3)" transform="translate(190.24 845.49)">
      <g id="Grupo_1203385" data-name="Grupo 1203385" transform="translate(0.875 5.101)">
        <g id="Grupo_1203384" data-name="Grupo 1203384" transform="translate(0 0)">
          <g id="Grupo_1203383" data-name="Grupo 1203383">
            <g id="Grupo_1203361" data-name="Grupo 1203361" transform="translate(0 16.347)">
              <path id="Trazado_1041163" data-name="Trazado 1041163" d="M24.388,175.3H8.708A1.208,1.208,0,0,1,7.5,174.09V153.015a1.208,1.208,0,0,1,1.208-1.208h15.68a1.208,1.208,0,0,1,1.208,1.208V174.09A1.209,1.209,0,0,1,24.388,175.3Z" transform="translate(-7.5 -151.807)" fill="#f3eae6"/>
              <path id="Trazado_1041164" data-name="Trazado 1041164" d="M118.014,153.021v21.068a1.208,1.208,0,0,1-1.206,1.211h-4.681a1.207,1.207,0,0,0,1.206-1.211V153.021a1.208,1.208,0,0,0-1.206-1.211h4.681A1.208,1.208,0,0,1,118.014,153.021Z" transform="translate(-99.917 -151.81)" fill="#e0d3ce"/>
              <g id="Grupo_1203360" data-name="Grupo 1203360" transform="translate(3.699 5.824)">
                <g id="Grupo_1203359" data-name="Grupo 1203359" transform="translate(1.858)">
                  <path id="Trazado_1041165" data-name="Trazado 1041165" d="M55.652,201.84a.573.573,0,0,0-.4.4,3.7,3.7,0,0,0,.947,3.59,3.666,3.666,0,0,0,3.574.951.573.573,0,0,0,.4-.4,3.705,3.705,0,0,0-.947-3.59A3.665,3.665,0,0,0,55.652,201.84Z" transform="translate(-55.122 -201.709)" fill="#31a7fb"/>
                </g>
                <path id="Trazado_1041166" data-name="Trazado 1041166" d="M49.967,239.395c0,2.684-1.525,5.459-5.385,5.459s-5.385-2.775-5.385-5.459,2.411-3.66,5.385-3.66S49.967,236.711,49.967,239.395Z" transform="translate(-39.198 -231.764)" fill="#e33c53"/>
                <path id="Trazado_1041167" data-name="Trazado 1041167" d="M83.64,239.393c0,2.684-1.525,5.459-5.385,5.459a7.1,7.1,0,0,1-.936-.059,5.764,5.764,0,0,0,3.179-5.5,3.583,3.583,0,0,0-2.636-3.557c.13,0,.261-.006.393-.006C81.229,235.733,83.64,236.709,83.64,239.393Z" transform="translate(-72.87 -231.763)" fill="#ab283a"/>
              </g>
            </g>
            <g id="Grupo_1203382" data-name="Grupo 1203382" transform="translate(8.112)">
              <g id="Grupo_1203381" data-name="Grupo 1203381">
                <g id="Grupo_1203380" data-name="Grupo 1203380">
                  <g id="Grupo_1203376" data-name="Grupo 1203376" transform="translate(8.232)">
                    <g id="Grupo_1203375" data-name="Grupo 1203375">
                      <g id="Grupo_1203362" data-name="Grupo 1203362" transform="translate(0.851 14.378)">
                        <path id="Trazado_1041168" data-name="Trazado 1041168" d="M185.666,134.936H163.961c0,9.711-9.113,9.769-9.113,16.011a5.321,5.321,0,0,0,5.309,5.333H189.47a5.321,5.321,0,0,0,5.309-5.333C194.779,144.705,185.666,144.647,185.666,134.936Z" transform="translate(-154.848 -134.936)" fill="#a64b35"/>
                        <path id="Trazado_1041169" data-name="Trazado 1041169" d="M393.142,150.944a5.321,5.321,0,0,1-5.309,5.333h-4.611a5.322,5.322,0,0,0,5.309-5.333c0-6.242-9.113-6.3-9.113-16.011h4.612C384.03,144.645,393.142,144.7,393.142,150.944Z" transform="translate(-353.211 -134.933)" fill="#8b3d2a"/>
                      </g>
                      <g id="Grupo_1203363" data-name="Grupo 1203363" transform="translate(0 29.48)">
                        <path id="Trazado_1041170" data-name="Trazado 1041170" d="M184.507,276.419c-4.444-11.213-12.86-11.81-13.733-12.073h-4.782c-.873.263-9.289.86-13.733,12.073l-4.7,11.9h16.656l4.194-.585,4.163.585h16.642Z" transform="translate(-147.556 -264.346)" fill="#31a7fb"/>
                        <path id="Trazado_1041171" data-name="Trazado 1041171" d="M328.741,288.316h-4.857s-.31-.862-.625-1.658l-4.047-10.241c-4.381-11.054-12.624-11.792-13.691-12.062l0-.011H310.3c.873.263,9.29.861,13.734,12.073l4.047,10.241Z" transform="translate(-287.087 -264.344)" fill="#1c96f9"/>
                        <path id="Trazado_1041172" data-name="Trazado 1041172" d="M281.756,288.331c2.255-8.432,2.216-22.775,2.216-22.775v-.029a18.159,18.159,0,0,0-4.011-1.18h-4.782a18.153,18.153,0,0,0-4.011,1.18v.029s-.029,14.343,2.231,22.775l4.171-.585Z" transform="translate(-256.743 -264.346)" fill="#f69583"/>
                        <path id="Trazado_1041173" data-name="Trazado 1041173" d="M278.064,307.547a15.589,15.589,0,0,1-6.337-1.226c.147,4.823.623,13.33,2.165,19.085h8.357c1.539-5.756,2.01-14.264,2.153-19.087A15.585,15.585,0,0,1,278.064,307.547Z" transform="translate(-257.237 -301.422)" fill="#f3eae6"/>
                        <path id="Trazado_1041174" data-name="Trazado 1041174" d="M332.535,306.319c-.144,4.823-.615,13.331-2.154,19.086h-4.163c1.428-5.339,1.935-13.044,2.117-17.981A14.1,14.1,0,0,0,332.535,306.319Z" transform="translate(-305.369 -301.421)" fill="#e0d3ce"/>
                      </g>
                      <g id="Grupo_1203374" data-name="Grupo 1203374" transform="translate(7.726)">
                        <g id="Grupo_1203371" data-name="Grupo 1203371" transform="translate(0 9.046)">
                          <g id="Grupo_1203370" data-name="Grupo 1203370">
                            <g id="Grupo_1203366" data-name="Grupo 1203366" transform="translate(0 4.407)">
                              <g id="Grupo_1203364" data-name="Grupo 1203364" transform="translate(19.995)">
                                <ellipse id="Elipse_12572" data-name="Elipse 12572" cx="3.104" cy="3.046" rx="3.104" ry="3.046" fill="#f69583"/>
                              </g>
                              <g id="Grupo_1203365" data-name="Grupo 1203365">
                                <ellipse id="Elipse_12573" data-name="Elipse 12573" cx="3.104" cy="3.046" rx="3.104" ry="3.046" fill="#fdb0a0"/>
                              </g>
                            </g>
                            <g id="Grupo_1203368" data-name="Grupo 1203368" transform="translate(10.71 15.049)">
                              <g id="Grupo_1203367" data-name="Grupo 1203367">
                                <path id="Trazado_1041175" data-name="Trazado 1041175" d="M305.537,218.206h4.782v7.179h-4.782Z" transform="translate(-305.537 -218.206)" fill="#f69583"/>
                              </g>
                            </g>
                            <g id="Grupo_1203369" data-name="Grupo 1203369" transform="translate(3.805 0.001)">
                              <path id="Trazado_1041176" data-name="Trazado 1041176" d="M255.662,108.3a9.3,9.3,0,0,1-9.3-9.3V89.25h18.593V99A9.3,9.3,0,0,1,255.662,108.3Z" transform="translate(-246.366 -89.25)" fill="#ffcec0"/>
                            </g>
                            <path id="Trazado_1041177" data-name="Trazado 1041177" d="M318.339,89.245v9.708a9.33,9.33,0,0,1-7.52,9.168,9.218,9.218,0,0,0,1.775.171,9.318,9.318,0,0,0,9.3-9.339V89.245Z" transform="translate(-299.492 -89.245)" fill="#fdb0a0"/>
                          </g>
                        </g>
                        <g id="Grupo_1203373" data-name="Grupo 1203373" transform="translate(0.888)">
                          <g id="Grupo_1203372" data-name="Grupo 1203372">
                            <path id="Trazado_1041178" data-name="Trazado 1041178" d="M229,26.116h-7.025a.6.6,0,0,1-.6-.6V20.606a8.879,8.879,0,0,1,8.879-8.879h5v8.14A6.249,6.249,0,0,1,229,26.116Z" transform="translate(-221.371 -11.727)" fill="#d46a50"/>
                            <path id="Trazado_1041179" data-name="Trazado 1041179" d="M346.546,26.116h3.695a.6.6,0,0,0,.6-.6V20.606a8.879,8.879,0,0,0-8.879-8.879H340.3v8.14A6.249,6.249,0,0,0,346.546,26.116Z" transform="translate(-326.419 -11.727)" fill="#d46a50"/>
                            <path id="Trazado_1041180" data-name="Trazado 1041180" d="M350.843,20.629v4.884a.6.6,0,0,1-.6.606H346.53a6.152,6.152,0,0,1-.661-.035.6.6,0,0,0,.4-.571V20.629a8.9,8.9,0,0,0-5.976-8.416V11.73h1.689A8.88,8.88,0,0,1,350.843,20.629Z" transform="translate(-326.417 -11.73)" fill="#a64b35"/>
                          </g>
                        </g>
                      </g>
                    </g>
                  </g>
                  <g id="Grupo_1203379" data-name="Grupo 1203379" transform="translate(0 33.522)">
                    <g id="Grupo_1203378" data-name="Grupo 1203378">
                      <path id="Trazado_1041181" data-name="Trazado 1041181" d="M93.9,322.469H78.222a1.208,1.208,0,0,1-1.208-1.208V300.186a1.208,1.208,0,0,1,1.208-1.208H93.9a1.208,1.208,0,0,1,1.208,1.208v21.074A1.208,1.208,0,0,1,93.9,322.469Z" transform="translate(-77.014 -298.978)" fill="#f3eae6"/>
                      <g id="Grupo_1203377" data-name="Grupo 1203377" transform="translate(12.211 0)">
                        <path id="Trazado_1041182" data-name="Trazado 1041182" d="M187.536,300.191v21.068a1.207,1.207,0,0,1-1.206,1.211h-4.68a1.208,1.208,0,0,0,1.206-1.211V300.191a1.208,1.208,0,0,0-1.206-1.211h4.68A1.208,1.208,0,0,1,187.536,300.191Z" transform="translate(-181.65 -298.98)" fill="#e0d3ce"/>
                      </g>
                    </g>
                  </g>
                </g>
              </g>
            </g>
          </g>
        </g>
      </g>
      <g id="Grupo_1203386" data-name="Grupo 1203386" transform="translate(0 4.226)">
        <path id="Trazado_1041183" data-name="Trazado 1041183" d="M59.688,58.231l-4.7-11.9A25.4,25.4,0,0,0,52.6,41.7h.09a6.2,6.2,0,0,0,6.184-6.208c0-3.179-2.09-4.978-4.111-6.718a15.113,15.113,0,0,1-3.909-4.4,3.874,3.874,0,0,0,.26-5.263,1.473,1.473,0,0,0,.019-.224V14A9.8,9.8,0,0,0,49.811,9.08a.875.875,0,1,0-1.513.88A8.046,8.046,0,0,1,49.385,14v4.615H45.947a5.38,5.38,0,0,1-5.36-5.388V5.977H41.4a7.912,7.912,0,0,1,4.492,1.39.875.875,0,0,0,.99-1.444,9.655,9.655,0,0,0-5.482-1.7H34.713a9.766,9.766,0,0,0-9.755,9.755v4.906a1.475,1.475,0,0,0,.019.223,3.873,3.873,0,0,0,.246,5.249,10.59,10.59,0,0,1-1.8,2.462.875.875,0,0,0,1.268,1.207,12.382,12.382,0,0,0,2.015-2.735,4.014,4.014,0,0,0,1.3.228,10.2,10.2,0,0,0,6.775,8.01v.336a16.751,16.751,0,0,0-8.071,4.056,2.07,2.07,0,0,0-.834-.175H19.847V32.7a11.957,11.957,0,0,1,1.889-1.985.875.875,0,1,0-1.157-1.313c-.244.215-.489.438-.732.669V22.66a2.086,2.086,0,0,0-2.081-2.086H2.081A2.086,2.086,0,0,0,0,22.66V32.4a.875.875,0,1,0,1.75,0V22.66a.334.334,0,0,1,.33-.336H17.766a.334.334,0,0,1,.33.336v9.79h0v5.3H15.653a7.217,7.217,0,0,0,.566-2.845c0-2.2-1.336-3.688-3.743-4.265a4.557,4.557,0,0,0-5.744-4.079,1.45,1.45,0,0,0-1.013,1.016,4.6,4.6,0,0,0,.452,3.5A3.991,3.991,0,0,0,3.7,34.9,6.842,6.842,0,0,0,4.878,38.85a5.547,5.547,0,0,0,3.235,2.167v3.047H2.081a.334.334,0,0,1-.33-.336V36.295a.875.875,0,1,0-1.75,0v7.434a2.086,2.086,0,0,0,2.081,2.086H8.112V60.906A2.086,2.086,0,0,0,10.2,62.989h15.68a2.086,2.086,0,0,0,2.084-2.084V39.831a2.078,2.078,0,0,0-.091-.61,15.007,15.007,0,0,1,2.909-2.436c.008.654.025,1.6.06,2.752a.017.017,0,0,0,0,0c.04,1.294.1,2.845.2,4.528A77.545,77.545,0,0,0,33.03,58.793a.875.875,0,1,0,1.691-.453c-1.382-5.155-1.9-12.653-2.087-17.565a18.552,18.552,0,0,0,10.83,0c-.188,4.911-.7,12.409-2.077,17.567a.875.875,0,1,0,1.691.452c1.875-7.011,2.186-17.822,2.237-21.633a15.715,15.715,0,0,1,4.816,4.092.872.872,0,0,0,.155.2,22.576,22.576,0,0,1,3.072,5.524l4.7,11.9a.875.875,0,0,0,1.628-.643ZM48.218,20.366h1.439a1.483,1.483,0,0,0,.206-.016,2.13,2.13,0,0,1,.41,1.251,2.2,2.2,0,0,1-2.055,2.162v-3.4Zm-21.51-6.385a8.013,8.013,0,0,1,8-8h4.124v7.265a5.38,5.38,0,0,1-5.374,5.374H26.709Zm1.166,9.782a2.254,2.254,0,0,1-1.068-.361l-.007,0a2.156,2.156,0,0,1-.979-1.8,2.13,2.13,0,0,1,.41-1.251,1.482,1.482,0,0,0,.207.016h1.437v3.4Zm1.75.135V20.366h3.837a7.13,7.13,0,0,0,6.25-3.709,7.112,7.112,0,0,0,6.234,3.709h.521V23.9a8.421,8.421,0,1,1-16.842,0ZM7.367,28.206a2.805,2.805,0,0,1,3.311,2.181q-.35-.019-.719-.019a11.508,11.508,0,0,0-2.041.169A2.844,2.844,0,0,1,7.367,28.206ZM5.45,34.9A2.218,2.218,0,0,1,6.6,32.818a6.755,6.755,0,0,1,3.36-.7,6.754,6.754,0,0,1,3.36.7A2.218,2.218,0,0,1,14.468,34.9a5.115,5.115,0,0,1-.8,2.845H10.2a2.087,2.087,0,0,0-1.989,1.464A4.125,4.125,0,0,1,5.45,34.9Zm20.759,26a.333.333,0,0,1-.333.333H10.2a.333.333,0,0,1-.333-.333V39.831A.333.333,0,0,1,10.2,39.5h15.68a.333.333,0,0,1,.333.333V60.906ZM43.525,38.893a15.29,15.29,0,0,1-5.478.938,15.293,15.293,0,0,1-5.476-.937c-.036-1.31-.047-2.285-.05-2.767.6-.156,1.326-.3,2.259-.479V36.9a.875.875,0,1,0,1.75,0V33.956a10.221,10.221,0,0,0,3.032,0V36.9a.875.875,0,1,0,1.75,0V35.661a16.227,16.227,0,0,1,2.258.692C43.567,36.882,43.555,37.763,43.525,38.893Zm3.657-2.665a16.469,16.469,0,0,0-5.869-2.362v-.335a10.2,10.2,0,0,0,6.775-8.01,4.014,4.014,0,0,0,1.28-.223,16.957,16.957,0,0,0,4.255,4.8c1.957,1.685,3.5,3.015,3.5,5.391a4.451,4.451,0,0,1-4.434,4.457H51.314A17.961,17.961,0,0,0,47.182,36.229Z" transform="translate(0 -4.226)"/>
        <path id="Trazado_1041184" data-name="Trazado 1041184" d="M319.4,166.808a.875.875,0,0,0,.875-.875v-1.279a.875.875,0,1,0-1.75,0v1.279A.875.875,0,0,0,319.4,166.808Z" transform="translate(-281.356 -145.16)"/>
        <path id="Trazado_1041185" data-name="Trazado 1041185" d="M304.317,199.943a.875.875,0,1,0-1.24-1.235,2.5,2.5,0,0,1-3.542,0,.875.875,0,0,0-1.241,1.235,4.246,4.246,0,0,0,6.023,0Z" transform="translate(-263.259 -175.784)"/>
        <path id="Trazado_1041186" data-name="Trazado 1041186" d="M281.694,154.818a.877.877,0,0,0-.907.842l-.009.242a.875.875,0,0,0,.842.908h.033a.875.875,0,0,0,.874-.842l.009-.242A.876.876,0,0,0,281.694,154.818Z" transform="translate(-248.011 -137.244)"/>
        <path id="Trazado_1041187" data-name="Trazado 1041187" d="M357.083,156.812h.033a.875.875,0,0,0,.842-.907l-.009-.242a.875.875,0,1,0-1.749.065l.009.242A.875.875,0,0,0,357.083,156.812Z" transform="translate(-314.632 -137.246)"/>
        <path id="Trazado_1041188" data-name="Trazado 1041188" d="M126.731,334.042l.041,0,.272.668a.875.875,0,0,0,1.621-.66l-3.091-7.594a.875.875,0,0,0-.81-.545h0a.875.875,0,0,0-.81.544l-3.11,7.6a.875.875,0,1,0,1.62.663l.277-.677.037,0Zm-1.969-4.942,1.3,3.191h-2.6Z" transform="translate(-106.684 -288.368)"/>
        <path id="Trazado_1041189" data-name="Trazado 1041189" d="M105.762,421.129l-.6.6-.037-.037a.875.875,0,0,0-1.24,1.235l.657.66a.875.875,0,0,0,1.241,0l1.22-1.226a.875.875,0,1,0-1.241-1.235Z" transform="translate(-91.536 -372.25)"/>
        <path id="Trazado_1041190" data-name="Trazado 1041190" d="M151.018,426.123h-5.407a.875.875,0,1,0,0,1.75h5.407a.875.875,0,0,0,0-1.75Z" transform="translate(-127.846 -376.889)"/>
        <path id="Trazado_1041191" data-name="Trazado 1041191" d="M105.762,452.129l-.6.6-.037-.037a.875.875,0,0,0-1.24,1.235l.657.66a.875.875,0,0,0,1.241,0l1.22-1.226a.875.875,0,0,0-1.241-1.235Z" transform="translate(-91.536 -399.632)"/>
        <path id="Trazado_1041192" data-name="Trazado 1041192" d="M151.018,457.123h-5.407a.875.875,0,1,0,0,1.75h5.407a.875.875,0,1,0,0-1.75Z" transform="translate(-127.846 -404.271)"/>
      </g>
    </g>
  </g>
</svg>
