<svg xmlns="http://www.w3.org/2000/svg" xmlns:xlink="http://www.w3.org/1999/xlink" width="97.533" height="97.533" viewBox="0 0 97.533 97.533">
  <defs>
    <filter id="Path_982547" x="0" y="-0.001" width="97.533" height="97.533" filterUnits="userSpaceOnUse">
      <feOffset dy="3" input="SourceAlpha"/>
      <feGaussianBlur stdDeviation="3" result="blur"/>
      <feFlood flood-opacity="0.161"/>
      <feComposite operator="in" in2="blur"/>
      <feComposite in="SourceGraphic"/>
    </filter>
  </defs>
  <g id="Group_1203855" data-name="Group 1203855" transform="translate(-190.967 -9265.471)">
    <g id="Group_1203722" data-name="Group 1203722" transform="translate(0 -74.53)">
      <g id="Group_1203356" data-name="Group 1203356" transform="translate(-0.5 2437.319)">
        <g id="Group_1202156" data-name="Group 1202156" transform="translate(-80.533 5497.679)">
          <g id="Group_1177900" data-name="Group 1177900" transform="translate(281 1411.003)">
            <g id="Group_1172010" data-name="Group 1172010" transform="translate(0)">
              <g id="Group_1171046" data-name="Group 1171046">
                <g id="Group_1148525" data-name="Group 1148525">
                  <g transform="matrix(1, 0, 0, 1, -9, -6)" filter="url(#Path_982547)">
                    <g id="Path_982547-2" data-name="Path 982547" transform="translate(9 6)" fill="#fdfbec">
                      <path d="M 39.7666015625 78.033203125 C 34.59997940063477 78.033203125 29.58870124816895 77.02164459228516 24.87196731567383 75.02663421630859 C 20.31538963317871 73.099365234375 16.22284507751465 70.34000396728516 12.70802402496338 66.82518005371094 C 9.193202018737793 63.31035614013672 6.433835029602051 59.21781158447266 4.506568431854248 54.66123580932617 C 2.511557102203369 49.94449996948242 1.500001549720764 44.93322372436523 1.500001549720764 39.7666015625 C 1.500001549720764 34.59997940063477 2.511557102203369 29.58870124816895 4.506568431854248 24.87196731567383 C 6.433835029602051 20.31538963317871 9.193202018737793 16.22284507751465 12.70802402496338 12.70802402496338 C 16.22284507751465 9.193202018737793 20.31538963317871 6.433835029602051 24.87196731567383 4.506568431854248 C 29.58870124816895 2.511557102203369 34.59997940063477 1.500001549720764 39.7666015625 1.500001549720764 C 44.93322372436523 1.500001549720764 49.94449996948242 2.511557102203369 54.66123580932617 4.506568431854248 C 59.21781158447266 6.433835029602051 63.31035614013672 9.193202018737793 66.82518005371094 12.70802402496338 C 70.34000396728516 16.22284507751465 73.099365234375 20.31538963317871 75.02663421630859 24.87196731567383 C 77.02164459228516 29.58870124816895 78.033203125 34.59997940063477 78.033203125 39.7666015625 C 78.033203125 44.93322372436523 77.02164459228516 49.94449996948242 75.02663421630859 54.66123580932617 C 73.099365234375 59.21781158447266 70.34000396728516 63.31035614013672 66.82518005371094 66.82518005371094 C 63.31035614013672 70.34000396728516 59.21781158447266 73.099365234375 54.66123580932617 75.02663421630859 C 49.94449996948242 77.02164459228516 44.93322372436523 78.033203125 39.7666015625 78.033203125 Z" stroke="none"/>
                      <path d="M 39.7666015625 3 C 34.80181503295898 3 29.98714065551758 3.971687316894531 25.45630264282227 5.888076782226562 C 21.07851409912109 7.739715576171875 17.146240234375 10.39113616943359 13.76869201660156 13.76869201660156 C 10.39113616943359 17.146240234375 7.739715576171875 21.07851409912109 5.888076782226562 25.45630264282227 C 3.971687316894531 29.98714065551758 3 34.80181503295898 3 39.7666015625 C 3 44.73138809204102 3.971687316894531 49.54606628417969 5.888076782226562 54.076904296875 C 7.739715576171875 58.45468902587891 10.39113616943359 62.386962890625 13.76869201660156 65.76451110839844 C 17.146240234375 69.14206695556641 21.07851409912109 71.79348754882812 25.45630264282227 73.64512634277344 C 29.98714065551758 75.56151580810547 34.80181503295898 76.533203125 39.7666015625 76.533203125 C 44.73138809204102 76.533203125 49.54606628417969 75.56151580810547 54.076904296875 73.64512634277344 C 58.45468902587891 71.79348754882812 62.386962890625 69.14206695556641 65.76451110839844 65.76451110839844 C 69.14206695556641 62.386962890625 71.79348754882812 58.45468902587891 73.64512634277344 54.076904296875 C 75.56151580810547 49.54606628417969 76.533203125 44.73138809204102 76.533203125 39.7666015625 C 76.533203125 34.80181503295898 75.56151580810547 29.98714065551758 73.64512634277344 25.45630264282227 C 71.79348754882812 21.07851409912109 69.14206695556641 17.146240234375 65.76451110839844 13.76869201660156 C 62.386962890625 10.39113616943359 58.45468902587891 7.739715576171875 54.076904296875 5.888076782226562 C 49.54606628417969 3.971687316894531 44.73138809204102 3 39.7666015625 3 M 39.7666015625 0 C 61.72908782958984 0 79.533203125 17.80411529541016 79.533203125 39.7666015625 C 79.533203125 61.72908782958984 61.72908782958984 79.533203125 39.7666015625 79.533203125 C 17.80411529541016 79.533203125 0 61.72908782958984 0 39.7666015625 C 0 17.80411529541016 17.80411529541016 0 39.7666015625 0 Z" stroke="none" fill="#83793c"/>
                    </g>
                  </g>
                </g>
              </g>
            </g>
          </g>
        </g>
      </g>
      <g id="leccion-en-linea_2_" data-name="leccion-en-linea (2)" transform="translate(214.639 9317.569)">
        <g id="Group_1203702" data-name="Group 1203702" transform="translate(0.735 52.886)">
          <path id="Path_1043794" data-name="Path 1043794" d="M476.736,102.523h-1.931v5.295h2.911V103.5A.98.98,0,0,0,476.736,102.523Z" transform="translate(-428.998 -102.523)" fill="#0593fc"/>
          <path id="Path_1043795" data-name="Path 1043795" d="M32.778,102.523H8.48a.98.98,0,0,0-.98.98v4.314H32.778Z" transform="translate(-7.5 -102.523)" fill="#0593fc"/>
        </g>
        <path id="Path_1043796" data-name="Path 1043796" d="M12.254,103.5a.98.98,0,0,1,.98-.98H8.48a.98.98,0,0,0-.98.98v4.314h4.754Z" transform="translate(-6.765 -49.637)" fill="#0182fc"/>
        <g id="Group_1203703" data-name="Group 1203703" transform="translate(0.735 58.181)">
          <path id="Path_1043797" data-name="Path 1043797" d="M55.728,185.99H7.99a.49.49,0,0,1-.49-.49V156.537H56.218V185.5A.49.49,0,0,1,55.728,185.99Z" transform="translate(-7.5 -156.537)" fill="#eaf6ff"/>
        </g>
        <g id="Group_1203704" data-name="Group 1203704" transform="translate(0.735 58.181)">
          <path id="Path_1043798" data-name="Path 1043798" d="M12.254,185.5V156.537H7.5V185.5a.49.49,0,0,0,.49.49h4.754A.49.49,0,0,1,12.254,185.5Z" transform="translate(-7.5 -156.537)" fill="#d8ecfe"/>
        </g>
        <g id="Group_1203705" data-name="Group 1203705" transform="translate(26.013 49.674)">
          <path id="Path_1043799" data-name="Path 1043799" d="M285.612,69.753H265.671a.294.294,0,0,0-.294.294V82.636a.294.294,0,0,0,.294.294H268a.294.294,0,0,1,.294.294v2.433a.294.294,0,0,0,.5.208l2.849-2.849a.294.294,0,0,1,.208-.086h13.763a.294.294,0,0,0,.294-.294V70.047A.294.294,0,0,0,285.612,69.753Z" transform="translate(-265.377 -69.753)" fill="#97d729"/>
        </g>
        <g id="Group_1203706" data-name="Group 1203706" transform="translate(26.013 49.674)">
          <path id="Path_1043800" data-name="Path 1043800" d="M269.849,82.636V70.047a.294.294,0,0,1,.294-.294h-4.472a.294.294,0,0,0-.294.294V82.636a.294.294,0,0,0,.294.294H268a.294.294,0,0,1,.294.294v2.433a.294.294,0,0,0,.5.208l2.849-2.849a.294.294,0,0,1,.208-.086h-1.705a.294.294,0,0,1-.294-.294Z" transform="translate(-265.377 -69.753)" fill="#8bc727"/>
        </g>
        <g id="Group_1203710" data-name="Group 1203710" transform="translate(3.361 48.227)">
          <path id="Path_1043801" data-name="Path 1043801" d="M105.873,60.432a7.153,7.153,0,0,1,2.037-.3h2.354a7.154,7.154,0,0,1,2.037.3,2.971,2.971,0,0,0-1.655-5.439h-3.119a2.971,2.971,0,0,0-1.655,5.439Z" transform="translate(-97.668 -54.993)" fill="#a44f3e"/>
          <path id="Path_1043802" data-name="Path 1043802" d="M105.872,60.433a7.154,7.154,0,0,1,2.037-.3h1.753a2.967,2.967,0,0,1,1.5-5.1,2.953,2.953,0,0,0-.521-.047h-3.119a2.971,2.971,0,0,0-1.655,5.439Z" transform="translate(-97.667 -54.994)" fill="#883f2e"/>
          <path id="Path_1043803" data-name="Path 1043803" d="M54.848,313.071a1.025,1.025,0,0,1-.11-.094l-2.132-2.132c-.124-.009-.249-.016-.375-.016H39.193a4.9,4.9,0,0,0-4.9,4.9v9.428h20.2V313.071Z" transform="translate(-34.292 -285.751)" fill="#ffd15b"/>
          <path id="Path_1043804" data-name="Path 1043804" d="M41.069,310.83H39.193a4.9,4.9,0,0,0-4.9,4.9v9.428h4.186v-9.428a4.9,4.9,0,0,1,2.591-4.323Z" transform="translate(-34.292 -285.752)" fill="#fdb441"/>
          <path id="Path_1043805" data-name="Path 1043805" d="M108.524,293.471h-.905a5.208,5.208,0,0,1-1.581-.245l-2.609,1.726v5.228a.294.294,0,0,0,.447.251l4.2-2.555,4.2,2.555a.294.294,0,0,0,.447-.251v-5.228l-2.609-1.726a5.212,5.212,0,0,1-1.581.245Z" transform="translate(-96.652 -269.874)" fill="#fff"/>
          <path id="Path_1043806" data-name="Path 1043806" d="M133.308,293.706H132.4a5.212,5.212,0,0,1-1.5-.219v3.129l1.95,1.5,1.949-1.5v-3.129A5.213,5.213,0,0,1,133.308,293.706Z" transform="translate(-121.436 -270.109)" fill="#fed2a4"/>
          <path id="Path_1043807" data-name="Path 1043807" d="M133,293.706H132.4a5.212,5.212,0,0,1-1.5-.219v3.129l1.95,1.5,1.559-1.2L133,295.827Z" transform="translate(-121.436 -270.109)" fill="#ffbd86"/>
          <path id="Path_1043808" data-name="Path 1043808" d="M66.987,116.48h1.464v-.361a2.539,2.539,0,0,1,2.539-2.539h6.255a2.539,2.539,0,0,1,2.539,2.539v.361H81.25a2.119,2.119,0,0,1,1.2.372v-2.23a7.156,7.156,0,0,0-7.156-7.156H72.942a7.156,7.156,0,0,0-7.156,7.156v2.23A2.118,2.118,0,0,1,66.987,116.48Z" transform="translate(-62.699 -102.322)" fill="#bb5d4c"/>
          <path id="Path_1043809" data-name="Path 1043809" d="M66.987,116.48h1.464v-.361a2.539,2.539,0,0,1,2.331-2.53,7.16,7.16,0,0,1,5.8-6.006,7.19,7.19,0,0,0-1.284-.117H72.941a7.156,7.156,0,0,0-7.156,7.156v2.23A2.119,2.119,0,0,1,66.987,116.48Z" transform="translate(-62.698 -102.322)" fill="#a44f3e"/>
          <g id="Group_1203707" data-name="Group 1203707" transform="translate(2.16 14.158)">
            <path id="Path_1043810" data-name="Path 1043810" d="M59.918,203.654v-4.225H58.454a2.129,2.129,0,0,0-2.129,2.129v.7a2.129,2.129,0,0,0,2.129,2.129H59.97A5.256,5.256,0,0,1,59.918,203.654Z" transform="translate(-56.325 -199.429)" fill="#ffe5c2"/>
            <path id="Path_1043811" data-name="Path 1043811" d="M209.589,199.428h-1.464v4.225a5.251,5.251,0,0,1-.052.732h1.517a2.129,2.129,0,0,0,2.129-2.129v-.7A2.129,2.129,0,0,0,209.589,199.428Z" transform="translate(-193.197 -199.428)" fill="#ffe5c2"/>
          </g>
          <g id="Group_1203708" data-name="Group 1203708" transform="translate(5.753 11.258)">
            <path id="Path_1043812" data-name="Path 1043812" d="M92.983,176.967v-4.586a2.539,2.539,0,0,1,2.539-2.539h6.255a2.539,2.539,0,0,1,2.539,2.539v4.586a5.214,5.214,0,0,1-5.214,5.214H98.2a5.214,5.214,0,0,1-5.214-5.214Z" transform="translate(-92.983 -169.842)" fill="#ffe5c2"/>
          </g>
          <g id="Group_1203709" data-name="Group 1203709" transform="translate(5.753 11.258)">
            <path id="Path_1043813" data-name="Path 1043813" d="M96.257,176.967v-4.586a2.539,2.539,0,0,1,2.539-2.539H95.522a2.539,2.539,0,0,0-2.539,2.539v4.586a5.214,5.214,0,0,0,5.214,5.214H99.1a5.226,5.226,0,0,0,1.184-.137,5.215,5.215,0,0,1-4.03-5.078Z" transform="translate(-92.983 -169.842)" fill="#fed2a4"/>
          </g>
        </g>
        <g id="Group_1203713" data-name="Group 1203713" transform="translate(21.315 68.529)">
          <path id="Path_1043814" data-name="Path 1043814" d="M220.052,269.122h5.134V264.04a1.936,1.936,0,0,0-1.936-1.936h-1.067a1.936,1.936,0,0,0-1.936,1.936v2.3l-.991-.991a1.058,1.058,0,1,0-1.5,1.5l2.183,2.183A1.018,1.018,0,0,0,220.052,269.122Z" transform="translate(-217.45 -262.104)" fill="#ffe5c2"/>
          <path id="Path_1043815" data-name="Path 1043815" d="M220.051,269.14h2.092v-7.016a1.935,1.935,0,0,0-1.9,1.934v2.3l-.991-.991a1.058,1.058,0,1,0-1.5,1.5l2.183,2.183A1.031,1.031,0,0,0,220.051,269.14Z" transform="translate(-217.449 -262.122)" fill="#fed2a4"/>
          <g id="Group_1203711" data-name="Group 1203711" transform="translate(2.242 7.018)">
            <path id="Path_1043816" data-name="Path 1043816" d="M240.32,333.7h5.848v12.087H240.32Z" transform="translate(-240.32 -333.701)" fill="#ffd15b"/>
          </g>
          <g id="Group_1203712" data-name="Group 1203712" transform="translate(2.242 7.018)">
            <path id="Path_1043817" data-name="Path 1043817" d="M240.32,333.7h2.452v12.087H240.32Z" transform="translate(-240.32 -333.701)" fill="#fdb441"/>
          </g>
        </g>
        <g id="Group_1203716" data-name="Group 1203716" transform="translate(32.563 66.582)">
          <g id="Group_1203714" data-name="Group 1203714" transform="translate(0 0)">
            <path id="Path_1043818" data-name="Path 1043818" d="M345.877,249.175H332.486a.294.294,0,0,1-.294-.294v-6.347a.294.294,0,0,1,.294-.294h13.391a.294.294,0,0,1,.294.294v6.347A.294.294,0,0,1,345.877,249.175Z" transform="translate(-332.192 -242.24)" fill="#fd4755"/>
          </g>
          <g id="Group_1203715" data-name="Group 1203715" transform="translate(0 0)">
            <path id="Path_1043819" data-name="Path 1043819" d="M335.838,248.881v-6.347a.294.294,0,0,1,.294-.294h-3.646a.294.294,0,0,0-.294.294v6.347a.294.294,0,0,0,.294.294h3.646A.294.294,0,0,1,335.838,248.881Z" transform="translate(-332.192 -242.24)" fill="#fb2b3a"/>
          </g>
          <circle id="Ellipse_12640" data-name="Ellipse 12640" cx="1.404" cy="1.404" r="1.404" transform="translate(2.309 2.064)" fill="#fff"/>
        </g>
        <g id="Group_1203720" data-name="Group 1203720" transform="translate(32.563 76.556)">
          <g id="Group_1203717" data-name="Group 1203717" transform="translate(0 0)">
            <path id="Path_1043820" data-name="Path 1043820" d="M345.877,350.929H332.486a.294.294,0,0,1-.294-.294v-6.347a.294.294,0,0,1,.294-.294h13.391a.294.294,0,0,1,.294.294v6.347A.294.294,0,0,1,345.877,350.929Z" transform="translate(-332.192 -343.993)" fill="#0593fc"/>
          </g>
          <g id="Group_1203718" data-name="Group 1203718" transform="translate(0 0)">
            <path id="Path_1043821" data-name="Path 1043821" d="M335.838,350.635v-6.347a.294.294,0,0,1,.294-.294h-3.646a.294.294,0,0,0-.294.294v6.347a.294.294,0,0,0,.294.294h3.646A.294.294,0,0,1,335.838,350.635Z" transform="translate(-332.192 -343.993)" fill="#0182fc"/>
          </g>
          <g id="Group_1203719" data-name="Group 1203719" transform="translate(2.309 2.064)">
            <circle id="Ellipse_12641" data-name="Ellipse 12641" cx="1.404" cy="1.404" r="1.404" fill="#fff"/>
          </g>
        </g>
        <g id="Group_1203721" data-name="Group 1203721" transform="translate(0 47.492)">
          <path id="Path_1043822" data-name="Path 1043822" d="M129.807,250.713a1.629,1.629,0,0,1-2.3,0,.735.735,0,0,0-1.04,1.04,3.1,3.1,0,0,0,4.381,0,.735.735,0,1,0-1.04-1.04Z" transform="translate(-113.875 -230.598)"/>
          <path id="Path_1043823" data-name="Path 1043823" d="M116.92,200.714v-1.4a.735.735,0,0,0-1.47,0v1.4a.735.735,0,1,0,1.47,0Z" transform="translate(-104.133 -183.766)"/>
          <path id="Path_1043824" data-name="Path 1043824" d="M171.872,198.576a.735.735,0,0,0-.735.735v1.4a.735.735,0,1,0,1.47,0v-1.4A.735.735,0,0,0,171.872,198.576Z" transform="translate(-154.362 -183.766)"/>
          <path id="Path_1043825" data-name="Path 1043825" d="M136.3,213.926a.735.735,0,0,0,1.1-.977l-.368-.414.392-.491a.735.735,0,0,0-1.148-.919l-.78.975a.735.735,0,0,0,.025.948Z" transform="translate(-122.071 -194.837)"/>
          <path id="Path_1043826" data-name="Path 1043826" d="M306.551,99.269H292.706a.735.735,0,0,0,0,1.47h13.845a.735.735,0,1,0,0-1.47Z" transform="translate(-263.351 -94.194)"/>
          <path id="Path_1043827" data-name="Path 1043827" d="M307.286,127.278a.735.735,0,0,0-.735-.735H292.706a.735.735,0,0,0,0,1.47h13.845A.735.735,0,0,0,307.286,127.278Z" transform="translate(-263.351 -118.794)"/>
          <path id="Path_1043828" data-name="Path 1043828" d="M292.706,153.817a.735.735,0,0,0,0,1.47h8.5a.735.735,0,0,0,0-1.47Z" transform="translate(-263.351 -143.395)"/>
          <path id="Path_1043829" data-name="Path 1043829" d="M48.473,52.151h-1.2V49.968a1.03,1.03,0,0,0-1.029-1.029H43.424a.735.735,0,0,0,0,1.47h2.382V62.116H32.485a1.023,1.023,0,0,0-.728.3l-2.1,2.1V63.145a1.03,1.03,0,0,0-1.029-1.029H26.748V50.409H39.994a.735.735,0,1,0,0-1.47H26.307a1.03,1.03,0,0,0-1.029,1.029v2.183H19.925a3.707,3.707,0,0,0-3.584-4.659H13.222a3.707,3.707,0,0,0-3.584,4.659H1.715A1.717,1.717,0,0,0,0,53.867V87.144a1.227,1.227,0,0,0,1.225,1.225h42.4a.735.735,0,1,0,0-1.47H30.141V84.791a.735.735,0,1,0-1.47,0V86.9H24.292V76.282H28.67V81.36a.735.735,0,1,0,1.47,0V75.547a.734.734,0,0,0-.354-.628V70.465a2.674,2.674,0,0,0-2.671-2.671H26.048a2.674,2.674,0,0,0-2.671,2.671v.57a1.791,1.791,0,0,0-2.794,1.535h-.938l-1.324-.876A5.973,5.973,0,0,0,21,68.077h.913a2.867,2.867,0,0,0,2.864-2.864v-.7a2.856,2.856,0,0,0-.927-2.108v-1.88a7.886,7.886,0,0,0-.167-1.611h1.6v3.641a1.03,1.03,0,0,0,1.029,1.029H28.19v1.992a1.029,1.029,0,0,0,1.757.728l2.72-2.72H46.248a1.03,1.03,0,0,0,1.029-1.029V58.916h1.44V86.9H47.051a.735.735,0,0,0,0,1.47h1.911a1.227,1.227,0,0,0,1.225-1.225V53.867a1.717,1.717,0,0,0-1.715-1.715ZM13.222,48.962h3.119a2.235,2.235,0,0,1,1.493,3.9,7.88,7.88,0,0,0-1.876-.227H13.6a7.875,7.875,0,0,0-1.876.227,2.235,2.235,0,0,1,1.493-3.9ZM1.47,53.867a.245.245,0,0,1,.245-.245H9.791A7.941,7.941,0,0,0,6.34,57.446H1.47ZM7.65,63.12h.729v3.486H7.65a1.4,1.4,0,0,1-1.394-1.394v-.7A1.4,1.4,0,0,1,7.65,63.12ZM2.626,86.9H1.47V58.916H5.88a7.886,7.886,0,0,0-.167,1.611v1.88a2.857,2.857,0,0,0-.927,2.108v.7A2.867,2.867,0,0,0,7.65,68.077h.913a5.973,5.973,0,0,0,2.679,3.617l-1.324.876H8.263a5.643,5.643,0,0,0-5.636,5.636Zm9.758-11.581,1.1.842-2.609,1.588V73.7l1.223-.809v1.843a.735.735,0,0,0,.288.583Zm9.76-3.024a.323.323,0,0,1,.457,0l.991.991a.735.735,0,0,0,1.255-.52v-2.3a1.2,1.2,0,0,1,1.2-1.2h1.067a1.2,1.2,0,0,1,1.2,1.2v4.347h-4.11l-2.061-2.061A.324.324,0,0,1,22.145,72.294Zm-2.51,7.136a1.031,1.031,0,0,0,.525-.9V74.04h1.2l1.468,1.468c0,.013,0,.025,0,.038V86.9H4.1V78.206A4.171,4.171,0,0,1,8.263,74.04H9.4v4.493a1.029,1.029,0,0,0,1.564.879l3.814-2.322,3.814,2.322a1.031,1.031,0,0,0,1.04.018Zm-6.067-5.058V72.511a5.976,5.976,0,0,0,.762.049h.905A5.975,5.975,0,0,0,16,72.511v1.861l-1.214.931Zm5.122-.671v4.048L16.08,76.16l1.1-.842a.735.735,0,0,0,.288-.583V72.892Zm1.024-7.09a4.484,4.484,0,0,1-4.479,4.479h-.905A4.484,4.484,0,0,1,9.85,66.61V62.024a1.806,1.806,0,0,1,1.8-1.8h6.255a1.806,1.806,0,0,1,1.8,1.8Zm-1.8-7.86H11.654A3.279,3.279,0,0,0,8.4,61.65H7.65a2.87,2.87,0,0,0-.466.039V60.527A6.428,6.428,0,0,1,13.6,54.106h2.354a6.428,6.428,0,0,1,6.421,6.421v1.162a2.868,2.868,0,0,0-.466-.039h-.751A3.278,3.278,0,0,0,17.909,58.75Zm5.4,6.463a1.4,1.4,0,0,1-1.394,1.394h-.729V63.12h.729a1.4,1.4,0,0,1,1.394,1.394Zm1.972-7.767H23.222a7.94,7.94,0,0,0-3.451-3.824h5.507Zm23.44,0h-1.44V53.622h1.2a.245.245,0,0,1,.245.245Z" transform="translate(0 -47.492)"/>
          <path id="Path_1043830" data-name="Path 1043830" d="M325.721,243.146h13.391a1.03,1.03,0,0,0,1.029-1.029v-6.347a1.03,1.03,0,0,0-1.029-1.029H325.721a1.03,1.03,0,0,0-1.029,1.029v6.347A1.03,1.03,0,0,0,325.721,243.146Zm.441-6.935h12.509v5.465H326.162Z" transform="translate(-292.865 -216.385)"/>
          <path id="Path_1043831" data-name="Path 1043831" d="M350.391,255.792a2.139,2.139,0,1,0,2.139,2.139A2.142,2.142,0,0,0,350.391,255.792Zm0,2.808a.669.669,0,1,1,.669-.669A.67.67,0,0,1,350.391,258.6Z" transform="translate(-314.115 -235.374)"/>
          <path id="Path_1043832" data-name="Path 1043832" d="M404.285,258.882h-4.368a.735.735,0,1,0,0,1.47h4.368a.735.735,0,0,0,0-1.47Z" transform="translate(-360.053 -238.161)"/>
          <path id="Path_1043833" data-name="Path 1043833" d="M404.285,280.1h-4.368a.735.735,0,1,0,0,1.47h4.368a.735.735,0,0,0,0-1.47Z" transform="translate(-360.053 -257.302)"/>
          <path id="Path_1043834" data-name="Path 1043834" d="M324.692,343.87a1.03,1.03,0,0,0,1.029,1.029h13.391a1.03,1.03,0,0,0,1.029-1.029v-6.347a1.03,1.03,0,0,0-1.029-1.029H325.721a1.03,1.03,0,0,0-1.029,1.029Zm1.47-5.906h12.509v5.465H326.162Z" transform="translate(-292.865 -308.164)"/>
          <path id="Path_1043835" data-name="Path 1043835" d="M350.391,357.546a2.139,2.139,0,1,0,2.139,2.139A2.142,2.142,0,0,0,350.391,357.546Zm0,2.808a.669.669,0,1,1,.669-.669A.67.67,0,0,1,350.391,360.354Z" transform="translate(-314.115 -327.153)"/>
          <path id="Path_1043836" data-name="Path 1043836" d="M404.285,360.636h-4.368a.735.735,0,1,0,0,1.47h4.368a.735.735,0,0,0,0-1.47Z" transform="translate(-360.053 -329.941)"/>
          <path id="Path_1043837" data-name="Path 1043837" d="M404.285,381.857h-4.368a.735.735,0,1,0,0,1.47h4.368a.735.735,0,0,0,0-1.47Z" transform="translate(-360.053 -349.081)"/>
        </g>
      </g>
    </g>
  </g>
</svg>
