<svg xmlns="http://www.w3.org/2000/svg" xmlns:xlink="http://www.w3.org/1999/xlink" width="108" height="108" viewBox="0 0 108 108">
  <defs>
    <filter id="Path_904820" x="0" y="0" width="108" height="108" filterUnits="userSpaceOnUse">
      <feOffset dy="3" input="SourceAlpha"/>
      <feGaussianBlur stdDeviation="3" result="blur"/>
      <feFlood flood-opacity="0.161"/>
      <feComposite operator="in" in2="blur"/>
      <feComposite in="SourceGraphic"/>
    </filter>
  </defs>
  <g id="Group_1203831" data-name="Group 1203831" transform="translate(-166 -3110.47)">
    <g id="Group_1203641" data-name="Group 1203641" transform="translate(0 -74.53)">
      <g id="Group_1203172" data-name="Group 1203172" transform="translate(0 561)">
        <g id="Group_1202793" data-name="Group 1202793" transform="translate(175 2630)">
          <g id="Group_1178315" data-name="Group 1178315" transform="translate(0 0)">
            <g id="Group_1173585" data-name="Group 1173585" transform="translate(0)">
              <g id="Group_1173428" data-name="Group 1173428">
                <g id="Group_1171958" data-name="Group 1171958">
                  <g id="Group_1167341" data-name="Group 1167341">
                    <g id="Group_1166792" data-name="Group 1166792">
                      <g transform="matrix(1, 0, 0, 1, -9, -6)" filter="url(#Path_904820)">
                        <g id="Path_904820-2" data-name="Path 904820" transform="translate(9 6)" fill="#ebe9f0">
                          <path d="M 44.99999618530273 88.49999237060547 C 39.12687301635742 88.49999237060547 33.43022155761719 87.35006713867188 28.06829643249512 85.08216857910156 C 22.88852119445801 82.89130401611328 18.23629570007324 79.75457763671875 14.24084663391113 75.75914001464844 C 10.24540901184082 71.76369476318359 7.108683586120605 67.11146545410156 4.917821407318115 61.93169403076172 C 2.649921178817749 56.56976699829102 1.499996185302734 50.87311553955078 1.499996185302734 44.99999237060547 C 1.499996185302734 39.12686920166016 2.649921178817749 33.43021774291992 4.917821407318115 28.06829261779785 C 7.108683586120605 22.88851737976074 10.24540901184082 18.23630523681641 14.24084663391113 14.24085521697998 C 18.23629570007324 10.24540519714355 22.88852119445801 7.108692169189453 28.06829643249512 4.917829990386963 C 33.43022155761719 2.649929761886597 39.12687301635742 1.500004887580872 44.99999618530273 1.500004887580872 C 50.87311935424805 1.500004887580872 56.56977081298828 2.649929761886597 61.93169784545898 4.917829990386963 C 67.11147308349609 7.108692169189453 71.76369476318359 10.24540519714355 75.75914764404297 14.24085521697998 C 79.75458526611328 18.23630523681641 82.89131164550781 22.88851737976074 85.08216857910156 28.06829261779785 C 87.35007476806641 33.43021774291992 88.5 39.12686920166016 88.5 44.99999237060547 C 88.5 50.87311553955078 87.35007476806641 56.56976699829102 85.08216857910156 61.93169403076172 C 82.89131164550781 67.11146545410156 79.75458526611328 71.76369476318359 75.75914764404297 75.75914001464844 C 71.76369476318359 79.75457763671875 67.11147308349609 82.89130401611328 61.93169784545898 85.08216857910156 C 56.56977081298828 87.35006713867188 50.87311935424805 88.49999237060547 44.99999618530273 88.49999237060547 Z" stroke="none"/>
                          <path d="M 44.99999618530273 2.999992370605469 C 39.32870864868164 2.999992370605469 33.82865142822266 4.11004638671875 28.65262603759766 6.299331665039062 C 23.65165710449219 8.414566040039062 19.15968322753906 11.44333648681641 15.301513671875 15.30150604248047 C 11.44333648681641 19.15967559814453 8.414566040039062 23.65164947509766 6.299339294433594 28.65262222290039 C 4.110054016113281 33.82864761352539 2.999992370605469 39.32870483398438 2.999992370605469 44.99999237060547 C 2.999992370605469 50.67127990722656 4.110054016113281 56.17132186889648 6.299339294433594 61.34736633300781 C 8.414566040039062 66.34833526611328 11.44333648681641 70.84029388427734 15.301513671875 74.69846343994141 C 19.15968322753906 78.55663299560547 23.65165710449219 81.58540344238281 28.65262603759766 83.70063781738281 C 33.82865142822266 85.88992309570312 39.32870864868164 86.99997711181641 44.99999618530273 86.99997711181641 C 50.67128372192383 86.99997711181641 56.17134094238281 85.88992309570312 61.34736633300781 83.70063781738281 C 66.34834289550781 81.58540344238281 70.84030914306641 78.55663299560547 74.69847869873047 74.69846343994141 C 78.55665588378906 70.84029388427734 81.58542633056641 66.34833526611328 83.70065307617188 61.34736633300781 C 85.88993835449219 56.17132186889648 87 50.67127990722656 87 44.99999237060547 C 87 39.32870483398438 85.88993835449219 33.82864761352539 83.70065307617188 28.65262222290039 C 81.58542633056641 23.65164947509766 78.55665588378906 19.15967559814453 74.69847869873047 15.30150604248047 C 70.84030914306641 11.44333648681641 66.34834289550781 8.414566040039062 61.34736633300781 6.299331665039062 C 56.17134094238281 4.11004638671875 50.67128372192383 2.999992370605469 44.99999618530273 2.999992370605469 M 44.99999618530273 -7.62939453125e-06 C 69.85281372070312 -7.62939453125e-06 90 20.14717864990234 90 44.99999237060547 C 90 69.85279083251953 69.85281372070312 89.99997711181641 44.99999618530273 89.99997711181641 C 20.14717864990234 89.99997711181641 -7.62939453125e-06 69.85279083251953 -7.62939453125e-06 44.99999237060547 C -7.62939453125e-06 20.14717864990234 20.14717864990234 -7.62939453125e-06 44.99999618530273 -7.62939453125e-06 Z" stroke="none" fill="#c6c0d6"/>
                        </g>
                      </g>
                    </g>
                  </g>
                </g>
              </g>
            </g>
          </g>
        </g>
      </g>
      <g id="educacion_7_" data-name="educacion (7)" transform="translate(191.56 3202.132)">
        <g id="Group_1203640" data-name="Group 1203640" transform="translate(0.974 5.681)">
          <path id="Path_1042627" data-name="Path 1042627" d="M97.807,233.593a11.192,11.192,0,0,0-.067,8.289l.913,1.788H59.245s-7.337-4.122,0-11.459l39.068-.805Z" transform="translate(-50.739 -206.951)" fill="#f1f2f2"/>
          <path id="Path_1042628" data-name="Path 1042628" d="M98.655,243.67H59.248s-7.337-4.123,0-11.459l39.068-.805-.507,2.187a10.731,10.731,0,0,0-.557,1.778H61.493a2.511,2.511,0,1,0,0,5.023H97.266a9.646,9.646,0,0,0,.477,1.489Z" transform="translate(-50.741 -206.95)" fill="#dee1e1"/>
          <path id="Path_1042629" data-name="Path 1042629" d="M81.933,234.638l-36.022-.057c-4.315,0-8.022-2.753-8.022-7.068a9.832,9.832,0,0,1,.147-3.048,7.817,7.817,0,0,1,7.331-5.1H82.322a1.763,1.763,0,0,1,0,3.525H54.353l-2.731.641-2.375-.641h-3.88a4.289,4.289,0,0,0,0,8.578H82.322a1.764,1.764,0,0,1,1.75,1.97c-.1.876-1.236,1.2-2.139,1.2Z" transform="translate(-34.615 -196.245)" fill="#b7e546"/>
          <path id="Path_1042630" data-name="Path 1042630" d="M81.727,270.656a1.762,1.762,0,0,1-1.75,1.555L61.72,273.305l-18.7-1.094a7.817,7.817,0,0,1-7.148-10.976v1.606a7.814,7.814,0,0,0,7.814,7.814Z" transform="translate(-32.271 -233.466)" fill="#abd641"/>
          <path id="Path_1042631" data-name="Path 1042631" d="M146.728,256.23v-5.138h-3.662l-1.3.131.078,4.786a.222.222,0,0,0,.3.207l.919-.225,1.028-.4a.221.221,0,0,1,.162,0l2.169.849A.222.222,0,0,0,146.728,256.23Z" transform="translate(-126.99 -224.45)" fill="#ef5227"/>
          <path id="Path_1042632" data-name="Path 1042632" d="M141.914,251.1v4.9l-1.141.447a.222.222,0,0,1-.3-.207V251.1Z" transform="translate(-125.839 -224.452)" fill="#d83724"/>
          <path id="Path_1042633" data-name="Path 1042633" d="M134.833,173.163v2.505l-.111,1.111a.778.778,0,0,1-.778.778l-29.608-.111a.777.777,0,0,1-.778-.778l-.222-3.505,15.2-.726Z" transform="translate(-92.83 -154.533)" fill="#fdcd08"/>
          <path id="Path_1042634" data-name="Path 1042634" d="M437.891,197.8c-.7,1.714-1.4,3.406-2.091,5.12a1.556,1.556,0,0,0,1.428,2.148l1.286.111h3.128a1.556,1.556,0,0,0,1.428-2.148l-1.45-3.575-.912-1.656h-2.818Z" transform="translate(-388.255 -177.076)" fill="#fdcd08"/>
          <path id="Path_1042635" data-name="Path 1042635" d="M438.125,197.742a4.223,4.223,0,0,0,2.61-.632l-.78-1.949-1.289.385h0l-1.68-.224c-.212.523-.521,1.266-.733,1.79h0l-1.45,3.574a1.556,1.556,0,0,0,1.428,2.147h1.778a1.556,1.556,0,0,1-1.428-2.147l1.083-2.669A.449.449,0,0,1,438.125,197.742Z" transform="translate(-387.369 -174.732)" fill="#faab18"/>
          <path id="Path_1042636" data-name="Path 1042636" d="M452.42,160.413a2.588,2.588,0,0,0-1.732-2.449c-.261-.091-.641.071-.932.071a2.182,2.182,0,0,0-2.288,2.379,2.26,2.26,0,0,0,2.476,2.287c.292,0,.483.252.744.162A2.588,2.588,0,0,0,452.42,160.413Z" transform="translate(-398.73 -141.643)" fill="#fdcd08"/>
          <path id="Path_1042637" data-name="Path 1042637" d="M449.273,161.963a2.527,2.527,0,0,1-.833.14,2.589,2.589,0,0,1,0-5.178,2.527,2.527,0,0,1,.833.14,2.6,2.6,0,0,0,0,4.9Z" transform="translate(-397.315 -140.744)" fill="#faab18"/>
          <path id="Path_1042638" data-name="Path 1042638" d="M64.5,21.5l-7.328,2.537-2-.205L40.954,29.65a4.662,4.662,0,0,1-3.05,0L23.681,24.056l-2-.022L14.353,21.5a.932.932,0,0,1,0-1.762l23.829-8.249a3.812,3.812,0,0,1,2.494,0L64.5,19.735A.932.932,0,0,1,64.5,21.5Z" transform="translate(-13.175 -11.277)" fill="#868491"/>
          <path id="Path_1042639" data-name="Path 1042639" d="M120.832,82.873v.752l-16.223,5.616a4.661,4.661,0,0,1-3.051,0L85.336,83.625v-.752a3.268,3.268,0,0,1,2.693-3.22,85.325,85.325,0,0,1,30.11,0,3.271,3.271,0,0,1,2.693,3.22Z" transform="translate(-76.83 -70.867)" fill="#77777f"/>
          <path id="Path_1042640" data-name="Path 1042640" d="M136.61,98.874V105.5H105.447l-.111-6.4a1.271,1.271,0,0,1,1.047-1.251c.317-.057.413-.334.731-.387a83.3,83.3,0,0,1,28.451.165,1.272,1.272,0,0,1,1.047,1.251Z" transform="translate(-94.608 -86.868)" fill="#868491"/>
          <path id="Path_1042641" data-name="Path 1042641" d="M134.833,175.669v1.222a.778.778,0,0,1-.778.778H104.114a.778.778,0,0,1-.778-.778v-3.727l1-.726,1,.726v1.95a.556.556,0,0,0,.555.555Z" transform="translate(-92.83 -154.533)" fill="#faab18"/>
          <path id="Path_1042642" data-name="Path 1042642" d="M105.336,106.605v8.04h-2V108.02a1.271,1.271,0,0,1,1.047-1.251C104.7,106.713,105.018,106.657,105.336,106.605Z" transform="translate(-92.83 -96.014)" fill="#77777f"/>
          <path id="Path_1042643" data-name="Path 1042643" d="M80.662,390.113a10.453,10.453,0,0,1,0-8l.338-1.5H35.572s-5.114,5.56.332,11.006l45.392.34Z" transform="translate(-30.658 -339.58)" fill="#f1f2f2"/>
          <path id="Path_1042644" data-name="Path 1042644" d="M81.3,391.96,35.9,391.62c-5.447-5.446-.332-11.005-.332-11.005l45.646.084-.556,1.417a10.41,10.41,0,0,0-.5,1.515H38.472a2.511,2.511,0,1,0,0,5.023H80.179a10.54,10.54,0,0,0,.483,1.463Z" transform="translate(-30.658 -339.583)" fill="#dee1e1"/>
          <path id="Path_1042645" data-name="Path 1042645" d="M63.419,375.272,22.346,375.2c-4.316,0-8.112-2.435-8.112-6.751,0-1.37-.335-3.255.284-4.375a7.812,7.812,0,0,1,6.842-4.038H64.19a1.763,1.763,0,1,1,0,3.525H53.578l-2.773.614-2.334-.614H21.361a4.289,4.289,0,1,0,0,8.578H64.19a1.764,1.764,0,0,1,1.734,2.081c-.15.821-1.641,1.055-2.506,1.055Z" transform="translate(-13.546 -321.288)" fill="#ef5227"/>
          <path id="Path_1042646" data-name="Path 1042646" d="M61.146,403.152a1.764,1.764,0,0,1-1.734,1.444H16.582A7.815,7.815,0,0,1,9.99,392.585v2.753a7.814,7.814,0,0,0,7.814,7.814Z" transform="translate(-8.768 -350.223)" fill="#d83724"/>
          <path id="Path_1042647" data-name="Path 1042647" d="M329.37,396.929v-5.18h-3.44l-1.526.093.082,4.865a.222.222,0,0,0,.3.207l1.141-.312.806-.316a.222.222,0,0,1,.162,0l2.169.849A.222.222,0,0,0,329.37,396.929Z" transform="translate(-289.338 -349.48)" fill="#fdcd08"/>
          <path id="Path_1042648" data-name="Path 1042648" d="M324.806,391.745V396.6l-1.363.533a.222.222,0,0,1-.3-.207v-5.18Z" transform="translate(-288.215 -349.477)" fill="#faab18"/>
        </g>
        <path id="Path_1042649" data-name="Path 1042649" d="M56.705,30.959,54.856,26.4a3.385,3.385,0,0,0-1.718-5.462c0-.219,0-5.71,0-5.943a1.729,1.729,0,0,0-1.177-1.654L28.535,5.233a4.6,4.6,0,0,0-3,0L19.705,7.252a.833.833,0,1,0,.545,1.575l5.832-2.019a2.926,2.926,0,0,1,1.907,0l23.425,8.109a.084.084,0,0,1,0,.158l-8.064,2.792v-.25a2.08,2.08,0,0,0-1.715-2.05,82.435,82.435,0,0,0-29.2,0,2.081,2.081,0,0,0-1.715,2.05v.25L2.658,15.074a.084.084,0,0,1,0-.158l13.851-4.795a.833.833,0,1,0-.545-1.575L2.113,13.342a1.75,1.75,0,0,0,0,3.307l8.609,2.98v8.246a8.644,8.644,0,0,0-3.941,15.79A8.646,8.646,0,0,0,8.647,60.755h42.83a2.6,2.6,0,0,0,.053-5.19,9.546,9.546,0,0,1-.02-6.913,2.6,2.6,0,0,0-.033-5.191h-.514a2.594,2.594,0,0,0-2.423-3.525h-.022a9.54,9.54,0,0,1-.157-6.473,2.34,2.34,0,0,0,1.72.755h4.449a2.344,2.344,0,0,0,1.946-1.038,2.371,2.371,0,0,0,.23-2.22Zm-2.713-6.748A1.688,1.688,0,1,1,52.3,22.5,1.7,1.7,0,0,1,53.992,24.211Zm-2.521-7.392v4.12A3.385,3.385,0,0,0,49.753,26.4l-.581,1.432H43.351v-8.2Zm-38.741.389a80.789,80.789,0,0,1,28.611,0,.416.416,0,0,1,.343.41V23.3H36.55a.833.833,0,0,0,0,1.666h5.134v2.87h-29.3v-2.87H32.662a.833.833,0,0,0,0-1.666H12.388V17.617a.416.416,0,0,1,.343-.41ZM52.406,46.056a.93.93,0,0,1-.929.929H8.647a5.122,5.122,0,1,0,0,10.244h32.9a.833.833,0,1,0,0-1.666H8.647a3.456,3.456,0,1,1,0-6.911H34.925v4.671a.833.833,0,0,0,1.137.776l2.25-.881,2.25.881a.833.833,0,0,0,1.137-.776V48.652h8.043a11.183,11.183,0,0,0,.016,6.911h-4.32a.833.833,0,1,0,0,1.666h6.039a.929.929,0,0,1,0,1.859H8.647a6.981,6.981,0,0,1,0-13.961h42.83a.93.93,0,0,1,.929.929Zm-15.815,2.6h3.44V52.1l-1.416-.555a.833.833,0,0,0-.608,0l-1.416.555ZM22.33,41.6H48.539a.929.929,0,1,1,0,1.859H11.585a6.981,6.981,0,0,1,0-13.961H48.5c-.206.553-.586,1.336-.714,1.859h-36.2a5.122,5.122,0,1,0,0,10.244h6.857a.833.833,0,1,0,0-1.666H11.585a3.456,3.456,0,1,1,0-6.911h3.046v4.631a.833.833,0,0,0,1.137.776l2.25-.881,2.25.881a.833.833,0,0,0,1.137-.776V33.024H46.747a11.184,11.184,0,0,0,0,6.911H22.33a.833.833,0,0,0,0,1.667ZM16.3,33.024h3.44v3.41l-1.416-.555a.833.833,0,0,0-.608,0l-1.416.555Zm38.795-.776a.675.675,0,0,1-.564.3H50.08a.676.676,0,0,1-.564-.3.7.7,0,0,1-.068-.662l1.7-4.2a3.336,3.336,0,0,0,2.3,0l1.7,4.2A.7.7,0,0,1,55.092,32.248Z"/>
      </g>
    </g>
  </g>
</svg>
