<svg xmlns="http://www.w3.org/2000/svg" xmlns:xlink="http://www.w3.org/1999/xlink" width="113" height="113" viewBox="0 0 113 113">
  <defs>
    <filter id="Path_982547" x="0" y="0" width="113" height="113" filterUnits="userSpaceOnUse">
      <feOffset dy="3" input="SourceAlpha"/>
      <feGaussianBlur stdDeviation="3" result="blur"/>
      <feFlood flood-opacity="0.161"/>
      <feComposite operator="in" in2="blur"/>
      <feComposite in="SourceGraphic"/>
    </filter>
  </defs>
  <g id="Group_1203818" data-name="Group 1203818" transform="translate(-586 -5901.287)">
    <g id="Group_1203631" data-name="Group 1203631">
      <g id="Group_1202433" data-name="Group 1202433" transform="translate(-0.56 1255.773)">
        <g id="Group_1202054" data-name="Group 1202054" transform="translate(0 3240.511)">
          <g id="Group_1177897" data-name="Group 1177897" transform="translate(595.561 1411.003)">
            <g id="Group_1172010" data-name="Group 1172010" transform="translate(0)">
              <g id="Group_1171046" data-name="Group 1171046">
                <g id="Group_1148525" data-name="Group 1148525">
                  <g transform="matrix(1, 0, 0, 1, -9, -6)" filter="url(#Path_982547)">
                    <g id="Path_982547-2" data-name="Path 982547" transform="translate(9 6)" fill="#edf3fc">
                      <path d="M 47.5 93.5 C 41.28937149047852 93.5 35.26533508300781 92.28397369384766 29.59518623352051 89.88570404052734 C 24.11771965026855 87.56893157958984 19.19813346862793 84.25196075439453 14.97309303283691 80.02691650390625 C 10.74804019927979 75.80186462402344 7.431066513061523 70.88229370117188 5.114293098449707 65.40481567382812 C 2.716026782989502 59.73468017578125 1.5 53.71062850952148 1.5 47.5 C 1.5 41.28937149047852 2.716026782989502 35.26533508300781 5.114293098449707 29.59518623352051 C 7.431066513061523 24.11771965026855 10.74804019927979 19.19813346862793 14.97309303283691 14.97309303283691 C 19.19813346862793 10.74804019927979 24.11771965026855 7.431066513061523 29.59518623352051 5.114293098449707 C 35.26533508300781 2.716026782989502 41.28937149047852 1.5 47.5 1.5 C 53.71062850952148 1.5 59.73468017578125 2.716026782989502 65.40481567382812 5.114293098449707 C 70.88229370117188 7.431066513061523 75.80186462402344 10.74804019927979 80.02691650390625 14.97309303283691 C 84.25196075439453 19.19813346862793 87.56893157958984 24.11771965026855 89.88570404052734 29.59518623352051 C 92.28397369384766 35.26533508300781 93.5 41.28937149047852 93.5 47.5 C 93.5 53.71062850952148 92.28397369384766 59.73468017578125 89.88570404052734 65.40481567382812 C 87.56893157958984 70.88229370117188 84.25196075439453 75.80186462402344 80.02691650390625 80.02691650390625 C 75.80186462402344 84.25196075439453 70.88229370117188 87.56893157958984 65.40481567382812 89.88570404052734 C 59.73468017578125 92.28397369384766 53.71062850952148 93.5 47.5 93.5 Z" stroke="none"/>
                      <path d="M 47.5 3 C 41.49121475219727 3 35.66376876831055 4.176155090332031 30.17950439453125 6.495796203613281 C 24.88084411621094 8.736953735351562 20.12152099609375 11.94598388671875 16.03375244140625 16.03375244140625 C 11.94598388671875 20.12152099609375 8.736953735351562 24.88084411621094 6.495796203613281 30.17950439453125 C 4.176155090332031 35.66376876831055 3 41.49121475219727 3 47.5 C 3 53.50878524780273 4.176155090332031 59.33623123168945 6.495796203613281 64.82049560546875 C 8.736953735351562 70.11915588378906 11.94598388671875 74.87847900390625 16.03375244140625 78.96624755859375 C 20.12152099609375 83.05401611328125 24.88084411621094 86.26304626464844 30.17950439453125 88.50419616699219 C 35.66376876831055 90.82384490966797 41.49121475219727 92 47.5 92 C 53.50878524780273 92 59.33623123168945 90.82384490966797 64.82049560546875 88.50419616699219 C 70.11915588378906 86.26304626464844 74.87847900390625 83.05401611328125 78.96624755859375 78.96624755859375 C 83.05401611328125 74.87847900390625 86.26304626464844 70.11915588378906 88.50419616699219 64.82049560546875 C 90.82384490966797 59.33623123168945 92 53.50878524780273 92 47.5 C 92 41.49121475219727 90.82384490966797 35.66376876831055 88.50419616699219 30.17950439453125 C 86.26304626464844 24.88084411621094 83.05401611328125 20.12152099609375 78.96624755859375 16.03375244140625 C 74.87847900390625 11.94598388671875 70.11915588378906 8.736953735351562 64.82049560546875 6.495796203613281 C 59.33623123168945 4.176155090332031 53.50878524780273 3 47.5 3 M 47.5 0 C 73.7335205078125 0 95 21.2664794921875 95 47.5 C 95 73.7335205078125 73.7335205078125 95 47.5 95 C 21.2664794921875 95 0 73.7335205078125 0 47.5 C 0 21.2664794921875 21.2664794921875 0 47.5 0 Z" stroke="none" fill="#5692e8"/>
                    </g>
                  </g>
                </g>
              </g>
            </g>
          </g>
        </g>
      </g>
      <g id="notas-musicales" transform="translate(581.723 5922.03)">
        <g id="Group_1203629" data-name="Group 1203629" transform="translate(33.687 1.269)">
          <path id="Path_1042584" data-name="Path 1042584" d="M143.807,133.74l0,24.5c-.648-.85-2.28-1.34-4.027-1.339a9.144,9.144,0,1,0,9.146,9.143l0-21.616,19.584-4.21,0,9.682c-.648-.85-2.28-1.34-4.027-1.34a9.144,9.144,0,1,0,9.146,9.143l-.005-29.984Z" transform="translate(-119.451 -112.788)" fill="#ff9c9b"/>
          <g id="Group_1203628" data-name="Group 1203628" transform="translate(0)">
            <g id="Group_1203627" data-name="Group 1203627">
              <path id="Path_1042585" data-name="Path 1042585" d="M55,28.526v6.039c-.621-.814-2.145-1.284-3.819-1.283a8.761,8.761,0,1,0,8.763,8.76l0-21.584L69,25.856q0-.17,0-.34A15.689,15.689,0,0,0,58.072,10.982L55,10v7.058" transform="translate(-42.419 -10)" fill="#eaaacb"/>
            </g>
          </g>
        </g>
        <g id="Group_1203630" data-name="Group 1203630" transform="translate(32.419 0)">
          <path id="Path_1042586" data-name="Path 1042586" d="M132.877,103.233a1.268,1.268,0,1,1,1.244-1.02A1.278,1.278,0,0,1,132.877,103.233Z" transform="translate(-119.031 -87.928)"/>
          <path id="Path_1042587" data-name="Path 1042587" d="M42.448,43.341a10.029,10.029,0,0,1,0-20.059h0A8.794,8.794,0,0,1,45,23.634v-3.84a1.268,1.268,0,0,1,2.537,0v6.039a1.268,1.268,0,0,1-2.277.769,4.065,4.065,0,0,0-2.807-.784h0a7.493,7.493,0,0,0,0,14.986h0a7.493,7.493,0,0,0,7.492-7.494l0-21.584a1.268,1.268,0,0,1,1.918-1.09L58.8,14.778a14.455,14.455,0,0,0-9.854-11.32l-1.416-.452V8.327a1.268,1.268,0,1,1-2.537,0V1.269A1.268,1.268,0,0,1,46.652.061l3.074.982a16.947,16.947,0,0,1,11.8,15.717q0,.182,0,.365a1.268,1.268,0,0,1-1.918,1.09l-7.14-4.256,0,19.351A10.029,10.029,0,0,1,42.451,43.341h0Z" transform="translate(-32.419 0)"/>
          <path id="Path_1042588" data-name="Path 1042588" d="M131.052,167.727a10.412,10.412,0,0,1,0-20.825h0a9.214,9.214,0,0,1,2.754.391l0-22.284a1.268,1.268,0,0,1,1.017-1.243l29.818-6.021a1.268,1.268,0,0,1,1.519,1.243l.005,29.984a10.425,10.425,0,0,1-10.411,10.415h0a10.413,10.413,0,0,1,0-20.826,9.227,9.227,0,0,1,2.759.391v-5.9l-17.047,3.665,0,20.592a10.412,10.412,0,0,1-10.411,10.414Zm0-18.288h0a7.876,7.876,0,0,0,0,15.752h0a7.876,7.876,0,0,0,7.875-7.877l0-21.617a1.268,1.268,0,0,1,1-1.24l19.584-4.21a1.269,1.269,0,0,1,1.535,1.24l0,9.682a1.268,1.268,0,0,1-2.277.769,4.376,4.376,0,0,0-3.019-.841,7.876,7.876,0,0,0,0,15.752h0a7.885,7.885,0,0,0,7.874-7.878l0-28.435-27.282,5.509,0,23.463a1.268,1.268,0,0,1-2.277.77A4.37,4.37,0,0,0,131.055,149.439Z" transform="translate(-109.451 -102.788)"/>
        </g>
      </g>
    </g>
  </g>
</svg>
