<svg xmlns="http://www.w3.org/2000/svg" xmlns:xlink="http://www.w3.org/1999/xlink" width="97.533" height="97.533" viewBox="0 0 97.533 97.533">
  <defs>
    <filter id="Path_982547" x="0" y="-0.001" width="97.533" height="97.533" filterUnits="userSpaceOnUse">
      <feOffset dy="3" input="SourceAlpha"/>
      <feGaussianBlur stdDeviation="3" result="blur"/>
      <feFlood flood-opacity="0.161"/>
      <feComposite operator="in" in2="blur"/>
      <feComposite in="SourceGraphic"/>
    </filter>
  </defs>
  <g id="Group_1203854" data-name="Group 1203854" transform="translate(-190.967 -9129.471)">
    <g id="Group_1203701" data-name="Group 1203701" transform="translate(0 -74.53)">
      <g id="Group_1203355" data-name="Group 1203355" transform="translate(-0.5 2301.319)">
        <g id="Group_1202156" data-name="Group 1202156" transform="translate(-80.533 5497.679)">
          <g id="Group_1177900" data-name="Group 1177900" transform="translate(281 1411.003)">
            <g id="Group_1172010" data-name="Group 1172010" transform="translate(0)">
              <g id="Group_1171046" data-name="Group 1171046">
                <g id="Group_1148525" data-name="Group 1148525">
                  <g transform="matrix(1, 0, 0, 1, -9, -6)" filter="url(#Path_982547)">
                    <g id="Path_982547-2" data-name="Path 982547" transform="translate(9 6)" fill="#fdfbec">
                      <path d="M 39.7666015625 78.033203125 C 34.59997940063477 78.033203125 29.58870124816895 77.02164459228516 24.87196731567383 75.02663421630859 C 20.31538963317871 73.099365234375 16.22284507751465 70.34000396728516 12.70802402496338 66.82518005371094 C 9.193202018737793 63.31035614013672 6.433835029602051 59.21781158447266 4.506568431854248 54.66123580932617 C 2.511557102203369 49.94449996948242 1.500001549720764 44.93322372436523 1.500001549720764 39.7666015625 C 1.500001549720764 34.59997940063477 2.511557102203369 29.58870124816895 4.506568431854248 24.87196731567383 C 6.433835029602051 20.31538963317871 9.193202018737793 16.22284507751465 12.70802402496338 12.70802402496338 C 16.22284507751465 9.193202018737793 20.31538963317871 6.433835029602051 24.87196731567383 4.506568431854248 C 29.58870124816895 2.511557102203369 34.59997940063477 1.500001549720764 39.7666015625 1.500001549720764 C 44.93322372436523 1.500001549720764 49.94449996948242 2.511557102203369 54.66123580932617 4.506568431854248 C 59.21781158447266 6.433835029602051 63.31035614013672 9.193202018737793 66.82518005371094 12.70802402496338 C 70.34000396728516 16.22284507751465 73.099365234375 20.31538963317871 75.02663421630859 24.87196731567383 C 77.02164459228516 29.58870124816895 78.033203125 34.59997940063477 78.033203125 39.7666015625 C 78.033203125 44.93322372436523 77.02164459228516 49.94449996948242 75.02663421630859 54.66123580932617 C 73.099365234375 59.21781158447266 70.34000396728516 63.31035614013672 66.82518005371094 66.82518005371094 C 63.31035614013672 70.34000396728516 59.21781158447266 73.099365234375 54.66123580932617 75.02663421630859 C 49.94449996948242 77.02164459228516 44.93322372436523 78.033203125 39.7666015625 78.033203125 Z" stroke="none"/>
                      <path d="M 39.7666015625 3 C 34.80181503295898 3 29.98714065551758 3.971687316894531 25.45630264282227 5.888076782226562 C 21.07851409912109 7.739715576171875 17.146240234375 10.39113616943359 13.76869201660156 13.76869201660156 C 10.39113616943359 17.146240234375 7.739715576171875 21.07851409912109 5.888076782226562 25.45630264282227 C 3.971687316894531 29.98714065551758 3 34.80181503295898 3 39.7666015625 C 3 44.73138809204102 3.971687316894531 49.54606628417969 5.888076782226562 54.076904296875 C 7.739715576171875 58.45468902587891 10.39113616943359 62.386962890625 13.76869201660156 65.76451110839844 C 17.146240234375 69.14206695556641 21.07851409912109 71.79348754882812 25.45630264282227 73.64512634277344 C 29.98714065551758 75.56151580810547 34.80181503295898 76.533203125 39.7666015625 76.533203125 C 44.73138809204102 76.533203125 49.54606628417969 75.56151580810547 54.076904296875 73.64512634277344 C 58.45468902587891 71.79348754882812 62.386962890625 69.14206695556641 65.76451110839844 65.76451110839844 C 69.14206695556641 62.386962890625 71.79348754882812 58.45468902587891 73.64512634277344 54.076904296875 C 75.56151580810547 49.54606628417969 76.533203125 44.73138809204102 76.533203125 39.7666015625 C 76.533203125 34.80181503295898 75.56151580810547 29.98714065551758 73.64512634277344 25.45630264282227 C 71.79348754882812 21.07851409912109 69.14206695556641 17.146240234375 65.76451110839844 13.76869201660156 C 62.386962890625 10.39113616943359 58.45468902587891 7.739715576171875 54.076904296875 5.888076782226562 C 49.54606628417969 3.971687316894531 44.73138809204102 3 39.7666015625 3 M 39.7666015625 0 C 61.72908782958984 0 79.533203125 17.80411529541016 79.533203125 39.7666015625 C 79.533203125 61.72908782958984 61.72908782958984 79.533203125 39.7666015625 79.533203125 C 17.80411529541016 79.533203125 0 61.72908782958984 0 39.7666015625 C 0 17.80411529541016 17.80411529541016 0 39.7666015625 0 Z" stroke="none" fill="#83793c"/>
                    </g>
                  </g>
                </g>
              </g>
            </g>
          </g>
        </g>
      </g>
      <g id="bloques_2_" data-name="bloques (2)" transform="translate(214.728 9228.432)">
        <path id="Path_1043773" data-name="Path 1043773" d="M53.384,230.852H10.162A2.662,2.662,0,0,1,7.5,228.19V212.025a2.662,2.662,0,0,1,2.662-2.662H53.384a2.662,2.662,0,0,1,2.662,2.662V228.19A2.662,2.662,0,0,1,53.384,230.852Zm0,0" transform="translate(-6.767 -188.913)" fill="#da9783"/>
        <path id="Path_1043774" data-name="Path 1043774" d="M53.636,209.438c0,.061.007.123.007.186v16.166a2.662,2.662,0,0,1-2.662,2.662H7.76c-.063,0-.124,0-.186-.007a2.661,2.661,0,0,0,2.654,2.476H53.45a2.662,2.662,0,0,0,2.662-2.662V212.093a2.661,2.661,0,0,0-2.476-2.655Zm0,0" transform="translate(-6.834 -188.981)" fill="#ba8170"/>
        <path id="Path_1043775" data-name="Path 1043775" d="M45.592,266.094a5.767,5.767,0,1,1-5.767-5.766A5.767,5.767,0,0,1,45.592,266.094Zm0,0" transform="translate(-30.732 -234.9)" fill="#d67046"/>
        <path id="Path_1043776" data-name="Path 1043776" d="M50.088,268.465a5.766,5.766,0,0,1-7.892,7.892,5.766,5.766,0,1,0,7.892-7.892Zm0,0" transform="translate(-38.074 -242.242)" fill="#bd633e"/>
        <path id="Path_1043777" data-name="Path 1043777" d="M205.309,271.861h-9.328a1.1,1.1,0,0,1-1.1-1.1V261.43a1.1,1.1,0,0,1,1.1-1.1h9.328a1.1,1.1,0,0,1,1.1,1.1v9.328A1.1,1.1,0,0,1,205.309,271.861Zm0,0" transform="translate(-175.844 -234.9)" fill="#d67046"/>
        <path id="Path_1043778" data-name="Path 1043778" d="M205.309,260.328h-1.192v8.136a1.1,1.1,0,0,1-1.1,1.1h-8.136v1.192a1.1,1.1,0,0,0,1.1,1.1h9.328a1.1,1.1,0,0,0,1.1-1.1V261.43A1.1,1.1,0,0,0,205.309,260.328Zm0,0" transform="translate(-175.844 -234.9)" fill="#bd633e"/>
        <path id="Path_1043779" data-name="Path 1043779" d="M356.838,257.791l-5.206,10.2a.967.967,0,0,0,.861,1.406H362.9a.967.967,0,0,0,.861-1.406l-5.206-10.2A.967.967,0,0,0,356.838,257.791Zm0,0" transform="translate(-317.189 -232.135)" fill="#d67046"/>
        <path id="Path_1043780" data-name="Path 1043780" d="M363.766,267.989l-5.205-10.2a.967.967,0,0,0-1.722,0l-.129.253,4.127,8.085a.967.967,0,0,1-.861,1.406h-8.11l-.232.454a.967.967,0,0,0,.861,1.406H362.9a.967.967,0,0,0,.861-1.407Zm0,0" transform="translate(-317.19 -232.135)" fill="#bd633e"/>
        <path id="Path_1043781" data-name="Path 1043781" d="M367.229,16.325a5.767,5.767,0,1,1-5.766-5.767A5.767,5.767,0,0,1,367.229,16.325Zm0,0" transform="translate(-320.952 -9.527)" fill="#4cb4a4"/>
        <path id="Path_1043782" data-name="Path 1043782" d="M371.812,18.777a5.766,5.766,0,0,1-7.9,7.9,5.766,5.766,0,1,0,7.9-7.9Zm0,0" transform="translate(-328.368 -16.943)" fill="#41998b"/>
        <path id="Path_1043783" data-name="Path 1043783" d="M40.322,22.092H30.994a1.1,1.1,0,0,1-1.1-1.1V11.661a1.1,1.1,0,0,1,1.1-1.1h9.328a1.1,1.1,0,0,1,1.1,1.1V20.99A1.1,1.1,0,0,1,40.322,22.092Zm0,0" transform="translate(-26.971 -9.527)" fill="#ff6e88"/>
        <path id="Path_1043784" data-name="Path 1043784" d="M40.322,10.559h-.946v8.382a1.1,1.1,0,0,1-1.1,1.1H29.891v.946a1.1,1.1,0,0,0,1.1,1.1h9.328a1.1,1.1,0,0,0,1.1-1.1V11.661a1.1,1.1,0,0,0-1.1-1.1Zm0,0" transform="translate(-26.971 -9.527)" fill="#e36278"/>
        <path id="Path_1043785" data-name="Path 1043785" d="M191.852,8.025l-5.206,10.2a.967.967,0,0,0,.861,1.406h10.412a.967.967,0,0,0,.861-1.406l-5.206-10.2a.967.967,0,0,0-1.722,0Zm0,0" transform="translate(-168.318 -6.766)" fill="#ffe675"/>
        <path id="Path_1043786" data-name="Path 1043786" d="M198.779,18.224l-5.206-10.2a.967.967,0,0,0-1.722,0l-.332.649,3.9,7.639a.967.967,0,0,1-.861,1.406H186.9l-.257.5a.967.967,0,0,0,.861,1.406h10.412a.967.967,0,0,0,.861-1.406Zm0,0" transform="translate(-168.318 -6.766)" fill="#dec866"/>
        <path id="Path_1043787" data-name="Path 1043787" d="M26.559,259.323a6.5,6.5,0,1,0,6.5-6.5A6.507,6.507,0,0,0,26.559,259.323Zm6.5-5.034a5.034,5.034,0,1,1-5.034,5.034A5.04,5.04,0,0,1,33.058,254.289Zm0,0" transform="translate(-23.964 -228.129)"/>
        <path id="Path_1043788" data-name="Path 1043788" d="M345.717,263.343h10.411a1.7,1.7,0,0,0,1.514-2.472l-5.205-10.2a1.7,1.7,0,0,0-3.027,0l-5.206,10.2a1.7,1.7,0,0,0,1.514,2.472Zm5-12a.233.233,0,0,1,.417,0c5.359,10.656,5.341,10.193,5.2,10.427a.227.227,0,0,1-.2.112c-10.872-.072-10.468.122-10.611-.112s-.1.1,5.2-10.427Zm0,0" transform="translate(-310.412 -225.351)"/>
        <path id="Path_1043789" data-name="Path 1043789" d="M24.226,16.053h9.328a1.837,1.837,0,0,0,1.835-1.835V4.89a1.837,1.837,0,0,0-1.835-1.835H24.226A1.837,1.837,0,0,0,22.391,4.89v9.328A1.837,1.837,0,0,0,24.226,16.053ZM23.856,4.89a.37.37,0,0,1,.37-.37h9.328a.37.37,0,0,1,.37.37v9.328a.37.37,0,0,1-.37.37H24.226a.37.37,0,0,1-.37-.37Zm0,0" transform="translate(-20.204 -2.756)"/>
        <path id="Path_1043790" data-name="Path 1043790" d="M180.729,13.6h10.412a1.7,1.7,0,0,0,1.514-2.472L187.449.926a1.7,1.7,0,0,0-3.027,0l-5.206,10.2A1.7,1.7,0,0,0,180.729,13.6Zm5-12a.234.234,0,0,1,.417,0c5.359,10.656,5.34,10.192,5.2,10.427s.154.041-10.612.112a.227.227,0,0,1-.2-.112c-.151-.245-.1.116,5.2-10.427Zm0,0" transform="translate(-161.541 0)"/>
        <path id="Path_1043791" data-name="Path 1043791" d="M354.694,17.57a6.5,6.5,0,0,0,1.541-12.813.733.733,0,0,0-.346,1.424,5.034,5.034,0,1,1-2.389,0,.733.733,0,1,0-.346-1.424,6.5,6.5,0,0,0,1.54,12.813Zm0,0" transform="translate(-314.184 -4.273)"/>
        <path id="Path_1043792" data-name="Path 1043792" d="M198.542,264.357H196.82a.733.733,0,1,0,0,1.465h1.722a1.837,1.837,0,0,0,1.835-1.835v-9.328a1.837,1.837,0,0,0-1.835-1.835h-9.328a1.837,1.837,0,0,0-1.835,1.835v9.328a1.837,1.837,0,0,0,1.835,1.835h4.871a.733.733,0,0,0,0-1.465h-4.871a.37.37,0,0,1-.37-.37v-9.328a.37.37,0,0,1,.37-.37h9.328a.37.37,0,0,1,.37.37v9.328A.37.37,0,0,1,198.542,264.357Zm0,0" transform="translate(-169.076 -228.129)"/>
        <path id="Path_1043793" data-name="Path 1043793" d="M46.616,201.863H9.491a.733.733,0,0,0,0,1.465H46.616a1.931,1.931,0,0,1,1.929,1.929v16.166a1.931,1.931,0,0,1-1.929,1.929H3.394a1.931,1.931,0,0,1-1.929-1.929V205.257a1.931,1.931,0,0,1,1.929-1.929H6.756a.733.733,0,0,0,0-1.465H3.394A3.4,3.4,0,0,0,0,205.257v16.166a3.4,3.4,0,0,0,3.394,3.394H46.616a3.4,3.4,0,0,0,3.394-3.394V205.257A3.4,3.4,0,0,0,46.616,201.863Zm0,0" transform="translate(0 -182.146)"/>
      </g>
    </g>
  </g>
</svg>
