<svg xmlns="http://www.w3.org/2000/svg" xmlns:xlink="http://www.w3.org/1999/xlink" width="106.16" height="106.16" viewBox="0 0 106.16 106.16">
  <defs>
    <filter id="Path_982547" x="0" y="0" width="106.16" height="106.16" filterUnits="userSpaceOnUse">
      <feOffset dy="3" input="SourceAlpha"/>
      <feGaussianBlur stdDeviation="3" result="blur"/>
      <feFlood flood-opacity="0.161"/>
      <feComposite operator="in" in2="blur"/>
      <feComposite in="SourceGraphic"/>
    </filter>
  </defs>
  <g id="Group_1203814" data-name="Group 1203814" transform="translate(-825 -5284)">
    <g id="Group_1203593" data-name="Group 1203593">
      <g id="Group_1202429" data-name="Group 1202429" transform="translate(553 3878.997)">
        <g id="Group_1177900" data-name="Group 1177900" transform="translate(281 1411.003)">
          <g id="Group_1172010" data-name="Group 1172010" transform="translate(0)">
            <g id="Group_1171046" data-name="Group 1171046">
              <g id="Group_1148525" data-name="Group 1148525">
                <g transform="matrix(1, 0, 0, 1, -9, -6)" filter="url(#Path_982547)">
                  <g id="Path_982547-2" data-name="Path 982547" transform="translate(9 6)" fill="#fdfbec">
                    <path d="M 44.0802001953125 86.660400390625 C 38.33124923706055 86.660400390625 32.75506210327148 85.53479766845703 27.50652503967285 83.31484985351562 C 22.43628692626953 81.17032623291016 17.88242530822754 78.09992218017578 13.97144985198975 74.18894958496094 C 10.06047534942627 70.27797698974609 6.99007511138916 65.72411346435547 4.845550060272217 60.65387344360352 C 2.625600099563599 55.40533828735352 1.500000238418579 49.82915115356445 1.500000238418579 44.0802001953125 C 1.500000238418579 38.33124923706055 2.625600099563599 32.75506210327148 4.845550060272217 27.50652503967285 C 6.99007511138916 22.43628692626953 10.06047534942627 17.88242530822754 13.97144985198975 13.97144985198975 C 17.88242530822754 10.06047534942627 22.43628692626953 6.99007511138916 27.50652503967285 4.845550060272217 C 32.75506210327148 2.625600099563599 38.33124923706055 1.500000238418579 44.0802001953125 1.500000238418579 C 49.82915115356445 1.500000238418579 55.40533828735352 2.625600099563599 60.65387344360352 4.845550060272217 C 65.72411346435547 6.99007511138916 70.27797698974609 10.06047534942627 74.18894958496094 13.97144985198975 C 78.09992218017578 17.88242530822754 81.17032623291016 22.43628692626953 83.31484985351562 27.50652503967285 C 85.53479766845703 32.75506210327148 86.660400390625 38.33124923706055 86.660400390625 44.0802001953125 C 86.660400390625 49.82915115356445 85.53479766845703 55.40533828735352 83.31484985351562 60.65387344360352 C 81.17032623291016 65.72411346435547 78.09992218017578 70.27797698974609 74.18894958496094 74.18894958496094 C 70.27797698974609 78.09992218017578 65.72411346435547 81.17032623291016 60.65387344360352 83.31484985351562 C 55.40533828735352 85.53479766845703 49.82915115356445 86.660400390625 44.0802001953125 86.660400390625 Z" stroke="none"/>
                    <path d="M 44.0802001953125 3 C 38.53308486938477 3 33.15349960327148 4.085746765136719 28.09085845947266 6.227058410644531 C 23.19941711425781 8.29595947265625 18.80581665039062 11.25841522216797 15.03211212158203 15.03211212158203 C 11.25841522216797 18.80581665039062 8.29595947265625 23.19941711425781 6.227058410644531 28.09085845947266 C 4.085746765136719 33.15349960327148 3 38.53308486938477 3 44.0802001953125 C 3 49.62731552124023 4.085746765136719 55.00691604614258 6.227058410644531 60.06954193115234 C 8.29595947265625 64.96098327636719 11.25841522216797 69.35458374023438 15.03211212158203 73.12828826904297 C 18.80581665039062 76.90198516845703 23.19941711425781 79.86444091796875 28.09085845947266 81.93334197998047 C 33.15349960327148 84.07466125488281 38.53308486938477 85.160400390625 44.0802001953125 85.160400390625 C 49.62731552124023 85.160400390625 55.00691604614258 84.07466125488281 60.06954193115234 81.93334197998047 C 64.96099853515625 79.86444091796875 69.35458374023438 76.90198516845703 73.12828826904297 73.12828826904297 C 76.90198516845703 69.35458374023438 79.86444091796875 64.96099853515625 81.93334197998047 60.06954193115234 C 84.07466125488281 55.00691604614258 85.160400390625 49.62731552124023 85.160400390625 44.0802001953125 C 85.160400390625 38.53308486938477 84.07466125488281 33.15349960327148 81.93334197998047 28.09085845947266 C 79.86444091796875 23.19941711425781 76.90198516845703 18.80581665039062 73.12828826904297 15.03211212158203 C 69.35458374023438 11.25841522216797 64.96098327636719 8.29595947265625 60.06954193115234 6.227058410644531 C 55.00691604614258 4.085746765136719 49.62731552124023 3 44.0802001953125 3 M 44.0802001953125 0 C 68.42502593994141 0 88.160400390625 19.73538970947266 88.160400390625 44.0802001953125 C 88.160400390625 68.42502593994141 68.42502593994141 88.160400390625 44.0802001953125 88.160400390625 C 19.73538970947266 88.160400390625 0 68.42502593994141 0 44.0802001953125 C 0 19.73538970947266 19.73538970947266 0 44.0802001953125 0 Z" stroke="none" fill="#83793c"/>
                  </g>
                </g>
              </g>
            </g>
          </g>
        </g>
      </g>
      <g id="aprendizaje-electronico_3_" data-name="aprendizaje-electronico (3)" transform="translate(849.29 5299.624)">
        <path id="Path_1042501" data-name="Path 1042501" d="M53.449,18.692A2.7,2.7,0,0,0,50.757,16H7.692A2.7,2.7,0,0,0,5,18.692v32.3a.9.9,0,0,0,.9.9H22.732l1.605.8a.9.9,0,0,0,.4.094H33.71a.9.9,0,0,0,.4-.094l1.605-.8H52.552a.9.9,0,0,0,.9-.9Z" transform="translate(-0.514 -1.439)" fill="#c8c6cc"/>
        <path id="Path_1042502" data-name="Path 1042502" d="M50.271,20.9a.9.9,0,0,0-.9-.9H9.9a.9.9,0,0,0-.9.9V47.813a.9.9,0,0,0,.9.9H49.374a.9.9,0,0,0,.9-.9Z" transform="translate(-0.925 -1.85)" fill="#fff"/>
        <path id="Path_1042503" data-name="Path 1042503" d="M50.271,47.813a.9.9,0,0,1-.9.9H9.9a.9.9,0,0,1-.9-.9V20.9a.9.9,0,0,1,.9-.9H49.374a.9.9,0,0,1,.9.9Zm-39.477-.9H48.477V21.794H10.794Z" transform="translate(-0.925 -1.85)" fill="#8b8992"/>
        <path id="Path_1042504" data-name="Path 1042504" d="M57.421,54.9a.9.9,0,0,0-.9-.9H34.991a.9.9,0,0,0-.4.094l-1.605.8H24.436l-1.605-.8a.9.9,0,0,0-.4-.094H.9a.9.9,0,0,0-.9.9v3.589a2.7,2.7,0,0,0,2.692,2.692H54.729a2.7,2.7,0,0,0,2.692-2.692Z" transform="translate(0 -5.345)" fill="#8b8992"/>
        <path id="Path_1042505" data-name="Path 1042505" d="M41.919,12.814a.9.9,0,0,0-.853-.067l-10.4,4.621-10.4-4.621a.9.9,0,0,0-1.261.82v8.972a.9.9,0,0,0,.533.82L30.3,28.141a.9.9,0,0,0,.729,0l10.766-4.782a.9.9,0,0,0,.533-.82V13.567A.9.9,0,0,0,41.919,12.814Z" transform="translate(-1.953 -1.097)" fill="#006ef5"/>
        <path id="Path_1042506" data-name="Path 1042506" d="M49.9,26.15a.9.9,0,0,1-.9-.9V10.9a.9.9,0,1,1,1.794,0V25.252A.9.9,0,0,1,49.9,26.15Z" transform="translate(-5.037 -0.822)" fill="#8b8992"/>
        <path id="Path_1042507" data-name="Path 1042507" d="M46.561,9.255,30.411,2.077a.9.9,0,0,0-.729,0L13.533,9.255a.9.9,0,0,0,0,1.64l16.151,7.178a.9.9,0,0,0,.729,0l16.151-7.178a.9.9,0,0,0,0-1.64Z" transform="translate(-1.336 0)" fill="#00a6ff"/>
        <path id="Path_1042508" data-name="Path 1042508" d="M49.486,26H46.794A1.8,1.8,0,0,0,45,27.794v1.794a1.8,1.8,0,0,0,1.794,1.794h1.794a1.8,1.8,0,0,0,1.794-1.794V26.9A.9.9,0,0,0,49.486,26Z" transform="translate(-4.626 -2.467)" fill="#ffa91f"/>
        <path id="Path_1042509" data-name="Path 1042509" d="M41.075,33.794H33.9A.9.9,0,0,1,33.9,32h7.178a.9.9,0,0,1,0,1.794Z" transform="translate(-3.392 -3.084)" fill="#8b8992"/>
        <path id="Path_1042510" data-name="Path 1042510" d="M39.841,37.794H21.9A.9.9,0,1,1,21.9,36H39.841a.9.9,0,0,1,0,1.794Z" transform="translate(-2.159 -3.495)" fill="#8b8992"/>
        <path id="Path_1042511" data-name="Path 1042511" d="M39.841,41.794H21.9A.9.9,0,0,1,21.9,40H39.841a.9.9,0,0,1,0,1.794Z" transform="translate(-2.159 -3.906)" fill="#8b8992"/>
        <path id="Path_1042512" data-name="Path 1042512" d="M29.075,45.794H21.9A.9.9,0,1,1,21.9,44h7.178a.9.9,0,1,1,0,1.794Z" transform="translate(-2.159 -4.318)" fill="#8b8992"/>
        <circle id="Ellipse_12590" data-name="Ellipse 12590" cx="0.963" cy="0.963" r="0.963" transform="translate(22.752 28.965)" fill="#8b8992"/>
        <circle id="Ellipse_12591" data-name="Ellipse 12591" cx="0.963" cy="0.963" r="0.963" transform="translate(29.493 39.558)" fill="#8b8992"/>
        <circle id="Ellipse_12592" data-name="Ellipse 12592" cx="0.963" cy="0.963" r="0.963" transform="translate(25.641 28.965)" fill="#8b8992"/>
        <g id="Group_1203592" data-name="Group 1203592" transform="translate(0 2)">
          <path id="Path_1042513" data-name="Path 1042513" d="M56.524,48.655H52.935v-31.4a2.7,2.7,0,0,0-2.692-2.692H45.757V10.075a.893.893,0,0,0-.063-.312.882.882,0,0,0-.039-.083.863.863,0,0,0-.129-.191c-.019-.022-.035-.044-.056-.064a.875.875,0,0,0-.247-.17L29.075,2.077a.9.9,0,0,0-.729,0L12.2,9.255a.9.9,0,0,0,0,1.64l4.85,2.156v1.51H7.178a2.7,2.7,0,0,0-2.692,2.692v31.4H.9a.9.9,0,0,0-.9.9v3.589a2.7,2.7,0,0,0,2.692,2.692H54.729a2.7,2.7,0,0,0,2.692-2.692V49.552A.9.9,0,0,0,56.524,48.655ZM43.963,23.533H42.169a1.8,1.8,0,0,0-1.794,1.794v1.794a1.8,1.8,0,0,0,1.794,1.794h1.794a1.8,1.8,0,0,0,1.794-1.794V19.944h1.794V45.066H9.869V19.944h7.178v1.5a.9.9,0,0,0,.533.82l10.766,4.785a.9.9,0,0,0,.729,0L39.841,22.26a.9.9,0,0,0,.533-.82v-1.5h3.589Zm0,1.794v1.794H42.169V25.327ZM40.374,18.15V16.355h3.589V18.15Zm0-3.589v-1.51l3.589-1.6v3.105ZM28.71,3.88l13.941,6.2-13.941,6.2-13.941-6.2Zm-.364,14.193a.9.9,0,0,0,.729,0l9.5-4.224v7.009l-8.972,3.986V22.636a.9.9,0,0,0-1.794,0v2.208l-8.972-3.986V13.848ZM6.28,17.252a.9.9,0,0,1,.9-.9h9.869V18.15H8.972a.9.9,0,0,0-.9.9V45.963a.9.9,0,0,0,.9.9H48.449a.9.9,0,0,0,.9-.9V19.047a.9.9,0,0,0-.9-.9H45.757V16.355h4.486a.9.9,0,0,1,.9.9v31.4H34.991a.9.9,0,0,0-.4.094l-1.605.8H24.436l-1.605-.8a.9.9,0,0,0-.4-.094H6.28ZM55.627,53.141a.9.9,0,0,1-.9.9H2.692a.9.9,0,0,1-.9-.9V50.449H22.218l1.605.8a.9.9,0,0,0,.4.094H33.2a.9.9,0,0,0,.4-.094l1.605-.8H55.627Z" transform="translate(0 -2)" fill="#002d6b"/>
          <path id="Path_1042514" data-name="Path 1042514" d="M41.075,32H33.9a.9.9,0,0,0,0,1.794h7.178a.9.9,0,0,0,0-1.794Z" transform="translate(-3.392 -5.084)" fill="#002d6b"/>
          <path id="Path_1042515" data-name="Path 1042515" d="M39.841,36H21.9a.9.9,0,1,0,0,1.794H39.841a.9.9,0,0,0,0-1.794Z" transform="translate(-2.159 -5.495)" fill="#002d6b"/>
          <path id="Path_1042516" data-name="Path 1042516" d="M39.841,40H21.9a.9.9,0,0,0,0,1.794H39.841a.9.9,0,0,0,0-1.794Z" transform="translate(-2.159 -5.906)" fill="#002d6b"/>
          <path id="Path_1042517" data-name="Path 1042517" d="M29.075,44H21.9a.9.9,0,1,0,0,1.794h7.178a.9.9,0,1,0,0-1.794Z" transform="translate(-2.159 -6.317)" fill="#002d6b"/>
          <circle id="Ellipse_12593" data-name="Ellipse 12593" cx="0.963" cy="0.963" r="0.963" transform="translate(22.752 26.965)" fill="#002d6b"/>
          <circle id="Ellipse_12594" data-name="Ellipse 12594" cx="0.963" cy="0.963" r="0.963" transform="translate(29.493 37.559)" fill="#002d6b"/>
          <circle id="Ellipse_12595" data-name="Ellipse 12595" cx="0.963" cy="0.963" r="0.963" transform="translate(25.641 26.965)" fill="#002d6b"/>
        </g>
      </g>
    </g>
  </g>
</svg>
