<svg xmlns="http://www.w3.org/2000/svg" xmlns:xlink="http://www.w3.org/1999/xlink" width="106.16" height="106.16" viewBox="0 0 106.16 106.16">
  <defs>
    <filter id="Path_982547" x="0" y="0" width="106.16" height="106.16" filterUnits="userSpaceOnUse">
      <feOffset dy="3" input="SourceAlpha"/>
      <feGaussianBlur stdDeviation="3" result="blur"/>
      <feFlood flood-opacity="0.161"/>
      <feComposite operator="in" in2="blur"/>
      <feComposite in="SourceGraphic"/>
    </filter>
  </defs>
  <g id="Group_1203813" data-name="Group 1203813" transform="translate(-195 -5284)">
    <g id="Group_1203591" data-name="Group 1203591">
      <g id="Group_1202428" data-name="Group 1202428" transform="translate(-77 3878.997)">
        <g id="Group_1177900" data-name="Group 1177900" transform="translate(281 1411.003)">
          <g id="Group_1172010" data-name="Group 1172010" transform="translate(0)">
            <g id="Group_1171046" data-name="Group 1171046">
              <g id="Group_1148525" data-name="Group 1148525">
                <g transform="matrix(1, 0, 0, 1, -9, -6)" filter="url(#Path_982547)">
                  <g id="Path_982547-2" data-name="Path 982547" transform="translate(9 6)" fill="#fdfbec">
                    <path d="M 44.0802001953125 86.660400390625 C 38.33124923706055 86.660400390625 32.75506210327148 85.53479766845703 27.50652503967285 83.31484985351562 C 22.43628692626953 81.17032623291016 17.88242530822754 78.09992218017578 13.97144985198975 74.18894958496094 C 10.06047534942627 70.27797698974609 6.99007511138916 65.72411346435547 4.845550060272217 60.65387344360352 C 2.625600099563599 55.40533828735352 1.500000238418579 49.82915115356445 1.500000238418579 44.0802001953125 C 1.500000238418579 38.33124923706055 2.625600099563599 32.75506210327148 4.845550060272217 27.50652503967285 C 6.99007511138916 22.43628692626953 10.06047534942627 17.88242530822754 13.97144985198975 13.97144985198975 C 17.88242530822754 10.06047534942627 22.43628692626953 6.99007511138916 27.50652503967285 4.845550060272217 C 32.75506210327148 2.625600099563599 38.33124923706055 1.500000238418579 44.0802001953125 1.500000238418579 C 49.82915115356445 1.500000238418579 55.40533828735352 2.625600099563599 60.65387344360352 4.845550060272217 C 65.72411346435547 6.99007511138916 70.27797698974609 10.06047534942627 74.18894958496094 13.97144985198975 C 78.09992218017578 17.88242530822754 81.17032623291016 22.43628692626953 83.31484985351562 27.50652503967285 C 85.53479766845703 32.75506210327148 86.660400390625 38.33124923706055 86.660400390625 44.0802001953125 C 86.660400390625 49.82915115356445 85.53479766845703 55.40533828735352 83.31484985351562 60.65387344360352 C 81.17032623291016 65.72411346435547 78.09992218017578 70.27797698974609 74.18894958496094 74.18894958496094 C 70.27797698974609 78.09992218017578 65.72411346435547 81.17032623291016 60.65387344360352 83.31484985351562 C 55.40533828735352 85.53479766845703 49.82915115356445 86.660400390625 44.0802001953125 86.660400390625 Z" stroke="none"/>
                    <path d="M 44.0802001953125 3 C 38.53308486938477 3 33.15349960327148 4.085746765136719 28.09085845947266 6.227058410644531 C 23.19941711425781 8.29595947265625 18.80581665039062 11.25841522216797 15.03211212158203 15.03211212158203 C 11.25841522216797 18.80581665039062 8.29595947265625 23.19941711425781 6.227058410644531 28.09085845947266 C 4.085746765136719 33.15349960327148 3 38.53308486938477 3 44.0802001953125 C 3 49.62731552124023 4.085746765136719 55.00691604614258 6.227058410644531 60.06954193115234 C 8.29595947265625 64.96098327636719 11.25841522216797 69.35458374023438 15.03211212158203 73.12828826904297 C 18.80581665039062 76.90198516845703 23.19941711425781 79.86444091796875 28.09085845947266 81.93334197998047 C 33.15349960327148 84.07466125488281 38.53308486938477 85.160400390625 44.0802001953125 85.160400390625 C 49.62731552124023 85.160400390625 55.00691604614258 84.07466125488281 60.06954193115234 81.93334197998047 C 64.96099853515625 79.86444091796875 69.35458374023438 76.90198516845703 73.12828826904297 73.12828826904297 C 76.90198516845703 69.35458374023438 79.86444091796875 64.96099853515625 81.93334197998047 60.06954193115234 C 84.07466125488281 55.00691604614258 85.160400390625 49.62731552124023 85.160400390625 44.0802001953125 C 85.160400390625 38.53308486938477 84.07466125488281 33.15349960327148 81.93334197998047 28.09085845947266 C 79.86444091796875 23.19941711425781 76.90198516845703 18.80581665039062 73.12828826904297 15.03211212158203 C 69.35458374023438 11.25841522216797 64.96098327636719 8.29595947265625 60.06954193115234 6.227058410644531 C 55.00691604614258 4.085746765136719 49.62731552124023 3 44.0802001953125 3 M 44.0802001953125 0 C 68.42502593994141 0 88.160400390625 19.73538970947266 88.160400390625 44.0802001953125 C 88.160400390625 68.42502593994141 68.42502593994141 88.160400390625 44.0802001953125 88.160400390625 C 19.73538970947266 88.160400390625 0 68.42502593994141 0 44.0802001953125 C 0 19.73538970947266 19.73538970947266 0 44.0802001953125 0 Z" stroke="none" fill="#83793c"/>
                  </g>
                </g>
              </g>
            </g>
          </g>
        </g>
      </g>
      <g id="computadora_1_" data-name="computadora (1)" transform="translate(221 5307)">
        <path id="Path_1042477" data-name="Path 1042477" d="M58.544,145.93H9.153A1.653,1.653,0,0,1,7.5,144.277V113.653A1.653,1.653,0,0,1,9.153,112H58.544a1.653,1.653,0,0,1,1.653,1.653v30.623A1.653,1.653,0,0,1,58.544,145.93Zm0,0" transform="translate(-6.705 -100.125)" fill="#5793c9"/>
        <path id="Path_1042478" data-name="Path 1042478" d="M462.091,112H458.91a1.653,1.653,0,0,1,1.653,1.653v30.623a1.653,1.653,0,0,1-1.653,1.653h3.181a1.653,1.653,0,0,0,1.653-1.653V113.653A1.653,1.653,0,0,0,462.091,112Zm0,0" transform="translate(-410.252 -100.125)" fill="#4c87bd"/>
        <path id="Path_1042479" data-name="Path 1042479" d="M83.835,142v27.568H37.5V142Zm0,0" transform="translate(-33.524 -126.944)" fill="#b5fcff"/>
        <path id="Path_1042480" data-name="Path 1042480" d="M444.5,142h3.181v27.568H444.5Zm0,0" transform="translate(-397.37 -126.944)" fill="#8cf2ff"/>
        <path id="Path_1042481" data-name="Path 1042481" d="M140.946,477.681H113.59a1.59,1.59,0,1,1,0-3.181h27.356a1.59,1.59,0,1,1,0,3.181Zm0,0" transform="translate(-100.125 -424.189)" fill="#5793c9"/>
        <path id="Path_1042482" data-name="Path 1042482" d="M358.069,474.5h-3.194a1.59,1.59,0,1,1,0,3.181h3.194a1.59,1.59,0,1,0,0-3.181Zm0,0" transform="translate(-317.248 -424.189)" fill="#4c87bd"/>
        <path id="Path_1042483" data-name="Path 1042483" d="M211,432h9.543v4.506H211Zm0,0" transform="translate(-188.628 -386.195)" fill="#b5fcff"/>
        <path id="Path_1042484" data-name="Path 1042484" d="M211,432h9.543v4.506H211Zm0,0" transform="translate(-188.628 -386.195)" fill="#dcdfe8"/>
        <path id="Path_1042485" data-name="Path 1042485" d="M271,432h3.181v4.506H271Zm0,0" transform="translate(-242.266 -386.195)" fill="#cbcdd9"/>
        <path id="Path_1042486" data-name="Path 1042486" d="M177.933,192.861a.02.02,0,0,0,.012-.017c0-.1.116-.67.234-1.221a1.419,1.419,0,0,1,2.774,0c.118.551.234,1.119.234,1.221a.018.018,0,0,0,.012.017l1.955.81a.019.019,0,0,0,.021,0c.072-.072.555-.392,1.028-.7a1.419,1.419,0,0,1,1.962,1.962c-.307.473-.626.956-.7,1.029a.018.018,0,0,0,0,.02l.81,1.955a.019.019,0,0,0,.017.012c.1,0,.67.116,1.221.234a1.419,1.419,0,0,1,0,2.774c-.551.118-1.119.234-1.221.234a.019.019,0,0,0-.017.012l-.809,1.954a.018.018,0,0,0,0,.021c.072.072.392.555.7,1.028a1.419,1.419,0,0,1-1.962,1.962c-.473-.306-.957-.626-1.029-.7a.02.02,0,0,0-.021,0l-1.954.809a.02.02,0,0,0-.012.017c0,.1-.116.67-.234,1.221a1.419,1.419,0,0,1-2.774,0c-.118-.551-.234-1.119-.234-1.221a.02.02,0,0,0-.012-.017l-1.954-.809a.019.019,0,0,0-.021,0c-.072.072-.555.392-1.029.7a1.419,1.419,0,0,1-1.962-1.962c.306-.473.626-.956.7-1.028a.02.02,0,0,0,0-.021l-.809-1.954a.02.02,0,0,0-.017-.012c-.1,0-.67-.116-1.221-.234a1.419,1.419,0,0,1,0-2.774c.551-.118,1.119-.234,1.221-.234a.02.02,0,0,0,.017-.012l.809-1.954a.019.019,0,0,0,0-.021c-.072-.072-.392-.555-.7-1.029a1.419,1.419,0,0,1,1.962-1.962c.473.306.956.626,1.028.7a.02.02,0,0,0,.021,0Zm0,0" transform="translate(-152.422 -170.302)" fill="#ff4b26"/>
        <path id="Path_1042487" data-name="Path 1042487" d="M234.033,251.077a2.956,2.956,0,1,1-2.956-2.956A2.956,2.956,0,0,1,234.033,251.077Zm0,0" transform="translate(-203.934 -221.813)" fill="#5793c9"/>
        <path id="Path_1042488" data-name="Path 1042488" d="M78.389,37.662H62.909A1.909,1.909,0,0,1,61,35.754V24.409A1.909,1.909,0,0,1,62.909,22.5h15.48A1.908,1.908,0,0,1,80.3,24.409V35.754A1.909,1.909,0,0,1,78.389,37.662Zm0,0" transform="translate(-54.532 -20.114)" fill="#47d5e6"/>
        <path id="Path_1042489" data-name="Path 1042489" d="M198.181,22.5H195a1.909,1.909,0,0,1,1.909,1.909V35.754A1.909,1.909,0,0,1,195,37.662h3.181a1.909,1.909,0,0,0,1.909-1.909V24.409A1.909,1.909,0,0,0,198.181,22.5Zm0,0" transform="translate(-174.324 -20.114)" fill="#22c0d4"/>
        <path id="Path_1042490" data-name="Path 1042490" d="M318.36,22.768H306.909A1.908,1.908,0,0,1,305,20.86V9.409A1.908,1.908,0,0,1,306.909,7.5H318.36a1.909,1.909,0,0,1,1.909,1.909V20.86A1.909,1.909,0,0,1,318.36,22.768Zm0,0" transform="translate(-272.661 -6.705)" fill="#47d5e6"/>
        <path id="Path_1042491" data-name="Path 1042491" d="M404.181,7.5H401a1.909,1.909,0,0,1,1.909,1.909V20.86A1.909,1.909,0,0,1,401,22.768h3.181a1.909,1.909,0,0,0,1.909-1.909V9.409A1.909,1.909,0,0,0,404.181,7.5Zm0,0" transform="translate(-358.482 -6.705)" fill="#22c0d4"/>
        <path id="Path_1042492" data-name="Path 1042492" d="M338.6,35.381a5.3,5.3,0,1,0-10.6,0,5.4,5.4,0,0,0,2.25,4.4,2.312,2.312,0,0,1,.951,1.884h4.2a2.312,2.312,0,0,1,.95-1.884,5.4,5.4,0,0,0,2.25-4.4Zm0,0" transform="translate(-293.222 -26.819)" fill="#ffd659"/>
        <path id="Path_1042493" data-name="Path 1042493" d="M364.59,30a5.22,5.22,0,0,0-1.59.247,5.416,5.416,0,0,1,1.461,9.535,2.312,2.312,0,0,0-.951,1.884h3.181a2.312,2.312,0,0,1,.951-1.884,5.4,5.4,0,0,0,2.25-4.4A5.342,5.342,0,0,0,364.59,30Zm0,0" transform="translate(-324.511 -26.819)" fill="#ffbd54"/>
        <path id="Path_1042494" data-name="Path 1042494" d="M358.788,140.023h-4.332a.37.37,0,0,0-.369.369v.624a2.185,2.185,0,0,0,2.185,2.185h.7a2.185,2.185,0,0,0,2.185-2.185v-.624A.37.37,0,0,0,358.788,140.023Zm0,0" transform="translate(-316.543 -125.176)" fill="#5793c9"/>
        <path id="Path_1042495" data-name="Path 1042495" d="M51.839,11.08H48.4V2.7A2.707,2.707,0,0,0,45.7,0H34.248a2.707,2.707,0,0,0-2.7,2.7V11.08H26.56V4.294a2.707,2.707,0,0,0-2.7-2.7H8.376a2.707,2.707,0,0,0-2.7,2.7V11.08H2.448A2.451,2.451,0,0,0,0,13.528v3.41a.8.8,0,1,0,1.59,0v-3.41a.859.859,0,0,1,.858-.858H5.672v1.59h-1.7a.8.8,0,0,0-.8.8V42.624a.8.8,0,0,0,.8.8H44.108a.8.8,0,1,0,0-1.59H4.771V15.851h.91a2.707,2.707,0,0,0,2.695,2.492h6.418V34.959a.8.8,0,0,0,.8.8h2.488a.8.8,0,0,0,0-1.59H16.385V18.343h7.472a2.707,2.707,0,0,0,2.695-2.492h5.593a2.7,2.7,0,0,0,2.1,1.007h2.681a2.989,2.989,0,0,0,2.356,1.928v5.688h-2.6a.8.8,0,0,0,0,1.59h3.393a.8.8,0,0,0,.8-.8V18.787a2.989,2.989,0,0,0,2.356-1.928H45.7a2.7,2.7,0,0,0,2.1-1.007h1.714V41.829H47.528a.8.8,0,0,0,0,1.59h2.783a.8.8,0,0,0,.8-.8V15.056a.8.8,0,0,0-.8-.8H48.4c0-.035,0-.07,0-.106V12.671h3.436a.859.859,0,0,1,.858.858V44.152a.859.859,0,0,1-.858.858H2.448a.859.859,0,0,1-.858-.858V20.331a.8.8,0,0,0-1.59,0V44.152A2.451,2.451,0,0,0,2.448,46.6H21.577v2.916H13.466a2.386,2.386,0,0,0,0,4.771H40.821a2.386,2.386,0,0,0,0-4.771H32.71V46.6H51.839a2.451,2.451,0,0,0,2.448-2.448V13.528a2.451,2.451,0,0,0-2.448-2.448ZM24.97,15.639a1.115,1.115,0,0,1-1.113,1.113H8.376a1.115,1.115,0,0,1-1.113-1.113V4.294A1.115,1.115,0,0,1,8.376,3.181h15.48A1.115,1.115,0,0,1,24.97,4.294Zm1.59-1.378v-1.59h4.983v1.484c0,.036,0,.071,0,.106ZM40.43,17.23h-.7a1.392,1.392,0,0,1-1.382-1.241v-.013a1.336,1.336,0,0,1-.007-.135v-.2H41.82v.2a1.335,1.335,0,0,1-.007.135v.013A1.392,1.392,0,0,1,40.43,17.23ZM45.7,15.268H43.41v-.052a1.161,1.161,0,0,0-.36-.84,1.476,1.476,0,0,1,.544-.766,6.234,6.234,0,0,0,1.681-8.281.8.8,0,1,0-1.359.825,4.643,4.643,0,0,1-1.248,6.162,3.08,3.08,0,0,0-1.181,1.735H38.672a3.079,3.079,0,0,0-1.182-1.735,4.62,4.62,0,0,1-1.917-3.754,4.552,4.552,0,0,1,4.506-4.586,4.416,4.416,0,0,1,1.674.326.8.8,0,0,0,.6-1.473,6,6,0,0,0-2.274-.444,6.144,6.144,0,0,0-6.1,6.177,6.215,6.215,0,0,0,2.582,5.047,1.475,1.475,0,0,1,.544.767,1.16,1.16,0,0,0-.36.84v.052h-2.5a1.115,1.115,0,0,1-1.113-1.113V2.7A1.115,1.115,0,0,1,34.248,1.59H45.7A1.115,1.115,0,0,1,46.812,2.7V14.155A1.115,1.115,0,0,1,45.7,15.268ZM41.617,51.9a.8.8,0,0,1-.8.8H13.466a.8.8,0,1,1,0-1.59H40.821A.8.8,0,0,1,41.617,51.9Zm-10.5-2.386H23.167V46.6H31.12Zm0,0"/>
        <path id="Path_1042496" data-name="Path 1042496" d="M180.971,195.025a2.214,2.214,0,0,0,0-4.329c-.376-.081-.643-.135-.836-.172l-.478-1.154c.11-.163.261-.391.469-.713a2.214,2.214,0,0,0-3.061-3.061c-.323.209-.55.359-.713.469l-1.154-.478c-.037-.193-.092-.46-.172-.836a2.214,2.214,0,0,0-4.33,0c-.08.376-.135.643-.172.836l-1.154.478c-.163-.11-.39-.261-.713-.469a2.214,2.214,0,0,0-3.061,3.061c.209.323.359.55.469.713l-.478,1.154c-.193.037-.461.092-.836.172a2.214,2.214,0,0,0,0,4.329c.376.081.643.135.836.173l.478,1.154c-.11.163-.261.391-.469.713a2.214,2.214,0,0,0,3.061,3.061c.323-.209.55-.359.713-.469l1.154.478c.037.193.092.46.172.836a2.214,2.214,0,0,0,4.33,0c.08-.376.135-.643.172-.836l1.154-.478c.163.11.39.261.713.469a2.214,2.214,0,0,0,3.061-3.061c-.209-.323-.359-.55-.469-.713l.478-1.154C180.328,195.161,180.595,195.106,180.971,195.025Zm-14.828-1.339h0Zm13.412,0h0Zm-.01,0a.813.813,0,0,0-.714.5l-.81,1.956a.814.814,0,0,0,.148.856c.027.034.152.2.622.929a.623.623,0,0,1-.862.862c-.707-.458-.886-.589-.926-.62a.812.812,0,0,0-.86-.15l-1.951.808a.808.808,0,0,0-.506.717c-.007.054-.043.278-.217,1.091a.624.624,0,0,1-1.219,0c-.176-.823-.21-1.042-.217-1.093a.808.808,0,0,0-.5-.714l-1.957-.811a.811.811,0,0,0-.859.153c-.044.034-.229.168-.924.618a.623.623,0,0,1-.862-.862c.458-.708.589-.886.62-.926a.813.813,0,0,0,.15-.86l-.811-1.957a.812.812,0,0,0-.712-.5c-.048-.006-.265-.04-1.094-.217a.623.623,0,0,1,0-1.219c.824-.176,1.043-.211,1.093-.217a.813.813,0,0,0,.714-.5l.81-1.956a.814.814,0,0,0-.148-.856c-.027-.034-.152-.2-.622-.929a.623.623,0,0,1,.862-.862c.707.458.886.589.926.62a.812.812,0,0,0,.86.15l1.954-.81a.808.808,0,0,0,.5-.716c.007-.054.043-.278.217-1.091a.623.623,0,0,1,1.219,0c.176.824.21,1.043.217,1.093a.814.814,0,0,0,.5.714l1.958.811a.81.81,0,0,0,.859-.153c.044-.034.229-.168.924-.618a.624.624,0,0,1,.862.862c-.458.708-.589.886-.62.927a.812.812,0,0,0-.15.859l.809,1.953a.81.81,0,0,0,.714.5c.048.007.265.04,1.094.217a.623.623,0,0,1,0,1.219c-.824.176-1.043.211-1.093.217Zm0,0" transform="translate(-145.717 -163.596)"/>
        <path id="Path_1042497" data-name="Path 1042497" d="M224.372,240.617a3.752,3.752,0,1,0,3.751,3.752A3.756,3.756,0,0,0,224.372,240.617Zm0,5.913a2.161,2.161,0,1,1,2.161-2.161A2.163,2.163,0,0,1,224.372,246.53Zm0,0" transform="translate(-197.229 -215.104)"/>
        <path id="Path_1042498" data-name="Path 1042498" d="M85.3,55.786h6.213a.8.8,0,0,0,0-1.59H85.3a.8.8,0,0,0,0,1.59Zm0,0" transform="translate(-75.541 -48.449)"/>
        <path id="Path_1042499" data-name="Path 1042499" d="M85.3,85.782H98.019a.8.8,0,0,0,0-1.59H85.3a.8.8,0,0,0,0,1.59Zm0,0" transform="translate(-75.541 -75.265)"/>
        <path id="Path_1042500" data-name="Path 1042500" d="M98.022,114.191H85.3a.8.8,0,0,0,0,1.59H98.022a.8.8,0,1,0,0-1.59Zm0,0" transform="translate(-75.544 -102.083)"/>
      </g>
    </g>
  </g>
</svg>
