<svg xmlns="http://www.w3.org/2000/svg" xmlns:xlink="http://www.w3.org/1999/xlink" width="106.16" height="106.16" viewBox="0 0 106.16 106.16">
  <defs>
    <filter id="Path_982547" x="0" y="0" width="106.16" height="106.16" filterUnits="userSpaceOnUse">
      <feOffset dy="3" input="SourceAlpha"/>
      <feGaussianBlur stdDeviation="3" result="blur"/>
      <feFlood flood-opacity="0.161"/>
      <feComposite operator="in" in2="blur"/>
      <feComposite in="SourceGraphic"/>
    </filter>
  </defs>
  <g id="Group_1203840" data-name="Group 1203840" transform="translate(-610.92 -6505.348)">
    <g id="Group_1203663" data-name="Group 1203663" transform="translate(0 -74.53)">
      <g id="Group_1203345" data-name="Group 1203345" transform="translate(338.92 5174.875)">
        <g id="Group_1177900" data-name="Group 1177900" transform="translate(281 1411.003)">
          <g id="Group_1172010" data-name="Group 1172010" transform="translate(0)">
            <g id="Group_1171046" data-name="Group 1171046">
              <g id="Group_1148525" data-name="Group 1148525">
                <g transform="matrix(1, 0, 0, 1, -9, -6)" filter="url(#Path_982547)">
                  <g id="Path_982547-2" data-name="Path 982547" transform="translate(9 6)" fill="#fdfbec">
                    <path d="M 44.0802001953125 86.660400390625 C 38.33124923706055 86.660400390625 32.75506210327148 85.53479766845703 27.50652503967285 83.31484985351562 C 22.43628692626953 81.17032623291016 17.88242530822754 78.09992218017578 13.97144985198975 74.18894958496094 C 10.06047534942627 70.27797698974609 6.99007511138916 65.72411346435547 4.845550060272217 60.65387344360352 C 2.625600099563599 55.40533828735352 1.500000238418579 49.82915115356445 1.500000238418579 44.0802001953125 C 1.500000238418579 38.33124923706055 2.625600099563599 32.75506210327148 4.845550060272217 27.50652503967285 C 6.99007511138916 22.43628692626953 10.06047534942627 17.88242530822754 13.97144985198975 13.97144985198975 C 17.88242530822754 10.06047534942627 22.43628692626953 6.99007511138916 27.50652503967285 4.845550060272217 C 32.75506210327148 2.625600099563599 38.33124923706055 1.500000238418579 44.0802001953125 1.500000238418579 C 49.82915115356445 1.500000238418579 55.40533828735352 2.625600099563599 60.65387344360352 4.845550060272217 C 65.72411346435547 6.99007511138916 70.27797698974609 10.06047534942627 74.18894958496094 13.97144985198975 C 78.09992218017578 17.88242530822754 81.17032623291016 22.43628692626953 83.31484985351562 27.50652503967285 C 85.53479766845703 32.75506210327148 86.660400390625 38.33124923706055 86.660400390625 44.0802001953125 C 86.660400390625 49.82915115356445 85.53479766845703 55.40533828735352 83.31484985351562 60.65387344360352 C 81.17032623291016 65.72411346435547 78.09992218017578 70.27797698974609 74.18894958496094 74.18894958496094 C 70.27797698974609 78.09992218017578 65.72411346435547 81.17032623291016 60.65387344360352 83.31484985351562 C 55.40533828735352 85.53479766845703 49.82915115356445 86.660400390625 44.0802001953125 86.660400390625 Z" stroke="none"/>
                    <path d="M 44.0802001953125 3 C 38.53308486938477 3 33.15349960327148 4.085746765136719 28.09085845947266 6.227058410644531 C 23.19941711425781 8.29595947265625 18.80581665039062 11.25841522216797 15.03211212158203 15.03211212158203 C 11.25841522216797 18.80581665039062 8.29595947265625 23.19941711425781 6.227058410644531 28.09085845947266 C 4.085746765136719 33.15349960327148 3 38.53308486938477 3 44.0802001953125 C 3 49.62731552124023 4.085746765136719 55.00691604614258 6.227058410644531 60.06954193115234 C 8.29595947265625 64.96098327636719 11.25841522216797 69.35458374023438 15.03211212158203 73.12828826904297 C 18.80581665039062 76.90198516845703 23.19941711425781 79.86444091796875 28.09085845947266 81.93334197998047 C 33.15349960327148 84.07466125488281 38.53308486938477 85.160400390625 44.0802001953125 85.160400390625 C 49.62731552124023 85.160400390625 55.00691604614258 84.07466125488281 60.06954193115234 81.93334197998047 C 64.96099853515625 79.86444091796875 69.35458374023438 76.90198516845703 73.12828826904297 73.12828826904297 C 76.90198516845703 69.35458374023438 79.86444091796875 64.96099853515625 81.93334197998047 60.06954193115234 C 84.07466125488281 55.00691604614258 85.160400390625 49.62731552124023 85.160400390625 44.0802001953125 C 85.160400390625 38.53308486938477 84.07466125488281 33.15349960327148 81.93334197998047 28.09085845947266 C 79.86444091796875 23.19941711425781 76.90198516845703 18.80581665039062 73.12828826904297 15.03211212158203 C 69.35458374023438 11.25841522216797 64.96098327636719 8.29595947265625 60.06954193115234 6.227058410644531 C 55.00691604614258 4.085746765136719 49.62731552124023 3 44.0802001953125 3 M 44.0802001953125 0 C 68.42502593994141 0 88.160400390625 19.73538970947266 88.160400390625 44.0802001953125 C 88.160400390625 68.42502593994141 68.42502593994141 88.160400390625 44.0802001953125 88.160400390625 C 19.73538970947266 88.160400390625 0 68.42502593994141 0 44.0802001953125 C 0 19.73538970947266 19.73538970947266 0 44.0802001953125 0 Z" stroke="none" fill="#83793c"/>
                  </g>
                </g>
              </g>
            </g>
          </g>
        </g>
      </g>
      <g id="diversidad" transform="translate(660.293 6626.198)">
        <circle id="Ellipse_12631" data-name="Ellipse 12631" cx="3.938" cy="3.938" r="3.938" transform="matrix(0.16, -0.987, 0.987, 0.16, 4.89, -11.222)" fill="#f5c956"/>
        <path id="Path_1043656" data-name="Path 1043656" d="M98.708,105.153a17.46,17.46,0,0,0-5.117,11.667,3.117,3.117,0,0,0,6.229.247,46.4,46.4,0,0,1,4.105-6.7c1.981-1.981,6.446-2.972,9.043-2.972l-1.867-2.089a4.5,4.5,0,0,0-6.045-4.217A17.46,17.46,0,0,0,98.708,105.153Z" transform="translate(-107.388 -113.785)" fill="#ff6e80"/>
        <ellipse id="Ellipse_12632" data-name="Ellipse 12632" cx="10.427" cy="8.547" rx="10.427" ry="8.547" transform="translate(-26.771 -11.976) rotate(-45)" fill="#fdd1a3"/>
        <path id="Path_1043657" data-name="Path 1043657" d="M247.819,98.707a17.46,17.46,0,0,0-11.667-5.117,3.117,3.117,0,0,0-.247,6.229,46.4,46.4,0,0,1,6.7,4.105c1.981,1.981,2.972,6.446,2.972,9.043l2.089-1.867a4.5,4.5,0,0,0,4.217-6.045A17.46,17.46,0,0,0,247.819,98.707Z" transform="translate(-231.715 -107.339)" fill="#ffb25a"/>
        <ellipse id="Ellipse_12633" data-name="Ellipse 12633" cx="8.547" cy="10.427" rx="8.547" ry="10.427" transform="translate(7.358 -14.631) rotate(-45)" fill="#ffd3bc"/>
        <path id="Path_1043658" data-name="Path 1043658" d="M232.985,97.247a3.108,3.108,0,0,0,2.921,2.572,21.584,21.584,0,0,1,2.327,1.219,9.2,9.2,0,0,0,1.645-6.89,17.585,17.585,0,0,0-3.726-.558A3.11,3.11,0,0,0,232.985,97.247Z" transform="translate(-231.715 -107.339)" fill="#ffd3bc"/>
        <path id="Path_1043659" data-name="Path 1043659" d="M105.154,252.979a17.46,17.46,0,0,0,11.667,5.117,3.117,3.117,0,0,0,.247-6.229,46.4,46.4,0,0,1-6.7-4.105c-1.981-1.981-2.972-6.446-2.972-9.043l-2.089,1.867a4.5,4.5,0,0,0-4.217,6.045A17.461,17.461,0,0,0,105.154,252.979Z" transform="translate(-113.834 -236.826)" fill="#f7e969"/>
        <ellipse id="Ellipse_12634" data-name="Ellipse 12634" cx="8.547" cy="10.427" rx="8.547" ry="10.427" transform="translate(-26.774 19.493) rotate(-45)" fill="#da9d81"/>
        <path id="Path_1043660" data-name="Path 1043660" d="M21.467,388.963a9.652,9.652,0,0,0-1.4-1.757,9.252,9.252,0,0,0-2.489-1.8,1.612,1.612,0,0,1-.769-.786,9.157,9.157,0,0,0-1.884-2.67,9.156,9.156,0,0,0-2.67-1.884,1.612,1.612,0,0,1-.786-.769,9.254,9.254,0,0,0-1.8-2.489,9.647,9.647,0,0,0-1.757-1.4c-1.08,3.339.271,7.2,3.309,10.242S18.128,390.043,21.467,388.963Z" transform="translate(-30.622 -358.784)" fill="#4677d4"/>
        <path id="Path_1043661" data-name="Path 1043661" d="M97.248,221.034a3.108,3.108,0,0,0,2.572-2.921,21.581,21.581,0,0,1,1.219-2.327,9.2,9.2,0,0,0-6.89-1.645,17.585,17.585,0,0,0-.558,3.726A3.11,3.11,0,0,0,97.248,221.034Z" transform="translate(-107.388 -214.831)" fill="#fdd1a3"/>
        <path id="Path_1043662" data-name="Path 1043662" d="M252.98,247.818a17.46,17.46,0,0,0,5.117-11.667,3.117,3.117,0,0,0-6.229-.247,46.4,46.4,0,0,1-4.105,6.7c-1.981,1.981-6.446,2.972-9.043,2.972l1.867,2.089a4.5,4.5,0,0,0,6.045,4.217A17.46,17.46,0,0,0,252.98,247.818Z" transform="translate(-236.875 -231.666)" fill="#4677d4"/>
        <path id="Path_1043663" data-name="Path 1043663" d="M221.035,353.172a3.108,3.108,0,0,0-2.921-2.572,21.567,21.567,0,0,1-2.327-1.219,9.2,9.2,0,0,0-1.645,6.89,17.589,17.589,0,0,0,3.726.558A3.11,3.11,0,0,0,221.035,353.172Z" transform="translate(-214.881 -335.559)" fill="#da9d81"/>
        <ellipse id="Ellipse_12635" data-name="Ellipse 12635" cx="10.427" cy="8.547" rx="10.427" ry="8.547" transform="translate(7.354 22.156) rotate(-45)" fill="#ffdcce"/>
        <path id="Path_1043664" data-name="Path 1043664" d="M353.173,232.983A3.108,3.108,0,0,0,350.6,235.9a21.579,21.579,0,0,1-1.219,2.327,9.2,9.2,0,0,0,6.89,1.645,17.583,17.583,0,0,0,.558-3.726A3.11,3.11,0,0,0,353.173,232.983Z" transform="translate(-335.608 -231.666)" fill="#ffdcce"/>
        <circle id="Ellipse_12636" data-name="Ellipse 12636" cx="11.291" cy="11.291" r="11.291" transform="translate(-7.579 -7.531)" fill="#59d5ff"/>
        <path id="Path_1043665" data-name="Path 1043665" d="M172.523,179.81c-11.754.659-17.559-10.251-15.442-15.229a11.292,11.292,0,1,0,15.442,15.229Z" transform="translate(-158.875 -170.68)" fill="#00c4fc"/>
        <path id="Path_1043666" data-name="Path 1043666" d="M276.77,261.482h-6.219a3.915,3.915,0,0,0-3.915,3.916,2.11,2.11,0,0,0,2.11,2.11.764.764,0,0,1,.764.764A4.126,4.126,0,0,0,270.536,271,11.293,11.293,0,0,0,276.77,261.482Z" transform="translate(-261.781 -257.135)" fill="#00cd8d"/>
        <path id="Path_1043667" data-name="Path 1043667" d="M270.537,294.823a11.342,11.342,0,0,0,4.891-4.735,15.669,15.669,0,0,1-8.652-1.9,3.916,3.916,0,0,0-.14,1.037,2.11,2.11,0,0,0,2.11,2.11.764.764,0,0,1,.764.764A4.127,4.127,0,0,0,270.537,294.823Z" transform="translate(-261.782 -280.958)" fill="#00b662"/>
        <path id="Path_1043668" data-name="Path 1043668" d="M388.4,7.605c1.031,3.638,2.629,5.966,5.246,6.428a.966.966,0,0,1,.786.786c.462,2.617,2.79,4.215,6.428,5.246.369-2.984-1-6.221-3.618-8.842s-5.858-3.987-8.842-3.618Z" transform="translate(-370.418 -30.572)" fill="#f5c956"/>
        <path id="Path_1043669" data-name="Path 1043669" d="M13.216,17.491a3.024,3.024,0,0,0,4.277-4.277c-1.181-1.181-4.356-2.075-5.354-1.077S12.035,16.31,13.216,17.491Z" transform="translate(-34.334 -34.284)" fill="#ff6e80"/>
        <path id="Path_1043670" data-name="Path 1043670" d="M157.925,195.712h-4.569a11.239,11.239,0,0,0-2.06,6.5c0,.147,0,.294.009.439h4.8a4.381,4.381,0,0,0,4.381-4.381A2.562,2.562,0,0,0,157.925,195.712Z" transform="translate(-158.875 -198.455)" fill="#00cd8d"/>
        <path id="Path_1043671" data-name="Path 1043671" d="M156.719,195.712h-3.363a11.239,11.239,0,0,0-2.06,6.5c0,.147,0,.294.009.439h4.8a4.364,4.364,0,0,0,3.01-1.2A12.681,12.681,0,0,1,156.719,195.712Z" transform="translate(-158.875 -198.455)" fill="#00b662"/>
        <path id="Path_1043672" data-name="Path 1043672" d="M44.765,13.821a.808.808,0,0,0-.111-1.613,1.544,1.544,0,0,1-1.648-1.648.808.808,0,1,0-1.613-.111,3.161,3.161,0,0,0,3.372,3.372Zm-6.1-5.986a.806.806,0,0,0,.572-.237l.915-.915A.808.808,0,1,0,39.01,5.54l-.915.915a.808.808,0,0,0,.572,1.38ZM16.323,6.816a.808.808,0,0,0,0-1.143l-.915-.915A.808.808,0,1,0,14.265,5.9l.915.915A.809.809,0,0,0,16.323,6.816Zm-6.559,4.61a.808.808,0,0,0-.111,1.613,3.161,3.161,0,0,0,3.372-3.372.808.808,0,0,0-1.613.111,1.544,1.544,0,0,1-1.648,1.648ZM49.428,38.778a.809.809,0,1,0-1.144,1.143l.915.915a.809.809,0,1,0,1.144-1.143Zm-.67-21.66.915-.915A.808.808,0,1,0,48.53,15.06l-.915.915a.808.808,0,0,0,1.143,1.143ZM10.337,41.505a.808.808,0,1,0,.111,1.613A1.544,1.544,0,0,1,12.1,44.766a.809.809,0,0,0,.751.862l.056,0a.809.809,0,0,0,.806-.753,3.161,3.161,0,0,0-3.372-3.372ZM6.8,16.336a.808.808,0,0,0,0-1.143l-.915-.915a.809.809,0,0,0-1.143,1.143l.915.915a.809.809,0,0,0,1.143,0Zm9.059,31.392-.915.915a.809.809,0,1,0,1.143,1.143l.915-.915a.809.809,0,0,0-1.143-1.143Zm-9.52-9.52-.915.915a.809.809,0,1,0,1.143,1.143l.915-.915a.809.809,0,0,0-1.143-1.143ZM38.765,48.3a.809.809,0,0,0,0,1.143l.915.915a.808.808,0,0,0,1.143-1.143l-.915-.915A.808.808,0,0,0,38.765,48.3Zm5.893-13.965a18.476,18.476,0,0,0,1.26-5.961,3.865,3.865,0,0,0-1.271-3.03,5.25,5.25,0,0,0,.167-4.052c-.048-.132-.1-.263-.151-.395a8.527,8.527,0,0,0,7.949-2.4c4.213-4.213,2.933-10.3-1.33-14.56S40.932-1.609,36.721,2.6a9.05,9.05,0,0,0-1.711,2.347,4.745,4.745,0,0,0-6.453,4.358l-.2-.011a3.87,3.87,0,0,0-3.029,1.27,5.251,5.251,0,0,0-4.053-.166c-.132.048-.263.1-.395.151a8.527,8.527,0,0,0-2.4-7.949C15.414-.463,11.008-.818,6.874,1.624,5.342.639,2.4-.149,1.121,1.134s-.495,4.221.491,5.753A12.221,12.221,0,0,0,.511,9.3a.808.808,0,0,0,1.537.5,10.386,10.386,0,0,1,.731-1.692A3.833,3.833,0,0,0,8.1,2.793c3.2-1.723,6.668-1.619,9.24.953,3.568,3.568,2.273,8.671-1.33,12.273s-8.7,4.9-12.273,1.33a6.9,6.9,0,0,1-2.06-4.123.809.809,0,0,0-1.605.193,8.6,8.6,0,0,0,2.522,5.073,8.527,8.527,0,0,0,7.954,2.4,18.476,18.476,0,0,0-1.26,5.961,3.865,3.865,0,0,0,1.27,3.029,5.251,5.251,0,0,0-.166,4.053q.072.2.151.395a8.527,8.527,0,0,0-7.949,2.4c-8.836,8.836,7.064,24.715,15.89,15.89a8.527,8.527,0,0,0,2.4-7.954,18.47,18.47,0,0,0,5.961,1.26,3.865,3.865,0,0,0,3.028-1.269,5.252,5.252,0,0,0,4.054.165q.2-.072.395-.151a8.527,8.527,0,0,0,2.4,7.949c3.442,3.441,8.3,3.291,12.405.47a.808.808,0,1,0-.915-1.333c-3.388,2.326-7.417,2.65-10.347-.28-3.568-3.568-2.273-8.671,1.33-12.273s8.706-4.9,12.273-1.33c3.294,3.294,2.448,7.934-.586,11.471A.808.808,0,1,0,52.11,50.4c3.913-4.562,4.115-10.054.5-13.667a8.527,8.527,0,0,0-7.954-2.4ZM6.475,6.488a2.218,2.218,0,0,1-3.133,0A5.339,5.339,0,0,1,2.2,4.132c-.247-1.068-.1-1.694.063-1.855s.786-.309,1.855-.063a5.341,5.341,0,0,1,2.356,1.14A2.218,2.218,0,0,1,6.475,6.488ZM50.138,5.075a10.8,10.8,0,0,1,3.44,7.192C50.6,11.261,49.035,9.879,48.7,7.959a1.784,1.784,0,0,0-1.442-1.442c-1.92-.339-3.3-1.9-4.308-4.881a10.8,10.8,0,0,1,7.191,3.44ZM37.865,3.746A7.021,7.021,0,0,1,41.3,1.805c1.208,3.779,3.067,5.845,5.672,6.3a.157.157,0,0,1,.131.13c.46,2.6,2.525,4.465,6.3,5.673a7.022,7.022,0,0,1-1.941,3.436c-3.568,3.568-8.671,2.273-12.273-1.33s-4.9-8.706-1.33-12.273Zm4.757,16.529a16.6,16.6,0,0,1,.674,1.572,3.652,3.652,0,0,1-.05,2.67,3.914,3.914,0,0,0-3.778.727,12.144,12.144,0,0,0-7.39-8.872,11.026,11.026,0,0,0,.852-4.6,16.591,16.591,0,0,1,2.009.821A14.808,14.808,0,0,0,42.621,20.275ZM34.432,6.455a8.931,8.931,0,0,0-.114,4.1,18.535,18.535,0,0,0-4.144-1.091,3.13,3.13,0,0,1,4.258-3.007Zm-6.14,4.456a16.746,16.746,0,0,1,3,.4,9.655,9.655,0,0,1-.764,4.561,12.088,12.088,0,0,0-2.416-.348,2.308,2.308,0,0,1,.18-4.613ZM12.577,20.275a14.808,14.808,0,0,0,7.684-7.683,16.613,16.613,0,0,1,1.572-.674,3.652,3.652,0,0,1,2.67.05,3.919,3.919,0,0,0,.726,3.779,12.144,12.144,0,0,0-8.871,7.389,11.029,11.029,0,0,0-4.6-.852A16.581,16.581,0,0,1,12.577,20.275Zm10.36,1.643a1.756,1.756,0,0,1,1.754,1.754,3.576,3.576,0,0,1-3.572,3.572H17.125A10.417,10.417,0,0,1,18.8,21.918Zm-12.039,5a16.739,16.739,0,0,1,.4-3,9.656,9.656,0,0,1,4.561.764,12.086,12.086,0,0,0-.348,2.416,2.308,2.308,0,0,1-4.613-.179Zm-9.2,14.92A8.745,8.745,0,0,1,4.01,44.719a2.428,2.428,0,0,0,1.18,1.153,8.784,8.784,0,0,1,4.151,4.151,2.428,2.428,0,0,0,1.153,1.18,8.742,8.742,0,0,1,2.878,2.315C7.59,54.354.863,47.6,1.695,41.841Zm15.641,9.64a7.276,7.276,0,0,1-2.287,1.568A10.674,10.674,0,0,0,13.907,51.7,10.021,10.021,0,0,0,11.2,49.748a.807.807,0,0,1-.385-.392A10.394,10.394,0,0,0,5.857,44.4a.808.808,0,0,1-.392-.385A10.021,10.021,0,0,0,3.51,41.306a10.681,10.681,0,0,0-1.346-1.142,7.274,7.274,0,0,1,1.568-2.287c3.569-3.569,8.672-2.272,12.273,1.33S20.9,47.914,17.336,51.481Zm4.937-8.024a16.584,16.584,0,0,1-2.01-.821,14.808,14.808,0,0,0-7.683-7.684,16.625,16.625,0,0,1-.674-1.572,3.652,3.652,0,0,1,.05-2.67,3.914,3.914,0,0,0,3.778-.727,12.144,12.144,0,0,0,7.39,8.872,11.028,11.028,0,0,0-.851,4.6Zm4.636.858a16.746,16.746,0,0,1-3-.4,9.655,9.655,0,0,1,.764-4.561,12.08,12.08,0,0,0,2.416.348,2.308,2.308,0,0,1-.18,4.613ZM17.192,28.861h3.927a5.2,5.2,0,0,0,5.189-5.189A3.374,3.374,0,0,0,22.938,20.3H20.1a10.477,10.477,0,0,1,17.984,7.09H32.658a4.729,4.729,0,0,0-4.724,4.724,2.922,2.922,0,0,0,2.874,2.918,4.942,4.942,0,0,0,.615,2.341,10.5,10.5,0,0,1-14.231-8.513Zm20.8.147a10.5,10.5,0,0,1-5.111,7.659,3.329,3.329,0,0,1-.454-1.678,1.574,1.574,0,0,0-1.572-1.572,1.3,1.3,0,0,1-1.3-1.3,3.111,3.111,0,0,1,3.107-3.107Zm4.633,5.943a14.807,14.807,0,0,0-7.684,7.683,16.585,16.585,0,0,1-1.572.674,3.652,3.652,0,0,1-2.67-.05,3.913,3.913,0,0,0-.728-3.778,12.144,12.144,0,0,0,8.872-7.39,11.034,11.034,0,0,0,4.6.853,16.616,16.616,0,0,1-.821,2.008ZM44.3,28.305a16.746,16.746,0,0,1-.4,3,9.655,9.655,0,0,1-4.561-.764,12.084,12.084,0,0,0,.348-2.416,2.308,2.308,0,0,1,4.613.179Zm1.022,15.383a.808.808,0,1,0,.111-1.613,3.161,3.161,0,0,0-3.372,3.372.809.809,0,0,0,.806.753l.056,0a.809.809,0,0,0,.751-.862,1.544,1.544,0,0,1,1.648-1.648Z" transform="translate(-23.888 -23.853)"/>
      </g>
    </g>
  </g>
</svg>
