<svg xmlns="http://www.w3.org/2000/svg" xmlns:xlink="http://www.w3.org/1999/xlink" width="97.533" height="97.533" viewBox="0 0 97.533 97.533">
  <defs>
    <filter id="Path_982547" x="0" y="0" width="97.533" height="97.533" filterUnits="userSpaceOnUse">
      <feOffset dy="3" input="SourceAlpha"/>
      <feGaussianBlur stdDeviation="3" result="blur"/>
      <feFlood flood-opacity="0.161"/>
      <feComposite operator="in" in2="blur"/>
      <feComposite in="SourceGraphic"/>
    </filter>
  </defs>
  <g id="Group_1203849" data-name="Group 1203849" transform="translate(-819.967 -8149.672)">
    <g id="Group_1203698" data-name="Group 1203698" transform="translate(0 -74.53)">
      <g id="Group_1203348" data-name="Group 1203348" transform="translate(547.967 6819.2)">
        <g id="Group_1177900" data-name="Group 1177900" transform="translate(281 1411.003)">
          <g id="Group_1172010" data-name="Group 1172010" transform="translate(0)">
            <g id="Group_1171046" data-name="Group 1171046">
              <g id="Group_1148525" data-name="Group 1148525">
                <g transform="matrix(1, 0, 0, 1, -9, -6)" filter="url(#Path_982547)">
                  <g id="Path_982547-2" data-name="Path 982547" transform="translate(9 6)" fill="#fdfbec">
                    <path d="M 39.7666015625 78.033203125 C 34.59997940063477 78.033203125 29.58870124816895 77.02164459228516 24.87196731567383 75.02663421630859 C 20.31538963317871 73.099365234375 16.22284507751465 70.34000396728516 12.70802402496338 66.82518005371094 C 9.193202018737793 63.31035614013672 6.433835029602051 59.21781158447266 4.506568431854248 54.66123580932617 C 2.511557102203369 49.94449996948242 1.500001549720764 44.93322372436523 1.500001549720764 39.7666015625 C 1.500001549720764 34.59997940063477 2.511557102203369 29.58870124816895 4.506568431854248 24.87196731567383 C 6.433835029602051 20.31538963317871 9.193202018737793 16.22284507751465 12.70802402496338 12.70802402496338 C 16.22284507751465 9.193202018737793 20.31538963317871 6.433835029602051 24.87196731567383 4.506568431854248 C 29.58870124816895 2.511557102203369 34.59997940063477 1.500001549720764 39.7666015625 1.500001549720764 C 44.93322372436523 1.500001549720764 49.94449996948242 2.511557102203369 54.66123580932617 4.506568431854248 C 59.21781158447266 6.433835029602051 63.31035614013672 9.193202018737793 66.82518005371094 12.70802402496338 C 70.34000396728516 16.22284507751465 73.099365234375 20.31538963317871 75.02663421630859 24.87196731567383 C 77.02164459228516 29.58870124816895 78.033203125 34.59997940063477 78.033203125 39.7666015625 C 78.033203125 44.93322372436523 77.02164459228516 49.94449996948242 75.02663421630859 54.66123580932617 C 73.099365234375 59.21781158447266 70.34000396728516 63.31035614013672 66.82518005371094 66.82518005371094 C 63.31035614013672 70.34000396728516 59.21781158447266 73.099365234375 54.66123580932617 75.02663421630859 C 49.94449996948242 77.02164459228516 44.93322372436523 78.033203125 39.7666015625 78.033203125 Z" stroke="none"/>
                    <path d="M 39.7666015625 3 C 34.80181503295898 3 29.98714065551758 3.971687316894531 25.45630264282227 5.888076782226562 C 21.07851409912109 7.739715576171875 17.146240234375 10.39113616943359 13.76869201660156 13.76869201660156 C 10.39113616943359 17.146240234375 7.739715576171875 21.07851409912109 5.888076782226562 25.45630264282227 C 3.971687316894531 29.98714065551758 3 34.80181503295898 3 39.7666015625 C 3 44.73138809204102 3.971687316894531 49.54606628417969 5.888076782226562 54.076904296875 C 7.739715576171875 58.45468902587891 10.39113616943359 62.386962890625 13.76869201660156 65.76451110839844 C 17.146240234375 69.14206695556641 21.07851409912109 71.79348754882812 25.45630264282227 73.64512634277344 C 29.98714065551758 75.56151580810547 34.80181503295898 76.533203125 39.7666015625 76.533203125 C 44.73138809204102 76.533203125 49.54606628417969 75.56151580810547 54.076904296875 73.64512634277344 C 58.45468902587891 71.79348754882812 62.386962890625 69.14206695556641 65.76451110839844 65.76451110839844 C 69.14206695556641 62.386962890625 71.79348754882812 58.45468902587891 73.64512634277344 54.076904296875 C 75.56151580810547 49.54606628417969 76.533203125 44.73138809204102 76.533203125 39.7666015625 C 76.533203125 34.80181503295898 75.56151580810547 29.98714065551758 73.64512634277344 25.45630264282227 C 71.79348754882812 21.07851409912109 69.14206695556641 17.146240234375 65.76451110839844 13.76869201660156 C 62.386962890625 10.39113616943359 58.45468902587891 7.739715576171875 54.076904296875 5.888076782226562 C 49.54606628417969 3.971687316894531 44.73138809204102 3 39.7666015625 3 M 39.7666015625 0 C 61.72908782958984 0 79.533203125 17.80411529541016 79.533203125 39.7666015625 C 79.533203125 61.72908782958984 61.72908782958984 79.533203125 39.7666015625 79.533203125 C 17.80411529541016 79.533203125 0 61.72908782958984 0 39.7666015625 C 0 17.80411529541016 17.80411529541016 0 39.7666015625 0 Z" stroke="none" fill="#83793c"/>
                  </g>
                </g>
              </g>
            </g>
          </g>
        </g>
      </g>
      <g id="plastilina" transform="translate(843.915 8207.854)">
        <g id="Group_1203682" data-name="Group 1203682" transform="translate(2.987 49.617)">
          <path id="Path_1043736" data-name="Path 1043736" d="M63.884,136.84v-9.753H30.81v9.753l17.04,4.747Z" transform="translate(-30.81 -127.087)" fill="#ffe177" fill-rule="evenodd"/>
        </g>
        <g id="Group_1203683" data-name="Group 1203683" transform="translate(2.987 49.617)">
          <path id="Path_1043737" data-name="Path 1043737" d="M60.6,133.236v3.6l1.569,1.206,1.714-1.206v-9.753H30.811v4.565h28.24C60.195,131.652,60.6,132.115,60.6,133.236Z" transform="translate(-30.811 -127.087)" fill="#ffd15b" fill-rule="evenodd"/>
        </g>
        <g id="Group_1203684" data-name="Group 1203684" transform="translate(2.987 67.351)">
          <path id="Path_1043738" data-name="Path 1043738" d="M30.81,313.586v7.407a2.751,2.751,0,0,0,2.745,2.738h27.58a2.752,2.752,0,0,0,2.748-2.738v-7.407l-16.7-3.56Z" transform="translate(-30.81 -310.026)" fill="#ffe177" fill-rule="evenodd"/>
        </g>
        <g id="Group_1203685" data-name="Group 1203685" transform="translate(2.987 59.37)">
          <path id="Path_1043739" data-name="Path 1043739" d="M38.078,235.667a4.933,4.933,0,0,1,4.145-4.848A6.9,6.9,0,0,1,43.5,227.7H30.81v11.541h8.82A4.887,4.887,0,0,1,38.078,235.667Z" transform="translate(-30.81 -227.697)" fill="#eaf6ff" fill-rule="evenodd"/>
        </g>
        <g id="Group_1203686" data-name="Group 1203686" transform="translate(1.715 45.011)">
          <path id="Path_1043740" data-name="Path 1043740" d="M18.963,85.143H52.495a.829.829,0,0,0,.827-.825V79.577H17.691v4.742a.829.829,0,0,0,.827.825h.445Z" transform="translate(-17.691 -79.577)" fill="#62dbfb" fill-rule="evenodd"/>
        </g>
        <g id="Group_1203687" data-name="Group 1203687" transform="translate(31.653 45.011)">
          <path id="Path_1043741" data-name="Path 1043741" d="M327.35,79.577v4.742a.827.827,0,0,1-.827.825h4.866a.829.829,0,0,0,.827-.825V79.577H327.35Z" transform="translate(-326.523 -79.577)" fill="#01d0fb" fill-rule="evenodd"/>
        </g>
        <g id="Group_1203688" data-name="Group 1203688" transform="translate(0.727 42.028)">
          <path id="Path_1043742" data-name="Path 1043742" d="M8.488,52.789H45.164a.371.371,0,0,0,.368-.37V49.171a.37.37,0,0,0-.368-.37H7.871a.371.371,0,0,0-.371.37v3.247a.371.371,0,0,0,.371.37Z" transform="translate(-7.5 -48.801)" fill="#99e6fc" fill-rule="evenodd"/>
        </g>
        <g id="Group_1203691" data-name="Group 1203691" transform="translate(33.525 42.028)">
          <g id="Group_1203690" data-name="Group 1203690" transform="translate(0 0)">
            <g id="Group_1203689" data-name="Group 1203689">
              <path id="Path_1043743" data-name="Path 1043743" d="M345.834,52.789H350.7a.371.371,0,0,0,.368-.37V49.171a.371.371,0,0,0-.368-.37h-4.866a.371.371,0,0,1,.371.37v3.247A.371.371,0,0,1,345.834,52.789Z" transform="translate(-345.834 -48.801)" fill="#62dbfb" fill-rule="evenodd"/>
            </g>
          </g>
        </g>
        <g id="Group_1203692" data-name="Group 1203692" transform="translate(23.365 59.37)">
          <path id="Path_1043744" data-name="Path 1043744" d="M242.3,230.818a4.935,4.935,0,0,1,4.148,4.848,4.886,4.886,0,0,1-1.553,3.571h8.82V227.7h-12.7A6.9,6.9,0,0,1,242.3,230.818Z" transform="translate(-241.024 -227.696)" fill="#eaf6ff" fill-rule="evenodd"/>
        </g>
        <g id="Group_1203693" data-name="Group 1203693" transform="translate(9.244 56.99)">
          <path id="Path_1043745" data-name="Path 1043745" d="M99.511,208.644a4.91,4.91,0,0,0,.775,9.758H111a4.909,4.909,0,0,0,.778-9.758,6.9,6.9,0,0,0-1.28-3.122,6.133,6.133,0,0,0-9.7,0A6.9,6.9,0,0,0,99.511,208.644Z" transform="translate(-95.363 -203.141)" fill="#fe646f" fill-rule="evenodd"/>
        </g>
        <g id="Group_1203694" data-name="Group 1203694" transform="translate(32.777 59.37)">
          <path id="Path_1043746" data-name="Path 1043746" d="M341.405,227.7h-3.283v10.782a3.89,3.89,0,0,1,2.7-1.051c.207.016.4.038.579.065Z" transform="translate(-338.122 -227.696)" fill="#d8ecfe" fill-rule="evenodd"/>
        </g>
        <g id="Group_1203695" data-name="Group 1203695" transform="translate(22.058 67.09)">
          <path id="Path_1043747" data-name="Path 1043747" d="M240.97,307.33c-3.883.3-2.437,2.763-5.906,2.817-.172,0-.347.014-.524.027a5.566,5.566,0,0,0-2.8.977,3.694,3.694,0,0,0-1.124,1.334,4.591,4.591,0,0,0-.439,2.229,2.283,2.283,0,0,1-.98,1.982c-2.006,1.677-1.973,3.473-1,4.6a3.462,3.462,0,0,0,2.625,1.146h20.3a3.364,3.364,0,0,0,2.926-1.568,2.657,2.657,0,0,0,0-2.627,5.157,5.157,0,0,0-1.3-1.552,2.29,2.29,0,0,1-.98-1.982c.1-3.43-2.62-4.529-4.89-4.568-3.283-.052-2.161-2.262-5.327-2.752C241.369,307.368,241.178,307.346,240.97,307.33Z" transform="translate(-227.547 -307.33)" fill="#99e6fc" fill-rule="evenodd"/>
        </g>
        <g id="Group_1203696" data-name="Group 1203696" transform="translate(31.784 67.09)">
          <path id="Path_1043748" data-name="Path 1043748" d="M330.664,309.469a3.236,3.236,0,0,1,1.487.991,3.28,3.28,0,0,0,3.01,1.568c2.271.038,4.994,1.135,4.893,4.568a2.288,2.288,0,0,0,.977,1.982c1.575,1.312,1.894,2.7,1.49,3.781a3.239,3.239,0,0,0,2.129-1.481.235.235,0,0,0,.016-.027,2.655,2.655,0,0,0,0-2.567l-.016-.033a5.155,5.155,0,0,0-1.3-1.552,2.29,2.29,0,0,1-.98-1.982c.1-3.43-2.62-4.529-4.89-4.568-3.283-.052-2.161-2.262-5.327-2.752-.18-.027-.371-.049-.579-.065a3.888,3.888,0,0,0-2.7,1.053c-.366.359-.62.754-.993,1.078a5.276,5.276,0,0,1,.993-.215c.123-.014.254-.027.39-.038a5.94,5.94,0,0,1,1.405.258Z" transform="translate(-327.875 -307.332)" fill="#62dbfb" fill-rule="evenodd"/>
        </g>
        <g id="Group_1203697" data-name="Group 1203697" transform="translate(0 41.301)">
          <path id="Path_1043749" data-name="Path 1043749" d="M157.446,259.066h0a5.023,5.023,0,0,0-4.643,2.571.727.727,0,1,0,1.3.643,3.638,3.638,0,0,1,3.339-1.761h0a3.634,3.634,0,0,1,3.335,1.76.727.727,0,1,0,1.3-.642A5.018,5.018,0,0,0,157.446,259.066Z" transform="translate(-137.92 -237.956)"/>
          <path id="Path_1043750" data-name="Path 1043750" d="M177.785,286.359h0a2.766,2.766,0,0,0-2.444,1.464.727.727,0,1,0,1.273.7,1.33,1.33,0,0,1,1.171-.712h0a1.326,1.326,0,0,1,1.167.711.727.727,0,1,0,1.275-.7A2.762,2.762,0,0,0,177.785,286.359Z" transform="translate(-158.259 -262.603)"/>
          <path id="Path_1043751" data-name="Path 1043751" d="M285.022,364.962a3.653,3.653,0,0,0-.955,2.741.727.727,0,0,0,.726.705h.022a.727.727,0,0,0,.7-.749,2.258,2.258,0,0,1,.554-1.693,3.117,3.117,0,0,1,2.2-.8.727.727,0,0,0-.024-1.454A4.6,4.6,0,0,0,285.022,364.962Z" transform="translate(-256.527 -332.457)"/>
          <path id="Path_1043752" data-name="Path 1043752" d="M47.723,75.9A1.578,1.578,0,0,1,47,74.5,4.859,4.859,0,0,0,45.74,70.85,6.181,6.181,0,0,0,41.4,69.18a2.361,2.361,0,0,1-2.227-1.029,4.183,4.183,0,0,0-2.384-1.587v-15.3a1.547,1.547,0,0,0,1.285-1.509v-3.01h.318a1.1,1.1,0,0,0,1.1-1.1V42.4a1.1,1.1,0,0,0-1.1-1.1H1.1A1.1,1.1,0,0,0,0,42.4v3.247a1.1,1.1,0,0,0,.988,1.092v3.016A1.554,1.554,0,0,0,2.26,51.278v27a3.473,3.473,0,0,0,3.472,3.465h16.62a4.22,4.22,0,0,0,2.978,1.181h8.684a.727.727,0,0,0,0-1.454H25.33a2.551,2.551,0,0,1-2.437-1.5c-.339-.934.115-1.984,1.278-2.955a3,3,0,0,0,1.242-2.563,3.464,3.464,0,0,1,.863-2.6,4.681,4.681,0,0,1,3.312-1.22A3.74,3.74,0,0,0,32.9,69.088a3.253,3.253,0,0,1,5.156,0,3.74,3.74,0,0,0,3.315,1.545,4.682,4.682,0,0,1,3.313,1.22,3.462,3.462,0,0,1,.863,2.6,3,3,0,0,0,1.24,2.563c1.164.972,1.618,2.022,1.279,2.956a2.551,2.551,0,0,1-2.437,1.5H37.348a.727.727,0,0,0,0,1.454h8.285a3.969,3.969,0,0,0,3.8-2.463c.555-1.53-.07-3.195-1.715-4.568Zm-11.1-26.145c0,.042-.057.081-.116.081H21.593a.727.727,0,1,0,0,1.454h13.74v7.354h-10.6a6.834,6.834,0,0,0-5.207-2.38h0a6.832,6.832,0,0,0-5.2,2.38H3.714V51.3l14.218-.015a.727.727,0,0,0,0-1.454h0l-15.389.016a.1.1,0,0,1-.1-.1v-3.01H36.619v3.01ZM3.714,60.1h9.662a7.914,7.914,0,0,0-.609,1.784,5.7,5.7,0,0,0-4.25,5.459,5.574,5.574,0,0,0,.775,2.844H3.714ZM1.454,42.755H38.032v2.534H1.454ZM23.24,75.9c-1.583,1.322-2.22,2.914-1.771,4.4H5.732a2.017,2.017,0,0,1-2.018-2.011V71.638h6.808a5.6,5.6,0,0,0,3.641,1.339h.006l9.929,0a6.011,6.011,0,0,0-.138,1.525,1.575,1.575,0,0,1-.719,1.4Zm1.984-5.048a4.415,4.415,0,0,0-.524.668l-10.533.005a4.2,4.2,0,0,1-4.2-4.184,4.225,4.225,0,0,1,3.536-4.13.727.727,0,0,0,.6-.6,5.458,5.458,0,0,1,5.411-4.889h0a5.46,5.46,0,0,1,5.414,4.889.727.727,0,0,0,.6.6,4.223,4.223,0,0,1,3.534,4.13,4.165,4.165,0,0,1-.47,1.914,5.7,5.7,0,0,0-3.38,1.6Zm6.57-2.7a2.2,2.2,0,0,1-1.561.979,5.6,5.6,0,0,0,.295-1.79,5.694,5.694,0,0,0-4.247-5.459A7.92,7.92,0,0,0,25.67,60.1h9.663v6.276A4.447,4.447,0,0,0,31.793,68.151Z" transform="translate(0 -41.301)"/>
        </g>
      </g>
    </g>
  </g>
</svg>
