<svg xmlns="http://www.w3.org/2000/svg" xmlns:xlink="http://www.w3.org/1999/xlink" width="108" height="108" viewBox="0 0 108 108">
  <defs>
    <filter id="Path_904820" x="0" y="0" width="108" height="108" filterUnits="userSpaceOnUse">
      <feOffset dy="3" input="SourceAlpha"/>
      <feGaussianBlur stdDeviation="3" result="blur"/>
      <feFlood flood-opacity="0.161"/>
      <feComposite operator="in" in2="blur"/>
      <feComposite in="SourceGraphic"/>
    </filter>
  </defs>
  <g id="Group_1203807" data-name="Group 1203807" transform="translate(-621 -3754)">
    <g id="Group_1203590" data-name="Group 1203590">
      <g id="Group_1202427" data-name="Group 1202427" transform="translate(1.523 3272.468)">
        <g id="Group_1177315" data-name="Group 1177315" transform="translate(-0.522 -44.468)">
          <g id="Group_1173585" data-name="Group 1173585" transform="translate(629 532)">
            <g id="Group_1173428" data-name="Group 1173428" transform="translate(0 0)">
              <g id="Group_1171958" data-name="Group 1171958">
                <g id="Group_1167341" data-name="Group 1167341">
                  <g id="Group_1166792" data-name="Group 1166792">
                    <g transform="matrix(1, 0, 0, 1, -9, -6)" filter="url(#Path_904820)">
                      <g id="Path_904820-2" data-name="Path 904820" transform="translate(9 6)" fill="#effbfe">
                        <path d="M 44.99999618530273 88.49999237060547 C 39.12687301635742 88.49999237060547 33.43022155761719 87.35006713867188 28.06829643249512 85.08216857910156 C 22.88852119445801 82.89130401611328 18.23629570007324 79.75457763671875 14.24084663391113 75.75914001464844 C 10.24540901184082 71.76369476318359 7.108683586120605 67.11146545410156 4.917821407318115 61.93169403076172 C 2.649921178817749 56.56976699829102 1.499996185302734 50.87311553955078 1.499996185302734 44.99999237060547 C 1.499996185302734 39.12686920166016 2.649921178817749 33.43021774291992 4.917821407318115 28.06829261779785 C 7.108683586120605 22.88851737976074 10.24540901184082 18.23630523681641 14.24084663391113 14.24085521697998 C 18.23629570007324 10.24540519714355 22.88852119445801 7.108692169189453 28.06829643249512 4.917829990386963 C 33.43022155761719 2.649929761886597 39.12687301635742 1.500004887580872 44.99999618530273 1.500004887580872 C 50.87311935424805 1.500004887580872 56.56977081298828 2.649929761886597 61.93169784545898 4.917829990386963 C 67.11147308349609 7.108692169189453 71.76369476318359 10.24540519714355 75.75914764404297 14.24085521697998 C 79.75458526611328 18.23630523681641 82.89131164550781 22.88851737976074 85.08216857910156 28.06829261779785 C 87.35007476806641 33.43021774291992 88.5 39.12686920166016 88.5 44.99999237060547 C 88.5 50.87311553955078 87.35007476806641 56.56976699829102 85.08216857910156 61.93169403076172 C 82.89131164550781 67.11146545410156 79.75458526611328 71.76369476318359 75.75914764404297 75.75914001464844 C 71.76369476318359 79.75457763671875 67.11147308349609 82.89130401611328 61.93169784545898 85.08216857910156 C 56.56977081298828 87.35006713867188 50.87311935424805 88.49999237060547 44.99999618530273 88.49999237060547 Z" stroke="none"/>
                        <path d="M 44.99999618530273 2.999992370605469 C 39.32870864868164 2.999992370605469 33.82865142822266 4.11004638671875 28.65262603759766 6.299331665039062 C 23.65165710449219 8.414566040039062 19.15968322753906 11.44333648681641 15.301513671875 15.30150604248047 C 11.44333648681641 19.15967559814453 8.414566040039062 23.65164947509766 6.299339294433594 28.65262222290039 C 4.110054016113281 33.82864761352539 2.999992370605469 39.32870483398438 2.999992370605469 44.99999237060547 C 2.999992370605469 50.67127990722656 4.110054016113281 56.17132186889648 6.299339294433594 61.34736633300781 C 8.414566040039062 66.34833526611328 11.44333648681641 70.84029388427734 15.301513671875 74.69846343994141 C 19.15968322753906 78.55663299560547 23.65165710449219 81.58540344238281 28.65262603759766 83.70063781738281 C 33.82865142822266 85.88992309570312 39.32870864868164 86.99997711181641 44.99999618530273 86.99997711181641 C 50.67128372192383 86.99997711181641 56.17134094238281 85.88992309570312 61.34736633300781 83.70063781738281 C 66.34834289550781 81.58540344238281 70.84030914306641 78.55663299560547 74.69847869873047 74.69846343994141 C 78.55665588378906 70.84029388427734 81.58542633056641 66.34833526611328 83.70065307617188 61.34736633300781 C 85.88993835449219 56.17132186889648 87 50.67127990722656 87 44.99999237060547 C 87 39.32870483398438 85.88993835449219 33.82864761352539 83.70065307617188 28.65262222290039 C 81.58542633056641 23.65164947509766 78.55665588378906 19.15967559814453 74.69847869873047 15.30150604248047 C 70.84030914306641 11.44333648681641 66.34834289550781 8.414566040039062 61.34736633300781 6.299331665039062 C 56.17134094238281 4.11004638671875 50.67128372192383 2.999992370605469 44.99999618530273 2.999992370605469 M 44.99999618530273 -7.62939453125e-06 C 69.85281372070312 -7.62939453125e-06 90 20.14717864990234 90 44.99999237060547 C 90 69.85279083251953 69.85281372070312 89.99997711181641 44.99999618530273 89.99997711181641 C 20.14717864990234 89.99997711181641 -7.62939453125e-06 69.85279083251953 -7.62939453125e-06 44.99999237060547 C -7.62939453125e-06 20.14717864990234 20.14717864990234 -7.62939453125e-06 44.99999618530273 -7.62939453125e-06 Z" stroke="none" fill="#497f88"/>
                      </g>
                    </g>
                  </g>
                </g>
              </g>
            </g>
          </g>
        </g>
      </g>
      <g id="maestro_4_" data-name="maestro (4)" transform="translate(626.722 3774)">
        <g id="Group_1203588" data-name="Group 1203588" transform="translate(21.08 0.899)">
          <g id="Group_1203585" data-name="Group 1203585">
            <path id="Path_1042457" data-name="Path 1042457" d="M94.115,32.133a3.883,3.883,0,0,0-2.427-5.974,18.934,18.934,0,0,0-37.864,0A3.883,3.883,0,0,0,51.4,32.133a7.674,7.674,0,0,0,3.768,13.12,5.331,5.331,0,0,0,4.8,7.651H85.55a5.331,5.331,0,0,0,4.8-7.651,7.674,7.674,0,0,0,3.767-13.12Z" transform="translate(-48.98 -7.496)" fill="#596c76"/>
            <path id="Path_1042458" data-name="Path 1042458" d="M74.381,52.909H59.961a5.329,5.329,0,0,1-4.8-7.651A7.674,7.674,0,0,1,51.4,32.137a3.823,3.823,0,0,1-.489-1.016,3.886,3.886,0,0,1,2.916-4.958A18.952,18.952,0,0,1,77.632,8.134,18.95,18.95,0,0,0,63.577,26.164s.559,3.936.068,4.363Z" transform="translate(-48.978 -7.5)" fill="#465a61"/>
            <path id="Path_1042459" data-name="Path 1042459" d="M174.232,376.251v5.669a.8.8,0,0,1-.8.8H152a.8.8,0,0,1-.8-.8v-5.669a10.089,10.089,0,0,1,2.373-6.515,10.193,10.193,0,0,1,2.77-2.3,10.071,10.071,0,0,1,4.989-1.314H164.1a10.132,10.132,0,0,1,10.131,10.131Z" transform="translate(-138.941 -323.101)" fill="#97da7b"/>
            <path id="Path_1042460" data-name="Path 1042460" d="M165.872,366.278a10.134,10.134,0,0,0-8.364,9.977v6.467h-5.5a.8.8,0,0,1-.8-.8v-5.669a10.131,10.131,0,0,1,10.131-10.131H164.1A10.212,10.212,0,0,1,165.872,366.278Z" transform="translate(-138.945 -323.105)" fill="#80d261"/>
            <path id="Path_1042461" data-name="Path 1042461" d="M206.815,332.442a6.373,6.373,0,0,1-12.745,0,10.022,10.022,0,0,1,3.406-1.19V326.36h5.983v4.9A10.02,10.02,0,0,1,206.815,332.442Z" transform="translate(-176.665 -288.111)" fill="#ffdfcf"/>
            <path id="Path_1042462" data-name="Path 1042462" d="M199.767,330.91v5.906a10.182,10.182,0,0,0-3.643,4.277,6.349,6.349,0,0,1-2.055-4.645,10.021,10.021,0,0,1,3.406-1.19V330.91Z" transform="translate(-176.665 -292.115)" fill="#ffcebf"/>
            <path id="Path_1042463" data-name="Path 1042463" d="M123.227,176.548a4.335,4.335,0,0,1,6.161,5.053c-.666,2.3-3.468,5.006-5.769,4.341a2.572,2.572,0,0,1-.5-.2H98.864a2.564,2.564,0,0,1-.5.2c-2.3.666-5.1-2.042-5.767-4.341a4.334,4.334,0,0,1,6.16-5.053Z" transform="translate(-87.217 -155.84)" fill="#ffcebf"/>
            <path id="Path_1042464" data-name="Path 1042464" d="M169.68,131.49v9.36a12.232,12.232,0,0,1-24.465,0v-8.907a1.021,1.021,0,0,1,1.29-.987,18.446,18.446,0,0,0,4.742.637,16.85,16.85,0,0,0,11.6-4.518.766.766,0,0,1,1.168.166,6.685,6.685,0,0,0,4.757,3.235A1.028,1.028,0,0,1,169.68,131.49Z" transform="translate(-133.671 -112.554)" fill="#ffdfcf"/>
            <path id="Path_1042465" data-name="Path 1042465" d="M160.464,182.376a12.244,12.244,0,0,1-15.249-11.858v-8.907a1.021,1.021,0,0,1,1.29-.987,18.446,18.446,0,0,0,4.742.637v9.257A12.237,12.237,0,0,0,160.464,182.376Z" transform="translate(-133.671 -142.223)" fill="#ffcebf"/>
          </g>
          <g id="Group_1203586" data-name="Group 1203586" transform="translate(32.116 43.566)">
            <path id="Path_1042466" data-name="Path 1042466" d="M334.583,370.736l-7.647,1.787-7.647-1.787a2.1,2.1,0,0,0-2.579,2.046V384.63a2.1,2.1,0,0,0,2.1,2.1h16.25a2.1,2.1,0,0,0,2.1-2.1V372.782A2.1,2.1,0,0,0,334.583,370.736Z" transform="translate(-316.71 -370.68)" fill="#fd8087"/>
            <path id="Path_1042467" data-name="Path 1042467" d="M321.927,386.738h-3.115a2.1,2.1,0,0,1-2.1-2.1V372.788a2.1,2.1,0,0,1,2.579-2.045l1.424.332a2.087,2.087,0,0,0-.886,1.713v11.848A2.1,2.1,0,0,0,321.927,386.738Z" transform="translate(-316.71 -370.686)" fill="#fe646f"/>
            <path id="Path_1042468" data-name="Path 1042468" d="M366.864,454.7h-1.835a3,3,0,0,0-3,3v2.969h7.841V457.7A3,3,0,0,0,366.864,454.7Z" transform="translate(-356.59 -444.622)" fill="#ffdfcf"/>
            <path id="Path_1042469" data-name="Path 1042469" d="M367.3,454.743a3,3,0,0,0-2.5,2.959v2.97h-2.848V457.7a3,3,0,0,1,3-3h1.835A2.93,2.93,0,0,1,367.3,454.743Z" transform="translate(-356.525 -444.621)" fill="#ffcebf"/>
          </g>
          <g id="Group_1203587" data-name="Group 1203587" transform="translate(6.87 52.411)">
            <path id="Path_1042470" data-name="Path 1042470" d="M110.4,444.42H109.3a3.05,3.05,0,0,0-3.05,3.05v1.106a3.05,3.05,0,0,0,3.05,3.05H110.4a3.05,3.05,0,0,0,3.05-3.05V447.47a3.05,3.05,0,0,0-3.05-3.05Z" transform="translate(-106.247 -444.42)" fill="#ffdfcf"/>
            <path id="Path_1042471" data-name="Path 1042471" d="M111.172,451.525a3.054,3.054,0,0,1-.768.1H109.3a3.05,3.05,0,0,1-3.05-3.049v-1.107a3.05,3.05,0,0,1,3.05-3.049H110.4a3.054,3.054,0,0,1,.768.1,3.051,3.051,0,0,0-2.282,2.952v1.107A3.051,3.051,0,0,0,111.172,451.525Z" transform="translate(-106.248 -444.416)" fill="#ffcebf"/>
          </g>
        </g>
        <g id="Group_1203589" data-name="Group 1203589" transform="translate(17.278 0)">
          <path id="Path_1042472" data-name="Path 1042472" d="M202.242,189.4a.9.9,0,0,0-1.8,0v1.587a.9.9,0,0,0,1.8,0Z" transform="translate(-178.471 -165.893)"/>
          <path id="Path_1042473" data-name="Path 1042473" d="M280.74,190.991V189.4a.9.9,0,0,0-1.8,0v1.587a.9.9,0,0,0,1.8,0Z" transform="translate(-247.553 -165.893)"/>
          <path id="Path_1042474" data-name="Path 1042474" d="M217.309,259.135a5.371,5.371,0,0,0,3.81-1.576.9.9,0,1,0-1.272-1.272,3.593,3.593,0,0,1-5.075,0,.9.9,0,1,0-1.272,1.272A5.371,5.371,0,0,0,217.309,259.135Z" transform="translate(-189.73 -225.312)"/>
          <path id="Path_1042475" data-name="Path 1042475" d="M73.413,44.216a2.984,2.984,0,0,0-2.547-.571l-1.208.282a.9.9,0,0,0,.409,1.752l1.208-.282a1.2,1.2,0,0,1,1.474,1.169V58.415a1.2,1.2,0,0,1-1.2,1.2H67.373v-2.07a3.909,3.909,0,0,0-3.051-3.808V47.021l1.763-.412a.9.9,0,1,0-.41-1.752l-2.253.527L62.3,45.121a6.219,6.219,0,0,0,1.419-5.555q-.034-.148-.076-.294a8.6,8.6,0,0,0,5.892-8.146,8.554,8.554,0,0,0-2.2-5.736,4.787,4.787,0,0,0-.641-5.065,4.812,4.812,0,0,0-2.022-1.442,19.834,19.834,0,0,0-39.622,0,4.787,4.787,0,0,0-2.9,5.9,4.717,4.717,0,0,0,.234.6,8.576,8.576,0,0,0,3.687,13.881,6.257,6.257,0,0,0,.228,4.072.9.9,0,1,0,1.663-.686,4.442,4.442,0,0,1,.113-3.609.9.9,0,0,0-.636-1.275,6.778,6.778,0,0,1-5.459-6.648,6.713,6.713,0,0,1,2.134-4.935.9.9,0,0,0,.129-1.158,2.975,2.975,0,0,1-.51-1.669,2.993,2.993,0,0,1,2.373-2.921.9.9,0,0,0,.717-.868,18.034,18.034,0,0,1,36.065,0,.9.9,0,0,0,.716.868,3,3,0,0,1,1.7,1.025,2.983,2.983,0,0,1,.17,3.563.9.9,0,0,0,.128,1.16,6.775,6.775,0,0,1-3.325,11.583.9.9,0,0,0-.636,1.275,4.426,4.426,0,0,1,.443,1.93,4.448,4.448,0,0,1-1.914,3.644l-4.186-.978a3,3,0,0,0-3.3,1.45,11.044,11.044,0,0,0-1.006-.648h0a10.9,10.9,0,0,0-2.9-1.138V41.73a13.181,13.181,0,0,0,8.922-9.766,3.64,3.64,0,0,0,.532.04,5.337,5.337,0,0,0,3.325-1.367,7.967,7.967,0,0,0,2.564-3.727,5.235,5.235,0,0,0-6.126-6.572v-.5a1.937,1.937,0,0,0-1.684-1.907,5.316,5.316,0,0,1-.907-.2.9.9,0,1,0-.546,1.714,7.105,7.105,0,0,0,1.215.271.132.132,0,0,1,.122.123v7.895c0,.006,0,.011,0,.017s0,0,0,.007v1.44a11.333,11.333,0,1,1-22.666,0V20.287a.119.119,0,0,1,.049-.1.113.113,0,0,1,.1-.02,19.319,19.319,0,0,0,5.027.665A17.72,17.72,0,0,0,50.748,16.19c.112.175.233.348.359.516a.9.9,0,0,0,1.439-1.08c-.126-.168-.244-.341-.352-.515a1.667,1.667,0,0,0-2.538-.36,16.384,16.384,0,0,1-15.506,3.681,1.92,1.92,0,0,0-2.425,1.855v.05A5.235,5.235,0,0,0,25.6,26.91a7.967,7.967,0,0,0,2.564,3.727A5.336,5.336,0,0,0,31.488,32a3.639,3.639,0,0,0,.533-.04,13.18,13.18,0,0,0,8.971,9.781V43.3a10.88,10.88,0,0,0-2.949,1.149h0a11.213,11.213,0,0,0-1.426.959H32.063a4.39,4.39,0,0,1-1.679-.329.9.9,0,0,0-.685,1.664,6.18,6.18,0,0,0,2.364.465h2.751a10.943,10.943,0,0,0-2.253,5.231,3.964,3.964,0,0,0-.454-.027H31a3.95,3.95,0,0,0-.829.088L18.933,35.1a.9.9,0,1,0-1.511.976l11.111,17.2a3.943,3.943,0,0,0-1.482,3.081v1.106A3.954,3.954,0,0,0,31,61.416H71.547a3,3,0,0,0,3-3V46.567a2.984,2.984,0,0,0-1.136-2.351ZM60.041,22.155a3.44,3.44,0,0,1,2.346,4.254,6.2,6.2,0,0,1-1.978,2.838,3.345,3.345,0,0,1-2.456.935q.037-.49.037-.989V27.738a2.093,2.093,0,0,1,1.547-2.012.9.9,0,0,0-.466-1.738,3.871,3.871,0,0,0-1.082.477V22.2a3.426,3.426,0,0,1,2.051-.045ZM29.306,29.247a6.2,6.2,0,0,1-1.978-2.837,3.435,3.435,0,0,1,4.4-4.21v2.266a3.867,3.867,0,0,0-1.083-.478.9.9,0,1,0-.466,1.738,2.093,2.093,0,0,1,1.548,2.02s0,.007,0,.01v1.437q0,.5.037.988a3.345,3.345,0,0,1-2.457-.935Zm36.267,28.3v2.069H59.532V57.547a2.106,2.106,0,0,1,2.1-2.1H63.47A2.106,2.106,0,0,1,65.573,57.547ZM42.03,44.931a.9.9,0,0,0,.76-.889V42.163a13.163,13.163,0,0,0,4.183-.008V44.05a.9.9,0,0,0,.756.888,9.1,9.1,0,0,1,2.571.819,5.474,5.474,0,0,1-10.888,0,9.1,9.1,0,0,1,2.617-.827Zm-4.265,1.863a7.3,7.3,0,0,0,6.192,5.612v2.9a.9.9,0,0,0,1.8,0v-2.9a7.3,7.3,0,0,0,6.192-5.61c.118.094.234.191.348.29V58.415a2.984,2.984,0,0,0,.252,1.2H35.417a3.925,3.925,0,0,0,.639-2.15V56.36a3.948,3.948,0,0,0-1.762-3.286,9.16,9.16,0,0,1,3.472-6.28ZM31,59.617a2.152,2.152,0,0,1-2.15-2.15V56.36A2.152,2.152,0,0,1,31,54.21h1.106a2.153,2.153,0,0,1,2.15,2.15v1.106a2.153,2.153,0,0,1-2.15,2.15Zm24.3,0a1.2,1.2,0,0,1-1.2-1.2V46.567A1.2,1.2,0,0,1,55.571,45.4l6.952,1.624v6.623h-.888a3.907,3.907,0,0,0-3.9,3.9v2.07Z" transform="translate(-17.278 0)"/>
          <path id="Path_1042476" data-name="Path 1042476" d="M419.912,404.439a.9.9,0,0,0,1.081.671l4.6-1.074a.9.9,0,0,0-.409-1.752l-4.6,1.074A.9.9,0,0,0,419.912,404.439Z" transform="translate(-371.592 -354.007)"/>
        </g>
      </g>
    </g>
  </g>
</svg>
