<svg xmlns="http://www.w3.org/2000/svg" xmlns:xlink="http://www.w3.org/1999/xlink" width="113" height="113" viewBox="0 0 113 113">
  <defs>
    <filter id="Path_982547" x="0" y="0" width="113" height="113" filterUnits="userSpaceOnUse">
      <feOffset dy="3" input="SourceAlpha"/>
      <feGaussianBlur stdDeviation="3" result="blur"/>
      <feFlood flood-opacity="0.161"/>
      <feComposite operator="in" in2="blur"/>
      <feComposite in="SourceGraphic"/>
    </filter>
  </defs>
  <g id="Group_1203804" data-name="Group 1203804" transform="translate(-1164 -2800)">
    <g id="Group_1203584" data-name="Group 1203584">
      <g id="Group_1202426" data-name="Group 1202426" transform="translate(0.5 1464)">
        <g id="Group_1178323" data-name="Group 1178323" transform="translate(0 424)">
          <g id="Group_1177681" data-name="Group 1177681" transform="translate(1172.5 918)">
            <g id="Group_1172010" data-name="Group 1172010">
              <g id="Group_1171046" data-name="Group 1171046">
                <g id="Group_1148525" data-name="Group 1148525">
                  <g transform="matrix(1, 0, 0, 1, -9, -6)" filter="url(#Path_982547)">
                    <g id="Path_982547-2" data-name="Path 982547" transform="translate(9 6)" fill="#edf3fc">
                      <path d="M 47.5 93.5 C 41.28937149047852 93.5 35.26533508300781 92.28397369384766 29.59518623352051 89.88570404052734 C 24.11771965026855 87.56893157958984 19.19813346862793 84.25196075439453 14.97309303283691 80.02691650390625 C 10.74804019927979 75.80186462402344 7.431066513061523 70.88229370117188 5.114293098449707 65.40481567382812 C 2.716026782989502 59.73468017578125 1.5 53.71062850952148 1.5 47.5 C 1.5 41.28937149047852 2.716026782989502 35.26533508300781 5.114293098449707 29.59518623352051 C 7.431066513061523 24.11771965026855 10.74804019927979 19.19813346862793 14.97309303283691 14.97309303283691 C 19.19813346862793 10.74804019927979 24.11771965026855 7.431066513061523 29.59518623352051 5.114293098449707 C 35.26533508300781 2.716026782989502 41.28937149047852 1.5 47.5 1.5 C 53.71062850952148 1.5 59.73468017578125 2.716026782989502 65.40481567382812 5.114293098449707 C 70.88229370117188 7.431066513061523 75.80186462402344 10.74804019927979 80.02691650390625 14.97309303283691 C 84.25196075439453 19.19813346862793 87.56893157958984 24.11771965026855 89.88570404052734 29.59518623352051 C 92.28397369384766 35.26533508300781 93.5 41.28937149047852 93.5 47.5 C 93.5 53.71062850952148 92.28397369384766 59.73468017578125 89.88570404052734 65.40481567382812 C 87.56893157958984 70.88229370117188 84.25196075439453 75.80186462402344 80.02691650390625 80.02691650390625 C 75.80186462402344 84.25196075439453 70.88229370117188 87.56893157958984 65.40481567382812 89.88570404052734 C 59.73468017578125 92.28397369384766 53.71062850952148 93.5 47.5 93.5 Z" stroke="none"/>
                      <path d="M 47.5 3 C 41.49121475219727 3 35.66376876831055 4.176155090332031 30.17950439453125 6.495796203613281 C 24.88084411621094 8.736953735351562 20.12152099609375 11.94598388671875 16.03375244140625 16.03375244140625 C 11.94598388671875 20.12152099609375 8.736953735351562 24.88084411621094 6.495796203613281 30.17950439453125 C 4.176155090332031 35.66376876831055 3 41.49121475219727 3 47.5 C 3 53.50878524780273 4.176155090332031 59.33623123168945 6.495796203613281 64.82049560546875 C 8.736953735351562 70.11915588378906 11.94598388671875 74.87847900390625 16.03375244140625 78.96624755859375 C 20.12152099609375 83.05401611328125 24.88084411621094 86.26304626464844 30.17950439453125 88.50419616699219 C 35.66376876831055 90.82384490966797 41.49121475219727 92 47.5 92 C 53.50878524780273 92 59.33623123168945 90.82384490966797 64.82049560546875 88.50419616699219 C 70.11915588378906 86.26304626464844 74.87847900390625 83.05401611328125 78.96624755859375 78.96624755859375 C 83.05401611328125 74.87847900390625 86.26304626464844 70.11915588378906 88.50419616699219 64.82049560546875 C 90.82384490966797 59.33623123168945 92 53.50878524780273 92 47.5 C 92 41.49121475219727 90.82384490966797 35.66376876831055 88.50419616699219 30.17950439453125 C 86.26304626464844 24.88084411621094 83.05401611328125 20.12152099609375 78.96624755859375 16.03375244140625 C 74.87847900390625 11.94598388671875 70.11915588378906 8.736953735351562 64.82049560546875 6.495796203613281 C 59.33623123168945 4.176155090332031 53.50878524780273 3 47.5 3 M 47.5 0 C 73.7335205078125 0 95 21.2664794921875 95 47.5 C 95 73.7335205078125 73.7335205078125 95 47.5 95 C 21.2664794921875 95 0 73.7335205078125 0 47.5 C 0 21.2664794921875 21.2664794921875 0 47.5 0 Z" stroke="none" fill="#5692e8"/>
                    </g>
                  </g>
                </g>
              </g>
            </g>
          </g>
        </g>
      </g>
      <g id="video-conferencia" transform="translate(1188 2820.887)">
        <g id="Group_1203582" data-name="Group 1203582" transform="translate(0.949 5.917)">
          <g id="Group_1203573" data-name="Group 1203573" transform="translate(26.473)">
            <path id="Path_1042428" data-name="Path 1042428" d="M226.7,50.955V56.96h-9.924V50.955a4.962,4.962,0,0,1,9.924,0Z" transform="translate(-216.773 -45.993)" fill="#bec6da"/>
            <path id="Path_1042429" data-name="Path 1042429" d="M238.53,45.992a4.938,4.938,0,0,0-2.53.694,4.959,4.959,0,0,1,2.432,4.269v6.005h5.06V50.954A4.962,4.962,0,0,0,238.53,45.992Z" transform="translate(-233.568 -45.992)" fill="#b3bacd"/>
            <path id="Path_1042430" data-name="Path 1042430" d="M243.581,74.6a1.8,1.8,0,1,1,1.8-1.8A1.8,1.8,0,0,1,243.581,74.6Z" transform="translate(-238.619 -67.838)" fill="#b5f4ff"/>
          </g>
          <path id="Path_1042431" data-name="Path 1042431" d="M78.541,152.8h-25.7l3.19-31.343h22.51Z" transform="translate(-47.105 -111.908)" fill="#686380"/>
          <path id="Path_1042432" data-name="Path 1042432" d="M281.7,152.8H256V121.454h22.39Z" transform="translate(-224.564 -111.908)" fill="#ffc9ea"/>
          <path id="Path_1042433" data-name="Path 1042433" d="M7.5,152.8h8.925V121.454H10.663A3.163,3.163,0,0,0,7.5,124.617Z" transform="translate(-7.5 -111.908)" fill="#f7fafa"/>
          <path id="Path_1042434" data-name="Path 1042434" d="M432.991,152.8h9.046v-28.18a3.163,3.163,0,0,0-3.163-3.163h-5.883Z" transform="translate(-379.166 -111.908)" fill="#f7fafa"/>
          <path id="Path_1042435" data-name="Path 1042435" d="M444.56,121.454H439.5a3.163,3.163,0,0,1,3.163,3.163V152.8h5.06v-28.18A3.163,3.163,0,0,0,444.56,121.454Z" transform="translate(-384.851 -111.908)" fill="#f2f5f5"/>
          <g id="Group_1203581" data-name="Group 1203581" transform="translate(0 12.116)">
            <g id="Group_1203574" data-name="Group 1203574" transform="translate(0 28.796)">
              <path id="Path_1042436" data-name="Path 1042436" d="M223.5,421.309H212.494l1.265-9.406L218,409.278l4.239,2.626Z" transform="translate(-186.562 -404.234)" fill="#bec6da"/>
              <path id="Path_1042437" data-name="Path 1042437" d="M67.209,377.076H10.663A3.163,3.163,0,0,1,7.5,373.913v-4.507H70.371v4.507A3.163,3.163,0,0,1,67.209,377.076Z" transform="translate(-7.5 -369.406)" fill="#d9deed"/>
              <path id="Path_1042438" data-name="Path 1042438" d="M442.663,369.406v4.507a3.163,3.163,0,0,1-3.163,3.163h5.06a3.163,3.163,0,0,0,3.163-3.163v-4.507Z" transform="translate(-384.851 -369.406)" fill="#ced3e1"/>
              <path id="Path_1042439" data-name="Path 1042439" d="M254.566,430.034h-5.06l1.265,9.406h5.06Z" transform="translate(-218.892 -422.364)" fill="#b3bacd"/>
            </g>
            <g id="Group_1203580" data-name="Group 1203580" transform="translate(12.497)">
              <g id="Group_1203576" data-name="Group 1203576" transform="translate(0 4.734)">
                <path id="Path_1042440" data-name="Path 1042440" d="M121.488,296.058h-15.2v-3.005a7.59,7.59,0,0,1,7.59-7.59h.019a7.59,7.59,0,0,1,7.59,7.59v3.005Z" transform="translate(-106.288 -272.02)" fill="#fee438"/>
                <g id="Group_1203575" data-name="Group 1203575" transform="translate(0.921)">
                  <path id="Path_1042441" data-name="Path 1042441" d="M120.163,179.193a6.676,6.676,0,0,1,6.761,6.672v3.112a6.679,6.679,0,1,1-13.359,0v-3.112A6.676,6.676,0,0,1,120.163,179.193Z" transform="translate(-113.565 -179.193)" fill="#ffead7"/>
                </g>
                <path id="Path_1042442" data-name="Path 1042442" d="M113.565,185.891a6.679,6.679,0,1,1,13.359,0Z" transform="translate(-112.644 -179.193)" fill="#cf9069"/>
              </g>
              <g id="Group_1203579" data-name="Group 1203579" transform="translate(22.371)">
                <circle id="Ellipse_12589" data-name="Ellipse 12589" cx="3.681" cy="3.681" r="3.681" transform="translate(3.938)" fill="#686380"/>
                <g id="Group_1203578" data-name="Group 1203578" transform="translate(0 4.616)">
                  <path id="Path_1042443" data-name="Path 1042443" d="M298.372,295.427H283.133v-3.013a7.61,7.61,0,0,1,7.61-7.61h.02a7.61,7.61,0,0,1,7.61,7.61v3.013Z" transform="translate(-283.133 -271.326)" fill="#d472e8"/>
                  <g id="Group_1203577" data-name="Group 1203577" transform="translate(0.923 4.886)">
                    <path id="Path_1042444" data-name="Path 1042444" d="M303.822,218.689v3.12a6.7,6.7,0,1,1-13.393,0v-3.12l6.7-1.8Z" transform="translate(-290.429 -216.886)" fill="#ffead7"/>
                  </g>
                  <path id="Path_1042445" data-name="Path 1042445" d="M290.428,184.975a6.7,6.7,0,1,1,13.393,0Z" transform="translate(-289.505 -178.26)" fill="#686380"/>
                </g>
              </g>
            </g>
          </g>
        </g>
        <g id="Group_1203583" data-name="Group 1203583" transform="translate(0 0.113)">
          <path id="Path_1042446" data-name="Path 1042446" d="M60.658,48.036H38.3V44.4a5.911,5.911,0,1,0-11.822,0v3.634H4.111A4.116,4.116,0,0,0,0,52.147H0V84.859a4.116,4.116,0,0,0,4.111,4.111h22.95l-1.01,7.508H19.8a.949.949,0,0,0,0,1.9H44.971a.949.949,0,0,0,0-1.9H38.718l-1.01-7.508H49.3a.949.949,0,0,0,0-1.9H4.111A2.216,2.216,0,0,1,1.9,84.859V81.3H62.871v3.558a2.216,2.216,0,0,1-2.214,2.214H54.774a.949.949,0,0,0,0,1.9h5.883a4.116,4.116,0,0,0,4.111-4.111V52.148h0A4.116,4.116,0,0,0,60.658,48.036ZM35.793,88.97l1.01,7.508H27.966l1.01-7.508Zm1.9-25.134h11.5v2.145a5.748,5.748,0,1,1-11.5,0V63.836Zm3.015-8.6a2.732,2.732,0,1,1,5.423.472,7.691,7.691,0,0,0-5.381,0,2.734,2.734,0,0,1-.043-.477Zm-2.134,4.585a5.834,5.834,0,0,1,5.658-2.647,5.77,5.77,0,0,1,4.879,4.763H37.766A5.74,5.74,0,0,1,38.569,59.822Zm.478,12.421a7.612,7.612,0,0,0,8.779,0,6.63,6.63,0,0,1,2.282,5.017v2.064H36.766V77.26A6.653,6.653,0,0,1,39.047,72.243Zm10.19-1.283a7.625,7.625,0,0,0,1.845-4.978v-3.12a7.69,7.69,0,0,0-3.229-6.235,4.63,4.63,0,1,0-8.83.009,7.737,7.737,0,0,0-3.232,6.226v3.12a7.625,7.625,0,0,0,1.846,4.979,8.546,8.546,0,0,0-2.769,6.3V79.4H33.333V49.935H53.825V79.4H52V77.26A8.515,8.515,0,0,0,49.237,70.96ZM15.315,63.937H26.776v2.137a5.731,5.731,0,1,1-11.461,0Zm2.062-5.361A5.722,5.722,0,0,1,26.7,62.039H15.393A5.752,5.752,0,0,1,17.377,58.576Zm-.711,13.746a7.6,7.6,0,0,0,8.756,0,6.67,6.67,0,0,1,2.274,5V79.38h-13.3V77.323a6.6,6.6,0,0,1,2.272-5Zm10.168-1.283a7.608,7.608,0,0,0,1.839-4.965V62.962a7.628,7.628,0,0,0-15.256,0v3.112a7.608,7.608,0,0,0,1.84,4.966A8.476,8.476,0,0,0,12.5,77.324V79.4H10.823V67.532a.949.949,0,0,0-1.9,0V79.38H1.9V52.148a2.216,2.216,0,0,1,2.214-2.214H8.925V62.323a.949.949,0,0,0,1.9,0V49.935H31.436V79.4H29.594v-2.08a8.576,8.576,0,0,0-2.76-6.284Zm28.888-21.1h4.935a2.216,2.216,0,0,1,2.214,2.214V79.38H55.723ZM28.371,44.4a4.014,4.014,0,0,1,8.027,0v3.634H28.371V44.4Z" transform="translate(0 -33.636)" fill="#060606"/>
          <path id="Path_1042447" data-name="Path 1042447" d="M237.03,63.5a2.747,2.747,0,1,0,2.747,2.747A2.75,2.75,0,0,0,237.03,63.5Zm0,3.6a.85.85,0,1,1,.85-.85A.851.851,0,0,1,237.03,67.1Z" transform="translate(-204.646 -55.483)" fill="#060606"/>
          <path id="Path_1042448" data-name="Path 1042448" d="M30.876,162.218H29a.949.949,0,0,0,0,1.9h1.879A.949.949,0,0,0,30.876,162.218Z" transform="translate(-24.525 -141.711)" fill="#060606"/>
          <path id="Path_1042449" data-name="Path 1042449" d="M31.549,192.035H29.9a.949.949,0,0,0,0,1.9h1.651A.949.949,0,0,0,31.549,192.035Z" transform="translate(-25.312 -167.757)" fill="#060606"/>
          <path id="Path_1042450" data-name="Path 1042450" d="M456.844,162.218h-1.88a.949.949,0,0,0,0,1.9h1.88A.949.949,0,0,0,456.844,162.218Z" transform="translate(-396.607 -141.711)" fill="#060606"/>
          <path id="Path_1042451" data-name="Path 1042451" d="M457.517,192.035h-1.651a.949.949,0,0,0,0,1.9h1.651A.949.949,0,0,0,457.517,192.035Z" transform="translate(-397.394 -167.757)" fill="#060606"/>
          <path id="Path_1042452" data-name="Path 1042452" d="M249.449,3.908a.949.949,0,0,0,.949-.949V1.033a.949.949,0,0,0-1.9,0V2.959A.949.949,0,0,0,249.449,3.908Z" transform="translate(-217.064 -0.113)" fill="#060606"/>
          <path id="Path_1042453" data-name="Path 1042453" d="M287.167,20.357a.946.946,0,0,0,.671-.278l1.362-1.362a.949.949,0,0,0-1.342-1.342L286.5,18.738A.972.972,0,0,0,287.167,20.357Z" transform="translate(-250.031 -14.947)" fill="#060606"/>
          <path id="Path_1042454" data-name="Path 1042454" d="M201.8,20.079a.949.949,0,0,0,1.342-1.342l-1.362-1.362a.949.949,0,0,0-1.342,1.342Z" transform="translate(-174.837 -14.947)" fill="#060606"/>
          <path id="Path_1042455" data-name="Path 1042455" d="M147.519,271.661a3.519,3.519,0,0,0,2.5-1.038.949.949,0,0,0-1.342-1.342,1.643,1.643,0,0,1-2.326,0,.949.949,0,0,0-1.342,1.342A3.518,3.518,0,0,0,147.519,271.661Z" transform="translate(-126.425 -234.986)" fill="#060606"/>
          <path id="Path_1042456" data-name="Path 1042456" d="M324.135,271.661a3.519,3.519,0,0,0,2.5-1.038.949.949,0,0,0-1.342-1.342,1.643,1.643,0,0,1-2.326,0,.949.949,0,0,0-1.342,1.342A3.519,3.519,0,0,0,324.135,271.661Z" transform="translate(-280.699 -234.986)" fill="#060606"/>
        </g>
      </g>
    </g>
  </g>
</svg>
