<svg xmlns="http://www.w3.org/2000/svg" xmlns:xlink="http://www.w3.org/1999/xlink" width="106.16" height="106.16" viewBox="0 0 106.16 106.16">
  <defs>
    <filter id="Path_982547" x="0" y="0" width="106.16" height="106.16" filterUnits="userSpaceOnUse">
      <feOffset dy="3" input="SourceAlpha"/>
      <feGaussianBlur stdDeviation="3" result="blur"/>
      <feFlood flood-opacity="0.161"/>
      <feComposite operator="in" in2="blur"/>
      <feComposite in="SourceGraphic"/>
    </filter>
  </defs>
  <g id="Group_1203797" data-name="Group 1203797" transform="translate(-824.92 -1870.612)">
    <g id="Group_1203395" data-name="Group 1203395">
      <g id="Group_1202421" data-name="Group 1202421" transform="translate(552.92 465.609)">
        <g id="Group_1177900" data-name="Group 1177900" transform="translate(281 1411.003)">
          <g id="Group_1172010" data-name="Group 1172010" transform="translate(0)">
            <g id="Group_1171046" data-name="Group 1171046">
              <g id="Group_1148525" data-name="Group 1148525">
                <g transform="matrix(1, 0, 0, 1, -9, -6)" filter="url(#Path_982547)">
                  <g id="Path_982547-2" data-name="Path 982547" transform="translate(9 6)" fill="#fdfbec">
                    <path d="M 44.0802001953125 86.660400390625 C 38.33124923706055 86.660400390625 32.75506210327148 85.53479766845703 27.50652503967285 83.31484985351562 C 22.43628692626953 81.17032623291016 17.88242530822754 78.09992218017578 13.97144985198975 74.18894958496094 C 10.06047534942627 70.27797698974609 6.99007511138916 65.72411346435547 4.845550060272217 60.65387344360352 C 2.625600099563599 55.40533828735352 1.500000238418579 49.82915115356445 1.500000238418579 44.0802001953125 C 1.500000238418579 38.33124923706055 2.625600099563599 32.75506210327148 4.845550060272217 27.50652503967285 C 6.99007511138916 22.43628692626953 10.06047534942627 17.88242530822754 13.97144985198975 13.97144985198975 C 17.88242530822754 10.06047534942627 22.43628692626953 6.99007511138916 27.50652503967285 4.845550060272217 C 32.75506210327148 2.625600099563599 38.33124923706055 1.500000238418579 44.0802001953125 1.500000238418579 C 49.82915115356445 1.500000238418579 55.40533828735352 2.625600099563599 60.65387344360352 4.845550060272217 C 65.72411346435547 6.99007511138916 70.27797698974609 10.06047534942627 74.18894958496094 13.97144985198975 C 78.09992218017578 17.88242530822754 81.17032623291016 22.43628692626953 83.31484985351562 27.50652503967285 C 85.53479766845703 32.75506210327148 86.660400390625 38.33124923706055 86.660400390625 44.0802001953125 C 86.660400390625 49.82915115356445 85.53479766845703 55.40533828735352 83.31484985351562 60.65387344360352 C 81.17032623291016 65.72411346435547 78.09992218017578 70.27797698974609 74.18894958496094 74.18894958496094 C 70.27797698974609 78.09992218017578 65.72411346435547 81.17032623291016 60.65387344360352 83.31484985351562 C 55.40533828735352 85.53479766845703 49.82915115356445 86.660400390625 44.0802001953125 86.660400390625 Z" stroke="none"/>
                    <path d="M 44.0802001953125 3 C 38.53308486938477 3 33.15349960327148 4.085746765136719 28.09085845947266 6.227058410644531 C 23.19941711425781 8.29595947265625 18.80581665039062 11.25841522216797 15.03211212158203 15.03211212158203 C 11.25841522216797 18.80581665039062 8.29595947265625 23.19941711425781 6.227058410644531 28.09085845947266 C 4.085746765136719 33.15349960327148 3 38.53308486938477 3 44.0802001953125 C 3 49.62731552124023 4.085746765136719 55.00691604614258 6.227058410644531 60.06954193115234 C 8.29595947265625 64.96098327636719 11.25841522216797 69.35458374023438 15.03211212158203 73.12828826904297 C 18.80581665039062 76.90198516845703 23.19941711425781 79.86444091796875 28.09085845947266 81.93334197998047 C 33.15349960327148 84.07466125488281 38.53308486938477 85.160400390625 44.0802001953125 85.160400390625 C 49.62731552124023 85.160400390625 55.00691604614258 84.07466125488281 60.06954193115234 81.93334197998047 C 64.96099853515625 79.86444091796875 69.35458374023438 76.90198516845703 73.12828826904297 73.12828826904297 C 76.90198516845703 69.35458374023438 79.86444091796875 64.96099853515625 81.93334197998047 60.06954193115234 C 84.07466125488281 55.00691604614258 85.160400390625 49.62731552124023 85.160400390625 44.0802001953125 C 85.160400390625 38.53308486938477 84.07466125488281 33.15349960327148 81.93334197998047 28.09085845947266 C 79.86444091796875 23.19941711425781 76.90198516845703 18.80581665039062 73.12828826904297 15.03211212158203 C 69.35458374023438 11.25841522216797 64.96098327636719 8.29595947265625 60.06954193115234 6.227058410644531 C 55.00691604614258 4.085746765136719 49.62731552124023 3 44.0802001953125 3 M 44.0802001953125 0 C 68.42502593994141 0 88.160400390625 19.73538970947266 88.160400390625 44.0802001953125 C 88.160400390625 68.42502593994141 68.42502593994141 88.160400390625 44.0802001953125 88.160400390625 C 19.73538970947266 88.160400390625 0 68.42502593994141 0 44.0802001953125 C 0 19.73538970947266 19.73538970947266 0 44.0802001953125 0 Z" stroke="none" fill="#83793c"/>
                  </g>
                </g>
              </g>
            </g>
          </g>
        </g>
      </g>
      <g id="abaco_2_" data-name="abaco (2)" transform="translate(853.156 1896.349)">
        <g id="Group_1203394" data-name="Group 1203394" transform="translate(0.728 0.728)">
          <g id="Group_1203392" data-name="Group 1203392">
            <path id="Path_1041770" data-name="Path 1041770" d="M108.911,39.733a2.92,2.92,0,0,0,2.911-2.911V33.91a2.911,2.911,0,1,0-5.823,0v2.911A2.92,2.92,0,0,0,108.911,39.733Z" transform="translate(-96.441 -28.719)" fill="#acf3f9" fill-rule="evenodd"/>
            <path id="Path_1041771" data-name="Path 1041771" d="M226,36.822a2.911,2.911,0,0,0,5.823,0V33.91a2.911,2.911,0,1,0-5.823,0Z" transform="translate(-204.796 -28.719)" fill="#acf3f9" fill-rule="evenodd"/>
            <path id="Path_1041772" data-name="Path 1041772" d="M286,36.822a2.911,2.911,0,0,0,5.823,0V33.91a2.911,2.911,0,1,0-5.823,0Z" transform="translate(-258.973 -28.719)" fill="#acf3f9" fill-rule="evenodd"/>
            <path id="Path_1041773" data-name="Path 1041773" d="M346,36.822a2.911,2.911,0,0,0,5.823,0V33.91a2.911,2.911,0,1,0-5.823,0Z" transform="translate(-313.15 -28.719)" fill="#acf3f9" fill-rule="evenodd"/>
            <path id="Path_1041774" data-name="Path 1041774" d="M40.411,7.5H37.5V55.732h2.911Zm39.5,0H77V55.732h2.911Z" transform="translate(-34.589 -7.5)" fill="#d2a47b" fill-rule="evenodd"/>
            <path id="Path_1041775" data-name="Path 1041775" d="M52.82,87.2V84.29h1.456a1.456,1.456,0,0,1,0,2.911Zm0-11.645V72.644h1.456a1.456,1.456,0,0,1,0,2.911H52.82ZM10.411,72.644v2.911H8.956a1.456,1.456,0,0,1,0-2.911h1.456Zm6.648,0v2.911H13.323V72.644Zm23.291,0v2.911H34.527V72.644Zm9.559,0v2.911H46.172V72.644ZM52.82,61V63.91h1.456a1.456,1.456,0,0,0,0-2.911H52.82ZM10.411,63.91V61H8.956a1.456,1.456,0,0,0,0,2.911h1.456ZM13.323,61V63.91h3.736V61Zm9.559,0V63.91H28.7V61Zm23.291,0V63.91h3.736V61ZM52.82,95.935v2.911h1.456a1.456,1.456,0,0,0,0-2.911H52.82ZM10.411,98.847V95.935H8.956a1.456,1.456,0,0,0,0,2.911h1.456Zm2.911-2.911v2.911h3.736V95.935Zm9.559,0v2.911H28.7V95.935Zm23.291,0v2.911h3.736V95.935ZM10.411,84.29V87.2H8.956a1.456,1.456,0,0,1,0-2.911Zm6.648,0V87.2H13.323V84.29Zm17.468,0V87.2H28.7V84.29Zm15.382,0V87.2H46.172V84.29Z" transform="translate(-7.5 -55.807)" fill="#bd815c" fill-rule="evenodd"/>
            <path id="Path_1041776" data-name="Path 1041776" d="M37.5,482v2.184h2.911V482ZM77,482v2.184h2.911V482Z" transform="translate(-34.589 -435.952)" fill="#bd815c" fill-rule="evenodd"/>
            <path id="Path_1041777" data-name="Path 1041777" d="M108.911,39.733A2.884,2.884,0,0,0,110,39.519a2.922,2.922,0,0,1-1.82-2.7V33.91a2.922,2.922,0,0,1,1.82-2.7A2.885,2.885,0,0,0,108.911,31,2.92,2.92,0,0,0,106,33.91v2.911A2.92,2.92,0,0,0,108.911,39.733Z" transform="translate(-96.441 -28.719)" fill="#5ceaee" fill-rule="evenodd"/>
            <path id="Path_1041778" data-name="Path 1041778" d="M228.911,39.733A2.884,2.884,0,0,0,230,39.519a2.922,2.922,0,0,1-1.82-2.7V33.91a2.922,2.922,0,0,1,1.82-2.7A2.884,2.884,0,0,0,228.911,31,2.92,2.92,0,0,0,226,33.91v2.911A2.92,2.92,0,0,0,228.911,39.733Z" transform="translate(-204.796 -28.719)" fill="#5ceaee" fill-rule="evenodd"/>
            <path id="Path_1041779" data-name="Path 1041779" d="M108.911,399.734a2.92,2.92,0,0,0,2.911-2.911v-2.911a2.911,2.911,0,0,0-5.823,0v2.911A2.92,2.92,0,0,0,108.911,399.734Z" transform="translate(-96.441 -353.783)" fill="#de95c2" fill-rule="evenodd"/>
            <path id="Path_1041780" data-name="Path 1041780" d="M226,396.823a2.911,2.911,0,1,0,5.823,0v-2.911a2.911,2.911,0,0,0-5.823,0Z" transform="translate(-204.796 -353.783)" fill="#de95c2" fill-rule="evenodd"/>
            <path id="Path_1041781" data-name="Path 1041781" d="M286,396.823a2.911,2.911,0,1,0,5.823,0v-2.911a2.911,2.911,0,0,0-5.823,0Z" transform="translate(-258.973 -353.783)" fill="#de95c2" fill-rule="evenodd"/>
            <path id="Path_1041782" data-name="Path 1041782" d="M346,396.823a2.911,2.911,0,1,0,5.823,0v-2.911a2.911,2.911,0,0,0-5.823,0Z" transform="translate(-313.15 -353.783)" fill="#de95c2" fill-rule="evenodd"/>
            <path id="Path_1041783" data-name="Path 1041783" d="M108.911,399.734A2.885,2.885,0,0,0,110,399.52a2.922,2.922,0,0,1-1.82-2.7v-2.911a2.922,2.922,0,0,1,1.82-2.7,2.884,2.884,0,0,0-1.092-.214A2.92,2.92,0,0,0,106,393.911v2.911A2.92,2.92,0,0,0,108.911,399.734Z" transform="translate(-96.441 -353.783)" fill="#da6eac" fill-rule="evenodd"/>
            <path id="Path_1041784" data-name="Path 1041784" d="M228.911,399.734A2.885,2.885,0,0,0,230,399.52a2.922,2.922,0,0,1-1.82-2.7v-2.911a2.922,2.922,0,0,1,1.82-2.7,2.885,2.885,0,0,0-1.092-.214A2.92,2.92,0,0,0,226,393.911v2.911A2.92,2.92,0,0,0,228.911,399.734Z" transform="translate(-204.796 -353.783)" fill="#da6eac" fill-rule="evenodd"/>
            <path id="Path_1041785" data-name="Path 1041785" d="M348.911,159.733A2.92,2.92,0,0,1,346,156.822V153.91a2.911,2.911,0,1,1,5.823,0v2.911A2.92,2.92,0,0,1,348.911,159.733Z" transform="translate(-313.15 -137.073)" fill="#fdef8e" fill-rule="evenodd"/>
            <path id="Path_1041786" data-name="Path 1041786" d="M231.823,156.822a2.911,2.911,0,0,1-5.823,0V153.91a2.911,2.911,0,1,1,5.823,0Z" transform="translate(-204.796 -137.073)" fill="#fdef8e" fill-rule="evenodd"/>
            <path id="Path_1041787" data-name="Path 1041787" d="M171.823,156.822a2.911,2.911,0,0,1-5.823,0V153.91a2.911,2.911,0,1,1,5.823,0Z" transform="translate(-150.618 -137.073)" fill="#fdef8e" fill-rule="evenodd"/>
            <path id="Path_1041788" data-name="Path 1041788" d="M111.823,156.822a2.911,2.911,0,0,1-5.823,0V153.91a2.911,2.911,0,1,1,5.823,0Z" transform="translate(-96.441 -137.073)" fill="#fdef8e" fill-rule="evenodd"/>
            <path id="Path_1041789" data-name="Path 1041789" d="M171.823,276.823a2.911,2.911,0,1,1-5.823,0v-2.911a2.911,2.911,0,0,1,5.823,0Z" transform="translate(-150.618 -245.429)" fill="#b5efbc" fill-rule="evenodd"/>
            <path id="Path_1041790" data-name="Path 1041790" d="M111.823,276.823a2.911,2.911,0,1,1-5.823,0v-2.911a2.911,2.911,0,0,1,5.823,0Z" transform="translate(-96.441 -245.429)" fill="#b5efbc" fill-rule="evenodd"/>
            <path id="Path_1041791" data-name="Path 1041791" d="M351.822,276.823a2.911,2.911,0,1,1-5.823,0v-2.911a2.911,2.911,0,1,1,5.823,0Z" transform="translate(-313.149 -245.429)" fill="#b5efbc" fill-rule="evenodd"/>
            <path id="Path_1041792" data-name="Path 1041792" d="M291.823,276.823a2.911,2.911,0,1,1-5.823,0v-2.911a2.911,2.911,0,0,1,5.823,0Z" transform="translate(-258.973 -245.429)" fill="#b5efbc" fill-rule="evenodd"/>
            <path id="Path_1041793" data-name="Path 1041793" d="M108.911,159.734A2.884,2.884,0,0,0,110,159.52a2.922,2.922,0,0,1-1.82-2.7v-2.911a2.922,2.922,0,0,1,1.82-2.7,2.884,2.884,0,0,0-1.092-.214A2.92,2.92,0,0,0,106,153.911v2.911A2.92,2.92,0,0,0,108.911,159.734Z" transform="translate(-96.441 -137.074)" fill="#fee026" fill-rule="evenodd"/>
            <path id="Path_1041794" data-name="Path 1041794" d="M108.911,279.734A2.884,2.884,0,0,0,110,279.52a2.922,2.922,0,0,1-1.82-2.7v-2.911a2.922,2.922,0,0,1,1.82-2.7,2.882,2.882,0,0,0-1.092-.214A2.92,2.92,0,0,0,106,273.911v2.911A2.92,2.92,0,0,0,108.911,279.734Z" transform="translate(-96.441 -245.429)" fill="#6ee0bc" fill-rule="evenodd"/>
            <path id="Path_1041795" data-name="Path 1041795" d="M288.911,279.734A2.884,2.884,0,0,0,290,279.52a2.922,2.922,0,0,1-1.82-2.7v-2.911a2.922,2.922,0,0,1,1.82-2.7,2.882,2.882,0,0,0-1.092-.214A2.92,2.92,0,0,0,286,273.911v2.911A2.92,2.92,0,0,0,288.911,279.734Z" transform="translate(-258.973 -245.429)" fill="#6ee0bc" fill-rule="evenodd"/>
            <path id="Path_1041796" data-name="Path 1041796" d="M348.911,159.734A2.884,2.884,0,0,0,350,159.52a2.922,2.922,0,0,1-1.82-2.7v-2.911a2.922,2.922,0,0,1,1.82-2.7,2.884,2.884,0,0,0-1.092-.214A2.92,2.92,0,0,0,346,153.911v2.911A2.92,2.92,0,0,0,348.911,159.734Z" transform="translate(-313.15 -137.074)" fill="#fee026" fill-rule="evenodd"/>
          </g>
          <g id="Group_1203393" data-name="Group 1203393" transform="translate(35.033 5.192)">
            <path id="Path_1041797" data-name="Path 1041797" d="M368.5,61h1.456v1.456H368.5Z" transform="translate(-368.5 -61)" fill="#fff"/>
          </g>
        </g>
        <path id="Path_1041798" data-name="Path 1041798" d="M47.5,21.2a2.184,2.184,0,0,0,0-4.367h-.728V9.559H47.5a2.184,2.184,0,0,0,0-4.367h-.728V0H42.409V5.192H40.055a3.638,3.638,0,0,0-6.477-1.453,3.635,3.635,0,0,0-5.823,0,3.638,3.638,0,0,0-6.477,1.453H16.764a3.64,3.64,0,0,0-7.132,0H7.278V0H2.911V5.192H2.183a2.184,2.184,0,0,0,0,4.367h.728V12.47H4.367V1.456H5.823V48.232H4.367V13.926H2.911v2.911H2.183a2.184,2.184,0,0,0,0,4.367h.728v7.278H2.183a2.184,2.184,0,0,0,0,4.367h.728v7.278H2.183a2.184,2.184,0,0,0,0,4.367h.728v5.192H7.278V44.5H9.632a3.64,3.64,0,0,0,7.132,0h4.513a3.638,3.638,0,0,0,6.477,1.453,3.635,3.635,0,0,0,5.823,0A3.638,3.638,0,0,0,40.055,44.5h2.354v5.192h4.367V44.5H47.5a2.184,2.184,0,0,0,0-4.367h-.728V37.217H45.32V48.232H43.865V1.456H45.32V35.761h1.456V32.85H47.5a2.184,2.184,0,0,0,0-4.367h-.728V21.2ZM2.183,8.1a.728.728,0,0,1,0-1.456h.728V8.1Zm0,11.645a.728.728,0,0,1,0-1.456h.728v1.456Zm0,11.645a.728.728,0,0,1,0-1.456h.728v1.456Zm0,11.645a.728.728,0,0,1,0-1.456h.728V43.04ZM47.5,41.584a.728.728,0,0,1,0,1.456h-.728V41.584ZM42.409,6.648V8.1H40.128V6.648Zm-5.92-2.911A2.186,2.186,0,0,1,38.673,5.92V8.831a2.184,2.184,0,1,1-4.367,0V5.92A2.186,2.186,0,0,1,36.489,3.736Zm-5.823,0A2.186,2.186,0,0,1,32.85,5.92V8.831a2.184,2.184,0,1,1-4.367,0V5.92A2.186,2.186,0,0,1,30.666,3.736ZM22.66,5.92a2.184,2.184,0,0,1,4.367,0V8.831a2.184,2.184,0,1,1-4.367,0ZM21.2,8.1H16.837V6.648H21.2ZM11.015,5.92a2.184,2.184,0,1,1,4.367,0V8.831a2.184,2.184,0,1,1-4.367,0ZM13.2,12.47a3.645,3.645,0,0,0,3.566-2.911h4.513a3.638,3.638,0,0,0,6.477,1.453,3.635,3.635,0,0,0,5.823,0,3.638,3.638,0,0,0,6.477-1.453h2.354v7.278H40.055a3.64,3.64,0,0,0-7.132,0H28.41a3.638,3.638,0,0,0-6.477-1.453,3.635,3.635,0,0,0-5.823,0,3.638,3.638,0,0,0-6.477,1.453H7.278V9.559H9.632A3.645,3.645,0,0,0,13.2,12.47Zm26.93,17.468h2.281v1.456H40.128Zm-.073-1.456a3.638,3.638,0,0,0-6.477-1.453A3.638,3.638,0,0,0,27.1,28.483H22.587A3.638,3.638,0,0,0,16.11,27.03a3.638,3.638,0,0,0-6.477,1.453H7.278V21.2H9.632a3.638,3.638,0,0,0,6.477,1.453,3.635,3.635,0,0,0,5.823,0A3.638,3.638,0,0,0,28.41,21.2h4.513a3.64,3.64,0,0,0,7.132,0h2.354v7.278ZM32.85,32.122a2.184,2.184,0,0,1-4.367,0V29.211a2.184,2.184,0,0,1,4.367,0Zm1.456-2.911a2.184,2.184,0,1,1,4.367,0v2.911a2.184,2.184,0,1,1-4.367,0Zm-7.278,2.184H22.66V29.938h4.367Zm-11.645.728a2.184,2.184,0,1,1-4.367,0V29.211a2.184,2.184,0,0,1,4.367,0Zm1.456-2.911a2.184,2.184,0,0,1,4.367,0v2.911a2.184,2.184,0,1,1-4.367,0ZM9.559,31.394H7.278V29.938H9.559Zm0-11.645H7.278V18.293H9.559Zm13.1-2.184a2.184,2.184,0,0,1,4.367,0v2.911a2.184,2.184,0,0,1-4.367,0ZM21.2,20.477a2.184,2.184,0,0,1-4.367,0V17.565a2.184,2.184,0,0,1,4.367,0Zm-5.823,0a2.184,2.184,0,0,1-4.367,0V17.565a2.184,2.184,0,0,1,4.367,0Zm13.1-2.184H32.85v1.456H28.483Zm5.823,2.184V17.565a2.184,2.184,0,1,1,4.367,0v2.911a2.184,2.184,0,1,1-4.367,0Zm5.823-.728V18.293h2.281v1.456ZM9.559,6.648V8.1H7.278V6.648ZM7.278,41.584H9.559V43.04H7.278Zm8.1,2.184a2.184,2.184,0,0,1-4.367,0V40.856a2.184,2.184,0,1,1,4.367,0Zm1.456-2.184H21.2V43.04H16.837Zm8.006,4.367a2.186,2.186,0,0,1-2.184-2.184V40.856a2.184,2.184,0,0,1,4.367,0v2.911A2.186,2.186,0,0,1,24.844,45.951Zm5.823,0a2.186,2.186,0,0,1-2.184-2.184V40.856a2.184,2.184,0,0,1,4.367,0v2.911A2.186,2.186,0,0,1,30.666,45.951Zm8.006-2.184a2.184,2.184,0,0,1-4.367,0V40.856a2.184,2.184,0,1,1,4.367,0Zm-2.184-6.551a3.636,3.636,0,0,0-2.911,1.458,3.635,3.635,0,0,0-5.823,0,3.638,3.638,0,0,0-6.477,1.453H16.764a3.64,3.64,0,0,0-7.132,0H7.278V32.85H9.632A3.638,3.638,0,0,0,16.11,34.3a3.638,3.638,0,0,0,6.477-1.453H27.1A3.638,3.638,0,0,0,33.578,34.3a3.638,3.638,0,0,0,6.477-1.453h2.354v7.278H40.055A3.645,3.645,0,0,0,36.489,37.217Zm3.639,5.823V41.584h2.281V43.04ZM47.5,18.293a.728.728,0,0,1,0,1.456h-.728V18.293Zm0-11.645a.728.728,0,0,1,0,1.456h-.728V6.648Zm0,23.291a.728.728,0,0,1,0,1.456h-.728V29.938Z" transform="translate(0)"/>
      </g>
    </g>
  </g>
</svg>
