<svg xmlns="http://www.w3.org/2000/svg" xmlns:xlink="http://www.w3.org/1999/xlink" width="106.16" height="106.16" viewBox="0 0 106.16 106.16">
  <defs>
    <filter id="Path_982547" x="0" y="0" width="106.16" height="106.16" filterUnits="userSpaceOnUse">
      <feOffset dy="3" input="SourceAlpha"/>
      <feGaussianBlur stdDeviation="3" result="blur"/>
      <feFlood flood-opacity="0.161"/>
      <feComposite operator="in" in2="blur"/>
      <feComposite in="SourceGraphic"/>
    </filter>
  </defs>
  <g id="Group_1203796" data-name="Group 1203796" transform="translate(-195 -1871)">
    <g id="Group_1203397" data-name="Group 1203397">
      <g id="Group_1203391" data-name="Group 1203391">
        <g id="Group_1202420" data-name="Group 1202420" transform="translate(-77 465.997)">
          <g id="Group_1177900" data-name="Group 1177900" transform="translate(281 1411.003)">
            <g id="Group_1172010" data-name="Group 1172010" transform="translate(0)">
              <g id="Group_1171046" data-name="Group 1171046">
                <g id="Group_1148525" data-name="Group 1148525">
                  <g transform="matrix(1, 0, 0, 1, -9, -6)" filter="url(#Path_982547)">
                    <g id="Path_982547-2" data-name="Path 982547" transform="translate(9 6)" fill="#fdfbec">
                      <path d="M 44.0802001953125 86.660400390625 C 38.33124923706055 86.660400390625 32.75506210327148 85.53479766845703 27.50652503967285 83.31484985351562 C 22.43628692626953 81.17032623291016 17.88242530822754 78.09992218017578 13.97144985198975 74.18894958496094 C 10.06047534942627 70.27797698974609 6.99007511138916 65.72411346435547 4.845550060272217 60.65387344360352 C 2.625600099563599 55.40533828735352 1.500000238418579 49.82915115356445 1.500000238418579 44.0802001953125 C 1.500000238418579 38.33124923706055 2.625600099563599 32.75506210327148 4.845550060272217 27.50652503967285 C 6.99007511138916 22.43628692626953 10.06047534942627 17.88242530822754 13.97144985198975 13.97144985198975 C 17.88242530822754 10.06047534942627 22.43628692626953 6.99007511138916 27.50652503967285 4.845550060272217 C 32.75506210327148 2.625600099563599 38.33124923706055 1.500000238418579 44.0802001953125 1.500000238418579 C 49.82915115356445 1.500000238418579 55.40533828735352 2.625600099563599 60.65387344360352 4.845550060272217 C 65.72411346435547 6.99007511138916 70.27797698974609 10.06047534942627 74.18894958496094 13.97144985198975 C 78.09992218017578 17.88242530822754 81.17032623291016 22.43628692626953 83.31484985351562 27.50652503967285 C 85.53479766845703 32.75506210327148 86.660400390625 38.33124923706055 86.660400390625 44.0802001953125 C 86.660400390625 49.82915115356445 85.53479766845703 55.40533828735352 83.31484985351562 60.65387344360352 C 81.17032623291016 65.72411346435547 78.09992218017578 70.27797698974609 74.18894958496094 74.18894958496094 C 70.27797698974609 78.09992218017578 65.72411346435547 81.17032623291016 60.65387344360352 83.31484985351562 C 55.40533828735352 85.53479766845703 49.82915115356445 86.660400390625 44.0802001953125 86.660400390625 Z" stroke="none"/>
                      <path d="M 44.0802001953125 3 C 38.53308486938477 3 33.15349960327148 4.085746765136719 28.09085845947266 6.227058410644531 C 23.19941711425781 8.29595947265625 18.80581665039062 11.25841522216797 15.03211212158203 15.03211212158203 C 11.25841522216797 18.80581665039062 8.29595947265625 23.19941711425781 6.227058410644531 28.09085845947266 C 4.085746765136719 33.15349960327148 3 38.53308486938477 3 44.0802001953125 C 3 49.62731552124023 4.085746765136719 55.00691604614258 6.227058410644531 60.06954193115234 C 8.29595947265625 64.96098327636719 11.25841522216797 69.35458374023438 15.03211212158203 73.12828826904297 C 18.80581665039062 76.90198516845703 23.19941711425781 79.86444091796875 28.09085845947266 81.93334197998047 C 33.15349960327148 84.07466125488281 38.53308486938477 85.160400390625 44.0802001953125 85.160400390625 C 49.62731552124023 85.160400390625 55.00691604614258 84.07466125488281 60.06954193115234 81.93334197998047 C 64.96099853515625 79.86444091796875 69.35458374023438 76.90198516845703 73.12828826904297 73.12828826904297 C 76.90198516845703 69.35458374023438 79.86444091796875 64.96099853515625 81.93334197998047 60.06954193115234 C 84.07466125488281 55.00691604614258 85.160400390625 49.62731552124023 85.160400390625 44.0802001953125 C 85.160400390625 38.53308486938477 84.07466125488281 33.15349960327148 81.93334197998047 28.09085845947266 C 79.86444091796875 23.19941711425781 76.90198516845703 18.80581665039062 73.12828826904297 15.03211212158203 C 69.35458374023438 11.25841522216797 64.96098327636719 8.29595947265625 60.06954193115234 6.227058410644531 C 55.00691604614258 4.085746765136719 49.62731552124023 3 44.0802001953125 3 M 44.0802001953125 0 C 68.42502593994141 0 88.160400390625 19.73538970947266 88.160400390625 44.0802001953125 C 88.160400390625 68.42502593994141 68.42502593994141 88.160400390625 44.0802001953125 88.160400390625 C 19.73538970947266 88.160400390625 0 68.42502593994141 0 44.0802001953125 C 0 19.73538970947266 19.73538970947266 0 44.0802001953125 0 Z" stroke="none" fill="#83793c"/>
                    </g>
                  </g>
                </g>
              </g>
            </g>
          </g>
        </g>
      </g>
      <g id="cubo" transform="translate(192.182 1890)">
        <g id="Group_1203396" data-name="Group 1203396" transform="translate(29.727 0.909)">
          <path id="Path_1041799" data-name="Path 1041799" d="M56.828,241.33l-10.3-6.191,10.3-6.192,10.3,6.192Z" transform="translate(-45.287 -202.108)" fill="#68e7fd"/>
          <path id="Path_1041800" data-name="Path 1041800" d="M46.524,280.033V292.72l10.3,6.192V286.224Z" transform="translate(-45.287 -247.002)" fill="#00c1fc"/>
          <path id="Path_1041801" data-name="Path 1041801" d="M141.845,280.033l-10.3,6.191v12.687l10.3-6.192Z" transform="translate(-120 -247.002)" fill="#00dcfc"/>
          <path id="Path_1041802" data-name="Path 1041802" d="M305.745,241.33l-10.3-6.191,10.3-6.192,10.3,6.192Z" transform="translate(-264.036 -202.108)" fill="#68e7fd"/>
          <path id="Path_1041803" data-name="Path 1041803" d="M295.441,280.033V292.72l10.3,6.192V286.224Z" transform="translate(-264.036 -247.002)" fill="#00c1fc"/>
          <path id="Path_1041804" data-name="Path 1041804" d="M390.762,280.033l-10.3,6.191v12.687l10.3-6.192Z" transform="translate(-338.749 -247.002)" fill="#00dcfc"/>
          <path id="Path_1041805" data-name="Path 1041805" d="M181.286,310.035l-10.3-6.192,10.3-6.191,10.3,6.191Z" transform="translate(-154.661 -262.486)" fill="#00e499"/>
          <path id="Path_1041806" data-name="Path 1041806" d="M170.982,348.737v12.687l10.3,6.192V354.929Z" transform="translate(-154.661 -307.379)" fill="#00b594"/>
          <path id="Path_1041807" data-name="Path 1041807" d="M266.3,348.737,256,354.929v12.687l10.3-6.192Z" transform="translate(-229.375 -307.379)" fill="#00d38e"/>
          <path id="Path_1041808" data-name="Path 1041808" d="M181.286,19.882l-10.3-6.191,10.3-6.192,10.3,6.192Z" transform="translate(-154.661 -7.499)" fill="#ff94be"/>
          <path id="Path_1041809" data-name="Path 1041809" d="M170.982,58.585V71.272l10.3,6.192V64.776Z" transform="translate(-154.661 -52.393)" fill="#ff5597"/>
          <path id="Path_1041810" data-name="Path 1041810" d="M266.3,58.585,256,64.776V77.463l10.3-6.192Z" transform="translate(-229.375 -52.393)" fill="#ff77ab"/>
          <path id="Path_1041811" data-name="Path 1041811" d="M46.622,93.437l-10.3-6.191,10.3-6.192,10.3,6.192Z" transform="translate(-36.318 -72.139)" fill="#ffea76"/>
          <path id="Path_1041812" data-name="Path 1041812" d="M36.318,132.14v12.687l10.3,6.191V138.331Z" transform="translate(-36.318 -117.034)" fill="#ffc25e"/>
          <path id="Path_1041813" data-name="Path 1041813" d="M131.64,132.14l-10.3,6.191v12.687l10.3-6.191Z" transform="translate(-111.032 -117.034)" fill="#ffd250"/>
          <path id="Path_1041814" data-name="Path 1041814" d="M315.95,93.437l-10.3-6.191,10.3-6.192,10.3,6.192Z" transform="translate(-273.004 -72.139)" fill="#ffea76"/>
          <path id="Path_1041815" data-name="Path 1041815" d="M305.646,132.14v12.687l10.3,6.191V138.331Z" transform="translate(-273.004 -117.034)" fill="#ffc25e"/>
          <path id="Path_1041816" data-name="Path 1041816" d="M400.967,132.14l-10.3,6.191v12.687l10.3-6.191Z" transform="translate(-347.717 -117.034)" fill="#ffd250"/>
          <path id="Path_1041817" data-name="Path 1041817" d="M181.286,162.141l-10.3-6.192,10.3-6.192,10.3,6.192Z" transform="translate(-154.661 -132.516)" fill="#ffab56"/>
          <path id="Path_1041818" data-name="Path 1041818" d="M170.982,200.844v12.687l10.3,6.192V207.036Z" transform="translate(-154.661 -177.411)" fill="#ff7e3d"/>
          <path id="Path_1041819" data-name="Path 1041819" d="M266.3,200.844,256,207.036v12.687l10.3-6.192Z" transform="translate(-229.375 -177.411)" fill="#ff982a"/>
        </g>
        <path id="Path_1041820" data-name="Path 1041820" d="M83.446,15.236l-10.3-6.191a.909.909,0,0,0-.937,0l-4.64,2.788V7.1a.9.9,0,0,0-.441-.779L56.82.13a.909.909,0,0,0-.936,0l-2.87,1.724a.909.909,0,0,0,.937,1.558l2.4-1.443L64.891,7.1l-8.539,5.131L47.813,7.1l3.045-1.83a.909.909,0,0,0-.937-1.558L45.58,6.321a.91.91,0,0,0-.441.779v4.732L40.5,9.045a.909.909,0,0,0-.937,0l-10.3,6.191a.91.91,0,0,0-.441.779V28.7a.909.909,0,0,0,.441.779l3.68,2.211L30.5,33.161a.91.91,0,0,0-.441.779V46.626a.909.909,0,0,0,.441.779l2.627,1.578a.909.909,0,1,0,.937-1.558l-2.186-1.314V35.546l.5.3,7.984,4.8V51.211l-3.212-1.93a.909.909,0,0,0-.937,1.558L40.8,53.6a.913.913,0,0,0,.937,0l3.4-2.045v3.4a.909.909,0,0,0,.441.779l10.3,6.192a.909.909,0,0,0,.937,0l10.3-6.192a.909.909,0,0,0,.441-.779v-3.4l3.4,2.045a.912.912,0,0,0,.937,0l10.3-6.192a.909.909,0,0,0,.441-.779V41.868a.909.909,0,1,0-1.818,0v4.244l-8.486,5.1V40.645l7.984-4.8.5-.3v2.678a.909.909,0,1,0,1.818,0V33.94a.909.909,0,0,0-.441-.779l-2.443-1.468,3.68-2.211a.909.909,0,0,0,.441-.779V16.015a.908.908,0,0,0-.441-.779ZM56.352,47.4l-8.539-5.131,2.594-1.558L55.884,44a.909.909,0,0,0,.937,0L62.3,40.708l2.594,1.558Zm0-28.187,8.539,5.131-8.539,5.131-8.539-5.131ZM40.94,22.721l8.446-5.075.04-.024v3.63L45.58,23.563a.911.911,0,0,0-.441.779v6.421l-4.2,2.523Zm6.017,13.793V25.949l8.486,5.1V41.614Zm10.3,5.1V31.048l8.486-5.1V36.514Zm10.3-17.271a.914.914,0,0,0-.441-.779l-3.846-2.311v-3.63l1.826,1.1,6.66,4V33.287l-4.2-2.523V24.342Zm5.108-13.458,8.539,5.131-8.539,5.131-8.539-5.131ZM61.9,15.236a.91.91,0,0,0-.441.779v4.144l-4.2-2.523v-3.83l8.486-5.1v4.218ZM46.957,8.707l8.486,5.1v3.83l-4.2,2.523V16.015a.91.91,0,0,0-.441-.779l-3.846-2.311V8.707Zm-6.926,2.177,8.539,5.131-8.539,5.131-8.539-5.131Zm-9.395,6.738,8.486,5.1V33.287l-8.486-5.1Zm8.927,18.051a.909.909,0,0,0,.936,0l4.64-2.788v3.86l-3.871,2.326L32.729,33.94,34.7,32.753Zm2.614,15.539V40.646L46.24,38.2l2.4,1.443-3.062,1.84a.911.911,0,0,0-.441.779v7.165Zm4.78-7.338,1.826,1.1,6.66,4V59.538l-8.486-5.1Zm18.79,10.566-8.486,5.1V48.972l6.66-4,1.826-1.1Zm1.818-12.172a.943.943,0,0,0-.441-.779l-3.062-1.84,2.4-1.443,4.063,2.441V51.211l-2.962-1.78Zm12.41-8.327-8.539,5.131-3.871-2.326v-3.86l4.64,2.788a.911.911,0,0,0,.937,0L78,32.753Zm2.093-5.752-8.486,5.1V22.721l6.66-4,1.826-1.1Z" transform="translate(0 0)"/>
      </g>
    </g>
  </g>
</svg>
