<svg xmlns="http://www.w3.org/2000/svg" xmlns:xlink="http://www.w3.org/1999/xlink" width="106.16" height="106.16" viewBox="0 0 106.16 106.16">
  <defs>
    <filter id="Path_982547" x="0" y="0" width="106.16" height="106.16" filterUnits="userSpaceOnUse">
      <feOffset dy="3" input="SourceAlpha"/>
      <feGaussianBlur stdDeviation="3" result="blur"/>
      <feFlood flood-opacity="0.161"/>
      <feComposite operator="in" in2="blur"/>
      <feComposite in="SourceGraphic"/>
    </filter>
  </defs>
  <g id="Group_1203815" data-name="Group 1203815" transform="translate(-194.92 -5426.132)">
    <g id="Group_1203600" data-name="Group 1203600">
      <g id="Group_1202430" data-name="Group 1202430" transform="translate(-77.08 4021.129)">
        <g id="Group_1177900" data-name="Group 1177900" transform="translate(281 1411.003)">
          <g id="Group_1172010" data-name="Group 1172010" transform="translate(0)">
            <g id="Group_1171046" data-name="Group 1171046">
              <g id="Group_1148525" data-name="Group 1148525">
                <g transform="matrix(1, 0, 0, 1, -9, -6)" filter="url(#Path_982547)">
                  <g id="Path_982547-2" data-name="Path 982547" transform="translate(9 6)" fill="#fdfbec">
                    <path d="M 44.0802001953125 86.660400390625 C 38.33124923706055 86.660400390625 32.75506210327148 85.53479766845703 27.50652503967285 83.31484985351562 C 22.43628692626953 81.17032623291016 17.88242530822754 78.09992218017578 13.97144985198975 74.18894958496094 C 10.06047534942627 70.27797698974609 6.99007511138916 65.72411346435547 4.845550060272217 60.65387344360352 C 2.625600099563599 55.40533828735352 1.500000238418579 49.82915115356445 1.500000238418579 44.0802001953125 C 1.500000238418579 38.33124923706055 2.625600099563599 32.75506210327148 4.845550060272217 27.50652503967285 C 6.99007511138916 22.43628692626953 10.06047534942627 17.88242530822754 13.97144985198975 13.97144985198975 C 17.88242530822754 10.06047534942627 22.43628692626953 6.99007511138916 27.50652503967285 4.845550060272217 C 32.75506210327148 2.625600099563599 38.33124923706055 1.500000238418579 44.0802001953125 1.500000238418579 C 49.82915115356445 1.500000238418579 55.40533828735352 2.625600099563599 60.65387344360352 4.845550060272217 C 65.72411346435547 6.99007511138916 70.27797698974609 10.06047534942627 74.18894958496094 13.97144985198975 C 78.09992218017578 17.88242530822754 81.17032623291016 22.43628692626953 83.31484985351562 27.50652503967285 C 85.53479766845703 32.75506210327148 86.660400390625 38.33124923706055 86.660400390625 44.0802001953125 C 86.660400390625 49.82915115356445 85.53479766845703 55.40533828735352 83.31484985351562 60.65387344360352 C 81.17032623291016 65.72411346435547 78.09992218017578 70.27797698974609 74.18894958496094 74.18894958496094 C 70.27797698974609 78.09992218017578 65.72411346435547 81.17032623291016 60.65387344360352 83.31484985351562 C 55.40533828735352 85.53479766845703 49.82915115356445 86.660400390625 44.0802001953125 86.660400390625 Z" stroke="none"/>
                    <path d="M 44.0802001953125 3 C 38.53308486938477 3 33.15349960327148 4.085746765136719 28.09085845947266 6.227058410644531 C 23.19941711425781 8.29595947265625 18.80581665039062 11.25841522216797 15.03211212158203 15.03211212158203 C 11.25841522216797 18.80581665039062 8.29595947265625 23.19941711425781 6.227058410644531 28.09085845947266 C 4.085746765136719 33.15349960327148 3 38.53308486938477 3 44.0802001953125 C 3 49.62731552124023 4.085746765136719 55.00691604614258 6.227058410644531 60.06954193115234 C 8.29595947265625 64.96098327636719 11.25841522216797 69.35458374023438 15.03211212158203 73.12828826904297 C 18.80581665039062 76.90198516845703 23.19941711425781 79.86444091796875 28.09085845947266 81.93334197998047 C 33.15349960327148 84.07466125488281 38.53308486938477 85.160400390625 44.0802001953125 85.160400390625 C 49.62731552124023 85.160400390625 55.00691604614258 84.07466125488281 60.06954193115234 81.93334197998047 C 64.96099853515625 79.86444091796875 69.35458374023438 76.90198516845703 73.12828826904297 73.12828826904297 C 76.90198516845703 69.35458374023438 79.86444091796875 64.96099853515625 81.93334197998047 60.06954193115234 C 84.07466125488281 55.00691604614258 85.160400390625 49.62731552124023 85.160400390625 44.0802001953125 C 85.160400390625 38.53308486938477 84.07466125488281 33.15349960327148 81.93334197998047 28.09085845947266 C 79.86444091796875 23.19941711425781 76.90198516845703 18.80581665039062 73.12828826904297 15.03211212158203 C 69.35458374023438 11.25841522216797 64.96098327636719 8.29595947265625 60.06954193115234 6.227058410644531 C 55.00691604614258 4.085746765136719 49.62731552124023 3 44.0802001953125 3 M 44.0802001953125 0 C 68.42502593994141 0 88.160400390625 19.73538970947266 88.160400390625 44.0802001953125 C 88.160400390625 68.42502593994141 68.42502593994141 88.160400390625 44.0802001953125 88.160400390625 C 19.73538970947266 88.160400390625 0 68.42502593994141 0 44.0802001953125 C 0 19.73538970947266 19.73538970947266 0 44.0802001953125 0 Z" stroke="none" fill="#83793c"/>
                  </g>
                </g>
              </g>
            </g>
          </g>
        </g>
      </g>
      <g id="hoja-de-calculo" transform="translate(222.832 5450.959)">
        <g id="Group_1203598" data-name="Group 1203598" transform="translate(0.74 0.744)">
          <g id="Group_1203595" data-name="Group 1203595">
            <path id="Path_1042518" data-name="Path 1042518" d="M51.01,53.309h-38A5.508,5.508,0,0,1,7.5,47.8V13.009A5.508,5.508,0,0,1,13.008,7.5h38a5.508,5.508,0,0,1,5.508,5.508V47.8a5.508,5.508,0,0,1-5.508,5.508Z" transform="translate(-7.5 -7.5)" fill="#9dc6fb"/>
            <path id="Path_1042519" data-name="Path 1042519" d="M15.075,53.3H13.008A5.507,5.507,0,0,1,7.5,47.8V13A5.508,5.508,0,0,1,13.008,7.5h2.066A5.508,5.508,0,0,0,9.566,13V47.8A5.507,5.507,0,0,0,15.075,53.3Z" transform="translate(-7.5 -7.495)" fill="#80b4fb"/>
            <path id="Path_1042520" data-name="Path 1042520" d="M80.6,100.407v28.325a2.549,2.549,0,0,1-2.549,2.549h-38a2.549,2.549,0,0,1-2.549-2.549V100.407a3.121,3.121,0,0,1,3.121-3.121H77.479A3.121,3.121,0,0,1,80.6,100.407Z" transform="translate(-34.541 -88.43)" fill="#f1f4f6"/>
            <path id="Path_1042521" data-name="Path 1042521" d="M43.262,131.285H40.049a2.549,2.549,0,0,1-2.549-2.549V100.411a3.121,3.121,0,0,1,3.121-3.121h3.213a3.12,3.12,0,0,0-3.121,3.121v28.326A2.549,2.549,0,0,0,43.262,131.285Z" transform="translate(-34.541 -88.434)" fill="#dddaec"/>
            <g id="Group_1203594" data-name="Group 1203594" transform="translate(2.959 2.723)">
              <circle id="Ellipse_12596" data-name="Ellipse 12596" cx="1.804" cy="1.804" r="1.804" fill="#dd636e"/>
              <circle id="Ellipse_12597" data-name="Ellipse 12597" cx="1.804" cy="1.804" r="1.804" transform="translate(5.735)" fill="#dd636e"/>
              <circle id="Ellipse_12598" data-name="Ellipse 12598" cx="1.804" cy="1.804" r="1.804" transform="translate(11.47)" fill="#dd636e"/>
            </g>
          </g>
          <path id="Path_1042522" data-name="Path 1042522" d="M95.072,139.845v14.394a2.56,2.56,0,0,1-2.559,2.559H74.739a2.56,2.56,0,0,1-2.559-2.559V139.845a2.56,2.56,0,0,1,2.559-2.56H92.513A2.56,2.56,0,0,1,95.072,139.845Z" transform="translate(-65.801 -124.484)" fill="#c8ea73"/>
          <path id="Path_1042523" data-name="Path 1042523" d="M89.31,285.231v4.922H74.738a2.56,2.56,0,0,1-2.559-2.559v-2.363Z" transform="translate(-65.8 -257.839)" fill="#dd636e"/>
          <path id="Path_1042524" data-name="Path 1042524" d="M72.179,236.211H89.31v4.835H72.179Z" transform="translate(-65.8 -213.653)" fill="#f5de7d"/>
          <path id="Path_1042525" data-name="Path 1042525" d="M251.636,285.231v2.362a2.56,2.56,0,0,1-2.56,2.56h-3.2v-4.922Z" transform="translate(-222.364 -257.839)" fill="#f5de7d"/>
          <path id="Path_1042526" data-name="Path 1042526" d="M89.31,137.289v4.922H72.179v-2.362a2.56,2.56,0,0,1,2.56-2.56Z" transform="translate(-65.8 -124.488)" fill="#dd636e"/>
          <path id="Path_1042527" data-name="Path 1042527" d="M245.874,187.192h5.762v4.835h-5.762Z" transform="translate(-222.364 -169.469)" fill="#dd636e"/>
          <g id="Group_1203596" data-name="Group 1203596" transform="translate(17.341 31.335)">
            <path id="Path_1042528" data-name="Path 1042528" d="M187.756,365.91H185a1.673,1.673,0,0,0-1.673,1.673v12h6.1v-12A1.673,1.673,0,0,0,187.756,365.91Z" transform="translate(-183.329 -361.896)" fill="#c8ea73"/>
            <path id="Path_1042529" data-name="Path 1042529" d="M186.8,365.91a1.672,1.672,0,0,0-1.673,1.673v12h-1.8v-12A1.672,1.672,0,0,1,185,365.91Z" transform="translate(-183.329 -361.896)" fill="#aad880"/>
            <path id="Path_1042530" data-name="Path 1042530" d="M286.24,396.138h-2.755a1.673,1.673,0,0,0-1.673,1.673v9.014h6.1v-9.014A1.673,1.673,0,0,0,286.24,396.138Z" transform="translate(-272.1 -389.143)" fill="#dd636e"/>
            <path id="Path_1042531" data-name="Path 1042531" d="M285.281,396.13a1.674,1.674,0,0,0-1.673,1.673v9.014h-1.8V397.8a1.674,1.674,0,0,1,1.673-1.673Z" transform="translate(-272.096 -389.135)" fill="#da4a54"/>
            <path id="Path_1042532" data-name="Path 1042532" d="M384.725,325.213h-2.755a1.673,1.673,0,0,0-1.673,1.673V342.9h6.1V326.886A1.673,1.673,0,0,0,384.725,325.213Z" transform="translate(-360.872 -325.213)" fill="#f5de7d"/>
            <path id="Path_1042533" data-name="Path 1042533" d="M383.771,325.21a1.672,1.672,0,0,0-1.673,1.673v16.009h-1.8V326.883a1.672,1.672,0,0,1,1.673-1.673Z" transform="translate(-360.872 -325.21)" fill="#f1ce64"/>
          </g>
          <g id="Group_1203597" data-name="Group 1203597" transform="translate(26.248 25.853)">
            <path id="Path_1042534" data-name="Path 1042534" d="M282.067,272.645l-7.089-2.945a.967.967,0,0,0-1.264,1.264l2.945,7.089a.967.967,0,0,0,1.829-.126l.574-2.19a.967.967,0,0,1,.69-.69l2.19-.574A.967.967,0,0,0,282.067,272.645Z" transform="translate(-273.637 -269.623)" fill="#365e7d"/>
          </g>
        </g>
        <g id="Group_1203599" data-name="Group 1203599" transform="translate(0 0.005)">
          <path id="Path_1042535" data-name="Path 1042535" d="M44.25,0h-38A6.254,6.254,0,0,0,0,6.252V41.045a6.255,6.255,0,0,0,6.247,6.248H17.341v1.729H16.2a.74.74,0,1,0,0,1.479H46.8a.74.74,0,1,0,0-1.479H44.348V47.29A6.254,6.254,0,0,0,50.5,41.045V6.252A6.254,6.254,0,0,0,44.25.005ZM18.821,49.022V37.766a.934.934,0,0,1,.933-.933h2.755a.934.934,0,0,1,.933.933V49.022Zm6.1-4.688h2.134v1.479H24.921Zm0,2.959h2.134v1.729H24.921Zm3.613,1.729V40.747a.934.934,0,0,1,.933-.933h2.755a.934.934,0,0,1,.933.933v8.275Zm6.1-4.688h2.134v1.479H34.634Zm0,2.959h2.134v1.729H34.634Zm3.613,1.729V33.752a.934.934,0,0,1,.933-.933h2.755a.934.934,0,0,1,.933.933v2.684a.74.74,0,0,0,1.479,0V33.752a2.415,2.415,0,0,0-2.412-2.412H39.181a2.415,2.415,0,0,0-2.412,2.412v9.1H34.634V40.747a2.415,2.415,0,0,0-2.412-2.412H29.467a2.415,2.415,0,0,0-2.412,2.412v2.107H24.921V37.766a2.415,2.415,0,0,0-2.412-2.412H19.754a2.415,2.415,0,0,0-2.412,2.412v5.089H6.247a1.811,1.811,0,0,1-1.809-1.809V12.72a2.384,2.384,0,0,1,2.381-2.381H43.678a2.384,2.384,0,0,1,2.381,2.381V41.046a1.81,1.81,0,0,1-1.711,1.8V39.395a.74.74,0,1,0-1.479,0v9.627Zm10.77-7.977a4.773,4.773,0,0,1-4.67,4.766V44.331a3.292,3.292,0,0,0,3.191-3.286V12.72a3.865,3.865,0,0,0-3.86-3.86H6.819a3.865,3.865,0,0,0-3.86,3.86V41.046a3.292,3.292,0,0,0,3.288,3.288H17.341v1.479H6.247a4.774,4.774,0,0,1-4.768-4.769V6.252A4.773,4.773,0,0,1,6.247,1.484h38a4.773,4.773,0,0,1,4.768,4.768Z" transform="translate(0 -0.005)"/>
          <path id="Path_1042536" data-name="Path 1042536" d="M32.544,27.6a2.544,2.544,0,1,0,2.543,2.544A2.546,2.546,0,0,0,32.544,27.6Zm0,3.608a1.064,1.064,0,1,1,1.064-1.064A1.065,1.065,0,0,1,32.544,31.21Z" transform="translate(-27.041 -24.88)"/>
          <path id="Path_1042537" data-name="Path 1042537" d="M90.691,27.6a2.544,2.544,0,1,0,2.544,2.544A2.546,2.546,0,0,0,90.691,27.6Zm0,3.608a1.064,1.064,0,1,1,1.064-1.064A1.065,1.065,0,0,1,90.691,31.21Z" transform="translate(-79.453 -24.88)"/>
          <path id="Path_1042538" data-name="Path 1042538" d="M148.838,27.6a2.544,2.544,0,1,0,2.543,2.544A2.546,2.546,0,0,0,148.838,27.6Zm0,3.608a1.064,1.064,0,1,1,1.064-1.064A1.065,1.065,0,0,1,148.838,31.21Z" transform="translate(-131.865 -24.88)"/>
          <path id="Path_1042539" data-name="Path 1042539" d="M360.6,147.766a9.016,9.016,0,0,1-2.308-1.077.919.919,0,0,1-.238-.892,1.257,1.257,0,0,1,.584-.858V146a.74.74,0,1,0,1.479,0v-1.16a1.814,1.814,0,0,1,.585.3.74.74,0,0,0,.946-1.137,3.42,3.42,0,0,0-1.531-.686V142.8a.74.74,0,0,0-1.479,0v.568c-.068.017-.137.035-.206.056a2.672,2.672,0,0,0-1.832,2.1,2.366,2.366,0,0,0,.779,2.33,9.529,9.529,0,0,0,2.728,1.307,1.363,1.363,0,0,1,.969,1.579,1.752,1.752,0,0,1-.958,1.283v-1.871a.74.74,0,1,0-1.479,0v2.012a2.5,2.5,0,0,1-1.2-.487.74.74,0,1,0-.81,1.238,3.875,3.875,0,0,0,2.013.734v.577a.74.74,0,0,0,1.479,0v-.645a3.238,3.238,0,0,0,2.417-2.6A2.813,2.813,0,0,0,360.6,147.766Z" transform="translate(-321.15 -128.053)"/>
          <path id="Path_1042540" data-name="Path 1042540" d="M94,145.915l-4.951-2.057V133.085a3.3,3.3,0,0,0-3.3-3.3H73.178a.74.74,0,0,0,0,1.479h8.633v3.443H66.159v-1.622a1.822,1.822,0,0,1,1.82-1.821h2.24a.74.74,0,1,0,0-1.479h-2.24a3.3,3.3,0,0,0-3.3,3.3v14.394a3.3,3.3,0,0,0,3.3,3.3H85.753a3.284,3.284,0,0,0,1.158-.211l.716,1.725a1.682,1.682,0,0,0,1.57,1.052q.061,0,.124,0a1.685,1.685,0,0,0,1.534-1.27l.574-2.19a.228.228,0,0,1,.162-.162l2.19-.574A1.707,1.707,0,0,0,94,145.915Zm-7.089-2.945a1.707,1.707,0,0,0-2.353,1.405H83.29v-3.355h4.282v2.223Zm-20.754-1.949H81.811v3.355H66.159Zm21.413-1.479H83.29v-3.355h4.282Zm-4.282-8.277h2.463a1.822,1.822,0,0,1,1.82,1.821v1.622H83.29Zm-1.479,4.922v3.355H66.159v-3.355ZM66.159,147.479v-1.623H81.811V149.3H67.979A1.822,1.822,0,0,1,66.159,147.479Zm19.593,1.82H83.29v-3.443h1.664l1.389,3.345A1.815,1.815,0,0,1,85.753,149.3Zm7.822-1.791a.212.212,0,0,1-.169.2l-2.19.574A1.709,1.709,0,0,0,90,149.5l-.574,2.19a.225.225,0,0,1-.43.03l-2.945-7.089a.225.225,0,0,1,.3-.3l7.089,2.945A.212.212,0,0,1,93.575,147.507Z" transform="translate(-58.301 -116.985)"/>
        </g>
      </g>
    </g>
  </g>
</svg>
