<svg xmlns="http://www.w3.org/2000/svg" xmlns:xlink="http://www.w3.org/1999/xlink" width="103" height="103" viewBox="0 0 103 103">
  <defs>
    <filter id="Path_904820" x="0" y="0" width="103" height="103" filterUnits="userSpaceOnUse">
      <feOffset dy="3" input="SourceAlpha"/>
      <feGaussianBlur stdDeviation="3" result="blur"/>
      <feFlood flood-opacity="0.161"/>
      <feComposite operator="in" in2="blur"/>
      <feComposite in="SourceGraphic"/>
    </filter>
  </defs>
  <g id="Group_1203837" data-name="Group 1203837" transform="translate(-171 -5724.47)">
    <g id="Group_1203648" data-name="Group 1203648" transform="translate(0 -74.53)">
      <g id="Group_1203343" data-name="Group 1203343" transform="translate(5 3175)">
        <g id="Group_1202793" data-name="Group 1202793" transform="translate(175 2630)">
          <g id="Group_1178315" data-name="Group 1178315" transform="translate(0 0)">
            <g id="Group_1173585" data-name="Group 1173585">
              <g id="Group_1173428" data-name="Group 1173428">
                <g id="Group_1171958" data-name="Group 1171958">
                  <g id="Group_1167341" data-name="Group 1167341">
                    <g id="Group_1166792" data-name="Group 1166792">
                      <g transform="matrix(1, 0, 0, 1, -9, -6)" filter="url(#Path_904820)">
                        <g id="Path_904820-2" data-name="Path 904820" transform="translate(9 6)" fill="#edf3fc">
                          <path d="M 42.49999618530273 83.49997711181641 C 36.96437454223633 83.49997711181641 31.59512519836426 82.41616058349609 26.54140853881836 80.27861785888672 C 21.65933799743652 78.21367645263672 17.27447891235352 75.25721740722656 13.50861930847168 71.49135589599609 C 9.742773056030273 67.72550964355469 6.786302089691162 63.34065246582031 4.721360683441162 58.45858001708984 C 2.583819627761841 53.40486145019531 1.499996185302734 48.03561401367188 1.499996185302734 42.49999237060547 C 1.499996185302734 36.96437072753906 2.583819627761841 31.59512138366699 4.721360683441162 26.54140472412109 C 6.786302089691162 21.65933418273926 9.742773056030273 17.27447509765625 13.50861930847168 13.50861549377441 C 17.27447891235352 9.742769241333008 21.65933799743652 6.786310195922852 26.54140853881836 4.721368789672852 C 31.59512519836426 2.58382773399353 36.96437454223633 1.500004172325134 42.49999618530273 1.500004172325134 C 48.03561782836914 1.500004172325134 53.40486526489258 2.58382773399353 58.45858383178711 4.721368789672852 C 63.34065628051758 6.786310195922852 67.72551727294922 9.742769241333008 71.49137115478516 13.50861549377441 C 75.25721740722656 17.27447509765625 78.21369171142578 21.65933418273926 80.27863311767578 26.54140472412109 C 82.41617584228516 31.59512138366699 83.5 36.96437072753906 83.5 42.49999237060547 C 83.5 48.03561401367188 82.41617584228516 53.40486145019531 80.27863311767578 58.45858001708984 C 78.21369171142578 63.34065246582031 75.25721740722656 67.72550964355469 71.49137115478516 71.49135589599609 C 67.72551727294922 75.25721740722656 63.34065628051758 78.21367645263672 58.45858383178711 80.27861785888672 C 53.40486526489258 82.41616058349609 48.03561782836914 83.49997711181641 42.49999618530273 83.49997711181641 Z" stroke="none"/>
                          <path d="M 42.49999618530273 2.999992370605469 C 37.16621017456055 2.999992370605469 31.99355697631836 4.043952941894531 27.1257438659668 6.102874755859375 C 22.42246246337891 8.092178344726562 18.19786071777344 10.94069671630859 14.56927490234375 14.56927490234375 C 10.94070434570312 18.19786071777344 8.092185974121094 22.42245864868164 6.102874755859375 27.12572479248047 C 4.043952941894531 31.99355316162109 2.999992370605469 37.16620635986328 2.999992370605469 42.49999237060547 C 2.999992370605469 47.83377838134766 4.043952941894531 53.00641632080078 6.102874755859375 57.87424468994141 C 8.092185974121094 62.5775260925293 10.94070434570312 66.8021240234375 14.56927490234375 70.43070220947266 C 18.19786071777344 74.05927276611328 22.42246246337891 76.90779113769531 27.1257438659668 78.89710998535156 C 31.99355697631836 80.95601654052734 37.16621017456055 81.99997711181641 42.49999618530273 81.99997711181641 C 47.83378219604492 81.99997711181641 53.00643539428711 80.95601654052734 57.87425231933594 78.89710998535156 C 62.57752990722656 76.90779113769531 66.80213165283203 74.05927276611328 70.43071746826172 70.43070220947266 C 74.05928802490234 66.8021240234375 76.90780639648438 62.5775260925293 78.89711761474609 57.87424468994141 C 80.95603942871094 53.00641632080078 82 47.83377838134766 82 42.49999237060547 C 82 37.16620635986328 80.95603942871094 31.99355316162109 78.89711761474609 27.12572479248047 C 76.90780639648438 22.42245864868164 74.05928802490234 18.19786071777344 70.43071746826172 14.56927490234375 C 66.80213165283203 10.94069671630859 62.57752990722656 8.092178344726562 57.87425231933594 6.102874755859375 C 53.00643539428711 4.043952941894531 47.83378219604492 2.999992370605469 42.49999618530273 2.999992370605469 M 42.49999618530273 -7.62939453125e-06 C 65.97209167480469 -7.62939453125e-06 85 19.02788543701172 85 42.49999237060547 C 85 65.97208404541016 65.97209167480469 84.99997711181641 42.49999618530273 84.99997711181641 C 19.02790069580078 84.99997711181641 -7.62939453125e-06 65.97208404541016 -7.62939453125e-06 42.49999237060547 C -7.62939453125e-06 19.02788543701172 19.02790069580078 -7.62939453125e-06 42.49999618530273 -7.62939453125e-06 Z" stroke="none" fill="#5692e8"/>
                        </g>
                      </g>
                    </g>
                  </g>
                </g>
              </g>
            </g>
          </g>
        </g>
      </g>
      <g id="aprendiendo" transform="translate(192.668 5779.742)">
        <g id="Group_1203646" data-name="Group 1203646" transform="translate(0.874 40.555)">
          <path id="Path_1043624" data-name="Path 1043624" d="M56.373,304.662H45.421a12.187,12.187,0,0,0-12.187,12.187v.881H68.56v-.881a12.187,12.187,0,0,0-12.187-12.187Z" transform="translate(-30.235 -274.589)" fill="#82eca9"/>
          <path id="Path_1043625" data-name="Path 1043625" d="M186.061,304.662h-6.033v10.679a2.453,2.453,0,0,0,1.9,2.389h16.318v-.881A12.187,12.187,0,0,0,186.061,304.662Z" transform="translate(-159.923 -274.589)" fill="#78df9f"/>
          <path id="Path_1043626" data-name="Path 1043626" d="M101.473,52.59a11.537,11.537,0,0,0-3.51-2.084.4.4,0,0,1-.249-.445,6.684,6.684,0,0,1,.558-1.618,1.207,1.207,0,0,0-.948-1.733c-6.45-.727-10.247,2.169-11.958,3.994a.568.568,0,0,1-.422.182,10.02,10.02,0,0,0-6.183,2.284,3.416,3.416,0,0,0-1.321,2.767L77.6,64.13a4.519,4.519,0,0,0,4.5,4.123H97.776a4.519,4.519,0,0,0,4.5-4.133l.351-8.825A3.441,3.441,0,0,0,101.473,52.59Z" transform="translate(-69.29 -46.595)" fill="#ffe177"/>
          <circle id="Ellipse_12627" data-name="Ellipse 12627" cx="2.661" cy="2.661" r="2.661" transform="translate(8.937 18.147)" fill="#ffdfcf"/>
          <circle id="Ellipse_12628" data-name="Ellipse 12628" cx="2.661" cy="2.661" r="2.661" transform="translate(27.504 18.147)" fill="#ffdfcf"/>
          <path id="Path_1043627" data-name="Path 1043627" d="M64.455,422.055H8.461a.961.961,0,0,1-.961-.961v-3.621a.961.961,0,0,1,.961-.961H64.456a.961.961,0,0,1,.961.961v3.621A.961.961,0,0,1,64.455,422.055Z" transform="translate(-7.5 -373.404)" fill="#bc7c63"/>
          <path id="Path_1043628" data-name="Path 1043628" d="M154.933,278.548H154.4a3.708,3.708,0,0,1-3.708-3.708v-5.867h7.951v5.867A3.708,3.708,0,0,1,154.933,278.548Z" transform="translate(-134.003 -243.059)" fill="#ffdfcf"/>
          <path id="Path_1043629" data-name="Path 1043629" d="M120.315,145.15h-1.4a7.9,7.9,0,0,1-7.9-7.9v-5.795a7.9,7.9,0,0,1,7.9-7.9h1.4a7.9,7.9,0,0,1,7.9,7.9v5.795A7.9,7.9,0,0,1,120.315,145.15Z" transform="translate(-98.951 -114.591)" fill="#ffeee6"/>
          <path id="Path_1043630" data-name="Path 1043630" d="M117.483,122.413a7.008,7.008,0,0,0,6.024-3.423c0-3.069-4.3-5.756-7.588-5.756-4.539,0-10.95,4.871-8.574,9.179Z" transform="translate(-95.257 -105.468)" fill="#ffe177"/>
          <path id="Path_1043631" data-name="Path 1043631" d="M180.028,278.535c.1.007.191.012.289.012h.536a3.708,3.708,0,0,0,3.708-3.708v-5.867h-4.533Z" transform="translate(-159.923 -243.059)" fill="#ffcebf"/>
          <path id="Path_1043632" data-name="Path 1043632" d="M182.482,207.27a2.454,2.454,0,0,0-2.454,2.454V219.1h1.258a7.9,7.9,0,0,0,7.9-7.9V207.27Z" transform="translate(-159.923 -188.546)" fill="#ffdfcf"/>
          <path id="Path_1043633" data-name="Path 1043633" d="M232.8,253.9H207.663a2.454,2.454,0,0,1-2.454-2.454V234.905a2.454,2.454,0,0,1,2.454-2.454H232.8a2.454,2.454,0,0,1,2.454,2.454V251.45A2.454,2.454,0,0,1,232.8,253.9Z" transform="translate(-182.17 -210.793)" fill="#dff7ff"/>
          <circle id="Ellipse_12629" data-name="Ellipse 12629" cx="2.934" cy="2.934" r="2.934" transform="translate(35.128 29.45)" fill="#c5dee2"/>
        </g>
        <g id="Group_1203647" data-name="Group 1203647" transform="translate(0 39.758)">
          <path id="Path_1043634" data-name="Path 1043634" d="M57.829,82.865H54.435a3.307,3.307,0,0,0,.4-1.576V64.744A3.332,3.332,0,0,0,51.5,61.415H34.573A3.512,3.512,0,0,0,34.268,60a5.374,5.374,0,0,0,.465-1.773q0-.02,0-.04l.351-8.825a4.3,4.3,0,0,0-1.448-3.392,12.312,12.312,0,0,0-3.391-2.092,6.208,6.208,0,0,1,.395-1.021,2.081,2.081,0,0,0-1.636-2.983,16.956,16.956,0,0,0-5.5.235.874.874,0,0,0,.371,1.708,15.22,15.22,0,0,1,4.93-.206.324.324,0,0,1,.254.169.333.333,0,0,1,.006.314,7.517,7.517,0,0,0-.63,1.833,1.269,1.269,0,0,0,.793,1.428,10.762,10.762,0,0,1,3.242,1.921,2.559,2.559,0,0,1,.864,2.017l-.35,8.8c-.011.121-.028.241-.051.36a3.513,3.513,0,0,0-1.9-.556H31A9.489,9.489,0,0,0,29.9,53.74c-.006-.012-.014-.022-.02-.034h0a.869.869,0,0,0-.46-.377.881.881,0,0,0-1.042.376,6.174,6.174,0,0,1-5.274,3H12.961a.888.888,0,0,0-.49.15.87.87,0,0,0-.384.661c-.01.137-.016.276-.02.415a3.519,3.519,0,0,0-1.9.831,3.669,3.669,0,0,1-.12-.64L9.9,49.957a2.552,2.552,0,0,1,.982-2.06,9.219,9.219,0,0,1,5.635-2.1,1.447,1.447,0,0,0,1.073-.458,11.951,11.951,0,0,1,3-2.3A.874.874,0,0,0,19.75,41.5,13.556,13.556,0,0,0,16.4,44.047,10.994,10.994,0,0,0,9.81,46.515a4.308,4.308,0,0,0-1.66,3.475L8.3,58.183q0,.03,0,.06a5.34,5.34,0,0,0,.745,2.3,3.534,3.534,0,0,0,3.313,4.43,9.491,9.491,0,0,0,3.086,4.874A13.077,13.077,0,0,0,3,82.865H1.835A1.837,1.837,0,0,0,0,84.7v3.622a1.837,1.837,0,0,0,1.835,1.835H44.819a.874.874,0,0,0,0-1.748H1.835a.087.087,0,0,1-.087-.087V84.7a.087.087,0,0,1,.087-.087h1.8a.871.871,0,0,0,.239.034l53.957-.034a.087.087,0,0,1,.087.087v3.622a.087.087,0,0,1-.087.087H48.9a.874.874,0,0,0,0,1.748h8.932a1.837,1.837,0,0,0,1.835-1.835V84.7a1.837,1.837,0,0,0-1.835-1.835ZM10.685,61.439A1.789,1.789,0,0,1,12.063,59.7v2.89c0,.2.008.4.02.591A1.789,1.789,0,0,1,10.685,61.439Zm20.324-1.786h.029a1.788,1.788,0,0,1,1.786,1.763H31.009Zm-17.2,2.938V58.45H23.1a7.932,7.932,0,0,0,5.809-2.558,7.763,7.763,0,0,1,.352,2.308v3.216H26.368a3.332,3.332,0,0,0-3.328,3.328V70.17a7.73,7.73,0,0,1-9.229-7.579Zm4.623,8.951a9.431,9.431,0,0,0,3.1.522,9.55,9.55,0,0,0,1.5-.119v3.017a2.831,2.831,0,0,1-1.236.284h-.536a2.837,2.837,0,0,1-2.834-2.834Zm-2.374.037h.626v.834a4.587,4.587,0,0,0,4.582,4.582H21.8a4.591,4.591,0,0,0,1.236-.169v4.464a3.307,3.307,0,0,0,.4,1.576H4.747A11.326,11.326,0,0,1,16.06,71.579Zm37.025,9.71a1.581,1.581,0,0,1-1.495,1.576H26.282a1.581,1.581,0,0,1-1.495-1.576V64.744a1.582,1.582,0,0,1,1.58-1.58H51.5a1.582,1.582,0,0,1,1.58,1.58Z" transform="translate(0 -39.758)"/>
          <path id="Path_1043635" data-name="Path 1043635" d="M305.25,292.477a3.808,3.808,0,1,0,3.808,3.808A3.813,3.813,0,0,0,305.25,292.477Zm0,5.869a2.06,2.06,0,1,1,2.06-2.06A2.063,2.063,0,0,1,305.25,298.346Z" transform="translate(-266.314 -263.027)"/>
        </g>
      </g>
    </g>
  </g>
</svg>
