<svg xmlns="http://www.w3.org/2000/svg" xmlns:xlink="http://www.w3.org/1999/xlink" width="113" height="113" viewBox="0 0 113 113">
  <defs>
    <filter id="Path_982547" x="0" y="0" width="113" height="113" filterUnits="userSpaceOnUse">
      <feOffset dy="3" input="SourceAlpha"/>
      <feGaussianBlur stdDeviation="3" result="blur"/>
      <feFlood flood-opacity="0.161"/>
      <feComposite operator="in" in2="blur"/>
      <feComposite in="SourceGraphic"/>
    </filter>
  </defs>
  <g id="Group_1203820" data-name="Group 1203820" transform="translate(-1216 -5901)">
    <g id="Group_1203636" data-name="Group 1203636">
      <g id="Group_1202435" data-name="Group 1202435" transform="translate(-0.56 1255.486)">
        <g id="Group_1202052" data-name="Group 1202052" transform="translate(1225.561 4651.514)">
          <g id="Group_1172010" data-name="Group 1172010" transform="translate(0)">
            <g id="Group_1171046" data-name="Group 1171046">
              <g id="Group_1148525" data-name="Group 1148525">
                <g transform="matrix(1, 0, 0, 1, -9, -6)" filter="url(#Path_982547)">
                  <g id="Path_982547-2" data-name="Path 982547" transform="translate(9 6)" fill="#edf3fc">
                    <path d="M 47.5 93.5 C 41.28937149047852 93.5 35.26533508300781 92.28397369384766 29.59518623352051 89.88570404052734 C 24.11771965026855 87.56893157958984 19.19813346862793 84.25196075439453 14.97309303283691 80.02691650390625 C 10.74804019927979 75.80186462402344 7.431066513061523 70.88229370117188 5.114293098449707 65.40481567382812 C 2.716026782989502 59.73468017578125 1.5 53.71062850952148 1.5 47.5 C 1.5 41.28937149047852 2.716026782989502 35.26533508300781 5.114293098449707 29.59518623352051 C 7.431066513061523 24.11771965026855 10.74804019927979 19.19813346862793 14.97309303283691 14.97309303283691 C 19.19813346862793 10.74804019927979 24.11771965026855 7.431066513061523 29.59518623352051 5.114293098449707 C 35.26533508300781 2.716026782989502 41.28937149047852 1.5 47.5 1.5 C 53.71062850952148 1.5 59.73468017578125 2.716026782989502 65.40481567382812 5.114293098449707 C 70.88229370117188 7.431066513061523 75.80186462402344 10.74804019927979 80.02691650390625 14.97309303283691 C 84.25196075439453 19.19813346862793 87.56893157958984 24.11771965026855 89.88570404052734 29.59518623352051 C 92.28397369384766 35.26533508300781 93.5 41.28937149047852 93.5 47.5 C 93.5 53.71062850952148 92.28397369384766 59.73468017578125 89.88570404052734 65.40481567382812 C 87.56893157958984 70.88229370117188 84.25196075439453 75.80186462402344 80.02691650390625 80.02691650390625 C 75.80186462402344 84.25196075439453 70.88229370117188 87.56893157958984 65.40481567382812 89.88570404052734 C 59.73468017578125 92.28397369384766 53.71062850952148 93.5 47.5 93.5 Z" stroke="none"/>
                    <path d="M 47.5 3 C 41.49121475219727 3 35.66376876831055 4.176155090332031 30.17950439453125 6.495796203613281 C 24.88084411621094 8.736953735351562 20.12152099609375 11.94598388671875 16.03375244140625 16.03375244140625 C 11.94598388671875 20.12152099609375 8.736953735351562 24.88084411621094 6.495796203613281 30.17950439453125 C 4.176155090332031 35.66376876831055 3 41.49121475219727 3 47.5 C 3 53.50878524780273 4.176155090332031 59.33623123168945 6.495796203613281 64.82049560546875 C 8.736953735351562 70.11915588378906 11.94598388671875 74.87847900390625 16.03375244140625 78.96624755859375 C 20.12152099609375 83.05401611328125 24.88084411621094 86.26304626464844 30.17950439453125 88.50419616699219 C 35.66376876831055 90.82384490966797 41.49121475219727 92 47.5 92 C 53.50878524780273 92 59.33623123168945 90.82384490966797 64.82049560546875 88.50419616699219 C 70.11915588378906 86.26304626464844 74.87847900390625 83.05401611328125 78.96624755859375 78.96624755859375 C 83.05401611328125 74.87847900390625 86.26304626464844 70.11915588378906 88.50419616699219 64.82049560546875 C 90.82384490966797 59.33623123168945 92 53.50878524780273 92 47.5 C 92 41.49121475219727 90.82384490966797 35.66376876831055 88.50419616699219 30.17950439453125 C 86.26304626464844 24.88084411621094 83.05401611328125 20.12152099609375 78.96624755859375 16.03375244140625 C 74.87847900390625 11.94598388671875 70.11915588378906 8.736953735351562 64.82049560546875 6.495796203613281 C 59.33623123168945 4.176155090332031 53.50878524780273 3 47.5 3 M 47.5 0 C 73.7335205078125 0 95 21.2664794921875 95 47.5 C 95 73.7335205078125 73.7335205078125 95 47.5 95 C 21.2664794921875 95 0 73.7335205078125 0 47.5 C 0 21.2664794921875 21.2664794921875 0 47.5 0 Z" stroke="none" fill="#5692e8"/>
                  </g>
                </g>
              </g>
            </g>
          </g>
        </g>
      </g>
      <g id="trabajo-en-equipo_5_" data-name="trabajo-en-equipo (5)" transform="translate(1242.425 5924.693)">
        <circle id="Ellipse_12621" data-name="Ellipse 12621" cx="12.661" cy="12.661" r="12.661" transform="translate(17.372 17.152)" fill="#ffb850"/>
        <path id="Path_1042598" data-name="Path 1042598" d="M27.7,343.493a9.948,9.948,0,1,1-9.948-9.948A9.91,9.91,0,0,1,27.7,343.493Z" transform="translate(-6.628 -294.701)" fill="#eaf6ff"/>
        <path id="Path_1042599" data-name="Path 1042599" d="M47.415,436.308v2.279a9.944,9.944,0,0,1-13.91,0v-2.279a1.6,1.6,0,0,1,1.08-1.513l4.856-1.67h2.038l4.855,1.67A1.6,1.6,0,0,1,47.415,436.308Z" transform="translate(-29.335 -382.684)" fill="#ffb850"/>
        <path id="Path_1042600" data-name="Path 1042600" d="M37,438.587a9.9,9.9,0,0,0,5.208,2.683,9.954,9.954,0,0,1-8.7-2.683v-2.279a1.6,1.6,0,0,1,1.08-1.513l4.856-1.67h2.038l.728.25-4.128,1.42A1.6,1.6,0,0,0,37,436.308Z" transform="translate(-29.335 -382.684)" fill="#f5a30f"/>
        <path id="Path_1042601" data-name="Path 1042601" d="M353.141,343.493a9.948,9.948,0,1,1-9.948-9.948A9.91,9.91,0,0,1,353.141,343.493Z" transform="translate(-294.168 -294.701)" fill="#eaf6ff"/>
        <path id="Path_1042602" data-name="Path 1042602" d="M372.855,436.308v2.279a9.944,9.944,0,0,1-13.91,0v-2.279a1.6,1.6,0,0,1,1.081-1.513l4.855-1.67h2.038l4.856,1.67A1.6,1.6,0,0,1,372.855,436.308Z" transform="translate(-316.875 -382.684)" fill="#88b4f5"/>
        <path id="Path_1042603" data-name="Path 1042603" d="M362.439,438.587a9.9,9.9,0,0,0,5.208,2.683,9.954,9.954,0,0,1-8.7-2.683v-2.279a1.6,1.6,0,0,1,1.081-1.513l4.855-1.67h2.038l.728.25-4.127,1.42a1.6,1.6,0,0,0-1.081,1.513Z" transform="translate(-316.875 -382.684)" fill="#6ea2f2"/>
        <path id="Path_1042604" data-name="Path 1042604" d="M353.141,17.453a9.912,9.912,0,0,1-2.993,7.111h0a9.947,9.947,0,0,1-13.91,0h0a9.947,9.947,0,1,1,16.9-7.111Z" transform="translate(-294.168 -6.631)" fill="#eaf6ff"/>
        <path id="Path_1042605" data-name="Path 1042605" d="M372.855,110.267v2.281a9.946,9.946,0,0,1-13.91,0v-2.281a1.6,1.6,0,0,1,1.081-1.513l4.855-1.669h2.038l4.856,1.669A1.6,1.6,0,0,1,372.855,110.267Z" transform="translate(-316.875 -94.614)" fill="#f07281"/>
        <path id="Path_1042606" data-name="Path 1042606" d="M362.439,112.548a9.909,9.909,0,0,0,5.208,2.682,9.956,9.956,0,0,1-8.7-2.682v-2.281a1.6,1.6,0,0,1,1.081-1.513l4.855-1.669h2.038l.728.25-4.127,1.418a1.6,1.6,0,0,0-1.081,1.513Z" transform="translate(-316.875 -94.614)" fill="#eb5569"/>
        <path id="Path_1042607" data-name="Path 1042607" d="M27.7,17.453a9.912,9.912,0,0,1-2.993,7.111h0a9.947,9.947,0,0,1-13.91,0h0a9.947,9.947,0,1,1,16.9-7.111Z" transform="translate(-6.628 -6.631)" fill="#eaf6ff"/>
        <path id="Path_1042608" data-name="Path 1042608" d="M47.415,110.267v2.281a9.947,9.947,0,0,1-13.91,0v-2.281a1.6,1.6,0,0,1,1.08-1.513l4.856-1.669h2.038l4.855,1.669A1.6,1.6,0,0,1,47.415,110.267Z" transform="translate(-29.335 -94.614)" fill="#ade194"/>
        <path id="Path_1042609" data-name="Path 1042609" d="M37,112.548a9.909,9.909,0,0,0,5.208,2.682,9.956,9.956,0,0,1-8.7-2.682v-2.281a1.6,1.6,0,0,1,1.08-1.513l4.856-1.669h2.038l.728.25-4.128,1.418A1.6,1.6,0,0,0,37,110.267Z" transform="translate(-29.335 -94.614)" fill="#87d469"/>
        <circle id="Ellipse_12622" data-name="Ellipse 12622" cx="9.317" cy="9.317" r="9.317" transform="matrix(0.987, -0.16, 0.16, 0.987, 19.339, 22.111)" fill="#fbd94f"/>
        <path id="Path_1042610" data-name="Path 1042610" d="M220.7,217.277l1.421,2.88,3.178.462-2.3,2.242.543,3.165-2.843-1.494-2.842,1.494.543-3.165-2.3-2.242,3.178-.462Z" transform="translate(-190.662 -191.973)" fill="#ffb850"/>
        <circle id="Ellipse_12623" data-name="Ellipse 12623" cx="3.595" cy="3.595" r="3.595" transform="translate(45.431 5.277)" fill="#ffeee6"/>
        <path id="Path_1042611" data-name="Path 1042611" d="M393.146,52.051a3.594,3.594,0,1,1,0-6.283,3.6,3.6,0,0,0,0,6.283Z" transform="translate(-342.374 -40.038)" fill="#ffdfcf"/>
        <circle id="Ellipse_12624" data-name="Ellipse 12624" cx="3.595" cy="3.595" r="3.595" transform="translate(7.53 5.277)" fill="#ffcebf"/>
        <path id="Path_1042612" data-name="Path 1042612" d="M67.7,52.051a3.594,3.594,0,1,1,0-6.283,3.594,3.594,0,0,0,0,6.283Z" transform="translate(-54.826 -40.038)" fill="#ffb09e"/>
        <circle id="Ellipse_12625" data-name="Ellipse 12625" cx="3.595" cy="3.595" r="3.595" transform="translate(45.431 43.249)" fill="#ffcebf"/>
        <path id="Path_1042613" data-name="Path 1042613" d="M393.146,378.1a3.595,3.595,0,1,1,0-6.283,3.6,3.6,0,0,0,0,6.283Z" transform="translate(-342.374 -328.116)" fill="#ffb09e"/>
        <circle id="Ellipse_12626" data-name="Ellipse 12626" cx="3.595" cy="3.595" r="3.595" transform="translate(7.53 43.249)" fill="#ffeee6"/>
        <path id="Path_1042614" data-name="Path 1042614" d="M67.7,378.1a3.595,3.595,0,1,1,0-6.283,3.594,3.594,0,0,0,0,6.283Z" transform="translate(-54.826 -328.116)" fill="#ffdfcf"/>
        <g id="Group_1203635" data-name="Group 1203635" transform="translate(0.303 0)">
          <path id="Path_1042615" data-name="Path 1042615" d="M168.085,178.694a10.188,10.188,0,0,0,18.506,5.885.873.873,0,0,0-1.424-1.011,8.4,8.4,0,1,1,1.379-3.169.873.873,0,1,0,1.711.354,10.191,10.191,0,1,0-20.171-2.059Z" transform="translate(-148.545 -148.88)"/>
          <path id="Path_1042616" data-name="Path 1042616" d="M218.316,212.335l-2.724-.4-1.218-2.468c-.392-.846-1.208-.729-1.566,0l-1.218,2.468-2.724.4c-.911.075-1.027.949-.484,1.49l1.971,1.921-.465,2.713q.061,1.248,1.267.921l2.436-1.281,2.436,1.281a.887.887,0,0,0,1.267-.921l-.465-2.713,1.971-1.921A.814.814,0,0,0,218.316,212.335Zm-3.035,2.48a.874.874,0,0,0-.251.773l.244,1.421L214,216.339a.874.874,0,0,0-.813,0l-1.276.671.244-1.421a.874.874,0,0,0-.251-.773l-1.032-1.006,1.427-.207a.873.873,0,0,0,.658-.478l.638-1.293.638,1.293a.873.873,0,0,0,.658.478l1.427.207Z" transform="translate(-183.861 -184.554)"/>
          <path id="Path_1042617" data-name="Path 1042617" d="M52.771,38.64a24.453,24.453,0,0,0,0-17.664,10.951,10.951,0,0,0,7.08-10.154A10.822,10.822,0,0,0,38.871,7.079a24.451,24.451,0,0,0-17.6-.027A10.821,10.821,0,0,0,.3,10.822,10.951,10.951,0,0,0,7.31,20.948a24.448,24.448,0,0,0,0,17.719,10.839,10.839,0,0,0-7,10.125A10.96,10.96,0,0,0,11.125,59.614a10.946,10.946,0,0,0,10.139-7.041,24.45,24.45,0,0,0,17.611-.028,10.822,10.822,0,1,0,13.9-13.905Zm2.336-21.089a9.057,9.057,0,0,1-12.163,0v-1.9a.725.725,0,0,1,.49-.687l4.718-1.622H49.9l4.719,1.622a.725.725,0,0,1,.489.687v1.9ZM46.3,8.872a2.721,2.721,0,1,1,2.721,2.721A2.724,2.724,0,0,1,46.3,8.872Zm2.721-7.125a9.069,9.069,0,0,1,7.817,13.677,2.47,2.47,0,0,0-1.658-2.11l-3.2-1.1a4.468,4.468,0,1,0-5.921,0l-3.2,1.1a2.47,2.47,0,0,0-1.659,2.11A9.068,9.068,0,0,1,49.025,1.747ZM3.308,15.423a9.073,9.073,0,1,1,16.891-4.6,9.017,9.017,0,0,1-1.258,4.6,2.47,2.47,0,0,0-1.658-2.11l-3.2-1.1a4.468,4.468,0,1,0-5.921,0l-3.2,1.1a2.47,2.47,0,0,0-1.659,2.11ZM13.846,8.872a2.721,2.721,0,1,1-2.721-2.721A2.724,2.724,0,0,1,13.846,8.872Zm-8.8,8.679v-1.9a.725.725,0,0,1,.49-.687l4.718-1.622H12l4.719,1.622a.725.725,0,0,1,.489.687v1.9a9.056,9.056,0,0,1-12.163,0ZM17.206,55.521a9.056,9.056,0,0,1-12.163,0v-1.9a.725.725,0,0,1,.49-.687l4.718-1.622H12l4.719,1.622a.725.725,0,0,1,.489.687ZM8.4,46.843a2.721,2.721,0,1,1,2.721,2.721A2.724,2.724,0,0,1,8.4,46.843Zm30,4.012a22.708,22.708,0,0,1-16.66.03,11.017,11.017,0,0,0-3.756-10.46.873.873,0,1,0-1.108,1.35,9.186,9.186,0,0,1,2.063,11.619,2.47,2.47,0,0,0-1.658-2.109l-3.2-1.1a4.468,4.468,0,1,0-5.921,0l-3.2,1.1a2.471,2.471,0,0,0-1.659,2.109,9.017,9.017,0,0,1-1.258-4.6,9.164,9.164,0,0,1,11.771-8.667.873.873,0,0,0,.52-1.668,11.063,11.063,0,0,0-5.349-.275,22.7,22.7,0,0,1,0-16.75A10.926,10.926,0,0,0,21.745,8.741a22.706,22.706,0,0,1,16.655.03A10.926,10.926,0,0,0,51.076,21.447a22.71,22.71,0,0,1,0,16.72A10.951,10.951,0,0,0,38.4,50.855Zm4.542,4.667v-1.9a.725.725,0,0,1,.49-.687l4.718-1.622H49.9l4.719,1.622a.725.725,0,0,1,.489.687v1.9a9.057,9.057,0,0,1-12.163,0Zm6.081-5.958a2.721,2.721,0,1,1,2.721-2.721A2.724,2.724,0,0,1,49.025,49.564Zm7.817,3.83a2.47,2.47,0,0,0-1.658-2.11l-3.2-1.1a4.468,4.468,0,1,0-5.921,0l-3.2,1.1a2.471,2.471,0,0,0-1.659,2.11,9.075,9.075,0,1,1,15.633,0Z" transform="translate(-0.303 0)"/>
          <path id="Path_1042618" data-name="Path 1042618" d="M163.144,145.5A13.551,13.551,0,0,0,155,140.963a.873.873,0,1,0-.27,1.726,11.79,11.79,0,1,1-3.546-.017.873.873,0,1,0-.253-1.729,13.546,13.546,0,1,0,12.211,4.554Z" transform="translate(-123.17 -124.52)"/>
        </g>
      </g>
    </g>
  </g>
</svg>
